<svg width="60" height="60" viewBox="0 0 60 60" fill="none" xmlns="http://www.w3.org/2000/svg">
<path d="M32.7198 20.58C38.9198 18.58 39.7398 11.02 36.6198 5.94001C34.1398 1.92001 29.9198 1.28001 25.9398 3.28001C22.4398 5.04001 19.3598 8.62001 19.8398 12.76C20.5998 19.1 26.8598 22.48 32.7198 20.58Z" fill="white"/>
<path d="M54.64 30.24C59.94 26.46 58.42 19 53.92 15.1C50.34 12.02 46.12 12.7 42.94 15.8C40.14 18.54 38.28 22.9 40 26.68C42.64 32.5 49.62 33.82 54.64 30.24Z" fill="white"/>
<path d="M17.2999 33.18C22.5999 29.4 21.0799 21.94 16.5799 18.04C12.9999 14.96 8.77989 15.64 5.59989 18.74C2.79989 21.48 0.939888 25.84 2.65989 29.62C5.29989 35.44 12.2799 36.76 17.2999 33.18Z" fill="white"/>
<path d="M23.2198 55.82C28.5198 52.04 26.9998 44.58 22.4998 40.68C18.9198 37.6 14.6998 38.28 11.5198 41.38C8.71981 44.12 6.85981 48.48 8.57981 52.26C11.1998 58.08 18.1998 59.4 23.2198 55.82Z" fill="white"/>
<path d="M49.3399 54.66C54.6399 50.88 53.1199 43.42 48.6199 39.52C45.0399 36.44 40.8199 37.12 37.6399 40.22C34.8399 42.96 32.9799 47.32 34.6999 51.1C37.3399 56.92 44.3199 58.24 49.3399 54.66Z" fill="white"/>
<path d="M54.5399 29C53.1799 24.66 50.4799 21.2 47.1599 18.16C45.4399 16.58 43.7799 14.52 41.6599 13.44C38.1999 11.64 32.4399 10.9 28.5999 11.12C20.02 11.64 12.14 13.8 9.19996 22.46C8.33996 24.98 7.17996 27.54 6.55996 30.14C6.43996 30.62 6.35996 31.02 6.31996 31.38C6.01996 31.94 6.07996 32.84 6.39996 34.2C7.03996 36.8 8.17996 39.34 9.03996 41.88C12 50.54 19.86 52.72 28.4399 53.22C32.2799 53.44 38.0399 52.7 41.5199 50.92C43.6199 49.84 45.2999 47.78 47.0199 46.2C50.3399 43.16 53.0399 39.68 54.3999 35.36C54.4599 35.2 54.4999 35.04 54.5399 34.88C54.7799 34.46 54.9399 33.9 54.9999 33.58C55.3399 32.06 54.9999 30.44 54.5399 29Z" stroke="#F28B3C" stroke-width="2.3091" stroke-miterlimit="10"/>
</svg>
