<svg width="60" height="60" viewBox="0 0 60 60" fill="none" xmlns="http://www.w3.org/2000/svg">
<path d="M28.7001 14.94V49.18C28.7001 49.18 2.82011 55.94 14.7601 55.94C26.7001 55.94 55.3801 61.52 44.6201 54.34C33.8601 47.18 35.8601 49.16 35.8601 49.16L30.2801 2L28.2801 4L28.7001 14.94Z" fill="#382716"/>
<path d="M8.25998 16.92L53.9 11.36L52 13.74L7.97998 18.52L8.25998 16.92Z" fill="#382716"/>
<path d="M6.40004 32.46C6.40004 32.46 5.60004 13.34 9.98004 18.12C14.36 22.9 16.74 36.04 16.74 36.04" stroke="white" stroke-width="2.4845" stroke-miterlimit="10"/>
<path d="M53.5402 27.26C53.5402 27.26 54.3402 8.13999 49.9602 12.92C45.5802 17.7 49.4402 30.84 49.4402 30.84" stroke="white" stroke-width="2.4845" stroke-miterlimit="10"/>
<path d="M22.1 33.08C15.62 47.44 2.66005 37 2.28005 33.28C1.66005 27.16 4.08005 34 15.42 31.86C18.66 31.26 24.6201 27.48 22.1 33.08Z" fill="#F28B3C"/>
<path d="M46.5 29.46C46.16 35.3 57.32 34.24 57.7 30.52C58.32 24.4 56.24 26.7 52.6 27.06C49.34 27.4 46.7 26.16 46.5 29.46Z" fill="#F28B3C"/>
</svg>
