<svg width="60" height="60" viewBox="0 0 60 60" fill="none" xmlns="http://www.w3.org/2000/svg">
<path d="M8.85993 2.74C8.85993 2.74 8.45993 33.26 8.45993 37.88C8.45993 42.5 8.31993 49.7 8.97993 54.08C9.63993 58.46 9.89993 57.6 9.89993 57.6C9.89993 57.6 10.1599 4.12 9.89993 2.74C9.65993 1.38 8.85993 2.74 8.85993 2.74Z" fill="#F28B3C"/>
<path d="M19.2801 2.94002C19.2801 2.94002 18.8801 33.46 18.8801 38.08C18.8801 42.7 18.7401 49.9 19.4001 54.28C20.0601 58.66 20.3201 57.8 20.3201 57.8C20.3201 57.8 20.5801 4.32002 20.3201 2.94002C20.0801 1.58002 19.2801 2.94002 19.2801 2.94002Z" fill="#F28B3C"/>
<path d="M28.5001 2.75999C28.5001 2.75999 28.1001 33.28 28.1001 37.9C28.1001 42.52 27.9601 49.72 28.6201 54.1C29.2801 58.48 29.5401 57.62 29.5401 57.62C29.5401 57.62 29.8001 4.13999 29.5401 2.75999C29.2801 1.39999 28.5001 2.75999 28.5001 2.75999Z" fill="#F28B3C"/>
<path d="M38.0601 2.94002C38.0601 2.94002 37.6601 33.46 37.6601 38.08C37.6601 42.7 37.5201 49.9 38.1801 54.28C38.8401 58.66 39.1001 57.8 39.1001 57.8C39.1001 57.8 39.3601 4.32002 39.1001 2.94002C38.8401 1.58002 38.0601 2.94002 38.0601 2.94002Z" fill="#F28B3C"/>
<path d="M47.2801 2.94002C47.2801 2.94002 46.8801 33.46 46.8801 38.08C46.8801 42.7 46.7401 49.9 47.4001 54.28C48.0601 58.66 48.3201 57.8 48.3201 57.8C48.3201 57.8 48.5801 4.32002 48.3201 2.94002C48.0601 1.58002 47.2801 2.94002 47.2801 2.94002Z" fill="#F28B3C"/>
<path d="M3.10002 50.44C3.10002 50.44 33.62 50.3 38.24 50.22C42.86 50.14 50.06 50.14 54.42 49.42C58.78 48.7 57.92 48.44 57.92 48.44C57.92 48.44 4.44002 49.12 3.08002 49.4C1.72002 49.68 3.10002 50.44 3.10002 50.44Z" fill="#F28B3C"/>
<path d="M3.10002 40.02C3.10002 40.02 33.62 39.88 38.24 39.8C42.86 39.72 50.06 39.72 54.42 39C58.78 38.28 57.92 38.02 57.92 38.02C57.92 38.02 4.44002 38.7 3.08002 38.98C1.72002 39.26 3.10002 40.02 3.10002 40.02Z" fill="#F28B3C"/>
<path d="M2.77995 30.8C2.77995 30.8 33.2999 30.66 37.9199 30.58C42.5399 30.5 49.7399 30.5 54.0999 29.78C58.4599 29.06 57.5999 28.8 57.5999 28.8C57.5999 28.8 4.11995 29.48 2.75995 29.76C1.39995 30.04 2.77995 30.8 2.77995 30.8Z" fill="#F28B3C"/>
<path d="M2.77995 21.24C2.77995 21.24 33.2999 21.1 37.9199 21.02C42.5399 20.94 49.7399 20.94 54.0999 20.22C58.4599 19.5 57.5999 19.24 57.5999 19.24C57.5999 19.24 4.11995 19.9 2.75995 20.2C1.39995 20.48 2.77995 21.24 2.77995 21.24Z" fill="#F28B3C"/>
<path d="M2.62004 12.02C2.62004 12.02 33.14 11.88 37.76 11.8C42.38 11.72 49.58 11.72 53.94 11C58.3 10.28 57.44 10.02 57.44 10.02C57.44 10.02 3.96004 10.7 2.60003 10.98C1.24003 11.26 2.62004 12.02 2.62004 12.02Z" fill="#F28B3C"/>
<path d="M44.72 56.8C46.4 56.26 46.62 54.2 45.78 52.82C45.1 51.72 43.96 51.56 42.88 52.1C41.94 52.58 41.1 53.56 41.22 54.68C41.44 56.4 43.14 57.32 44.72 56.8Z" fill="#F28B3C"/>
<path d="M44.04 46.58C45.72 46.04 45.94 43.98 45.1 42.6C44.42 41.5 43.28 41.34 42.2 41.88C41.26 42.36 40.42 43.34 40.54 44.46C40.74 46.16 42.44 47.08 44.04 46.58Z" fill="#F28B3C"/>
<path d="M43.9399 36.96C45.6199 36.42 45.8399 34.36 44.9999 32.98C44.3199 31.88 43.1799 31.72 42.0999 32.26C41.1599 32.74 40.3199 33.72 40.4399 34.84C40.6399 36.56 42.3399 37.48 43.9399 36.96Z" fill="#F28B3C"/>
<path d="M44.26 27.2C45.94 26.66 46.16 24.6 45.32 23.22C44.64 22.12 43.5 21.96 42.42 22.5C41.48 22.98 40.64 23.96 40.76 25.08C40.96 26.8 42.66 27.72 44.26 27.2Z" fill="#F28B3C"/>
<path d="M15.22 9.74001C16.9 9.20001 17.12 7.14001 16.28 5.76001C15.6 4.66001 14.46 4.50001 13.38 5.04001C12.44 5.52001 11.6 6.50001 11.72 7.62001C11.94 9.34001 13.64 10.26 15.22 9.74001Z" fill="#382716"/>
<path d="M25.24 27.38C26.92 26.84 27.14 24.78 26.3 23.4C25.62 22.3 24.48 22.14 23.4 22.68C22.46 23.16 21.62 24.14 21.74 25.26C21.94 26.98 23.64 27.88 25.24 27.38Z" fill="white"/>
<path d="M25.1401 17.78C26.8201 17.24 27.0401 15.18 26.2001 13.8C25.5201 12.7 24.3801 12.54 23.3001 13.08C22.3601 13.56 21.5201 14.54 21.6401 15.66C21.8401 17.36 23.5401 18.28 25.1401 17.78Z" fill="white"/>
<path d="M25.3601 45.06C27.0401 44.52 27.2601 42.46 26.4201 41.08C25.7401 39.98 24.6001 39.82 23.5201 40.36C22.5801 40.84 21.7401 41.82 21.8601 42.94C22.0801 44.66 23.7801 45.58 25.3601 45.06Z" fill="white"/>
<path d="M14.96 18.6C16.64 18.06 16.86 16 16.02 14.62C15.34 13.52 14.2 13.36 13.12 13.9C12.18 14.38 11.34 15.36 11.46 16.48C11.66 18.2 13.36 19.12 14.96 18.6Z" fill="#382716"/>
<path d="M15.24 28.18C16.92 27.64 17.14 25.58 16.3 24.2C15.62 23.1 14.48 22.94 13.4 23.48C12.46 23.96 11.62 24.94 11.74 26.06C11.94 27.76 13.64 28.68 15.24 28.18Z" fill="#382716"/>
<path d="M15.52 37.46C17.2 36.92 17.42 34.86 16.58 33.48C15.9 32.38 14.76 32.22 13.68 32.76C12.74 33.24 11.9 34.22 12.02 35.34C12.22 37.06 13.92 37.98 15.52 37.46Z" fill="#382716"/>
</svg>
