<svg width="60" height="60" viewBox="0 0 60 60" fill="none" xmlns="http://www.w3.org/2000/svg">
<path d="M54.8599 8.86C49.9599 9.3 44.0399 25.4 40.9399 36.94C37.8399 48.48 32.9 43 30.7999 30.8C28.5199 17.52 17.02 28.02 15.16 36.34C13.3 44.64 13.68 45.7 7.47995 39.7C4.21995 36.54 2.61995 37.84 2.05995 41.66C1.91995 42.54 1.89995 46.64 3.05995 46.54C3.73995 46.48 4.53995 46.84 5.51995 47.8C11.72 53.8 14.34 52 16.2 43.7C18.06 35.4 29.8199 23.8 29.0799 37.2C28.3599 50.32 34.9799 52.12 43.66 42.1C52.5799 31.84 63.4599 8.08 54.8599 8.86Z" fill="#151515"/>
<path d="M6.41999 43.82C7.53999 43.46 7.69999 42.08 7.11999 41.1601C6.67999 40.4201 5.89999 40.3201 5.17999 40.6801C4.53999 41 3.97999 41.66 4.07999 42.4C4.21999 43.54 5.35999 44.16 6.41999 43.82Z" fill="#F28B3C"/>
<path d="M26.3599 21.8C27.4799 21.44 27.6399 20.06 27.0599 19.14C26.6199 18.4 25.8399 18.3 25.1199 18.66C24.4799 18.98 23.9199 19.64 24.0199 20.38C24.1599 21.54 25.2799 22.16 26.3599 21.8Z" fill="#F28B3C"/>
<path d="M56.0999 12C57.2199 11.64 57.3799 10.26 56.7999 9.34001C56.3599 8.60001 55.5799 8.50001 54.8599 8.86001C54.2199 9.18001 53.6599 9.84001 53.7599 10.58C53.8999 11.74 55.0399 12.34 56.0999 12Z" fill="#F28B3C"/>
<path d="M7.87988 44.5C7.87988 44.5 9.93988 51.6 12.2999 47.94C17.3599 40.02 14.3799 22.3 23.0599 21.18" stroke="#F28B3C" stroke-width="1.9436" stroke-miterlimit="10"/>
<path d="M28.04 21.64C31.38 24.72 29.58 45.36 35.3 45.5C38 45.56 43.12 33.78 52.88 13.54" stroke="#F28B3C" stroke-width="1.9436" stroke-miterlimit="10"/>
</svg>
