<svg width="60" height="60" viewBox="0 0 60 60" fill="none" xmlns="http://www.w3.org/2000/svg">
<path d="M43.28 57.7599C43.28 57.7599 41.22 48.04 42.76 38.56C44.3 29.08 41.74 21.2 41.74 21.2" stroke="white" stroke-width="2.3854" stroke-miterlimit="10"/>
<path d="M29.5601 57.8799C29.5601 57.8799 27.5001 48.1599 29.0401 38.6799C30.5801 29.1999 28.0201 21.3199 28.0201 21.3199" stroke="white" stroke-width="2.3854" stroke-miterlimit="10"/>
<path d="M10.2 57.28C10.2 57.28 12.26 50.74 10.72 44.36C9.17999 37.98 11.74 32.68 11.74 32.68" stroke="white" stroke-width="2.3854" stroke-miterlimit="10"/>
<path d="M10.72 44.66C8.85997 41.54 -1.62004 34 3.31997 39.26C8.23997 44.48 10.72 44.66 10.72 44.66Z" fill="white"/>
<path d="M29.5801 37.92C27.7201 34.8 17.2401 27.26 22.1801 32.52C27.1201 37.76 29.5801 37.92 29.5801 37.92Z" fill="white"/>
<path d="M27.94 46.48C29.8 43.36 40.28 35.82 35.34 41.08C30.4 46.34 27.94 46.48 27.94 46.48Z" fill="white"/>
<path d="M43.4199 31.8C42.0799 29.58 34.4999 24.1799 38.0599 27.94C41.6399 31.68 43.4199 31.8 43.4199 31.8Z" fill="white"/>
<path d="M41.3799 44.68C43.2399 41.56 53.7199 34.02 48.7799 39.28C43.8399 44.52 41.3799 44.68 41.3799 44.68Z" fill="white"/>
<path d="M42.26 25.38C45.74 21.56 63.4 10.38 56.36 5.63998C52 2.69998 45.54 17.9 47.38 9.23998C48.92 2.01998 42.5 1.79998 42.5 7.43998C42.5 13.08 37.88 -1.36002 36.34 2.91998C34.82 7.21998 42.26 25.38 42.26 25.38Z" fill="#151515"/>
<path d="M29.26 27.24C25.78 24.58 8.1 16.84 15.16 13.54C19.52 11.5 25.98 22.04 24.14 16.04C22.6 11.04 29 10.88 29 14.8C29 18.72 33.62 8.69996 35.16 11.68C36.7 14.66 29.26 27.24 29.26 27.24Z" fill="#151515"/>
<path d="M10.9199 35.14C12.8799 33 22.78 26.74 18.82 24.08C16.3799 22.44 12.7599 30.94 13.7999 26.1C14.6599 22.06 11.0799 21.94 11.0799 25.08C11.0799 28.24 8.49995 20.16 7.63995 22.56C6.73995 24.96 10.9199 35.14 10.9199 35.14Z" fill="#151515"/>
</svg>
