<svg width="60" height="60" viewBox="0 0 60 60" fill="none" xmlns="http://www.w3.org/2000/svg">
<path d="M13.0399 4.81998C17.3599 2.81998 13.3199 9.61998 16.4999 13.52C19.6799 17.42 22.6399 12.36 27.6599 11.38C32.6999 10.38 24.1799 11.88 33.0999 16.22C33.9999 16.66 39.8199 16.78 39.8199 16.78L49.9599 31.76C49.9599 31.76 55.6399 30.88 55.9199 34.9C56.1999 38.92 48.0599 37.34 48.0599 37.34L37.9599 26.48C37.9599 26.48 34.0199 48.48 32.3199 49.84C29.4399 52.14 13.8399 43.08 8.21993 39.42C2.59993 35.78 9.17993 30.52 9.17993 30.52C9.17993 30.52 3.81993 29.3 2.19993 25.38C0.59993 21.46 8.73993 6.81998 13.0399 4.81998ZM5.37993 25.16C7.71993 26.82 11.0999 28.52 11.0999 28.52L20.0399 16.74C20.0399 16.74 12.4799 16.72 12.7199 13.16C12.9599 9.59998 12.3599 8.19998 10.2999 12.22C8.25993 16.26 3.03993 23.5 5.37993 25.16Z" fill="white"/>
<path d="M51.4999 38.46C49.335 38.46 47.5799 37.2064 47.5799 35.66C47.5799 34.1136 49.335 32.86 51.4999 32.86C53.6649 32.86 55.4199 34.1136 55.4199 35.66C55.4199 37.2064 53.6649 38.46 51.4999 38.46Z" fill="#151515"/>
<path d="M53.82 40.82C53.4444 40.82 53.14 40.2111 53.14 39.46C53.14 38.7089 53.4444 38.1 53.82 38.1C54.1956 38.1 54.5 38.7089 54.5 39.46C54.5 40.2111 54.1956 40.82 53.82 40.82Z" fill="#FF8500"/>
<path d="M50.9799 38.96C50.9799 39.5 51.1399 39.92 51.3199 39.92C51.4999 39.92 51.6599 39.48 51.6599 38.96C51.6599 38.42 51.4999 38 51.3199 38C51.1399 38 50.9799 38.42 50.9799 38.96Z" fill="#FF8500"/>
<path d="M49.6201 38.06C49.6201 38.66 49.4001 39.14 49.1201 39.14C48.8401 39.14 48.6201 38.66 48.6201 38.06C48.6201 37.46 48.8401 36.98 49.1201 36.98C49.4001 36.98 49.6201 37.46 49.6201 38.06Z" fill="#FF8500"/>
<path d="M53.24 45.14C52.7982 45.14 52.44 44.4774 52.44 43.66C52.44 42.8426 52.7982 42.18 53.24 42.18C53.6819 42.18 54.04 42.8426 54.04 43.66C54.04 44.4774 53.6819 45.14 53.24 45.14Z" fill="#FF8500"/>
<path d="M48.6 43.72C48.6 44.56 49.08 45.24 49.68 45.24C50.28 45.24 50.76 44.56 50.76 43.72C50.76 42.88 50.28 42.2 49.68 42.2C49.08 42.18 48.6 42.86 48.6 43.72Z" fill="#FF8500"/>
<path d="M50.6399 47.9C50.6399 48.56 50.8599 49.08 51.1399 49.08C51.4199 49.08 51.6399 48.54 51.6399 47.9C51.6399 47.26 51.4199 46.72 51.1399 46.72C50.8599 46.72 50.6399 47.24 50.6399 47.9Z" fill="#FF8500"/>
<path d="M53.7001 48.1799C53.7001 48.9399 54.0001 49.5399 54.3801 49.5399C54.7601 49.5399 55.0601 48.9399 55.0601 48.1799C55.0601 47.4199 54.7601 46.8199 54.3801 46.8199C54.0001 46.8199 53.7001 47.4399 53.7001 48.1799Z" fill="#FF8500"/>
<path d="M46.9 49.1C46.9 49.66 47.16 50.12 47.46 50.12C47.78 50.12 48.02 49.66 48.02 49.1C48.02 48.54 47.76 48.08 47.46 48.08C47.16 48.08 46.9 48.52 46.9 49.1Z" fill="#FF8500"/>
<path d="M47.52 47.4C47.1113 47.4 46.78 46.9702 46.78 46.44C46.78 45.9098 47.1113 45.48 47.52 45.48C47.9287 45.48 48.26 45.9098 48.26 46.44C48.26 46.9702 47.9287 47.4 47.52 47.4Z" fill="#FF8500"/>
<path d="M52.12 53.9C52.12 54.8 52.56 55.54 53.08 55.54C53.6 55.54 54.04 54.8 54.04 53.9C54.04 53 53.6 52.2599 53.08 52.2599C52.56 52.2599 52.12 53 52.12 53.9Z" fill="#FF8500"/>
<path d="M47.9201 52.38C47.9201 53.06 48.3001 53.62 48.7601 53.62C49.2201 53.62 49.6001 53.06 49.6001 52.38C49.6001 51.7 49.2201 51.14 48.7601 51.14C48.3001 51.12 47.9201 51.68 47.9201 52.38Z" fill="#FF8500"/>
<path d="M55.96 51.02C55.96 51.64 56.42 52.16 56.98 52.16C57.54 52.16 58 51.66 58 51.02C58 50.4 57.54 49.88 56.98 49.88C56.42 49.88 55.96 50.4 55.96 51.02Z" fill="#FF8500"/>
<path d="M56.36 44.12C55.896 44.12 55.52 43.5111 55.52 42.76C55.52 42.0089 55.896 41.4 56.36 41.4C56.8239 41.4 57.2 42.0089 57.2 42.76C57.2 43.5111 56.8239 44.12 56.36 44.12Z" fill="#FF8500"/>
<path d="M56.1799 47C56.1799 47.6 56.3999 48.08 56.6799 48.08C56.9599 48.08 57.1799 47.6 57.1799 47C57.1799 46.4 56.9599 45.92 56.6799 45.92C56.4199 45.92 56.1799 46.4 56.1799 47Z" fill="#FF8500"/>
<path d="M50.4199 51.98C50.4199 52.52 50.6399 52.94 50.9199 52.94C51.1999 52.94 51.4199 52.5 51.4199 51.98C51.4199 51.46 51.1999 51.02 50.9199 51.02C50.6399 51.02 50.4199 51.44 50.4199 51.98Z" fill="#FF8500"/>
</svg>
