<svg width="60" height="60" viewBox="0 0 60 60" fill="none" xmlns="http://www.w3.org/2000/svg">
<path d="M29.0399 23.2C25.0599 17.36 18.2799 16.46 11.8799 19.36C6.25994 21.9 1.29994 27.12 2.07994 33.12C2.39994 35.58 3.37994 37.74 4.79994 39.52L2.71994 46.16L9.71994 43.44C13.4999 45.3 18.1999 45.78 22.7599 44.44C32.7199 41.54 34.0399 30.56 29.0399 23.2Z" fill="#F28B3C"/>
<path d="M30.1 24.44C26.12 18.6 19.34 17.7 12.94 20.58C7.32 23.12 2.36 28.34 3.14 34.34C3.46 36.8 4.44 38.96 5.86 40.74L3.8 47.38L10.8 44.66C14.58 46.52 19.28 47 23.84 45.66C33.8 42.76 35.12 31.8 30.1 24.44Z" stroke="white" stroke-width="2.1532" stroke-miterlimit="10"/>
<path d="M25.5 14.24C25.5 14.24 24.66 28.68 25.5 30.96C26.12 32.68 50.02 32.76 50.02 32.76L58 38.12L56.8 13.24L27.2 12.62L25.5 14.24Z" fill="#382716"/>
</svg>
