<svg width="60" height="60" viewBox="0 0 60 60" fill="none" xmlns="http://www.w3.org/2000/svg">
<path d="M28.9 2.24005C28.9 2.24005 30.98 15.98 25.48 25.7C19.98 35.42 5.37997 34.54 6.03997 55.3C6.17997 59.5 6.07997 56.06 6.07997 56.06" stroke="white" stroke-width="2.2353" stroke-miterlimit="10"/>
<path d="M29.4799 2.40002C29.4799 2.40002 27.7799 16.08 33.2599 25.8C38.7399 35.52 53.3599 34.64 52.6999 55.38C52.5599 59.58 52.5599 57.44 52.5599 57.44" stroke="white" stroke-width="2.2353" stroke-miterlimit="10"/>
<path d="M29.1399 2.46002V44.6V50.68" stroke="white" stroke-width="2.2353" stroke-miterlimit="10"/>
<path d="M11.12 52.0601C11.12 53.3601 11.12 54.3601 6.91999 54.3601C2.71999 54.3601 2.73999 53.9201 2.73999 52.6201C2.73999 51.3201 2.73999 49.6801 6.91999 49.6801C11.1 49.6801 11.12 50.7601 11.12 52.0601Z" fill="#F28B3C"/>
<path d="M11.42 43.9C11.42 45.2 11.42 46.2 7.22004 46.2C3.02004 46.2 3.04004 45.76 3.04004 44.46C3.04004 43.16 3.04004 41.52 7.22004 41.52C11.4 41.52 11.42 42.6 11.42 43.9Z" fill="#F28B3C"/>
<path d="M33.7201 34.72C33.7201 36.02 33.7201 37.02 29.5201 37.02C25.3201 37.02 25.3401 36.58 25.3401 35.28C25.3401 33.98 25.3401 32.34 29.5201 32.34C33.7001 32.34 33.7201 33.44 33.7201 34.72Z" fill="#382716"/>
<path d="M33.66 16.02C33.66 17.32 33.66 18.32 29.46 18.32C25.26 18.32 25.28 17.88 25.28 16.58C25.28 15.28 25.28 13.64 29.46 13.64C33.64 13.64 33.66 14.72 33.66 16.02Z" fill="#382716"/>
<path d="M48.9201 33.98C49.4801 35.14 49.9201 36.06 46.1201 37.86C42.3401 39.66 42.1601 39.26 41.6001 38.1C41.0401 36.94 40.3201 35.44 44.1201 33.64C47.9001 31.82 48.3601 32.82 48.9201 33.98Z" fill="white"/>
<path d="M54.9999 42.8C55.5599 43.96 55.9999 44.88 52.1999 46.68C48.4199 48.48 48.2399 48.08 47.6799 46.92C47.1199 45.76 46.3999 44.26 50.1999 42.46C53.9799 40.64 54.4399 41.62 54.9999 42.8Z" fill="white"/>
<path d="M57.24 53.3601C57.26 54.6601 57.28 55.6601 53.08 55.7201C48.88 55.7801 48.88 55.3401 48.86 54.0601C48.84 52.7601 48.8 51.1201 53 51.0401C57.22 50.9801 57.22 52.0801 57.24 53.3601Z" fill="white"/>
<path d="M25.0401 4.48003C25.0601 5.78003 25.0801 6.78003 29.2801 6.70003C33.4801 6.62003 33.4601 6.18003 33.4401 4.88003C33.4201 3.58003 33.3801 1.94003 29.2001 2.02003C25.0201 2.10003 25.0001 3.18003 25.0401 4.48003Z" fill="white"/>
</svg>
