<svg width="60" height="60" viewBox="0 0 60 60" fill="none" xmlns="http://www.w3.org/2000/svg">
<path d="M3.5 49.84L15.34 33.02L20.62 40.66L35.1 24.6L45.16 24.48L51.1 16.84L56.1 10.1" stroke="white" stroke-width="1.6504" stroke-miterlimit="10"/>
<path d="M3.88 50.62C4.91829 50.62 5.76 49.9216 5.76 49.06C5.76 48.1984 4.91829 47.5 3.88 47.5C2.8417 47.5 2 48.1984 2 49.06C2 49.9216 2.8417 50.62 3.88 50.62Z" fill="#F28B3C"/>
<path d="M15.6 35.14C16.6383 35.14 17.48 34.4416 17.48 33.58C17.48 32.7185 16.6383 32.02 15.6 32.02C14.5617 32.02 13.72 32.7185 13.72 33.58C13.72 34.4416 14.5617 35.14 15.6 35.14Z" fill="#F28B3C"/>
<path d="M20.9401 42.08C21.9784 42.08 22.8201 41.3815 22.8201 40.52C22.8201 39.6584 21.9784 38.96 20.9401 38.96C19.9018 38.96 19.0601 39.6584 19.0601 40.52C19.0601 41.3815 19.9018 42.08 20.9401 42.08Z" fill="#F28B3C"/>
<path d="M35.2799 26.38C36.3182 26.38 37.1599 25.6816 37.1599 24.82C37.1599 23.9584 36.3182 23.26 35.2799 23.26C34.2416 23.26 33.3999 23.9584 33.3999 24.82C33.3999 25.6816 34.2416 26.38 35.2799 26.38Z" fill="#F28B3C"/>
<path d="M45.44 25.98C46.3899 25.98 47.16 25.3353 47.16 24.54C47.16 23.7447 46.3899 23.1 45.44 23.1C44.49 23.1 43.72 23.7447 43.72 24.54C43.72 25.3353 44.49 25.98 45.44 25.98Z" fill="#F28B3C"/>
<path d="M55.88 12.44C57.0509 12.44 58 11.7505 58 10.9C58 10.0495 57.0509 9.35999 55.88 9.35999C54.7092 9.35999 53.76 10.0495 53.76 10.9C53.76 11.7505 54.7092 12.44 55.88 12.44Z" fill="#F28B3C"/>
</svg>
