<svg width="60" height="60" viewBox="0 0 60 60" fill="none" xmlns="http://www.w3.org/2000/svg">
<path d="M43.4401 30.64L24.1001 19.76L24.6801 17.46L43.7201 28.06L43.4401 30.64Z" fill="#382716"/>
<path d="M43.4401 49.72L42.2001 44.6C42.2001 44.6 32.2201 37.14 30.7601 31.7C29.3001 26.26 27.8601 24.44 30.0401 22.98C32.4801 21.36 35.7601 28.82 38.2201 31.42C39.0001 32.24 44.2401 37.78 42.8001 32.5C41.3401 27.24 46.7401 23.32 41.3001 23.32C35.8601 23.32 31.3201 21.14 31.3201 21.14C31.3201 21.14 26.4001 17 30.0401 17.54C33.6801 18.08 38.0201 18.08 38.0201 18.08C38.0201 18.08 33.8401 17.18 35.6601 16.62C37.4801 16.08 45.1001 13.9 45.1001 13.9L48.0001 12.26C48.0001 12.26 49.0801 11.9 50.5401 14.98C52.0001 18.06 54.1801 22.24 55.9801 24.78C57.7801 27.32 53.9801 37.68 55.6201 43.66C57.2601 49.66 56.3201 47.08 56.3201 47.08L43.4401 49.72Z" fill="white"/>
<path d="M24.74 19.98C24.74 19.98 0.600022 39.72 2.08002 30C3.56002 20.28 29.2 37.96 19.46 39.14C9.72003 40.3 4.42002 18.2 11.78 13.2C19.14 8.19995 24.46 11.14 24.46 11.14" stroke="#382716" stroke-width="1.7807" stroke-miterlimit="10"/>
<path d="M44.8199 49.1599L43.5799 44.0399C43.5799 44.0399 33.5999 36.5799 32.1399 31.1399C30.6799 25.6999 29.2399 23.8799 31.4199 22.4199C33.8599 20.7999 37.1399 28.2599 39.5999 30.8599C40.3799 31.6799 45.6199 37.2199 44.1799 31.9399C42.7199 26.6799 48.1199 22.7599 42.6799 22.7599C37.2399 22.7599 32.6999 20.5799 32.6999 20.5799C32.6999 20.5799 27.7999 16.3999 31.4199 16.9399C35.0599 17.4799 39.3999 17.4799 39.3999 17.4799C39.3999 17.4799 35.2199 16.5799 37.0399 16.0199C38.8599 15.4799 46.4799 13.2999 46.4799 13.2999L49.3799 11.6599C49.3799 11.6599 50.4599 11.2999 51.9199 14.3799C53.3799 17.4599 55.5599 21.6399 57.3599 24.1799C59.1599 26.7199 55.3599 37.0799 56.9999 43.0599C58.6399 49.0399 57.6999 46.4799 57.6999 46.4799L44.8199 49.1599Z" stroke="#F28B3C" stroke-width="1.7807" stroke-miterlimit="10"/>
</svg>
