<?xml version="1.0" encoding="utf-8"?>
<!-- Generator: Adobe Illustrator 24.2.3, SVG Export Plug-In . SVG Version: 6.00 Build 0)  -->
<svg version="1.1" id="Hojas" xmlns="http://www.w3.org/2000/svg" xmlns:xlink="http://www.w3.org/1999/xlink" x="0px" y="0px"
	 viewBox="0 0 1080 1080" style="enable-background:new 0 0 1080 1080;" xml:space="preserve">
<style type="text/css">
	.st0{fill:#151515;}
</style>
<path class="st0" d="M774.4,126.7c-9.7,30.4-27.7,57.3-41.3,86c-6.8,14.1-12.7,28.8-15.9,44.3c-1.6,8-2.5,16-2.4,24.1
	c0,1.9,1.9,18.7-3.7,12.3c-1.9-2.1-0.9-8-0.9-10.5c0-9.1,1.5-17.7,1.5-26.9c0-11.1-2.7-22-2.5-33.1c0.1-11.5,0.9-22.8-0.4-34.3
	c-3.1-25.7-11.7-50.4-21.1-74.4c-7.6-19.6-18-42.3-31.3-58.8c-6.8-8.5-16.1-13.6-23.2-21.7c1.5,3.3,3.1,6.5,3.9,10.3
	c3.7,18.5-0.1,21.7-4.1,39.9c-2.1,9.7-1.1,17.1,2.7,26.4c7.1,18,15.5,38.3,24.4,55.5c11.3,21.7,25.1,42.8,37.1,63.3
	c6.5,11.2,12.8,31.2,6.5,43.1c-5.7-8.8-9.3-21.9-16.1-29.9c-6.5-7.5-21.6-16.7-30.4-23.9c-22.3-18.1-45.9-34.5-66.8-54
	c-6-5.6-11.6-6.5-14.7-14.9c0.9,11.7,5.6,23.5,10.1,34.3c6.4,15.2,10.3,30.1,15.9,45.6c8.4,23.6,21.5,31.2,40.1,47.6
	c16,14,45.9,22.5,52.5,41.6c7.3,20.7-3.1,40.1,0.3,58.9c-7.1-23.3-29.3-38.8-45.6-57.2c-15.2-17.2-39.2-48.4-62.5-52
	c-2.1,27.1,15.6,58.5,31.1,79.5c7.3,10,14.3,18.5,25.9,24.1c10.8,5.3,22.7,5.3,31.7,13.2c22.3,19.1,9.2,64.9,3.2,89.3
	c-4.3-38.7-41.9-74.5-69.3-99.3c-15.5-14-35.3-21.6-51.1-31.6c9.1,48.3,26.5,97.9,66.4,129c13.9,10.8,42,25.2,44.4,45.2
	c2.1,18.1-9.5,41.9-15.1,59.5c-20.5-14.9-9.1-54.9-21.3-75.6c-22.4-37.5-68.4-57.2-90.9-96.5c-0.3,11.2,5.1,21.7,5.6,32.7
	c0.5,9.7-1.6,20.3-1.6,30.1c-0.3,32,10.7,67.3,27.7,95.2c7.5,12.3,17.9,26.1,31.6,31.2c6.3,2.3,22.3-0.4,26.7,3.9
	c7.7,7.3-8.7,44.9-16.5,54.8c-7.9-9.3-10.4-16.4-12.4-27.2c-3.2-17.1-9.5-27.5-22.5-40.7c-13.9-13.9-26.5-28.8-42.4-40.5
	c-18.4-13.6-43.5-23.5-56.7-43.2c-1.6,19.1,11.3,34.7,19.3,50.8c7.3,14.5,11.5,29.5,19.5,43.9c14.9,26.9,32.4,41.1,59.3,53.5
	c7.9,3.6,18.9,3.9,19.3,13.9c0.3,7.9-15.1,19.6-19.3,25.5c-10.8,15.1-25.2,33.3-33.2,49.3c22.9,18,39.3-26.7,47.9-42.8
	c11.2-21.3,19.6-30.7,45.1-32c27.1-1.3,52.5,3.7,79.7-1.9c30.3-6.3,54.5-20.3,82.1-32.7c-11.5-24.5-72.4-3.1-92.1-1.6
	c-26.4,2-49.2,10.8-74,16.4c0.8-8.4,10.7-17.3,14.8-25.5c1.9-3.7,4.8-16.4,7.1-18.4c4.9-4.4,25.2-5.3,32.7-7.1
	c14.4-3.3,28.4-7.5,43.1-10.1c24.9-4.5,50.3-12,70.9-27.5c16-11.9,23.2-30.3,36.7-43.3c-14.9-4.7-32.5,2.4-47.5,3.9
	c-22.4,2.3-41.2,4.7-62.3,12.7c-24.9,9.5-49.5,17.7-66.9,38.4c4.4-14,10-36.7,19.7-47.7c13.2-15.1,43.2-12.3,61.3-19.9
	c27.1-11.3,39.9-32.5,51.3-56.8c8.1-17.1,27.6-41.6,28.1-60c-34.4-5.1-68,34.8-91.2,54.4c-14.3,12-36.1,25.1-45.3,41.3
	c7.7-15.3,10.7-38.1,13.3-55.3c3.7-23.6,21.3-24.3,42-34.3c40.4-19.6,56-78.8,84-111.3c-20.1-4.4-63.2,27.6-78,42.1
	c-14.1,14-32.8,29.2-42.1,46.5c0.5-13.1,1.3-36.7,11.6-49.9c6.1-8,10.7-10,15.7-19.5c5.2-9.7,8-20.8,11.7-31.1
	c10.1-28.1,20.9-56,27.5-85.9C775.7,166.3,786.6,137,774.4,126.7z"/>
</svg>
