<?xml version="1.0" encoding="utf-8"?>
<!-- Generator: Adobe Illustrator 24.2.3, SVG Export Plug-In . SVG Version: 6.00 Build 0)  -->
<svg version="1.1" id="Maceta" xmlns="http://www.w3.org/2000/svg" xmlns:xlink="http://www.w3.org/1999/xlink" x="0px" y="0px"
	 viewBox="0 0 1080 1080" style="enable-background:new 0 0 1080 1080;" xml:space="preserve">
<style type="text/css">
	.st0{fill:#382716;}
	.st1{fill-rule:evenodd;clip-rule:evenodd;fill:#E9EBE0;}
</style>
<path class="st0" d="M817.3,775.8c0.1-0.1,0.1-0.3,0.3-0.4c9.1-14.4,19.5-31.6,13.7-49.1c-1.9-5.7-3.6-8.3-9.9-8.5
	c-4.5-0.3-9.1,0.9-13.5,1.1c-9.7,0.4-19.5,0.7-29.2,0.7c-39.9,0.3-79.7-2.1-119.4-1.7c-73.7,0.8-147.7,3.6-221.6,0
	c-56.9-2.8-113.4-5.9-170.1-9.9c-14.7-1.1-27.2-0.1-40.4,4.3c0.7,16.9,11.3,38.7,15.3,56.1c7.5,32.4,19.7,61.3,36.5,90
	c30.8,52.7,75.3,106,133.3,129c49.3,19.6,94.9,33.3,147.3,21.1c44.5-10.4,82.8-22.5,117.7-52.5c32.5-27.9,58.8-55.2,83.7-90
	C781.7,837.3,798.5,805.7,817.3,775.8z"/>
<g>
	<path class="st1" d="M442.3,978c-2.3,2.7-4.7,4.3-8,3.2c-3.3-0.9-4.8-3.3-5.3-6.8c-2.1,2.5-4.7,3.9-7.9,3.1
		c-3.2-0.8-4.9-3.1-5.7-6.4c-2.4,2.1-5.1,3.2-8.1,2.1c-2.9-0.9-4.7-3.2-5.2-6.4c-2.5,2.1-5.1,3.2-8.3,2c-3.1-1.2-4.7-3.3-5.1-6.7
		c-0.3,0.1-0.7,0.3-0.9,0.5c-2.9,2.7-6.5,2.1-8.8,0.4c-3.2-2.5-3.9-6.1-1.9-9.3c0.7-0.9,1.6-1.7,2.5-2.4c0.4-0.4,1.1-0.5,1.7-0.8
		c-0.7-1.1-1.3-2.1-2-3.2c-1.6,0.5-3.3,1.1-5.2,1.7c1.7,2.1,2.4,4.5,0.9,7.2c-0.9,1.5-2.1,2.7-3.9,3.1c-3.2,0.8-6.5-1.3-7.3-4.5
		c-0.8-3.5,1.3-6.7,5.1-7.5c-1.1-1.5-2.1-2.9-3.3-4.5c-0.1,0-0.4,0-0.8,0.3c-4.9,2.9-11.2-0.4-12-6.1c0-0.3-0.1-0.4-0.1-0.8
		c-2.4,2-4.9,2.8-7.7,1.3c-1.7-0.8-2.8-2.3-3.3-4c-0.9-2.8,0.5-7.2,5.2-8.3c-1.1-1.6-2.1-3.2-3.3-5.1c-2.7,1.9-5.7,2.3-8.8,0.3
		c-1.5-1.1-2.5-2.4-3.1-4.3c-1.1-3.5,0.8-8,5.9-9.3c-0.8-1.5-1.6-2.8-2.5-4.4c-2.5,1.7-5.5,2.7-8.5,0.9c-3.1-1.7-4.3-4.3-4-8
		c-3.1,3.6-6.3,4.5-10,1.7c-2.3-1.7-2.8-4.7-1.6-7.3c1.1-2.4,3.7-4,6.3-3.9c3.5,0.4,5.1,2.1,6.1,6.8c3.1-3.2,2.5-2.7,6.1-3.9
		c-1.5-1.5-2.4-3.2-2.4-5.6c-2.5,2.5-5.3,3.6-8.7,2.1c-3.2-1.5-4.5-4-4.3-7.9c-3.1,3.9-6.7,4.9-10.4,1.9c-2-1.6-2.7-4.4-1.6-7.1
		c1.2-2.9,3.9-4.4,6.9-4c1.7,0.3,3.2,1.1,4.1,2.5c0.8,1.3,1.2,2.9,1.7,4.4c1.5-2,3.5-3.6,6.7-3.5c-2.1-2.3-3.6-4.5-2.9-7.6
		c-3.1,3.9-6.5,5.6-10.8,2.1c-2.5-2.1-3.1-5.1-1.7-7.9c1.2-2.5,4.3-4.3,6.7-3.9c2,0.3,3.6,1.1,4.8,2.8c1.2,1.6,1.5,3.5,1.2,5.1
		c1.1-0.9,2.1-2.3,3.5-2.9s2.9-0.8,4.3-1.1c-2.8-1.7-4.4-4.3-3.3-7.7c1.2-3.9,4.1-5.5,8.4-5.1c-4-2.8-5.9-6.1-2.8-10.3
		c2-2.8,5.1-3.3,7.9-2c2.7,1.3,4.3,4.4,3.7,7.1c-0.8,3.5-3.2,5.3-7.9,5.6c2.5,1.6,4.1,3.9,4.1,7.1c2-2.4,4.4-3.9,7.7-3.2
		c-3.7-2.8-5.3-6.1-2.7-10.3c1.5-2.4,4.8-3.5,7.3-2.5c2.4,0.8,4.9,2.9,4.9,7.9c1.9-2.8,4.3-4.3,7.6-3.9c0.1-0.1,0.3-0.4,0.4-0.5
		c-0.3-0.1-0.7-0.1-0.9-0.4c-2.7-2-3.6-4.7-2.5-7.7c1.3-4,6.5-5.6,10-3.1c2.8,2.1,3.3,5.3,2.4,7.7c-1.1,2.8-3.9,4.4-6.9,4.3
		c-0.1,0-0.3,0-0.9,0c3.1,1.7,4.4,4.3,4.3,7.6c1.9-2.8,4.4-4,7.7-3.7c-1.7-1.1-3.1-2.4-3.7-4.3c-0.7-2-0.4-3.7,0.8-5.5
		c1.7-2.5,4.9-3.9,7.6-2.8c3.1,1.1,5.1,4,4.5,7.3c-0.1,1.1-0.7,2.3-1.5,3.2s-1.9,1.6-2.9,2.1c-1.1,0.4-2.3,0.4-3.7,0.7
		c2.8,1.6,4.3,3.9,4.4,7.2c2.1-2.5,4.5-3.7,7.6-3.5c-1.9-1.3-3.3-2.9-3.7-5.2c-0.3-1.5,0-2.9,0.7-4.1c1.3-2.5,4.4-4,7.1-3.5
		c1.1,0.3,2.3,0.8,3.1,1.6c0.9,0.8,1.6,1.9,2,2.9s0.3,2.3,0.4,3.6c2.7-3.7,5.9-5.3,10-2.8c2.5,1.6,3.5,4.1,2.8,6.9
		c-0.8,3.6-3.3,5.2-7.2,5.5c2.4,1.7,3.6,3.9,3.6,6.9c2.1-2.7,4.7-3.7,7.9-3.2c-1.9-1.1-3.3-2.5-3.9-4.7c-0.7-2.1,0-4.1,1.2-5.9
		c1.6-2.3,5.2-3.2,7.7-2.1c3.1,1.3,4.8,4.4,4.1,7.5c-0.7,3.5-3.3,5.2-8,5.3c1.1,1.1,2.4,2.1,3.1,3.3c0.7,1.3,0.8,2.9,1.2,4.4
		c1.9-2.7,4.4-4.4,8-3.3c3.5,1.1,5.1,3.7,5.1,7.6c3.1-3.7,6.5-5.2,10.5-2c2.1,1.7,2.9,4,2.1,6.8c-1.2,3.7-3.9,5.1-7.7,5.1
		c2.7,1.6,4,3.9,4.1,7.2c3.2-3.5,6.7-4.8,10.5-1.6c2.4,2,2.9,5.2,1.9,7.5c-1.1,2.4-3.5,4.7-8,4.3c3.1,2,4.8,4.5,4.3,8.1
		c2.9-3.9,6.3-5.5,10.5-2.4c2.5,1.7,3.2,4.7,2.3,7.3c-0.8,2.3-2.9,4.8-7.7,4.7c3.1,2.1,4.7,4.8,3.6,8.3c-0.9,3.5-3.7,5.1-7.6,5.1
		c2.7,1.7,4,4,3.9,7.2c3.1-3.5,6.4-4.8,10.3-1.9c2.7,2,3.2,5.1,2,8c-0.9,2.3-4,4.1-6.4,3.9c-4.1-0.4-5.5-2-6.7-7.3
		c-1.6,2.1-3.6,3.5-6.7,3.5c2.4,1.9,3.3,4,3.3,6.8c3.9-3.5,6.1-4,9.3-2.1c2.3,1.3,3.7,4.3,3.3,6.7c-0.7,3.6-2.9,5.3-7.6,6
		c0.3,0.3,0.4,0.4,0.5,0.5c2.1,1.7,3.5,3.9,2.9,6.8c-0.5,3.2-3.9,5.9-7.1,5.6c-3.6-0.3-6.1-2.9-6.4-6.5c0-0.3,0-0.5-0.1-0.9
		c-1.6,2.3-3.7,3.5-6.7,3.7c2.3,1.7,3.2,4,3.1,6.9c1.6-2.3,3.5-3.5,6-3.5c1.5,0,2.8,0.5,4,1.5c2.5,2,3.5,5.1,2.3,7.9
		c-1.2,2.9-4,4.5-6.7,4.3C445.5,985.5,442.4,983,442.3,978z M400.5,853.5c-2.5-1.9-3.5-4.4-3.2-7.5c-1.7,3.1-4.4,4.3-7.7,4
		c2.8,1.5,4.1,3.9,4.1,7.3C395.6,854.7,397.7,853.7,400.5,853.5z M345.8,850.3c2.8,1.6,4,3.9,4.3,6.9c1.7-2.3,4-3.3,7.1-3.3
		c-2.8-1.9-3.7-4.3-3.7-7.2C351.5,849.5,349,850.6,345.8,850.3z M447.3,962.3c1.6-2.5,4-3.6,6.9-3.6c-2.4-1.6-3.6-3.9-3.6-7.1
		c-1.7,2.7-4,3.7-7.1,3.7C446.3,957.2,447.3,959.5,447.3,962.3z M425.7,876.5c2.5,1.7,3.5,4,3.5,7.1c1.9-2.8,4.4-3.7,7.3-3.6
		c-2.8-1.6-4-3.9-4-7.1C430.9,875.1,428.8,876.3,425.7,876.5z M447.2,917.9c1.7-2.3,4.1-3.1,6.9-3.1c-2.8-1.7-3.7-4.3-3.6-7.5
		c-1.5,2.5-3.6,3.9-6.7,4.1C446.1,913.3,447.1,915.3,447.2,917.9z M438.3,900.2c1.9-2.3,4.3-3.1,7.2-2.8c-2.7-1.6-3.9-3.9-3.9-7.2
		c-1.6,2.5-3.7,3.6-6.5,3.9C437.1,895.7,438.1,897.7,438.3,900.2z M332.7,865.5c1.5-1.9,3.5-2.8,6.3-2.9c-2.3-1.7-3.2-3.9-3.2-6.5
		c-1.9,2.4-4.1,3.3-6.7,3.2c0.7,0.8,1.6,1.6,2.1,2.7C331.8,863,332.2,864.2,332.7,865.5z M449.5,928c-2.3-1.6-3.5-3.7-3.5-6.7
		c-1.6,2.1-3.6,3.2-6.1,3.3c2.8,3.2,2.4,2.8,3.2,6.5C444.7,929.1,446.8,928,449.5,928z M359.8,854.9c2.1,1.5,3.2,3.5,3.5,5.9
		c0.9-0.7,1.9-1.5,2.8-1.9s2.1-0.7,3.2-0.9c-2.1-1.7-2.9-4.1-2.8-6.8C365,853.5,362.7,854.7,359.8,854.9z M419.3,868.3
		c-1.5,2.3-3.5,3.5-6,3.7c0.8,0.9,1.5,1.7,2,2.8c0.5,0.9,0.7,2.1,1.1,3.2c1.6-1.9,3.7-2.8,6.3-2.8
		C420.3,873.5,419.3,871.3,419.3,868.3z M428.1,886.5c-1.6,2-3.6,3.1-6.3,3.3c2,1.6,2.9,3.5,3.2,6c1.6-2,3.6-2.9,6.3-2.9
		C429.3,891,428.3,889,428.1,886.5z M435.9,938.2c2,2.4,2,2.4,2.9,5.9c1.6-2,3.6-2.9,6.4-2.9c-2.3-1.7-3.2-3.7-3.3-6.3
		C438.8,937.6,439.3,937.2,435.9,938.2z M409.1,870.9c-2.1-1.7-3.1-3.7-3.2-6.3c-1.6,2-3.6,3.1-6.4,3.2c2.3,1.6,3.2,3.6,3.5,6.1
		C404.7,871.9,406.5,871,409.1,870.9z M389.9,869.4c1.6-1.9,3.6-2.7,5.9-2.8c-0.7-1.1-1.6-1.9-2.1-2.9c-0.5-1.1-0.7-2.3-0.9-3.5
		c-1.3,2.1-3.3,3.2-6,3.5C388.7,865.1,389.5,867.1,389.9,869.4z M342.8,863.9c1.7,1.6,2.7,3.3,2.9,6c1.6-1.9,3.5-2.9,6-3.1
		c-2-1.7-2.8-3.9-2.8-6.5C347.4,862.6,345.4,863.7,342.8,863.9z M382.6,862.3c-2-1.7-2.8-3.7-2.9-6.4c-1.6,2.3-3.6,3.2-6.3,3.3
		c2.1,1.6,3.1,3.6,3.3,6.1C378.2,863.4,380,862.6,382.6,862.3z M434,913.1c3.2-2.8,3.2-2.3,6-2.9c-2-1.5-2.9-3.5-3.1-6.1
		c-1.6,2-3.5,3.1-6,3.2C432.8,908.9,433.9,910.7,434,913.1z M333.9,875.8c-0.7-0.9-1.5-1.9-1.9-2.8c-0.4-0.9-0.7-2-1.1-3.2
		c-1.5,2-3.5,2.8-6.1,2.9c2.1,1.6,3.1,3.5,3.3,6C329.8,877,331.6,875.9,333.9,875.8z M427.2,964.7c1.9,1.6,2.8,3.5,2.9,6
		c1.6-2.1,3.5-2.9,6.1-3.2c-2-1.6-2.9-3.5-3.3-5.9C431.3,963.5,429.5,964.3,427.2,964.7z M434.4,957c1.1-0.7,1.9-1.5,2.9-1.9
		c0.9-0.4,2.1-0.5,3.3-0.9c-2-1.3-3.1-3.3-3.3-6c-1.5,2-3.2,2.9-5.5,3.3C433.5,953.1,434.3,954.8,434.4,957z M417.7,888.3
		c-1.7-1.5-2.7-3.3-2.9-5.7c-1.5,1.9-3.3,2.7-5.2,2.9c0.9,1.7,1.9,3.5,2.7,5.1c0.7-0.4,1.5-1.1,2.4-1.5
		C415.6,888.7,416.7,888.6,417.7,888.3z M377.5,875c-1.3-1.3-2.1-3.1-2.4-5.5c-1.5,1.7-3.3,2.7-5.2,2.9c0.9,1.7,1.9,3.3,2.7,4.8
		C374,876.6,375.8,875.8,377.5,875z M435.9,923.4c-2-1.5-2.9-3.5-3.2-5.3c-1.6,0.9-3.3,2-4.8,2.8c0.8,1.5,1.6,3.1,2.4,4.8
		C431.7,924.3,433.5,923.5,435.9,923.4z M359.4,873.1c1.6-0.7,3.3-1.6,5.1-2.4c-1.5-1.3-2.1-3.1-2.5-5.3c-1.5,1.9-3.3,2.7-5.1,2.9
		C357.8,870.1,358.6,871.7,359.4,873.1z M344.3,874.2c-1.6,1.9-3.3,2.7-5.2,2.9c0.9,1.6,1.9,3.3,2.8,4.8c1.5-0.7,3.1-1.5,4.7-2.3
		C345.4,878.3,344.4,876.6,344.3,874.2z M401.6,878.2c-1.5,1.9-3.2,2.8-4.9,3.1c0.8,1.7,1.6,3.2,2.4,4.7c1.6-0.8,3.3-1.6,5.1-2.4
		C402.7,882.3,401.9,880.6,401.6,878.2z M421.3,907.8c1.6-0.7,3.2-1.5,4.9-2.1c-1.3-1.3-2.4-2.9-2.5-4.9c-1.6,0.9-3.2,1.9-4.7,2.8
		C419.9,904.9,420.5,906.3,421.3,907.8z M425.9,938.6c1.5-0.7,3.2-1.5,4.7-2c-0.8-1.5-1.7-3.2-2.5-4.7c-1.3,0.8-2.9,1.6-4.3,2.3
		C424.4,935.5,425.2,937.1,425.9,938.6z M417.3,965.1c1.6-0.7,3.2-1.5,4.7-2.1c-0.8-1.5-1.7-3.2-2.5-4.5c-1.3,0.8-2.9,1.6-4.3,2.3
		C415.9,962.2,416.7,963.6,417.3,965.1z M383.5,877.3c0.8,1.3,1.6,2.8,2.4,4.1c1.5-0.7,3.1-1.5,4.4-2c-0.7-1.5-1.5-3.2-2.1-4.5
		C386.6,875.7,385,876.5,383.5,877.3z M426,949.6c-0.8-1.3-1.6-2.9-2.3-4.3c-1.3,0.7-2.7,1.5-4,2.1c0.7,1.5,1.3,2.9,2,4.4
		C423.1,951.1,424.5,950.3,426,949.6z M359.1,883.8c-0.7-1.5-1.3-2.8-1.9-4.1c-1.5,0.7-3.1,1.5-4.4,2.1c0.8,1.3,1.6,2.7,2.4,4.1
		C356.4,885.3,357.8,884.6,359.1,883.8z M419.1,914.6c-1.3,0.7-2.8,1.5-4.1,2.1c0.7,1.3,1.5,2.8,2.1,4.1c1.5-0.7,2.8-1.5,4.1-2
		C420.5,917.4,419.7,915.9,419.1,914.6z M412.1,901.3c-0.7-1.5-1.5-2.9-2.1-4.3c-1.3,0.7-2.7,1.5-4,2.1c0.7,1.3,1.3,2.8,2,4.1
		C409.5,902.6,410.9,901.8,412.1,901.3z M339.6,888.7c-1.5,0.7-2.9,1.5-4.4,2.1c0.7,1.2,1.5,2.5,2.3,3.9c1.2-0.7,2.7-1.3,3.9-2
		C340.8,891.4,340.2,889.9,339.6,888.7z M411.1,930c0.5,1.2,1.2,2.5,1.7,3.7c1.5-0.7,2.8-1.3,4.1-1.9c-0.7-1.3-1.5-2.7-2.1-4
		C413.6,928.7,412.3,929.4,411.1,930z M396.8,892.6c-1.3,0.7-2.7,1.5-4,2.3c0.7,1.2,1.3,2.4,2,3.7c1.3-0.7,2.5-1.2,3.7-1.7
		C398.1,895.3,397.5,893.9,396.8,892.6z M404,960.6c1.3-0.8,2.8-1.5,4.1-2.1c-0.7-1.2-1.5-2.4-2-3.6c-1.3,0.7-2.5,1.2-3.9,1.9
		C402.8,958,403.5,959.4,404,960.6z M372.2,888.1c-0.7-1.3-1.2-2.8-1.9-4.1c-1.2,0.7-2.5,1.5-3.9,2.1c0.7,1.2,1.3,2.4,2,3.7
		C369.8,889.3,371,888.7,372.2,888.1z M381.8,894.3c1.3-0.7,2.7-1.3,3.9-1.9c-0.7-1.3-1.3-2.5-2-3.9c-1.3,0.7-2.5,1.3-3.7,2
		C380.4,891.9,381.1,893.1,381.8,894.3z M392.8,951c-1.3,0.7-2.7,1.2-4,1.9c0.5,1.3,1.1,2.5,1.6,3.7c1.3-0.8,2.8-1.6,4.1-2.4
		C394,953.1,393.3,951.9,392.8,951z M407.7,914.3c-0.7-1.3-1.3-2.7-2-4c-1.2,0.7-2.4,1.3-3.6,2c0.7,1.2,1.3,2.4,1.9,3.6
		C405.3,915.5,406.5,914.9,407.7,914.3z M349,895.3c0.7,1.2,1.2,2.4,1.9,3.5c1.2-0.7,2.5-1.2,3.7-1.9c-0.5-1.2-1.2-2.5-1.7-3.7
		C351.5,893.9,350.3,894.6,349,895.3z M354.6,930.3c1.2-0.8,2.5-1.7,3.9-2.5c-0.5-0.9-0.9-1.9-1.5-2.7c-1.5,0.5-2.9,1.1-4.4,1.6
		C353.2,927.8,353.9,929.1,354.6,930.3z M412.3,945.1c-0.7-1.2-1.3-2.5-2-3.7c-1.2,0.7-2.4,1.3-3.6,2c0.7,1.2,1.2,2.4,1.9,3.5
		C409.7,946.2,411.1,945.6,412.3,945.1z M349.8,909.9c-0.5-1.1-0.9-2.1-1.5-3.1c-1.3,0.7-2.7,1.2-3.9,1.9c0.7,1.1,1.2,2.1,1.9,3.2
		C347.4,911.3,348.6,910.6,349.8,909.9z M367.6,901.3c-0.5-1.2-1.2-2.3-1.7-3.5c-1.2,0.5-2.3,1.1-3.3,1.7c0.7,1.1,1.2,2.3,1.9,3.3
		C365.4,902.3,366.4,901.8,367.6,901.3z M389.2,908.2c0.5,1.1,1.1,2.3,1.6,3.2c1.2-0.5,2.3-1.1,3.3-1.6c-0.5-1.1-1.2-2.3-1.7-3.3
		C391.3,907.1,390.3,907.7,389.2,908.2z M380.7,905.4c-0.5-1.2-1.1-2.3-1.6-3.3c-1.1,0.5-2.1,1.2-3.2,1.7c0.5,0.9,1.1,2,1.7,3.1
		C378.7,906.5,379.8,905.9,380.7,905.4z M398.3,925.8c0.5,1.1,1.1,2.1,1.6,3.1c1.1-0.5,2.1-0.9,3.2-1.5c-0.5-1.1-1.1-2.1-1.6-3.3
		C400.4,924.7,399.3,925.3,398.3,925.8z M396.9,937.5c-0.9,0.5-2,1.1-2.9,1.6c0.5,1.1,1.1,2.1,1.6,3.2c1.1-0.5,2.1-1.1,3.1-1.5
		C398.1,939.6,397.5,938.6,396.9,937.5z M389.5,922.9c-0.5-1.1-0.9-2-1.5-2.9c-0.9,0.5-1.9,1.1-2.8,1.6c0.5,0.9,0.9,1.9,1.5,2.7
		C387.6,923.8,388.6,923.4,389.5,922.9z M358.6,913c0.4,0.8,0.9,1.7,1.3,2.7c0.9-0.5,1.9-0.9,2.8-1.5c-0.4-0.9-0.9-1.9-1.3-2.7
		C360.6,911.9,359.6,912.5,358.6,913z M372.3,917.4c0.4,0.8,0.8,1.6,1.2,2.4c0.8-0.4,1.7-0.8,2.5-1.2c-0.4-0.8-0.8-1.6-1.2-2.5
		C373.9,916.5,373.1,916.9,372.3,917.4z M383.8,933.6c-0.8,0.4-1.5,0.8-2.3,1.3c0.4,0.8,0.8,1.6,1.2,2.3c0.8-0.4,1.6-0.8,2.4-1.1
		C384.7,935.4,384.2,934.6,383.8,933.6z M367.5,930.8c0.4,0.7,0.8,1.5,1.2,2.1c0.9-0.5,1.6-0.9,2.5-1.5c-0.4-0.7-0.7-1.3-0.9-2
		C369.2,930,368.4,930.4,367.5,930.8z"/>
	<path class="st1" d="M466.1,932.8c-3.7,0-6.7-3.1-6.5-6.7c0-3.6,3.2-6.5,6.8-6.5s6.5,3.1,6.5,6.8
		C472.9,929.9,469.9,932.8,466.1,932.8z"/>
	<path class="st1" d="M323,848.3c0,3.7-3.1,6.7-6.7,6.7c-3.3,0-6.7-3.3-6.7-6.8s3.2-6.5,6.7-6.5C319.9,841.7,323,844.9,323,848.3z"
		/>
	<path class="st1" d="M452.7,884.6c-3.5,0-6.5-3.2-6.5-6.7s3.2-6.5,6.7-6.5s6.7,3.2,6.5,6.7C459.3,881.5,456.1,884.6,452.7,884.6z"
		/>
	<path class="st1" d="M461.7,902.1c-3.5,0-6.5-3.1-6.5-6.7c0-3.5,3.1-6.5,6.7-6.5c3.5,0,6.5,3.1,6.5,6.7
		C468.3,898.9,465.2,902.1,461.7,902.1z"/>
	<path class="st1" d="M430.8,862.7c-3.5,0-6.7-3.2-6.7-6.5c0-3.5,3.2-6.7,6.7-6.7s6.5,3.2,6.5,6.7
		C437.3,859.5,434.1,862.7,430.8,862.7z"/>
	<path class="st1" d="M466.5,963.5c3.5,0,6.5,3.1,6.5,6.5c0,3.5-3.2,6.7-6.7,6.5c-3.5,0-6.5-3.1-6.5-6.5
		C460,966.6,463.1,963.5,466.5,963.5z"/>
	<path class="st1" d="M470.8,906.3c3.7,0.3,6.5,3.2,6.4,6.7c0,3.5-3.2,6.5-6.7,6.4c-3.9-0.1-6.5-3.2-6.4-6.7
		C464.3,909.3,467.3,906.2,470.8,906.3z"/>
	<path class="st1" d="M357.9,830.5c-0.3,3.7-2.8,6.4-6.5,6.5c-3.6,0.1-6.5-2.8-6.5-6.5c0-3.9,2.9-6.5,6.5-6.4
		C355.2,823.9,357.6,826.9,357.9,830.5z"/>
	<path class="st1" d="M477.5,957c-0.4,4-3.1,6.5-6.7,6.4c-4-0.1-6.4-3.1-6.4-6.5c0.1-4,3.1-6.5,6.5-6.4
		C474.9,950.6,477.2,953.5,477.5,957z"/>
	<path class="st1" d="M462.4,989.9c-3.7-0.3-6.5-2.7-6.5-6.5c0-3.7,2.5-6.4,6.4-6.5c3.7,0,6.4,2.5,6.5,6.4
		C468.9,987,466.3,989.5,462.4,989.9z"/>
	<path class="st1" d="M450.4,860.5c-0.3,3.7-2.7,6.5-6.5,6.5c-3.7,0-6.5-2.7-6.5-6.4s2.7-6.5,6.4-6.5
		C447.6,854.1,450,856.6,450.4,860.5z"/>
	<path class="st1" d="M475.1,950c-3.1,0.1-6.4-3.1-6.3-6.7c0.1-3.1,3.1-6.3,6.7-6.3c3.1,0.1,6.4,3.1,6.3,6.7
		C481.6,947,478.7,950.3,475.1,950z"/>
	<path class="st1" d="M408.5,827.9c3.6,0,6.4,2.9,6.4,6.5c0,3.5-2.9,6.3-6.4,6.3c-3.6,0-6.4-2.9-6.4-6.5
		C402.1,830.7,404.9,827.9,408.5,827.9z"/>
	<path class="st1" d="M395.3,836.3c-3.6,0-6.4-2.8-6.4-6.5c0-3.5,2.8-6.4,6.4-6.4s6.4,2.8,6.4,6.5
		C401.7,833.5,398.9,836.3,395.3,836.3z"/>
	<path class="st1" d="M421.7,832.3c3.5,0,6.4,2.9,6.4,6.4s-2.9,6.4-6.4,6.4s-6.4-2.9-6.4-6.4C415.3,835.3,418.3,832.3,421.7,832.3z"
		/>
	<path class="st1" d="M320.8,841.4c-3.5,0-6.4-2.9-6.4-6.4s2.9-6.4,6.4-6.4s6.4,2.9,6.4,6.4C327.2,838.5,324.3,841.4,320.8,841.4z"
		/>
	<path class="st1" d="M382,819.4c3.5,0,6.4,2.9,6.4,6.4s-2.9,6.4-6.4,6.4s-6.4-2.9-6.4-6.4S378.6,819.4,382,819.4z"/>
	<path class="st1" d="M472.3,882.3c0,3.5-3.1,6.4-6.4,6.4s-6.4-3.1-6.4-6.4c0-3.5,3.1-6.4,6.4-6.4
		C469.3,875.9,472.3,879,472.3,882.3z"/>
	<path class="st1" d="M479.3,937c-3.5,0-6.4-3.1-6.4-6.5c0-3.3,3.1-6.3,6.4-6.3c3.5,0,6.4,3.1,6.4,6.5
		C485.7,934,482.8,937,479.3,937z"/>
	<path class="st1" d="M474.8,906.2c-3.3,0-6.4-3.1-6.4-6.4c0-3.5,3.1-6.4,6.4-6.4s6.4,3.1,6.3,6.4
		C481.2,903.3,478.1,906.2,474.8,906.2z"/>
	<path class="st1" d="M303.1,837.5c3.3,0,6.4,2.9,6.4,6.4s-3.1,6.5-6.4,6.4c-3.3,0-6.4-3.1-6.4-6.4S299.6,837.5,303.1,837.5z"/>
	<path class="st1" d="M369,827.8c-3.3,0-6.4-2.9-6.4-6.4s3.1-6.4,6.4-6.4s6.3,3.1,6.3,6.4C375.4,824.9,372.4,827.8,369,827.8z"/>
	<path class="st1" d="M331.9,826.1c0-3.3,2.9-6.4,6.4-6.4s6.4,3.1,6.4,6.4s-3.1,6.3-6.4,6.3C334.8,832.3,331.9,829.4,331.9,826.1z"
		/>
	<path class="st1" d="M457.2,858.3c3.3,0,6.3,3.1,6.3,6.4c0,3.5-3.1,6.4-6.5,6.3c-3.3,0-6.3-3.1-6.3-6.5
		C450.8,861.1,453.9,858.2,457.2,858.3z"/>
	<path class="st1" d="M441.3,843c0,3.3-2.9,6.4-6.4,6.4s-6.4-3.1-6.4-6.4s3.1-6.3,6.4-6.3C438.3,836.7,441.3,839.7,441.3,843z"/>
	<path class="st1" d="M299,863.4c-3.3,0-6.4-3.1-6.4-6.4c0-3.3,2.9-6.3,6.3-6.3c3.3,0,6.4,3.1,6.4,6.4
		C305.2,860.3,302.3,863.3,299,863.4z"/>
	<path class="st1" d="M483.9,910.9c3.6,0.3,6.3,2.9,6.3,6.4c0,3.6-2.8,6.3-6.3,6.3c-3.6,0-6.3-2.8-6.3-6.3
		C477.5,913.7,480.3,911.1,483.9,910.9z"/>
	<path class="st1" d="M473.7,974.4c0-3.5,2.7-6,6.1-6.3c3.1-0.1,6.3,3.1,6.3,6.3c0,2.9-3.2,6.3-6.3,6.1
		C476.8,980.7,473.3,977.5,473.7,974.4z"/>
	<path class="st1" d="M454.4,847.3c0.3,2.9-3.1,6.3-6.3,6.1c-2.9,0-6.3-3.1-6.3-6.4c0-2.8,3.1-6.1,6.4-6.1
		C451.2,841,454.8,844.1,454.4,847.3z"/>
	<path class="st1" d="M355.8,823.3c-3.1,0.4-6.3-3.2-6.3-6.1c0-3.2,3.2-6.4,6.3-6.3c3.5,0.1,6.1,2.8,6.1,6.3
		C361.9,820.5,359.1,823.3,355.8,823.3z"/>
	<path class="st1" d="M484.1,967.2c-3.5,0-6.1-2.8-6.1-6.1c0-3.5,2.8-6.1,6.3-6.1c3.3,0,6.1,2.8,6.1,6.3
		C490.4,964.6,487.6,967.2,484.1,967.2z"/>
	<path class="st1" d="M475.5,993.8c-3.3,0-6.1-2.8-6.1-6.3c0-3.3,2.8-6.1,6.3-6.1c3.3,0,6.1,2.8,6.1,6.3
		C481.6,991,478.8,993.8,475.5,993.8z"/>
	<path class="st1" d="M307.4,824.5c3.3,0,6.3,2.8,6.3,6.1s-2.8,6.3-6.1,6.3c-3.3,0-6.1-2.8-6.1-6.1
		C301.2,827.3,304,824.5,307.4,824.5z"/>
	<path class="st1" d="M324.8,828.1c-3.3,0-6.1-2.9-6.1-6.3s2.9-6.1,6.3-6c3.3,0,6.1,2.9,6.1,6.3
		C331.1,825.3,328.2,828.1,324.8,828.1z"/>
	<path class="st1" d="M479.2,892.6c-3.3,0-6.1-2.9-6.1-6.3c0-3.3,2.9-6.1,6.3-6.1s6.1,2.9,6.1,6.3
		C485.3,889.8,482.5,892.7,479.2,892.6z"/>
	<path class="st1" d="M494.5,948.2c0,3.3-2.9,6.1-6.3,6.1c-3.3,0-6-2.9-6-6.3s2.9-6.1,6.3-6.1C491.7,941.9,494.5,944.8,494.5,948.2z
		"/>
	<path class="st1" d="M470.3,862.9c3.3,0,6.1,2.9,6.1,6.3s-2.9,6.1-6.3,6.1s-6.1-2.9-6.1-6.3C464.1,865.7,466.9,862.9,470.3,862.9z"
		/>
	<path class="st1" d="M399.5,823c-3.3,0-6.1-2.9-6.1-6.3s2.9-6.1,6.3-6.1s6.1,2.9,6.1,6.3C405.6,820.2,402.8,823,399.5,823z"/>
	<path class="st1" d="M412.8,827.4c-3.3,0-6.1-2.9-6.1-6.3c0-3.2,2.9-6.1,6.3-6.1s6.1,2.9,6.1,6.3
		C418.9,824.6,416.1,827.4,412.8,827.4z"/>
	<path class="st1" d="M425.9,819.3c3.2,0,6.1,2.9,6.1,6.1c0,3.2-2.9,6.1-6.1,6.1s-6.1-2.9-6.1-6.1
		C419.7,822.2,422.7,819.3,425.9,819.3z"/>
	<path class="st1" d="M488.1,910.1c-3.2,0-6.1-2.9-6.1-6.1c0-3.2,2.9-6.1,6.3-6.1c3.2,0,6.1,2.9,6.1,6.1
		C494.3,907.1,491.3,910.1,488.1,910.1z"/>
	<path class="st1" d="M386.4,806.3c3.2,0,6.1,2.9,6.1,6.1c0,3.2-2.9,6.1-6.1,6.1s-6.1-2.9-6.1-6.1S383.2,806.3,386.4,806.3z"/>
	<path class="st1" d="M492.7,940.8c-3.2,0-6.1-2.9-6.1-6.3c0-3.2,2.9-6,6.1-6s6.1,2.9,6.1,6.3C498.8,938,495.9,940.8,492.7,940.8z"
		/>
	<path class="st1" d="M342.7,806.7c3.2,0,6,2.9,6,6.1c0,3.2-2.9,6.1-6.3,6.1c-3.2,0-6.1-3.1-6-6.3
		C336.6,809.5,339.5,806.7,342.7,806.7z"/>
	<path class="st1" d="M461.3,845.4c3.2,0,6.1,2.9,6.1,6.3c0,3.2-2.9,6.1-6.1,6c-3.2,0-6.1-2.9-6.1-6.3
		C455.2,848.2,458.1,845.4,461.3,845.4z"/>
	<path class="st1" d="M379.2,808.3c0,3.2-2.9,6.1-6.1,6.1s-6.1-2.9-6.1-6.1c0-3.2,2.9-6.1,6.1-6.1S379.2,805.3,379.2,808.3z"/>
	<path class="st1" d="M439.3,835.8c-3.2,0-6.1-2.9-6.1-6.1c0-3.2,2.9-6.1,6.1-6.1s6.1,2.9,6.1,6.1
		C445.3,832.9,442.4,835.8,439.3,835.8z"/>
	<path class="st1" d="M311.8,823.5c-3.2,0-6-2.7-6-6c0-3.2,2.8-6,6-6s5.9,2.8,5.9,6C317.8,820.7,315.1,823.5,311.8,823.5z"/>
	<path class="st1" d="M497.1,927.5c-3.2,0-6-2.8-5.9-6c0-3.2,2.8-5.9,6-5.9s5.9,2.8,5.9,6S500.3,927.6,497.1,927.5z"/>
	<path class="st1" d="M360,809.9c-3.2,0-6-2.8-6-6s2.8-6,6-6s5.9,2.8,5.9,6C366,807.3,363.2,809.9,360,809.9z"/>
	<path class="st1" d="M483.6,867.4c3.2,0,6,2.8,6,6s-2.8,6-6,6s-5.9-2.8-5.9-6C477.6,870.2,480.4,867.4,483.6,867.4z"/>
	<path class="st1" d="M294.3,832.5c-3.2,0-6-2.8-6-6s2.8-6,6-6s5.9,2.8,5.9,6C300.3,829.7,297.5,832.5,294.3,832.5z"/>
	<path class="st1" d="M492.3,884.9c3.2,0,6,2.7,6,5.9s-2.8,6-6,6s-6-2.8-6-6C486.3,887.7,489.1,884.9,492.3,884.9z"/>
	<path class="st1" d="M458.3,834.1c0,3.2-2.8,6-5.9,6c-3.2,0-6-2.8-6-6s2.8-5.9,6-5.9C455.6,828.1,458.3,830.9,458.3,834.1z"/>
	<path class="st1" d="M329.4,814.5c-3.1,0-6-2.8-6-5.9s2.8-6,5.9-6s6,2.8,6,5.9C335.2,811.7,332.4,814.5,329.4,814.5z"/>
	<path class="st1" d="M498.9,978.6c0,3.1-2.8,6-6,6s-6-2.8-6-6s2.8-6,6-6S498.9,975.4,498.9,978.6z"/>
	<path class="st1" d="M480.5,855.9c0,3.2-2.8,6-5.9,6s-6-2.8-6-5.9c0-3.1,2.8-6,5.9-6C477.7,849.9,480.5,852.7,480.5,855.9z"/>
	<path class="st1" d="M503.2,965.5c0,3.2-2.8,6-6,6s-6-2.8-5.9-6c0-3.2,2.8-5.9,5.9-5.9C500.5,959.5,503.2,962.3,503.2,965.5z"/>
	<path class="st1" d="M290,833.7c3.2,0,6,2.8,5.9,6c0,3.2-2.9,5.9-6,5.9c-3.2-0.1-5.9-2.8-5.9-6S286.8,833.5,290,833.7z"/>
	<path class="st1" d="M507.6,952.2c0,3.1-2.8,5.9-5.9,6c-3.1,0-6-2.8-6-5.9c0-3.1,2.8-5.9,5.9-5.9
		C504.8,946.3,507.6,949.1,507.6,952.2z"/>
	<path class="st1" d="M409.7,803.5c0,3.1-2.9,5.9-6,5.9s-5.9-2.9-5.9-6s2.9-5.9,6-5.9C407.1,797.7,409.9,800.6,409.7,803.5z"/>
	<path class="st1" d="M423.1,807.9c0,3.1-2.8,5.9-5.9,5.9s-5.9-2.8-5.9-5.9s2.8-5.9,5.9-5.9C420.3,801.9,423.1,804.9,423.1,807.9z"
		/>
	<path class="st1" d="M507.2,908.3c0,3.1-2.8,5.9-5.9,6c-3.1,0-5.9-2.8-6-5.9c0-3.1,2.8-5.9,5.9-6S507.1,905.3,507.2,908.3z"/>
	<path class="st1" d="M352.6,799.7c-0.3,3.5-2.7,5.9-6,5.9c-3.5,0-5.9-2.7-5.7-5.9c0.1-3.5,2.7-5.7,5.9-5.7
		C350.2,793.8,352.4,796.3,352.6,799.7z"/>
	<path class="st1" d="M459.7,838.3c0.1-3.1,2.5-5.9,5.9-5.9c3.1-0.1,5.9,2.4,5.9,5.7c0.1,3.1-2.5,5.9-5.9,6
		C462.5,844.1,460,841.5,459.7,838.3z"/>
	<path class="st1" d="M436.1,812.2c-0.1,3.1-2.5,5.9-5.9,5.9c-3.1,0.1-5.9-2.4-5.9-5.7c-0.1-3.1,2.5-5.9,5.9-6
		C433.5,806.5,436,809,436.1,812.2z"/>
	<path class="st1" d="M396.4,799.5c-0.3,3.5-3.1,5.9-6,5.7c-3.5-0.1-5.9-3.2-5.7-6c0.1-3.3,3.2-5.7,6-5.6
		C394.1,793.7,396.4,796.7,396.4,799.5z"/>
	<path class="st1" d="M500.1,939c0-3.2,2.7-5.7,5.9-5.7s5.7,2.7,5.7,5.9c0,3.1-2.7,5.6-5.7,5.6C502.7,944.8,500.1,942.2,500.1,939z"
		/>
	<path class="st1" d="M298.4,807.4c3.1,0,5.7,2.7,5.7,5.7c0,3.2-2.7,5.7-5.9,5.7c-3.1,0-5.7-2.7-5.7-5.7
		C292.7,810.1,295.4,807.4,298.4,807.4z"/>
	<path class="st1" d="M383.2,795c0,3.1-2.7,5.7-5.7,5.7c-3.2,0-5.9-2.7-5.9-5.7c0-3.1,2.7-5.7,5.7-5.7
		C380.6,789.3,383.2,791.9,383.2,795z"/>
	<path class="st1" d="M325.8,903.9c3.1,0,5.6,2.8,5.6,5.9c0,3.1-2.8,5.7-5.9,5.6c-3.1,0-5.7-2.8-5.6-5.9
		C319.9,906.3,322.6,903.8,325.8,903.9z"/>
	<path class="st1" d="M487.7,865.8c-3.1,0-5.7-2.7-5.7-5.7c0-3.1,2.7-5.9,5.7-5.7c3.1,0,5.7,2.7,5.7,5.7
		C493.5,863.1,490.8,865.8,487.7,865.8z"/>
	<path class="st1" d="M321.9,804.2c0,3.1-2.7,5.7-5.7,5.7s-5.7-2.7-5.7-5.9c0-3.1,2.7-5.7,5.9-5.7
		C319.2,798.5,321.9,801.1,321.9,804.2z"/>
	<path class="st1" d="M496.7,871.8c3.1,0,5.7,2.7,5.7,5.7s-2.7,5.7-5.9,5.7c-3.1,0-5.7-2.7-5.7-5.7
		C490.9,874.5,493.6,871.8,496.7,871.8z"/>
	<path class="st1" d="M449.3,816.3c0,3.1-2.7,5.7-5.7,5.7c-3.1,0-5.9-2.7-5.7-5.7c0-3.1,2.7-5.7,5.7-5.7
		C446.7,810.6,449.3,813.3,449.3,816.3z"/>
	<path class="st1" d="M515.9,925.8c0,3.1-2.8,5.7-5.7,5.7c-2.9,0-5.6-2.7-5.7-5.7c0-3.1,2.8-5.7,5.7-5.7
		C513.2,920.1,515.9,922.7,515.9,925.8z"/>
	<path class="st1" d="M511.3,895.3c0,2.9-2.8,5.7-5.7,5.6c-2.9,0-5.7-2.8-5.6-5.7c0-2.9,2.8-5.7,5.7-5.6
		C508.7,889.5,511.3,892.2,511.3,895.3z"/>
	<path class="st1" d="M488.9,997.6c-2.9,0-5.7-2.7-5.7-5.6c0-2.9,2.7-5.7,5.6-5.7s5.7,2.7,5.7,5.6
		C494.5,994.8,491.9,997.5,488.9,997.6z"/>
	<path class="st1" d="M339.4,795.4c0,2.9-2.7,5.7-5.7,5.7c-2.9,0-5.7-2.7-5.7-5.7c0-2.9,2.7-5.7,5.7-5.7
		C336.6,789.8,339.4,792.5,339.4,795.4z"/>
	<path class="st1" d="M358.6,790.6c0.1-2.9,2.9-5.7,5.9-5.6c3.1,0.1,5.7,2.9,5.6,5.9c-0.1,2.9-2.8,5.6-5.7,5.6
		C361.1,796.3,358.4,793.5,358.6,790.6z"/>
	<path class="st1" d="M456.7,826.5c-2.9,0-5.7-2.8-5.6-5.7c0.1-3.1,2.9-5.7,5.7-5.6c2.9,0.1,5.6,2.8,5.6,5.7
		C462.4,823.8,459.6,826.5,456.7,826.5z"/>
	<path class="st1" d="M478.8,836.9c2.9,0,5.7,2.7,5.7,5.7c0,2.9-2.8,5.7-5.7,5.7c-2.9,0-5.6-2.7-5.6-5.6
		C473.1,839.7,475.7,837,478.8,836.9z"/>
	<path class="st1" d="M510.7,964.3c3.1,0,5.6,2.4,5.6,5.6c0,3.1-2.4,5.5-5.6,5.5c-3.1,0-5.5-2.4-5.5-5.5
		C505.1,966.7,507.5,964.3,510.7,964.3z"/>
	<path class="st1" d="M511.9,982.8c0,3.2-2.4,5.6-5.5,5.6c-3.2,0-5.6-2.4-5.6-5.5s2.4-5.6,5.6-5.6
		C509.3,977.4,511.7,979.8,511.9,982.8z"/>
	<path class="st1" d="M514.5,907.1c3.1,0,5.6,2.5,5.5,5.6c0,3.1-2.5,5.5-5.6,5.5c-3.1,0-5.6-2.5-5.5-5.6
		C509.1,909.5,511.5,907.1,514.5,907.1z"/>
	<path class="st1" d="M520.3,956.4c0,2.9-2.5,5.6-5.5,5.6s-5.6-2.5-5.6-5.6c0-2.9,2.5-5.5,5.5-5.5
		C517.7,951,520.3,953.5,520.3,956.4z"/>
	<path class="st1" d="M351.1,792.1c-2.9,0-5.6-2.5-5.6-5.5c0-2.9,2.5-5.6,5.6-5.6c2.9,0,5.5,2.5,5.5,5.6
		C356.7,789.4,354,792.1,351.1,792.1z"/>
	<path class="st1" d="M470.1,819.7c2.9,0,5.6,2.8,5.5,5.6c0,2.8-2.7,5.5-5.6,5.5s-5.6-2.8-5.5-5.6
		C464.5,822.2,467.2,819.5,470.1,819.7z"/>
	<path class="st1" d="M308.4,800.1c0,2.9-2.7,5.6-5.6,5.5c-2.8,0-5.5-2.7-5.5-5.6s2.7-5.6,5.6-5.5
		C305.8,794.6,308.4,797.3,308.4,800.1z"/>
	<path class="st1" d="M426.9,794.9c0,2.8-2.7,5.5-5.6,5.5s-5.6-2.7-5.5-5.6c0-2.9,2.8-5.5,5.6-5.5
		C424.3,789.4,426.9,792.1,426.9,794.9z"/>
	<path class="st1" d="M408.3,795.9c-2.8,0-5.5-2.7-5.6-5.5c0-2.9,2.7-5.6,5.5-5.6c2.9,0,5.6,2.7,5.6,5.6
		C413.7,793.3,411.1,795.9,408.3,795.9z"/>
	<path class="st1" d="M495.6,864.3c0-2.9,2.7-5.5,5.6-5.5s5.6,2.7,5.5,5.6s-2.7,5.5-5.6,5.3C498,869.9,495.5,867.3,495.6,864.3z"/>
	<path class="st1" d="M291,809c0,2.9-2.7,5.5-5.5,5.5c-2.9,0-5.6-2.7-5.5-5.6c0-2.9,2.7-5.5,5.6-5.5C288.3,803.5,291,806.2,291,809z
		"/>
	<path class="st1" d="M320.3,785.7c2.8,0,5.5,2.7,5.5,5.5c0,2.9-2.7,5.6-5.6,5.5c-2.8,0-5.5-2.7-5.5-5.5
		C314.8,788.2,317.5,785.5,320.3,785.7z"/>
	<path class="st1" d="M524.7,943.4c0,2.8-2.5,5.5-5.5,5.5c-2.9,0-5.6-2.7-5.5-5.5c0-2.8,2.7-5.5,5.5-5.5S524.7,940.6,524.7,943.4z"
		/>
	<path class="st1" d="M440.1,798.9c0,2.8-2.5,5.5-5.5,5.5c-2.9,0-5.6-2.7-5.6-5.5s2.7-5.5,5.5-5.5
		C437.5,793.4,440.1,796.1,440.1,798.9z"/>
	<path class="st1" d="M394.9,780.6c2.8,0,5.5,2.5,5.6,5.5c0,2.9-2.5,5.6-5.5,5.6c-2.8,0-5.5-2.5-5.5-5.5
		C389.5,783.3,392,780.6,394.9,780.6z"/>
	<path class="st1" d="M515.5,881.9c0,2.8-2.5,5.5-5.5,5.5c-2.9,0-5.6-2.7-5.5-5.5c0-2.8,2.7-5.5,5.5-5.5
		C512.8,876.5,515.5,879,515.5,881.9z"/>
	<path class="st1" d="M492.1,852.5c-2.9,0-5.5-2.5-5.5-5.5c0-2.9,2.5-5.5,5.5-5.5s5.5,2.5,5.5,5.5
		C497.6,849.8,494.9,852.5,492.1,852.5z"/>
	<path class="st1" d="M453.2,803.3c0,2.8-2.8,5.5-5.5,5.5c-2.8,0-5.5-2.7-5.5-5.5s2.8-5.5,5.5-5.5
		C450.7,797.9,453.2,800.6,453.2,803.3z"/>
	<path class="st1" d="M387.4,781.9c0,2.8-2.7,5.3-5.5,5.5c-2.8,0-5.6-2.8-5.5-5.5c0.1-3.2,2.5-5.3,5.5-5.3
		C384.8,776.5,387.4,779.3,387.4,781.9z"/>
	<path class="st1" d="M513.5,899.4c0-3.1,2.3-5.3,5.3-5.3c3.1,0,5.2,2.3,5.3,5.3c0.1,2.7-2.5,5.5-5.5,5.3
		C515.7,904.6,513.5,902.3,513.5,899.4z"/>
	<path class="st1" d="M523.5,924.9c2.7-0.3,5.3,2.7,5.5,5.2c0,2.7-2.8,5.5-5.5,5.5c-2.5,0-5.3-2.8-5.3-5.3
		C518.1,927.5,520.9,924.6,523.5,924.9z"/>
	<path class="st1" d="M343.1,782.2c0.3,2.5-2.7,5.3-5.3,5.3c-2.5,0-5.5-2.8-5.3-5.5c0-2.5,2.8-5.3,5.5-5.3
		C340.4,776.9,343.4,779.5,343.1,782.2z"/>
	<path class="st1" d="M483.1,834.9c-2.8,0-5.2-2.5-5.2-5.3s2.5-5.3,5.5-5.2c2.8,0,5.2,2.5,5.2,5.5
		C488.4,832.5,485.9,834.9,483.1,834.9z"/>
	<path class="st1" d="M281.1,827.4c-2.8,0-5.3-2.5-5.3-5.3s2.5-5.3,5.3-5.3s5.2,2.5,5.3,5.3C286.3,824.9,283.9,827.4,281.1,827.4z"
		/>
	<path class="st1" d="M373.9,777.5c0,2.8-2.4,5.3-5.3,5.3c-2.8,0-5.3-2.5-5.3-5.3s2.4-5.3,5.2-5.3
		C371.4,772.2,373.9,774.7,373.9,777.5z"/>
	<path class="st1" d="M455.7,807.7c0-2.8,2.5-5.3,5.3-5.3s5.3,2.5,5.3,5.3s-2.5,5.2-5.3,5.3C458.3,813,455.7,810.5,455.7,807.7z"/>
	<path class="st1" d="M519.3,868.9c0,2.7-2.5,5.3-5.3,5.2c-2.7,0-5.3-2.7-5.2-5.3c0-2.7,2.5-5.2,5.2-5.2
		C517.1,863.7,519.2,865.8,519.3,868.9z"/>
	<path class="st1" d="M519.5,992.6c-2.7,0-5.3-2.5-5.3-5.2s2.5-5.3,5.3-5.2c2.7,0,5.2,2.5,5.2,5.2
		C524.7,989.9,522.1,992.6,519.5,992.6z"/>
	<path class="st1" d="M307.2,781.5c2.7,0,5.3,2.7,5.2,5.3c-0.1,3.1-2.4,5.1-5.3,5.2c-2.7,0-5.2-2.5-5.2-5.2
		C302,783.9,304.6,781.4,307.2,781.5z"/>
	<path class="st1" d="M289.5,800.9c-2.7,0-5.3-2.5-5.2-5.3c0-2.7,2.7-5.3,5.3-5.2c2.7,0,5.2,2.5,5.2,5.2
		C294.8,798.3,292.3,800.9,289.5,800.9z"/>
	<path class="st1" d="M527.6,911.8c2.5-0.1,5.2,2.4,5.3,5.2c0,2.8-2.3,5.2-5.2,5.3c-2.7,0.1-5.2-2.5-5.2-5.2
		C522.4,914.5,524.9,911.9,527.6,911.8z"/>
	<path class="st1" d="M510.4,851.1c0,2.5-2.4,5.2-5.2,5.3c-2.8,0-5.2-2.3-5.3-5.2c0-2.7,2.5-5.2,5.2-5.2
		C507.7,845.8,510.4,848.3,510.4,851.1z"/>
	<path class="st1" d="M523.7,968.7c2.7,0,5.3,2.7,5.2,5.2c-0.1,2.9-2.5,5.3-5.3,5.2c-2.9-0.1-5.2-2.5-5.1-5.3
		C518.5,971.2,521.2,968.7,523.7,968.7z"/>
	<path class="st1" d="M355.5,778.5c-2.7,0-5.2-2.5-5.2-5.2s2.5-5.2,5.2-5.2s5.2,2.5,5.2,5.2C360.7,775.8,358.2,778.5,355.5,778.5z"
		/>
	<path class="st1" d="M523.1,891.4c-2.4,0.3-5.2-2.5-5.1-5.2c0.1-2.8,2.3-4.9,5.2-5.1c2.4-0.1,5.2,2.5,5.1,5.2
		C528,889.1,525.9,891.4,523.1,891.4z"/>
	<path class="st1" d="M533.2,960.8c0,2.9-2.3,5.1-5.1,5.1s-5.1-2.3-5.1-5.1c0-2.9,2.3-5.1,5.1-5.1
		C530.9,955.8,533.2,958,533.2,960.8z"/>
	<path class="st1" d="M479.3,811.9c0.3,2.4-2.4,5.2-5.2,5.1c-2.8-0.1-4.9-2.3-5.1-5.2c-0.1-2.4,2.5-5.2,5.2-5.1
		C477.1,806.9,479.3,809,479.3,811.9z"/>
	<path class="st1" d="M501.6,833.7c0,2.8-2.3,5.1-5.1,5.1c-2.8,0-5.1-2.3-5.1-5.2c0-2.8,2.3-5.1,5.2-5.1
		C499.3,828.6,501.6,830.9,501.6,833.7z"/>
	<path class="st1" d="M329.8,777.8c0,2.8-2.3,5.1-5.1,5.1c-2.9,0-5.2-2.3-5.2-5.1s2.3-5.1,5.1-5.1
		C327.5,772.7,329.8,775,329.8,777.8z"/>
	<path class="st1" d="M438.8,791c-2.8,0-5.1-2.4-5.1-5.1c0-2.8,2.4-5.1,5.1-5.1s5.1,2.4,5.1,5.1C444,788.6,441.6,790.9,438.8,791z"
		/>
	<path class="st1" d="M399.3,778.1c-2.7,0-5.1-2.4-5.1-5.2s2.4-5.1,5.2-5.1c2.7,0,5.1,2.4,4.9,5.1
		C404.4,775.7,402,778.1,399.3,778.1z"/>
	<path class="st1" d="M412.4,782.2c-2.8,0-5.1-2.3-5.1-5.1s2.3-5.1,5.1-5.1c2.8,0,5.1,2.3,5.1,5.1
		C417.5,779.8,415.2,782.2,412.4,782.2z"/>
	<path class="st1" d="M430.8,781.4c0,2.8-2.4,5.1-5.1,5.1c-2.8,0-5.1-2.4-5.1-5.1c0-2.8,2.3-5.1,5.1-5.1
		C428.4,776.3,430.8,778.7,430.8,781.4z"/>
	<path class="st1" d="M537.3,947.6c0,2.7-2.4,5.1-5.2,5.1c-2.7,0-5.1-2.4-4.9-5.2c0-2.7,2.4-4.9,5.2-4.9
		C535.1,942.4,537.3,944.8,537.3,947.6z"/>
	<path class="st1" d="M342.2,763.8c2.7,0,5.1,2.4,5.1,5.1c0,2.5-2.4,4.9-4.9,5.1c-2.7,0-5.1-2.4-5.1-5.1
		C337.1,766.2,339.5,763.8,342.2,763.8z"/>
	<path class="st1" d="M391.1,768.6c0,2.7-2.5,5.1-5.2,5.1c-2.7-0.1-4.9-2.5-4.9-5.1c0-2.7,2.5-5.1,5.2-4.9
		C388.7,763.7,391.1,766.1,391.1,768.6z"/>
	<path class="st1" d="M452.1,785c2.7,0,5.1,2.5,5.1,5.2c-0.1,2.7-2.5,4.9-5.1,4.9c-2.7,0-5.1-2.5-4.9-5.2
		C447.2,787.3,449.6,784.9,452.1,785z"/>
	<path class="st1" d="M487.5,821.3c-2.5,0-4.9-2.4-5.1-5.1c0-2.7,2.4-5.1,5.1-5.1c2.5,0,4.9,2.4,5.1,4.9
		C492.5,818.7,490.1,821.3,487.5,821.3z"/>
	<path class="st1" d="M537.1,903.7c0,2.5-2.4,5.1-5.1,5.1c-2.5,0-4.9-2.4-5.1-4.9c0-2.7,2.4-5.1,5.1-5.1
		C534.7,898.7,537.1,901.1,537.1,903.7z"/>
	<path class="st1" d="M536.7,939.5c-2.8-0.3-4.8-2-5.1-4.9c-0.1-2.5,2.4-5.1,5.1-5.1c2.5,0,4.9,2.5,5.1,5.1
		C541.6,937,539.2,939.5,536.7,939.5z"/>
	<path class="st1" d="M293.9,787.4c-2.8-0.3-4.9-2-4.9-4.9c0-2.8,2-4.9,4.9-4.9c2.8,0,4.9,2,4.9,4.9
		C298.8,785.1,296.8,787.1,293.9,787.4z"/>
	<path class="st1" d="M281.4,791.3c0,2.7-2.1,4.9-4.8,4.9c-2.8,0-4.9-2.1-4.9-4.9c0-2.7,2.1-4.8,4.9-4.8
		C279.1,786.5,281.4,788.6,281.4,791.3z"/>
	<path class="st1" d="M523.3,855.4c0,2.7-2.1,4.9-4.8,4.9c-2.8,0-4.9-2.1-4.9-4.9c0-2.7,2.1-4.8,4.9-4.8
		C521.2,850.6,523.3,852.7,523.3,855.4z"/>
	<path class="st1" d="M470.1,794.3c0,2.7-2.1,4.8-4.8,4.8c-2.8,0-4.9-2.1-4.9-4.9c0-2.7,2.3-4.8,4.9-4.8
		C468,789.5,470.1,791.7,470.1,794.3z"/>
	<path class="st1" d="M373,759.4c2.7,0,4.9,2.1,4.9,4.8c0,2.8-2.1,4.9-4.9,4.9c-2.7,0-4.8-2.3-4.8-4.9
		C368,761.5,370.3,759.4,373,759.4z"/>
	<path class="st1" d="M311.5,768.7c2.7,0,4.8,2.3,4.8,4.9s-2.3,4.8-4.9,4.8s-4.8-2.3-4.8-4.9S308.8,768.7,311.5,768.7z"/>
	<path class="st1" d="M527.5,877.8c-2.7,0-4.8-2.3-4.8-4.9s2.3-4.8,4.9-4.8s4.8,2.3,4.8,4.9C532.3,875.7,530.1,877.8,527.5,877.8z"
		/>
	<path class="st1" d="M514.4,838.1c0,2.7-2.3,4.9-4.8,4.9c-2.7,0-4.9-2.3-4.9-4.8c0-2.7,2.3-4.9,4.8-4.9
		C512.1,833.1,514.4,835.4,514.4,838.1z"/>
	<path class="st1" d="M540.9,926.1c-2.5,0-4.8-2.4-4.8-4.9s2.4-4.8,4.9-4.8s4.8,2.4,4.8,4.9C545.9,923.7,543.5,926.1,540.9,926.1z"
		/>
	<path class="st1" d="M536.4,895.4c-2.5,0-4.8-2.3-4.8-4.8s2.4-4.8,4.9-4.8s4.8,2.3,4.8,4.8C541.2,893.1,538.9,895.4,536.4,895.4z"
		/>
	<path class="st1" d="M333.9,764.6c0,2.5-2.3,4.8-4.8,4.8s-4.8-2.3-4.8-4.8s2.3-4.8,4.8-4.8C331.5,759.8,333.9,762.1,333.9,764.6z"
		/>
	<path class="st1" d="M541.9,978.4c0,2.5-2.3,4.8-4.8,4.8s-4.8-2.3-4.8-4.8s2.4-4.8,4.9-4.8C539.6,973.6,541.9,975.9,541.9,978.4z"
		/>
	<path class="st1" d="M505.5,820.5c0,2.5-2.3,4.9-4.8,4.8c-2.5,0-4.8-2.3-4.8-4.8s2.3-4.8,4.8-4.8
		C503.1,815.8,505.3,818.1,505.5,820.5z"/>
	<path class="st1" d="M359.6,755.3c2.5,0,4.8,2.4,4.8,4.9c-0.1,2.5-2.4,4.8-4.8,4.7c-2.5,0-4.8-2.4-4.8-4.9S357.2,755.3,359.6,755.3
		z"/>
	<path class="st1" d="M478.5,803.5c-2.5,0-4.8-2.3-4.8-4.8s2.3-4.8,4.8-4.8s4.8,2.4,4.8,4.9C483.3,801.3,481.1,803.5,478.5,803.5z"
		/>
	<path class="st1" d="M541.2,969.9c-2.4,0-4.8-2.3-4.8-4.8c0-2.4,2.4-4.9,4.8-4.8c2.4,0,4.8,2.4,4.8,4.8S543.7,969.8,541.2,969.9z"
		/>
	<path class="st1" d="M436.3,988c0,2.5-2.1,4.7-4.7,4.7s-4.7-2.1-4.7-4.7s2.1-4.7,4.7-4.7C434.3,983.2,436.3,985.4,436.3,988z"/>
	<path class="st1" d="M501.9,1001c-2.5,0-4.7-2.1-4.7-4.7c0-2.5,2.1-4.7,4.7-4.7s4.7,2.1,4.7,4.7C506.5,998.8,504.5,1001,501.9,1001
		z"/>
	<path class="st1" d="M416.8,768.7c-2.5,0-4.7-2-4.7-4.7c0-2.5,2.1-4.7,4.7-4.7s4.7,2.1,4.7,4.7
		C421.5,766.6,419.3,768.7,416.8,768.7z"/>
	<path class="st1" d="M418.3,988.3c-2.5,0-4.7-2.1-4.7-4.7c0-2.5,2.1-4.7,4.7-4.7c2.5,0,4.7,2.1,4.7,4.7
		C422.9,986.2,420.9,988.3,418.3,988.3z"/>
	<path class="st1" d="M430.1,763.7c2.7,0,4.7,2,4.7,4.7c0,2.5-2,4.7-4.7,4.7s-4.7-2-4.7-4.7C425.5,765.8,427.5,763.8,430.1,763.7z"
		/>
	<path class="st1" d="M550.3,952c0,2.5-2.1,4.7-4.7,4.7c-2.5,0-4.7-2.1-4.5-4.8c0-2.5,2.1-4.5,4.7-4.5
		C548.1,947.2,550.3,949.4,550.3,952z"/>
	<path class="st1" d="M285.5,778.2c0,2.5-2.1,4.7-4.8,4.7c-2.5,0-4.5-2.1-4.5-4.7s2.1-4.7,4.8-4.7
		C283.4,773.5,285.5,775.8,285.5,778.2z"/>
	<path class="st1" d="M549.7,908.2c0,2.5-2.3,4.7-4.8,4.7s-4.5-2.3-4.5-4.7c0-2.5,2.3-4.7,4.8-4.7S549.9,905.7,549.7,908.2z"/>
	<path class="st1" d="M447.9,772.5c0,2.5-2.1,4.7-4.7,4.7c-2.5,0-4.7-2.1-4.7-4.7s2.1-4.7,4.7-4.7
		C445.7,767.9,447.9,770.1,447.9,772.5z"/>
	<path class="st1" d="M408.4,759.7c0,2.5-2.1,4.7-4.7,4.7s-4.5-2.1-4.5-4.7s2.1-4.7,4.7-4.7C406.3,755,408.4,757.1,408.4,759.7z"/>
	<path class="st1" d="M298.3,773.9c-2.4,0-4.7-2.1-4.7-4.5s2.3-4.7,4.7-4.7c2.4,0,4.7,2.3,4.7,4.7
		C303,771.7,300.7,773.9,298.3,773.9z"/>
	<path class="st1" d="M531.7,864.5c-2.4,0-4.7-2.3-4.7-4.7s2.3-4.7,4.8-4.7c2.4,0,4.7,2.3,4.5,4.7
		C536.4,862.3,534.1,864.5,531.7,864.5z"/>
	<path class="st1" d="M491.6,807.5c-2.4,0-4.7-2.3-4.7-4.7s2.3-4.7,4.7-4.7c2.4,0,4.5,2.3,4.5,4.5
		C496.3,805.3,494.1,807.5,491.6,807.5z"/>
	<path class="st1" d="M456.5,772.3c2.4,0,4.7,2.3,4.5,4.7c0,2.4-2.3,4.7-4.7,4.5c-2.4,0-4.5-2.3-4.5-4.7S454.1,772.2,456.5,772.3z"
		/>
	<path class="st1" d="M527.5,842.5c0,2.4-2.3,4.7-4.7,4.7s-4.7-2.3-4.5-4.7c0-2.4,2.3-4.5,4.7-4.5
		C525.3,837.8,527.5,839.9,527.5,842.5z"/>
	<path class="st1" d="M444.8,987.5c2.4,0,4.7,2.3,4.5,4.8c-0.1,2.4-2.4,4.5-4.8,4.5c-2.4-0.1-4.5-2.3-4.5-4.7
		C440.1,989.6,442.4,987.4,444.8,987.5z"/>
	<path class="st1" d="M346.4,760.3c-2.3,0-4.5-2.3-4.5-4.7s2.3-4.5,4.7-4.5s4.5,2.4,4.5,4.7S348.8,760.3,346.4,760.3z"/>
	<path class="st1" d="M320.3,760.3c0,2.3-2.3,4.5-4.7,4.5c-2.4,0-4.5-2.3-4.5-4.7c0-2.3,2.3-4.5,4.7-4.5
		C318.2,755.8,320.3,758.1,320.3,760.3z"/>
	<path class="st1" d="M545.2,877.3c0,2.3-2.3,4.5-4.7,4.5c-2.3,0-4.5-2.3-4.5-4.7c0-2.3,2.3-4.5,4.7-4.5
		C542.9,872.7,545.2,875,545.2,877.3z"/>
	<path class="st1" d="M549.9,934c2.3,0,4.7,2.3,4.7,4.5c0,2.3-2.3,4.7-4.5,4.7s-4.7-2.3-4.7-4.5C545.3,936.3,547.6,934,549.9,934z"
		/>
	<path class="st1" d="M514,829.3c-2.3,0-4.7-2.3-4.7-4.5s2.3-4.7,4.5-4.7c2.3,0,4.5,2.3,4.5,4.5C518.5,826.9,516.3,829.3,514,829.3z
		"/>
	<path class="st1" d="M409.7,979.2c0,2.3-2.3,4.7-4.5,4.7c-2.3,0-4.7-2.3-4.7-4.5s2.3-4.5,4.5-4.5
		C407.3,974.6,409.7,976.8,409.7,979.2z"/>
	<path class="st1" d="M474.1,781.3c-0.3,2.4-1.7,4.4-4.5,4.5c-2.4,0.1-4.5-1.7-4.7-4.4c0-2.4,1.6-4.4,4.4-4.5
		C472,776.6,473.9,778.5,474.1,781.3z"/>
	<path class="st1" d="M509.3,807.1c0,2.3-2.1,4.4-4.4,4.5c-2.3,0-4.4-2.1-4.4-4.4s2.1-4.4,4.4-4.4
		C507.2,802.7,509.3,804.9,509.3,807.1z"/>
	<path class="st1" d="M554,894.7c0,2.3-2.1,4.4-4.5,4.4c-2.3,0-4.4-2.3-4.4-4.5s2.1-4.4,4.4-4.4C551.7,890.3,554,892.5,554,894.7z"
		/>
	<path class="st1" d="M558.5,925.5c0,2.3-2.3,4.4-4.5,4.4s-4.4-2.3-4.4-4.5s2.3-4.4,4.4-4.4C556.4,921.1,558.5,923.3,558.5,925.5z"
		/>
	<path class="st1" d="M487.3,785.4c0,2.3-2.1,4.4-4.4,4.4s-4.4-2.1-4.4-4.5c0.1-2.3,2.1-4.4,4.4-4.3
		C485.3,781.1,487.3,783.1,487.3,785.4z"/>
	<path class="st1" d="M361,949c0,2.3-2.1,4.4-4.4,4.3c-2.4,0-4.4-2.3-4.3-4.5c0.1-2.3,2.3-4.3,4.5-4.3C359,944.6,361,946.7,361,949z
		"/>
	<path class="st1" d="M272,809c-2.1,0-4.4-2.3-4.4-4.4c0-2.1,2.3-4.3,4.4-4.3s4.4,2.3,4.4,4.4C276.4,806.7,274.2,809,272,809z"/>
	<path class="st1" d="M540.3,846.6c0,2.1-2.3,4.4-4.4,4.4s-4.3-2.1-4.3-4.3c0-2.1,2.1-4.4,4.4-4.4
		C538.1,842.2,540.4,844.3,540.3,846.6z"/>
	<path class="st1" d="M289.4,764.9c0,2.1-2.3,4.4-4.4,4.4s-4.4-2.3-4.4-4.4c0-2.1,2.1-4.3,4.3-4.4
		C287.1,760.5,289.2,762.7,289.4,764.9z"/>
	<path class="st1" d="M307,755.9c0,2.3-2.3,4.4-4.4,4.4s-4.3-2.1-4.3-4.4c0-2.1,2.3-4.4,4.4-4.4C304.8,751.7,307,753.8,307,755.9z"
		/>
	<path class="st1" d="M549.2,863.9c0,2.1-2.1,4.3-4.3,4.4c-2.1,0.1-4.4-2.1-4.4-4.4c0-2.1,2.3-4.4,4.4-4.4
		C547.2,859.7,549.2,861.8,549.2,863.9z"/>
	<path class="st1" d="M554.5,982.7c0,2.1-2,4.4-4.3,4.4c-2.4,0-4.3-1.7-4.4-4.3c-0.1-2.1,2-4.4,4.3-4.4
		C552.5,978.4,554.3,980,554.5,982.7z"/>
	<path class="st1" d="M558.9,969.4c0,2.1-2.3,4.4-4.4,4.4c-2.1,0-4.3-2.1-4.3-4.4c0-2.1,2.3-4.4,4.4-4.4
		C556.8,965.1,558.9,967.2,558.9,969.4z"/>
	<path class="st1" d="M531.2,829.1c0,2.4-1.9,4.1-4.4,4.1c-2.3,0-4.1-1.9-4.1-4.3c0-2.4,1.9-4.1,4.4-4.1
		C529.5,824.9,531.2,826.7,531.2,829.1z"/>
	<path class="st1" d="M338.7,927.1c0,2.4-1.9,4.3-4.3,4.3c-2.3,0-4.1-1.9-4.1-4.3c0-2.4,1.9-4.3,4.3-4.3
		C336.8,922.9,338.7,924.7,338.7,927.1z"/>
	<path class="st1" d="M562.9,956.3c0,2.3-2,4.3-4.1,4.3c-2.3,0-4.3-2-4.3-4.3s2-4.1,4.3-4.1C560.9,952,562.9,954,562.9,956.3z"/>
	<path class="st1" d="M562.7,912.2c0,2.3-2,4.3-4.1,4.3c-2.3,0-4.3-2-4.3-4.3s2-4.3,4.3-4.3C560.7,908.1,562.7,909.9,562.7,912.2z"
		/>
	<path class="st1" d="M536.9,991.5c0,2.3-2,4.3-4.1,4.3c-2.3,0-4.3-2-4.3-4.3s2-4.1,4.3-4.1C534.9,987.2,536.9,989.2,536.9,991.5z"
		/>
	<path class="st1" d="M394.5,755.5c0,2.3-2,4.1-4.3,4.1s-4.3-2-4.3-4.3s2-4.1,4.3-4.1C392.7,751.3,394.5,753.3,394.5,755.5z"/>
	<path class="st1" d="M458.1,1000.7c-2.3,0-4.3-1.9-4.3-4.1s2-4.3,4.3-4.3s4.3,2,4.3,4.3C462.3,998.7,460.3,1000.7,458.1,1000.7z"/>
	<path class="st1" d="M553.9,885.9c-2.3,0-4.3-2-4.1-4.3c0-2.3,2-4.3,4.3-4.1c2.1,0,4.1,2,4.1,4.1
		C558.1,883.9,556,885.9,553.9,885.9z"/>
	<path class="st1" d="M496,793.9c-2.3,0-4.3-2-4.1-4.3c0-2.3,2.1-4.3,4.3-4.1c2.1,0,4.1,2,4.1,4.3
		C500.3,791.9,498.3,793.9,496,793.9z"/>
	<path class="st1" d="M518.3,815.8c-2.1,0-4.1-2-4.1-4.1c0-2.3,2-4.3,4.3-4.3s4.3,2.1,4.1,4.3C522.4,813.9,520.4,815.8,518.3,815.8z
		"/>
	<path class="st1" d="M464.8,763.5c0,2.1-2,4.3-4.1,4.3s-4.1-2-4.1-4.1s2-4.3,4.1-4.3C462.8,759.4,464.8,761.4,464.8,763.5z"/>
	<path class="st1" d="M567.2,943c0,2.1-2.1,4.1-4.3,4.1c-2,0-4.1-2.1-4.1-4.1c0-2.1,2.1-4.3,4.3-4.1
		C565.2,938.8,567.2,941,567.2,943z"/>
	<path class="st1" d="M294.6,874.5c-2.1,0-4.1-2.1-4.1-4.3c0-2,2.1-4.1,4.1-4.1c2.1,0,4.1,2.1,4.1,4.3
		C298.7,872.5,296.6,874.5,294.6,874.5z"/>
	<path class="st1" d="M271.6,773.9c0,2-2.1,4.1-4.1,4.1c-2.1,0-4.3-2.1-4.1-4.1c0-2.1,2.3-4.3,4.3-4.1
		C269.6,769.8,271.6,771.8,271.6,773.9z"/>
	<path class="st1" d="M285.6,857c-2,0-4.1-2-4.1-4.1c0-2,2-4.1,4.1-4.1c2,0,4.1,2,4.1,4.1C289.8,854.9,287.6,857,285.6,857z"/>
	<path class="st1" d="M478,767.9c0,2.1-1.9,4-4,4c-2.3,0-4-1.9-4-4.1c0-2.1,1.9-3.9,4-3.9C476.3,763.9,478,765.8,478,767.9z"/>
	<path class="st1" d="M566.8,899.1c0,2.1-1.9,4-4,4s-4-1.9-4-4s1.9-4,4-4S566.8,897,566.8,899.1z"/>
	<path class="st1" d="M447.5,755.4c2.1,0,4,1.9,4,4s-1.9,4-4,4s-4-1.9-4-4C443.6,757.3,445.3,755.4,447.5,755.4z"/>
	<path class="st1" d="M271.8,764.7c-2.1,0-4-1.9-4-4s1.9-4,4-4s4,1.9,4,4C275.9,762.9,273.9,764.7,271.8,764.7z"/>
	<path class="st1" d="M567.5,933.9c-2.1,0-4-1.9-4-4s1.9-4,4-4s4,1.9,4,4C571.5,932,569.6,933.9,567.5,933.9z"/>
	<path class="st1" d="M513.3,794.2c0,2.1-1.9,4-4,4s-4-1.9-4-4s1.9-4,4-4C511.5,790.2,513.3,792.1,513.3,794.2z"/>
	<path class="st1" d="M549.3,846.9c2,0,4,2,4,4s-2,4-4,4s-4-2-4-4S547.2,846.9,549.3,846.9z"/>
	<path class="st1" d="M544.3,833.4c0,2-2,4-4,4s-4-2-4-4s2-3.9,4-3.9C542.4,829.5,544.3,831.4,544.3,833.4z"/>
	<path class="st1" d="M333.2,747.4c2,0,4,2,4,4s-2,4-4,4s-4-2-4-4C329.2,749.3,331.2,747.4,333.2,747.4z"/>
	<path class="st1" d="M293.2,751.8c0,2-2,4-4,4s-3.9-2-3.9-4s2-4,4-4C291.4,747.9,293.2,749.8,293.2,751.8z"/>
	<path class="st1" d="M535.3,816.1c0,2-1.9,3.9-3.9,3.9s-4-2-4-4s2-4,4-3.9C533.5,812.1,535.3,814.1,535.3,816.1z"/>
	<path class="st1" d="M558.1,864.5c2,0,4,1.9,4,4c0,2-1.9,3.9-3.9,3.9s-4-1.9-4-4C554.3,866.3,556.1,864.5,558.1,864.5z"/>
	<path class="st1" d="M491.1,772.3c0,2-2,4-4,4s-3.9-1.9-3.9-3.9s2-4,4-4C489.1,768.5,490.9,770.3,491.1,772.3z"/>
	<path class="st1" d="M567.6,977.5c-2.1,0-3.7-1.7-3.7-3.9c0-2,1.7-3.7,3.9-3.7s3.7,1.7,3.7,3.9
		C571.3,975.9,569.7,977.5,567.6,977.5z"/>
	<path class="st1" d="M395.7,975.1c0,2.1-1.7,3.7-3.9,3.7c-2,0-3.7-1.7-3.7-3.9c0-2.1,1.7-3.7,3.9-3.7
		C394,971.4,395.7,973,395.7,975.1z"/>
	<path class="st1" d="M575.6,916.6c0,2-1.9,3.7-3.9,3.7s-3.7-1.9-3.7-3.9s1.9-3.7,3.7-3.7C573.7,912.9,575.6,914.6,575.6,916.6z"/>
	<path class="st1" d="M566.9,889.7c-2,0-3.9-1.7-3.7-3.9c0-2,1.9-3.7,3.9-3.7s3.7,1.7,3.7,3.7S568.9,889.7,566.9,889.7z"/>
	<path class="st1" d="M572,964.2c-1.9,0-3.7-1.7-3.9-3.7c0-2,1.9-3.9,3.7-3.9c1.9,0,3.7,1.9,3.7,3.7
		C575.7,962.3,574,964.2,572,964.2z"/>
	<path class="st1" d="M526.3,798.3c0,1.9-1.9,3.7-3.7,3.7c-2,0-3.9-1.9-3.7-3.9c0-1.9,1.9-3.7,3.9-3.7
		C524.4,794.5,526.3,796.3,526.3,798.3z"/>
	<path class="st1" d="M307.2,887.8c0,2-1.9,3.7-3.7,3.7c-2,0-3.7-1.9-3.7-3.7c0-2,1.9-3.7,3.7-3.7
		C305.5,884.1,307.2,885.8,307.2,887.8z"/>
	<path class="st1" d="M504.1,776.5c0,2-1.9,3.7-3.7,3.7c-2,0-3.7-1.9-3.7-3.7c0-2,1.9-3.7,3.7-3.7
		C502.4,772.7,504.1,774.5,504.1,776.5z"/>
	<path class="st1" d="M377.1,747.4c1.9,0,3.7,1.9,3.7,3.7c0,1.9-1.7,3.6-3.7,3.7c-1.9,0-3.7-1.9-3.7-3.7S375.1,747.4,377.1,747.4z"
		/>
	<path class="st1" d="M471.2,1004.6c-1.7,0-3.7-1.9-3.7-3.7c0-1.7,1.7-3.6,3.6-3.7c1.7-0.1,3.7,1.7,3.9,3.6
		C474.9,1002.6,472.9,1004.4,471.2,1004.6z"/>
	<path class="st1" d="M576.4,943.8c2,0,3.5,1.6,3.5,3.6s-1.6,3.6-3.7,3.6c-2,0-3.5-1.6-3.5-3.6C572.8,945.4,574.4,943.8,576.4,943.8
		z"/>
	<path class="st1" d="M553.5,834.1c2,0,3.5,1.6,3.5,3.6s-1.6,3.6-3.6,3.6s-3.5-1.6-3.5-3.6C549.9,835.5,551.5,834.1,553.5,834.1z"/>
	<path class="st1" d="M430.7,755c0-2,1.6-3.5,3.6-3.5s3.6,1.6,3.6,3.6s-1.6,3.5-3.6,3.5C432.1,758.6,430.7,757,430.7,755z"/>
	<path class="st1" d="M280.2,835.4c0,2-1.6,3.5-3.6,3.5s-3.5-1.6-3.5-3.6s1.6-3.5,3.6-3.5S280.3,833.5,280.2,835.4z"/>
	<path class="st1" d="M562.4,851.7c2,0,3.6,1.6,3.5,3.6c0,2-1.6,3.6-3.6,3.5c-2,0-3.6-1.6-3.5-3.6
		C558.8,853.3,560.4,851.7,562.4,851.7z"/>
	<path class="st1" d="M575.9,899.9c2,0,3.6,1.6,3.6,3.6s-1.6,3.6-3.5,3.6c-2,0-3.6-1.6-3.6-3.6C572.3,901.5,573.9,899.9,575.9,899.9
		z"/>
	<path class="st1" d="M548.3,820.1c0,1.9-1.7,3.6-3.6,3.6s-3.5-1.7-3.6-3.6c0-1.9,1.7-3.6,3.6-3.6
		C546.5,816.6,548.3,818.3,548.3,820.1z"/>
	<path class="st1" d="M518.8,1000.4c0,1.9-1.7,3.6-3.6,3.6c-1.9,0-3.5-1.7-3.5-3.6s1.7-3.6,3.6-3.6
		C517.1,996.8,518.8,998.6,518.8,1000.4z"/>
	<path class="st1" d="M513.5,777.3c1.7,0,3.5,1.7,3.6,3.5c0,1.9-1.9,3.6-3.6,3.6c-1.7,0-3.5-1.9-3.5-3.6S511.7,777.3,513.5,777.3z"
		/>
	<path class="st1" d="M571.3,869.3c1.7,0,3.6,1.7,3.6,3.6c0,1.7-1.7,3.5-3.5,3.5c-1.7,0-3.6-1.7-3.6-3.6
		C567.9,871,569.5,869.3,571.3,869.3z"/>
	<path class="st1" d="M584,934c0,1.7-1.7,3.6-3.5,3.6s-3.5-1.7-3.5-3.5c0-1.7,1.7-3.6,3.5-3.6C582.3,930.6,584,932.2,584,934z"/>
	<path class="st1" d="M535.7,799.1c1.7,0,3.5,1.9,3.5,3.5s-1.9,3.5-3.5,3.5c-1.7,0-3.5-1.9-3.5-3.5C532.3,801,534,799.1,535.7,799.1
		z"/>
	<path class="st1" d="M323.5,747.3c0,1.7-1.7,3.3-3.5,3.3s-3.2-1.7-3.2-3.5c0-1.7,1.7-3.3,3.5-3.3
		C321.9,743.9,323.5,745.5,323.5,747.3z"/>
	<path class="st1" d="M583.6,890.2c0,1.7-1.7,3.3-3.3,3.3c-1.7,0-3.3-1.6-3.3-3.3s1.6-3.3,3.3-3.3
		C582,886.9,583.6,888.5,583.6,890.2z"/>
	<path class="st1" d="M588.1,920.9c0,1.7-1.6,3.3-3.3,3.3s-3.3-1.6-3.3-3.3s1.5-3.2,3.2-3.3C586.5,917.7,588.1,919.1,588.1,920.9z"
		/>
	<path class="st1" d="M526.8,781.9c1.7,0,3.3,1.6,3.3,3.3s-1.6,3.3-3.3,3.3s-3.2-1.6-3.3-3.2C523.5,783.5,525.1,781.9,526.8,781.9z"
		/>
	<path class="st1" d="M276.3,744.2c1.6,0,3.3,1.7,3.2,3.3c-0.1,1.6-1.9,3.3-3.3,3.2c-1.6-0.1-3.2-1.7-3.2-3.3
		S274.7,744.1,276.3,744.2z"/>
	<path class="st1" d="M566.8,838.7c1.6,0,3.3,1.7,3.2,3.3s-1.9,3.3-3.3,3.2c-1.6-0.1-3.2-1.7-3.2-3.3
		C563.5,840.3,565.2,838.6,566.8,838.7z"/>
	<path class="st1" d="M557.7,821.3c1.6,0,3.3,1.7,3.2,3.3c0,1.6-1.7,3.3-3.3,3.2c-1.6,0-3.2-1.7-3.2-3.2
		C554.5,822.9,556.1,821.3,557.7,821.3z"/>
	<path class="st1" d="M588.5,964.8c0,1.6-1.7,3.3-3.3,3.3s-3.2-1.6-3.2-3.2s1.6-3.3,3.2-3.3C586.8,961.5,588.5,963.2,588.5,964.8z"
		/>
	<path class="st1" d="M508,763.4c0,1.6-1.7,3.3-3.3,3.2c-1.6-0.1-3.3-1.9-3.2-3.3c0.1-1.6,1.7-3.2,3.3-3.2
		C506.4,760.1,508,761.8,508,763.4z"/>
	<path class="st1" d="M263.1,784.1c1.7,0,3.2,1.3,3.2,3.2c0,1.7-1.3,3.1-3.2,3.1c-1.7,0-3.1-1.3-3.1-3.1
		C260,785.4,261.4,784.1,263.1,784.1z"/>
	<path class="st1" d="M548.8,810.2c-1.6,0-3.1-1.5-3.1-3.2s1.5-3.2,3.2-3.1c1.6,0,3.1,1.6,3.1,3.2S550.4,810.2,548.8,810.2z"/>
	<path class="st1" d="M575.6,862.6c-1.6,0-3.1-1.5-3.1-3.2s1.6-3.1,3.2-3.1c1.6,0,3.1,1.6,2.9,3.2
		C578.8,861.1,577.3,862.6,575.6,862.6z"/>
	<path class="st1" d="M488.3,759c0-1.6,1.5-3.1,3.2-3.1s3.2,1.6,3.1,3.2c0,1.6-1.6,3.1-3.2,3.1C489.7,762.1,488.3,760.6,488.3,759z"
		/>
	<path class="st1" d="M418,750.6c0-1.6,1.6-3.1,3.2-3.1c1.7,0,3.2,1.6,3.1,3.3c-0.1,1.6-1.6,3.1-3.2,2.9
		C419.3,753.8,418,752.2,418,750.6z"/>
	<path class="st1" d="M592.5,951.5c0,1.6-1.5,3.2-3.1,3.2c-1.7,0-3.2-1.5-3.2-3.2c0-1.6,1.5-3.1,3.1-3.1
		C591.1,948.4,592.5,949.8,592.5,951.5z"/>
	<path class="st1" d="M261.6,756.5c0,1.6-1.5,3.1-3.2,3.1c-1.6,0-3.1-1.6-3.1-3.2s1.5-3.1,3.1-3.1
		C260.2,753.3,261.6,754.7,261.6,756.5z"/>
	<path class="st1" d="M589.2,904.6c1.6,0,3.1,1.5,3.1,3.2c0,1.6-1.6,3.1-3.2,3.1c-1.6,0-3.1-1.5-3.1-3.1
		C586.1,906.1,587.6,904.6,589.2,904.6z"/>
	<path class="st1" d="M514.8,767.7c0.1-1.5,1.7-3.1,3.2-2.9c1.5,0.1,3.1,1.7,2.9,3.2c-0.1,1.5-1.7,2.9-3.1,2.9
		C516.3,770.7,514.7,769.1,514.8,767.7z"/>
	<path class="st1" d="M584.7,880.2c-1.5,0-3.1-1.6-3.1-3.1s1.6-3.1,3.1-3.1s3.1,1.6,3.1,3.1C587.7,878.5,586.1,880.1,584.7,880.2z"
		/>
	<path class="st1" d="M367.1,746.7c0,1.5-1.6,3.1-3.1,3.1s-2.9-1.6-3.1-3.1c0-1.5,1.6-3.1,3.1-3.1
		C365.5,743.7,367.1,745.3,367.1,746.7z"/>
	<path class="st1" d="M563.5,989.9c-1.5,0-3.1-1.6-3.1-3.1s1.6-2.9,3.1-3.1c1.5,0,3.1,1.6,3.1,3.1S564.9,989.9,563.5,989.9z"/>
	<path class="st1" d="M540,792.6c-1.5,0-3.1-1.5-3.1-2.9c-0.1-1.5,1.5-3.1,2.9-3.2c1.5,0,2.9,1.5,3.1,2.9
		C543.1,791,541.5,792.6,540,792.6z"/>
	<path class="st1" d="M593.9,935.5c1.6,0,2.8,1.3,2.8,2.9c0,1.6-1.3,2.9-2.9,2.9s-2.9-1.3-2.8-3.1
		C590.9,936.7,592.3,935.5,593.9,935.5z"/>
	<path class="st1" d="M478.1,751.9c1.5,0,2.9,1.6,2.8,3.1s-1.6,2.8-2.9,2.8c-1.5,0-2.9-1.6-2.8-3.1
		C475.3,753.4,476.8,751.9,478.1,751.9z"/>
	<path class="st1" d="M583.9,978c0,1.5-1.5,2.9-2.9,2.9c-1.3,0-2.8-1.5-2.9-2.8c0-1.5,1.5-2.9,2.9-2.9
		C582.3,975.2,583.9,976.7,583.9,978z"/>
	<path class="st1" d="M574,828.9c0,1.5-1.5,2.9-2.9,2.8c-1.5,0-2.8-1.5-2.8-2.9c0-1.5,1.5-2.8,2.9-2.8
		C572.5,825.9,574,827.4,574,828.9z"/>
	<path class="st1" d="M315.4,905.3c0,1.5-1.5,2.9-2.8,2.9c-1.5,0-2.9-1.5-2.9-2.8c0-1.5,1.3-2.9,2.8-2.9
		C313.9,902.3,315.4,903.8,315.4,905.3z"/>
	<path class="st1" d="M593.5,891.7c1.5,0,2.8,1.5,2.8,2.9c0,1.5-1.5,2.8-2.9,2.8c-1.5,0-2.8-1.5-2.8-2.9
		C590.5,893.1,592,891.7,593.5,891.7z"/>
	<path class="st1" d="M484.5,1007.8c-1.5,0-2.9-1.3-2.9-2.8s1.5-2.9,2.8-2.8c1.5,0,2.8,1.3,2.8,2.8
		C487.3,1006.3,486,1007.8,484.5,1007.8z"/>
	<path class="st1" d="M565.1,811.1c0,1.5-1.5,2.8-2.8,2.8c-1.5,0-2.8-1.5-2.8-2.9c0-1.5,1.5-2.8,2.8-2.8
		C563.6,808.3,564.9,809.7,565.1,811.1z"/>
	<path class="st1" d="M579.9,849.1c-1.5,0-2.9-1.3-2.9-2.8s1.5-2.9,2.8-2.8c1.5,0,2.8,1.3,2.8,2.8
		C582.8,847.7,581.3,849.1,579.9,849.1z"/>
	<path class="st1" d="M267.9,814.9c1.5,0,2.8,1.5,2.8,2.9c0,1.5-1.5,2.8-2.8,2.8c-1.5,0-2.9-1.5-2.9-2.8
		C265.1,816.3,266.6,814.9,267.9,814.9z"/>
	<path class="st1" d="M545.9,998.7c-1.3,0-2.8-1.5-2.9-2.8c0-1.2,1.3-2.8,2.7-2.9c1.3-0.1,2.9,1.5,2.9,2.8
		C548.7,997.1,547.2,998.6,545.9,998.7z"/>
	<path class="st1" d="M534,771.8c0,1.3-1.5,2.8-2.8,2.8s-2.8-1.5-2.8-2.8s1.5-2.9,2.8-2.9C532.5,769.1,534,770.6,534,771.8z"/>
	<path class="st1" d="M601.1,925.1c0,1.3-1.5,2.8-2.8,2.8s-2.9-1.6-2.8-2.9c0-1.3,1.6-2.8,2.8-2.8
		C599.5,922.3,601.1,923.8,601.1,925.1z"/>
	<path class="st1" d="M378.8,973.4c-1.5,0-2.7-1.2-2.7-2.7s1.2-2.7,2.7-2.7s2.7,1.2,2.7,2.7C381.5,972.2,380.3,973.4,378.8,973.4z"
		/>
	<path class="st1" d="M588.8,866.5c-1.5,0-2.7-1.2-2.7-2.7s1.2-2.7,2.7-2.7s2.7,1.2,2.7,2.7S590.3,866.5,588.8,866.5z"/>
	<path class="st1" d="M555.9,793.7c0,1.3-1.5,2.7-2.8,2.7s-2.7-1.3-2.7-2.7s1.5-2.7,2.8-2.7C554.7,791.1,555.9,792.5,555.9,793.7z"
		/>
	<path class="st1" d="M309.5,742.9c0,1.3-1.3,2.8-2.7,2.7c-1.3,0-2.7-1.3-2.7-2.7s1.3-2.8,2.7-2.7
		C308.2,740.2,309.5,741.5,309.5,742.9z"/>
	<path class="st1" d="M605.3,955.9c0,1.2-1.5,2.7-2.7,2.5c-1.2,0-2.7-1.5-2.5-2.7c0-1.2,1.5-2.5,2.5-2.5
		C604,953.2,605.3,954.7,605.3,955.9z"/>
	<path class="st1" d="M602.3,909.4c1.2,0,2.7,1.5,2.7,2.7s-1.3,2.5-2.5,2.7c-1.2,0-2.7-1.3-2.7-2.5
		C599.7,910.9,601.1,909.4,602.3,909.4z"/>
	<path class="st1" d="M600.4,881.3c0,1.2-1.3,2.7-2.5,2.7s-2.5-1.3-2.7-2.5s1.3-2.7,2.5-2.7C598.8,878.6,600.3,879.9,600.4,881.3z"
		/>
	<path class="st1" d="M410.3,746.5c0,1.5-1.1,2.5-2.4,2.5c-1.5,0-2.5-1.1-2.5-2.5c0-1.5,1.1-2.4,2.4-2.4
		C409.2,744.1,410.3,745.1,410.3,746.5z"/>
	<path class="st1" d="M546.7,776.3c0,1.3-1.1,2.4-2.5,2.4s-2.5-1.1-2.4-2.5c0-1.3,1.2-2.4,2.5-2.4
		C545.7,773.8,546.8,774.9,546.7,776.3z"/>
	<path class="st1" d="M600.8,969.1c0,1.2-1.3,2.4-2.4,2.4c-1.2,0-2.4-1.3-2.4-2.5c0-1.1,1.3-2.4,2.4-2.4
		C599.5,966.7,600.8,968,600.8,969.1z"/>
	<path class="st1" d="M577.7,815.5c0,1.2-1.2,2.5-2.4,2.5s-2.4-1.3-2.4-2.4c0-1.1,1.2-2.4,2.4-2.4
		C576.3,813,577.6,814.3,577.7,815.5z"/>
	<path class="st1" d="M462.5,750.5c0-1.2,1.5-2.4,2.5-2.4c1.2,0.1,2.4,1.5,2.3,2.5c-0.1,1.2-1.3,2.4-2.5,2.3
		C463.7,752.9,462.5,751.5,462.5,750.5z"/>
	<path class="st1" d="M586.7,833c0,1.2-1.3,2.4-2.5,2.4s-2.4-1.5-2.4-2.5c0.1-1.2,1.3-2.4,2.4-2.4
		C585.3,830.6,586.7,831.9,586.7,833z"/>
	<path class="st1" d="M609.3,942.7c0,1.1-1.2,2.4-2.4,2.4s-2.5-1.3-2.4-2.4c0-1.2,1.3-2.4,2.4-2.4
		C608,940.4,609.3,941.6,609.3,942.7z"/>
	<path class="st1" d="M593.2,852.7c-1.3,0-2.3-0.9-2.3-2.3s0.9-2.3,2.3-2.3s2.3,0.9,2.3,2.3C595.3,851.8,594.5,852.7,593.2,852.7z"
		/>
	<path class="st1" d="M568.5,798.1c0,1.3-0.9,2.3-2.4,2.3c-1.3,0-2.1-0.9-2.1-2.3s0.9-2.3,2.4-2.3
		C567.7,795.8,568.5,796.7,568.5,798.1z"/>
	<path class="st1" d="M350.7,740.2c1.2,0,2.3,1.2,2.3,2.4c0,1.1-1.2,2.1-2.3,2.1s-2.3-1.2-2.3-2.4
		C348.4,741.3,349.6,740.1,350.7,740.2z"/>
	<path class="st1" d="M265.2,743c0,1.1-1.2,2.3-2.3,2.3s-2.3-1.2-2.3-2.3c0-1.2,1.2-2.3,2.3-2.3C264,740.9,265.1,741.9,265.2,743z"
		/>
	<path class="st1" d="M256.7,769.5c0,1.1-1.2,2.3-2.3,2.3s-2.3-1.2-2.3-2.3s1.2-2.3,2.3-2.1C255.5,767.3,256.7,768.3,256.7,769.5z"
		/>
	<path class="st1" d="M608.9,898.7c0,1.1-1.2,2.3-2.3,2.3s-2.3-1.1-2.3-2.3c0-1.1,1.2-2.3,2.3-2.3S608.9,897.5,608.9,898.7z"/>
	<path class="st1" d="M604.3,868.2c0,1.1-1.2,2.1-2.1,2.1c-1.1,0-2.3-1.2-2.3-2.3s1.2-2.3,2.3-2.1
		C603.2,866.1,604.3,867.1,604.3,868.2z"/>
	<path class="st1" d="M345.6,944.6c0,1.1-1.2,2.3-2.3,2.1c-1.1,0-2.1-1.2-2.1-2.3s1.2-2.3,2.3-2.1
		C344.6,942.3,345.6,943.5,345.6,944.6z"/>
	<path class="st1" d="M611.3,931.6c-1.1,0-2.3-1.2-2.3-2.3s1.1-2.1,2.1-2.1c1.1,0,2.3,1.2,2.3,2.3S612.4,931.6,611.3,931.6z"/>
	<path class="st1" d="M557.6,778.5c1.1,0,2.1,1.2,2.1,2.1c0,1.1-1.2,2.3-2.3,2.3s-2.3-1.2-2.1-2.3S556.5,778.3,557.6,778.5z"/>
	<path class="st1" d="M535.2,760.9c-1.1,0-2-1.1-2-2.1c0-1.1,1.1-2,2.1-2c1.1,0,2,1.1,2,2.1C537.3,759.9,536.3,760.9,535.2,760.9z"
		/>
	<path class="st1" d="M522.1,752.3c1.1,0,2,0.9,2,2s-0.9,2-2,2.1c-1.1,0-2.1-0.9-2.1-2C520.1,753.4,521.2,752.3,522.1,752.3z"/>
	<path class="st1" d="M617.6,916.5c0,0.9-1.2,2-2,2c-0.9,0-2-1.1-2-2s1.1-2,2-2S617.6,915.5,617.6,916.5z"/>
	<path class="st1" d="M611,887.5c-0.9,0-2-1.2-2-2c0-0.9,1.2-2,2-1.9c0.9,0,2,1.2,1.9,2C613,886.6,611.8,887.7,611,887.5z"/>
	<path class="st1" d="M590.5,819.9c0,0.9-1.1,2-2,2s-2-1.1-2-2s1.1-2,2-2C589.5,817.9,590.5,819,590.5,819.9z"/>
	<path class="st1" d="M548.7,761c0.9,0,2,1.2,1.9,2c0,0.9-1.2,2-2,1.9c-0.9,0-1.9-1.1-1.9-2C546.7,762.1,547.7,761,548.7,761z"/>
	<path class="st1" d="M295.6,738.5c0,0.9-1.1,2-2,2c-0.8,0-1.9-0.9-2-1.9c0-0.9,0.9-2,1.9-2C294.6,736.5,295.6,737.5,295.6,738.5z"
		/>
	<path class="st1" d="M599.5,837.4c0,0.9-1.1,2-2,2s-2-1.1-1.9-2c0-0.8,1.1-1.9,1.9-1.9C598.4,835.4,599.5,836.5,599.5,837.4z"/>
	<path class="st1" d="M579.6,804.3c-0.9,0-2-1.1-2-2s1.1-2,2-1.9c0.9,0,1.9,1.1,1.9,1.9C581.6,803.3,580.5,804.3,579.6,804.3z"/>
	<path class="st1" d="M606.2,853c0.8,0,1.9,1.1,1.9,1.9s-0.9,1.7-1.7,1.7s-1.9-1.1-1.9-1.9C604.4,854.1,605.5,853,606.2,853z"/>
	<path class="st1" d="M453.5,746.1c0,0.8-1.1,1.9-1.9,1.7c-0.8,0-1.7-1.1-1.7-1.7c0-0.8,1.1-1.9,1.9-1.9
		C452.5,744.3,453.5,745.4,453.5,746.1z"/>
	<path class="st1" d="M572.5,784.7c0,0.8-1.1,1.7-1.7,1.7c-0.8,0-1.9-1.1-1.9-1.9c0-0.8,1.1-1.9,1.9-1.7
		C571.6,783,572.5,784.1,572.5,784.7z"/>
	<path class="st1" d="M530.1,1004.7c0,0.8-0.9,1.9-1.9,1.9c-0.8,0-1.7-0.9-1.7-1.7c0-0.8,0.9-1.9,1.9-1.9
		C529.1,1003,530.1,1003.9,530.1,1004.7z"/>
	<path class="st1" d="M620.1,948.7c-0.8,0-1.7-0.9-1.7-1.7s0.9-1.7,1.7-1.7s1.7,0.9,1.7,1.7C622,947.8,621,948.7,620.1,948.7z"/>
	<path class="st1" d="M617.6,960.3c0,0.8-0.9,1.7-1.7,1.7s-1.7-0.9-1.7-1.7s0.9-1.7,1.7-1.7C616.8,958.6,617.6,959.4,617.6,960.3z"
		/>
	<path class="st1" d="M508.9,748.3c0.8,0,1.7,0.9,1.7,1.7s-0.9,1.7-1.7,1.7c-0.8,0-1.7-0.9-1.7-1.7
		C507.2,749.1,508,748.3,508.9,748.3z"/>
	<path class="st1" d="M621.3,903.1c0,0.8-0.8,1.6-1.6,1.6s-1.6-0.8-1.6-1.6c0-0.9,0.8-1.6,1.6-1.6
		C620.6,901.5,621.4,902.3,621.3,903.1z"/>
	<path class="st1" d="M394.7,743.8c-0.8,0-1.6-0.9-1.6-1.6c0-0.8,0.8-1.5,1.6-1.5c0.8,0,1.6,0.8,1.6,1.6
		C396.3,743,395.5,743.8,394.7,743.8z"/>
	<path class="st1" d="M616.8,872.3c0,0.8-0.9,1.6-1.6,1.6c-0.8,0-1.5-0.8-1.6-1.6c0-0.8,0.8-1.6,1.6-1.6S616.8,871.5,616.8,872.3z"
		/>
	<path class="st1" d="M561.7,768.9c-0.7,0-1.5-0.9-1.5-1.6s0.9-1.6,1.6-1.5c0.8,0.1,1.3,0.7,1.5,1.6
		C563.3,767.9,562.3,768.9,561.7,768.9z"/>
	<path class="st1" d="M626.1,933.9c0,0.7-0.9,1.5-1.6,1.5s-1.6-0.9-1.5-1.6c0.1-0.8,0.7-1.3,1.6-1.5
		C625.3,932.3,626.1,933.2,626.1,933.9z"/>
	<path class="st1" d="M321.4,921.5c0.8,0,1.5,0.5,1.5,1.3s-0.5,1.3-1.3,1.3s-1.5-0.5-1.5-1.3C320,922.2,320.6,921.5,321.4,921.5z"/>
	<path class="st1" d="M595.5,982.3c0,0.8-0.7,1.5-1.5,1.3c-0.8-0.1-1.2-0.5-1.3-1.3c0-0.7,0.7-1.3,1.3-1.3S595.5,981.6,595.5,982.3z
		"/>
	<path class="st1" d="M339,738.3c0,0.7-0.7,1.5-1.5,1.3c-0.8-0.1-1.2-0.5-1.3-1.3c-0.1-0.7,0.7-1.5,1.3-1.5
		C338.3,736.9,339,737.5,339,738.3z"/>
	<path class="st1" d="M576.5,992.6c-0.7,0-1.3-0.7-1.3-1.3s0.7-1.5,1.5-1.3s1.2,0.5,1.3,1.3C578,991.9,577.3,992.6,576.5,992.6z"/>
	<path class="st1" d="M260.3,800.3c0,0.8-0.7,1.5-1.5,1.3c-0.8-0.1-1.2-0.5-1.3-1.3c0-0.7,0.7-1.5,1.3-1.5
		C259.8,798.9,260.4,799.5,260.3,800.3z"/>
	<path class="st1" d="M592.7,807.9c-0.8,0-1.5-0.7-1.3-1.5c0.1-0.8,0.5-1.2,1.3-1.3c0.7,0,1.5,0.7,1.5,1.3
		C594.1,807.3,593.5,807.9,592.7,807.9z"/>
	<path class="st1" d="M603.1,824.1c0,0.7-0.7,1.3-1.3,1.3s-1.5-0.7-1.3-1.5c0-0.8,0.5-1.2,1.3-1.3
		C602.4,822.6,603.1,823.3,603.1,824.1z"/>
	<path class="st1" d="M583.9,787.4c0.7,0.8,1.3,1.3,1.3,1.7c0,0.5-0.7,1.2-1.2,1.3c-0.4,0.1-1.2-0.7-1.2-1.2
		C582.8,788.7,583.3,788.2,583.9,787.4z"/>
	<path class="st1" d="M612.4,841.8c-0.8,0.5-1.3,1.2-1.9,1.2c-0.4,0-1.2-0.8-1.2-1.2c0.1-0.5,0.8-1.2,1.3-1.2
		C611,840.5,611.6,841.1,612.4,841.8z"/>
	<path class="st1" d="M624.1,891.8c-0.5-0.8-1.2-1.3-1.2-1.7s0.8-0.9,1.2-1.3c0.4,0.4,1.2,0.8,1.3,1.3
		C625.4,890.5,624.8,891,624.1,891.8z"/>
	<path class="st1" d="M499.1,1009.6c-0.4,0.3-0.8,0.8-1.3,0.8c-0.7,0.1-1.1-0.4-1.1-1.1s0.4-1.2,1.2-1.1c0.5,0.1,0.9,0.5,1.3,0.9
		C499.1,1009.2,499.1,1009.5,499.1,1009.6z"/>
	<path class="st1" d="M365.8,965c0.3,0.4,0.8,0.8,0.9,1.3c0.1,0.7-0.4,1.2-1.1,1.2s-1.2-0.4-1.1-1.2c0.1-0.5,0.5-0.9,0.8-1.3
		C365.4,965,365.6,965,365.8,965z"/>
	<path class="st1" d="M628.9,919.1c0.3,0.4,0.8,0.8,0.9,1.3c0.1,0.7-0.4,1.2-1.1,1.2s-1.2-0.4-1.2-1.1c0-0.5,0.5-0.9,0.8-1.3
		C628.5,919.3,628.8,919.3,628.9,919.1z"/>
	<path class="st1" d="M496,744.6c0.3,0.4,0.8,0.8,0.9,1.3c0.1,0.7-0.4,1.2-1.1,1.2s-1.2-0.4-1.2-1.1c0.1-0.5,0.5-0.9,0.8-1.3
		C495.7,744.6,495.9,744.6,496,744.6z"/>
	<path class="st1" d="M621,859.1c-0.7,0.5-1.1,1.1-1.5,1.1s-1.1-0.7-1.1-0.9c0-0.4,0.7-1.1,1.1-1.1
		C619.8,858.1,620.4,858.7,621,859.1z"/>
	<path class="st1" d="M574.9,770.2c0.5,0.7,1.1,1.1,1.1,1.5s-0.7,1.1-0.9,1.1c-0.4,0-1.1-0.5-1.2-0.9
		C574,771.4,574.5,770.9,574.9,770.2z"/>
	<path class="st1" d="M611.7,974.7c-0.5-0.7-0.9-1.1-0.9-1.3c0-0.4,0.5-0.8,0.9-0.9c0.3,0,0.8,0.5,0.8,0.8
		C612.6,973.6,612.1,974,611.7,974.7z"/>
	<path class="st1" d="M281.6,734.3c-0.5,0.4-0.9,0.8-1.2,0.8c-0.3,0-0.5-0.5-0.9-0.9c0.3-0.3,0.7-0.8,0.9-0.8
		C280.7,733.5,281.1,733.9,281.6,734.3z"/>
	<path class="st1" d="M633,906.2c0.4,0.5,0.9,0.8,0.9,1.2c0,0.3-0.5,0.8-0.8,0.9c-0.3,0-0.8-0.5-0.9-0.8
		C632.2,907.1,632.6,906.7,633,906.2z"/>
	<path class="st1" d="M554,749.9c-0.5,0.4-0.9,0.8-1.2,0.8s-0.5-0.5-0.8-0.9c0.3-0.3,0.7-0.8,0.9-0.8
		C553.2,749,553.5,749.4,554,749.9z"/>
	<path class="st1" d="M250.7,738.9c-0.5,0.4-0.8,0.8-1.1,0.8s-0.7-0.4-0.7-0.7c0-0.1,0.4-0.7,0.7-0.7
		C249.8,738.2,250.2,738.5,250.7,738.9z"/>
	<path class="st1" d="M634.4,951.4c-0.7,0.4-0.9,0.7-1.2,0.7s-0.5-0.4-0.7-0.8c0-0.1,0.4-0.5,0.7-0.5
		C633.6,950.6,633.8,951,634.4,951.4z"/>
	<path class="st1" d="M629.6,876.7c-0.7,0.4-0.9,0.7-1.2,0.7s-0.5-0.4-0.7-0.8c0-0.1,0.4-0.5,0.7-0.5
		C628.8,875.9,629,876.3,629.6,876.7z"/>
	<path class="st1" d="M606.1,812.1c-0.4-0.5-0.8-0.8-0.8-1.1s0.4-0.7,0.7-0.7c0.1,0,0.7,0.4,0.7,0.7
		C606.8,811.1,606.4,811.5,606.1,812.1z"/>
	<path class="st1" d="M246.6,752.1c-0.7,0.3-0.9,0.7-1.2,0.7s-0.5-0.5-0.7-0.8c0-0.1,0.4-0.5,0.7-0.5
		C245.8,751.4,246,751.7,246.6,752.1z"/>
</g>
</svg>
