<?xml version="1.0" encoding="utf-8"?>
<!-- Generator: Adobe Illustrator 24.2.3, SVG Export Plug-In . SVG Version: 6.00 Build 0)  -->
<svg version="1.1" id="Nube_x5F_maceta" xmlns="http://www.w3.org/2000/svg" xmlns:xlink="http://www.w3.org/1999/xlink" x="0px"
	 y="0px" viewBox="0 0 1080 1080" style="enable-background:new 0 0 1080 1080;" xml:space="preserve">
<style type="text/css">
	.st0{fill:#FFFFFF;}
</style>
<path class="st0" d="M611.3,351.3c3.9-12.4,6.8-26.3,3.9-39.2c-1.1-4.5-3.9-13.9-8.4-16c-3.2-1.5-9.5-0.1-12.9,0
	c-4,0.1-7.9,0.3-11.9,0.1c-59.7-2.8-119.6-0.4-179.3,2.8c-59.5,3.3-118.9,7.2-178.5,7.5c-26.3,0.1-31.7,5.7-25.3,32
	c5.3,22.1,15.2,43.9,22.5,65.5c25.2,73.9,95.2,95.3,168.4,99.7c32.7,2,82-4.4,111.6-19.6c18-9.2,32.1-26.8,46.9-40.3
	C576.7,417.9,599.7,388.4,611.3,351.3z"/>
</svg>
