<?xml version="1.0" encoding="utf-8"?>
<!-- Generator: Adobe Illustrator 24.2.3, SVG Export Plug-In . SVG Version: 6.00 Build 0)  -->
<svg version="1.1" id="Maceta_x5F_trazo" xmlns="http://www.w3.org/2000/svg" xmlns:xlink="http://www.w3.org/1999/xlink" x="0px"
	 y="0px" viewBox="0 0 1080 1080" style="enable-background:new 0 0 1080 1080;" xml:space="preserve">
<style type="text/css">
	.st0{fill:none;stroke:#FFFFFF;stroke-width:2.9044;stroke-miterlimit:10;}
</style>
<path class="st0" d="M340.2,926.2c12.7,16.3,34.7,29.5,52.7,38.8c47.2,24.4,104.1,41.9,156.5,49.6c48.3,7.1,98.7,3.2,145.6-10.4
	c48-14,68.5-50.5,92.4-91.2c35.9-61.1,62-131.4,67.9-202.2c1.9-22.3,4.8-28.7-16.7-31.3c-54.1-6.7-108.6-9.2-163.2-10.7
	c-108.2-2.8-216-14.3-324.4-14.9c-15.6-0.1-31.2-3.2-46.8-3.7c-13.7-0.5-36.8-1.6-46.8,10.5c-2.1,2.5-2.8,5.6-2.8,8.9
	c-0.1,11.2,2.1,23.1,3.6,34.1c1.6,12.4,3.5,24.7,5.7,36.9c4.7,25.1,10.8,49.9,18.8,74.1C296,854.6,314.4,893,340.2,926.2z"/>
</svg>
