<?xml version="1.0" encoding="utf-8"?>
<!-- Generator: Adobe Illustrator 24.2.3, SVG Export Plug-In . SVG Version: 6.00 Build 0)  -->
<svg version="1.1" id="centro_x5F_piezas" xmlns="http://www.w3.org/2000/svg" xmlns:xlink="http://www.w3.org/1999/xlink" x="0px"
	 y="0px" viewBox="0 0 1080 1080" style="enable-background:new 0 0 1080 1080;" xml:space="preserve">
<style type="text/css">
	.st0{fill:#BCA6F4;}
	.st1{fill:#FF8500;}
	.st2{fill:#382716;}
</style>
<g>
	<path class="st0" d="M387.6,587.2c-6,9.7-5.3,30.8-7.2,42.4c-2.3,14.4-3.7,28.7-6.3,42.9c-3.2,18-3.9,35.9-5.5,53.9
		c-4.1,48.9-8.7,98.4-13.2,147.3c-1.7,17.9-2.4,35.9-4.1,53.6c13.1,0.4,26.8-2.7,39.9-2.5c16.8,0.3,32.7,3.1,49.3,4.4
		c24,2,48.7-0.7,72.1-4.3c-5.1-33.2-7.3-69.3-9.2-103.3c-0.9-18-2.3-36.7-5.5-54.4c-0.7-3.7-0.8-15.1-2.4-18.1
		c-2.7-4.9-12.5-4.1-18.1-5.7c-8.9-2.7-17.1-4.3-26-6.5c-8.1-2-8.8-1.7-7.7-11.5c2.5-22.7,0.7-43.5-1.6-66.3
		c-1.5-15.1-2.4-30-3.7-45.1c-1.3-14.8-7.9-16.8-18.8-25.5c-6.9-5.5-17.3-19.9-26.1-20.7c-11.9-1.1-7.9,12.3-6.4,19.6
		C388.4,587.1,389.7,586.5,387.6,587.2"/>
	<path class="st1" d="M554,814.3c8.7,29.5,13.2,59.9,19.5,89.6c0.9,4.4,1.1,13.2,5.7,14.9c3.7,1.3,16-3.7,21.2-3.5
		c6-40.1,10.4-83.7,20.8-122.7c-7.9-4.7-23.6-1.3-29.3-8.4c-5.1-6.4-4.4-26-5.9-34.3c-1.1-5.9-1.2-20.5-4.7-25.2
		c-3.7-4.8-20.8-9.2-26.7-10.4c-4.3-0.8-8.8-0.1-13.2,0c-2.1,0.1-4.4,0.1-6.5-0.1c-1.1-0.1-2-0.4-2.9-0.7c-0.5-0.1-1.2-0.8-1.7-0.4
		c-1.1,0.7-0.5,4.1-0.5,5.2c0,2.5,0.1,5.1,0.4,7.6c0.4,4.9,0.9,9.9,1.9,14.7c1.7,9.5,4.3,18.8,7.1,28c2.9,9.3,6.3,18.5,9.3,27.9
		C550.4,802.4,552.3,808.3,554,814.3z"/>
	<path class="st2" d="M711.3,668.5c-1.5,14.1-9.2,27.7-12.3,41.6c-2.5,11.1-4.9,22.1-8.3,32.9c-4.7,15.1-7.7,30.4-10.8,45.6
		c-1.6,8.5-3.2,32.4-10.1,36.5c-5.1,3.1-15.9-0.7-21.6,0.8c-8.7,2.3-9.2,12.8-12.1,21.7c-7.1,21.6-12.4,46-15.5,68.3
		c17.2,2.8,36.9,1.7,54.7,1.9c16.1,0,36-2.8,51.6-7.1c-4.8-18.8-2.5-43.2-1.7-62.3c1.2-28,5.6-55.7,8.5-83.6
		c3.7-34.9,9.7-71.5,7.9-106.5C731.9,661.9,716.5,667.2,711.3,668.5"/>
</g>
</svg>
