<?xml version="1.0" encoding="utf-8"?>
<!-- Generator: Adobe Illustrator 24.2.3, SVG Export Plug-In . SVG Version: 6.00 Build 0)  -->
<svg version="1.1" id="Lineas_x5F_estrella" xmlns="http://www.w3.org/2000/svg" xmlns:xlink="http://www.w3.org/1999/xlink"
	 x="0px" y="0px" viewBox="0 0 1080 1080" style="enable-background:new 0 0 1080 1080;" xml:space="preserve">
<style type="text/css">
	.st0{fill:none;stroke:#000000;stroke-width:1.6145;stroke-miterlimit:10;}
</style>
<path class="st0" d="M429.1,203.3c-3.9,32.9-29.2,102.3-39.5,135.3c-7.7,25.2-40,125.5-52.3,142.9"/>
<path class="st0" d="M466.5,171.1c42,26.9,108.9,40.7,157.6,62.9c16.3,7.5,64.5,36.5,79.5,22.5"/>
<path class="st0" d="M727.9,254.9c-7.1,21.6-9.2,46.3-13.2,69.3c-7.6,43.3-20.8,86.5-32,129.1c-15.6,59.6-31.5,131.5-59.7,182.3"/>
<path class="st0" d="M737.6,271.1c-1.7,0.1-3.2-0.1-4.9,0.3c46.4,27.2,86.9,68.3,128.9,101.5c24.3,19.2,53.2,39.6,77.7,56.4
	c1.3-1.3,1.9-2.9,1.6-4.8"/>
<path class="st0" d="M640.8,654.9c35.2-14,64.7-41.9,99.3-58.5c37.1-17.9,74.7-36.4,108.5-60c22-15.3,43.9-31.2,66.3-45.9
	c9.5-6.3,33.7-16,37.2-25.9"/>
<path class="st0" d="M350.4,512.9c42.7-10.7,96.4-10.8,140.1-12.5c66.4-2.8,134-2.5,199.7-11.6c45.7-6.3,94.1-10.3,140.3-11.3
	c33.7-0.8,82.9,7.6,113.3-6.4"/>
<path class="st0" d="M329.9,494.4c84-53.5,243.1-152.4,330.1-200c22.1-12.1,45.7-21.5,68.8-31.5"/>
<path class="st0" d="M461.7,219.5c-1.2,1.7,13.2,34.8,16.4,43.6c8.7,23.2,18.1,50.4,28.9,72.4c18.3,37.1,27.9,82.1,47.7,118.5
	c27.6,50.7,58,155.3,76.8,202.7"/>
</svg>
