<?xml version="1.0" encoding="utf-8"?>
<!-- Generator: Adobe Illustrator 24.2.3, SVG Export Plug-In . SVG Version: 6.00 Build 0)  -->
<svg version="1.1" id="Piezas_x5F_estrella" xmlns="http://www.w3.org/2000/svg" xmlns:xlink="http://www.w3.org/1999/xlink"
	 x="0px" y="0px" viewBox="0 0 1080 1080" style="enable-background:new 0 0 1080 1080;" xml:space="preserve">
<style type="text/css">
	.st0{fill:#382716;}
	.st1{fill:#BCA6F4;}
	.st2{fill:#FF8500;}
</style>
<path class="st0" d="M1010.7,499.7c8.3-22.1-3.1-50.1-16.3-68c-17.1-22.7-40.3-26.9-67.2-25.1c-7.6,0.5-15.1,2.7-21.9,6.1
	c-46.1,22.9-58.5,88.5-12.9,118.5C927.9,554.8,994.9,542,1010.7,499.7z"/>
<path class="st1" d="M468.1,173.2c-0.5-10.4-2.7-20.5-4.4-30.7c-0.8-5.1-1.6-10.1-1.9-15.2c-0.3-3.7,0.4-8.4-1.1-12
	c-2-4.9-8-7.7-12.8-8.7c-22.9-4.4-45.6,7.2-68.3,7.9c-7.9,23.5-8.7,62.7,7.9,82.1c12.3,14.4,28.8,23.9,42.7,36
	c11.3,10,13.3,28.4,31.2,16.1C479.2,236.8,469.1,192.7,468.1,173.2z"/>
<path class="st2" d="M794,231.9c-0.1-14.8-6.1-31.3-15.2-43.1c-10.5-13.5-31.5-17.7-47.9-14.4c-15.6,3.2-28.9,11.5-42,20.3
	c-11.2,7.6-15.3,21.7-14.9,35.2c0.8,26.1,21.6,47.5,45.3,55.7C757.9,299.1,794.4,272.9,794,231.9z"/>
<path class="st0" d="M350.4,486.5c-1.7-10-2.5-22.3,3.2-31.2c2.9-4.5,7.6-7.2,12.9-7.5c3.3-0.1,6.8,0.5,9.9,1.6
	c0.9,0.3,4.1,1.5,4.3-0.4c0-1.1-2-2.1-2.8-2.5c-1.9-0.9-3.9-1.5-5.7-2.1c-0.9-0.3-2-0.7-2.9-1.1c-5.6-2.3-12.7-2.7-18.7-2.8
	s-12,0.5-17.7,2.3c-10.7,3.1-20.1,9.7-24.9,19.9c-6.3,13.1-4.1,28.4,0.1,41.7c13.5,42.3,104.1,33.3,91.3-10.3
	C384,515.6,355.2,515.1,350.4,486.5z"/>
<path class="st2" d="M587.6,686.1c16.9,13.7,40.1,7.7,55.2-6c10.4-9.5,18.5-23.9,16-38.4c-1.5-7.9-5.7-13.5-11.6-18.3
	c-8.1-6.5-13.2-15.3-24.4-16.9c-8.9-1.3-18,1.9-25.3,6.9C574.3,629.5,562.9,666.3,587.6,686.1z"/>
</svg>
