<?xml version="1.0" encoding="utf-8"?>
<!-- Generator: Adobe Illustrator 24.2.3, SVG Export Plug-In . SVG Version: 6.00 Build 0)  -->
<svg version="1.1" id="Mano_x5F_2" xmlns="http://www.w3.org/2000/svg" xmlns:xlink="http://www.w3.org/1999/xlink" x="0px" y="0px"
	 viewBox="0 0 1080 1080" style="enable-background:new 0 0 1080 1080;" xml:space="preserve">
<style type="text/css">
	.st0{fill-rule:evenodd;clip-rule:evenodd;fill:#FFFFFF;}
</style>
<g>
	<path d="M339.5,178.5c-0.1,17.9-7.2,27.3-10.7,45.2c-4,20.3-10.5,39.9-15.9,60.1c-12.5,47.2-25.7,98.1-30.7,146.7
		c-2.1,20.4-4.7,39.5-2.5,59.6c2.1,21.6,5.5,40.5,5.5,63.3c0,21.6,1.7,37.3,6.8,56.9c5.1,19.5,12.8,42,13.9,62
		c1.9,32.3-22.4-5.7-27.9-16.1c-9.2-17.6-20.9-36-27.5-54.8c-16.1,5.7,2.9,74.4,5.5,86.4c6.3,30.5,15.2,64.7,26.4,94.1
		c2.8,7.3,27.9,71.6-0.8,53.6c-17.5-11.1-25.2-59.2-30.9-76.8c-4.3-13.2-14.9-84.9-23.9-83.3c-5.3,0.9,3.7,45.3,10.3,65.3
		c6.7,20.7,8.5,46.5,16.5,66.7c2.9,7.3,10,21.1-1.7,22.4c-11.1,1.2-15.6-17.5-18.1-26.1c-6-20.9-11.7-46.5-18.5-67.1
		c-8.5-25.6-8-53.9-12.5-80.3c-0.4,0.1-3.1,0.8-3.5,0.8c4.7,20.7-0.9,44,0.8,65.2c1.5,18.3,7.2,36.5,10.8,54.7
		c0.3,1.3,1.2,4.1-4.3,4.3c-4.9,0.1-5.6-2.1-6.1-4.4c-5.9-22.4-11.7-44.7-16.1-67.6c-4.5-22.8-1.5-47.9-7.2-70.3
		c-1.1,11.6,4.9,68.1-4.3,69.5c-0.3-11.5-5.9-21.6-8-32.7c-2.4-12.5-3.9-26.4-4.5-39.5c-1.3-28-1.9-56.5-0.3-84.5
		c1.6-27.6,8.9-49.1,14.1-75.7c18.1-93.7,26.5-191.6,63.2-280.5c2.5-6.1,4.3-18,9.9-21.2c6.5-3.9,24.7-1.6,33.2-2.3
		c17.1-1.5,32.9-3.5,52.9-4.4C333.2,167.5,339.6,166.1,339.5,178.5z"/>
	<g>
		<path class="st0" d="M77.3,260c-1.6-2.1-2.3-4.3-0.9-6.7c1.3-2.3,3.5-2.9,6.1-2.7c-1.5-2.1-2-4.3-0.8-6.5c1.2-2.3,3.2-3.1,5.9-3.1
			c-1.2-2.3-1.5-4.4-0.1-6.4s3.2-2.8,5.7-2.7c-1.2-2.3-1.5-4.4,0-6.5c1.5-2,3.3-2.8,6-2.5c0-0.3,0-0.5-0.1-0.8
			c-1.5-2.7-0.4-5.3,1.3-6.7c2.5-1.9,5.2-1.7,7.3,0.4c0.7,0.7,0.9,1.6,1.3,2.4c0.1,0.4,0.3,0.9,0.3,1.5c0.9-0.4,1.9-0.7,2.8-0.9
			c-0.1-1.3-0.1-2.7-0.3-4.1c-1.9,0.9-3.9,0.9-5.6-0.7c-0.9-0.9-1.6-2.1-1.6-3.5c0-2.5,2.3-4.7,4.7-4.7c2.7,0,4.7,2.1,4.7,5.2
			c1.3-0.5,2.5-1.1,4-1.6c0,0,0-0.4,0-0.7c-1.3-4.3,2.4-8.3,6.8-7.9c0.1,0,0.3,0,0.7,0c-1.1-2.1-1.2-4.1,0.4-6
			c0.9-1.1,2.1-1.6,3.6-1.7c2.3-0.3,5.3,1.7,5.2,5.5c1.5-0.5,2.8-0.9,4.4-1.6c-0.9-2.4-0.7-4.8,1.5-6.7c1.1-0.9,2.3-1.5,3.7-1.5
			c2.8-0.1,5.7,2.1,5.9,6.1c1.2-0.4,2.4-0.7,3.7-1.1c-0.8-2.3-1.1-4.5,0.8-6.5c1.9-2,4-2.4,6.8-1.5c-2.1-2.9-2.3-5.6,0.5-7.7
			c1.7-1.3,4-1.2,5.7,0.1c1.6,1.2,2.3,3.6,1.7,5.3c-0.9,2.5-2.7,3.5-6.3,3.2c1.9,2.8,1.5,2.4,1.7,5.3c1.3-0.8,2.8-1.2,4.7-0.8
			c-1.5-2.4-1.7-4.7,0-6.8s3.9-2.7,6.7-1.7c-2.4-3.1-2.5-5.9,0.5-8.1c1.6-1.2,3.7-1.2,5.6,0.1c1.9,1.5,2.5,3.7,1.7,6
			c-0.5,1.2-1.3,2.3-2.7,2.5c-1.2,0.3-2.4,0.4-3.6,0.5c1.2,1.5,2,3.2,1.3,5.7c2-1.2,4-1.9,6.3-0.8c-2.4-3.1-2.9-5.9,0.4-8.5
			c2-1.6,4.4-1.3,6.1,0.1c1.6,1.5,2.4,4,1.6,5.7c-0.5,1.5-1.5,2.5-2.9,3.1c-1.5,0.5-2.8,0.4-4,0c0.5,0.9,1.3,2,1.6,3.1s0,2.3,0,3.5
			c1.7-1.7,4-2.4,6.4-1.1c2.7,1.6,3.3,4.1,2.3,7.2c2.8-2.5,5.6-3.2,8.3-0.3c1.7,2,1.6,4.4,0,6.3c-1.5,1.7-4,2.4-6,1.5
			c-2.5-1.2-3.3-3.3-2.7-6.9c-1.7,1.6-3.6,2.4-6.1,1.7c1.3,2,2,4,0.9,6.4c2.8-2.3,5.6-2.8,8.3,0c1.5,1.6,1.7,4.1,0.5,5.9
			c-1.1,1.7-3.1,3.2-6.8,2.3c1.7,2,2.4,4,1.5,6.4c0.1,0.1,0.3,0.3,0.3,0.4c0.1-0.3,0.3-0.5,0.4-0.7c2-1.6,4.1-1.7,6.3-0.4
			c2.8,1.7,2.9,6,0.4,8c-2.1,1.7-4.5,1.5-6.3,0.4c-1.9-1.3-2.5-3.7-1.9-6c0-0.1,0-0.3,0.1-0.7c-1.9,2-4,2.5-6.4,1.7
			c1.7,1.9,2.1,4,1.3,6.5c1.1-1.2,2.4-1.9,3.9-2c1.6-0.1,2.9,0.4,4,1.6c1.6,1.7,1.9,4.4,0.7,6.3c-1.3,2.1-3.9,3.1-6.3,2
			c-0.8-0.3-1.6-0.9-2.1-1.6c-0.5-0.7-0.9-1.7-1.1-2.5c-0.1-0.8,0.1-1.7,0.3-2.9c-1.7,1.7-3.6,2.5-6.3,1.9c1.5,2,1.9,4,1.2,6.3
			c1.3-1.1,2.8-2,4.7-1.9c1.2,0.1,2.1,0.5,2.9,1.3c1.6,1.5,2.3,4,1.2,6c-0.4,0.8-1.1,1.6-1.7,2c-0.8,0.5-1.7,0.8-2.7,0.9
			c-0.8,0.1-1.7-0.1-2.8-0.4c2.3,2.7,2.9,5.3,0.3,8c-1.6,1.6-3.7,1.9-5.7,0.8c-2.5-1.3-3.2-3.5-2.7-6.4c-1.7,1.5-3.6,2-5.9,1.5
			c1.6,2.1,1.9,4.1,0.9,6.4c1.2-1.2,2.5-2,4.1-2c1.7,0,3.1,0.7,4.1,2c1.5,1.6,1.5,4.4,0.1,6.1c-1.6,2-4.1,2.7-6.4,1.7
			c-2.4-1.2-3.3-3.5-2.5-7.1c-1.1,0.5-2,1.3-3.1,1.7c-1.1,0.3-2.4,0.1-3.5,0.1c1.6,1.9,2.4,4.1,0.9,6.5s-3.7,3.1-6.7,2.4
			c2.3,2.9,2.7,5.9-0.4,8.3c-1.6,1.3-3.6,1.5-5.5,0.4c-2.5-1.6-3.1-3.9-2.4-6.7c-1.7,1.6-3.6,2.3-6.1,1.7c2,3.1,2.4,5.9-0.8,8.1
			c-2,1.5-4.4,1.2-5.9,0c-1.6-1.3-2.8-3.5-1.7-6.7c-2.1,2-4.3,2.7-6.9,1.6c2.4,2.9,2.9,5.7-0.1,8.3c-1.7,1.5-4,1.5-5.9,0.3
			c-1.6-1.1-2.9-3.1-2-6.7c-2.1,1.9-4.4,2.5-6.8,1.2c-2.4-1.5-3.1-3.7-2.4-6.7c-1.7,1.7-3.7,2.3-6,1.6c2.1,2.9,2.4,5.7-0.5,8
			c-2,1.6-4.4,1.5-6.3,0c-1.5-1.2-2.4-3.7-1.7-5.5c1.1-2.9,2.5-3.7,6.7-3.6c-1.3-1.6-1.9-3.3-1.3-5.6c-1.9,1.3-3.6,1.7-5.7,1.2
			c1.9,3.6,1.9,5.3-0.1,7.5c-1.3,1.5-4,2-5.6,1.2c-2.5-1.2-3.5-3.2-3.1-6.8c-0.1,0.1-0.4,0.1-0.5,0.3c-1.7,1.2-3.5,1.9-5.6,0.9
			c-2.3-0.9-3.7-4-2.9-6.4c0.8-2.7,3.3-4.1,6-3.6c0.3,0,0.4,0.1,0.7,0.1c-1.3-1.6-1.9-3.3-1.6-5.6c-1.7,1.3-3.6,1.7-5.7,1.1
			c1.3,1.6,1.9,3.2,1.5,5.2c-0.3,1.2-0.9,2-1.9,2.7c-1.9,1.6-4.5,1.6-6.4,0.3c-1.9-1.5-2.5-3.9-1.9-5.9
			C71.2,261.1,73.7,259.2,77.3,260 M178.3,252.1c1.9-1.6,4-1.9,6.1-1.1c-2-1.9-2.4-4-1.5-6.5c-1.6,1.9-3.6,2.4-6.3,1.7
			C178.3,248.1,178.8,250,178.3,252.1 M190.9,211.6c-1.6,1.7-3.6,2.3-6,1.9c1.5,1.7,1.7,3.6,1.2,5.9c1.9-1.7,3.9-2,6.1-1.5
			C190.5,216,190.1,214,190.9,211.6 M88.1,266.8c1.6,1.7,2,3.6,1.3,5.9c1.7-1.5,3.6-2,6-1.3c-1.6-1.9-2-3.7-1.5-6
			C92.3,267.1,90.3,267.3,88.1,266.8 M156.5,266.7c-1.7,1.6-3.7,1.9-5.9,1.3c1.7,2,2,4,1.3,6.1c1.7-1.7,3.6-2.3,6-1.7
			C156.4,270.8,156,268.9,156.5,266.7 M121.5,274.9c1.3,1.7,1.6,3.7,1.1,5.7c1.9-1.7,4-2,6.3-1.2c-1.6-1.6-2.3-3.5-1.9-5.7
			C125.2,274.9,123.5,275.3,121.5,274.9 M136.4,271.6c1.3,1.9,1.5,3.7,0.8,5.9c1.6-1.7,3.6-2.1,6.1-1.6c-1.6-1.6-2-3.5-1.6-5.6
			C139.9,271.6,138.3,272,136.4,271.6 M181.9,198.9c1.2,1.5,1.5,3.2,1.1,5.2c1.7-1.3,3.5-1.6,5.5-1.2c-1.5-1.7-1.7-3.7-1.2-5.6
			c-0.7,0.4-1.5,0.8-2.4,1.1C184,198.8,183.1,198.8,181.9,198.9 M113.5,274.8c1.6-1.3,3.5-1.9,5.7-1.3c-1.3-1.6-1.7-3.3-1.3-5.2
			c-2.9,1.5-2.5,1.3-5.5,1.2C113.6,271.1,114,272.8,113.5,274.8 M184.8,221.3c-1.5,1.3-3.2,1.7-5.1,1.6c0.4,0.8,0.8,1.6,0.9,2.5
			c0.1,0.8,0.1,1.6,0.1,2.7c1.7-1.3,3.6-1.5,5.6-0.8C184.9,225.5,184.4,223.5,184.8,221.3 M163.7,263.3c-1.5-1.5-2-3.2-1.6-5.2
			c-0.8,0.4-1.6,0.8-2.4,1.1c-0.8,0.1-1.7,0.1-2.7,0.1c1.1,1.6,1.3,3.2,0.9,5.2C159.7,263.1,161.6,262.8,163.7,263.3 M148.5,266.5
			c-1.2-1.6-1.6-3.2-1.3-5.3c-1.6,1.2-3.2,1.6-5.1,1.3c1.2,1.6,1.5,3.2,1.1,5.2C144.9,266.5,146.7,266.3,148.5,266.5 M108.4,262.7
			c-2.1,1.1-2.1,1.1-4.9,1.1c1.2,1.6,1.5,3.2,1.1,5.3c1.7-1.5,3.3-1.7,5.3-1.3C108.3,264.9,108.5,265.5,108.4,262.7 M163.7,255.2
			c1.7-1.3,3.3-1.6,5.2-1.2c-1.2-1.6-1.6-3.3-1.2-5.5c-1.6,1.3-3.2,1.7-5.2,1.5C163.7,251.7,164.1,253.2,163.7,255.2 M168.4,241.2
			c1.1,1.6,1.3,3.2,0.9,4.9c0.9-0.4,1.7-0.8,2.5-1.1c0.8-0.1,1.7-0.1,2.8-0.1c-1.3-1.5-1.7-3.1-1.5-5.1
			C171.7,241.1,170.3,241.3,168.4,241.2 M181.2,206.9c-1.5,1.1-3.1,1.5-4.9,1.1c1.2,1.6,1.5,3.2,1.2,5.1c1.6-1.2,3.3-1.3,5.3-0.8
			C181.5,210.5,180.9,208.8,181.2,206.9 M175.1,236.9c1.6-1.2,3.3-1.5,5.3-0.9c-1.3-1.6-1.7-3.3-1.3-5.3c-1.6,1.3-3.3,1.6-5.2,1.3
			C175.1,233.5,175.3,234.9,175.1,236.9 M127.5,266c1.5,2.9,1.1,2.8,1.1,5.1c1.5-1.2,3.1-1.5,5.1-1.2c-1.2-1.6-1.6-3.2-1.3-5.1
			C130.8,265.9,129.3,266.4,127.5,266 M174.1,198c0.8-0.3,1.6-0.7,2.4-0.9c0.8-0.1,1.6-0.1,2.5-0.1c-1.2-1.5-1.5-3.1-1.1-5.1
			c-1.6,1.2-3.2,1.6-5.1,1.3C173.9,194.8,174.4,196.3,174.1,198 M90.3,251.3c-1.6,1.1-3.2,1.3-5.1,1.1c1.3,1.6,1.6,3.2,1.3,5.2
			c1.6-1.2,3.1-1.6,4.9-1.3C90.3,254.7,90,253.1,90.3,251.3 M94.7,258.1c0.3,0.9,0.7,1.7,0.8,2.5c0.1,0.8,0,1.7,0,2.7
			c1.5-1.2,3.1-1.6,5.1-1.3c-1.2-1.5-1.6-2.9-1.5-4.7C97.7,258.1,96.3,258.4,94.7,258.1 M149.1,258.4c1.5-1.1,2.9-1.3,4.8-1.1
			c-1.1-1.5-1.5-2.9-1.2-4.4c-1.5,0.4-2.9,0.8-4.3,1.1c0.1,0.7,0.5,1.3,0.7,2C149.2,256.8,149.1,257.6,149.1,258.4 M166.5,230.8
			c1.2-0.8,2.7-1.1,4.5-0.8c-1.1-1.5-1.5-2.9-1.2-4.4c-1.5,0.4-2.8,0.8-4.1,1.1C165.9,228,166.3,229.3,166.5,230.8 M119.5,265.5
			c1.5-1.2,3.1-1.5,4.5-1.3c-0.4-1.5-0.8-2.8-1.2-4c-1.2,0.3-2.7,0.5-4,0.9C119.6,262.1,119.7,263.7,119.5,265.5 M171.3,217.6
			c0.3,1.3,0.5,2.8,0.8,4.1c1.2-0.8,2.7-1.1,4.4-0.9c-1.1-1.5-1.3-2.9-1.2-4.4C173.9,216.9,172.5,217.2,171.3,217.6 M173.3,206.1
			c-1.1-1.5-1.5-2.9-1.2-4.4c-1.5,0.4-2.8,0.8-4.1,1.2c0.3,1.2,0.5,2.5,0.8,4C170,206.1,171.5,205.7,173.3,206.1 M159.6,248.3
			c-1.1-1.5-1.5-2.9-1.5-4.3c-1.5,0.3-2.8,0.7-3.9,0.9c0.3,1.3,0.5,2.8,0.8,4.3C156.4,248.3,157.9,248,159.6,248.3 M133.9,257.5
			c0.3,1.3,0.4,2.7,0.7,4.1c1.2-0.7,2.7-1.2,4.1-0.9c-0.4-1.3-0.8-2.8-1.2-4C136.3,256.9,135.1,257.2,133.9,257.5 M110,255.2
			c0.3,1.2,0.4,2.7,0.7,3.9c1.2-0.3,2.7-0.7,4-1.1c-0.3-1.2-0.7-2.5-0.9-3.7C112.5,254.7,111.2,254.9,110,255.2 M91.7,243.9
			c0.3,1.3,0.5,2.7,0.7,3.9c1.3-0.4,2.7-0.7,3.9-1.1c-0.3-1.2-0.7-2.5-0.9-3.6C94.3,243.3,92.9,243.6,91.7,243.9 M163.7,234.9
			c-1.2,0.3-2.4,0.7-3.6,0.9c0.3,1.2,0.5,2.5,0.7,3.6c1.3-0.3,2.7-0.5,3.7-0.8C164.4,237.5,164,236.1,163.7,234.9 M101.7,253.2
			c1.2-0.3,2.4-0.7,3.6-0.9c-0.3-1.1-0.5-2.3-0.9-3.5c-1.2,0.3-2.4,0.4-3.6,0.7C101.1,250.7,101.5,252,101.7,253.2 M163.3,215.3
			c1.2-0.3,2.4-0.4,3.5-0.7c-0.3-1.2-0.5-2.5-0.8-3.7c-1.1,0.3-2.3,0.7-3.5,0.9C162.8,213.1,163.1,214.3,163.3,215.3 M129.2,254.5
			c-0.3-1.1-0.5-2.4-0.8-3.5c-1.2,0.3-2.4,0.5-3.5,0.8c0.3,1.2,0.5,2.4,0.8,3.5C126.8,255.1,128.1,254.8,129.2,254.5 M140.4,251.9
			c1.2-0.3,2.4-0.5,3.6-0.8c-0.3-1.1-0.5-2.3-0.9-3.3c-1.2,0.3-2.4,0.5-3.5,0.8C140,249.6,140.3,250.8,140.4,251.9 M163.3,199.9
			c-0.3-1.2-0.5-2.5-0.8-3.6c-1.1,0.3-2.3,0.7-3.3,0.9c0.3,1.1,0.5,2.3,0.8,3.3C161.1,200.3,162.3,200.1,163.3,199.9 M119.1,245.6
			c-1.1,0.1-2.1,0.4-3.1,0.7c0.3,1.2,0.4,2.4,0.7,3.5c1.1-0.3,2.3-0.5,3.3-0.8C119.6,247.9,119.3,246.7,119.1,245.6 M149.7,242
			c-0.3-1.1-0.7-2.3-0.9-3.3c-1.1,0.3-2.1,0.5-3.2,0.8c0.3,1.1,0.4,2.1,0.7,3.2C147.5,242.5,148.7,242.3,149.7,242 M97.5,234.7
			c0.3,1.2,0.5,2.4,0.9,3.5c1.1-0.3,2.1-0.5,3.1-0.9c-0.3-1.1-0.5-2.1-0.7-3.2C99.7,234.3,98.5,234.5,97.5,234.7 M157.7,224.4
			c1.2-0.3,2.3-0.4,3.3-0.7c-0.3-1.1-0.5-2.3-0.9-3.3c-1.1,0.3-2.1,0.5-3.2,0.8C157.2,222.4,157.5,223.3,157.7,224.4 M151.2,230.4
			c0.3,1.1,0.5,2.1,0.7,3.2c1.1-0.3,2.1-0.5,3.2-0.8c-0.3-1.1-0.5-2.1-0.8-3.2C153.3,229.9,152.3,230.1,151.2,230.4 M106.9,228.1
			c-0.3-1.1-0.4-2.3-0.7-3.3c-1.1,0.1-2.1,0.4-3.1,0.5c0.4,1.2,0.7,2.4,1.1,3.5C105.1,228.5,106,228.3,106.9,228.1 M131.5,246.1
			c1.2-0.3,2.3-0.5,3.3-0.8c-0.3-1.1-0.5-2-0.8-3.1c-1.1,0.3-2.1,0.5-3.1,0.8C131.1,244.1,131.2,245.2,131.5,246.1 M156.7,205.7
			c-0.9,0.3-2,0.5-2.9,0.8c0.3,1.1,0.5,2.1,0.7,3.2c1.1-0.3,2.1-0.4,3.1-0.7C157.2,207.9,156.9,206.8,156.7,205.7 M129.3,203.3
			c0.4,1.1,0.8,2.3,1.2,3.3c0.8-0.1,1.6-0.4,2.3-0.5c-0.1-1.2-0.3-2.4-0.4-3.6C131.5,202.8,130.4,203.1,129.3,203.3 M107.6,243.9
			c1.1-0.3,2.1-0.5,3.2-0.8c-0.3-1.1-0.5-2-0.8-3.1c-1.1,0.3-2,0.5-2.9,0.7C107.2,241.7,107.5,242.8,107.6,243.9 M145.6,203.5
			c0.9-0.1,1.7-0.3,2.7-0.5c-0.3-1.1-0.4-2.3-0.7-3.2c-0.9,0.3-1.9,0.5-2.8,0.8C145.1,201.6,145.3,202.5,145.6,203.5 M148.7,218.5
			c0.9-0.3,2-0.4,2.9-0.7c-0.3-0.9-0.4-1.9-0.7-2.8c-0.9,0.3-1.9,0.5-2.9,0.7C148.3,216.7,148.5,217.6,148.7,218.5 M139.5,233.3
			c-0.9,0.3-1.9,0.4-2.8,0.7c0.1,0.9,0.4,1.9,0.5,2.8c0.9-0.3,1.9-0.4,2.8-0.7C140,235.2,139.7,234.3,139.5,233.3 M143.2,227.6
			c0.9-0.3,1.9-0.4,2.8-0.5c-0.3-0.9-0.5-1.9-0.7-2.8c-0.8,0.3-1.7,0.5-2.5,0.7C142.8,225.9,142.9,226.7,143.2,227.6 M124.7,236.9
			c-0.9,0.1-1.7,0.4-2.7,0.5c0.1,0.9,0.4,1.7,0.5,2.7c0.9-0.3,1.9-0.4,2.8-0.7C125.1,238.7,124.8,237.7,124.7,236.9 M116.1,233.7
			c-0.3-0.8-0.4-1.6-0.5-2.5c-0.9,0.3-1.9,0.4-2.7,0.5c0.1,0.9,0.4,1.7,0.5,2.7C114.3,234.1,115.2,234,116.1,233.7 M128.5,230.9
			c0.8-0.1,1.6-0.4,2.4-0.5c-0.3-0.8-0.4-1.6-0.7-2.4c-0.8,0.1-1.5,0.4-2.3,0.5C128.1,229.3,128.3,230.1,128.5,230.9 M141.6,209.6
			c-0.7,0.1-1.5,0.4-2.3,0.5c0.1,0.8,0.4,1.6,0.5,2.4c0.8-0.1,1.6-0.3,2.3-0.4C142,211.2,141.9,210.4,141.6,209.6 M135.9,218.9
			c-0.7,0.1-1.3,0.4-2,0.5c0.1,0.7,0.3,1.5,0.4,2.1c0.7-0.1,1.3-0.3,2.1-0.5C136.1,220.4,136,219.7,135.9,218.9 M121.5,224.5
			c-0.1-0.7-0.4-1.3-0.5-1.9c-0.7,0.1-1.3,0.3-2,0.4c0.1,0.7,0.3,1.3,0.4,2C120,224.9,120.7,224.7,121.5,224.5 M126.5,212.9
			c-0.7,0.1-1.2,0.3-1.9,0.5c0.3,0.8,0.4,1.5,0.5,2.1c0.7-0.1,1.1-0.3,1.6-0.4C126.8,214.4,126.7,213.7,126.5,212.9"/>
		<path class="st0" d="M106.8,286.4c0.7-2.8,3.5-4.4,6.3-3.7c2.7,0.7,4.3,3.6,3.6,6.4c-0.7,2.7-3.6,4.3-6.3,3.6
			S106,289.1,106.8,286.4"/>
		<path class="st0" d="M196.7,195.1c-2.8-0.7-4.4-3.5-3.7-6.3c0.7-2.5,3.7-4.4,6.3-3.7c2.5,0.7,4.3,3.6,3.6,6.3
			C202.1,193.9,199.2,195.6,196.7,195.1"/>
		<path class="st0" d="M145.3,285.3c0.7-2.5,3.6-4.3,6.1-3.6c2.5,0.7,4.3,3.6,3.6,6.1c-0.7,2.7-3.6,4.4-6.3,3.6
			C146.4,290.8,144.7,287.9,145.3,285.3"/>
		<path class="st0" d="M130.7,288.8c0.7-2.5,3.6-4.4,6.1-3.7c2.5,0.7,4.4,3.6,3.7,6.1c-0.7,2.7-3.6,4.4-6.1,3.7
			C131.7,294.3,130,291.3,130.7,288.8"/>
		<path class="st0" d="M165.7,272.9c0.7-2.5,3.6-4.4,6.1-3.7c2.7,0.7,4.4,3.6,3.7,6.3c-0.7,2.5-3.6,4.3-6.1,3.7
			C166.9,278.4,165.2,275.5,165.7,272.9"/>
		<path class="st0" d="M83.7,280.9c-0.7,2.5-3.5,4.3-6.1,3.6c-2.7-0.7-4.4-3.6-3.7-6.1c0.7-2.5,3.5-4.3,6.1-3.6
			C82.7,275.5,84.4,278.4,83.7,280.9"/>
		<path class="st0" d="M125.7,294.8c-0.8,2.8-3.6,4.3-6.3,3.6c-2.7-0.7-4.3-3.6-3.6-6.1c0.8-2.8,3.6-4.3,6.3-3.6
			C124.8,289.3,126.4,292.3,125.7,294.8"/>
		<path class="st0" d="M203.5,224.4c-2.7-0.9-4.3-3.3-3.6-6.1c0.7-2.7,3.3-4.4,6.1-3.6c2.9,0.8,4.4,3.5,3.6,6.1
			C208.8,223.7,206.3,224.9,203.5,224.4"/>
		<path class="st0" d="M86.5,290.3c-2.9-0.9-4.3-3.6-3.6-6.1c0.8-2.9,3.5-4.3,6.1-3.6c2.9,0.8,4.3,3.5,3.6,6.1
			C91.9,289.6,89.2,290.8,86.5,290.3"/>
		<path class="st0" d="M64.7,272.9c0.9-2.7,3.2-4.4,6.1-3.6c2.8,0.7,4.4,3.1,3.7,6c-0.7,2.8-3.1,4.4-6,3.6
			C65.7,278.4,64.3,275.9,64.7,272.9"/>
		<path class="st0" d="M163.9,288c-2.8-0.9-4.4-3.2-3.6-6.1c0.7-2.8,3.2-4.4,6-3.6c2.8,0.7,4.4,3.2,3.6,6
			C169.2,287.1,166.8,288.5,163.9,288"/>
		<path class="st0" d="M92.3,289.9c0.4-2.4,3.5-4.3,6.1-3.5c2.3,0.7,4.1,3.5,3.5,6.1c-0.7,2.3-3.5,4.3-6.1,3.5
			C93.3,295.3,91.3,292.4,92.3,289.9"/>
		<path class="st0" d="M196,262.8c-0.7,2.7-3.3,4.3-6.1,3.5c-2.7-0.7-4.1-3.3-3.5-6c0.7-2.7,3.3-4.3,6-3.5
			C195.1,257.5,196.7,260.1,196,262.8"/>
		<path class="st0" d="M192.1,251.3c0.7-2.7,3.3-4.3,6-3.6s4.3,3.3,3.6,6s-3.3,4.3-6,3.6C193.1,256.7,191.5,254,192.1,251.3"/>
		<path class="st0" d="M190.3,271.9c-0.7,2.7-3.3,4.3-6,3.6c-2.5-0.7-4.3-3.5-3.6-6s3.3-4.3,6-3.6
			C189.2,266.5,190.9,269.3,190.3,271.9"/>
		<path class="st0" d="M202.3,194.7c0.7-2.7,3.3-4.3,6-3.6s4.3,3.3,3.6,6c-0.7,2.5-3.3,4.3-6,3.6C203.3,200,201.6,197.2,202.3,194.7
			"/>
		<path class="st0" d="M207.3,244.5c-0.7,2.7-3.3,4.3-6,3.6s-4.3-3.3-3.6-6s3.3-4.3,6-3.6C206.3,239.2,207.9,242,207.3,244.5"/>
		<path class="st0" d="M143.5,300.4c-2.5-0.7-4.3-3.5-3.6-6s3.5-4.1,6-3.6c2.5,0.7,4.3,3.5,3.6,6S146,300.9,143.5,300.4"/>
		<path class="st0" d="M101.2,295.5c0.7-2.5,3.5-4.3,6-3.6c2.5,0.7,4.1,3.5,3.5,6c-0.7,2.5-3.5,4.3-6,3.6
			C102.3,300.8,100.5,298,101.2,295.5"/>
		<path class="st0" d="M125.1,297.9c0.7-2.5,3.5-4.3,6-3.6s4.3,3.5,3.6,6s-3.5,4.1-6,3.5C126.1,303.2,124.4,300.3,125.1,297.9"/>
		<path class="st0" d="M208.4,182.1c-0.7,2.5-3.5,4.3-6,3.6s-4.3-3.5-3.6-6s3.5-4.3,6-3.6C207.3,176.8,209.1,179.6,208.4,182.1"/>
		<path class="st0" d="M203.5,233.2c0.7-2.5,3.5-4.1,6-3.6c2.5,0.7,4.3,3.5,3.6,6s-3.5,4.1-6,3.5
			C204.4,238.5,202.8,235.7,203.5,233.2"/>
		<path class="st0" d="M211.7,205.7c2.5,0.7,4.1,3.5,3.6,6c-0.7,2.5-3.5,4.3-6,3.6s-4.1-3.5-3.5-6
			C206.4,206.8,209.2,205.1,211.7,205.7"/>
		<path class="st0" d="M164.1,293.6c-0.7,2.5-3.5,4.1-6,3.5s-4.3-3.5-3.5-6c0.7-2.5,3.5-4.1,6-3.5
			C163.2,288.3,164.8,291.1,164.1,293.6"/>
		<path class="st0" d="M178.5,284.4c-2.5-0.7-4.1-3.5-3.6-6c0.7-2.5,3.5-4.3,6-3.6c2.5,0.7,4.1,3.5,3.5,6
			C183.9,283.5,181.1,285.1,178.5,284.4"/>
		<path class="st0" d="M189.9,174.3c0.5-2.5,3.5-4.3,6-3.6c2.4,0.7,4.1,3.5,3.6,5.9c-0.5,2.5-3.5,4.3-6,3.6
			C190.9,179.5,189.3,176.7,189.9,174.3"/>
		<path class="st0" d="M119.9,303.6c-0.8,2.5-3.3,4.1-5.9,3.5c-2.7-0.7-4.1-3.3-3.5-5.9c0.7-2.7,3.3-4.1,5.9-3.5
			C118.9,298.4,120.4,301.1,119.9,303.6"/>
		<path class="st0" d="M74.3,284.3c2.5,0.7,4,3.2,3.5,5.7c-0.4,2.3-3.5,4.1-5.9,3.5c-2.1-0.5-4-3.5-3.5-5.9
			C68.9,285.5,72,283.5,74.3,284.3"/>
		<path class="st0" d="M172.9,293.5c-2.3-0.3-4.1-3.5-3.5-5.9c0.5-2.1,3.5-4.1,6-3.5c2.1,0.5,4,3.5,3.3,5.9
			C178.3,292.3,175.3,294.4,172.9,293.5"/>
		<path class="st0" d="M209.3,224.1c0.3-2.4,3.5-4.1,5.7-3.6c2.4,0.5,4.3,3.6,3.5,5.9c-0.8,2.5-3.2,4.1-5.9,3.5
			C210.1,229.2,208.7,226.7,209.3,224.1"/>
		<path class="st0" d="M77.6,293.5c0.7-2.5,3.2-4.1,5.7-3.5s4.1,3.2,3.5,5.9c-0.7,2.5-3.2,4-5.9,3.3C78.5,298.5,76.9,296,77.6,293.5
			"/>
		<path class="st0" d="M59.5,282c0.7-2.5,3.2-4,5.9-3.5c2.5,0.7,4,3.2,3.3,5.9c-0.7,2.5-3.2,4-5.9,3.5
			C60.4,287.2,58.8,284.5,59.5,282"/>
		<path class="st0" d="M217.5,187.7c-0.7,2.5-3.2,4.1-5.7,3.5c-2.5-0.7-4.1-3.2-3.5-5.7c0.7-2.5,3.2-4.1,5.7-3.5
			C216.4,182.7,218,185.2,217.5,187.7"/>
		<path class="st0" d="M211.5,200.1c0.7-2.5,3.3-4,5.9-3.3c2.4,0.7,4,3.3,3.3,5.9c-0.7,2.5-3.3,4-5.9,3.3
			C212.4,205.3,210.8,202.7,211.5,200.1"/>
		<path class="st0" d="M134.4,303.6c0.7-2.5,3.3-4.1,5.9-3.5c2.4,0.7,4,3.3,3.3,5.7c-0.7,2.5-3.3,4.1-5.9,3.5
			C135.3,308.8,133.7,306,134.4,303.6"/>
		<path class="st0" d="M90,304.8c-2.5-0.7-4-3.3-3.3-5.9c0.7-2.4,3.3-4,5.9-3.3c2.5,0.7,4,3.3,3.3,5.9
			C95.2,303.9,92.5,305.5,90,304.8"/>
		<path class="st0" d="M158.4,302.5c-0.7,2.5-3.3,4-5.9,3.5c-2.4-0.7-4-3.3-3.3-5.9c0.7-2.5,3.3-4.1,5.9-3.5
			C157.5,297.3,158.9,300,158.4,302.5"/>
		<path class="st0" d="M201.3,256.9c0.7-2.5,3.3-4.1,5.9-3.5c2.4,0.7,4,3.3,3.3,5.7c-0.7,2.5-3.3,4.1-5.9,3.5
			C202.3,262.1,200.7,259.3,201.3,256.9"/>
		<path class="st0" d="M195.6,266.1c0.7-2.5,3.3-4.1,5.9-3.5c2.4,0.7,4,3.3,3.3,5.7c-0.7,2.5-3.3,4.1-5.9,3.5
			C196.5,271.2,194.9,268.5,195.6,266.1"/>
		<path class="st0" d="M199.2,277.5c-0.5,2.4-3.3,4.1-5.7,3.5c-2.4-0.5-4.1-3.3-3.5-5.7c0.5-2.4,3.3-4,5.7-3.5
			C198.1,272.3,199.9,274.9,199.2,277.5"/>
		<path class="st0" d="M119.7,307.1c0.5-2.4,3.3-4.1,5.7-3.5c2.4,0.7,4,3.3,3.5,5.7c-0.7,2.4-3.3,4-5.7,3.5
			C120.7,312.3,119.1,309.5,119.7,307.1"/>
		<path class="st0" d="M216.3,250.3c-0.5,2.4-3.3,4.1-5.7,3.5c-2.4-0.7-4-3.3-3.5-5.7c0.7-2.4,3.3-4,5.7-3.5
			S216.8,247.9,216.3,250.3"/>
		<path class="st0" d="M95.9,304.7c0.7-2.4,3.3-4,5.7-3.3s4,3.3,3.3,5.7c-0.7,2.4-3.3,4-5.7,3.3C96.8,309.9,95.2,307.1,95.9,304.7"
			/>
		<path class="st0" d="M224,217.5c-0.7,2.4-3.3,4-5.7,3.3s-4-3.3-3.5-5.7c0.7-2.4,3.5-4,5.9-3.3C223.1,212.4,224.7,215.1,224,217.5"
			/>
		<path class="st0" d="M173.1,299.1c-0.7,2.4-3.3,4-5.7,3.5c-2.4-0.7-4-3.3-3.3-5.7c0.7-2.4,3.3-4,5.7-3.5
			C172.1,293.9,173.6,296.7,173.1,299.1"/>
		<path class="st0" d="M216,244.5c-2.4-0.5-4-3.3-3.5-5.7s3.3-4,5.7-3.5c2.4,0.7,4,3.3,3.5,5.7S218.4,245.1,216,244.5"/>
		<path class="st0" d="M184.3,284.3c0.5-2.4,3.3-4,5.7-3.5s4,3.3,3.5,5.7c-0.5,2.4-3.3,4-5.7,3.5
			C185.5,289.5,183.7,286.7,184.3,284.3"/>
		<path class="st0" d="M217.3,191.2c0.7-2.4,3.2-4,5.6-3.3c2.4,0.7,4,3.2,3.3,5.6c-0.5,2.4-3.2,3.9-5.6,3.3
			C218.3,196.3,216.7,193.7,217.3,191.2"/>
		<path class="st0" d="M104.9,310.4c0.7-2.4,3.2-3.9,5.6-3.3c2.4,0.7,3.9,3.2,3.3,5.6c-0.7,2.4-3.2,3.9-5.6,3.3
			C105.9,315.5,104.3,312.9,104.9,310.4"/>
		<path class="st0" d="M218.4,229.9c0.5-2.4,3.2-4,5.6-3.3c2.4,0.7,4,3.2,3.3,5.6c-0.5,2.4-3.2,3.9-5.6,3.3
			C219.3,234.8,217.9,232.3,218.4,229.9"/>
		<path class="st0" d="M152.4,311.6c-0.5,2.4-3.2,4-5.6,3.3c-2.4-0.7-4-3.2-3.3-5.6s3.2-3.9,5.6-3.3S153.1,309.2,152.4,311.6"/>
		<path class="st0" d="M213.9,176.5c0.5-2.4,3.2-4,5.6-3.3c2.4,0.5,4,3.2,3.3,5.6s-3.2,3.9-5.6,3.3
			C214.8,181.5,213.2,178.9,213.9,176.5"/>
		<path class="st0" d="M137.7,314.8c-0.5,2.4-3.2,4-5.5,3.3c-2.4-0.5-4-3.2-3.3-5.6c0.5-2.4,3.2-3.9,5.6-3.3
			C136.8,309.9,138.4,312.4,137.7,314.8"/>
		<path class="st0" d="M182.1,298.9c-2.4-0.5-4-3.2-3.3-5.6c0.5-2.4,3.2-4,5.6-3.3c2.4,0.7,3.9,3.2,3.3,5.6
			C187.1,297.9,184.4,299.5,182.1,298.9"/>
		<path class="st0" d="M220.8,206c0.5-2.4,3.2-4,5.6-3.3c2.4,0.5,4,3.2,3.3,5.6c-0.5,2.4-3.2,4-5.6,3.3
			C221.7,210.9,220.1,208.4,220.8,206"/>
		<path class="st0" d="M66.4,302.4c-2.4-0.5-4-3.2-3.3-5.6c0.5-2.4,3.2-4,5.6-3.3c2.4,0.5,4,3.2,3.3,5.6
			C71.5,301.3,68.8,302.9,66.4,302.4"/>
		<path class="st0" d="M161.6,311.5c-2.4-0.5-4-3.2-3.3-5.6c0.5-2.4,3.2-4,5.6-3.3c2.4,0.5,4,3.2,3.3,5.6
			C166.7,310.4,164,312,161.6,311.5"/>
		<path class="st0" d="M75.5,308c-2.4-0.5-4-3.2-3.3-5.6s3.2-3.9,5.6-3.3c2.4,0.7,3.9,3.2,3.3,5.5C80.4,307.1,77.9,308.7,75.5,308"
			/>
		<path class="st0" d="M213.7,173.1c-0.7,2.4-3.2,3.9-5.6,3.3c-2.4-0.7-3.9-3.2-3.2-5.6c0.7-2.4,3.2-3.9,5.6-3.2
			C212.8,168.1,214.4,170.7,213.7,173.1"/>
		<path class="st0" d="M84.7,313.7c-2.3-0.5-3.9-3.2-3.3-5.5s3.2-4,5.6-3.3c2.3,0.5,3.9,3.2,3.3,5.5
			C89.6,312.8,86.9,314.3,84.7,313.7"/>
		<path class="st0" d="M213.9,268.3c-2.3-0.5-3.9-3.3-3.3-5.6c0.5-2.3,3.3-3.9,5.6-3.3c2.3,0.5,3.9,3.3,3.3,5.6
			C218.9,267.3,216.1,268.8,213.9,268.3"/>
		<path class="st0" d="M208.3,277.5c-2.3-0.5-3.9-3.2-3.3-5.5c0.5-2.3,3.2-3.9,5.5-3.3c2.3,0.5,3.9,3.2,3.3,5.5
			C213.2,276.4,210.5,278,208.3,277.5"/>
		<path class="st0" d="M117.5,321.6c-2.3-0.5-3.9-3.2-3.3-5.5s3.2-3.9,5.5-3.3c2.3,0.5,3.9,3.2,3.3,5.5
			C122.4,320.5,119.9,322.1,117.5,321.6"/>
		<path class="st0" d="M227.6,226.3c-2.5-0.8-3.9-3.1-3.2-5.6s3.1-3.9,5.5-3.2c2.5,0.7,3.9,3.1,3.2,5.5
			C232.4,225.5,230,226.7,227.6,226.3"/>
		<path class="st0" d="M178.7,299.2c2.3,0.7,3.9,2.9,3.3,5.5c-0.5,2.3-2.9,3.9-5.3,3.3c-2.3-0.5-4-2.9-3.3-5.5
			C173.7,300.3,176.1,298.8,178.7,299.2"/>
		<path class="st0" d="M202.5,286.4c-2.3-0.7-3.9-2.9-3.3-5.5c0.5-2.3,2.9-3.9,5.3-3.3c2.4,0.5,4,2.9,3.3,5.5
			C207.5,285.5,205.1,286.8,202.5,286.4"/>
		<path class="st0" d="M219.5,259.1c-2.5-0.8-3.7-3.3-3.2-5.6c0.8-2.5,3.5-3.7,5.6-3.2c2.5,0.8,3.7,3.5,3.1,5.6
			C224.3,258.4,221.6,259.6,219.5,259.1"/>
		<path class="st0" d="M95.9,310.5c2.4,0.5,3.7,3.1,3.2,5.5s-3.1,3.7-5.5,3.2c-2.3-0.5-3.7-3.1-3.2-5.3
			C90.9,311.5,93.5,310,95.9,310.5"/>
		<path class="st0" d="M231.7,184.3c-0.5,2.3-3.1,3.9-5.3,3.2c-2.4-0.5-3.9-3.1-3.2-5.5c0.5-2.3,3.1-3.7,5.3-3.2
			C230.9,179.5,232.4,182,231.7,184.3"/>
		<path class="st0" d="M225.3,250c-2.3-0.5-3.9-3.1-3.2-5.3c0.5-2.4,3.1-3.9,5.3-3.3c2.3,0.5,3.7,3.1,3.2,5.3
			C230.1,249.1,227.6,250.5,225.3,250"/>
		<path class="st0" d="M154.5,186.7c-0.7,2.3-3.1,3.7-5.5,3.1c-2.3-0.7-3.7-3.1-3.2-5.5c0.7-2.3,3.2-3.7,5.5-3.2
			C153.7,181.9,155.2,184.4,154.5,186.7"/>
		<path class="st0" d="M152.9,314.9c0.5-2.3,3.1-3.9,5.3-3.2c2.3,0.5,3.9,3.1,3.2,5.3c-0.5,2.3-3.1,3.7-5.3,3.2
			C153.9,319.7,152.3,317.3,152.9,314.9"/>
		<path class="st0" d="M229.9,202.4c-2.3-0.5-3.7-3.1-3.2-5.3c0.5-2.3,3.1-3.9,5.5-3.2c2.3,0.7,3.7,3.1,3.2,5.3
			C234.5,201.5,232.1,202.9,229.9,202.4"/>
		<path class="st0" d="M146.8,320.5c-0.5,2.3-3.1,3.7-5.3,3.2c-2.3-0.5-3.9-3.1-3.2-5.5c0.5-2.3,3.1-3.7,5.3-3.2
			C145.9,315.7,147.3,318.3,146.8,320.5"/>
		<path class="st0" d="M196.9,295.5c-2.3-0.5-3.9-3.1-3.2-5.3c0.5-2.4,3.1-3.9,5.3-3.2c2.3,0.5,3.7,3.1,3.2,5.3
			S199.3,296,196.9,295.5"/>
		<path class="st0" d="M102.8,324.9c-2.3-0.5-3.7-3.1-3.2-5.3c0.5-2.3,3.1-3.7,5.3-3.2s3.7,3.1,3.2,5.3
			C107.6,324,105.1,325.5,102.8,324.9"/>
		<path class="st0" d="M126.5,327.2c-2.3-0.5-3.7-3.1-3.2-5.3c0.5-2.3,3.1-3.7,5.3-3.2c2.3,0.5,3.7,3.1,3.2,5.3
			C131.2,326.1,128.7,327.7,126.5,327.2"/>
		<path class="st0" d="M54.1,291.3c0.5-2.3,3.1-3.9,5.3-3.3c2.3,0.5,3.9,3.1,3.3,5.3c-0.5,2.3-3.1,3.9-5.2,3.3
			C55.1,296.1,53.6,293.6,54.1,291.3"/>
		<path class="st0" d="M233.1,217.1c-2.3-0.5-3.7-3.1-3.2-5.3c0.5-2.3,3.1-3.7,5.3-3.2c2.3,0.5,3.7,3.1,3.2,5.3
			C237.9,216.1,235.3,217.6,233.1,217.1"/>
		<path class="st0" d="M233.2,232.3c2.3,0.7,3.7,3.2,3.1,5.3c-0.7,2.3-3.3,3.7-5.3,3.1c-2.3-0.7-3.6-3.2-3.1-5.3
			S231.1,231.7,233.2,232.3"/>
		<path class="st0" d="M188.1,299.1c0.5-2.3,3.2-3.7,5.3-3.2c2.3,0.7,3.7,3.2,3.1,5.3c-0.7,2.3-3.2,3.7-5.3,3.1
			C189.1,303.9,187.5,301.2,188.1,299.1"/>
		<path class="st0" d="M176.1,313.6c-0.5,2.3-3.1,3.7-5.3,3.2s-3.7-3.1-3.2-5.3c0.5-2.1,3.1-3.7,5.2-3.2
			C175.1,308.8,176.7,311.5,176.1,313.6"/>
		<path class="st0" d="M74.9,313.7c-0.5,2.3-2.8,3.7-5.2,3.1c-2.3-0.5-3.7-2.8-3.1-5.2c0.5-2.3,2.8-3.6,5.1-3.1
			C74.1,309.2,75.5,311.5,74.9,313.7"/>
		<path class="st0" d="M60.8,311.2c-2.4-0.5-3.7-2.8-3.2-5.2c0.5-2.4,2.8-3.7,5.2-3.2c2.4,0.5,3.7,2.8,3.1,5.2
			C65.3,310.4,63.1,311.7,60.8,311.2"/>
		<path class="st0" d="M116.9,327.3c-0.5,2.3-2.9,3.7-5.2,3.1c-2.3-0.5-3.6-2.9-3.1-5.2c0.5-2.3,2.9-3.7,5.2-3.1
			C116.1,322.8,117.6,325.1,116.9,327.3"/>
		<path class="st0" d="M78.9,322.5c-2.3-0.5-3.7-2.9-3.2-5.1c0.5-2.3,2.9-3.7,5.2-3.2c2.1,0.5,3.6,2.9,3.1,5.2
			C83.6,321.6,81.2,323.1,78.9,322.5"/>
		<path class="st0" d="M233.5,226.5c0.5-2.3,2.9-3.6,5.1-3.1c2.3,0.5,3.7,2.9,3.2,5.2c-0.5,2.1-2.9,3.6-5.2,3.1
			C234.4,231.1,232.9,228.7,233.5,226.5"/>
		<path class="st0" d="M190.7,310.4c-0.5,2.1-3.1,3.6-5.2,3.1s-3.6-3.1-3.1-5.2s3.1-3.6,5.2-3.1
			C189.9,305.7,191.2,308.3,190.7,310.4"/>
		<path class="st0" d="M235.5,193.1c-2.1-0.5-3.6-3.1-3.1-5.2c0.5-2.1,3.1-3.6,5.2-3.1c2.1,0.5,3.6,3.1,3.1,5.2
			C240,192.1,237.6,193.6,235.5,193.1"/>
		<path class="st0" d="M217.2,282.7c-2.1-0.5-3.6-3.1-3.1-5.2s3.1-3.6,5.2-3.1c2.1,0.5,3.6,3.1,3.1,5.2S219.3,283.2,217.2,282.7"/>
		<path class="st0" d="M219.9,268.5c0.5-2.1,2.9-3.6,5.1-3.1c2.1,0.5,3.7,3.1,3.2,5.2s-3.1,3.6-5.2,3.1
			C220.9,273.2,219.3,270.7,219.9,268.5"/>
		<path class="st0" d="M152.5,321.1c2.1,0.5,3.6,3.1,3.1,5.2s-3.1,3.6-5.2,3.1s-3.6-3.1-2.9-5.2C147.9,322,150.4,320.5,152.5,321.1"
			/>
		<path class="st0" d="M232,178.3c-2.1-0.5-3.6-2.9-3.1-5.1c0.5-2.1,3.1-3.6,5.2-3.1c2.1,0.5,3.6,3.1,3.1,5.2
			C236.5,177.3,234.1,178.8,232,178.3"/>
		<path class="st0" d="M244,204.7c-0.5,2.1-2.9,3.6-5.1,3.1c-2.1-0.5-3.6-3.1-3.1-5.2c0.5-2.1,3.1-3.6,5.2-3.1
			C243.1,200.1,244.5,202.5,244,204.7"/>
		<path class="st0" d="M88,328.1c-2.1-0.5-3.6-2.9-3.1-5.1s2.9-3.6,5.2-3.1c2.1,0.5,3.6,3.1,3.1,5.2C92.5,327.2,90.1,328.7,88,328.1
			"/>
		<path class="st0" d="M211.7,291.9c-2.1-0.5-3.6-2.9-3.1-5.1c0.5-2.1,2.9-3.7,5.2-3.1c2.1,0.5,3.6,2.9,3.1,5.1
			C216.4,290.9,213.9,292.4,211.7,291.9"/>
		<path class="st0" d="M233.9,261.5c-0.5,2.1-2.9,3.6-5.1,3.2c-2.1-0.5-3.7-2.9-3.2-5.2c0.5-2.1,2.9-3.6,5.1-3.1
			C232.9,256.8,234.4,259.2,233.9,261.5"/>
		<path class="st0" d="M135.7,332.7c-2.1-0.5-3.6-2.9-3.1-5.1c0.5-2.1,2.9-3.6,5.2-3.1c2.1,0.5,3.6,2.9,3.1,5.1
			C140.3,331.9,137.9,333.2,135.7,332.7"/>
		<path class="st0" d="M162,320.8c0.5-2.1,2.9-3.6,5.1-3.1c2.1,0.5,3.6,2.9,3.1,5.1c-0.5,2.1-2.9,3.6-5.1,3.1
			C163.1,325.3,161.6,322.9,162,320.8"/>
		<path class="st0" d="M206,300.8c-2.1-0.5-3.6-3.1-3.1-5.2c0.5-2,3.1-3.6,5.1-3.1c2.1,0.5,3.6,3.1,3.1,5.2
			C210.5,299.9,208.1,301.3,206,300.8"/>
		<path class="st0" d="M234.3,255.5c-2-0.5-3.5-3.1-3.1-5.1c0.5-2.1,3.1-3.7,5.1-3.1c2.4,0.8,3.6,2.9,3.1,5.2
			C238.9,254.5,236.3,256,234.3,255.5"/>
		<path class="st0" d="M123.1,328c2.3,0.5,3.5,2.7,2.9,4.9c-0.5,2.3-2.7,3.5-5.1,2.9c-2-0.4-3.6-2.9-2.9-5.1
			C118.7,328.7,120.8,327.3,123.1,328"/>
		<path class="st0" d="M102.1,330.8c-0.3,2-3.1,3.5-4.9,3.1c-2-0.5-3.6-3.1-3.1-5.1c0.5-1.9,3.1-3.5,5.1-3.1
			C101.1,326.3,102.8,328.9,102.1,330.8"/>
		<path class="st0" d="M242.4,222.3c-2-0.3-3.5-3.1-2.9-4.9c0.5-1.9,3.1-3.6,5.1-2.9c1.9,0.5,3.5,3.1,2.9,5.1
			C246.9,221.3,244.3,223.1,242.4,222.3"/>
		<path class="st0" d="M176.9,317.2c0.5-2.1,2.8-3.5,4.9-2.9c2.1,0.5,3.5,2.9,2.9,5.1c-0.5,2.1-2.9,3.5-5.1,2.8
			C177.7,321.7,176.4,319.3,176.9,317.2"/>
		<path class="st0" d="M220.1,167.5c0.5-2.1,2.8-3.5,4.9-2.9c2.1,0.5,3.5,2.9,2.9,4.9c-0.5,2.1-2.8,3.5-4.9,2.9
			C220.9,172,219.6,169.6,220.1,167.5"/>
		<path class="st0" d="M240.1,246.3c-2.1-0.5-3.6-2.8-3.1-4.9c0.5-2.1,2.8-3.6,4.9-3.1c2.1,0.5,3.5,2.8,2.9,4.9
			C244.5,245.3,242.3,246.8,240.1,246.3"/>
		<path class="st0" d="M202.3,301.9c2.1,0.5,3.5,2.9,2.9,4.9c-0.5,2.1-2.9,3.5-4.9,2.9c-2.1-0.5-3.5-2.8-2.9-4.9
			C197.9,302.8,200.1,301.3,202.3,301.9"/>
		<path class="st0" d="M144.8,338.1c-2-0.5-3.5-2.9-2.9-4.9c0.5-2,2.9-3.5,4.9-2.9s3.5,2.9,2.9,4.9
			C149.1,337.3,147.1,338.5,144.8,338.1"/>
		<path class="st0" d="M52.1,315.1c0.5-2,2.9-3.5,4.9-2.9s3.5,2.9,2.9,4.9c-0.5,2-2.8,3.5-4.8,2.9C53.1,319.5,51.7,317.1,52.1,315.1
			"/>
		<path class="st0" d="M249.6,195.7c-0.5,2-2.9,3.5-4.9,2.9c-2.3-0.7-3.3-2.8-2.9-4.9c0.5-2,2.9-3.3,4.9-2.9
			C248.7,191.2,250.1,193.6,249.6,195.7"/>
		<path class="st0" d="M238.3,178.8c0.5-2,2.9-3.5,4.9-2.9c2,0.5,3.5,2.9,2.9,4.9c-0.5,2-2.8,3.5-4.9,2.9
			C239.2,183.2,237.7,180.8,238.3,178.8"/>
		<path class="st0" d="M111.1,336.3c-0.4,2-2.8,3.5-4.8,2.9c-2.1-0.5-3.5-2.7-3.1-4.9c0.4-2,2.9-3.5,4.8-2.9
			C110,331.9,111.5,334.3,111.1,336.3"/>
		<path class="st0" d="M159.7,334.7c-2-0.4-3.5-2.8-2.9-4.8c0.5-2.1,2.7-3.5,4.9-2.9c2,0.4,3.5,2.8,2.9,4.8
			C164.1,333.7,161.7,335.2,159.7,334.7"/>
		<path class="st0" d="M69.2,322.8c-0.5,2-2.9,3.5-4.9,2.9c-2.1-0.7-3.5-2.9-2.9-4.9c0.7-2.1,2.9-3.3,4.9-2.8
			C68.3,318.4,69.7,320.8,69.2,322.8"/>
		<path class="st0" d="M242.8,232.3c0.5-2,2.9-3.5,4.9-2.9c2,0.5,3.5,2.9,2.9,4.9c-0.5,2-2.9,3.5-4.9,2.9
			C243.9,236.7,242.4,234.3,242.8,232.3"/>
		<path class="st0" d="M127.2,336.7c0.3-1.9,2.8-3.5,4.8-2.8s3.2,2.7,2.8,4.8c-0.4,1.9-2.8,3.5-4.9,2.8
			C127.9,340.8,126.7,338.8,127.2,336.7"/>
		<path class="st0" d="M73.3,331.3c-2.1-0.5-3.5-2.7-2.9-4.8s2.7-3.3,4.7-2.8c2.1,0.5,3.5,2.7,2.9,4.8
			C77.5,330.5,75.5,331.9,73.3,331.3"/>
		<path class="st0" d="M194.8,318.7c-1.9-0.3-3.5-2.8-2.8-4.8s2.7-3.2,4.8-2.8c1.7,0.4,3.5,2.8,2.8,4.9
			C198.9,318,196.9,319.2,194.8,318.7"/>
		<path class="st0" d="M174.4,331.3c-2.1-0.5-3.3-2.7-2.8-4.8s2.7-3.3,4.8-2.8s3.3,2.7,2.8,4.8C178.5,330.5,176.4,331.9,174.4,331.3
			"/>
		<path class="st0" d="M248.1,213.2c-2.1-0.5-3.5-2.7-2.9-4.7c0.5-2.1,2.7-3.5,4.8-2.9c2.1,0.5,3.3,2.7,2.8,4.8
			C252.4,212.4,250.3,213.7,248.1,213.2"/>
		<path class="st0" d="M218,292.4c0.5-2,2.7-3.3,4.8-2.9c2,0.5,3.3,2.7,2.8,4.8c-0.5,2-2.7,3.3-4.7,2.8
			C218.8,296.7,217.5,294.4,218,292.4"/>
		<path class="st0" d="M234.9,265.2c0.5-2,2.8-3.3,4.8-2.8s3.3,2.8,2.8,4.8s-2.7,3.3-4.8,2.8C235.7,269.5,234.4,267.2,234.9,265.2"
			/>
		<path class="st0" d="M229.5,274.3c0.5-2,2.7-3.3,4.7-2.9c2.1,0.5,3.3,2.7,2.9,4.8c-0.5,2-2.7,3.3-4.8,2.9
			C230.3,278.4,228.9,276.3,229.5,274.3"/>
		<path class="st0" d="M226.5,288.1c-2.1-0.5-3.3-2.7-2.9-4.8c0.5-2,2.7-3.3,4.8-2.9c2,0.5,3.3,2.7,2.9,4.8
			C230.8,287.3,228.7,288.7,226.5,288.1"/>
		<path class="st0" d="M82.4,336.8c-2-0.5-3.3-2.8-2.8-4.8s2.8-3.3,4.8-2.8s3.3,2.8,2.8,4.8C86.7,336.1,84.4,337.3,82.4,336.8"/>
		<path class="st0" d="M256.3,225.1c-0.4,2-2.8,3.3-4.7,2.8c-2-0.5-3.3-2.7-2.8-4.7c0.4-2,2.8-3.3,4.7-2.8
			C255.5,220.8,256.8,223.1,256.3,225.1"/>
		<path class="st0" d="M243.6,260.8c-2-0.5-3.3-2.8-2.8-4.8c0.5-2,2.8-3.2,4.7-2.8c2,0.5,3.3,2.9,2.8,4.8
			C247.7,259.9,245.5,261.2,243.6,260.8"/>
		<path class="st0" d="M220,303.5c-0.5,2-2.8,3.3-4.8,2.8c-1.9-0.5-3.2-2.8-2.8-4.7c0.5-2,2.9-3.3,4.8-2.8
			C219.2,299.2,220.5,301.6,220,303.5"/>
		<path class="st0" d="M186.3,323.1c0.5-2,2.7-3.3,4.7-2.8s3.3,2.8,2.8,4.7c-0.5,2-2.8,3.3-4.7,2.8
			C187.2,327.3,185.7,325.1,186.3,323.1"/>
		<path class="st0" d="M115.3,344.8c-2-0.4-3.3-2.8-2.8-4.7c0.5-1.9,2.7-3.3,4.7-2.8c2,0.4,3.3,2.8,2.8,4.7
			C119.6,343.9,117.3,345.3,115.3,344.8"/>
		<path class="st0" d="M88.7,337.9c0.7-2,2.4-3.2,4.7-2.8c1.9,0.4,3.3,2.8,2.9,4.7c-0.5,1.9-2.8,3.3-4.7,2.8
			C89.6,342,88.1,339.7,88.7,337.9"/>
		<path class="st0" d="M247.6,184.7c0.7-2,2.4-3.3,4.7-2.8c2.1,0.5,3.3,2.4,2.8,4.7c-0.5,2.1-2.4,3.3-4.5,2.8
			C248.4,188.7,247.3,186.8,247.6,184.7"/>
		<path class="st0" d="M247.1,174.4c-2-0.5-3.2-2.5-2.8-4.5c0.5-2.1,2.5-3.3,4.5-2.8s3.2,2.5,2.7,4.5
			C251.1,173.7,249.1,174.9,247.1,174.4"/>
		<path class="st0" d="M154,343.6c-2-0.5-3.2-2.5-2.8-4.5c0.5-2,2.5-3.3,4.5-2.8s3.2,2.5,2.7,4.5C158,342.8,156,344,154,343.6"/>
		<path class="st0" d="M209.6,315.1c-2-0.5-3.2-2.5-2.7-4.5s2.5-3.2,4.7-2.8c2,0.5,3.2,2.5,2.7,4.5
			C213.6,314.4,211.6,315.6,209.6,315.1"/>
		<path class="st0" d="M253.9,248.9c-0.5,2-2.5,3.2-4.5,2.8c-2-0.5-3.2-2.5-2.8-4.7c0.5-2,2.5-3.2,4.5-2.7
			C253.2,244.8,254.4,246.9,253.9,248.9"/>
		<path class="st0" d="M258.3,201.2c-0.5,2-2.7,3.2-4.5,2.7c-2-0.5-3.2-2.7-2.7-4.7s2.5-3.2,4.7-2.7
			C257.6,197.1,258.8,199.2,258.3,201.2"/>
		<path class="st0" d="M136.5,342.4c0.5-2,2.5-3.2,4.5-2.7s3.2,2.5,2.7,4.5s-2.5,3.2-4.5,2.7C137.2,346.5,136,344.4,136.5,342.4"/>
		<path class="st0" d="M168.7,340.1c-2-0.5-3.2-2.5-2.8-4.5c0.5-2,2.5-3.2,4.5-2.8c2,0.5,3.2,2.5,2.8,4.5
			C172.8,339.3,170.7,340.7,168.7,340.1"/>
		<path class="st0" d="M98,343.6c0.5-1.9,2.7-3.2,4.5-2.7s3.2,2.8,2.7,4.5c-0.5,1.9-2.7,3.1-4.5,2.7C98.8,347.6,97.5,345.5,98,343.6
			"/>
		<path class="st0" d="M121.6,345.9c0.4-1.9,2.7-3.2,4.5-2.7c1.9,0.5,3.2,2.7,2.7,4.5c-0.5,1.9-2.5,3.2-4.5,2.7
			C122.5,350,121.2,347.7,121.6,345.9"/>
		<path class="st0" d="M257.2,218.7c-1.9-0.4-3.2-2.7-2.8-4.5c0.5-1.9,2.7-3.2,4.5-2.7c1.9,0.5,3.2,2.5,2.7,4.4
			C261.2,217.9,259.1,219.2,257.2,218.7"/>
		<path class="st0" d="M58.5,334.5c-1.9-0.5-3.1-2.7-2.7-4.5s2.7-3.2,4.5-2.7c1.9,0.5,3.2,2.7,2.7,4.5
			C62.5,333.7,60.4,334.9,58.5,334.5"/>
		<path class="st0" d="M183.5,336.7c-1.9-0.4-3.2-2.7-2.8-4.5c0.5-1.9,2.5-3.2,4.5-2.7c1.9,0.4,3.2,2.7,2.7,4.5
			C187.5,335.7,185.3,337.1,183.5,336.7"/>
		<path class="st0" d="M259.3,239.7c-0.5,1.9-2.7,3.2-4.5,2.7c-1.9-0.5-3.1-2.7-2.7-4.5c0.5-1.9,2.7-3.2,4.5-2.7
			C258.7,235.7,259.9,237.9,259.3,239.7"/>
		<path class="st0" d="M201.2,319.7c0.5-1.9,2.5-3.2,4.4-2.7c1.9,0.4,3.2,2.7,2.8,4.5c-0.5,1.9-2.7,3.2-4.5,2.7
			C202,323.7,200.7,321.6,201.2,319.7"/>
		<path class="st0" d="M65.1,335.6c0.4-1.9,2.7-3.2,4.4-2.7c1.9,0.4,3.2,2.7,2.7,4.5c-0.5,1.9-2.7,3.1-4.5,2.7
			C66,339.6,64.7,337.5,65.1,335.6"/>
		<path class="st0" d="M71.1,253.7c-1.9-0.5-3.1-2.4-2.5-4.4s2.4-3.1,4.4-2.5c1.9,0.5,3.1,2.4,2.5,4.4
			C74.9,253.1,72.9,254.3,71.1,253.7"/>
		<path class="st0" d="M49.2,300.4c0.5-1.9,2.4-3.1,4.4-2.5c1.9,0.5,3.1,2.4,2.5,4.4c-0.5,1.9-2.4,3.1-4.4,2.5
			C49.9,304.3,48.7,302.4,49.2,300.4"/>
		<path class="st0" d="M238.8,280c0.5-2,2.4-3.1,4.4-2.7c2,0.5,3.1,2.4,2.5,4.4c-0.5,2-2.4,3.1-4.4,2.7
			C239.5,283.9,238.3,281.9,238.8,280"/>
		<path class="st0" d="M74.3,240.3c0.5-1.9,2.4-3.1,4.4-2.5c1.9,0.5,3.1,2.4,2.5,4.4c-0.5,2-2.4,3.1-4.4,2.7
			C74.9,244.1,73.7,242.1,74.3,240.3"/>
		<path class="st0" d="M240,290.8c-0.5,2-2.4,3.1-4.4,2.7c-2-0.5-3.1-2.4-2.7-4.3c0.5-2,2.4-3.1,4.4-2.7S240.4,288.9,240,290.8"/>
		<path class="st0" d="M76.8,345.7c-1.9-0.5-3.1-2.4-2.5-4.4c0.5-1.9,2.4-3.1,4.4-2.5c1.9,0.5,3.1,2.4,2.5,4.3
			C80.7,345.1,78.7,346.1,76.8,345.7"/>
		<path class="st0" d="M256,180c-1.9-0.5-3.1-2.5-2.5-4.4c0.5-1.9,2.5-3.1,4.4-2.5c1.9,0.5,3.1,2.5,2.5,4.4
			C259.9,179.3,257.9,180.4,256,180"/>
		<path class="st0" d="M109.7,353.5c-1.9-0.5-3.1-2.5-2.5-4.4c0.5-1.9,2.5-3.1,4.4-2.5s3.1,2.5,2.5,4.4
			C113.6,352.8,111.6,354,109.7,353.5"/>
		<path class="st0" d="M230.1,302.5c-1.9-0.4-3.1-2.4-2.7-4.4c0.4-1.9,2.4-3.1,4.3-2.7c1.9,0.4,3.1,2.4,2.7,4.4
			C234,301.7,232,302.9,230.1,302.5"/>
		<path class="st0" d="M247.1,275.3c-1.9-0.5-3.1-2.5-2.5-4.4c0.5-1.9,2.5-3.1,4.4-2.5c1.9,0.5,3.1,2.5,2.7,4.4
			C250.9,274.7,248.9,275.9,247.1,275.3"/>
		<path class="st0" d="M256.9,190.4c0.4-1.9,2.5-3.1,4.3-2.7c1.9,0.4,3.1,2.5,2.7,4.4c-0.4,1.7-2.5,3.1-4.3,2.5
			C257.7,194.3,256.4,192.1,256.9,190.4"/>
		<path class="st0" d="M145.6,348.1c0.5-1.7,2.5-3.1,4.4-2.5c1.9,0.4,3.1,2.5,2.7,4.4c-0.5,1.9-2.5,3.1-4.4,2.5
			C146.4,352,145.2,350,145.6,348.1"/>
		<path class="st0" d="M195.7,328.8c0.4-1.9,2.5-3.1,4.4-2.7s3.1,2.5,2.5,4.4c-0.4,1.7-2.5,2.9-4.3,2.5
			C196.5,332.7,195.3,330.5,195.7,328.8"/>
		<path class="st0" d="M228.7,309.1c-0.5,1.9-2.5,3.1-4.4,2.5c-1.9-0.5-3.1-2.5-2.5-4.4c0.5-1.7,2.5-2.9,4.3-2.5
			C227.9,305.2,229.1,307.2,228.7,309.1"/>
		<path class="st0" d="M162.9,349.1c-1.9-0.4-3.1-2.5-2.5-4.4c0.4-1.9,2.5-3.1,4.4-2.5c1.7,0.5,2.9,2.5,2.5,4.3
			S164.8,349.5,162.9,349.1"/>
		<path class="st0" d="M69.9,260.3c-0.5,1.9-2.5,3.1-4.4,2.5c-1.7-0.5-2.9-2.7-2.5-4.4c0.5-1.7,2.5-2.9,4.4-2.5
			C69.1,256.3,70.3,258.4,69.9,260.3"/>
		<path class="st0" d="M258.1,228.9c0.4-1.7,2.7-2.9,4.3-2.5c1.7,0.4,2.9,2.5,2.5,4.3c-0.4,1.7-2.5,2.9-4.3,2.5
			C258.9,232.8,257.6,230.7,258.1,228.9"/>
		<path class="st0" d="M262.9,209.3c-1.7-0.4-2.9-2.5-2.5-4.3c0.4-1.7,2.5-2.9,4.3-2.5c1.7,0.5,2.9,2.5,2.5,4.3
			C266.8,208.5,264.7,209.9,262.9,209.3"/>
		<path class="st0" d="M133.6,355.7c-1.7-0.4-2.9-2.5-2.5-4.3c0.4-1.7,2.5-2.9,4.3-2.5c1.7,0.4,3.1,2.5,2.5,4.3
			C137.5,354.9,135.3,356.3,133.6,355.7"/>
		<path class="st0" d="M90.3,348.8c-0.4,1.7-2.5,3.1-4.3,2.7c-1.7-0.4-3.1-2.5-2.7-4.3c0.4-1.7,2.5-3.1,4.3-2.7
			C89.3,344.9,90.7,347.1,90.3,348.8"/>
		<path class="st0" d="M175.3,341.3c0.4-1.7,2.5-3.1,4.3-2.7c1.7,0.4,3.1,2.5,2.5,4.3c-0.4,1.7-2.5,2.9-4.3,2.5
			C176.3,345.3,174.9,343.2,175.3,341.3"/>
		<path class="st0" d="M82.5,235.6c-1.7-0.4-3.1-2.5-2.7-4.3c0.4-1.7,2.5-3.1,4.3-2.5c1.7,0.4,2.9,2.5,2.5,4.3
			C86.4,234.7,84.3,236,82.5,235.6"/>
		<path class="st0" d="M218.7,320.5c-1.7-0.7-3.1-2.1-2.5-4.1c0.4-1.9,2.1-3.1,4.1-2.7c1.9,0.4,3.1,2,2.5,4.1
			C222.5,319.7,220.8,320.9,218.7,320.5"/>
		<path class="st0" d="M192.7,342.1c-1.7-0.4-2.9-2.4-2.5-4.1s2.4-2.9,4.1-2.5s2.9,2.4,2.5,4.1C196.4,341.2,194.4,342.5,192.7,342.1
			"/>
		<path class="st0" d="M118.9,359.1c-1.7-0.4-2.9-2.5-2.5-4.1c0.4-1.7,2.5-2.9,4.1-2.4c1.6,0.4,2.8,2.4,2.4,4.1
			C122.7,358.3,120.5,359.6,118.9,359.1"/>
		<path class="st0" d="M94.9,356.8c-1.7-0.4-2.9-2.5-2.4-4.1c0.4-1.7,2.5-2.9,4.3-2.4c1.6,0.4,2.8,2.4,2.4,4.1
			C98.8,356,96.7,357.2,94.9,356.8"/>
		<path class="st0" d="M213.1,329.6c-1.7-0.4-2.8-2.4-2.4-4.1s2.4-2.9,4.1-2.4c1.7,0.5,2.8,2.4,2.4,4.1
			C216.7,328.9,214.8,330,213.1,329.6"/>
		<path class="st0" d="M114.3,204.7c-1.7-0.5-2.8-2.4-2.4-4.1c0.5-1.7,2.5-2.9,4.1-2.4c1.7,0.5,2.8,2.5,2.3,4.1
			C117.9,204,115.9,205.1,114.3,204.7"/>
		<path class="st0" d="M235.5,164.3c0.4-1.6,2.5-2.8,4.1-2.4c1.6,0.4,2.8,2.4,2.4,4c-0.4,1.6-2.5,2.9-4.1,2.5
			C236.4,167.9,235.1,165.9,235.5,164.3"/>
		<path class="st0" d="M157.5,357.9c-1.6-0.4-2.8-2.5-2.4-4.1c0.4-1.6,2.4-2.8,4-2.4s2.9,2.4,2.5,4
			C161.2,357.1,159.1,358.3,157.5,357.9"/>
		<path class="st0" d="M265.3,185.3c-1.6-0.4-2.9-2.4-2.5-4.1c0.4-1.6,2.5-2.9,4.1-2.4c1.6,0.4,2.8,2.4,2.4,4
			C269.1,184.4,266.9,185.7,265.3,185.3"/>
		<path class="st0" d="M268.7,200.3c-1.6-0.4-2.9-2.5-2.4-4.1c0.4-1.6,2.4-2.8,4-2.4s2.9,2.5,2.4,4.1
			C272.3,199.5,270.3,200.7,268.7,200.3"/>
		<path class="st0" d="M142.8,361.3c-1.6-0.4-2.8-2.4-2.4-4c0.4-1.6,2.4-2.9,4.1-2.5c1.6,0.4,2.9,2.5,2.4,4.1
			C146.4,360.5,144.4,361.7,142.8,361.3"/>
		<path class="st0" d="M53.1,343.2c-1.6-0.4-2.9-2.4-2.5-4c0.5-1.7,2-2.8,4-2.5c1.6,0.3,2.9,2.4,2.4,4
			C56.5,342.4,55.1,343.5,53.1,343.2"/>
		<path class="st0" d="M62.1,348.9c-1.6-0.4-2.9-2.5-2.4-4.1c0.4-1.6,2.4-2.8,4-2.4s2.9,2.5,2.4,4.1
			C65.7,348.1,63.7,349.3,62.1,348.9"/>
		<path class="st0" d="M172.3,354.4c-1.7-0.4-2.8-2.3-2.3-4c0.4-1.7,2.3-2.7,4-2.3c1.7,0.4,2.8,2.3,2.3,4
			C175.7,353.7,174,354.8,172.3,354.4"/>
		<path class="st0" d="M134.8,192.1c-1.7-0.4-2.8-2.1-2.4-4c0.4-1.7,2.1-2.8,4-2.3c1.7,0.4,2.8,2.1,2.4,4
			C138.3,191.5,136.5,192.5,134.8,192.1"/>
		<path class="st0" d="M71.2,354.4c-1.6-0.4-2.8-2.3-2.4-3.9c0.4-1.7,2.3-2.8,4-2.4s2.8,2.3,2.4,4C74.7,353.6,72.9,354.8,71.2,354.4
			"/>
		<path class="st0" d="M104.3,362.4c-1.7-0.4-2.8-2.3-2.4-3.9c0.4-1.7,2.3-2.8,4-2.4s2.8,2.3,2.4,3.9
			C107.7,361.7,105.9,362.8,104.3,362.4"/>
		<path class="st0" d="M49.7,328.4c-1.7-0.4-2.8-2.3-2.4-3.9c0.4-1.7,2.3-2.8,4-2.4c1.6,0.4,2.8,2.3,2.4,4
			C53.2,327.7,51.5,328.8,49.7,328.4"/>
		<path class="st0" d="M252.7,265.9c-1.6-0.4-2.8-2.3-2.4-4c0.4-1.7,2.3-2.8,4-2.4c1.6,0.4,2.8,2.3,2.3,4
			C256.3,265.2,254.4,266.3,252.7,265.9"/>
		<path class="st0" d="M57.5,267.7c0.4-1.7,2.3-2.8,3.9-2.4c1.7,0.4,2.8,2.3,2.4,4s-2.3,2.8-4,2.4C58.3,271.2,57.1,269.3,57.5,267.7
			"/>
		<path class="st0" d="M125.6,360.7c0.4-1.6,2.3-2.8,4-2.4c1.6,0.4,2.8,2.3,2.3,4c-0.4,1.6-2.3,2.7-3.9,2.3
			C126.3,364.3,125.2,362.4,125.6,360.7"/>
		<path class="st0" d="M205.1,334.5c0.4-1.6,2.3-2.8,4-2.4c1.6,0.4,2.8,2.4,2.3,4c-0.4,1.6-2.3,2.7-3.9,2.3
			C205.7,338.1,204.7,336.1,205.1,334.5"/>
		<path class="st0" d="M184.7,347.1c0.4-1.6,2.3-2.7,3.9-2.4c1.6,0.4,2.8,2.3,2.4,3.9c-0.4,1.6-2.4,2.8-4,2.3
			C185.3,350.5,184.3,348.8,184.7,347.1"/>
		<path class="st0" d="M233.6,316.9c-1.6-0.4-2.8-2.3-2.4-3.9c0.4-1.6,2.3-2.7,3.9-2.4c1.6,0.4,2.8,2.3,2.4,3.9
			C237.1,316.1,235.3,317.3,233.6,316.9"/>
		<path class="st0" d="M80.4,360c-1.6-0.4-2.8-2.4-2.3-3.9c0.4-1.5,2.4-2.7,3.9-2.3c1.6,0.4,2.8,2.4,2.4,3.9
			C83.9,359.3,81.9,360.4,80.4,360"/>
		<path class="st0" d="M182.4,168.8c0.4-1.6,2.4-2.8,4-2.3c1.5,0.4,2.7,2.4,2.3,3.9c-0.4,1.6-2.4,2.8-4,2.3
			C183.1,172.3,182,170.4,182.4,168.8"/>
		<path class="st0" d="M261.9,170.4c-1.6-0.4-2.7-2.3-2.3-3.9c0.4-1.6,2.4-2.8,3.9-2.4c1.6,0.4,2.8,2.4,2.3,4
			C265.3,169.7,263.3,170.8,261.9,170.4"/>
		<path class="st0" d="M197.1,165.5c0.4-1.6,2.3-2.7,3.9-2.3s2.7,2.3,2.4,3.9c-0.4,1.6-2.3,2.7-3.9,2.3S196.7,166.9,197.1,165.5"/>
		<path class="st0" d="M227.9,325.9c-1.6-0.4-2.7-2.1-2.3-3.7c0.4-1.7,2.1-2.7,3.7-2.3c1.6,0.4,2.5,2.1,2.1,3.7
			C231.2,325.3,229.5,326.3,227.9,325.9"/>
		<path class="st0" d="M113.2,367.9c-1.6-0.4-2.7-2.1-2.3-3.7c0.4-1.6,2.1-2.7,3.7-2.3c1.6,0.4,2.7,2.1,2.3,3.7
			C116.5,367.3,114.8,368.3,113.2,367.9"/>
		<path class="st0" d="M242.9,305.5c-0.4,1.6-2.1,2.7-3.7,2.3c-1.6-0.4-2.7-2.1-2.3-3.7s2.1-2.7,3.7-2.3
			C242.3,302.1,243.3,303.9,242.9,305.5"/>
		<path class="st0" d="M268.7,172.3c0.4-1.6,2.1-2.7,3.7-2.3s2.7,2.1,2.3,3.7c-0.4,1.6-2.1,2.7-3.7,2.3
			C269.3,175.6,268.3,173.9,268.7,172.3"/>
		<path class="st0" d="M87.1,361.9c0.4-1.6,2.1-2.7,3.7-2.3s2.7,2.1,2.3,3.7c-0.4,1.6-2.1,2.7-3.7,2.3
			C87.7,365.2,86.7,363.5,87.1,361.9"/>
		<path class="st0" d="M201.7,347.5c-1.6-0.4-2.7-2.1-2.3-3.7s2.1-2.7,3.7-2.3c1.6,0.4,2.7,2.1,2.3,3.7
			C205.1,346.8,203.3,347.9,201.7,347.5"/>
		<path class="st0" d="M155.6,364.5c-0.4,1.5-2.1,2.7-3.7,2.3c-1.5-0.4-2.7-2.3-2.3-3.7c0.4-1.5,2.3-2.5,3.7-2.3
			C154.8,361.2,155.9,363.1,155.6,364.5"/>
		<path class="st0" d="M166.5,363.3c-1.5-0.4-2.7-2.3-2.3-3.7c0.4-1.5,2.3-2.7,3.7-2.3c1.5,0.4,2.5,2.3,2.1,3.7
			C169.9,362.7,168,363.7,166.5,363.3"/>
		<path class="st0" d="M270.3,221.5c-0.4,1.5-2.1,2.7-3.7,2.3s-2.7-2.3-2.3-3.7s2.3-2.5,3.7-2.3
			C269.5,218.1,270.7,219.9,270.3,221.5"/>
		<path class="st0" d="M274.4,190.7c-1.5-0.4-2.7-2.3-2.3-3.7s2.1-2.5,3.7-2.1c1.5,0.4,2.7,2.3,2.3,3.7
			C277.6,190,275.9,191.1,274.4,190.7"/>
		<path class="st0" d="M181.3,359.9c-1.5-0.4-2.5-2.1-2.1-3.6s2.3-2.7,3.7-2.3c1.5,0.4,2.7,2.3,2.1,3.7
			C184.5,359.2,182.8,360.3,181.3,359.9"/>
		<path class="st0" d="M140.8,367.9c-0.4,1.5-2.1,2.7-3.7,2.3c-1.5-0.4-2.5-2.1-2.3-3.6c0.4-1.5,2.1-2.7,3.7-2.3
			C140.1,364.7,141.2,366.4,140.8,367.9"/>
		<path class="st0" d="M222.3,334.8c-1.5-0.4-2.7-2.3-2.3-3.7s2.1-2.5,3.6-2.1s2.7,2.3,2.3,3.7C225.5,334.1,223.7,335.2,222.3,334.8
			"/>
		<path class="st0" d="M54.4,353.9c0.4-1.6,2-2.5,3.6-2.1c1.5,0.4,2.4,2,2,3.6s-2,2.5-3.6,2.1C54.9,357.1,54,355.5,54.4,353.9"/>
		<path class="st0" d="M88.3,225.7c-1.6-0.4-2.5-2-2.1-3.6s2-2.4,3.6-2s2.5,2,2.1,3.6C91.3,225.2,89.9,226.1,88.3,225.7"/>
		<path class="st0" d="M98.5,371.2c-1.5-0.4-2.5-2.1-2.1-3.6s2.1-2.5,3.6-2c1.5,0.4,2.4,2,2,3.5C101.7,370.5,100,371.6,98.5,371.2"
			/>
		<path class="st0" d="M120.4,369.9c0.4-1.5,2-2.5,3.6-2.1c1.5,0.4,2.5,2,2.1,3.6c-0.4,1.5-2,2.5-3.5,2.1
			C120.9,372.9,120,371.3,120.4,369.9"/>
		<path class="st0" d="M63.6,359.7c0.3-1.5,2-2.5,3.5-2.1c1.5,0.3,2.5,2.1,2.1,3.6s-2.1,2.5-3.5,2.1
			C64.3,362.8,63.2,361.2,63.6,359.7"/>
		<path class="st0" d="M196.3,356.3c-1.5-0.4-2.5-2-2.1-3.5s2.1-2.5,3.6-2.1s2.4,2.1,2.1,3.6C199.3,355.6,197.6,356.7,196.3,356.3"
			/>
		<path class="st0" d="M170,175.9c-1.5-0.4-2.4-2-2.1-3.5c0.4-1.5,2-2.4,3.5-2.1c1.5,0.4,2.4,2,2.1,3.5
			C173.2,175.2,171.5,176.3,170,175.9"/>
		<path class="st0" d="M216.7,343.9c-1.5-0.4-2.4-2-2.1-3.5c0.4-1.5,2-2.4,3.5-2.1c1.5,0.4,2.4,2,2.1,3.5
			C219.7,343.2,218.1,344.3,216.7,343.9"/>
		<path class="st0" d="M262,254.1c-0.4,1.5-2.1,2.5-3.5,2.1c-1.5-0.4-2.4-2-2.1-3.5s2-2.5,3.5-2.1
			C261.3,251.1,262.4,252.8,262,254.1"/>
		<path class="st0" d="M52.1,276.8c0.3-1.3,2.1-2.4,3.5-2.1c1.3,0.3,2.4,2,2.1,3.3c-0.3,1.3-2,2.4-3.5,2.1
			C53.1,280,51.9,278.1,52.1,276.8"/>
		<path class="st0" d="M78,366.8c-0.4,1.5-1.9,2.4-3.3,2c-1.5-0.4-2.4-1.9-2-3.5c0.4-1.5,1.9-2.3,3.3-1.9
			C77.6,363.9,78.4,365.2,78,366.8"/>
		<path class="st0" d="M164.4,370c-0.4,1.5-1.9,2.4-3.3,2c-1.6-0.4-2.4-1.9-2-3.3s1.9-2.3,3.3-1.9C164,367.1,164.8,368.5,164.4,370"
			/>
		<path class="st0" d="M246.4,292.9c1.5,0.4,2.4,1.9,2,3.3s-1.9,2.4-3.3,2s-2.3-1.9-1.9-3.3C243.3,293.3,244.8,292.5,246.4,292.9"/>
		<path class="st0" d="M214.1,165.5c-1.5-0.4-2.3-1.9-2-3.3c0.4-1.5,1.9-2.3,3.3-2c1.5,0.4,2.3,1.9,2,3.3
			C217.2,164.9,215.7,165.7,214.1,165.5"/>
		<path class="st0" d="M149.6,373.5c-0.4,1.5-1.9,2.4-3.3,2c-1.5-0.4-2.4-1.9-2-3.3s1.9-2.4,3.3-2
			C149.1,370.5,149.9,372,149.6,373.5"/>
		<path class="st0" d="M110.9,374.5c-0.4,1.5-1.9,2.4-3.3,2c-1.5-0.4-2.4-1.9-2-3.3c0.4-1.5,1.9-2.4,3.3-2
			C110.4,371.6,111.3,373.1,110.9,374.5"/>
		<path class="st0" d="M175.9,368.8c-1.5-0.4-2.4-2-2-3.3s2-2.3,3.3-2c1.3,0.4,2.4,2,2,3.3C178.8,368.1,177.2,369.1,175.9,368.8"/>
		<path class="st0" d="M46.4,313.2c-1.5-0.4-2.4-2-2-3.3s1.9-2.3,3.3-2c1.5,0.4,2.4,2,2,3.3S47.7,313.5,46.4,313.2"/>
		<path class="st0" d="M214.3,350.7c-0.4,1.3-2,2.3-3.3,2s-2.4-2-2-3.3s2-2.3,3.3-2C213.7,347.7,214.7,349.3,214.3,350.7"/>
		<path class="st0" d="M134.8,376.8c-0.3,1.3-2,2.4-3.3,2c-1.3-0.3-2.3-1.9-2-3.2c0.3-1.3,2-2.4,3.3-2
			C134.1,373.9,135.1,375.5,134.8,376.8"/>
		<path class="st0" d="M84,374.3c-1.3-0.3-2.4-2-2-3.3c0.3-1.3,1.9-2.3,3.2-2c1.3,0.3,2.4,2,2,3.3S85.3,374.7,84,374.3"/>
		<path class="st0" d="M193.9,363.3c-0.3,1.2-2,2.3-3.2,2s-2.3-2-2-3.3c0.3-1.2,2-2.3,3.2-2C193.1,360.3,194.1,362,193.9,363.3"/>
		<path class="st0" d="M272.1,214.1c-1.3-0.4-2.1-1.9-1.7-3.2c0.4-1.2,1.9-2.1,3.2-1.7c1.3,0.4,2.1,1.9,1.9,3.2
			C274.9,213.6,273.3,214.5,272.1,214.1"/>
		<path class="st0" d="M116.8,382.1c-1.2-0.3-2.1-1.9-1.9-3.1c0.3-1.2,1.9-2.1,3.1-1.9c1.2,0.3,2.1,1.9,1.9,3.1
			C119.6,381.6,118,382.5,116.8,382.1"/>
		<path class="st0" d="M92.9,379.9c-1.3-0.3-2.3-1.7-1.9-3.1c0.3-1.3,1.9-2.1,3.1-1.9c1.2,0.3,2.1,1.7,1.9,3.1
			C95.7,379.2,94.3,380.1,92.9,379.9"/>
		<path class="st0" d="M208.4,359.7c-0.3,1.3-1.9,2.3-3.1,1.9c-1.3-0.3-2.1-1.9-1.9-3.1c0.3-1.2,1.7-2.1,3.1-1.9
			C207.7,357.1,208.7,358.5,208.4,359.7"/>
		<path class="st0" d="M283.2,179.5c-0.4,1.2-2,2.1-3.1,1.7c-1.2-0.4-2.1-2-1.7-3.1c0.4-1.2,1.9-2,3.1-1.7S283.6,178.3,283.2,179.5"
			/>
		<path class="st0" d="M158.4,379.2c-0.3,1.2-1.9,2.1-3.1,1.7c-1.2-0.4-2.1-2-1.7-3.1c0.4-1.2,1.9-2,3.1-1.7
			C157.9,376.4,158.8,378,158.4,379.2"/>
		<path class="st0" d="M173.2,375.7c-0.3,1.2-1.9,2.1-3.1,1.9c-1.2-0.3-2.1-1.9-1.9-3.1c0.4-1.2,1.9-2,3.1-1.7
			C172.5,372.9,173.5,374.5,173.2,375.7"/>
		<path class="st0" d="M60,372c-1.2-0.3-2.1-1.9-1.9-3.1c0.3-1.2,1.7-2.1,2.9-1.9c1.2,0.3,2.1,1.9,1.9,3.1
			C62.8,371.3,61.2,372.3,60,372"/>
		<path class="st0" d="M225.7,349.2c-1.2-0.4-2.1-2-1.7-3.1c0.4-1.2,2-2.1,3.1-1.7c1.2,0.4,2,1.9,1.7,3.1
			C228.4,348.5,226.8,349.5,225.7,349.2"/>
		<path class="st0" d="M255.9,162.1c-0.3,1.3-1.6,2.1-2.9,1.7c-1.3-0.3-2.1-1.6-1.7-2.9c0.3-1.3,1.6-2,2.8-1.7
			C255.3,159.6,256.1,160.8,255.9,162.1"/>
		<path class="st0" d="M183.2,371.1c0.3-1.2,1.7-2,2.9-1.7s2.1,1.7,1.7,3.1c-0.3,1.2-1.7,2-2.9,1.7
			C183.6,373.6,182.8,372.3,183.2,371.1"/>
		<path class="st0" d="M138.9,381.3c0.3-1.2,1.7-2,2.9-1.7s2,1.7,1.7,3.1c-0.4,1.2-1.7,2-2.9,1.6C139.5,384,138.7,382.5,138.9,381.3
			"/>
		<path class="st0" d="M232.7,335.3c1.2,0.3,2,1.7,1.7,2.9c-0.3,1.2-1.7,2-3.1,1.7c-1.2-0.4-2-1.7-1.6-2.9
			C230.1,335.7,231.5,334.9,232.7,335.3"/>
		<path class="st0" d="M252,284.3c1.2,0.4,2,1.7,1.7,2.9c-0.4,1.2-1.7,2-3.1,1.7c-1.2-0.4-2-1.7-1.6-2.9
			C249.3,284.7,250.8,283.9,252,284.3"/>
		<path class="st0" d="M69.3,377.5c-1.2-0.3-2.1-1.6-1.7-2.9c0.3-1.3,1.7-2.1,2.9-1.9c1.2,0.3,2,1.6,1.7,2.9S70.5,377.7,69.3,377.5"
			/>
		<path class="st0" d="M276.8,166.3c-1.2-0.3-2-1.7-1.7-2.9c0.4-1.2,1.7-2,2.9-1.7c1.2,0.4,2,1.7,1.7,2.9
			C279.3,165.7,278,166.5,276.8,166.3"/>
		<path class="st0" d="M105.1,383.7c-0.3,1.2-1.7,2-2.9,1.7c-1.2-0.4-2-1.7-1.7-2.9c0.4-1.2,1.7-2,2.8-1.7
			C104.5,381.1,105.3,382.5,105.1,383.7"/>
		<path class="st0" d="M221.3,353.5c1.1,0.3,2,1.9,1.6,2.9c-0.4,1.1-1.9,2-2.9,1.6c-1.1-0.4-1.9-1.9-1.6-2.9
			C218.7,354,220.3,353.2,221.3,353.5"/>
		<path class="st0" d="M124.1,384.8c0.3-1.1,1.7-2,2.8-1.7c1.1,0.3,2,1.7,1.7,2.9c-0.3,1.1-1.7,2-2.8,1.7
			C124.8,387.5,123.9,386,124.1,384.8"/>
		<path class="st0" d="M264.4,246.8c-1.1-0.3-2-1.9-1.7-2.9c0.3-1.1,1.7-2,2.8-1.7s2,1.7,1.7,2.9S265.5,247.1,264.4,246.8"/>
		<path class="st0" d="M46,348.5c0.3-1.1,1.9-2,2.9-1.7c1.1,0.3,1.9,1.7,1.7,2.8c-0.3,1.1-1.7,2-2.9,1.7
			C46.5,351.1,45.6,349.6,46,348.5"/>
		<path class="st0" d="M197.9,367.6c0.3-1.1,1.6-2,2.8-1.7c1.1,0.3,2,1.7,1.7,2.8c-0.3,1.1-1.6,2-2.8,1.7
			C198.7,370.3,197.7,368.8,197.9,367.6"/>
		<path class="st0" d="M80.9,381.5c-0.3,1.2-1.5,1.9-2.7,1.6s-1.9-1.6-1.6-2.8c0.3-1.2,1.6-1.9,2.8-1.6
			C80.7,378.9,81.3,380.3,80.9,381.5"/>
		<path class="st0" d="M239.9,329.1c-0.3,1.1-1.7,1.9-2.8,1.6s-1.9-1.7-1.6-2.8c0.3-1.1,1.7-1.9,2.8-1.6
			C239.3,326.7,240.1,328,239.9,329.1"/>
		<path class="st0" d="M50.9,366c-1.1-0.3-2-1.6-1.6-2.7c0.3-1.1,1.6-1.9,2.7-1.6c1.1,0.3,1.9,1.6,1.6,2.8
			C53.5,365.3,52,366.1,50.9,366"/>
		<path class="st0" d="M164.5,386.4c-1.1-0.3-1.9-1.6-1.6-2.7s1.6-1.9,2.7-1.6c1.1,0.3,1.9,1.6,1.6,2.7
			C166.9,385.9,165.6,386.7,164.5,386.4"/>
		<path class="st0" d="M155.5,178.7c-1.1-0.3-1.9-1.6-1.6-2.7c0.3-1.1,1.6-1.9,2.7-1.6s1.9,1.6,1.6,2.7
			C157.9,178.1,156.5,178.9,155.5,178.7"/>
		<path class="st0" d="M113.9,389.2c-0.3,1.1-1.6,1.9-2.7,1.6s-1.9-1.6-1.6-2.7s1.6-1.9,2.7-1.6
			C113.3,386.8,114.1,388.1,113.9,389.2"/>
		<path class="st0" d="M47.2,286.1c0.3-1.1,1.6-1.9,2.7-1.6c1.1,0.3,1.9,1.6,1.6,2.7s-1.6,1.9-2.5,1.6
			C47.9,288.5,47.1,287.2,47.2,286.1"/>
		<path class="st0" d="M179.3,382.9c-1.1-0.3-1.9-1.6-1.6-2.7c0.3-1.1,1.6-1.9,2.7-1.6c1.1,0.3,1.9,1.6,1.6,2.7
			S180.4,383.2,179.3,382.9"/>
		<path class="st0" d="M148.1,387.1c0.3-1.1,1.6-1.9,2.7-1.6c1.1,0.3,1.9,1.6,1.6,2.7c-0.3,1.1-1.5,1.9-2.7,1.6
			C148.8,389.5,148,388.1,148.1,387.1"/>
		<path class="st0" d="M231.9,160c-0.3,1.1-1.6,1.9-2.7,1.6c-1.1-0.3-1.9-1.6-1.6-2.7s1.6-1.9,2.7-1.6S232.1,158.9,231.9,160"/>
		<path class="st0" d="M42.7,333.7c0.3-0.9,1.6-1.9,2.5-1.6c0.9,0.1,1.9,1.6,1.6,2.5c-0.1,0.9-1.6,1.9-2.7,1.7
			C43.3,336.1,42.5,334.7,42.7,333.7"/>
		<path class="st0" d="M214.5,367.1c-0.9-0.3-1.9-1.6-1.6-2.7c0.3-0.9,1.6-1.9,2.5-1.6s1.9,1.7,1.6,2.7
			C216.9,366.4,215.5,367.3,214.5,367.1"/>
		<path class="st0" d="M87.5,388.7c-0.9-0.3-1.9-1.6-1.6-2.7c0.3-0.9,1.7-1.9,2.7-1.6c0.9,0.3,1.7,1.7,1.5,2.7
			S88.4,388.9,87.5,388.7"/>
		<path class="st0" d="M92.7,213.5c0.3-1.1,1.5-1.7,2.5-1.5s1.7,1.5,1.5,2.5c-0.3,1.1-1.5,1.7-2.5,1.5
			C93.1,215.7,92.4,214.5,92.7,213.5"/>
		<path class="st0" d="M133.6,390.4c0.3-1.1,1.5-1.7,2.5-1.5c1.1,0.3,1.7,1.5,1.5,2.5c-0.3,1.1-1.5,1.7-2.5,1.5
			C134,392.7,133.3,391.5,133.6,390.4"/>
		<path class="st0" d="M194.1,379.3c-1.1-0.3-1.7-1.6-1.5-2.5c0.3-0.9,1.5-1.7,2.5-1.5c1.1,0.3,1.7,1.6,1.5,2.5
			C196.4,378.9,195.1,379.6,194.1,379.3"/>
		<path class="st0" d="M278,204.5c-1.1-0.3-1.9-1.5-1.6-2.5c0.3-0.9,1.5-1.7,2.5-1.5c1.1,0.3,1.7,1.5,1.6,2.5
			C280.3,204,279.1,204.8,278,204.5"/>
		<path class="st0" d="M63.6,386.1c-0.9-0.3-1.7-1.6-1.5-2.4c0.3-0.9,1.6-1.7,2.5-1.5c0.8,0.3,1.6,1.6,1.5,2.4
			C65.9,385.6,64.5,386.4,63.6,386.1"/>
		<path class="st0" d="M98.9,392.5c-0.3,0.9-1.6,1.7-2.4,1.5c-0.8-0.3-1.6-1.5-1.5-2.4s1.5-1.7,2.4-1.5
			C98.3,390.3,99.2,391.6,98.9,392.5"/>
		<path class="st0" d="M120.4,396.4c-0.9-0.3-1.7-1.6-1.5-2.4c0.3-0.8,1.5-1.6,2.4-1.5s1.7,1.5,1.6,2.4
			C122.7,395.7,121.3,396.5,120.4,396.4"/>
		<path class="st0" d="M256.5,279.2c-1.1-0.3-1.7-1.2-1.5-2.3c0.3-1.1,1.2-1.7,2.4-1.5c1.1,0.3,1.6,1.2,1.3,2.3
			C258.5,278.9,257.6,279.5,256.5,279.2"/>
		<path class="st0" d="M208.8,375.7c-1.1-0.3-1.6-1.2-1.3-2.3c0.3-1.1,1.3-1.6,2.4-1.3c1.1,0.3,1.6,1.3,1.3,2.4
			C210.9,375.5,209.9,376,208.8,375.7"/>
		<path class="st0" d="M54.5,380.4c-0.8-0.3-1.6-1.5-1.3-2.3c0.3-0.9,1.5-1.6,2.3-1.3c0.8,0.3,1.5,1.3,1.3,2.3
			C56.5,379.7,55.3,380.5,54.5,380.4"/>
		<path class="st0" d="M173.7,391.6c-0.9-0.1-1.6-1.5-1.5-2.3c0.3-0.8,1.5-1.6,2.3-1.3c0.8,0.3,1.6,1.3,1.3,2.3
			C175.9,391.1,174.7,391.9,173.7,391.6"/>
		<path class="st0" d="M243.9,317.6c0.9,0.3,1.6,1.5,1.3,2.3c-0.3,0.9-1.5,1.6-2.4,1.2c-0.8-0.3-1.5-1.5-1.2-2.3
			C241.9,318.1,243.1,317.3,243.9,317.6"/>
		<path class="st0" d="M158.9,395.1c-0.9-0.3-1.6-1.5-1.3-2.3s1.5-1.6,2.4-1.3c0.8,0.3,1.5,1.5,1.3,2.3
			C161.1,394.5,159.9,395.3,158.9,395.1"/>
		<path class="st0" d="M72.7,391.6c-0.8-0.3-1.6-1.3-1.3-2.3c0.1-0.9,1.5-1.6,2.3-1.3c0.8,0.3,1.5,1.5,1.3,2.3
			C74.7,391.1,73.5,391.9,72.7,391.6"/>
		<path class="st0" d="M143.1,396.3c0.3-1.1,1.1-1.5,2.1-1.2c1.1,0.3,1.5,1.1,1.2,2.1c-0.3,1.1-1.1,1.6-2.1,1.2
			C143.3,398.1,142.8,397.3,143.1,396.3"/>
		<path class="st0" d="M188.5,388c-1.1-0.3-1.5-1.1-1.2-2.1c0.3-0.9,1.1-1.5,2.1-1.2c1.1,0.3,1.5,1.1,1.2,2.1
			C190.3,387.9,189.5,388.3,188.5,388"/>
		<path class="st0" d="M272.4,235.9c-0.3,0.8-1.3,1.5-2.1,1.2c-0.8-0.3-1.5-1.3-1.2-2.1s1.3-1.5,2.1-1.2S272.5,235.1,272.4,235.9"/>
		<path class="st0" d="M286.1,171.3c-0.8-0.3-1.5-1.3-1.3-2.1c0.3-0.8,1.3-1.5,2.1-1.2c0.8,0.3,1.5,1.3,1.2,2.1
			C288,170.9,286.9,171.5,286.1,171.3"/>
		<path class="st0" d="M268,160c-0.8-0.3-1.5-1.2-1.3-2.1c0.1-0.8,1.3-1.5,2.1-1.3c0.8,0.3,1.5,1.3,1.2,2.1
			C269.9,159.6,268.8,160.3,268,160"/>
		<path class="st0" d="M105.7,399.5c-0.8-0.3-1.5-1.3-1.3-2.1c0.3-0.8,1.2-1.5,2.1-1.2c0.8,0.1,1.5,1.3,1.3,2.1
			S106.5,399.7,105.7,399.5"/>
		<path class="st0" d="M129.5,401.7c-0.8-0.3-1.5-1.2-1.2-2c0.1-0.8,1.3-1.5,2.1-1.2s1.5,1.3,1.2,2.1
			C131.2,401.3,130.1,402,129.5,401.7"/>
		<path class="st0" d="M120.4,194c-0.8-0.3-1.5-1.3-1.2-2.1s1.3-1.3,2-1.2c0.8,0.1,1.5,1.3,1.2,2.1
			C122.3,193.6,121.2,194.3,120.4,194"/>
		<path class="st0" d="M80.7,395.2c0.1-0.8,1.3-1.5,2.1-1.3c0.8,0.3,1.5,1.2,1.2,2c-0.1,0.8-1.3,1.5-2.1,1.2
			C81.1,396.9,80.4,396,80.7,395.2"/>
		<path class="st0" d="M205.2,383.5c-0.3,0.8-1.2,1.3-2,1.2c-0.8-0.1-1.5-1.3-1.2-2.1c0.3-0.8,1.3-1.5,2.1-1.2
			C204.8,381.7,205.5,382.8,205.2,383.5"/>
		<path class="st0" d="M222.5,370c0.3-0.8,1.1-1.3,1.9-1.1c0.8,0.3,1.3,1.2,1.1,2s-1.2,1.3-2,1.1C222.8,371.7,222.4,370.8,222.5,370
			"/>
		<path class="st0" d="M231.3,361.9c-0.1,0.8-1.1,1.3-1.9,1.2c-0.8-0.1-1.3-1.1-1.2-1.9s1.1-1.3,1.9-1.2
			C230.9,360.1,231.5,361.1,231.3,361.9"/>
		<path class="st0" d="M90.8,402.7c-0.7-0.1-1.2-1.2-1.1-1.9s1.2-1.2,1.9-1.1c0.7,0.1,1.3,1.2,1.1,1.9S91.5,402.9,90.8,402.7"/>
		<path class="st0" d="M113.6,403.1c0.1-0.7,1.2-1.2,1.9-1.1c0.7,0.1,1.2,1.2,1.1,1.9s-1.2,1.2-1.9,1.1
			C114,404.8,113.5,403.7,113.6,403.1"/>
		<path class="st0" d="M168.1,400.4c-0.7-0.1-1.3-1.2-1.1-1.9c0.1-0.7,1.2-1.3,1.9-1.1c0.7,0.1,1.3,1.2,1.1,1.9
			C169.7,400,168.8,400.5,168.1,400.4"/>
		<path class="st0" d="M220,380.1c-0.1,0.7-1.2,1.2-1.9,1.1c-0.7-0.3-1.2-1.2-1.1-1.9c0.3-0.7,1.2-1.2,1.9-1.1
			C219.6,378.4,220.1,379.5,220,380.1"/>
		<path class="st0" d="M283.9,194.9c-0.7-0.1-1.3-1.2-1.1-1.9c0.1-0.7,1.1-1.2,1.7-1.1c0.7,0.1,1.3,1.1,1.2,1.7
			C285.6,194.5,284.5,195.1,283.9,194.9"/>
		<path class="st0" d="M153.3,403.9c-0.7-0.1-1.3-1.2-1.1-1.9c0.1-0.7,1.2-1.2,1.9-1.1s1.2,1.2,1.1,1.7
			C155.1,403.5,154,404,153.3,403.9"/>
		<path class="st0" d="M181.7,395.2c0.1-0.7,1.2-1.3,1.9-1.1c0.7,0.1,1.3,1.2,1.1,1.9c-0.1,0.7-1.2,1.2-1.7,1.1
			C182.1,396.8,181.6,395.7,181.7,395.2"/>
		<path class="st0" d="M140.4,406c-0.1,0.7-1.1,1.2-1.7,1.1c-0.5-0.1-1.2-1.1-1.1-1.6c0.1-0.7,1.1-1.2,1.7-1.1
			C140,404.5,140.5,405.3,140.4,406"/>
		<path class="st0" d="M248.8,311.6c-0.7-0.1-1.2-1.1-0.9-1.7c0.1-0.5,1.1-1.1,1.6-0.9c0.7,0.1,1.2,1.1,1.1,1.7
			C250.3,311.2,249.3,311.9,248.8,311.6"/>
		<path class="st0" d="M197.7,393.5c-0.5-0.1-1.1-1.1-0.9-1.6c0.1-0.7,1.1-1.2,1.7-1.1c0.7,0.1,1.2,1.2,0.9,1.7
			C199.2,393.1,198.3,393.6,197.7,393.5"/>
		<path class="st0" d="M41.1,320.8c-0.7-0.1-1.2-1.1-1.1-1.7c0.1-0.5,1.1-1.1,1.6-0.9c0.7,0.1,1.2,1.1,1.1,1.7
			C42.5,320.4,41.6,320.9,41.1,320.8"/>
		<path class="st0" d="M66.3,398.7c0.1-0.7,1.1-1.1,1.6-0.9c0.7,0.1,1.1,1.1,0.9,1.6c-0.1,0.7-1.1,1.1-1.6,0.9
			C66.5,400.1,66.1,399.2,66.3,398.7"/>
		<path class="st0" d="M58,394.5c-0.7-0.1-1.1-1.1-0.9-1.6c0.1-0.7,1.1-1.1,1.6-0.9c0.7,0.1,1.1,1.1,0.9,1.6
			C59.5,394.3,58.7,394.7,58,394.5"/>
		<path class="st0" d="M236.8,352.7c-0.1,0.7-0.9,1.2-1.6,0.9c-0.7-0.1-1.1-0.9-0.9-1.6c0.1-0.7,0.9-1.2,1.6-0.9
			C236.5,351.2,236.9,352,236.8,352.7"/>
		<path class="st0" d="M100.1,408c-0.7-0.1-1.1-0.9-0.9-1.5c0.1-0.7,0.9-1.1,1.5-0.9c0.7,0.1,1.1,0.9,0.9,1.6
			C101.5,407.7,100.7,408.1,100.1,408"/>
		<path class="st0" d="M261.5,268.1c0.1-0.5,0.9-1.1,1.5-0.9s0.9,0.9,0.8,1.5s-0.9,1.1-1.5,0.9S261.3,268.7,261.5,268.1"/>
		<path class="st0" d="M124,410.3c-0.5-0.1-1.1-0.9-0.9-1.5c0.1-0.5,0.9-0.9,1.5-0.9c0.5,0.1,1.1,0.9,0.9,1.5S124.5,410.4,124,410.3
			"/>
		<path class="st0" d="M211.7,388.3c0.1-0.5,0.9-0.9,1.5-0.8c0.5,0.1,0.9,1.1,0.8,1.5c-0.3,0.5-0.8,0.9-1.5,0.8
			C212,389.7,211.5,388.8,211.7,388.3"/>
		<path class="st0" d="M76.3,405.9c-0.5-0.1-0.9-0.9-0.8-1.5c0.1-0.5,1.1-0.9,1.5-0.8c0.5,0.3,0.9,0.8,0.8,1.5
			C77.6,405.5,76.7,406,76.3,405.9"/>
		<path class="st0" d="M142.1,180.1c-0.1,0.7-0.7,0.9-1.3,0.8c-0.7-0.1-0.9-0.5-0.8-1.2c0.1-0.7,0.7-0.9,1.3-0.8
			C142,179.1,142.3,179.6,142.1,180.1"/>
		<path class="st0" d="M45.7,373.9c-0.5-0.1-0.9-0.8-0.7-1.3c0.3-0.5,0.7-0.8,1.2-0.8c0.5,0.1,0.9,0.8,0.8,1.3
			C46.8,373.6,46.3,374,45.7,373.9"/>
		<path class="st0" d="M276,227.3c-0.5-0.1-0.9-0.8-0.8-1.3c0.3-0.5,0.7-0.8,1.2-0.8c0.5,0.1,0.9,0.7,0.8,1.3
			C277.2,227.2,276.5,227.6,276,227.3"/>
		<path class="st0" d="M41.5,357.9c0.1-0.5,0.8-0.9,1.3-0.8s0.9,0.8,0.8,1.3c-0.3,0.5-0.7,0.8-1.2,0.7
			C41.7,359.1,41.3,358.4,41.5,357.9"/>
		<path class="st0" d="M244.3,157.1c-0.5-0.1-0.9-0.8-0.7-1.3c0.3-0.5,0.7-0.8,1.2-0.8c0.5,0.1,0.9,0.8,0.8,1.3
			C245.3,156.8,244.8,157.2,244.3,157.1"/>
		<path class="st0" d="M176.7,404.3c0.1-0.5,0.8-0.9,1.3-0.8c0.5,0.3,0.8,0.7,0.8,1.2c-0.1,0.5-0.8,0.9-1.3,0.8
			C176.8,405.5,176.5,404.8,176.7,404.3"/>
		<path class="st0" d="M162.7,408.9c-0.5-0.1-0.9-0.8-0.8-1.3s0.8-0.9,1.3-0.8s0.8,0.7,0.8,1.2C163.9,408.8,163.2,409.1,162.7,408.9
			"/>
		<path class="st0" d="M193.7,401.5c-0.7,0.3-1.2,0.8-1.5,0.7c-0.4-0.1-0.8-0.8-0.8-1.2c0-0.3,0.8-0.8,1.1-0.7
			C192.9,400.4,193.2,400.9,193.7,401.5"/>
		<path class="st0" d="M147.6,412.7c-0.3-0.7-0.7-1.2-0.5-1.6c0.1-0.4,0.9-0.8,1.1-0.7c0.4,0.1,0.7,0.8,0.7,1.2
			C148.9,412,148.3,412.3,147.6,412.7"/>
		<path class="st0" d="M108.1,412.1c0.7-0.3,1.2-0.7,1.6-0.5c0.3,0.1,0.5,0.7,0.8,1.1c-0.4,0.3-0.8,0.7-1.2,0.7
			C108.8,413.5,108.5,412.8,108.1,412.1"/>
		<path class="st0" d="M43.2,296.7c-0.1-0.4-0.4-0.8-0.4-1.2c0-0.5,0.5-0.8,1.1-0.7c0.5,0.1,0.8,0.5,0.7,1.1
			c-0.1,0.4-0.5,0.5-0.9,0.8C43.5,296.8,43.3,296.8,43.2,296.7"/>
		<path class="st0" d="M101.3,205.2c-0.4,0.1-0.8,0.4-1.2,0.4c-0.5,0-0.8-0.5-0.7-1.1c0.1-0.5,0.5-0.8,1.1-0.7
			c0.4,0.1,0.5,0.5,0.8,0.9C101.5,204.9,101.3,205.1,101.3,205.2"/>
		<path class="st0" d="M86.7,410.7c-0.4,0.1-0.8,0.4-1.2,0.4c-0.5,0-0.8-0.5-0.7-1.1c0.1-0.5,0.5-0.8,1.1-0.7
			c0.4,0.1,0.5,0.5,0.9,0.8C86.7,410.4,86.7,410.5,86.7,410.7"/>
		<path class="st0" d="M242,343.7c-0.4,0.1-0.8,0.4-1.2,0.4c-0.5,0-0.8-0.5-0.7-1.1c0.1-0.5,0.5-0.8,1.1-0.7
			c0.4,0.1,0.5,0.5,0.8,0.9C242.1,343.5,242,343.6,242,343.7"/>
		<path class="st0" d="M133.1,416c-0.3-0.7-0.5-1.1-0.5-1.3c0-0.3,0.7-0.7,0.9-0.5c0.3,0.1,0.7,0.7,0.7,0.9
			C134,415.3,133.5,415.5,133.1,416"/>
		<path class="st0" d="M208.3,398c-0.7,0.3-1.1,0.7-1.3,0.5c-0.3,0-0.7-0.7-0.7-0.9c0.1-0.3,0.7-0.7,0.9-0.7
			C207.5,397.1,207.7,397.6,208.3,398"/>
		<path class="st0" d="M48.3,387.5c0.5-0.3,0.9-0.5,1.2-0.4s0.5,0.5,0.5,0.8s-0.5,0.5-0.8,0.5C48.9,388.3,48.8,388,48.3,387.5"/>
		<path class="st0" d="M289.6,185.2c-0.1-0.5-0.4-0.8-0.4-1.1c0.1-0.3,0.5-0.3,0.8-0.5c0.1,0.3,0.5,0.7,0.4,0.8
			C290.4,184.8,290,184.9,289.6,185.2"/>
		<path class="st0" d="M95.6,416.1c-0.4,0.3-0.8,0.5-1.1,0.4c-0.3-0.1-0.5-0.5-0.5-0.8s0.5-0.5,0.8-0.5
			C95.1,415.3,95.3,415.7,95.6,416.1"/>
		<path class="st0" d="M227.2,386.1c-0.1-0.5-0.4-0.8-0.4-1.1c0.1-0.3,0.5-0.3,0.8-0.5c0.1,0.3,0.5,0.7,0.4,0.9
			C228.1,385.6,227.7,385.9,227.2,386.1"/>
		<path class="st0" d="M292,161.3c-0.3-0.5-0.4-0.8-0.4-0.9c0.1-0.1,0.4-0.4,0.7-0.4c0.1,0,0.4,0.4,0.4,0.5
			C292.7,160.8,292.3,160.9,292,161.3"/>
		<path class="st0" d="M61.6,408.8c-0.1-0.5-0.4-0.8-0.3-1.1c0.1-0.1,0.4-0.4,0.7-0.4c0.1,0,0.4,0.4,0.3,0.7
			C62.3,408.3,62,408.4,61.6,408.8"/>
		<path class="st0" d="M118.4,419.1c-0.1-0.5-0.4-0.8-0.3-0.9s0.4-0.4,0.7-0.4c0.1,0,0.4,0.4,0.3,0.7
			C119.1,418.7,118.7,418.8,118.4,419.1"/>
		<path class="st0" d="M171.1,413.5c0.5-0.1,0.8-0.4,0.9-0.4c0.1,0.1,0.4,0.4,0.4,0.7c0,0.1-0.4,0.4-0.5,0.4
			C171.6,414.1,171.5,413.9,171.1,413.5"/>
		<path class="st0" d="M282.8,155.7c-0.1-0.5-0.3-0.8-0.3-0.9c0.1-0.3,0.4-0.4,0.7-0.3c0.1,0,0.4,0.4,0.3,0.7
			C283.6,155.2,283.2,155.3,282.8,155.7"/>
	</g>
</g>
</svg>
