<?xml version="1.0" encoding="utf-8"?>
<!-- Generator: Adobe Illustrator 24.2.3, SVG Export Plug-In . SVG Version: 6.00 Build 0)  -->
<svg version="1.1" id="Mano_x5F_1" xmlns="http://www.w3.org/2000/svg" xmlns:xlink="http://www.w3.org/1999/xlink" x="0px" y="0px"
	 viewBox="0 0 1080 1080" style="enable-background:new 0 0 1080 1080;" xml:space="preserve">
<style type="text/css">
	.st0{fill-rule:evenodd;clip-rule:evenodd;fill:#FFFFFF;}
</style>
<g>
	<path d="M804,783.3c0,0-1.2-13.7-1.2-14.9c-0.1-5.3,0-10.9,1.2-16.1c1.1-4.5,3.2-8,5.3-12c2-3.9,2.7-8.5,3.1-12.8
		c0.5-6-0.4-12.1-1.9-17.9c-2-8.3-7.1-24.5-17.5-25.6c-28.1-2.9-25.5,52.9-24.8,68.7c1.3,30.5-1.6,62.5-4.4,93.6
		c-0.7,8.3-7.2,33.3-0.9,39.9c5.6,5.9,32.3,4.1,40.7,4.4c27.3,1.1,59.3,3.9,86.4,0c22.7-3.2,28.1-20.4,35.9-40.4
		c17.7-45.3,42.4-154.4,17.7-152.7c-12-2.1-1.6,52.9-20,53.7c-4.4-1.9,17.7-71.7-2.1-81.3c-14.5-7.1-10.8,35.3-12.5,44.5
		c-3.5,18.3-10.3,44.3-19.9,41.5c-0.9-9.9,4-19.6,4.9-29.5c1.3-12.9,7.7-28.8,6.4-41.6c-1.3-13.7,11.7-43.7-11.7-44.7
		c-16-2.8-12.8,85.5-27.2,109.6c-7.5-0.9,6.9-127.9-18-125.6c-13.1,2.5-4.7,44-6,60.3c-1.5,17.9-5.6,35.3-10,52.8
		C823.5,753.5,822.9,778,804,783.3z"/>
	<g>
		<path class="st0" d="M929.1,954.4c0,2.8-1.7,4.4-3.6,4.5c-1.6,0.1-3.2-0.7-4-2.4c-0.8-1.6-0.3-3.5,1.2-4.7
			c0.7-0.5,1.5-0.9,2.3-0.9c1.5,0,2.5,0.7,3.6,1.9c-0.1-1.7,0.4-3.1,1.7-4.1c-1.7-0.1-2.9-0.8-3.9-2c0,0.3,0,0.4,0,0.5
			c0,2.1-1.6,3.7-3.6,3.9c-1.9,0.1-3.9-1.3-4.3-3.2c-0.3-1.7,0.4-2.9,1.6-4c0.1-0.1,0.1-0.1,0.3-0.3c-2.8-0.3-4.1-1.3-4.5-3.3
			c-0.3-1.3,0.5-3.2,1.9-4c1.9-1.1,3.2-0.9,5.5,1.1c-0.1-1.6,0.5-2.9,1.9-4c-1.7,0-2.9-0.7-4-1.9c-0.7,3.1-1.5,4-3.7,4.4
			c-1.3,0.1-3.2-0.8-3.7-2.1c-0.8-1.7-0.5-3.5,1.1-4.7c2.1-1.7,4.1-1.1,6,0.9c-0.1-1.9,0.5-3.2,2.1-4.3c-2.3,0-3.9-0.8-4.5-2.8
			c-0.7-2,0.3-3.6,2-4.8c-2.8,0.1-4.1-1.2-4.5-2.5c-0.5-1.6-0.3-3.2,1.2-4.3c2.4-1.9,4.4-0.9,6.1,1.2c-0.4-2.1,0.5-3.6,2.3-4.8
			c-2.5,0.3-4-0.9-4.7-2.4c-0.7-1.3-0.4-3.2,0.9-4.4c2.3-2,4.1-1.2,6.1,0.8c0-2,0.8-3.3,2.3-4.3c-2.1,0-3.9-0.7-4.5-2.8
			c-0.5-1.6-0.1-2.9,1.1-4c2.3-1.9,4.3-1.2,6.1,0.9c-0.1-2.3,0.8-3.9,2.8-4.5c2-0.7,3.6,0.3,4.7,1.7c0.1-0.8,0.3-1.9,0.7-2.5
			c0.4-0.8,1.1-1.3,1.7-2c-2.8,0-4.3-0.9-4.8-2.9c-0.4-1.7,0.5-3.6,2.3-4.4c1.5-0.7,3.6-0.3,4.5,1.1c0.8,1.1,1.2,2.1,0.8,3.3
			c-0.3,1.2-1.1,2.1-2.1,2.8c1.9-0.3,3.3,0.3,4.7,1.7c-0.1-1.7,0.5-3.1,2-4.1c-2.3-0.1-3.9-0.9-4.3-3.1c-0.4-1.6,0.1-3.2,1.5-4.1
			c2.4-1.6,4.3-0.7,5.9,1.5c0-0.8,0-1.5,0.1-2.1c0.3-0.7,0.7-1.3,1.1-1.7c0.5-0.4,1.2-0.8,1.7-0.9c1.6-0.4,3.3,0.4,4.1,1.9
			c0.4,0.8,0.5,1.6,0.5,2.4c-0.1,1.3-1.1,2.3-2.1,3.2c1.7-0.3,3.2,0.4,4.5,1.9c0-2,0.8-3.3,2.4-4.3c-0.8-0.1-1.6,0-2.1-0.3
			c-0.7-0.3-1.3-0.7-1.7-1.2s-0.8-1.2-0.9-1.9c-0.3-1.9,0.8-3.6,2.5-4.3c1.6-0.5,3.5,0,4.5,1.5c0.7,0.9,0.8,2,0.5,3.2
			s-1.1,2-2.1,2.5c2-0.3,3.5,0.4,4.5,2c-0.1-1.9,0.5-3.3,2.3-4.4c-0.3,0-0.4,0-0.5,0c-1.7,0.1-3.5-0.8-4.1-2.3
			c-0.7-1.5-0.3-3.3,1.2-4.5c2-1.6,4.9-0.7,5.9,1.6c0.7,1.7,0.1,3.3-1.3,4.5c-0.1,0.1-0.4,0.1-0.5,0.3c0.1,0.1,0.1,0.3,0.3,0.3
			c1.9-0.3,3.3,0.5,4.5,2.1c-0.1-2.9,1.3-4.1,2.7-4.7c1.5-0.5,3.3,0,4.3,1.3c1.6,2.4,0.8,4.4-1.3,6c1.9-0.4,3.3,0.4,4.5,1.7
			c0-1.9,0.8-3.2,2.3-4.3c-2.7-0.1-4.3-1.1-4.7-3.1c-0.4-1.6,0.5-3.3,2-4.1c1.6-0.8,3.5-0.5,4.7,1.1c1.9,2.4,0.8,4.4-1.5,6
			c2.5-0.3,4.3,0.5,4.9,2.8c0.7,2-0.3,3.5-1.9,4.5c0.8,0.1,1.7,0.1,2.5,0.5s1.3,1.1,2,1.6c-0.1-0.9,0-2,0.7-3.1
			c0.7-0.9,1.6-1.5,2.8-1.7c1.5-0.3,3.2,0.7,4,2.1c0.8,1.6,0.7,3.3-0.9,4.5c-2.4,2.1-4.5,1.2-6.3-1.1c0.4,1.7-0.4,3.2-1.6,4.5
			c1.9-0.1,3.1,0.8,4,1.9c0.3-0.8,0.5-1.7,0.9-2.5c0.4-0.9,1.3-1.3,2.4-1.6c1.9-0.3,3.3,0.5,4.1,2.1c0.7,1.5,0.4,3.1-0.8,4.1
			c-2.1,1.9-4.3,1.3-6.1-0.8c0.3,2.1-0.5,3.7-2.4,4.7c-1.9,0.9-3.5,0.4-5.1-1.1c0,1.3-0.5,2.4-1.3,3.3c2.1,0.7,1.9,0.4,3.6,2.1
			c0.4-2.7,1.3-3.9,3.5-4.1c1.5-0.1,3.1,0.7,3.7,2.1c0.7,1.5,0.4,3.2-0.8,4.3c-2.1,1.7-4,1.2-5.9-0.8c0.1,2.1-0.5,3.7-2.3,4.8
			c-1.9,1.1-3.5,0.5-5.1-0.4c-0.5,0.9-0.9,1.7-1.3,2.5c2.9,0.8,4.1,3.3,3.6,5.3c-0.3,1.1-0.8,1.9-1.7,2.5c-1.7,1.2-3.5,1.1-5.2,0
			c-0.7,1.1-1.2,2-1.9,2.9c2.8,0.5,3.7,3.1,3.2,4.8c-0.3,1.1-0.9,1.9-1.9,2.4c-1.6,0.9-3.1,0.5-4.5-0.7c0,0.3,0,0.4,0,0.5
			c-0.4,3.3-4,5.5-6.9,3.7c-0.1-0.1-0.4-0.1-0.4-0.1c-0.7,0.9-1.2,1.9-1.9,2.7c2.1,0.5,3.5,2.3,3.1,4.3c-0.4,1.9-2.3,3.2-4.3,2.8
			c-1.1-0.3-1.7-0.8-2.4-1.7c-0.9-1.5-0.5-2.9,0.4-4.3c-1.1-0.3-2.1-0.7-3.1-0.9c-0.4,0.7-0.8,1.2-1.2,1.9c0.4,0.1,0.7,0.3,0.9,0.4
			c0.5,0.4,1.2,0.8,1.6,1.3c1.2,1.9,0.9,3.9-0.9,5.5c-1.2,1.1-3.3,1.3-5.1-0.1c-0.1-0.1-0.3-0.1-0.5-0.3c-0.3,2-1.1,3.3-2.8,4
			c-1.7,0.8-3.3,0.1-4.8-1.1c-0.3,1.9-1.2,3.2-2.9,3.9s-3.3,0.1-4.8-1.1c-0.4,2-1.3,3.3-3.2,3.9c-1.9,0.5-3.3-0.3-4.7-1.6
			c-0.3,2-1.1,3.5-2.9,4.1C931.9,956.8,930.4,955.8,929.1,954.4 M951.1,881.1c1.6,0,2.9,0.5,4,2.1c0-2,0.7-3.3,2.3-4.3
			c-2,0.3-3.5-0.4-4.7-2.1C953.1,878.4,952.5,879.9,951.1,881.1 M982.9,878.1c-1.9,0.3-3.3-0.4-4.4-1.9c0.1,1.7-0.4,3.2-2,4.3
			c1.7,0,3.1,0.5,4.1,1.9C980.7,880.4,981.3,879.1,982.9,878.1 M925.7,945.3c0-1.6,0.5-3.1,2-4.1c-1.7,0-3.1-0.5-4.1-2
			c0.1,1.9-0.5,3.2-2,4.3C923.5,943.3,924.8,943.8,925.7,945.3 M936.8,894.8c-1.7,0-3.1-0.7-4-2c0,1.9-0.7,3.2-2.3,4.1
			c1.7-0.1,3.2,0.4,4.4,2C934.9,897.2,935.5,895.9,936.8,894.8 M925.1,919.3c0-1.5,0.5-2.8,1.9-3.9c-1.9-0.1-3.1-0.8-4-2.3
			c0.1,1.9-0.4,3.3-1.9,4.4C922.7,917.6,924,918.1,925.1,919.3 M930,908.9c0-1.5,0.7-2.7,1.7-3.7c-1.7,0-2.9-0.7-3.9-2.1
			c0,2-0.7,3.3-2.1,4.3C927.3,907.2,928.8,907.6,930,908.9 M990.9,886.8c0.3-0.8,0.4-1.5,0.8-2.1c0.3-0.7,0.8-1.1,1.2-1.6
			c-1.5,0.1-2.8-0.4-4-1.7c0,1.5-0.4,2.8-1.7,3.9C988.8,885.2,990,885.7,990.9,886.8 M923.9,925.3c1.6,0,2.8,0.5,3.9,1.7
			c0.4-2.1,0.1-2,1.7-3.9c-1.5,0-2.7-0.7-3.6-1.9C925.9,923,925.2,924.4,923.9,925.3 M974.8,881.1c-1.7,0-3.1-0.7-4-2.1
			c0.1,1.6-0.3,2.9-1.6,4c0.7,0.1,1.3,0.3,1.9,0.5c0.5,0.3,1.1,0.7,1.7,1.1C973.1,883.1,973.6,882,974.8,881.1 M940.4,890
			c0.1,1.6-0.4,2.9-1.9,4.1c1.6,0,2.8,0.4,3.7,1.5c0.3-0.7,0.3-1.3,0.5-1.9c0.3-0.5,0.7-1.1,1.1-1.6
			C942.4,892,941.2,891.3,940.4,890 M935.6,900.7c0,1.5-0.5,2.7-1.7,3.7c1.6,0,2.7,0.5,3.7,1.6c0.1-1.5,0.7-2.5,1.7-3.6
			C937.7,902.4,936.5,901.9,935.6,900.7 M932.1,931c-2-0.5-1.7-0.3-3.6-1.9c0,1.5-0.5,2.7-1.9,3.7c1.6,0,2.8,0.5,3.7,1.6
			C930.9,932.5,930.9,932.5,932.1,931 M946.4,891.3c1.6,0,2.7,0.5,3.6,1.6c0.1-1.5,0.7-2.7,1.9-3.6c-1.6,0-2.8-0.5-3.9-1.7
			C948.1,889.1,947.6,890.3,946.4,891.3 M957.6,890.1c0.1-1.3,0.7-2.5,1.7-3.3c-1.6-0.1-2.7-0.7-3.6-1.9c-0.1,0.8-0.3,1.5-0.5,2
			c-0.3,0.7-0.8,1.2-1.2,1.7C955.5,888.7,956.5,889.1,957.6,890.1 M984.9,886c-1.5-0.1-2.7-0.7-3.6-2c0,1.6-0.4,2.8-1.5,3.9
			c1.5,0.1,2.5,0.7,3.6,1.7C983.5,888,984,886.9,984.9,886 M961.7,885.7c1.5,0.1,2.5,0.7,3.5,1.7c0.1-1.5,0.5-2.7,1.9-3.6
			c-1.6,0-2.8-0.7-3.7-1.9C963.3,883.6,962.9,884.8,961.7,885.7 M932.7,916.4c0-1.5,0.7-2.5,1.6-3.5c-1.5,0-2.5-0.7-3.6-1.7
			c0,1.6-0.5,2.7-1.7,3.6C930.8,915,930.8,914.8,932.7,916.4 M990.4,892.8c1.3,0,2.4,0.7,3.3,1.6c0.1-1.5,0.7-2.5,1.9-3.5
			c-1.5,0-2.7-0.5-3.6-1.6c-0.1,0.7-0.3,1.3-0.5,1.9C991.2,891.7,990.8,892.1,990.4,892.8 M937.6,946.2c-1.3-0.1-2.5-0.7-3.5-1.6
			c-0.1,1.5-0.7,2.5-1.9,3.5c1.5,0.1,2.7,0.5,3.6,1.7C936.1,948.4,936.5,947.2,937.6,946.2 M933.2,941.8c0-1.2,0.5-2.3,1.5-3.2
			c-1.3-0.1-2.4-0.7-3.2-1.9c-0.1,1.6-0.7,2.7-1.9,3.6c0.7,0.1,1.3,0.3,1.9,0.4C932.1,941,932.7,941.6,933.2,941.8 M941.7,901.6
			c0.7,0.1,1.2,0.3,1.7,0.4c0.5,0.3,0.9,0.5,1.5,0.8c0.5-0.9,0.9-2,1.5-3.1c-1.1-0.1-2.1-0.7-3.1-1.6
			C943.2,899.6,942.7,900.7,941.7,901.6 M964.9,893.1c1.1,0.4,2,0.9,2.9,1.3c0.4-0.9,0.9-1.9,1.5-2.8c-1.1-0.1-2.1-0.7-3.1-1.6
			C966.1,891.3,965.7,892.4,964.9,893.1 M931.7,922.4c1.3,0.1,2.4,0.4,3.3,1.2c0.4-0.9,0.9-1.9,1.3-2.8c-0.8-0.5-1.9-1.1-2.8-1.6
			C933.3,920.4,932.9,921.4,931.7,922.4 M975.5,891.6c0.4-0.8,0.9-1.9,1.3-2.8c-1.1-0.1-2.1-0.5-3.1-1.6c-0.1,1.3-0.5,2.4-1.3,3.2
			C973.6,890.8,974.5,891.2,975.5,891.6 M984.3,892c0,1.5-0.5,2.4-1.2,3.2c0.9,0.4,2,0.8,2.8,1.2c0.5-0.9,0.9-1.9,1.5-2.8
			C986.3,893.5,985.2,893.1,984.3,892 M950.9,895.5c-0.1,1.3-0.5,2.4-1.3,3.2c1.1,0.4,2,0.9,2.9,1.3c0.4-0.8,0.8-1.7,1.3-2.8
			C952.8,896.9,951.7,896.5,950.9,895.5 M940,913c0.4-0.8,0.8-1.7,1.2-2.5c-0.9-0.5-1.9-1.1-2.8-1.6c0,1.2-0.7,2.1-1.3,2.9
			C938.1,912.2,939.1,912.6,940,913 M937.9,931c0.4-0.8,0.8-1.7,1.2-2.5c-0.8-0.4-1.7-0.8-2.5-1.2c-0.4,0.9-0.9,1.9-1.3,2.8
			C936,930.2,936.9,930.6,937.9,931 M943.3,946.4c0.4-0.8,0.8-1.7,1.2-2.7c-0.8-0.4-1.7-0.8-2.5-1.2c-0.4,0.8-0.9,1.9-1.3,2.7
			C941.5,945.6,942.4,946,943.3,946.4 M961.5,894.5c-0.9-0.4-1.9-0.9-2.7-1.3c-0.4,0.8-0.8,1.7-1.2,2.7c0.8,0.4,1.7,0.7,2.5,1.1
			C960.5,896.3,961.1,895.3,961.5,894.5 M938,937.4c0.8,0.4,1.7,0.8,2.5,1.2c0.4-0.8,0.7-1.7,1.1-2.5c-0.8-0.4-1.6-0.8-2.4-1.2
			C938.9,935.7,938.4,936.6,938,937.4 M975.9,897.9c0.8,0.4,1.6,0.8,2.4,1.2c0.4-0.8,0.9-1.6,1.3-2.4c-0.8-0.4-1.7-0.8-2.7-1.2
			C976.5,896.3,976.1,897.1,975.9,897.9 M941.5,916.9c-0.4,0.8-0.8,1.6-1.2,2.5c0.8,0.4,1.6,0.8,2.4,1.1c0.4-0.8,0.8-1.6,1.2-2.4
			C943.1,917.7,942.3,917.3,941.5,916.9 M945.2,909c0.8,0.4,1.6,0.8,2.4,1.1c0.4-0.8,0.8-1.6,1.1-2.4c-0.8-0.4-1.6-0.8-2.4-1.2
			C946,907.3,945.6,908.1,945.2,909 M987.2,900.4c-0.3,0.8-0.7,1.5-0.9,2.4c0.8,0.4,1.6,0.8,2.3,1.1c0.4-0.8,0.9-1.6,1.2-2.3
			C988.9,901.2,988.1,900.8,987.2,900.4 M946.4,925.8c-0.8-0.4-1.5-0.8-2.3-1.2c-0.4,0.8-0.8,1.6-1.2,2.4c0.8,0.4,1.6,0.7,2.4,1.1
			C945.7,927.3,946.1,926.5,946.4,925.8 M954,903.7c-0.3,0.8-0.7,1.6-1.1,2.4c0.7,0.3,1.5,0.7,2.3,0.9c0.4-0.8,0.8-1.5,1.1-2.1
			C955.5,904.5,954.8,904.1,954,903.7 M951.1,943.4c0.3-0.8,0.7-1.6,0.9-2.3c-0.7-0.4-1.5-0.7-2.3-1.1c-0.4,0.7-0.8,1.5-1.2,2.1
			C949.3,942.6,950.3,943,951.1,943.4 M968.3,900.7c0.7,0.3,1.5,0.7,2.1,0.9c0.4-0.8,0.8-1.5,1.1-2.1c-0.8-0.4-1.6-0.8-2.3-1.2
			C968.9,899.1,968.5,899.9,968.3,900.7 M962.8,904.5c0.3-0.7,0.7-1.5,1.1-2.3c-0.7-0.4-1.5-0.7-2.3-1.1c-0.4,0.7-0.7,1.5-1.1,2.3
			C961.3,903.7,962,904.1,962.8,904.5 M957.5,937.6c-0.3,0.7-0.7,1.2-0.9,1.9c0.8,0.4,1.6,0.9,2.4,1.3c0.3-0.7,0.5-1.5,0.9-2.3
			C959.1,938.2,958.3,938,957.5,937.6 M948,916.6c0.7,0.3,1.5,0.5,2.1,0.9c0.4-0.7,0.7-1.5,1.1-2.1c-0.7-0.4-1.5-0.8-2.1-1.1
			C948.8,915,948.4,915.7,948,916.6 M981.9,904.4c-0.8-0.4-1.5-0.8-2.3-1.1c-0.3,0.7-0.7,1.5-0.9,2.1c0.7,0.4,1.5,0.7,2.3,1.1
			C981.2,905.7,981.6,905,981.9,904.4 M979.3,924.9c0.4-0.7,0.7-1.5,1.1-2.3c-0.8-0.3-1.7-0.5-2.5-0.8c-0.3,0.5-0.5,1.1-0.8,1.6
			C977.9,924,978.7,924.5,979.3,924.9 M945.9,934.5c0.7,0.3,1.5,0.7,2.1,0.9c0.3-0.7,0.7-1.3,0.9-2.1c-0.7-0.4-1.5-0.7-2.1-1.1
			C946.7,933,946.3,933.8,945.9,934.5 M981.7,912.9c0.7,0.4,1.3,0.7,2,1.1c0.4-0.7,0.7-1.3,1.1-1.9c-0.7-0.3-1.5-0.7-2.3-0.9
			C982.3,911.7,982,912.2,981.7,912.9 M971.2,908.2c0.7,0.3,1.3,0.7,1.9,0.9c0.4-0.7,0.7-1.3,0.9-2c-0.7-0.3-1.3-0.7-2-0.9
			C971.9,906.8,971.5,907.6,971.2,908.2 M958.7,912.6c-0.7-0.3-1.3-0.7-1.9-0.9c-0.3,0.7-0.7,1.3-0.9,2c0.7,0.3,1.3,0.5,2,0.9
			C958.1,914,958.4,913.3,958.7,912.6 M963.6,910.9c0.7,0.3,1.2,0.5,1.9,0.8c0.3-0.7,0.7-1.2,0.9-1.7c-0.7-0.3-1.3-0.7-1.9-0.9
			C964.1,909.6,963.9,910.2,963.6,910.9 M953.7,923c-0.5-0.3-1.2-0.7-1.9-0.9c-0.3,0.7-0.5,1.3-0.9,2c0.7,0.3,1.2,0.5,1.9,0.8
			C953.2,924.4,953.5,923.7,953.7,923 M954.8,930c-0.3,0.7-0.7,1.2-0.9,1.9c0.5,0.3,1.2,0.5,1.9,0.8c0.3-0.7,0.5-1.2,0.8-1.9
			C955.9,930.5,955.3,930.2,954.8,930 M958.8,921.2c0.5,0.3,1.1,0.5,1.7,0.8c0.3-0.5,0.5-1.1,0.8-1.6c-0.5-0.3-1.1-0.5-1.7-0.9
			C959.3,920,959.1,920.6,958.8,921.2 M976.7,914.9c-0.5-0.3-1.1-0.5-1.7-0.8c-0.3,0.5-0.4,1.1-0.7,1.6c0.5,0.3,1.1,0.5,1.6,0.8
			C976.1,915.8,976.4,915.4,976.7,914.9 M968.8,917.7c-0.5-0.3-1.1-0.5-1.5-0.7c-0.3,0.5-0.4,0.9-0.7,1.5c0.5,0.3,1.1,0.4,1.5,0.7
			C968.3,918.6,968.5,918.1,968.8,917.7 M962.4,927.4c-0.3,0.5-0.5,0.9-0.8,1.5c0.5,0.1,0.9,0.4,1.5,0.5c0.3-0.4,0.4-0.9,0.7-1.3
			C963.2,927.8,962.8,927.6,962.4,927.4 M971.7,925.4c-0.5-0.3-1.1-0.4-1.6-0.7c-0.1,0.4-0.4,0.8-0.5,1.2c0.5,0.3,0.9,0.5,1.5,0.8
			C971.3,926.4,971.6,925.8,971.7,925.4"/>
		<path class="st0" d="M914.3,928.4c2.1-0.1,3.7-1.9,3.7-4c-0.1-2.1-2-3.7-4.1-3.7c-2.1,0.1-3.7,1.9-3.6,4
			C910.3,926.9,912.1,928.5,914.3,928.4"/>
		<path class="st0" d="M996.1,876.5c0.1,2.1,1.9,3.9,4,3.7c2-0.1,3.9-2.1,3.7-4c-0.1-2-2-3.7-4-3.7
			C997.9,872.7,996.1,874.5,996.1,876.5"/>
		<path class="st0" d="M921.2,900.1c2-0.1,3.7-2,3.7-4c-0.1-2-2-3.7-4-3.7c-2,0.1-3.7,2-3.7,4C917.3,898.4,919.2,900.1,921.2,900.1"
			/>
		<path class="st0" d="M916.3,910.4c2,0,3.7-2,3.7-4c-0.1-2-2-3.7-4-3.7c-2,0.1-3.7,2-3.7,4C912.4,908.6,914.3,910.5,916.3,910.4"/>
		<path class="st0" d="M933.6,886.9c2,0,3.7-2,3.7-4s-2-3.9-4-3.7c-2,0.1-3.7,2-3.7,4C929.7,885.2,931.6,887.1,933.6,886.9"/>
		<path class="st0" d="M914.7,946.4c-2,0.1-3.7,1.9-3.7,4c0,2,2,3.7,4,3.7c2-0.1,3.7-1.9,3.7-4C918.5,948,916.7,946.2,914.7,946.4"
			/>
		<path class="st0" d="M911.1,913c-2.3,0.1-3.7,2-3.6,4s2,3.7,4,3.6c2.3-0.1,3.7-2,3.6-4C915.1,914.6,913.1,912.9,911.1,913"/>
		<path class="st0" d="M975.6,866.8c0.3,2.1,1.7,3.7,3.9,3.6c2.1,0,3.7-1.7,3.7-3.9c-0.1-2.3-1.9-3.7-4-3.6
			C976.9,862.9,975.6,864.7,975.6,866.8"/>
		<path class="st0" d="M908.1,942.8c0.3,2.3,1.9,3.7,4,3.6c2.3-0.1,3.7-1.9,3.6-3.9c-0.1-2.3-1.9-3.7-4-3.6
			C909.5,938.9,908.3,940.6,908.1,942.8"/>
		<path class="st0" d="M917.6,961.7c2.1-0.3,3.7-1.6,3.7-3.9c0-2.1-1.6-3.7-3.9-3.7c-2.1,0-3.7,1.6-3.7,3.9
			C913.7,960.1,915.3,961.4,917.6,961.7"/>
		<path class="st0" d="M922.1,886c0.3,2.1,1.7,3.7,3.9,3.6c2.1,0,3.7-1.6,3.6-3.9c0-2.1-1.6-3.7-3.9-3.6
			C923.7,882.1,922.3,883.7,922.1,886"/>
		<path class="st0" d="M909.5,938.6c1.9,0,3.7-1.9,3.6-4c-0.1-1.7-1.9-3.6-4-3.5c-1.9,0.1-3.7,1.9-3.6,4
			C905.6,936.9,907.3,938.9,909.5,938.6"/>
		<path class="st0" d="M946,866.3c-2.1,0-3.6,1.7-3.6,3.9c0,2,1.9,3.6,3.9,3.6c2.1-0.1,3.6-1.7,3.6-3.9
			C949.7,867.7,948,866.1,946,866.3"/>
		<path class="st0" d="M953.7,870.9c2.1,0,3.7-1.7,3.6-3.9c-0.1-2-1.7-3.6-3.9-3.6c-2.1,0.1-3.7,1.7-3.6,3.9
			C950,869.3,951.7,870.9,953.7,870.9"/>
		<path class="st0" d="M938.3,869.1c-2,0-3.7,1.9-3.6,3.9c0,2,1.9,3.7,3.9,3.6c2-0.1,3.6-1.9,3.6-3.9
			C942.1,870.7,940.4,868.9,938.3,869.1"/>
		<path class="st0" d="M997.3,872.4c2,0,3.7-1.9,3.6-3.9c0-2-1.9-3.7-3.9-3.6s-3.6,1.9-3.6,3.9C993.6,870.8,995.3,872.5,997.3,872.4
			"/>
		<path class="st0" d="M961.2,860.8c-2,0-3.7,1.9-3.6,3.9c0,2,1.9,3.7,3.9,3.6c2,0,3.7-1.9,3.6-3.9
			C965.1,862.4,963.2,860.7,961.2,860.8"/>
		<path class="st0" d="M909.9,899.1c0,2,1.9,3.7,3.9,3.6c2-0.1,3.6-1.9,3.6-3.9s-1.9-3.7-3.9-3.6S909.7,897.2,909.9,899.1"/>
		<path class="st0" d="M906.7,931c2-0.1,3.7-1.9,3.6-3.9c-0.1-2-1.9-3.6-3.9-3.6c-2,0.1-3.7,1.9-3.6,3.9S904.7,931.2,906.7,931"/>
		<path class="st0" d="M908.8,913c2,0,3.6-1.9,3.6-3.9s-1.9-3.7-3.9-3.6c-2,0.1-3.6,1.9-3.6,3.9C904.9,911.4,906.8,913.2,908.8,913"
			/>
		<path class="st0" d="M1007.6,869.9c-2,0-3.7,1.9-3.6,3.9c0,2,1.9,3.7,3.9,3.6c2-0.1,3.6-1.9,3.6-3.9
			C1011.3,871.6,1009.6,869.9,1007.6,869.9"/>
		<path class="st0" d="M969.1,865.5c2,0,3.6-1.9,3.6-3.9s-1.9-3.7-3.9-3.6c-2,0.1-3.6,1.9-3.6,3.9
			C965.2,863.9,967.1,865.5,969.1,865.5"/>
		<path class="st0" d="M990.7,863.7c-0.1-2-1.9-3.6-3.9-3.6s-3.7,1.9-3.6,3.9s1.9,3.6,3.9,3.6C989.1,867.5,990.7,865.7,990.7,863.7"
			/>
		<path class="st0" d="M918.1,884.8c-2,0.1-3.6,1.9-3.6,3.9c0.1,2,1.9,3.7,3.9,3.6s3.6-1.9,3.5-3.9
			C921.9,886.4,920.1,884.8,918.1,884.8"/>
		<path class="st0" d="M927.2,875.7c0.1,2,1.9,3.6,3.9,3.6s3.7-1.9,3.6-3.9c-0.1-2-1.9-3.6-3.9-3.6
			C928.8,871.9,927.1,873.7,927.2,875.7"/>
		<path class="st0" d="M1010.5,884.9c1.9,0,3.7-1.9,3.6-3.9c-0.1-1.9-1.9-3.6-3.7-3.6c-1.9,0-3.7,1.9-3.6,3.9
			C1006.8,883.2,1008.5,884.9,1010.5,884.9"/>
		<path class="st0" d="M903.6,916c-2,0.3-3.6,1.7-3.6,3.9c0.1,2,1.7,3.6,3.7,3.5c2,0,3.6-1.7,3.6-3.7
			C907.3,917.4,905.6,916.1,903.6,916"/>
		<path class="st0" d="M910.7,952.8c0-2-1.7-3.5-3.7-3.5c-1.7,0-3.6,2-3.6,3.7c0.1,1.7,2,3.6,3.7,3.5
			C908.9,956.5,910.9,954.6,910.7,952.8"/>
		<path class="st0" d="M919.6,878.4c-0.1,1.7,1.9,3.6,3.7,3.5c1.7,0,3.6-1.9,3.5-3.9c-0.1-1.6-1.9-3.6-3.9-3.5
			C921.3,874.7,919.3,876.5,919.6,878.4"/>
		<path class="st0" d="M976.7,862.5c1.9,0.1,3.6-2,3.6-3.7c0-1.9-2-3.7-3.7-3.6c-2,0.1-3.6,1.7-3.5,3.7
			C973.1,861.1,974.7,862.7,976.7,862.5"/>
		<path class="st0" d="M904.4,948.9c2,0,3.6-1.7,3.5-3.7c0-2-1.7-3.6-3.7-3.5s-3.5,1.7-3.5,3.7C900.8,947.4,902.4,948.9,904.4,948.9
			"/>
		<path class="st0" d="M910,964.1c2,0,3.5-1.7,3.5-3.7s-1.7-3.5-3.7-3.5s-3.5,1.7-3.5,3.7C906.4,962.6,908,964.1,910,964.1"/>
		<path class="st0" d="M1004.8,862.4c-2,0-3.6,1.7-3.5,3.7c0,2,1.7,3.6,3.7,3.5c2,0,3.6-1.7,3.5-3.7
			C1008.5,863.9,1006.8,862.3,1004.8,862.4"/>
		<path class="st0" d="M994.8,864.8c2-0.1,3.5-1.9,3.5-3.7c-0.1-1.9-1.9-3.5-3.7-3.5c-2,0.1-3.5,1.9-3.5,3.7
			C991.1,863.2,992.8,864.8,994.8,864.8"/>
		<path class="st0" d="M906,905.3c2,0,3.6-1.9,3.5-3.7c-0.1-1.9-1.9-3.5-3.7-3.5c-2,0.1-3.6,1.9-3.5,3.7
			C902.3,903.7,904,905.3,906,905.3"/>
		<path class="st0" d="M898,937.8c0.1,1.9,1.9,3.5,3.7,3.5c1.9-0.1,3.5-1.9,3.5-3.7c-0.1-1.9-1.9-3.5-3.9-3.5
			C899.6,934.2,898,936,898,937.8"/>
		<path class="st0" d="M910.5,887.7c-2,0.1-3.6,1.9-3.5,3.7c0.1,1.9,1.9,3.5,3.7,3.5c2-0.1,3.6-1.9,3.5-3.7
			C914.3,889.2,912.5,887.6,910.5,887.7"/>
		<path class="st0" d="M951.2,863.2c2-0.1,3.6-1.9,3.5-3.7c-0.1-1.9-1.9-3.5-3.7-3.5c-2,0.1-3.6,1.9-3.5,3.7
			C947.5,861.7,949.2,863.3,951.2,863.2"/>
		<path class="st0" d="M943.5,866c2-0.1,3.6-1.9,3.5-3.7c-0.1-1.9-1.9-3.5-3.7-3.5c-2,0.1-3.6,1.9-3.5,3.7
			C939.9,864.5,941.6,866.1,943.5,866"/>
		<path class="st0" d="M935.7,861.5c-1.9,0-3.6,1.9-3.5,3.7c0,1.9,1.9,3.6,3.7,3.5c1.9,0,3.5-1.7,3.5-3.6
			C939.3,863.1,937.6,861.5,935.7,861.5"/>
		<path class="st0" d="M901.1,915.6c1.9,0,3.6-1.9,3.5-3.7c-0.1-1.9-1.9-3.5-3.7-3.5c-1.9,0.1-3.5,1.9-3.5,3.7
			C897.5,914,899.2,915.7,901.1,915.6"/>
		<path class="st0" d="M958.4,853.2c-1.9,0-3.6,1.9-3.5,3.7c0,1.9,1.9,3.5,3.7,3.5c1.9-0.1,3.5-1.9,3.5-3.7
			C962.1,854.9,960.3,853.2,958.4,853.2"/>
		<path class="st0" d="M899.1,933.6c1.9-0.1,3.5-1.9,3.5-3.7c-0.1-1.9-1.9-3.5-3.7-3.3c-1.9,0.1-3.5,1.9-3.5,3.7
			S897.1,933.7,899.1,933.6"/>
		<path class="st0" d="M984,852.7c-1.9,0.1-3.5,1.9-3.5,3.7c0.1,1.9,1.9,3.5,3.7,3.5c1.9-0.1,3.5-1.9,3.3-3.7
			C987.6,854.3,985.9,852.7,984,852.7"/>
		<path class="st0" d="M915.5,877.5c-1.9,0-3.6,1.9-3.5,3.7c0.1,1.9,1.9,3.5,3.7,3.5c1.9-0.1,3.6-1.9,3.5-3.7
			C919.2,878.9,917.3,877.3,915.5,877.5"/>
		<path class="st0" d="M962.7,854.3c0,1.9,1.9,3.5,3.7,3.5c1.9-0.1,3.5-1.9,3.5-3.7c-0.1-1.9-1.9-3.5-3.7-3.5
			C964.3,850.7,962.5,852.5,962.7,854.3"/>
		<path class="st0" d="M928.1,871.5c1.9,0,3.5-1.9,3.5-3.7c0-1.9-1.9-3.5-3.7-3.5c-1.9,0-3.5,1.9-3.5,3.7
			C924.5,869.9,926.4,871.5,928.1,871.5"/>
		<path class="st0" d="M1002.3,861.9c1.9,0,3.5-1.7,3.3-3.6c0-1.9-1.7-3.5-3.6-3.3c-1.9,0-3.5,1.7-3.3,3.6
			C998.7,860.4,1000.4,861.9,1002.3,861.9"/>
		<path class="st0" d="M896.3,926c1.9-0.1,3.5-1.7,3.3-3.6c0-1.9-1.7-3.3-3.6-3.3c-1.9,0-3.3,1.7-3.3,3.6S894.3,926,896.3,926"/>
		<path class="st0" d="M973.9,854.9c1.9,0,3.5-1.7,3.3-3.6c0-1.9-1.7-3.5-3.6-3.3c-1.9,0-3.3,1.7-3.3,3.6
			C970.4,853.3,972,854.9,973.9,854.9"/>
		<path class="st0" d="M902.9,890.7c-1.9,0-3.5,1.7-3.3,3.6c0,1.9,1.7,3.5,3.6,3.3c1.9,0,3.3-1.7,3.3-3.6S904.8,890.5,902.9,890.7"
			/>
		<path class="st0" d="M1012.7,866.8c1.9,0,3.5-1.7,3.3-3.6c0-1.9-1.7-3.5-3.6-3.3c-1.9,0.1-3.3,1.7-3.3,3.6
			C1009.1,865.3,1010.7,866.8,1012.7,866.8"/>
		<path class="st0" d="M898.3,900.9c-1.9,0-3.5,1.7-3.3,3.6c0,1.9,1.7,3.5,3.6,3.5s3.5-1.7,3.3-3.6
			C901.7,902.5,900,900.9,898.3,900.9"/>
		<path class="st0" d="M917.1,870.8c0,1.9,1.7,3.5,3.6,3.3c1.9,0,3.5-1.7,3.3-3.6c0-1.9-1.7-3.5-3.6-3.3
			C918.5,867.2,916.9,868.9,917.1,870.8"/>
		<path class="st0" d="M991.9,856.9c1.9,0,3.5-1.7,3.3-3.6c0-1.9-1.7-3.5-3.6-3.3c-1.9,0-3.5,1.7-3.3,3.6
			C988.4,855.5,990.1,857.1,991.9,856.9"/>
		<path class="st0" d="M896,955.7c0,1.9,1.7,3.5,3.6,3.3c1.9,0,3.5-1.7,3.3-3.6c0-1.9-1.7-3.5-3.6-3.3
			C897.6,952.1,896,953.8,896,955.7"/>
		<path class="st0" d="M904.5,883.9c0,1.9,1.7,3.5,3.6,3.3c1.9,0,3.5-1.7,3.3-3.6c0-1.9-1.7-3.5-3.6-3.3
			C906,880.4,904.4,882,904.5,883.9"/>
		<path class="st0" d="M893.3,948.1c0,1.9,1.7,3.5,3.6,3.3c1.9,0,3.5-1.7,3.3-3.6c-0.1-1.9-1.7-3.3-3.6-3.3
			C894.8,944.6,893.2,946.2,893.3,948.1"/>
		<path class="st0" d="M1015.2,867.3c-1.9,0.1-3.5,1.7-3.3,3.6c0.1,1.9,1.7,3.3,3.6,3.3c1.9-0.1,3.3-1.7,3.3-3.6
			C1018.7,868.8,1016.9,867.3,1015.2,867.3"/>
		<path class="st0" d="M890.5,940.5c0,1.7,1.7,3.3,3.5,3.3s3.5-1.7,3.3-3.6c-0.1-1.7-1.7-3.3-3.6-3.3
			C892.1,936.9,890.5,938.6,890.5,940.5"/>
		<path class="st0" d="M944.8,852.1c0.1,1.7,1.9,3.3,3.6,3.3c1.7-0.1,3.3-1.9,3.3-3.6c-0.1-1.7-1.9-3.3-3.6-3.3
			C946.3,848.5,944.7,850.3,944.8,852.1"/>
		<path class="st0" d="M937.1,854.8c0,1.7,1.7,3.3,3.6,3.3c1.7,0,3.3-1.7,3.3-3.6c0-1.7-1.7-3.3-3.6-3.3
			C938.7,851.3,937.1,853.1,937.1,854.8"/>
		<path class="st0" d="M890,914.9c0,1.7,1.7,3.3,3.5,3.3s3.3-1.7,3.3-3.5s-1.7-3.3-3.5-3.3C891.6,911.4,890,913,890,914.9"/>
		<path class="st0" d="M978,848.7c0.3,2,1.7,3.3,3.6,3.3c2-0.1,3.3-1.7,3.2-3.6c-0.1-2-1.6-3.3-3.5-3.2
			C979.3,845.3,978.1,846.8,978,848.7"/>
		<path class="st0" d="M916.3,873.2c-0.1-1.7-1.6-3.3-3.5-3.3c-1.7,0-3.3,1.5-3.3,3.5c0,1.9,1.6,3.3,3.5,3.3
			S916.3,875.2,916.3,873.2"/>
		<path class="st0" d="M929.6,857.6c0.1,1.7,1.6,3.3,3.5,3.3c1.7,0,3.3-1.5,3.3-3.5c0-1.9-1.6-3.3-3.5-3.3
			C931.1,854.1,929.6,855.7,929.6,857.6"/>
		<path class="st0" d="M952.5,849.5c0.3,2,1.9,3.3,3.6,3.2c2-0.1,3.3-2,3.2-3.6c-0.1-2-2-3.3-3.6-3.2
			C953.7,846,952.4,847.9,952.5,849.5"/>
		<path class="st0" d="M894.7,932.6c0-1.9-1.6-3.3-3.5-3.2c-1.9,0-3.3,1.6-3.2,3.5c0,1.9,1.6,3.2,3.5,3.2
			C893.3,936.1,894.7,934.5,894.7,932.6"/>
		<path class="st0" d="M1009.7,852.3c-1.9,0-3.3,1.6-3.2,3.5c0,1.9,1.6,3.3,3.5,3.2s3.3-1.6,3.2-3.5
			C1013.1,853.7,1011.5,852.1,1009.7,852.3"/>
		<path class="st0" d="M960.1,846.5c0,1.9,1.6,3.3,3.5,3.2c1.9,0,3.3-1.6,3.3-3.5s-1.6-3.3-3.5-3.2
			C961.5,843.2,960,844.8,960.1,846.5"/>
		<path class="st0" d="M995.6,908.9c-1.7,0.1-3.2,1.7-3.2,3.5c0.1,1.7,1.7,3.2,3.5,3.2c1.9-0.1,3.3-1.7,3.2-3.6
			C999.1,910.4,997.5,908.9,995.6,908.9"/>
		<path class="st0" d="M900.5,889.7c1.7,0,3.3-1.6,3.2-3.5c0-1.9-1.6-3.3-3.5-3.2c-1.7,0-3.3,1.6-3.2,3.5S898.7,889.9,900.5,889.7"
			/>
		<path class="st0" d="M996,850.8c0,1.7,1.6,3.3,3.5,3.2c1.9,0,3.3-1.7,3.2-3.5s-1.7-3.2-3.5-3.2C997.5,847.5,996,849.1,996,850.8"
			/>
		<path class="st0" d="M895.5,893.5c-1.7,0-3.3,1.6-3.2,3.5c0,1.9,1.7,3.3,3.5,3.2c1.7-0.1,3.3-1.7,3.2-3.5S897.2,893.3,895.5,893.5
			"/>
		<path class="st0" d="M922,860.3c0,1.7,1.6,3.3,3.5,3.2c1.9,0,3.3-1.6,3.3-3.5c0-1.7-1.6-3.3-3.5-3.2
			C923.3,856.9,921.9,858.5,922,860.3"/>
		<path class="st0" d="M885.2,925.2c0,1.7,1.7,3.3,3.5,3.2s3.2-1.7,3.2-3.5s-1.7-3.3-3.5-3.2C886.7,921.8,885.2,923.4,885.2,925.2"
			/>
		<path class="st0" d="M887.3,907.3c0,1.7,1.7,3.2,3.5,3.2c1.7,0,3.2-1.7,3.2-3.5s-1.7-3.2-3.5-3.2
			C888.8,904,887.2,905.6,887.3,907.3"/>
		<path class="st0" d="M902.3,966.6c1.7,0,3.3-1.6,3.3-3.3s-1.6-3.3-3.3-3.2c-1.7,0-3.3,1.6-3.2,3.3
			C898.9,965,900.5,966.6,902.3,966.6"/>
		<path class="st0" d="M985.7,846c0,1.7,1.7,3.3,3.5,3.2c1.7,0,3.3-1.7,3.2-3.5c0-1.7-1.7-3.3-3.5-3.2S985.6,844.3,985.7,846"/>
		<path class="st0" d="M974.4,843.6c-0.1-1.7-1.7-3.3-3.5-3.2s-3.2,1.9-3.2,3.5c0.1,1.7,1.7,3.2,3.5,3.1
			C973.1,846.9,974.5,845.2,974.4,843.6"/>
		<path class="st0" d="M917.9,866.3c1.7-0.1,3.3-1.7,3.2-3.5c-0.1-1.7-1.7-3.3-3.5-3.2s-3.2,1.7-3.2,3.5
			C914.5,864.8,916.1,866.4,917.9,866.3"/>
		<path class="st0" d="M905.2,872.8c-1.7,0-3.3,1.7-3.2,3.5c0,1.7,1.7,3.3,3.5,3.2c1.7,0,3.2-1.7,3.2-3.3
			C908.5,874.3,906.9,872.8,905.2,872.8"/>
		<path class="st0" d="M888.9,947.6c-1.9,0-3.2,1.5-3.1,3.3c0,1.9,1.5,3.2,3.3,3.1c1.7,0,3.2-1.5,3.1-3.3
			C892.3,948.9,890.8,947.6,888.9,947.6"/>
		<path class="st0" d="M888.7,958.5c0,1.9,1.5,3.2,3.3,3.2c1.9,0,3.2-1.5,3.2-3.3c0-1.9-1.5-3.2-3.3-3.2
			C890,955.2,888.5,956.6,888.7,958.5"/>
		<path class="st0" d="M885.6,914.4c-1.7,0-3.2,1.6-3.1,3.3c0,1.7,1.6,3.2,3.3,3.1c1.9,0,3.2-1.6,3.1-3.3
			C888.9,915.7,887.3,914.2,885.6,914.4"/>
		<path class="st0" d="M883.2,943.2c0,1.7,1.6,3.2,3.3,3.2s3.2-1.6,3.2-3.3s-1.6-3.2-3.3-3.1C884.5,940,883.2,941.6,883.2,943.2"/>
		<path class="st0" d="M978.8,844.3c1.7,0,3.2-1.6,3.2-3.3s-1.6-3.2-3.3-3.2s-3.2,1.6-3.1,3.3C975.5,842.9,977.1,844.3,978.8,844.3"
			/>
		<path class="st0" d="M909.9,862.5c-1.7,0-3.2,1.7-3.1,3.3c0.1,1.6,1.7,3.1,3.3,3.1c1.7,0,3.2-1.7,3.1-3.3
			C913.2,864,911.6,862.5,909.9,862.5"/>
		<path class="st0" d="M1003.9,848.1c0,1.7,1.7,3.2,3.3,3.1c1.6-0.1,3.2-1.7,3.1-3.3c0-1.7-1.7-3.2-3.3-3.1
			C1005.2,844.9,1003.7,846.5,1003.9,848.1"/>
		<path class="st0" d="M934.7,847.3c0.1,1.6,1.7,3.1,3.3,3.1c1.7,0,3.2-1.7,3.1-3.3c0-1.7-1.7-3.2-3.3-3.1
			C936,844,934.5,845.7,934.7,847.3"/>
		<path class="st0" d="M945.5,847.6c1.6,0,3.2-1.6,3.2-3.3s-1.6-3.2-3.3-3.2s-3.2,1.7-3.1,3.3C942.3,846.1,943.9,847.7,945.5,847.6"
			/>
		<path class="st0" d="M895.9,889.1c-0.1-1.7-1.6-3.2-3.3-3.1c-1.7,0.1-3.2,1.7-3.1,3.3c0.1,1.7,1.7,3.1,3.3,3.1
			C894.5,892.4,896,890.8,895.9,889.1"/>
		<path class="st0" d="M1014.1,853.1c0,1.7,1.6,3.2,3.3,3.1c1.7,0,3.2-1.6,3.1-3.3c-0.1-1.7-1.6-3.2-3.3-3.1
			C1015.6,849.9,1014.1,851.3,1014.1,853.1"/>
		<path class="st0" d="M996.5,840c-1.7,0-3.2,1.6-3.1,3.3c0,1.7,1.6,3.2,3.3,3.1c1.6-0.1,3.1-1.6,3.1-3.3S998.3,839.9,996.5,840"/>
		<path class="st0" d="M880.4,935.7c0,1.7,1.6,3.2,3.3,3.1c1.7,0,3.2-1.6,3.1-3.3c-0.1-1.6-1.6-3.1-3.3-3.1
			C881.9,932.5,880.4,934,880.4,935.7"/>
		<path class="st0" d="M926.9,849.9c0,1.6,1.6,3.2,3.2,3.1c1.7,0,3.2-1.6,3.2-3.3c0-1.6-1.6-3.1-3.3-3.1
			C928.4,846.7,926.9,848.3,926.9,849.9"/>
		<path class="st0" d="M953.1,838.4c-1.7,0-3.2,1.6-3.2,3.2c0,1.7,1.6,3.2,3.3,3.2s3.2-1.6,3.1-3.3
			C956.3,839.9,954.7,838.4,953.1,838.4"/>
		<path class="st0" d="M884.7,899.7c0,1.6,1.6,3.2,3.3,3.1c1.7,0,3.2-1.6,3.1-3.3c-0.1-1.7-1.6-3.1-3.3-3.1S884.5,898,884.7,899.7"
			/>
		<path class="st0" d="M897.7,882.1c1.7,0,3.2-1.6,3.1-3.3c0-1.7-1.6-3.2-3.3-3.1c-1.7,0-3.2,1.6-3.1,3.3
			C894.4,880.7,896,882.1,897.7,882.1"/>
		<path class="st0" d="M919.5,852.8c0,1.6,1.7,3.2,3.3,3.1c1.6-0.1,3.1-1.7,3.1-3.3s-1.7-3.2-3.3-3.1
			C920.9,849.6,919.5,851.2,919.5,852.8"/>
		<path class="st0" d="M957.5,839.1c0.1,1.6,1.6,3.1,3.3,3.1c1.6,0,3.2-1.7,3.1-3.3c-0.1-1.9-1.6-3.1-3.3-3.1
			C958.8,835.9,957.3,837.5,957.5,839.1"/>
		<path class="st0" d="M886.1,909.8c0-1.7-1.5-3.1-3.2-2.9c-1.7,0-2.9,1.5-2.9,3.2c0,1.6,1.6,3.1,3.3,2.9
			C884.9,912.9,886.3,911.6,886.1,909.8"/>
		<path class="st0" d="M880.8,924.8c-1.6-0.1-3.1,1.7-3.1,3.2c0,1.6,1.7,3.1,3.2,3.1s3.1-1.7,3.1-3.2
			C883.9,926.4,882.3,924.6,880.8,924.8"/>
		<path class="st0" d="M983.2,838.4c-0.1,1.5,1.7,3.1,3.2,3.1s3.1-1.7,3.1-3.3c-0.1-1.5-1.7-3.1-3.3-2.9
			C984.8,835.2,983.1,836.8,983.2,838.4"/>
		<path class="st0" d="M902.7,871.6c1.6-0.1,3.1-1.6,2.9-3.2c0-1.7-1.6-3.1-3.3-2.9c-1.6,0.1-2.9,1.6-2.9,3.2
			C899.5,870.4,900.9,871.7,902.7,871.6"/>
		<path class="st0" d="M1020.3,863.6c1.6,0,3.1-1.6,3.1-3.2c0-1.6-1.6-3.1-3.2-2.9c-1.6,0-3.1,1.6-2.9,3.2
			C1017.1,862.3,1018.7,863.6,1020.3,863.6"/>
		<path class="st0" d="M965.2,836.3c0,1.6,1.6,3.1,3.2,3.1c1.6,0,3.1-1.6,3.1-3.2c0-1.6-1.6-3.1-3.2-2.9
			C966.7,833.1,965.2,834.5,965.2,836.3"/>
		<path class="st0" d="M918,855.3c0-1.6-1.6-3.1-3.2-2.9c-1.6,0-3.1,1.6-2.9,3.2c0.1,1.6,1.6,3.1,3.2,2.9
			C916.7,858.5,918.1,856.9,918,855.3"/>
		<path class="st0" d="M882.1,892.1c0,1.6,1.6,3.1,3.2,2.9s3.1-1.6,2.9-3.2s-1.6-3.1-3.2-2.9C883.3,889.1,882.1,890.4,882.1,892.1"
			/>
		<path class="st0" d="M884.4,964.2c1.6,0,3.1-1.6,2.9-3.2c0-1.6-1.6-3.1-3.2-2.9s-2.9,1.6-2.9,3.1
			C881.3,962.8,882.8,964.2,884.4,964.2"/>
		<path class="st0" d="M1004.1,837.3c-1.6,0.1-3.1,1.6-2.9,3.2c0.1,1.7,1.5,2.9,3.2,2.9c1.6,0,2.9-1.6,2.9-3.2
			C1007.2,838.7,1005.7,837.2,1004.1,837.3"/>
		<path class="st0" d="M1014.8,848.3c1.6,0,3.1-1.6,2.9-3.2c0-1.6-1.6-3.1-3.2-2.9c-1.6,0.1-2.9,1.6-2.9,3.2
			C1011.7,846.9,1013.2,848.4,1014.8,848.3"/>
		<path class="st0" d="M878.1,917.3c-1.5,0-3.1,1.5-2.9,3.1c0,1.6,1.5,3.1,3.2,2.9c1.6,0,2.9-1.6,2.9-3.1
			C881.2,918.8,879.7,917.3,878.1,917.3"/>
		<path class="st0" d="M887.1,881.6c0,1.5,1.5,3.1,3.1,2.9c1.6,0,3.1-1.5,2.9-3.2c0-1.6-1.6-2.9-3.1-2.9
			C888.4,878.5,886.9,880,887.1,881.6"/>
		<path class="st0" d="M881.3,950.4c-1.6,0.1-3.1,1.6-2.9,3.2c0.1,1.7,1.6,3.1,3.2,2.9c1.7-0.1,2.9-1.6,2.9-3.2
			C884.5,951.8,882.9,950.4,881.3,950.4"/>
		<path class="st0" d="M976,836.4c1.5,0,3.1-1.6,2.9-3.2c0-1.6-1.6-3.1-3.2-2.9c-1.5,0-2.9,1.6-2.9,3.2
			C972.9,834.9,974.4,836.4,976,836.4"/>
		<path class="st0" d="M880.4,905.3c1.5,0.1,3.1-1.6,2.9-3.1c-0.1-1.6-1.5-2.8-3.1-2.8c-1.5,0-3.1,1.6-2.9,3.2
			C877.5,904.1,878.7,905.3,880.4,905.3"/>
		<path class="st0" d="M875.7,946c0,1.7,1.3,2.9,3.1,2.9c1.6,0,2.9-1.3,2.8-3.1c0-1.7-1.3-2.9-3.1-2.9
			C876.9,943,875.7,944.4,875.7,946"/>
		<path class="st0" d="M904.4,858.3c-0.1,1.3,1.5,3.1,3.1,2.8c1.6-0.1,2.8-1.5,2.8-3.1c0-1.3-1.6-3.1-3.2-2.8
			C905.6,855.2,904.4,856.5,904.4,858.3"/>
		<path class="st0" d="M891.9,871.3c0,1.6,1.5,2.9,3.1,2.8c1.6,0,2.9-1.5,2.9-3.1s-1.5-2.9-3.1-2.8
			C893.1,868.3,891.9,869.7,891.9,871.3"/>
		<path class="st0" d="M990.9,835.6c0,1.6,1.3,2.9,3.1,2.9s2.9-1.5,2.9-3.1s-1.5-2.9-3.1-2.8C992.1,832.5,990.9,833.9,990.9,835.6"
			/>
		<path class="st0" d="M927.6,845.2c1.6,0,2.9-1.5,2.9-3.1s-1.5-2.9-3.1-2.9s-2.9,1.5-2.8,3.1C924.5,844,926,845.3,927.6,845.2"/>
		<path class="st0" d="M950.4,837.1c1.6-0.1,2.9-1.5,2.8-3.1c0-1.6-1.5-2.9-3.1-2.8c-1.6,0-2.8,1.5-2.8,3.1
			C947.3,835.7,948.8,837.1,950.4,837.1"/>
		<path class="st0" d="M942.8,839.7c1.6,0,2.9-1.5,2.9-3.1s-1.5-2.9-3.1-2.9s-2.9,1.5-2.9,3.1C939.9,838.4,941.2,839.7,942.8,839.7"
			/>
		<path class="st0" d="M932.1,839.6c0,1.6,1.5,2.9,3.1,2.9s2.9-1.5,2.9-3.1s-1.5-2.9-3.1-2.9C933.3,836.5,932,838,932.1,839.6"/>
		<path class="st0" d="M873.1,938.4c0,1.6,1.5,2.9,3.1,2.8c1.6-0.1,2.9-1.5,2.8-3.1c-0.1-1.6-1.5-2.8-3.1-2.8
			C874.4,935.3,873.1,936.8,873.1,938.4"/>
		<path class="st0" d="M983.5,827.6c-1.5,0-2.9,1.5-2.8,3.1c0,1.5,1.5,2.8,2.9,2.8c1.5,0,2.9-1.5,2.8-3.1
			C986.4,828.9,985.1,827.6,983.5,827.6"/>
		<path class="st0" d="M955.1,831.3c0.1,1.5,1.6,2.9,3.1,2.8c1.5-0.1,2.8-1.6,2.8-3.1c-0.1-1.5-1.6-2.9-3.1-2.8
			C956.3,828.4,954.9,829.9,955.1,831.3"/>
		<path class="st0" d="M919.7,842c-1.6,0.1-2.9,1.6-2.8,3.1c0.1,1.5,1.6,2.8,3.1,2.8c1.5-0.1,2.9-1.6,2.8-3.1
			C922.7,843.3,921.2,842,919.7,842"/>
		<path class="st0" d="M899.9,863.9c1.5,0,2.9-1.5,2.8-3.1c0-1.5-1.5-2.9-3.1-2.8c-1.5,0-2.8,1.5-2.8,3.1
			C896.8,862.5,898.3,863.9,899.9,863.9"/>
		<path class="st0" d="M872.4,912.8c0,1.5,1.5,2.9,3.1,2.9c1.5,0,2.8-1.5,2.8-3.1c0-1.5-1.5-2.9-3.1-2.8
			C873.7,909.8,872.4,911.2,872.4,912.8"/>
		<path class="st0" d="M873.3,933.6c1.6-0.1,2.8-1.2,2.8-2.9c0-1.5-1.5-2.9-3.1-2.8c-1.5,0-2.8,1.5-2.8,3.1
			C870.4,932.2,871.9,933.7,873.3,933.6"/>
		<path class="st0" d="M1012,840.5c1.6-0.1,2.8-1.2,2.8-2.9c0-1.6-1.2-2.8-2.9-2.8c-1.6,0-2.8,1.2-2.8,2.9
			C1009.1,839.3,1010.3,840.4,1012,840.5"/>
		<path class="st0" d="M1019.5,842.5c0,1.6,1.3,2.8,2.9,2.8c1.6,0,2.8-1.3,2.8-2.9c0-1.6-1.3-2.8-2.9-2.8
			C1020.7,839.7,1019.3,840.9,1019.5,842.5"/>
		<path class="st0" d="M879.6,884.4c0,1.6,1.3,2.8,2.9,2.8s2.8-1.3,2.8-2.9s-1.3-2.8-2.9-2.8C880.7,881.6,879.5,882.8,879.6,884.4"
			/>
		<path class="st0" d="M909.5,847.9c0,1.6,1.3,2.8,2.9,2.8s2.8-1.3,2.8-2.9s-1.3-2.8-2.9-2.7C910.7,844.9,909.3,846.3,909.5,847.9"
			/>
		<path class="st0" d="M965.5,825.6c-1.6,0-2.8,1.3-2.8,2.9s1.3,2.8,2.9,2.8s2.8-1.3,2.7-2.9C968.3,826.8,967.1,825.6,965.5,825.6"
			/>
		<path class="st0" d="M1001.5,830c-1.6,0-2.8,1.5-2.7,2.9c0,1.5,1.5,2.8,2.9,2.7c1.5,0,2.8-1.5,2.7-2.9
			C1004.4,831.2,1003.1,829.9,1001.5,830"/>
		<path class="st0" d="M877.6,897.5c1.5,0,2.8-1.5,2.8-2.9c0-1.5-1.5-2.8-2.9-2.8c-1.5,0-2.8,1.5-2.7,2.9
			C874.7,896.3,876,897.6,877.6,897.5"/>
		<path class="st0" d="M884.4,874.1c0,1.6,1.3,2.8,2.9,2.8c1.6,0,2.8-1.3,2.8-2.9s-1.3-2.8-2.9-2.8
			C885.6,871.2,884.4,872.5,884.4,874.1"/>
		<path class="st0" d="M870.7,925.8c1.5,0,2.8-1.5,2.7-2.9c-0.1-1.5-1.5-2.8-2.9-2.7c-1.5,0.1-2.7,1.5-2.7,2.9
			C867.7,924.6,869.2,925.8,870.7,925.8"/>
		<path class="st0" d="M872.7,908c1.5,0,2.8-1.5,2.7-2.9c0-1.5-1.5-2.8-2.9-2.7c-1.5,0-2.7,1.5-2.7,2.9
			C869.9,906.6,871.2,908,872.7,908"/>
		<path class="st0" d="M988.3,828c0,1.5,1.5,2.8,2.9,2.8c1.5,0,2.8-1.5,2.7-2.9c0-1.5-1.3-2.7-2.8-2.7
			C989.6,825.1,988.3,826.5,988.3,828"/>
		<path class="st0" d="M871.1,956.4c0,1.5,1.5,2.8,2.9,2.7c1.5,0,2.8-1.5,2.7-2.9c-0.1-1.5-1.5-2.8-2.9-2.7
			C872.3,953.6,870.9,954.9,871.1,956.4"/>
		<path class="st0" d="M889.3,863.7c0,1.5,1.5,2.8,2.9,2.8c1.5,0,2.8-1.5,2.7-2.9c0-1.5-1.5-2.8-2.9-2.8
			C890.7,860.9,889.3,862.3,889.3,863.7"/>
		<path class="st0" d="M973.1,823.1c-1.5,0.1-2.8,1.5-2.7,2.9c0.1,1.5,1.5,2.7,2.9,2.7c1.5-0.1,2.8-1.5,2.7-2.9
			C976,824.3,974.5,822.9,973.1,823.1"/>
		<path class="st0" d="M904.7,853.3c1.5,0,2.8-1.5,2.7-2.9c0-1.5-1.5-2.8-2.9-2.8c-1.5,0-2.8,1.5-2.7,2.9
			C901.9,852.1,903.2,853.3,904.7,853.3"/>
		<path class="st0" d="M871.2,951.4c1.5,0,2.8-1.5,2.7-2.8c0-1.5-1.5-2.8-2.9-2.8c-1.5,0.1-2.7,1.5-2.7,2.9
			C868.4,950.1,869.9,951.4,871.2,951.4"/>
		<path class="st0" d="M932.8,960c0,1.5,1.3,2.7,2.8,2.7s2.7-1.3,2.7-2.8s-1.3-2.7-2.8-2.7C933.9,957.3,932.7,958.5,932.8,960"/>
		<path class="st0" d="M894.8,968.8c1.5,0,2.7-1.3,2.7-2.8s-1.3-2.7-2.8-2.7s-2.7,1.3-2.7,2.8C892,967.7,893.2,968.8,894.8,968.8"/>
		<path class="st0" d="M940,831.9c1.5,0,2.7-1.3,2.7-2.8s-1.3-2.7-2.8-2.7s-2.7,1.3-2.7,2.8C937.3,830.8,938.5,831.9,940,831.9"/>
		<path class="st0" d="M943.2,959.8c1.5,0,2.7-1.3,2.7-2.8s-1.3-2.7-2.8-2.7s-2.7,1.3-2.7,2.8C940.5,958.8,941.7,959.8,943.2,959.8"
			/>
		<path class="st0" d="M932.3,829.2c-1.5,0-2.7,1.3-2.7,2.8s1.3,2.7,2.8,2.7s2.7-1.3,2.7-2.8C934.9,830.4,933.7,829.2,932.3,829.2"
			/>
		<path class="st0" d="M865.7,941.2c0,1.5,1.3,2.7,2.8,2.7s2.7-1.3,2.5-2.8c0-1.5-1.3-2.7-2.8-2.5
			C866.8,938.4,865.6,939.6,865.7,941.2"/>
		<path class="st0" d="M1016.8,835.1c0,1.5,1.3,2.7,2.8,2.7c1.5-0.1,2.7-1.3,2.5-2.8c0-1.5-1.3-2.7-2.8-2.7
			S1016.7,833.6,1016.8,835.1"/>
		<path class="st0" d="M865.1,915.6c0,1.5,1.3,2.7,2.8,2.5c1.5,0,2.7-1.3,2.5-2.8c0-1.5-1.3-2.7-2.8-2.5
			C866.3,912.8,865.1,914.1,865.1,915.6"/>
		<path class="st0" d="M922,834.7c0,1.5,1.3,2.7,2.8,2.7s2.7-1.3,2.7-2.8s-1.3-2.7-2.8-2.7C923.2,832,922,833.2,922,834.7"/>
		<path class="st0" d="M944.8,826.4c0,1.5,1.3,2.7,2.8,2.7s2.7-1.3,2.5-2.8c0-1.5-1.3-2.7-2.8-2.7
			C946,823.7,944.8,825.1,944.8,826.4"/>
		<path class="st0" d="M1009.2,832.8c1.3,0,2.7-1.3,2.7-2.8s-1.3-2.7-2.8-2.7c-1.3,0-2.7,1.3-2.7,2.8
			C1006.5,831.5,1007.9,832.8,1009.2,832.8"/>
		<path class="st0" d="M874.8,889.9c1.5,0,2.7-1.3,2.7-2.8s-1.5-2.7-2.8-2.7c-1.5,0.1-2.7,1.5-2.5,2.8
			C872,888.7,873.5,889.9,874.8,889.9"/>
		<path class="st0" d="M897.2,855.9c1.5,0,2.7-1.3,2.7-2.8s-1.3-2.7-2.8-2.5c-1.3,0-2.7,1.3-2.5,2.8
			C894.4,854.7,895.7,855.9,897.2,855.9"/>
		<path class="st0" d="M916.9,834.7c-1.5,0-2.7,1.5-2.5,2.8c0,1.5,1.5,2.7,2.8,2.5s2.7-1.5,2.5-2.8
			C919.7,835.9,918.4,834.7,916.9,834.7"/>
		<path class="st0" d="M876.9,876.9c0,1.5,1.3,2.7,2.8,2.5c1.5,0,2.7-1.5,2.5-2.8c0-1.3-1.3-2.7-2.8-2.5
			C878.1,874.1,876.8,875.5,876.9,876.9"/>
		<path class="st0" d="M927.7,959.8c-1.5,0.1-2.7,1.5-2.5,2.8c0.1,1.5,1.5,2.7,2.8,2.5s2.5-1.5,2.5-2.8S929.2,959.8,927.7,959.8"/>
		<path class="st0" d="M980.9,825.7c1.3,0,2.7-1.5,2.5-2.8c0-1.3-1.5-2.7-2.8-2.5c-1.3,0-2.7,1.5-2.5,2.8
			C978.1,824.5,979.6,825.7,980.9,825.7"/>
		<path class="st0" d="M996.1,825.2c0,1.3,1.5,2.7,2.8,2.5c1.3,0,2.7-1.5,2.5-2.8c-0.1-1.3-1.5-2.7-2.8-2.5S996,823.9,996.1,825.2"
			/>
		<path class="st0" d="M867.2,897.6c0,1.3,1.5,2.7,2.8,2.5c1.3,0,2.7-1.5,2.5-2.8c0-1.3-1.5-2.7-2.8-2.5
			C868.5,894.8,867.2,896.3,867.2,897.6"/>
		<path class="st0" d="M865.6,930.6c-1.3,0-2.7,1.3-2.7,2.8c0,1.3,1.3,2.7,2.8,2.7c1.3,0,2.7-1.3,2.7-2.8
			C868.3,932,866.9,930.6,865.6,930.6"/>
		<path class="st0" d="M884.5,868.9c1.3,0,2.7-1.5,2.7-2.8s-1.5-2.7-2.8-2.5c-1.3,0-2.5,1.3-2.5,2.7
			C881.9,867.7,883.2,869.1,884.5,868.9"/>
		<path class="st0" d="M948,954.4c0,1.3,1.5,2.7,2.8,2.7s2.7-1.5,2.5-2.8c0-1.3-1.3-2.5-2.7-2.5C949.3,951.7,948,953,948,954.4"/>
		<path class="st0" d="M906.8,840.3c0.1,1.5,1.1,2.5,2.7,2.5c1.5,0,2.7-1.1,2.7-2.7c0-1.5-1.1-2.5-2.7-2.5
			C908,837.6,906.9,838.7,906.8,840.3"/>
		<path class="st0" d="M886.8,856c0,1.3,1.3,2.5,2.7,2.5s2.5-1.3,2.5-2.7s-1.3-2.5-2.7-2.5C888,853.5,886.8,854.7,886.8,856"/>
		<path class="st0" d="M862.4,907.8c0,1.3,1.3,2.5,2.7,2.5c1.3,0,2.5-1.3,2.5-2.7c-0.1-1.3-1.3-2.5-2.7-2.4
			C863.6,905.3,862.4,906.5,862.4,907.8"/>
		<path class="st0" d="M860.4,926c0,1.3,1.3,2.5,2.7,2.5s2.5-1.3,2.4-2.7c-0.1-1.3-1.3-2.5-2.7-2.4
			C861.5,923.3,860.3,924.6,860.4,926"/>
		<path class="st0" d="M899.3,842.9c0,1.3,1.3,2.5,2.7,2.4c1.3,0,2.5-1.3,2.4-2.7c-0.1-1.3-1.3-2.5-2.7-2.4
			C900.4,840.4,899.2,841.6,899.3,842.9"/>
		<path class="st0" d="M976,935.8c0.1,1.3,1.3,2.5,2.7,2.4c1.3-0.1,2.5-1.3,2.4-2.7c-0.1-1.3-1.3-2.5-2.7-2.4
			C977.1,933.3,975.9,934.6,976,935.8"/>
		<path class="st0" d="M1025.2,852.7c1.3,0,2.5-1.5,2.4-2.7s-1.3-2.5-2.7-2.4c-1.2,0-2.5,1.3-2.5,2.7
			C1022.5,851.5,1023.9,852.8,1025.2,852.7"/>
		<path class="st0" d="M869.5,879.6c0,1.3,1.3,2.5,2.7,2.4c1.2,0,2.4-1.3,2.4-2.7c0-1.2-1.3-2.5-2.7-2.5
			C870.7,876.9,869.5,878.3,869.5,879.6"/>
		<path class="st0" d="M1014.3,827.3c0,1.2,1.3,2.5,2.7,2.5c1.2,0,2.5-1.3,2.5-2.7c0-1.2-1.3-2.4-2.5-2.4
			C1015.5,824.7,1014.3,826,1014.3,827.3"/>
		<path class="st0" d="M1003.9,822.4c0,1.3,1.3,2.5,2.7,2.4c1.3-0.1,2.4-1.3,2.4-2.7s-1.3-2.5-2.7-2.4
			C1004.9,819.9,1003.7,821.2,1003.9,822.4"/>
		<path class="st0" d="M864.7,889.9c0,1.2,1.3,2.4,2.5,2.4s2.5-1.3,2.5-2.7s-1.3-2.5-2.7-2.4C865.7,887.3,864.5,888.7,864.7,889.9"
			/>
		<path class="st0" d="M863.7,959.2c0,1.2,1.3,2.5,2.5,2.4c1.5-0.1,2.4-1.1,2.5-2.5c0-1.2-1.2-2.5-2.5-2.4
			C864.8,956.6,863.9,957.6,863.7,959.2"/>
		<path class="st0" d="M860.9,951.4c0,1.3,1.3,2.5,2.7,2.4c1.3-0.1,2.4-1.3,2.4-2.7s-1.3-2.5-2.7-2.4
			C862.1,948.9,860.9,950.2,860.9,951.4"/>
		<path class="st0" d="M874.5,869.2c0,1.3,1.2,2.4,2.7,2.4c1.3,0,2.4-1.2,2.3-2.5c0-1.3-1.2-2.4-2.7-2.4
			C875.5,866.7,874.4,867.9,874.5,869.2"/>
		<path class="st0" d="M988.5,922.8c0,1.3,1.2,2.4,2.5,2.4s2.4-1.2,2.4-2.5s-1.2-2.4-2.5-2.4C989.5,920.2,988.4,921.3,988.5,922.8"
			/>
		<path class="st0" d="M858.4,944c0,1.3,1.2,2.4,2.5,2.4s2.4-1.2,2.4-2.5s-1.2-2.4-2.5-2.4S858.4,942.6,858.4,944"/>
		<path class="st0" d="M857.7,918.2c0,1.3,1.2,2.4,2.5,2.4s2.4-1.2,2.4-2.5s-1.2-2.4-2.5-2.4S857.6,916.9,857.7,918.2"/>
		<path class="st0" d="M874.1,963.8c0,1.3,1.2,2.4,2.5,2.4s2.4-1.2,2.4-2.5s-1.2-2.4-2.5-2.4C875.2,961.4,874.1,962.6,874.1,963.8"
			/>
		<path class="st0" d="M952.8,823.9c0,1.3,1.2,2.4,2.5,2.4s2.4-1.2,2.4-2.5s-1.2-2.4-2.5-2.4C953.9,821.3,952.7,822.5,952.8,823.9"
			/>
		<path class="st0" d="M920.3,967.8c1.3,0,2.4-1.2,2.4-2.5s-1.2-2.4-2.5-2.4s-2.4,1.2-2.4,2.5C917.9,966.8,918.9,967.8,920.3,967.8"
			/>
		<path class="st0" d="M862.4,902.7c1.3,0,2.4-1.3,2.4-2.5c0-1.3-1.3-2.4-2.5-2.4c-1.3,0-2.4,1.2-2.4,2.5S861.1,902.8,862.4,902.7"
			/>
		<path class="st0" d="M894.4,848.1c1.3,0,2.4-1.3,2.4-2.5c0-1.3-1.3-2.4-2.5-2.4s-2.4,1.2-2.3,2.5
			C891.9,846.9,893.1,848.1,894.4,848.1"/>
		<path class="st0" d="M881.7,861.2c1.3,0,2.4-1.2,2.4-2.5s-1.2-2.4-2.5-2.4s-2.4,1.3-2.4,2.5C879.3,860.1,880.5,861.2,881.7,861.2"
			/>
		<path class="st0" d="M912,829.7c0,1.3,1.2,2.4,2.5,2.4c1.2,0,2.4-1.2,2.4-2.5s-1.2-2.4-2.5-2.4C913.1,827.3,911.9,828.5,912,829.7
			"/>
		<path class="st0" d="M855.6,936.2c0,1.2,1.3,2.4,2.5,2.4s2.4-1.3,2.3-2.5c0-1.2-1.3-2.4-2.5-2.4
			C856.8,933.8,855.6,935,855.6,936.2"/>
		<path class="st0" d="M1013.2,891.3c1.2,0,2.4-1.3,2.4-2.5s-1.3-2.4-2.5-2.3c-1.2,0-2.4,1.3-2.4,2.5
			C1010.8,890.1,1012,891.3,1013.2,891.3"/>
		<path class="st0" d="M1024.8,832.3c0,1.2,1.3,2.4,2.5,2.3c1.2,0,2.4-1.3,2.4-2.5s-1.3-2.4-2.5-2.3
			C1025.9,829.9,1024.7,831.1,1024.8,832.3"/>
		<path class="st0" d="M1018.1,880.9c1.2,0,2.4-1.3,2.4-2.5s-1.3-2.4-2.5-2.4s-2.4,1.3-2.4,2.5
			C1015.7,879.7,1016.9,880.9,1018.1,880.9"/>
		<path class="st0" d="M904.4,832.7c0,1.3,1.1,2.3,2.4,2.3s2.3-1.2,2.3-2.4c0-1.3-1.2-2.3-2.4-2.3
			C905.3,830.3,904.3,831.3,904.4,832.7"/>
		<path class="st0" d="M855.1,910.6c0,1.2,1.2,2.3,2.4,2.3s2.3-1.2,2.3-2.4s-1.2-2.3-2.4-2.3C856,908.2,854.9,909.4,855.1,910.6"/>
		<path class="st0" d="M921.9,824.7c-1.2,0-2.3,1.2-2.3,2.4s1.2,2.3,2.4,2.3s2.3-1.2,2.3-2.4C924.3,825.7,923.2,824.7,921.9,824.7"
			/>
		<path class="st0" d="M1024.5,826.9c1.2,0,2.3-1.2,2.3-2.4s-1.2-2.3-2.4-2.3c-1.2,0-2.3,1.2-2.3,2.4
			C1022.1,825.9,1023.2,826.9,1024.5,826.9"/>
		<path class="st0" d="M855.3,930.9c1.2,0,2.3-1.2,2.3-2.4s-1.2-2.3-2.4-2.3s-2.3,1.2-2.3,2.4C852.9,929.8,854.1,930.9,855.3,930.9"
			/>
		<path class="st0" d="M884.3,848.5c0,1.2,1.2,2.3,2.4,2.3s2.3-1.2,2.3-2.4s-1.2-2.3-2.4-2.3C885.3,846.1,884.3,847.3,884.3,848.5"
			/>
		<path class="st0" d="M864.3,879.9c-1.2,0-2.3,1.2-2.3,2.4s1.2,2.3,2.4,2.3s2.3-1.2,2.3-2.4C866.7,880.9,865.5,879.9,864.3,879.9"
			/>
		<path class="st0" d="M866.9,872c0,1.2,1.2,2.3,2.4,2.3s2.3-1.2,2.3-2.4s-1.2-2.3-2.4-2.3S866.9,870.8,866.9,872"/>
		<path class="st0" d="M988.4,817.9c-1.2,0-2.3,1.2-2.3,2.4s1.2,2.3,2.4,2.3s2.3-1.2,2.3-2.4C990.7,818.9,989.6,817.9,988.4,817.9"
			/>
		<path class="st0" d="M1011.7,819.7c0,1.2,1.2,2.3,2.4,2.3c1.2-0.1,2.3-1.2,2.1-2.4c0-1.2-1.2-2.3-2.4-2.3
			C1012.8,817.5,1011.7,818.5,1011.7,819.7"/>
		<path class="st0" d="M871.9,861.6c0,1.2,1.2,2.3,2.4,2.1c1.2,0,2.3-1.2,2.3-2.4s-1.3-2.3-2.4-2.3
			C872.8,859.3,871.7,860.5,871.9,861.6"/>
		<path class="st0" d="M859.5,890.3c-1.2,0-2.3,1.2-2.3,2.4s1.2,2.3,2.4,2.3s2.3-1.2,2.3-2.4C861.7,891.3,860.5,890.3,859.5,890.3"
			/>
		<path class="st0" d="M896.9,835.3c0,1.2,1.2,2.3,2.4,2.3s2.3-1.2,2.1-2.4c0-1.2-1.2-2.3-2.4-2.3
			C897.9,833.1,896.8,834.1,896.9,835.3"/>
		<path class="st0" d="M856,956.4c1.2,0,2.1-1.1,2.1-2.3s-1.1-2.1-2.3-2.1s-2.1,1.1-2.1,2.3C853.7,955.4,854.8,956.4,856,956.4"/>
		<path class="st0" d="M956.1,951.7c0,1.2,1.1,2.1,2.3,2.1s2.1-1.1,2.1-2.3s-1.1-2.1-2.3-2.1C957.1,949.6,956.1,950.5,956.1,951.7"
			/>
		<path class="st0" d="M850.3,921c0,1.2,1.1,2.1,2.3,2.1s2.1-1.2,2.1-2.3c0-1.2-1.1-2.1-2.3-2.1C851.2,918.8,850.3,919.8,850.3,921"
			/>
		<path class="st0" d="M854.8,905c1.2,0,2.1-1.1,2.1-2.3s-1.1-2.1-2.3-2.1s-2.1,1.1-2.1,2.3C852.5,904.1,853.6,905.2,854.8,905"/>
		<path class="st0" d="M853.2,948.6c1.1,0,2.1-1.1,2.1-2.3s-1.1-2.3-2.3-2.1c-1.1,0-2.1,1.2-2.1,2.3
			C850.9,947.7,852.1,948.8,853.2,948.6"/>
		<path class="st0" d="M876.8,851.2c0,1.1,1.1,2.1,2.3,2.1s2.1-1.2,2.1-2.3s-1.2-2.1-2.3-2.1S876.8,850,876.8,851.2"/>
		<path class="st0" d="M1006.1,899.3c0,1.2,1.1,2.1,2.3,2.1s2.1-1.1,2.1-2.3s-1.1-2.1-2.3-2.1C1007.1,897.1,1006,898.1,1006.1,899.3
			"/>
		<path class="st0" d="M889.3,838c0,1.1,1.1,2.1,2.3,2.1s2.1-1.1,2.1-2.3c0-1.1-1.1-2.1-2.3-2.1C890.3,835.9,889.2,836.9,889.3,838"
			/>
		<path class="st0" d="M962.8,818.8c-1.1,0-2.1,1.2-2.1,2.3s1.1,2.1,2.3,2.1c1.1,0,2.1-1.1,2.1-2.3
			C965.1,819.7,964,818.8,962.8,818.8"/>
		<path class="st0" d="M912.7,970.4c1.1,0,2.1-1.2,2.1-2.3c0-0.9-1.1-2.1-2.1-2.1c-1.1,0-2.1,1.1-2.1,2.1
			C910.5,969.2,911.6,970.4,912.7,970.4"/>
		<path class="st0" d="M850.3,936.9c-1.2,0-2,0.9-2,2.1c0,1.2,0.9,2,2.3,2c1.2,0,2-1.1,2-2.1C852.4,937.7,851.5,936.8,850.3,936.9"
			/>
		<path class="st0" d="M861.6,872.5c-1.2,0-2,0.9-2,2.1c0,1.2,0.9,2,2.1,2c1.2,0,2-0.9,2-2.1C863.7,873.3,862.8,872.4,861.6,872.5"
			/>
		<path class="st0" d="M931.7,824.1c0-1.2-0.9-2-2.1-2s-2,0.9-2,2.3c0,1.2,0.9,2,2.1,2C930.9,826.3,931.7,825.3,931.7,824.1"/>
		<path class="st0" d="M1020.9,868.3c0,1.2,1.1,2,2.1,2c1.2,0,2-1.1,2-2.1c0-1.2-1.1-2-2.1-2
			C1021.7,866.1,1020.8,867.1,1020.9,868.3"/>
		<path class="st0" d="M856.7,882.9c-1.2,0-2,1.1-2,2.1c0,1.2,1.1,2,2.1,2c1.2,0,2-1.1,2-2.1C858.8,883.7,857.9,882.9,856.7,882.9"
			/>
		<path class="st0" d="M849.7,911.3c-1.2,0-2,0.9-2,2.1c0,1.2,0.9,2,2.1,2c1.2,0,2-0.9,2-2.1C851.9,912.1,850.9,911.3,849.7,911.3"
			/>
		<path class="st0" d="M864.4,864.3c0,1.1,1.1,2.1,2.1,2c1.1,0,2-1.1,2-2.1c0-1.1-1.1-2-2.1-2C865.3,862.1,864.4,863.2,864.4,864.3"
			/>
		<path class="st0" d="M884.9,968.8c0,1.1,1.1,2.1,2.1,2c1.1,0,2-1.1,2-2.1c0-1.1-1.1-2-2.1-2C885.9,966.6,884.8,967.7,884.9,968.8"
			/>
		<path class="st0" d="M883.9,838.7c-1.1,0-2,1.1-2,2.1c0,1.1,1.1,2.1,2.1,2c1.1,0,2-1.1,2-2.1C886,839.6,884.9,838.7,883.9,838.7"
			/>
		<path class="st0" d="M851.9,893.3c-1.1,0-2,1.1-2,2.1c0,1.1,1.1,2,2.1,2s2-1.1,2-2.1C853.9,894.3,852.9,893.3,851.9,893.3"/>
		<path class="st0" d="M845.6,931.3c0,1.1,1.1,2,2.1,2s2-1.1,2-2.1c0-1.1-1.1-2-2.1-2C846.7,929.3,845.6,930.2,845.6,931.3"/>
		<path class="st0" d="M871.3,851.9c-0.9,0-2,1.1-2,2.1c0,0.9,1.1,2,2.1,2c0.9,0,2-1.1,2-2.1C873.3,852.8,872.3,851.9,871.3,851.9"
			/>
		<path class="st0" d="M994,817.7c0,1.1,1.1,1.9,2.1,1.9c0.9,0,1.9-1.1,1.9-2c0-1.1-1.1-1.9-2.1-1.9S994,816.7,994,817.7"/>
		<path class="st0" d="M845.1,905.7c0,0.9,1.1,1.9,2,1.9s1.9-1.1,1.9-2s-1.1-1.9-2-1.9C846,903.9,845.1,904.8,845.1,905.7"/>
		<path class="st0" d="M842.9,923.7c0,0.9,0.9,1.9,2,1.9s1.9-0.9,1.9-2c0-0.9-0.9-1.9-2-1.9C843.7,921.7,842.9,922.8,842.9,923.7"/>
		<path class="st0" d="M876.3,841.6c-1.1,0-1.9,0.9-1.9,2s0.9,1.9,2,1.9c0.9,0,1.9-0.9,1.9-2C878.1,842.5,877.2,841.6,876.3,841.6"
			/>
		<path class="st0" d="M1021.5,814.9c-0.9,0-1.9,1.1-1.9,2c0.1,0.9,1.1,1.9,2,1.7c0.9-0.1,1.9-1.1,1.7-2
			C1023.5,815.9,1022.4,814.9,1021.5,814.9"/>
		<path class="st0" d="M853.9,875.5c-0.9,0-1.9,1.1-1.9,2s1.1,1.9,2,1.7c0.9-0.1,1.9-1.1,1.7-2C855.9,876.4,854.8,875.3,853.9,875.5
			"/>
		<path class="st0" d="M858.8,865.1c-0.9,0-1.9,1.1-1.9,2s1.1,1.9,2,1.9s1.9-1.1,1.9-2S859.7,865.1,858.8,865.1"/>
		<path class="st0" d="M843.6,949.3c0,0.9,1.1,1.9,2,1.9s1.9-0.9,1.9-1.9c0-0.9-0.9-1.9-2-1.9C844.5,947.4,843.6,948.4,843.6,949.3"
			/>
		<path class="st0" d="M886.8,830.5c0,0.9,1.1,1.9,2,1.9c0.9-0.1,1.9-1.1,1.7-2c-0.1-0.9-1.1-1.9-2-1.7
			C887.7,828.5,886.8,829.6,886.8,830.5"/>
		<path class="st0" d="M1029.9,838c-1.1,0-1.9,0.8-1.7,1.9c0,1.1,0.8,1.9,1.9,1.7c1.1,0,1.7-0.8,1.7-1.9
			C1031.7,838.7,1030.9,838,1029.9,838"/>
		<path class="st0" d="M863.9,858.5c0.9,0,1.7-0.9,1.7-1.9s-0.9-1.9-2-1.7c-0.9,0-1.7,0.9-1.7,1.9
			C862,857.7,862.9,858.5,863.9,858.5"/>
		<path class="st0" d="M849.2,889.5c0.9,0,1.7-0.9,1.7-1.9c0-0.9-0.9-1.7-2-1.7c-0.9,0-1.7,0.9-1.7,1.9
			C847.3,888.8,848.3,889.6,849.2,889.5"/>
		<path class="st0" d="M898.1,827.5c0-0.9-0.9-1.7-1.9-1.7s-1.9,0.9-1.7,2c0,0.9,0.9,1.7,1.9,1.7
			C897.5,829.3,898.3,828.5,898.1,827.5"/>
		<path class="st0" d="M939.1,821.3c0-0.9-0.9-1.7-1.9-1.7c-0.9,0-1.7,0.9-1.7,2c0.1,0.9,0.9,1.7,2,1.7
			C938.3,823.2,939.1,822.3,939.1,821.3"/>
		<path class="st0" d="M840.9,941.6c0,0.9,0.9,1.9,1.9,1.7c0.9,0,1.9-0.9,1.7-1.9c0-0.9-0.9-1.7-1.9-1.7
			C841.9,939.8,840.9,940.6,840.9,941.6"/>
		<path class="st0" d="M1030.3,821.9c0,0.9,0.9,1.7,1.9,1.7s1.7-0.9,1.7-1.9s-0.9-1.7-1.9-1.7S1030.3,820.9,1030.3,821.9"/>
		<path class="st0" d="M842,914.2c-0.9,0-1.7,0.9-1.7,1.9c0,0.9,0.9,1.7,1.9,1.7c0.9,0,1.7-0.9,1.7-1.9
			C843.9,915,843.1,914.2,842,914.2"/>
		<path class="st0" d="M882.9,833.1c-0.1-0.9-1.1-1.7-1.9-1.7c-0.9,0.1-1.7,1.1-1.6,1.9c0.1,0.8,1.1,1.7,1.9,1.6
			C882.1,834.9,882.9,833.9,882.9,833.1"/>
		<path class="st0" d="M844.3,900c0.8,0,1.7-0.9,1.7-1.9c0-0.8-0.9-1.7-1.9-1.7c-0.8,0-1.7,0.9-1.7,1.9
			C842.4,899.1,843.3,900,844.3,900"/>
		<path class="st0" d="M968.7,818.3c0,0.9,1.1,1.7,1.9,1.7c0.8,0,1.7-0.9,1.7-1.9c0-0.8-0.9-1.7-1.9-1.7
			C969.5,816.4,968.7,817.3,968.7,818.3"/>
		<path class="st0" d="M858.7,963.6c0.8,0,1.7-1.1,1.7-1.9s-0.9-1.7-1.9-1.7c-0.8,0-1.7,0.9-1.7,1.9
			C856.8,962.6,857.9,963.6,858.7,963.6"/>
		<path class="st0" d="M868.7,848.1c0.8,0,1.7-0.9,1.7-1.7s-0.9-1.7-1.9-1.7c-0.8,0-1.7,0.9-1.7,1.7
			C866.9,847.2,867.9,848.1,868.7,848.1"/>
		<path class="st0" d="M839.9,932.4c-0.9,0-1.6,0.8-1.6,1.7s0.8,1.7,1.9,1.6c0.9,0,1.6-0.8,1.6-1.9
			C841.6,933,840.9,932.4,839.9,932.4"/>
		<path class="st0" d="M904,823.2c-0.8,0-1.7,0.9-1.6,1.9c0.1,0.8,0.9,1.6,1.7,1.6s1.7-0.9,1.6-1.9C905.7,824,904.8,823.2,904,823.2
			"/>
		<path class="st0" d="M846.5,957c0,0.8,0.9,1.7,1.7,1.6c0.8,0,1.6-0.9,1.6-1.7s-0.9-1.7-1.7-1.6C847.3,955.3,846.5,956.2,846.5,957
			"/>
		<path class="st0" d="M849.6,869.9c0,0.8,0.9,1.6,1.7,1.6s1.6-0.9,1.6-1.7s-0.9-1.6-1.7-1.6C850.4,868.1,849.5,869.1,849.6,869.9"
			/>
		<path class="st0" d="M1001.7,909.6c0,0.8,0.8,1.6,1.7,1.6c0.8,0,1.6-0.8,1.6-1.7c0-0.8-0.8-1.6-1.7-1.6
			C1002.5,907.8,1001.7,908.8,1001.7,909.6"/>
		<path class="st0" d="M839.3,906.8c-0.8,0-1.6,0.9-1.6,1.7s0.9,1.6,1.7,1.6s1.6-0.9,1.6-1.7C841.1,907.6,840.3,906.8,839.3,906.8"
			/>
		<path class="st0" d="M905.1,972.5c0.8,0,1.6-0.8,1.6-1.7c0-0.8-0.9-1.6-1.7-1.6s-1.6,0.8-1.6,1.7
			C903.3,971.7,904.1,972.5,905.1,972.5"/>
		<path class="st0" d="M854.4,859.3c0,0.8,0.9,1.6,1.7,1.6s1.6-0.9,1.6-1.7s-0.9-1.6-1.7-1.6C855.2,857.7,854.4,858.5,854.4,859.3"
			/>
		<path class="st0" d="M846.5,881.7c0.8,0,1.6-0.8,1.6-1.7c0-0.8-0.9-1.6-1.7-1.6s-1.6,0.8-1.6,1.6
			C844.8,880.9,845.6,881.9,846.5,881.7"/>
		<path class="st0" d="M1027.6,856c-0.8,0-1.6,0.9-1.6,1.7s0.9,1.6,1.7,1.6s1.6-0.9,1.6-1.7C1029.3,856.8,1028.5,856,1027.6,856"/>
		<path class="st0" d="M869.1,968.2c0.8,0,1.6-0.9,1.6-1.6c0-0.8-0.8-1.6-1.6-1.6s-1.7,0.9-1.6,1.7
			C867.5,967.4,868.3,968.2,869.1,968.2"/>
		<path class="st0" d="M871.9,835.9c0,0.8,0.9,1.6,1.7,1.6s1.6-0.9,1.6-1.6c0-0.8-0.9-1.6-1.7-1.6S871.7,835.2,871.9,835.9"/>
		<path class="st0" d="M835.6,926.4c0,0.8,0.9,1.6,1.7,1.6s1.6-0.9,1.6-1.7s-0.9-1.6-1.7-1.6C836.4,924.8,835.6,925.7,835.6,926.4"
			/>
		<path class="st0" d="M966,950.5c0.8,0,1.6-0.8,1.5-1.6c0-0.8-0.8-1.6-1.6-1.5c-0.8,0-1.6,0.8-1.5,1.6
			C964.4,949.8,965.2,950.5,966,950.5"/>
		<path class="st0" d="M841.6,892c0.8,0,1.6-0.8,1.5-1.6c0-0.8-0.8-1.6-1.6-1.5c-0.8,0-1.6,0.8-1.5,1.6
			C840,891.3,840.8,892.1,841.6,892"/>
		<path class="st0" d="M859.5,849.1c0,0.8,0.9,1.6,1.7,1.5c0.8,0,1.5-0.8,1.5-1.6s-0.9-1.6-1.7-1.5
			C860.1,847.5,859.5,848.3,859.5,849.1"/>
		<path class="st0" d="M1002.1,814.8c0,0.8,0.8,1.6,1.6,1.6s1.5-0.8,1.5-1.6s-0.8-1.6-1.6-1.6S1002.1,814,1002.1,814.8"/>
		<path class="st0" d="M833.6,944.5c0,0.7,0.9,1.5,1.6,1.5s1.5-0.9,1.5-1.6c0-0.7-0.9-1.5-1.6-1.5S833.6,943.7,833.6,944.5"/>
		<path class="st0" d="M834.5,917.3c-0.7,0-1.5,0.9-1.5,1.6c0,0.7,0.8,1.5,1.5,1.5s1.5-0.8,1.5-1.5
			C836.1,918.1,835.2,917.3,834.5,917.3"/>
		<path class="st0" d="M835.2,900.8c0,0.7,0.8,1.5,1.6,1.5c0.7,0,1.5-0.8,1.5-1.5s-0.8-1.5-1.5-1.5
			C836,899.3,835.2,900.1,835.2,900.8"/>
		<path class="st0" d="M943.5,818.8c0,0.8,0.7,1.5,1.5,1.5s1.5-0.7,1.5-1.5s-0.7-1.5-1.5-1.3C944,817.3,943.5,818,943.5,818.8"/>
		<path class="st0" d="M864.5,838.7c0,0.8,0.7,1.3,1.5,1.3s1.5-0.7,1.3-1.6c0-0.8-0.7-1.3-1.6-1.3
			C865.1,837.2,864.4,837.9,864.5,838.7"/>
		<path class="st0" d="M836.5,952.1c0,0.7,0.8,1.5,1.5,1.3c0.7,0,1.5-0.8,1.3-1.5c0-0.7-0.8-1.3-1.5-1.3
			C837.2,950.6,836.5,951.4,836.5,952.1"/>
		<path class="st0" d="M847.2,862.1c0,0.7,0.8,1.5,1.5,1.5s1.5-0.8,1.3-1.5c0-0.7-0.8-1.3-1.5-1.3
			C847.9,860.7,847.2,861.5,847.2,862.1"/>
		<path class="st0" d="M913.1,822.1c0-0.7-0.9-1.3-1.5-1.3c-0.7,0.1-1.3,0.9-1.3,1.6c0.1,0.7,0.8,1.3,1.5,1.3
			C912.4,823.6,913.1,822.7,913.1,822.1"/>
		<path class="st0" d="M842.3,872.5c0,0.7,0.8,1.5,1.5,1.3c0.7,0,1.3-0.9,1.3-1.5c0-0.7-0.8-1.3-1.5-1.3
			C842.9,871.1,842.3,871.9,842.3,872.5"/>
		<path class="st0" d="M831.1,936.9c0,0.7,0.8,1.3,1.5,1.3s1.5-0.8,1.3-1.5c0-0.7-0.8-1.3-1.5-1.3
			C831.7,935.4,831.1,936.2,831.1,936.9"/>
		<path class="st0" d="M838.8,884.1c0.8,0,1.3-0.5,1.3-1.3s-0.5-1.3-1.3-1.2c-0.8,0-1.3,0.5-1.3,1.3
			C837.5,883.6,838,884.1,838.8,884.1"/>
		<path class="st0" d="M852.1,851.9c0,0.8,0.5,1.3,1.5,1.2c0.8,0,1.2-0.5,1.2-1.3s-0.5-1.3-1.5-1.2
			C852.5,850.5,852.1,851.1,852.1,851.9"/>
		<path class="st0" d="M978,814c-0.7,0-1.3,0.8-1.2,1.5c0,0.7,0.8,1.2,1.3,1.2c0.7,0,1.3-0.8,1.2-1.5C979.3,814.7,978.7,814,978,814
			"/>
		<path class="st0" d="M1028,814.1c0,0.7,0.7,1.3,1.3,1.3s1.2-0.7,1.2-1.3c0-0.7-0.7-1.3-1.3-1.3
			C1028.5,812.8,1028,813.5,1028,814.1"/>
		<path class="st0" d="M1033.5,829.3c0,0.7,0.7,1.3,1.3,1.3s1.3-0.7,1.3-1.3s-0.8-1.2-1.3-1.2C1034,828.1,1033.3,828.8,1033.5,829.3
			"/>
		<path class="st0" d="M830.5,911.2c0,0.7,0.7,1.3,1.3,1.3c0.7,0,1.2-0.7,1.2-1.3c0-0.7-0.7-1.3-1.3-1.3
			C831.1,909.8,830.4,910.5,830.5,911.2"/>
		<path class="st0" d="M832.7,893.3c0,0.7,0.7,1.2,1.3,1.2s1.3-0.7,1.2-1.3c0-0.7-0.8-1.3-1.3-1.2
			C833.2,892,832.5,892.8,832.7,893.3"/>
		<path class="st0" d="M984.8,933c0,0.7,0.8,1.3,1.3,1.2c0.7,0,1.2-0.7,1.2-1.3c0-0.7-0.8-1.3-1.3-1.2
			C985.3,931.7,984.8,932.4,984.8,933"/>
		<path class="st0" d="M829.7,930.5c0.7,0,1.3-0.7,1.3-1.3c0-0.7-0.7-1.2-1.3-1.2c-0.7,0-1.3,0.7-1.2,1.3
			C828.4,929.8,829.1,930.5,829.7,930.5"/>
		<path class="st0" d="M858.1,840.1c-0.7,0-1.2,0.7-1.2,1.3c0,0.7,0.7,1.3,1.3,1.2c0.7,0,1.3-0.8,1.2-1.3
			C859.5,840.8,858.8,840.1,858.1,840.1"/>
		<path class="st0" d="M870.9,829.5c0.7,0,1.1-0.7,1.1-1.2c0-0.7-0.7-1.2-1.3-1.1c-0.7,0-1.2,0.7-1.1,1.3
			C869.7,829.1,870.3,829.6,870.9,829.5"/>
		<path class="st0" d="M878.3,824.4c-0.7,0-1.2,0.5-1.2,1.2s0.5,1.2,1.2,1.2s1.2-0.5,1.2-1.2S878.9,824.3,878.3,824.4"/>
		<path class="st0" d="M825.7,921.7c0,0.5,0.7,1.1,1.2,1.1s1.1-0.7,1.1-1.2s-0.7-1.2-1.2-1.1C826.3,920.5,825.7,921.2,825.7,921.7"
			/>
		<path class="st0" d="M829.1,904.8c0.5,0,1.1-0.7,1.1-1.2s-0.7-1.1-1.2-1.1s-1.1,0.7-1.1,1.2C827.9,904.3,828.5,904.8,829.1,904.8"
			/>
		<path class="st0" d="M839.7,864.9c0,0.5,0.7,1.2,1.2,1.1c0.5,0,1.2-0.7,1.1-1.2c0-0.5-0.7-1.2-1.2-1.1
			C840.4,863.7,839.7,864.4,839.7,864.9"/>
		<path class="st0" d="M863.1,829.9c-0.5,0-1.1,0.7-1.1,1.2s0.7,1.1,1.2,1.1s1.1-0.7,1.1-1.2C864.3,830.4,863.6,829.7,863.1,829.9"
			/>
		<path class="st0" d="M1010.1,812c0,0.5,0.7,1.1,1.2,1.1s1.1-0.7,1.1-1.1c0-0.5-0.5-1.2-1.1-1.2S1010.1,811.5,1010.1,812"/>
		<path class="st0" d="M834.8,875.3c0,0.5,0.7,1.1,1.2,1.1s1.1-0.7,1.1-1.2s-0.7-1.1-1.2-1.1C835.5,874.1,834.8,874.8,834.8,875.3"
			/>
		<path class="st0" d="M845.9,855.7c0.5,0,1.2-0.7,1.1-1.2c0-0.5-0.7-1.1-1.2-1.1s-1.1,0.7-1.1,1.2
			C844.7,855.1,845.3,855.7,845.9,855.7"/>
		<path class="st0" d="M831.2,884.5c-0.5,0-1.1,0.7-1.1,1.1c0,0.4,0.7,1.1,1.1,1.1c0.5,0,1.1-0.7,1.1-1.1
			C832.3,885.1,831.7,884.5,831.2,884.5"/>
		<path class="st0" d="M918.3,819.5c0,0.5,0.7,1.1,1.1,1.1c0.4,0,0.9-0.7,0.9-1.1c0-0.5-0.7-1.1-1.1-1.1
			C918.8,818.4,918.3,818.9,918.3,819.5"/>
		<path class="st0" d="M849.6,844.1c0,0.4,0.7,1.1,1.1,0.9c0.5,0,1.1-0.7,1.1-1.1c0-0.5-0.7-1.1-1.2-0.9
			C850.1,843.1,849.6,843.7,849.6,844.1"/>
		<path class="st0" d="M878.4,971.6c0,0.5,0.7,1.1,1.1,1.1s1.1-0.7,1.1-1.1c0-0.5-0.7-1.1-1.1-1.1
			C878.9,970.5,878.4,971,878.4,971.6"/>
		<path class="st0" d="M824.8,940.5c0.5,0,0.9-0.5,0.9-1.1c0-0.5-0.5-0.9-1.1-0.9c-0.5,0-0.9,0.5-0.9,1.1
			C823.9,940.1,824.4,940.5,824.8,940.5"/>
		<path class="st0" d="M826.5,947.2c0,0.5,0.5,0.9,1.1,0.9c0.5,0,0.9-0.5,0.9-1.1s-0.5-1.1-1.1-0.9
			C827.1,946.2,826.5,946.8,826.5,947.2"/>
		<path class="st0" d="M886,821.7c-0.5,0-1.1,0.5-0.9,1.1c0,0.5,0.5,0.9,1.1,0.9c0.5,0,0.9-0.5,0.9-1.1
			C887.1,822.1,886.5,821.7,886,821.7"/>
		<path class="st0" d="M823.3,914c0,0.5,0.5,0.9,0.9,0.9c0.5,0,0.9-0.5,0.9-0.9c0-0.5-0.5-0.9-0.9-0.9
			C823.7,913,823.3,913.4,823.3,914"/>
		<path class="st0" d="M952.4,816.9c0.4,0,0.9-0.5,0.9-0.9s-0.5-0.9-0.9-0.8c-0.4,0-0.9,0.5-0.9,0.9
			C951.5,816.5,952,816.9,952.4,816.9"/>
		<path class="st0" d="M825.5,896c0,0.4,0.5,0.9,0.9,0.9s0.9-0.5,0.9-0.9s-0.5-0.9-0.9-0.9C825.9,895.1,825.3,895.5,825.5,896"/>
		<path class="st0" d="M855.6,834.7c0.4,0,0.9-0.5,0.8-0.9c0-0.4-0.7-0.9-0.9-0.8c-0.5,0.1-0.8,0.4-0.8,0.9
			C854.7,834.1,855.2,834.7,855.6,834.7"/>
		<path class="st0" d="M821.1,932c0,0.4,0.5,0.9,0.9,0.8c0.4,0,0.9-0.7,0.8-0.9c-0.1-0.5-0.4-0.8-0.9-0.8
			C821.6,931,821.1,931.6,821.1,932"/>
		<path class="st0" d="M998.5,919.2c-0.5,0-0.8,0.4-0.8,0.8c0,0.5,0.3,0.8,0.8,0.8s0.8-0.4,0.8-0.8
			C999.3,919.4,998.9,919.2,998.5,919.2"/>
		<path class="st0" d="M839.9,959.7c0,0.4,0.4,0.8,0.8,0.8c0.4-0.1,0.7-0.4,0.8-0.8c0-0.4-0.4-0.8-0.8-0.8
			C840.3,958.8,839.9,959.3,839.9,959.7"/>
		<path class="st0" d="M984.9,812.7c0,0.4,0.4,0.8,0.8,0.8c0.4,0,0.7-0.4,0.8-0.8c0-0.4-0.4-0.8-0.8-0.8
			C985.2,811.9,984.8,812.3,984.9,812.7"/>
		<path class="st0" d="M851.1,965.3c0.4,0,0.8-0.4,0.8-0.8s-0.4-0.8-0.8-0.8s-0.7,0.4-0.8,0.8C850.3,964.9,850.7,965.3,851.1,965.3"
			/>
		<path class="st0" d="M1031.9,847.5c0,0.4,0.4,0.8,0.8,0.8s0.7-0.4,0.8-0.8c0-0.4-0.4-0.8-0.8-0.8
			C1032.1,846.5,1031.7,846.9,1031.9,847.5"/>
		<path class="st0" d="M838.3,858c0.4,0,0.8-0.4,0.8-0.8c0-0.4-0.4-0.7-0.8-0.8c-0.4,0-0.8,0.4-0.8,0.8S837.9,858,838.3,858"/>
		<path class="st0" d="M832.5,867.6c0,0.4,0.4,0.8,0.8,0.8c0.4,0,0.8-0.4,0.8-0.8c0-0.4-0.4-0.7-0.8-0.8
			C832.9,866.8,832.5,867.2,832.5,867.6"/>
		<path class="st0" d="M843.1,845.9c-0.4,0.4-0.8,0.8-0.7,1.1c0,0.3,0.4,0.7,0.8,0.8c0.1,0,0.7-0.4,0.7-0.7
			C843.7,846.7,843.3,846.3,843.1,845.9"/>
		<path class="st0" d="M827.5,878.1c0.5,0.3,0.8,0.7,1.1,0.7s0.7-0.5,0.7-0.7c-0.1-0.3-0.5-0.7-0.8-0.7
			C828.1,877.3,827.9,877.7,827.5,878.1"/>
		<path class="st0" d="M821.5,907.4c0.3-0.5,0.7-0.8,0.7-1.1s-0.4-0.5-0.7-0.7c-0.3,0.3-0.7,0.5-0.7,0.8
			C820.7,906.6,821.1,906.9,821.5,907.4"/>
		<path class="st0" d="M896.5,973.8c0.3,0.1,0.5,0.4,0.8,0.5c0.4,0,0.7-0.3,0.7-0.7s-0.3-0.7-0.7-0.7c-0.3,0-0.5,0.4-0.8,0.5
			C896.5,973.6,896.5,973.7,896.5,973.8"/>
		<path class="st0" d="M973.5,945.3c-0.1,0.3-0.4,0.5-0.5,0.8c0,0.4,0.3,0.7,0.7,0.7s0.7-0.3,0.7-0.7c0-0.3-0.4-0.5-0.5-0.8
			C973.6,945.3,973.6,945.3,973.5,945.3"/>
		<path class="st0" d="M819.2,923.4c-0.1,0.3-0.4,0.5-0.5,0.8c-0.1,0.4,0.3,0.7,0.7,0.7s0.7-0.3,0.7-0.7c0-0.3-0.3-0.5-0.5-0.8
			C819.3,923.4,819.3,923.4,819.2,923.4"/>
		<path class="st0" d="M893.5,819.3c-0.1,0.3-0.4,0.5-0.5,0.8c-0.1,0.4,0.3,0.7,0.7,0.7s0.7-0.3,0.7-0.7c0-0.3-0.3-0.5-0.5-0.8
			C893.6,819.3,893.6,819.3,893.5,819.3"/>
		<path class="st0" d="M822.7,888.4c0.4,0.3,0.7,0.5,0.9,0.5s0.7-0.4,0.5-0.5c0-0.3-0.4-0.7-0.7-0.7
			C823.3,887.7,823.1,888.1,822.7,888.4"/>
		<path class="st0" d="M847.9,835.6c-0.3,0.4-0.7,0.7-0.7,0.9s0.4,0.7,0.5,0.5c0.3,0,0.7-0.4,0.7-0.5
			C848.5,836.4,848.1,836,847.9,835.6"/>
		<path class="st0" d="M830.3,955.6c0.3-0.4,0.5-0.7,0.5-0.8c0-0.3-0.3-0.5-0.5-0.5c-0.1,0-0.5,0.3-0.5,0.5
			C829.7,954.9,830,955.2,830.3,955.6"/>
		<path class="st0" d="M1018.3,809.3c0.3,0.3,0.5,0.5,0.8,0.4c0.1,0,0.3-0.4,0.5-0.5c-0.1-0.1-0.4-0.4-0.5-0.4
			C1018.7,808.8,1018.5,809.2,1018.3,809.3"/>
		<path class="st0" d="M816.5,916c-0.3,0.3-0.5,0.5-0.5,0.7s0.3,0.5,0.5,0.5c0.1,0,0.5-0.3,0.5-0.5
			C817.1,916.5,816.8,916.4,816.5,916"/>
		<path class="st0" d="M859.7,823.5c0.3,0.3,0.5,0.4,0.8,0.4c0.1,0,0.3-0.4,0.5-0.5c-0.1-0.1-0.4-0.4-0.5-0.4
			C860.3,822.9,860,823.2,859.7,823.5"/>
		<path class="st0" d="M1036.3,811.5c0.4,0.3,0.5,0.4,0.7,0.4s0.4-0.3,0.4-0.4s-0.3-0.4-0.4-0.4S1036.7,811.2,1036.3,811.5"/>
		<path class="st0" d="M816.5,942.4c0.4,0.1,0.5,0.4,0.7,0.4s0.3-0.3,0.4-0.4c0-0.1-0.3-0.3-0.4-0.3
			C817.1,941.8,816.9,942.1,816.5,942.4"/>
		<path class="st0" d="M818,898.8c0.4,0.1,0.5,0.4,0.7,0.4s0.3-0.3,0.4-0.4c0-0.1-0.3-0.4-0.4-0.4
			C818.5,898.3,818.3,898.5,818,898.8"/>
		<path class="st0" d="M830.5,860.7c0.3-0.3,0.4-0.5,0.4-0.7s-0.3-0.4-0.4-0.4s-0.4,0.3-0.4,0.4
			C830.1,860.1,830.3,860.3,830.5,860.7"/>
		<path class="st0" d="M1038.9,819.1c0.4,0.1,0.5,0.4,0.7,0.4s0.4-0.3,0.4-0.4s-0.3-0.3-0.4-0.3
			C1039.5,818.7,1039.3,818.8,1038.9,819.1"/>
	</g>
</g>
</svg>
