<?xml version="1.0" encoding="utf-8"?>
<!-- Generator: Adobe Illustrator 24.2.3, SVG Export Plug-In . SVG Version: 6.00 Build 0)  -->
<svg version="1.1" id="Escalera_1_" xmlns="http://www.w3.org/2000/svg" xmlns:xlink="http://www.w3.org/1999/xlink" x="0px"
	 y="0px" viewBox="0 0 1080 1080" style="enable-background:new 0 0 1080 1080;" xml:space="preserve">
<style type="text/css">
	.st0{fill:#B7A5CF;}
</style>
<g>
	<path class="st0" d="M419.6,329.5c-14.8-23-3.6,31.4-3.6,31.4s146.7,293.2,181.6,345.6s48.9,48.9,76.8,153.7
		c27.9,104.7,35.9,72.4,66.3,167.6c2.8,8.8,38.6-2.1,34.9-10.5c-59-135.1-128.5-298.6-229.9-448.7
		C497.6,497.3,475.4,415.8,419.6,329.5z"/>
	<path class="st0" d="M570.3,283.1c-4.2-6.7-14.4,7.7-3.6,31.4c6.1,13.2,30.1,57.6,83.1,140.9C714,556.2,786,684.6,806,714.6
		c34.9,52.4,48.9,48.9,76.8,153.7s35.9,72.4,66.3,167.6c2.8,8.8,38.6-2.1,34.9-10.5c-59-135.1-128.5-298.6-229.9-448.7
		C706,505.3,624.7,370.5,570.3,283.1z"/>
	<path class="st0" d="M474.3,383.1c46.4-1.2,42.9,4.7,77.3,3.6c34.6-1.2,39.3-5.9,50-5.9s13.1,14.2,13.1,14.2s-3.6,3.6-52.4,3.6
		c-48.8,0-58.3-1.2-73.7-1.2c-15.4,0-19,0-27.4,0c-8.3,0-27.4-10.7-19-11.9c8.3-1.2,20.2-2.4,26.1-2.4
		C474.3,383.1,474.3,383.1,474.3,383.1z"/>
	<path class="st0" d="M537.7,499.2c51.2-1.8,47.2,7.4,85.1,5.5c38-1.8,43.3-9.2,55-9.2c11.9,0,14.4,22.1,14.4,22.1
		s-3.9,5.5-57.7,5.5c-53.7,0-64.2-1.8-81.3-1.8s-20.9,0-30.1,0s-30.1-16.6-20.9-18.4s22.2-3.7,28.8-3.7
		C537.7,499.2,537.7,499.2,537.7,499.2z"/>
	<path class="st0" d="M617,637.1c55.3-1.2,51,4.7,92.3,3.6c41.1-1.2,46.9-5.9,59.6-5.9c12.8,0,15.6,14.2,15.6,14.2
		s-4.3,3.6-62.4,3.6c-58.1,0-69.6-1.2-88-1.2s-22.7,0-32.6,0c-9.9,0-32.6-10.7-22.7-11.9c9.9-1.2,24.2-2.4,31.1-2.4
		C617,637.1,617,637.1,617,637.1z"/>
	<path class="st0" d="M692.2,773.5c55.9-1.3,51.6,5.5,93.3,4.2s47.3-6.8,60.2-6.8s15.7,16.6,15.7,16.6s-4.3,4.2-63.2,4.2
		s-70.3-1.3-89-1.3s-23,0-32.9,0c-10.1,0-32.9-12.5-23-13.8c10.1-1.3,24.3-2.8,31.6-2.8C692.2,773.5,692.2,773.5,692.2,773.5z"/>
	<path class="st0" d="M756.3,907.7c56.1-1.5,51.8,6.2,93.4,4.6c41.7-1.5,47.5-7.7,60.4-7.7s15.9,18.7,15.9,18.7s-4.3,4.6-63.3,4.6
		s-70.5-1.5-89.1-1.5s-23,0-33.1,0s-33.1-13.9-23-15.6c10.1-1.5,24.5-3.1,31.6-3.1C756.3,907.7,756.3,907.7,756.3,907.7z"/>
</g>
</svg>
