<?xml version="1.0" encoding="utf-8"?>
<!-- Generator: Adobe Illustrator 24.2.3, SVG Export Plug-In . SVG Version: 6.00 Build 0)  -->
<svg version="1.1" id="Flor" xmlns="http://www.w3.org/2000/svg" xmlns:xlink="http://www.w3.org/1999/xlink" x="0px" y="0px"
	 viewBox="0 0 1080 1080" style="enable-background:new 0 0 1080 1080;" xml:space="preserve">
<style type="text/css">
	.st0{fill:#F5851F;}
</style>
<path class="st0" d="M379.7,219c0,0-152.8-61.3-119.3-68.5c33.5-7.3,110.7,9.2,110.7,9.2S333.7,38.5,346.3,39.1
	c12.5,0.6,40.5,31.9,44.5,39.8c12.3,23.9,21.1,63.9,28.3,60.1c7.3-4,83.1-61.6,97.5-71.5c14.5-9.9,27-21.8,23.7-8.6
	s-32.9,83.1-40.2,97.5c-7.3,14.5-15.1,19.7,0,14.5c15.1-5.3,86.9-37.5,97.5-36.2c10.5,1.3,23.7-0.6,5.9,15.1
	c-17.8,15.9-125.2,94.2-129.8,96.1s86.3,43.5,81.7,47.5s-44.8,8.6-78.5,1.9c-33.7-6.5-56.1-31.6-58-31.6s-32.9,50.7-54,70.5
	c-21.1,19.7-48.1,48.8-54,43.5s6.5-65.9,31.6-104.7C367.9,234.1,379.7,219,379.7,219z"/>
</svg>
