<?xml version="1.0" encoding="utf-8"?>
<!-- Generator: Adobe Illustrator 24.2.3, SVG Export Plug-In . SVG Version: 6.00 Build 0)  -->
<svg version="1.1" id="Bola3" xmlns="http://www.w3.org/2000/svg" xmlns:xlink="http://www.w3.org/1999/xlink" x="0px" y="0px"
	 viewBox="0 0 1080 1080" style="enable-background:new 0 0 1080 1080;" xml:space="preserve">
<style type="text/css">
	.st0{fill:#382817;}
</style>
<path class="st0" d="M507.4,861.9c0.6-21.8-8.6-46.3-19.7-64.5c-5.5-8.9-12.6-18.5-22.5-22.7c-4.9-2.1-9.8-2.7-14.8-1.3
	c-6.7,1.6-14.2,2.4-21.1,4.2c-9.2,2.5-17.2,4.9-25.8,9.2c-19.7,9.6-49.5,18.2-60.7,39c-5.9,11.1-10.8,25.1-15.1,37.2
	c-4.6,12.8-9.6,29.1-4.4,42.3c7.1,17.9,55.5,41.5,73.9,45.7C458.6,964.2,506.1,920,507.4,861.9z"/>
</svg>
