<?xml version="1.0" encoding="utf-8"?>
<!-- Generator: Adobe Illustrator 24.2.3, SVG Export Plug-In . SVG Version: 6.00 Build 0)  -->
<svg version="1.1" id="NUbe" xmlns="http://www.w3.org/2000/svg" xmlns:xlink="http://www.w3.org/1999/xlink" x="0px" y="0px"
	 viewBox="0 0 1080 1080" style="enable-background:new 0 0 1080 1080;" xml:space="preserve">
<style type="text/css">
	.st0{fill:#FFFFFF;}
	.st1{clip-path:url(#SVGID_3_);}
	.st2{fill-rule:evenodd;clip-rule:evenodd;fill:#B7A5CF;}
</style>
<g>
	<g>
		<path id="SVGID_1_" class="st0" d="M153,582.7c-2.7,8.5-4.6,17.8-2.7,26.6c0.7,3,2.5,9.3,5.6,10.8c2.2,1,6.4,0.1,8.8,0
			c2.7-0.1,5.3-0.1,8-0.1c40.5,1.9,81,0.3,121.5-1.9c40.3-2.2,80.5-4.9,120.9-5c17.8,0,21.5-3.9,17.2-21.7
			c-3.7-15-10.4-29.8-15.3-44.3c-17.1-50.1-64.5-64.7-114.1-67.6c-22.2-1.3-55.6,3-75.6,13.2c-12.2,6.2-21.8,18.1-31.7,27.3
			C176.5,537.6,160.9,557.6,153,582.7z"/>
	</g>
	<g>
		<g>
			<defs>
				<path id="SVGID_2_" d="M153,582.7c-2.7,8.5-4.6,17.8-2.7,26.6c0.7,3,2.5,9.3,5.6,10.8c2.2,1,6.4,0.1,8.8,0
					c2.7-0.1,5.3-0.1,8-0.1c40.5,1.9,81,0.3,121.5-1.9c40.3-2.2,80.5-4.9,120.9-5c17.8,0,21.5-3.9,17.2-21.7
					c-3.7-15-10.4-29.8-15.3-44.3c-17.1-50.1-64.5-64.7-114.1-67.6c-22.2-1.3-55.6,3-75.6,13.2c-12.2,6.2-21.8,18.1-31.7,27.3
					C176.5,537.6,160.9,557.6,153,582.7z"/>
			</defs>
			<clipPath id="SVGID_3_">
				<use xlink:href="#SVGID_2_"  style="overflow:visible;"/>
			</clipPath>
			<g class="st1">
				<path class="st2" d="M237.1,715.8c-1.9,2.4-4.2,3.7-7,2.8s-4.2-3-4.6-5.9c-1.9,2.2-4,3.4-6.8,2.7s-4.3-2.7-4.9-5.6
					c-2.1,1.9-4.4,2.7-7,1.9c-2.5-0.9-4-2.8-4.6-5.6c-2.2,1.9-4.4,2.8-7.1,1.8c-2.7-1-4-3-4.4-5.8c-0.3,0.1-0.6,0.3-0.7,0.4
					c-2.5,2.2-5.6,1.9-7.6,0.3c-2.8-2.2-3.4-5.3-1.6-8.2c0.6-0.9,1.5-1.5,2.2-2.1c0.4-0.3,0.9-0.4,1.5-0.7c-0.6-1-1.2-1.9-1.8-2.8
					c-1.5,0.4-3,0.9-4.4,1.5c1.5,1.9,2.1,4,0.9,6.2c-0.7,1.3-1.9,2.2-3.4,2.7c-2.8,0.6-5.8-1.2-6.4-3.9c-0.7-3,1.2-5.8,4.3-6.5
					c-0.9-1.3-1.8-2.5-2.8-4c0,0-0.4,0-0.7,0.1c-4.3,2.5-9.8-0.4-10.5-5.3c0-0.1,0-0.3-0.1-0.7c-2.1,1.8-4.3,2.4-6.7,1.2
					c-1.5-0.7-2.4-1.9-3-3.6c-0.9-2.5,0.4-6.4,4.6-7.3c-0.9-1.3-1.8-2.8-2.8-4.3c-2.4,1.6-5,1.9-7.7,0.1c-1.3-0.9-2.2-2.1-2.7-3.7
					c-0.9-3.1,0.7-7,5.2-8.2c-0.7-1.2-1.5-2.5-2.2-3.9c-2.2,1.6-4.7,2.4-7.4,0.9s-3.7-3.7-3.6-7c-2.7,3.1-5.5,4-8.8,1.5
					c-1.9-1.5-2.4-4.2-1.5-6.4c0.9-2.1,3.3-3.6,5.5-3.3c3.1,0.3,4.4,1.9,5.3,5.9c2.7-2.8,2.2-2.4,5.3-3.4c-1.3-1.3-2.1-2.8-2.1-4.9
					c-2.2,2.2-4.7,3.3-7.6,1.9c-2.8-1.3-4-3.6-3.7-6.8c-2.7,3.4-5.8,4.3-9,1.6c-1.8-1.5-2.4-3.9-1.3-6.1c1-2.5,3.4-3.9,6.1-3.4
					c1.5,0.1,2.8,0.9,3.6,2.2c0.6,1.2,1,2.5,1.6,3.9c1.2-1.8,3-3.1,5.9-3.1c-1.9-1.9-3.1-3.9-2.7-6.5c-2.7,3.4-5.6,4.9-9.3,1.9
					c-2.2-1.8-2.7-4.4-1.5-6.8c1-2.2,3.7-3.7,5.8-3.4c1.8,0.3,3.1,1,4.3,2.4c1,1.3,1.3,3,1,4.4c0.9-0.9,1.8-1.9,3-2.5
					s2.5-0.6,3.7-0.9c-2.4-1.5-3.9-3.7-3-6.7c1-3.4,3.6-4.7,7.3-4.4c-3.6-2.4-5-5.3-2.5-9c1.8-2.4,4.4-3,6.8-1.8
					c2.4,1.2,3.7,3.9,3.3,6.1c-0.6,3.1-2.8,4.6-6.8,4.9c2.2,1.5,3.6,3.4,3.6,6.2c1.8-2.1,3.9-3.3,6.8-2.8c-3.3-2.4-4.6-5.3-2.2-9
					c1.3-2.1,4.2-3,6.4-2.2c2.1,0.7,4.3,2.5,4.3,6.8c1.6-2.4,3.7-3.7,6.7-3.3c0.1-0.1,0.3-0.3,0.3-0.4c-0.3-0.1-0.6-0.1-0.9-0.3
					c-2.4-1.6-3.1-4.2-2.2-6.7c1.2-3.6,5.8-4.9,8.8-2.7c2.4,1.8,3,4.6,2.1,6.8c-0.9,2.4-3.4,3.9-6.1,3.7c-0.1,0-0.3,0-0.7,0
					c2.7,1.6,3.9,3.7,3.7,6.5c1.6-2.5,3.9-3.6,6.8-3.3c-1.6-0.9-2.7-2.1-3.3-3.7c-0.6-1.6-0.3-3.3,0.7-4.7c1.5-2.2,4.3-3.3,6.7-2.5
					c2.7,0.9,4.3,3.4,4,6.4c-0.1,1-0.6,2.1-1.2,2.8c-0.6,0.7-1.6,1.5-2.5,1.8c-0.9,0.4-1.9,0.3-3.3,0.6c2.4,1.3,3.7,3.3,3.9,6.4
					c1.8-2.2,4-3.3,6.7-3c-1.6-1.2-3-2.5-3.3-4.6c-0.1-1.3,0-2.5,0.6-3.7c1.2-2.2,3.7-3.6,6.2-3c1,0.3,1.9,0.7,2.7,1.3
					c0.7,0.7,1.3,1.6,1.8,2.7c0.3,0.9,0.3,1.9,0.4,3.1c2.2-3.3,5.2-4.6,8.8-2.4c2.2,1.3,3,3.6,2.5,6.1c-0.7,3.1-3,4.4-6.4,4.7
					c2.1,1.5,3.1,3.4,3.1,6.1c1.9-2.4,4-3.3,6.8-2.8c-1.6-0.9-2.8-2.2-3.4-4c-0.6-1.9,0-3.6,1-5c1.5-1.9,4.4-2.8,6.7-1.8
					c2.7,1.2,4.2,3.9,3.6,6.5c-0.6,3-3,4.6-7,4.7c0.9,1,2.1,1.8,2.7,3c0.6,1.2,0.7,2.5,1,3.9c1.6-2.2,3.9-3.9,7-2.8
					c3.1,0.9,4.4,3.3,4.4,6.7c2.7-3.3,5.6-4.4,9.2-1.8c1.9,1.5,2.5,3.6,1.9,5.9c-1,3.3-3.4,4.4-6.7,4.4c2.2,1.3,3.6,3.4,3.6,6.2
					c2.8-3,5.8-4.3,9.2-1.3c2.1,1.8,2.5,4.4,1.6,6.5s-3.1,4-7,3.7c2.7,1.8,4.2,3.9,3.7,7.1c2.5-3.4,5.5-4.7,9.2-2.1
					c2.2,1.6,2.8,4,1.9,6.4c-0.7,2.1-2.7,4.2-6.7,4c2.7,1.8,4,4.2,3.1,7.1c-0.9,3.1-3.3,4.3-6.7,4.4c2.4,1.5,3.4,3.4,3.4,6.2
					c2.7-3.1,5.6-4.2,8.9-1.6c2.2,1.8,2.8,4.4,1.8,7c-0.9,1.9-3.6,3.7-5.5,3.4c-3.6-0.4-4.7-1.6-5.8-6.4c-1.5,1.9-3.1,3-5.8,3
					c2.1,1.6,3,3.6,2.8,5.9c3.4-3.1,5.3-3.6,8.2-1.9c1.9,1.2,3.3,3.7,3,5.8c-0.6,3.1-2.5,4.6-6.7,5.2c0.1,0.1,0.3,0.3,0.4,0.4
					c1.8,1.5,3,3.4,2.5,5.9c-0.4,2.8-3.4,5.2-6.1,4.9c-3.1-0.3-5.3-2.5-5.6-5.6c0-0.3,0-0.4-0.1-0.7c-1.3,1.9-3.3,3-5.8,3.3
					c1.9,1.6,2.8,3.4,2.7,6.1c1.5-1.9,3.1-3,5.2-3.1c1.3,0,2.5,0.4,3.6,1.2c2.2,1.6,3,4.4,1.9,6.8c-1,2.5-3.6,3.9-5.8,3.7
					C239.8,722.3,237.1,720.1,237.1,715.8z M200.8,607.3c-2.2-1.6-3.1-3.9-2.8-6.5c-1.5,2.7-3.9,3.7-6.8,3.4
					c2.5,1.3,3.6,3.4,3.7,6.4C196.4,608.2,198.3,607.3,200.8,607.3z M152.9,604.4c2.4,1.3,3.6,3.4,3.7,6.1c1.5-2.1,3.4-3,6.1-3
					c-2.4-1.6-3.3-3.7-3.3-6.2C157.9,603.8,155.7,604.7,152.9,604.4z M241.6,702.1c1.5-2.2,3.4-3.1,6.1-3.1
					c-2.1-1.5-3.3-3.4-3.1-6.2c-1.6,2.2-3.6,3.3-6.2,3.3C240.7,697.5,241.4,699.6,241.6,702.1z M222.6,627.2
					c2.2,1.5,3.1,3.6,3.1,6.1c1.6-2.4,3.9-3.3,6.4-3.1c-2.4-1.3-3.4-3.4-3.6-6.1C227.2,626.2,225.4,627.1,222.6,627.2z M241.4,663.3
					c1.6-1.9,3.6-2.7,6.1-2.7c-2.4-1.5-3.3-3.7-3.1-6.5c-1.3,2.2-3.1,3.4-5.8,3.6C240.4,659.2,241.3,661,241.4,663.3z M233.6,647.8
					c1.6-1.9,3.7-2.7,6.2-2.5c-2.4-1.3-3.4-3.3-3.4-6.2c-1.3,2.2-3.3,3.1-5.6,3.3C232.5,644,233.6,645.8,233.6,647.8z M141.5,617.7
					c1.3-1.6,3.1-2.5,5.5-2.5c-1.9-1.6-2.7-3.4-2.8-5.6c-1.6,2.1-3.6,3-5.8,2.8c0.6,0.7,1.3,1.5,1.9,2.4
					C140.7,615.5,141,616.5,141.5,617.7z M243.4,672.2c-1.9-1.5-3-3.3-3.1-5.9c-1.5,1.9-3.1,2.8-5.3,3c2.4,2.8,2.1,2.5,2.8,5.6
					C239.2,673,241,672.2,243.4,672.2z M165.2,608.4c1.8,1.2,2.8,3,3.1,5c0.9-0.6,1.6-1.3,2.5-1.6c0.9-0.4,1.8-0.6,2.8-0.9
					c-1.9-1.5-2.7-3.6-2.5-5.9C169.7,607.2,167.7,608.2,165.2,608.4z M217.1,620.2c-1.2,1.9-3,3-5.3,3.3c0.6,0.9,1.3,1.6,1.8,2.4
					c0.4,0.9,0.6,1.8,0.9,2.8c1.3-1.6,3.3-2.4,5.5-2.4C218,624.7,217.1,622.6,217.1,620.2z M224.8,636c-1.3,1.8-3.1,2.7-5.5,3
					c1.8,1.3,2.5,3.1,2.8,5.2c1.5-1.8,3.1-2.5,5.5-2.7C225.7,640,225,638.2,224.8,636z M231.5,681.1c1.8,2.1,1.8,2.1,2.5,5.2
					c1.3-1.8,3.1-2.5,5.6-2.7c-2.1-1.5-2.8-3.3-3-5.5C234,680.6,234.5,680.2,231.5,681.1z M208.2,622.3c-1.9-1.5-2.7-3.3-2.8-5.5
					c-1.3,1.8-3.1,2.7-5.6,2.8c1.9,1.3,2.8,3.1,3.1,5.3C204.4,623.4,206,622.5,208.2,622.3z M191.5,621.1c1.5-1.6,3.1-2.2,5-2.4
					c-0.6-0.9-1.3-1.6-1.8-2.5c-0.4-0.9-0.6-1.9-0.9-3.1c-1.2,1.8-2.8,2.8-5.2,3.1C190.4,617.4,191.2,619.1,191.5,621.1z
					 M150.4,616.4c1.5,1.3,2.4,3,2.5,5.2c1.3-1.6,3-2.5,5.2-2.7c-1.8-1.5-2.4-3.3-2.4-5.6C154.4,615.2,152.6,616.1,150.4,616.4z
					 M184.9,614.9c-1.8-1.5-2.5-3.3-2.5-5.6c-1.5,1.9-3.1,2.8-5.5,3c1.9,1.5,2.7,3.1,2.8,5.3C181.2,615.9,182.9,615,184.9,614.9z
					 M229.9,659.2c2.8-2.4,2.8-2.1,5.2-2.7c-1.6-1.3-2.5-3-2.7-5.3c-1.5,1.8-3,2.7-5.2,2.8C228.8,655.5,229.9,657,229.9,659.2z
					 M142.7,626.6c-0.6-0.9-1.2-1.6-1.6-2.4c-0.4-0.7-0.6-1.8-0.9-2.7c-1.3,1.6-3,2.5-5.3,2.5c1.8,1.3,2.7,3,2.8,5.2
					C139.1,627.7,140.6,626.8,142.7,626.6z M223.9,704c1.6,1.3,2.4,3.1,2.5,5.3c1.3-1.8,3.1-2.5,5.3-2.8c-1.8-1.3-2.5-3-2.8-5
					C227.7,703.2,226,703.9,223.9,704z M230.3,697.4c0.9-0.6,1.6-1.2,2.5-1.6c0.9-0.4,1.8-0.4,2.8-0.7c-1.8-1.2-2.7-3-3-5.2
					c-1.3,1.8-2.8,2.5-4.7,2.8C229.4,694.1,230.2,695.6,230.3,697.4z M215.6,637.6c-1.5-1.3-2.4-3-2.5-5c-1.3,1.6-2.8,2.4-4.4,2.5
					c0.9,1.5,1.6,3,2.4,4.4c0.6-0.4,1.3-0.9,2.1-1.2C213.9,637.9,214.8,637.7,215.6,637.6z M180.6,626c-1.2-1.2-1.9-2.7-2.1-4.7
					c-1.3,1.5-2.8,2.4-4.6,2.5c0.9,1.5,1.6,3,2.4,4.2C177.7,627.4,179.2,626.6,180.6,626z M231.5,668.1c-1.8-1.3-2.5-3-2.8-4.6
					c-1.5,0.9-2.8,1.6-4.2,2.5c0.6,1.3,1.3,2.7,2.1,4.2C228,668.9,229.4,668.3,231.5,668.1z M164.8,624.2c1.3-0.6,2.8-1.3,4.4-2.1
					c-1.3-1.2-1.9-2.7-2.2-4.6c-1.3,1.6-2.8,2.4-4.4,2.5C163.4,621.6,164.2,623.1,164.8,624.2z M151.7,625.3c-1.3,1.6-3,2.4-4.4,2.5
					c0.9,1.5,1.6,2.8,2.4,4.2c1.2-0.6,2.7-1.3,4.2-1.9C152.6,628.8,151.9,627.4,151.7,625.3z M201.7,628.8c-1.2,1.6-2.8,2.4-4.3,2.7
					c0.7,1.5,1.5,2.8,2.1,4c1.3-0.6,2.8-1.3,4.4-2.1C202.6,632.4,201.8,630.8,201.7,628.8z M218.9,654.5c1.3-0.6,2.8-1.2,4.3-1.9
					c-1.2-1.2-2.1-2.5-2.2-4.3c-1.3,0.9-2.8,1.6-4,2.4C217.6,652,218.2,653.3,218.9,654.5z M222.9,681.3c1.3-0.6,2.8-1.2,4-1.8
					c-0.7-1.3-1.5-2.8-2.2-4c-1.2,0.6-2.5,1.3-3.7,1.9C221.6,678.7,222.2,680,222.9,681.3z M215.3,704.5c1.3-0.6,2.8-1.3,4-1.8
					c-0.7-1.3-1.5-2.7-2.2-4c-1.2,0.6-2.5,1.3-3.7,1.9C214.2,701.8,214.8,703.3,215.3,704.5z M185.8,627.8c0.7,1.2,1.5,2.5,2.1,3.7
					c1.3-0.6,2.7-1.2,3.9-1.8c-0.6-1.3-1.3-2.7-1.9-4C188.5,626.5,187.2,627.2,185.8,627.8z M222.9,691c-0.6-1.2-1.3-2.5-2.1-3.7
					c-1.2,0.6-2.4,1.3-3.6,1.9c0.6,1.2,1.2,2.5,1.8,3.9C220.4,692.3,221.7,691.6,222.9,691z M164.6,633.6c-0.6-1.2-1.2-2.5-1.6-3.6
					c-1.3,0.6-2.7,1.3-3.9,1.9c0.6,1.2,1.3,2.4,2.1,3.6C162.2,634.9,163.4,634.3,164.6,633.6z M216.8,660.4
					c-1.2,0.6-2.4,1.3-3.6,1.9c0.6,1.2,1.2,2.5,1.8,3.6c1.2-0.6,2.5-1.2,3.6-1.8C218.2,662.8,217.4,661.6,216.8,660.4z M210.9,648.7
					c-0.6-1.2-1.2-2.5-1.8-3.7c-1,0.6-2.4,1.3-3.4,1.9c0.6,1.2,1.2,2.4,1.8,3.6C208.5,649.9,209.9,649.3,210.9,648.7z M147.7,637.9
					c-1.3,0.6-2.5,1.2-3.9,1.8c0.6,1,1.3,2.2,1.9,3.4c1-0.6,2.4-1.2,3.4-1.8C148.7,640.3,148.2,639.1,147.7,637.9z M209.9,673.9
					c0.4,1,1,2.2,1.5,3.3c1.2-0.6,2.5-1.2,3.7-1.6c-0.6-1.2-1.2-2.4-1.8-3.4C212.1,672.7,211,673.3,209.9,673.9z M197.5,641.3
					c-1.2,0.6-2.4,1.3-3.4,1.9c0.6,1,1.2,2.1,1.8,3.3c1.2-0.6,2.2-1,3.3-1.6C198.6,643.7,198.1,642.5,197.5,641.3z M203.8,700.6
					c1.2-0.6,2.4-1.3,3.6-1.9c-0.6-1-1.2-2.1-1.8-3.1c-1,0.6-2.2,1-3.3,1.6C202.7,698.3,203.3,699.4,203.8,700.6z M176,637.4
					c-0.6-1.2-1-2.4-1.6-3.6c-1,0.6-2.2,1.2-3.4,1.9c0.6,1,1.2,2.1,1.8,3.3C174,638.5,175,637.9,176,637.4z M184.3,642.8
					c1.2-0.6,2.2-1.2,3.3-1.6c-0.6-1-1.2-2.2-1.8-3.3c-1,0.6-2.2,1.2-3.3,1.8C183.3,640.7,183.8,641.7,184.3,642.8z M194,692.2
					c-1.2,0.6-2.4,1-3.4,1.6c0.4,1.2,1,2.2,1.5,3.3c1.2-0.7,2.4-1.3,3.6-2.1C195,694,194.4,693.1,194,692.2z M207,660.3
					c-0.6-1.2-1.2-2.4-1.8-3.4c-1,0.6-2.1,1.2-3.1,1.8c0.6,1,1.2,2.1,1.6,3.3C205,661.2,206,660.7,207,660.3z M155.9,643.7
					c0.6,1,1,2.1,1.6,3.1c1-0.6,2.2-1,3.3-1.6c-0.4-1-1-2.2-1.5-3.3C158.1,642.5,156.9,643.1,155.9,643.7z M160.6,674.2
					c1-0.7,2.2-1.5,3.4-2.2c-0.4-0.7-0.9-1.6-1.2-2.4c-1.3,0.4-2.5,0.9-3.9,1.3C159.6,672,160,673,160.6,674.2z M211,687
					c-0.6-1-1.2-2.2-1.6-3.3c-1,0.6-2.1,1.2-3.1,1.8c0.6,1,1,2.1,1.6,3.1C208.8,688,209.9,687.6,211,687z M156.5,656.4
					c-0.4-0.9-0.9-1.9-1.2-2.7c-1.2,0.6-2.2,1-3.4,1.6c0.6,0.9,1,1.9,1.6,2.8C154.4,657.5,155.4,657,156.5,656.4z M172,648.9
					c-0.4-1-1-2.1-1.5-3c-1,0.4-1.9,1-3,1.5c0.6,1,1,1.9,1.6,3C170.1,649.8,171,649.3,172,648.9z M190.9,654.9c0.4,1,1,1.9,1.5,2.8
					c1-0.4,1.9-0.9,2.8-1.3c-0.4-1-1-1.9-1.5-3C192.8,653.9,191.9,654.4,190.9,654.9z M183.5,652.4c-0.4-1-0.9-1.9-1.3-2.8
					c-0.9,0.4-1.9,1-2.8,1.5c0.4,0.9,1,1.8,1.5,2.7C181.7,653.3,182.6,652.9,183.5,652.4z M198.9,670.2c0.4,0.9,0.9,1.8,1.3,2.7
					c0.9-0.4,1.8-0.9,2.8-1.3c-0.4-0.9-0.9-1.9-1.5-2.8C200.7,669.3,199.6,669.8,198.9,670.2z M197.5,680.5
					c-0.9,0.4-1.8,0.9-2.5,1.3c0.4,1,0.9,1.9,1.3,2.8c0.9-0.4,1.8-0.9,2.7-1.3C198.6,682.2,198.1,681.3,197.5,680.5z M191.2,667.7
					c-0.4-0.9-0.9-1.8-1.2-2.5c-0.9,0.4-1.6,0.9-2.5,1.3c0.4,0.7,0.9,1.6,1.2,2.4C189.5,668.4,190.3,668,191.2,667.7z M164.2,659.1
					c0.4,0.7,0.7,1.5,1.2,2.2c0.9-0.4,1.6-0.9,2.5-1.3c-0.4-0.9-0.7-1.6-1.2-2.4C165.8,658.2,165.1,658.7,164.2,659.1z M176,662.8
					c0.4,0.7,0.7,1.3,1,2.1c0.7-0.3,1.5-0.7,2.2-1c-0.4-0.7-0.7-1.5-1-2.2C177.5,662.1,176.8,662.5,176,662.8z M186.1,677
					c-0.7,0.4-1.3,0.7-1.9,1c0.3,0.7,0.6,1.3,1,2.1c0.7-0.3,1.3-0.6,2.1-1C186.9,678.5,186.4,677.8,186.1,677z M172,674.7
					c0.3,0.6,0.6,1.2,1,1.9c0.7-0.4,1.5-0.9,2.2-1.2c-0.3-0.6-0.6-1.2-0.9-1.8C173.5,673.9,172.8,674.2,172,674.7z"/>
				<path class="st2" d="M257.9,676.3c-3.3,0-5.8-2.7-5.8-5.8s2.8-5.8,5.9-5.6c3.1,0,5.6,2.7,5.6,5.9
					C263.8,673.8,261.2,676.3,257.9,676.3z"/>
				<path class="st2" d="M133.2,602.7c0,3.3-2.7,5.8-5.8,5.8c-3,0-5.8-3-5.8-5.9c0-3,2.8-5.8,5.8-5.8
					C130.4,597,133.2,599.6,133.2,602.7z"/>
				<path class="st2" d="M246.2,634.3c-3,0-5.6-2.8-5.6-5.8s2.8-5.8,5.8-5.6c3.1,0,5.8,2.8,5.8,5.8
					C252,631.7,249.3,634.3,246.2,634.3z"/>
				<path class="st2" d="M254.1,649.5c-3,0-5.8-2.7-5.8-5.8c0-3,2.7-5.8,5.8-5.8c3,0,5.8,2.7,5.8,5.8S257.2,649.5,254.1,649.5z"/>
				<path class="st2" d="M227.1,615.3c-3,0-5.8-2.8-5.8-5.8s2.8-5.8,5.8-5.8s5.8,2.8,5.8,5.8C232.8,612.5,230,615.3,227.1,615.3z"/>
				<path class="st2" d="M258.4,703.2c3,0,5.6,2.7,5.6,5.8c0,3-2.7,5.8-5.8,5.8c-3,0-5.6-2.7-5.6-5.8S255.2,703,258.4,703.2z"/>
				<path class="st2" d="M261.9,653.3c3.3,0.1,5.6,2.8,5.6,5.8c0,3.1-2.8,5.6-5.8,5.6c-3.3-0.1-5.6-2.8-5.6-5.8
					C256.3,655.8,259,653.2,261.9,653.3z"/>
				<path class="st2" d="M163.6,587.2c-0.3,3.3-2.4,5.6-5.6,5.6c-3.1,0-5.6-2.4-5.6-5.6c0-3.4,2.5-5.6,5.8-5.6
					C161.4,581.5,163.3,583.9,163.6,587.2z"/>
				<path class="st2" d="M267.9,697.4c-0.3,3.4-2.7,5.6-5.8,5.6c-3.4-0.1-5.6-2.7-5.6-5.6c0-3.4,2.7-5.6,5.8-5.6
					C265.6,691.9,267.6,694.4,267.9,697.4z"/>
				<path class="st2" d="M254.7,726.1c-3.3-0.3-5.6-2.2-5.6-5.6c0-3.3,2.2-5.6,5.6-5.6c3.3,0,5.6,2.2,5.6,5.6
					C260.3,723.6,258.1,725.8,254.7,726.1z"/>
				<path class="st2" d="M244.1,613.3c-0.3,3.3-2.4,5.6-5.6,5.6c-3.3,0-5.6-2.2-5.6-5.6c0-3.3,2.2-5.6,5.6-5.6
					C241.7,607.6,243.8,610,244.1,613.3z"/>
				<path class="st2" d="M265.8,691.4c-2.7,0.1-5.6-2.7-5.5-5.8c0.1-2.7,2.7-5.5,5.8-5.5c2.7,0,5.6,2.7,5.5,5.8
					C271.4,688.6,268.7,691.6,265.8,691.4z"/>
				<path class="st2" d="M207.8,584.9c3.1,0,5.5,2.5,5.5,5.6s-2.5,5.5-5.6,5.5s-5.5-2.5-5.5-5.6
					C202.1,587.3,204.7,584.9,207.8,584.9z"/>
				<path class="st2" d="M196.2,592.2c-3.1,0-5.6-2.5-5.6-5.6s2.5-5.5,5.6-5.5s5.6,2.5,5.6,5.6S199.3,592.2,196.2,592.2z"/>
				<path class="st2" d="M219.2,588.6c3,0,5.6,2.5,5.6,5.6c0,3-2.5,5.6-5.6,5.6c-3,0-5.5-2.5-5.5-5.5
					C213.7,591.3,216.2,588.6,219.2,588.6z"/>
				<path class="st2" d="M131.2,596.7c-3,0-5.6-2.5-5.6-5.6c0-3,2.5-5.6,5.6-5.6c3,0,5.5,2.5,5.5,5.5
					C136.7,594.1,134.2,596.7,131.2,596.7z"/>
				<path class="st2" d="M184.6,577.5c3.1,0,5.6,2.5,5.6,5.5c0,3.1-2.5,5.6-5.5,5.6c-3.1,0-5.6-2.5-5.6-5.5
					C179,580,181.7,577.5,184.6,577.5z"/>
				<path class="st2" d="M263.3,632.3c0,3-2.7,5.6-5.6,5.6c-3,0-5.5-2.7-5.5-5.6s2.7-5.6,5.6-5.6
					C260.7,626.8,263.3,629.4,263.3,632.3z"/>
				<path class="st2" d="M269.5,680c-3,0-5.6-2.7-5.5-5.6c0-3,2.7-5.5,5.6-5.5c3,0,5.6,2.7,5.5,5.6C275,677.3,272.4,680,269.5,680z"
					/>
				<path class="st2" d="M265.5,653.2c-3,0-5.5-2.7-5.6-5.5c0-3,2.7-5.6,5.6-5.6c3,0,5.5,2.7,5.5,5.6
					C271.1,650.5,268.4,653.2,265.5,653.2z"/>
				<path class="st2" d="M115.8,593.2c3,0,5.6,2.5,5.6,5.5s-2.7,5.6-5.6,5.6s-5.5-2.7-5.5-5.6C110.2,595.9,112.8,593.2,115.8,593.2z
					"/>
				<path class="st2" d="M173.2,584.8c-3,0-5.5-2.7-5.5-5.5c0-3,2.7-5.6,5.6-5.5c3,0,5.5,2.7,5.5,5.6
					C178.7,582.3,176.2,584.8,173.2,584.8z"/>
				<path class="st2" d="M140.9,583.3c0-3,2.7-5.5,5.5-5.5c3,0,5.6,2.7,5.6,5.6c0,3-2.7,5.5-5.6,5.5
					C143.4,588.8,140.9,586.1,140.9,583.3z"/>
				<path class="st2" d="M250.2,611.3c3,0,5.5,2.7,5.5,5.6s-2.7,5.5-5.6,5.5s-5.5-2.7-5.5-5.6C244.6,613.9,247.2,611.3,250.2,611.3z
					"/>
				<path class="st2" d="M236.3,598.1c0,3-2.5,5.5-5.5,5.5s-5.6-2.7-5.6-5.6s2.7-5.5,5.6-5.5C233.7,592.5,236.3,595.2,236.3,598.1z"
					/>
				<path class="st2" d="M112.3,615.8c-2.8,0-5.6-2.7-5.6-5.5s2.7-5.5,5.5-5.5s5.6,2.7,5.6,5.5S115.1,615.8,112.3,615.8z"/>
				<path class="st2" d="M273.3,657.3c3.1,0.1,5.5,2.5,5.5,5.5c0,3.1-2.5,5.5-5.5,5.5c-3.1,0-5.5-2.5-5.5-5.5
					C267.9,659.7,270.2,657.5,273.3,657.3z"/>
				<path class="st2" d="M264.4,712.6c0-3,2.4-5.2,5.3-5.5c2.7-0.1,5.5,2.7,5.5,5.5c0,2.5-2.7,5.5-5.5,5.3
					C267.3,718,264.1,715.3,264.4,712.6z"/>
				<path class="st2" d="M247.7,601.8c0.3,2.5-2.7,5.3-5.5,5.3c-2.5,0-5.5-2.7-5.3-5.6c0-2.4,2.7-5.3,5.5-5.3
					C244.9,596.4,248,598.9,247.7,601.8z"/>
				<path class="st2" d="M161.6,580.8c-2.7,0.3-5.5-2.8-5.5-5.3c0-2.7,2.8-5.6,5.5-5.5c3,0.1,5.3,2.4,5.3,5.5
					C167,578.6,164.6,580.8,161.6,580.8z"/>
				<path class="st2" d="M273.6,706.4c-3,0-5.3-2.4-5.3-5.3c0-3,2.4-5.3,5.5-5.3c3,0,5.3,2.4,5.3,5.5
					C279.1,704,276.6,706.4,273.6,706.4z"/>
				<path class="st2" d="M266.1,729.4c-3,0-5.3-2.5-5.3-5.5s2.5-5.3,5.5-5.3s5.3,2.5,5.3,5.5C271.4,727,269,729.4,266.1,729.4z"/>
				<path class="st2" d="M119.5,581.8c3,0,5.3,2.4,5.3,5.3s-2.4,5.3-5.3,5.3s-5.3-2.4-5.3-5.3C114.2,584.3,116.6,581.8,119.5,581.8z
					"/>
				<path class="st2" d="M134.8,585.1c-3,0-5.3-2.5-5.3-5.5c0-2.8,2.5-5.3,5.5-5.3s5.3,2.5,5.3,5.5
					C140.1,582.6,137.6,585.1,134.8,585.1z"/>
				<path class="st2" d="M269.3,641.3c-3,0-5.3-2.5-5.3-5.5c0-2.8,2.5-5.3,5.5-5.3s5.3,2.5,5.3,5.5
					C274.7,638.9,272.2,641.3,269.3,641.3z"/>
				<path class="st2" d="M282.7,689.7c0,3-2.5,5.3-5.5,5.3c-2.8,0-5.3-2.5-5.2-5.5c0-3,2.5-5.3,5.5-5.3
					C280.3,684.3,282.7,686.8,282.7,689.7z"/>
				<path class="st2" d="M261.6,615.3c3,0,5.3,2.5,5.3,5.5c0,2.8-2.5,5.3-5.5,5.3s-5.3-2.5-5.3-5.5
					C256.1,617.7,258.7,615.3,261.6,615.3z"/>
				<path class="st2" d="M199.8,580.6c-3,0-5.3-2.5-5.3-5.5c0-2.8,2.5-5.3,5.5-5.3s5.3,2.5,5.3,5.5S202.7,580.6,199.8,580.6z"/>
				<path class="st2" d="M211.5,584.5c-3,0-5.3-2.5-5.3-5.5c0-2.8,2.5-5.3,5.5-5.3s5.3,2.5,5.3,5.5
					C216.8,582,214.3,584.5,211.5,584.5z"/>
				<path class="st2" d="M222.9,577.4c2.8,0,5.3,2.5,5.3,5.3s-2.5,5.3-5.3,5.3s-5.3-2.5-5.3-5.3
					C217.4,579.9,220.1,577.4,222.9,577.4z"/>
				<path class="st2" d="M277,656.6c-2.8,0-5.3-2.5-5.3-5.3s2.7-5.3,5.3-5.3c2.8,0,5.3,2.5,5.3,5.3
					C282.5,653.9,279.9,656.6,277,656.6z"/>
				<path class="st2" d="M188.5,566.1c2.8,0,5.3,2.5,5.3,5.3s-2.5,5.3-5.3,5.3s-5.3-2.5-5.3-5.3C183,568.6,185.7,566.1,188.5,566.1z
					"/>
				<path class="st2" d="M281.1,683.3c-2.8,0-5.3-2.5-5.3-5.5c0-2.8,2.5-5.3,5.3-5.2c2.8,0,5.3,2.7,5.3,5.5
					C286.4,680.9,283.9,683.4,281.1,683.3z"/>
				<path class="st2" d="M150.4,566.5c2.8,0,5.3,2.5,5.2,5.3c0,2.8-2.5,5.3-5.5,5.3c-2.8,0-5.3-2.7-5.2-5.5
					C144.9,568.9,147.6,566.4,150.4,566.5z"/>
				<path class="st2" d="M253.8,600.2c2.8,0,5.3,2.5,5.3,5.3s-2.5,5.3-5.3,5.3s-5.3-2.5-5.3-5.3
					C248.4,602.6,250.9,600.2,253.8,600.2z"/>
				<path class="st2" d="M182.1,567.9c0,2.7-2.7,5.3-5.3,5.3c-2.8,0-5.3-2.7-5.3-5.3c0-2.8,2.7-5.3,5.3-5.3
					C179.6,562.5,182.3,565.1,182.1,567.9z"/>
				<path class="st2" d="M234.5,591.8c-2.8,0-5.3-2.5-5.3-5.3c0-2.7,2.5-5.3,5.3-5.3s5.3,2.5,5.3,5.3
					C239.8,589.2,237.3,591.8,234.5,591.8z"/>
				<path class="st2" d="M123.4,581.1c-2.8,0-5.2-2.4-5.2-5.2s2.4-5.2,5.2-5.2c2.8,0,5.2,2.4,5.2,5.2
					C128.6,578.7,126.2,581.1,123.4,581.1z"/>
				<path class="st2" d="M284.9,671.9c-2.8,0-5.2-2.4-5.2-5.2s2.4-5.2,5.3-5.2c2.8,0,5.2,2.4,5,5.2
					C290.1,669.5,287.7,671.9,284.9,671.9z"/>
				<path class="st2" d="M165.4,569.2c-2.8,0-5.2-2.4-5.2-5.2s2.4-5.2,5.2-5.2s5.2,2.4,5.2,5.2C170.7,566.8,168.2,569.2,165.4,569.2
					z"/>
				<path class="st2" d="M273,619.3c2.8,0,5.2,2.4,5.2,5.2s-2.4,5.2-5.2,5.2c-2.8,0-5.2-2.4-5.2-5.2
					C267.9,621.7,270.4,619.3,273,619.3z"/>
				<path class="st2" d="M108.1,588.8c-2.8,0-5.2-2.4-5.2-5.2s2.4-5.2,5.2-5.2s5.2,2.4,5.2,5.2C113.4,586.4,110.9,588.8,108.1,588.8
					z"/>
				<path class="st2" d="M280.8,634.6c2.8,0,5.2,2.4,5.2,5.2s-2.4,5.3-5.2,5.2c-2.8,0-5.2-2.4-5.2-5.2
					C275.6,637,277.9,634.6,280.8,634.6z"/>
				<path class="st2" d="M251.1,590.3c0,2.8-2.4,5.2-5.2,5.2s-5.2-2.4-5.2-5.2s2.4-5.2,5.2-5.2C248.7,585.1,251.1,587.5,251.1,590.3
					z"/>
				<path class="st2" d="M138.7,573.2c-2.7,0-5.2-2.4-5.2-5.2c0-2.7,2.4-5.2,5.2-5.2c2.7,0,5.2,2.4,5.2,5.2
					C143.9,570.7,141.3,573.2,138.7,573.2z"/>
				<path class="st2" d="M286.5,716.2c0,2.7-2.5,5.2-5.2,5.2s-5.2-2.4-5.2-5.2c0-2.7,2.5-5.2,5.2-5.2S286.5,713.5,286.5,716.2z"/>
				<path class="st2" d="M270.5,609.3c0,2.7-2.4,5.2-5.2,5.2c-2.7,0-5.2-2.4-5.2-5.2c0-2.7,2.4-5.2,5.2-5.2
					C268,604.1,270.5,606.6,270.5,609.3z"/>
				<path class="st2" d="M290.2,704.8c0,2.8-2.4,5.2-5.2,5.2s-5.2-2.5-5.2-5.2s2.4-5,5.2-5.2C287.9,699.6,290.2,702.1,290.2,704.8z"
					/>
				<path class="st2" d="M104.4,589.8c2.8,0,5.2,2.5,5.2,5.2c0,2.8-2.5,5.2-5.2,5c-2.7,0-5-2.5-5-5.2
					C99.2,592.2,101.6,589.8,104.4,589.8z"/>
				<path class="st2" d="M294.1,693.2c0,2.7-2.4,5.2-5,5.2c-2.7,0-5.2-2.5-5.2-5.2s2.5-5.2,5.2-5.2C291.6,688,294,690.5,294.1,693.2
					z"/>
				<path class="st2" d="M208.8,563.7c0,2.7-2.5,5.2-5.2,5c-2.7,0-5.2-2.5-5-5.2c0-2.7,2.5-5.2,5.2-5
					C206.4,558.5,208.8,561.1,208.8,563.7z"/>
				<path class="st2" d="M220.4,567.4c0,2.7-2.5,5.2-5.2,5.2s-5.2-2.5-5.2-5.2s2.5-5.2,5.2-5.2C217.9,562.4,220.4,564.8,220.4,567.4
					z"/>
				<path class="st2" d="M293.7,654.9c0,2.7-2.4,5.2-5,5.2c-2.7,0-5.2-2.4-5.2-5s2.4-5.2,5-5.2C291.1,649.8,293.7,652.3,293.7,654.9
					z"/>
				<path class="st2" d="M159,560.3c-0.1,3-2.4,5-5.2,5c-3,0-5-2.4-5-5.2c0-3,2.2-5,5-5C156.8,555.1,158.8,557.3,159,560.3z"/>
				<path class="st2" d="M252.4,594c0.1-2.7,2.2-5,5-5.2c2.7,0,5,2.1,5.2,5c0.1,2.7-2.2,5.2-5,5.2S252.6,596.8,252.4,594z"/>
				<path class="st2" d="M231.8,571.3c-0.1,2.7-2.2,5-5,5.2c-2.7,0-5-2.1-5.2-5c-0.1-2.7,2.2-5.2,5-5.2
					C229.4,566.1,231.7,568.5,231.8,571.3z"/>
				<path class="st2" d="M197.1,560.2c-0.3,3-2.7,5-5.2,4.9c-3.1-0.1-5-2.8-4.9-5.2c0.1-3,2.8-5,5.2-4.9
					C195.2,555.1,197.2,557.6,197.1,560.2z"/>
				<path class="st2" d="M287.4,681.8c0-2.8,2.2-5,5-4.9c2.7,0,4.9,2.2,4.9,5c0,2.7-2.2,4.9-5,4.9
					C289.8,686.8,287.4,684.6,287.4,681.8z"/>
				<path class="st2" d="M111.8,567c2.7,0,5,2.2,5,5s-2.4,5-5,5c-2.7,0-4.9-2.4-4.9-5C106.8,569.4,109.1,567,111.8,567z"/>
				<path class="st2" d="M185.7,556.2c0,2.7-2.2,5-4.9,5c-2.8,0-5-2.2-5-5c0-2.7,2.4-5,5-5C183.3,551.3,185.7,553.5,185.7,556.2z"/>
				<path class="st2" d="M135.5,651.1c2.7,0,4.9,2.4,4.9,5s-2.4,4.9-5,4.9c-2.7,0-5-2.4-4.9-5.2
					C130.5,653.3,132.9,651.1,135.5,651.1z"/>
				<path class="st2" d="M276.8,618c-2.7,0-5-2.2-5-4.9s2.4-5,5-5c2.7,0,5,2.4,5,5C281.8,615.6,279.4,617.9,276.8,618z"/>
				<path class="st2" d="M132.3,564.3c0,2.7-2.4,5-5,5s-5-2.4-5-5c0-2.7,2.4-4.9,5-4.9C129.9,559.3,132.3,561.6,132.3,564.3z"/>
				<path class="st2" d="M284.5,623.2c2.7,0,5,2.4,5,5c0,2.7-2.4,5-5,5c-2.7,0-4.9-2.4-4.9-5C279.6,625.4,281.8,623.2,284.5,623.2z"
					/>
				<path class="st2" d="M243.4,574.9c0,2.7-2.2,5-4.9,5s-5-2.4-5-5s2.4-5,5-5C241,570,243.2,572.2,243.4,574.9z"/>
				<path class="st2" d="M301.2,670.2c0,2.7-2.4,5-5,5s-4.9-2.4-4.9-5s2.4-5,5-5C299,665.2,301.2,667.6,301.2,670.2z"/>
				<path class="st2" d="M297.2,643.5c0,2.5-2.4,4.9-5,4.9c-2.7,0-4.9-2.4-4.9-5s2.4-4.9,5-4.9C295,638.6,297.4,641,297.2,643.5z"/>
				<path class="st2" d="M277.8,732.8c-2.7,0-5-2.2-5-4.9s2.2-5,4.9-5s5,2.2,5,4.9C282.7,730.3,280.3,732.8,277.8,732.8z"/>
				<path class="st2" d="M147.4,556.6c0,2.7-2.4,4.9-4.9,5c-2.7,0-4.9-2.4-5-4.9c0-2.7,2.4-5,4.9-5
					C145,551.7,147.4,554.1,147.4,556.6z"/>
				<path class="st2" d="M164,552.3c0-2.7,2.5-4.9,5-4.9c2.7,0.1,4.9,2.5,4.9,5c-0.1,2.5-2.5,4.9-5,4.9S164,555,164,552.3z"/>
				<path class="st2" d="M249.6,583.6c-2.7,0-5-2.5-4.9-5c0-2.7,2.5-4.9,5-4.9c2.5,0.1,4.9,2.4,4.9,5
					C254.7,581.2,252.3,583.8,249.6,583.6z"/>
				<path class="st2" d="M268.9,592.8c2.5,0,5,2.4,5,4.9s-2.4,5-5,4.9c-2.5,0-4.9-2.4-4.9-4.9S266.4,592.8,268.9,592.8z"/>
				<path class="st2" d="M296.6,703.7c2.7,0,4.9,2.1,4.9,4.9c0,2.7-2.1,4.7-4.9,4.7c-2.7,0-4.7-2.1-4.7-4.7S294,703.7,296.6,703.7z"
					/>
				<path class="st2" d="M297.7,719.9c0,2.7-2.1,4.9-4.7,4.9s-4.9-2.1-4.9-4.7s2.1-4.9,4.9-4.9C295.6,715.2,297.7,717.4,297.7,719.9
					z"/>
				<path class="st2" d="M300.2,653.9c2.7,0,4.9,2.2,4.7,4.9c0,2.7-2.2,4.7-4.9,4.7s-4.9-2.2-4.7-4.9
					C295.3,656.1,297.5,653.9,300.2,653.9z"/>
				<path class="st2" d="M305.1,696.9c0,2.5-2.2,4.9-4.7,4.9c-2.7,0-4.9-2.2-4.9-4.9c0-2.5,2.2-4.7,4.7-4.7
					C302.9,692.2,305.1,694.4,305.1,696.9z"/>
				<path class="st2" d="M157.6,553.6c-2.5,0-4.9-2.2-4.9-4.7c0-2.7,2.2-4.9,4.9-4.9c2.5,0,4.7,2.2,4.7,4.9
					C162.4,551.4,160.2,553.6,157.6,553.6z"/>
				<path class="st2" d="M261.3,577.7c2.5,0,4.9,2.4,4.7,4.9c0,2.5-2.4,4.7-4.9,4.7s-4.9-2.4-4.7-4.9
					C256.6,579.9,259,577.7,261.3,577.7z"/>
				<path class="st2" d="M120.4,560.6c0,2.5-2.4,4.9-4.9,4.7c-2.5,0-4.7-2.4-4.7-4.9s2.4-4.9,4.9-4.7
					C118.2,555.9,120.4,558.2,120.4,560.6z"/>
				<path class="st2" d="M223.7,556.2c0,2.5-2.4,4.7-4.9,4.7s-4.9-2.4-4.7-4.9c0-2.5,2.4-4.7,4.9-4.7
					C221.4,551.3,223.8,553.6,223.7,556.2z"/>
				<path class="st2" d="M207.5,557.1c-2.5,0-4.7-2.2-4.9-4.7c0-2.5,2.2-4.9,4.7-4.9s4.9,2.4,4.9,4.9
					C212.2,554.8,210,557.1,207.5,557.1z"/>
				<path class="st2" d="M283.6,616.7c0-2.5,2.4-4.7,4.9-4.7s4.9,2.4,4.7,4.9c0,2.5-2.4,4.7-4.9,4.7
					C285.8,621.4,283.4,619.2,283.6,616.7z"/>
				<path class="st2" d="M105.1,568.5c0,2.5-2.2,4.7-4.7,4.7s-4.9-2.4-4.7-4.9c0-2.5,2.4-4.7,4.9-4.7
					C102.9,563.6,105.1,566,105.1,568.5z"/>
				<path class="st2" d="M130.8,548c2.5,0,4.7,2.2,4.7,4.7s-2.4,4.9-4.9,4.7c-2.5,0-4.7-2.4-4.7-4.7
					C126.1,550.2,128.3,548,130.8,548z"/>
				<path class="st2" d="M308.9,685.7c0,2.5-2.2,4.7-4.7,4.7s-4.9-2.2-4.7-4.7c0-2.5,2.4-4.7,4.7-4.7
					C306.6,680.9,308.9,683.1,308.9,685.7z"/>
				<path class="st2" d="M235.2,559.6c0,2.5-2.2,4.7-4.7,4.7s-4.9-2.2-4.9-4.7s2.2-4.7,4.7-4.7C233,554.8,235.2,557.2,235.2,559.6z"
					/>
				<path class="st2" d="M195.8,543.7c2.5,0,4.7,2.2,4.9,4.7c0,2.5-2.2,4.9-4.7,4.9s-4.7-2.2-4.7-4.7
					C191,545.9,193.4,543.7,195.8,543.7z"/>
				<path class="st2" d="M300.9,632c0,2.5-2.2,4.7-4.7,4.7s-4.9-2.2-4.7-4.7c0-2.5,2.4-4.7,4.7-4.7
					C298.7,627.2,300.9,629.4,300.9,632z"/>
				<path class="st2" d="M280.6,606.3c-2.5,0-4.7-2.2-4.7-4.7s2.2-4.7,4.7-4.7s4.7,2.2,4.7,4.7C285.4,604.1,283.1,606.3,280.6,606.3
					z"/>
				<path class="st2" d="M246.6,563.4c0,2.4-2.4,4.7-4.7,4.7c-2.4,0-4.7-2.4-4.7-4.7s2.4-4.7,4.7-4.7
					C244.4,558.8,246.6,561.1,246.6,563.4z"/>
				<path class="st2" d="M189.2,544.9c0,2.4-2.4,4.7-4.7,4.7c-2.4,0-4.9-2.4-4.7-4.7c0.1-2.8,2.2-4.7,4.7-4.7
					C187,540.1,189.2,542.5,189.2,544.9z"/>
				<path class="st2" d="M299.1,647.1c0-2.7,2.1-4.6,4.7-4.6s4.4,2.1,4.6,4.7c0.1,2.2-2.2,4.7-4.7,4.6
					C301.1,651.7,299.1,649.8,299.1,647.1z"/>
				<path class="st2" d="M307.9,669.3c2.2-0.3,4.7,2.4,4.7,4.6c0,2.4-2.4,4.7-4.7,4.7c-2.2,0-4.6-2.4-4.6-4.7
					C303.3,671.7,305.7,669.2,307.9,669.3z"/>
				<path class="st2" d="M150.7,545c0.3,2.2-2.4,4.6-4.6,4.6c-2.2,0-4.7-2.4-4.6-4.7c0-2.2,2.4-4.6,4.7-4.6
					C148.3,540.4,151,542.8,150.7,545z"/>
				<path class="st2" d="M272.6,590.9c-2.5,0-4.6-2.2-4.6-4.7s2.2-4.6,4.7-4.6c2.4,0,4.6,2.2,4.4,4.7
					C277.3,588.8,275.1,591,272.6,590.9z"/>
				<path class="st2" d="M96.5,584.5c-2.5,0-4.6-2.2-4.6-4.6c0-2.5,2.2-4.6,4.6-4.6s4.6,2.2,4.6,4.6
					C101.3,582.3,99.1,584.5,96.5,584.5z"/>
				<path class="st2" d="M177.5,541c0,2.5-2.1,4.6-4.6,4.7c-2.5,0-4.6-2.2-4.6-4.6s2.1-4.6,4.6-4.6
					C175.3,536.4,177.5,538.5,177.5,541z"/>
				<path class="st2" d="M248.9,567.3c0-2.5,2.2-4.6,4.6-4.6c2.5,0,4.6,2.2,4.6,4.6s-2.2,4.6-4.6,4.6
					C251.1,571.9,248.9,569.8,248.9,567.3z"/>
				<path class="st2" d="M304.3,620.5c0,2.4-2.2,4.6-4.6,4.6s-4.6-2.2-4.6-4.6s2.2-4.6,4.6-4.4C302.4,616.1,304.2,618,304.3,620.5z"
					/>
				<path class="st2" d="M304.3,728.4c-2.4,0-4.6-2.2-4.6-4.6c0-2.4,2.2-4.6,4.6-4.6s4.4,2.2,4.6,4.6
					C308.9,726.1,306.7,728.4,304.3,728.4z"/>
				<path class="st2" d="M119.4,544.4c2.4,0,4.6,2.4,4.4,4.6c-0.1,2.7-2.1,4.4-4.6,4.4c-2.4,0-4.4-2.2-4.4-4.6
					C114.8,546.7,117.2,544.4,119.4,544.4z"/>
				<path class="st2" d="M104,561.4c-2.4,0-4.6-2.2-4.6-4.6s2.2-4.6,4.6-4.6s4.4,2.2,4.6,4.6C108.5,559.1,106.3,561.4,104,561.4z"/>
				<path class="st2" d="M311.5,658.1c2.2,0,4.6,2.1,4.6,4.4s-2.1,4.6-4.6,4.6c-2.4,0-4.6-2.2-4.6-4.6
					C307,660.3,309.1,658.1,311.5,658.1z"/>
				<path class="st2" d="M296.5,605.1c0,2.2-2.1,4.6-4.4,4.6c-2.4,0-4.6-2.1-4.6-4.6c0-2.4,2.2-4.6,4.6-4.6
					C294.3,600.5,296.5,602.7,296.5,605.1z"/>
				<path class="st2" d="M308.2,707.6c2.4,0,4.6,2.2,4.4,4.6c-0.1,2.5-2.2,4.6-4.6,4.6c-2.5-0.1-4.4-2.2-4.4-4.6
					S305.8,707.6,308.2,707.6z"/>
				<path class="st2" d="M161.5,541.8c-2.2,0-4.6-2.2-4.6-4.6c0-2.2,2.2-4.6,4.6-4.6c2.2,0,4.6,2.2,4.6,4.6
					C166,539.5,163.7,541.8,161.5,541.8z"/>
				<path class="st2" d="M307.5,640.3c-2.1,0.3-4.6-2.2-4.4-4.6s2.1-4.3,4.4-4.4c2.1-0.1,4.6,2.2,4.4,4.6
					C311.9,638.3,310,640.3,307.5,640.3z"/>
				<path class="st2" d="M316.4,700.8c0,2.5-1.9,4.4-4.4,4.4s-4.4-1.9-4.4-4.4s1.9-4.4,4.4-4.4C314.4,696.3,316.4,698.3,316.4,700.8
					z"/>
				<path class="st2" d="M269.3,571c0.3,2.1-2.1,4.6-4.6,4.4c-2.4-0.1-4.3-2.1-4.3-4.4c-0.1-2.1,2.2-4.6,4.6-4.4
					C267.4,566.5,269.3,568.5,269.3,571z"/>
				<path class="st2" d="M288.8,590c0,2.5-1.9,4.4-4.4,4.4s-4.4-1.9-4.4-4.4c0-2.4,2.1-4.3,4.4-4.3
					C286.8,585.5,288.8,587.5,288.8,590z"/>
				<path class="st2" d="M139.1,541.2c0,2.5-1.9,4.4-4.4,4.4s-4.4-1.9-4.4-4.4s1.9-4.4,4.4-4.4C137,536.7,139.1,538.8,139.1,541.2z"
					/>
				<path class="st2" d="M234.2,552.7c-2.4,0-4.4-2.1-4.4-4.4s2.1-4.4,4.4-4.4c2.4,0,4.4,2.1,4.4,4.4S236.6,552.7,234.2,552.7z"/>
				<path class="st2" d="M199.6,541.5c-2.4,0-4.4-2.1-4.4-4.4s2.1-4.4,4.6-4.3c2.4,0,4.3,2.1,4.3,4.4
					C204.1,539.4,202,541.5,199.6,541.5z"/>
				<path class="st2" d="M211.2,545c-2.4,0-4.4-2.1-4.4-4.4c0-2.4,2.1-4.4,4.4-4.4c2.4,0,4.4,2.1,4.4,4.4
					C215.5,543,213.6,545,211.2,545z"/>
				<path class="st2" d="M227.2,544.4c0,2.4-2.1,4.4-4.4,4.4s-4.4-2.1-4.4-4.4c0-2.4,2.1-4.4,4.4-4.4S227.1,542.1,227.2,544.4z"/>
				<path class="st2" d="M319.9,689.2c0,2.4-2.1,4.4-4.4,4.4s-4.4-2.1-4.3-4.6c0-2.4,2.1-4.3,4.4-4.3
					C318,684.8,320.1,686.8,319.9,689.2z"/>
				<path class="st2" d="M149.8,529c2.2,0,4.4,2.1,4.4,4.4c0,2.2-2.1,4.3-4.3,4.3s-4.4-2.1-4.4-4.4C145.5,531.1,147.6,529,149.8,529
					z"/>
				<path class="st2" d="M192.5,533.3c0,2.2-2.2,4.4-4.4,4.3c-2.2-0.1-4.3-2.2-4.3-4.4s2.2-4.4,4.4-4.3
					C190.4,528.9,192.5,531.1,192.5,533.3z"/>
				<path class="st2" d="M245.8,547.4c2.2,0,4.4,2.2,4.3,4.4c-0.1,2.2-2.2,4.3-4.4,4.3s-4.4-2.2-4.3-4.4
					C241.4,549.5,243.5,547.4,245.8,547.4z"/>
				<path class="st2" d="M276.5,579.2c-2.2,0-4.3-2.1-4.3-4.3s2.1-4.4,4.4-4.4c2.2,0,4.3,2.1,4.3,4.3
					C280.9,576.9,278.8,579.2,276.5,579.2z"/>
				<path class="st2" d="M319.8,650.9c0,2.2-2.1,4.4-4.4,4.4c-2.2,0-4.3-2.1-4.4-4.3c0-2.2,2.1-4.4,4.4-4.4
					C317.5,646.6,319.8,648.7,319.8,650.9z"/>
				<path class="st2" d="M319.3,682.2c-2.4-0.1-4.2-1.8-4.4-4.3c-0.1-2.2,2.1-4.4,4.4-4.4c2.2,0,4.3,2.1,4.3,4.3
					C323.8,680,321.5,682.1,319.3,682.2z"/>
				<path class="st2" d="M107.8,549.6c-2.5-0.1-4.3-1.8-4.3-4.3c0-2.4,1.8-4.3,4.3-4.3c2.4,0,4.3,1.8,4.3,4.3
					C112.1,547.7,110.3,549.3,107.8,549.6z"/>
				<path class="st2" d="M96.8,553c0,2.4-1.9,4.3-4.2,4.3c-2.4,0-4.3-1.9-4.3-4.3s1.9-4.2,4.3-4.2C94.9,548.7,96.8,550.7,96.8,553z"
					/>
				<path class="st2" d="M307.8,609c0,2.4-1.9,4.3-4.2,4.3c-2.4,0-4.3-1.9-4.3-4.3s1.9-4.2,4.3-4.2C306,604.7,307.8,606.6,307.8,609
					z"/>
				<path class="st2" d="M261.3,555.7c0,2.4-1.9,4.3-4.3,4.3s-4.3-1.9-4.3-4.3s1.9-4.2,4.3-4.2C259.5,551.4,261.3,553.3,261.3,555.7
					z"/>
				<path class="st2" d="M176.6,525.2c2.4,0,4.3,1.9,4.3,4.3c0,2.4-1.9,4.3-4.3,4.3c-2.4,0-4.2-1.9-4.2-4.3
					C172.5,527.1,174.3,525.2,176.6,525.2z"/>
				<path class="st2" d="M123.1,533.3c2.2,0,4.2,1.9,4.2,4.3c0,2.2-1.9,4.2-4.3,4.2c-2.2,0-4.2-1.9-4.2-4.3
					C118.8,535.2,120.7,533.3,123.1,533.3z"/>
				<path class="st2" d="M311.3,628.4c-2.2,0-4.3-1.9-4.3-4.3c0-2.2,1.9-4.3,4.3-4.2c2.2,0,4.3,1.9,4.2,4.3
					C315.6,626.5,313.7,628.4,311.3,628.4z"/>
				<path class="st2" d="M300,593.7c0,2.4-1.9,4.3-4.3,4.3s-4.3-1.9-4.3-4.3s1.9-4.3,4.3-4.3C298.1,589.5,300,591.5,300,593.7z"/>
				<path class="st2" d="M323,670.4c-2.2,0-4.2-2.1-4.2-4.3s2.1-4.2,4.3-4.2s4.2,2.1,4.2,4.3S325.3,670.5,323,670.4z"/>
				<path class="st2" d="M319.2,643.8c-2.2,0-4.2-2.1-4.2-4.2c0-2.2,2.1-4.2,4.3-4.2c2.2,0,4.2,1.9,4.2,4.2
					C323.3,641.7,321.4,643.8,319.2,643.8z"/>
				<path class="st2" d="M142.7,529.8c0,2.2-1.9,4.3-4.2,4.3c-2.2,0-4.2-2.1-4.2-4.3s1.9-4.2,4.2-4.2
					C140.6,525.6,142.7,527.5,142.7,529.8z"/>
				<path class="st2" d="M323.9,716.1c0,2.2-2.1,4.2-4.2,4.2c-2.2,0-4.3-2.1-4.2-4.3c0-2.2,2.1-4.2,4.3-4.2
					C322,711.9,323.9,714,323.9,716.1z"/>
				<path class="st2" d="M292.2,578.4c0,2.2-1.9,4.3-4.2,4.3c-2.2,0-4.2-1.9-4.2-4.2c0-2.2,2.1-4.3,4.2-4.3
					C290.1,574.3,292.2,576.3,292.2,578.4z"/>
				<path class="st2" d="M165.1,521.6c2.2,0,4.2,2.1,4.2,4.3s-2.1,4.2-4.3,4.2s-4.2-2.1-4.2-4.3C160.9,523.5,163,521.6,165.1,521.6z
					"/>
				<path class="st2" d="M268.7,563.7c-2.2,0-4.2-1.9-4.2-4.2s2.1-4.3,4.2-4.3c2.2,0,4.3,2.1,4.2,4.3
					C272.9,561.8,270.8,563.7,268.7,563.7z"/>
				<path class="st2" d="M323.3,708.6c-2.1,0-4.2-1.9-4.2-4.2c0-2.1,2.1-4.3,4.2-4.2c2.1,0,4.2,2.1,4.2,4.2
					C327.5,706.6,325.6,708.6,323.3,708.6z"/>
				<path class="st2" d="M232,724.5c0,2.2-1.8,4-4.2,4c-2.2,0-4-1.8-4-4.2c0-2.2,1.8-4,4.2-4C230.2,720.4,232,722.1,232,724.5z"/>
				<path class="st2" d="M289.1,735.6c-2.2,0-4-1.8-4-4s1.8-4,4-4s4,1.8,4,4.2C293.2,733.9,291.3,735.6,289.1,735.6z"/>
				<path class="st2" d="M214.9,533.3c-2.2,0-4-1.8-4-4s1.8-4,4-4s4,1.8,4,4S217.1,533.3,214.9,533.3z"/>
				<path class="st2" d="M216.2,724.7c-2.2,0-4-1.8-4-4.2c0-2.2,1.8-4,4-4s4,1.8,4,4C220.2,722.9,218.5,724.7,216.2,724.7z"/>
				<path class="st2" d="M226.5,529c2.2,0,4,1.8,4.2,4c0,2.2-1.8,4-4,4.2c-2.2,0-4.2-1.8-4.2-4C222.5,530.8,224.2,529,226.5,529z"/>
				<path class="st2" d="M331.2,693.1c0,2.2-1.8,4-4.2,4c-2.2,0-4-1.9-4-4.2s1.9-4,4-4C329.4,688.9,331.2,690.8,331.2,693.1z"/>
				<path class="st2" d="M100.4,541.6c0,2.2-1.9,4-4.2,4s-4-1.9-4-4.2s1.9-4,4.2-4C98.6,537.6,100.4,539.4,100.4,541.6z"/>
				<path class="st2" d="M330.7,654.8c0,2.2-1.9,4-4.2,4c-2.2,0-4-1.9-4-4.2s1.9-4,4.2-4C329,650.8,330.9,652.7,330.7,654.8z"/>
				<path class="st2" d="M242,536.6c0,2.2-1.8,4.2-4,4.2s-4-1.8-4-4s1.8-4.2,4-4.2C240.1,532.6,241.9,534.5,242,536.6z"/>
				<path class="st2" d="M207.5,525.5c0,2.2-1.9,4-4.2,4c-2.2,0-4-1.9-4-4c0-2.2,1.9-4,4.2-4C205.7,521.5,207.5,523.2,207.5,525.5z"
					/>
				<path class="st2" d="M111.7,537.9c-2.1,0-4-1.9-4.2-4c0-2.1,1.9-4.2,4.2-4.2c2.1,0,4,1.9,4,4S113.7,537.8,111.7,537.9z"/>
				<path class="st2" d="M315.2,616.8c-2.1,0-4-1.9-4-4s2.1-4.2,4.2-4c2.1,0,4,2.1,4,4.2C319.2,614.9,317.2,616.8,315.2,616.8z"/>
				<path class="st2" d="M280.2,567.1c-2.1,0-4-1.9-4-4s1.9-4,4-4s4,1.9,4,4C284.2,565.2,282.2,567.1,280.2,567.1z"/>
				<path class="st2" d="M249.6,536.4c2.1,0,4,1.9,4,4.2c0,2.1-1.9,4-4.2,4c-2.1,0-4-1.9-4-4C245.5,538.4,247.4,536.4,249.6,536.4z"
					/>
				<path class="st2" d="M311.3,597.5c0,2.1-1.9,4-4,4s-4-1.9-4-4.2c0-2.1,1.9-4,4-4C309.4,593.5,311.5,595.5,311.3,597.5z"/>
				<path class="st2" d="M239.4,724.1c2.1,0,4,2.1,4,4.2c0,2.1-2.1,4-4.2,3.9c-2.1,0-4-2.1-3.9-4.2
					C235.2,725.8,237.3,723.9,239.4,724.1z"/>
				<path class="st2" d="M153.6,526.1c-2.1,0-4-2.1-4-4c0-2.1,2.1-4,4-4c2.1,0,4,2.1,4,4C157.6,524.1,155.6,526.1,153.6,526.1z"/>
				<path class="st2" d="M130.8,526.1c0,2.1-2.1,4-4,4c-2.1,0-4-2.1-4-4c0-2.1,2.1-4,4-4C128.9,522,130.8,524,130.8,526.1z"/>
				<path class="st2" d="M326.7,628c0,2.1-1.9,4-4,4s-4-1.9-4-4s1.9-4,4-4S326.7,626,326.7,628z"/>
				<path class="st2" d="M330.9,677.5c2.1,0,4,1.9,4,4s-1.9,4-4,4s-4-1.9-4-4S328.8,677.5,330.9,677.5z"/>
				<path class="st2" d="M299.6,586.1c-1.9,0-4-1.9-4-4c0-1.9,2.1-4,4-4s3.9,1.9,4,3.9C303.6,584,301.7,586.1,299.6,586.1z"/>
				<path class="st2" d="M208.8,716.8c0,1.9-1.9,4-4,4c-1.9,0-4-2.1-4-4s1.9-3.9,4-4C206.7,712.8,208.8,714.7,208.8,716.8z"/>
				<path class="st2" d="M264.9,544.1c-0.1,2.1-1.5,3.9-3.9,4c-2.1,0.1-4-1.5-4-3.9c0-2.1,1.5-3.9,3.9-4
					C263,540.3,264.6,541.8,264.9,544.1z"/>
				<path class="st2" d="M295.6,566.8c0,1.9-1.8,3.9-3.9,3.9c-1.9,0-3.9-1.9-3.9-3.9c0-1.9,1.8-3.9,3.9-3.9
					C293.7,563,295.6,564.9,295.6,566.8z"/>
				<path class="st2" d="M334.5,643.2c0,1.9-1.9,3.9-3.9,3.9c-1.9,0-3.9-1.9-3.9-4c0-1.9,1.9-3.9,3.9-3.9
					C332.5,639.4,334.5,641.2,334.5,643.2z"/>
				<path class="st2" d="M338.5,670.1c0,1.9-1.9,3.9-3.9,3.9c-1.9,0-3.9-1.9-3.9-4c0-1.9,1.9-3.9,3.9-3.9
					C336.5,666.1,338.5,668,338.5,670.1z"/>
				<path class="st2" d="M276.3,547.9c0,1.9-1.8,3.9-3.9,3.9s-3.9-1.9-3.9-3.9c0-1.9,1.9-3.7,3.9-3.7
					C274.5,544.1,276.5,545.9,276.3,547.9z"/>
				<path class="st2" d="M166.2,690.4c0,1.9-1.9,3.9-3.9,3.7c-2.1,0-3.9-1.9-3.7-4c0.1-2.1,1.9-3.7,3.9-3.7
					C164.5,686.7,166.2,688.5,166.2,690.4z"/>
				<path class="st2" d="M88.7,568.5c-1.9,0-3.9-1.9-3.9-3.9c0-1.9,1.9-3.7,3.9-3.7c1.9,0,3.9,1.9,3.9,3.9
					C92.5,566.5,90.6,568.5,88.7,568.5z"/>
				<path class="st2" d="M322.6,601.1c0,1.9-1.9,3.9-3.9,3.9s-3.7-1.9-3.7-3.7c0-1.9,1.9-3.9,3.9-3.9
					C320.7,597.2,322.6,599.3,322.6,601.1z"/>
				<path class="st2" d="M103.8,529.9c0,1.9-1.9,3.9-3.9,3.9c-1.9,0-3.9-1.9-3.9-3.9c0-1.9,1.9-3.7,3.7-3.7
					C101.9,526.2,103.8,528.1,103.8,529.9z"/>
				<path class="st2" d="M119.2,522.2c0,1.9-1.9,3.9-3.9,3.9c-1.9,0-3.7-1.9-3.7-3.9c0-1.9,1.9-3.9,3.9-3.9
					C117.3,518.5,119.2,520.3,119.2,522.2z"/>
				<path class="st2" d="M330.3,616.4c0,1.9-1.8,3.7-3.7,3.9c-1.9,0-3.9-1.9-3.9-3.9c0-1.9,1.9-3.9,3.9-3.9
					C328.5,612.7,330.3,614.5,330.3,616.4z"/>
				<path class="st2" d="M334.9,719.8c0,1.9-1.8,3.9-3.7,3.9c-2.1,0-3.7-1.5-3.9-3.7c-0.1-1.9,1.8-3.9,3.7-3.9
					C333.1,716.1,334.7,717.5,334.9,719.8z"/>
				<path class="st2" d="M338.8,708.2c0,1.9-1.9,3.9-3.9,3.9c-1.9,0-3.7-1.9-3.7-3.9s1.9-3.9,3.9-3.9
					C336.8,704.5,338.8,706.4,338.8,708.2z"/>
				<path class="st2" d="M314.6,586c0,2.1-1.6,3.7-3.7,3.6c-1.9,0-3.6-1.6-3.6-3.7c0-2.1,1.6-3.7,3.7-3.6
					C313.1,582.3,314.7,583.9,314.6,586z"/>
				<path class="st2" d="M146.8,671.4c0,2.1-1.6,3.7-3.7,3.7s-3.6-1.6-3.6-3.7c0-2.1,1.6-3.7,3.7-3.7
					C145.2,667.7,146.8,669.3,146.8,671.4z"/>
				<path class="st2" d="M342.2,696.8c0,1.9-1.6,3.7-3.7,3.7s-3.7-1.6-3.7-3.7c0-1.9,1.8-3.7,3.7-3.7
					C340.5,693.2,342.2,694.8,342.2,696.8z"/>
				<path class="st2" d="M342,658.4c0,1.9-1.6,3.7-3.6,3.7c-2.1,0-3.7-1.6-3.7-3.7c0-1.9,1.8-3.7,3.7-3.7
					C340.2,654.7,342,656.4,342,658.4z"/>
				<path class="st2" d="M319.6,727.5c0,1.9-1.8,3.7-3.7,3.7c-2.1,0-3.7-1.8-3.7-3.7s1.8-3.7,3.7-3.7S319.6,725.6,319.6,727.5z"/>
				<path class="st2" d="M195.6,521.9c0,1.9-1.8,3.7-3.7,3.7s-3.7-1.8-3.7-3.7s1.8-3.6,3.7-3.6C193.8,518.2,195.6,519.8,195.6,521.9
					z"/>
				<path class="st2" d="M250.9,735.5c-1.9,0-3.7-1.6-3.7-3.6c0-2.1,1.6-3.7,3.7-3.7c1.9,0,3.7,1.8,3.7,3.7
					C254.5,733.7,252.9,735.5,250.9,735.5z"/>
				<path class="st2" d="M334.3,635.4c-1.9,0-3.7-1.8-3.7-3.7s1.8-3.7,3.7-3.7s3.6,1.8,3.6,3.7C338,633.7,336.2,635.5,334.3,635.4z"
					/>
				<path class="st2" d="M283.9,555.4c-1.9,0-3.7-1.8-3.7-3.7s1.8-3.7,3.7-3.7s3.6,1.8,3.6,3.7C287.6,553.6,285.8,555.4,283.9,555.4
					z"/>
				<path class="st2" d="M303.3,574.4c-1.9,0-3.6-1.8-3.6-3.6c0-1.9,1.8-3.7,3.7-3.7s3.7,1.8,3.6,3.7
					C307,572.6,305.2,574.4,303.3,574.4z"/>
				<path class="st2" d="M256.7,528.9c0,1.9-1.8,3.7-3.7,3.7s-3.6-1.6-3.7-3.6c0-1.9,1.8-3.7,3.7-3.7
					C255.1,525.2,256.7,526.9,256.7,528.9z"/>
				<path class="st2" d="M346,685.2c0,1.8-1.9,3.7-3.7,3.6c-1.8,0-3.6-1.8-3.6-3.6s1.9-3.7,3.7-3.6C344.2,681.6,346,683.4,346,685.2
					z"/>
				<path class="st2" d="M108.4,625.6c-1.8,0-3.7-1.9-3.6-3.7c0-1.8,1.8-3.6,3.6-3.6c1.8,0,3.7,1.9,3.6,3.7
					C112,623.7,110.2,625.6,108.4,625.6z"/>
				<path class="st2" d="M88.4,537.8c0,1.8-1.8,3.6-3.6,3.6c-1.8,0-3.7-1.8-3.6-3.7c0-1.8,1.9-3.7,3.7-3.6S88.4,536,88.4,537.8z"/>
				<path class="st2" d="M100.5,610.3c-1.8,0-3.6-1.8-3.6-3.6s1.8-3.6,3.6-3.6c1.8,0,3.6,1.8,3.6,3.6
					C104.2,608.4,102.3,610.3,100.5,610.3z"/>
				<path class="st2" d="M268.3,532.7c0,1.9-1.6,3.4-3.6,3.4c-1.9,0-3.6-1.6-3.4-3.6c0-1.9,1.6-3.4,3.6-3.4
					C266.7,529.2,268.3,530.8,268.3,532.7z"/>
				<path class="st2" d="M345.7,646.9c0,1.9-1.6,3.4-3.6,3.4c-1.9,0-3.4-1.6-3.4-3.6s1.6-3.4,3.6-3.4
					C344.1,643.5,345.7,645.2,345.7,646.9z"/>
				<path class="st2" d="M241.7,521.7c1.9,0,3.6,1.6,3.6,3.4c0,1.9-1.6,3.6-3.4,3.6c-1.9,0-3.6-1.6-3.6-3.4
					C238.2,523.4,239.8,521.7,241.7,521.7z"/>
				<path class="st2" d="M88.5,529.9c-1.8,0-3.4-1.6-3.4-3.6c0-1.8,1.6-3.4,3.6-3.4s3.4,1.6,3.4,3.6
					C92.1,528.3,90.5,529.9,88.5,529.9z"/>
				<path class="st2" d="M346.2,677.3c-1.8,0-3.6-1.6-3.6-3.4c0-1.8,1.6-3.6,3.4-3.6s3.6,1.6,3.6,3.4
					C349.7,675.6,348.1,677.3,346.2,677.3z"/>
				<path class="st2" d="M299,555.6c0,1.9-1.6,3.4-3.6,3.4c-1.9,0-3.4-1.6-3.4-3.6s1.6-3.4,3.6-3.4C297.4,552,299,553.6,299,555.6z"
					/>
				<path class="st2" d="M330.3,601.5c1.8,0,3.4,1.6,3.4,3.4s-1.8,3.6-3.6,3.6c-1.8,0-3.4-1.8-3.4-3.6
					C326.9,603.2,328.7,601.5,330.3,601.5z"/>
				<path class="st2" d="M326,589.7c0,1.8-1.6,3.4-3.4,3.4s-3.6-1.8-3.4-3.6c0-1.8,1.8-3.4,3.6-3.4C324.4,586.3,326,588.1,326,589.7
					z"/>
				<path class="st2" d="M142.1,514.8c1.8,0,3.4,1.6,3.4,3.4c0,1.8-1.8,3.6-3.6,3.6s-3.4-1.8-3.4-3.4
					C138.5,516.4,140.3,514.8,142.1,514.8z"/>
				<path class="st2" d="M107.2,518.6c0,1.8-1.8,3.4-3.4,3.4c-1.8,0-3.4-1.6-3.4-3.4s1.8-3.4,3.4-3.4
					C105.6,515.2,107.2,516.9,107.2,518.6z"/>
				<path class="st2" d="M318.1,574.6c0,1.8-1.6,3.4-3.4,3.4s-3.4-1.8-3.4-3.4c0-1.8,1.8-3.4,3.6-3.4
					C316.7,571.1,318.3,572.8,318.1,574.6z"/>
				<path class="st2" d="M338.2,616.7c1.8,0,3.4,1.6,3.4,3.4c0,1.8-1.6,3.4-3.4,3.4s-3.4-1.6-3.4-3.4
					C334.7,618.5,336.4,616.8,338.2,616.7z"/>
				<path class="st2" d="M279.6,536.4c0,1.8-1.8,3.4-3.4,3.4c-1.8,0-3.4-1.6-3.4-3.4c0-1.8,1.8-3.4,3.4-3.4
					C277.9,533,279.6,534.7,279.6,536.4z"/>
				<path class="st2" d="M346.3,715.3c-1.8,0-3.3-1.5-3.3-3.4c0-1.8,1.5-3.3,3.3-3.3s3.3,1.5,3.3,3.4S348.1,715.3,346.3,715.3z"/>
				<path class="st2" d="M196.5,713.2c0,1.8-1.5,3.3-3.4,3.3c-1.8,0-3.3-1.5-3.3-3.3c0-1.9,1.5-3.3,3.4-3.3
					C195,710,196.5,711.3,196.5,713.2z"/>
				<path class="st2" d="M353.3,662.2c0,1.8-1.6,3.3-3.4,3.3s-3.3-1.6-3.3-3.4s1.6-3.3,3.3-3.3C351.7,659,353.3,660.4,353.3,662.2z"
					/>
				<path class="st2" d="M345.7,638.6c-1.8,0-3.3-1.6-3.3-3.3c0-1.8,1.6-3.3,3.4-3.3s3.3,1.5,3.3,3.3S347.5,638.6,345.7,638.6z"/>
				<path class="st2" d="M350.2,703.7c-1.6,0-3.3-1.5-3.3-3.3s1.6-3.4,3.3-3.4c1.6,0,3.3,1.6,3.3,3.3
					C353.4,702.1,351.8,703.7,350.2,703.7z"/>
				<path class="st2" d="M310.3,559.1c0,1.6-1.6,3.3-3.3,3.3c-1.8,0-3.3-1.6-3.3-3.4c0-1.6,1.6-3.3,3.3-3.3
					C308.6,555.9,310.3,557.5,310.3,559.1z"/>
				<path class="st2" d="M119.4,637.1c0,1.6-1.6,3.3-3.3,3.3c-1.6,0-3.3-1.6-3.3-3.3c0-1.6,1.6-3.3,3.3-3.3
					C117.9,633.9,119.4,635.4,119.4,637.1z"/>
				<path class="st2" d="M291,540.1c0,1.6-1.6,3.3-3.3,3.3s-3.3-1.6-3.3-3.3c0-1.6,1.6-3.3,3.3-3.3C289.5,536.9,291,538.4,291,540.1
					z"/>
				<path class="st2" d="M180.2,514.8c1.6,0,3.3,1.6,3.3,3.3c0,1.6-1.5,3.3-3.3,3.3c-1.6,0-3.3-1.6-3.3-3.3
					C177.1,516.3,178.6,514.8,180.2,514.8z"/>
				<path class="st2" d="M262.4,738.9c-1.5,0-3.3-1.6-3.3-3.3c0-1.5,1.6-3.1,3.1-3.3c1.5-0.1,3.3,1.6,3.3,3.1
					C265.6,737.1,263.8,738.8,262.4,738.9z"/>
				<path class="st2" d="M354,685.9c1.8,0,3.1,1.3,3.1,3.1s-1.3,3.1-3.3,3.1c-1.8,0-3-1.3-3-3.1S352.2,685.9,354,685.9z"/>
				<path class="st2" d="M334,590.3c1.8,0,3.1,1.3,3.1,3.1s-1.3,3.1-3.1,3.1s-3-1.3-3-3.1C330.9,591.6,332.2,590.3,334,590.3z"/>
				<path class="st2" d="M227.1,521.5c0-1.8,1.3-3.1,3.1-3.1s3.1,1.3,3.1,3.3c0,1.8-1.3,3-3.1,3
					C228.4,524.6,227.1,523.2,227.1,521.5z"/>
				<path class="st2" d="M95.9,591.5c0,1.8-1.5,3.1-3.1,3.1c-1.8,0-3.1-1.5-3.1-3.1c0-1.8,1.5-3.1,3.1-3.1
					C94.6,588.3,95.9,589.8,95.9,591.5z"/>
				<path class="st2" d="M341.9,605.7c1.8,0,3.1,1.5,3.1,3.1c0,1.8-1.5,3.1-3.1,3.1c-1.8,0-3.1-1.5-3.1-3.1
					C338.8,607,340.1,605.6,341.9,605.7z"/>
				<path class="st2" d="M353.6,647.7c1.8,0,3.1,1.3,3.1,3.1s-1.3,3.1-3.1,3.1s-3.1-1.3-3.1-3.1
					C350.5,649.2,351.8,647.7,353.6,647.7z"/>
				<path class="st2" d="M329.6,578.1c0,1.6-1.5,3.1-3.1,3.1s-3.1-1.5-3.1-3.1s1.5-3.1,3.1-3.1C327.9,575,329.4,576.5,329.6,578.1z"
					/>
				<path class="st2" d="M303.7,735.2c0,1.6-1.5,3.1-3.1,3.1s-3.1-1.5-3.1-3.1s1.5-3.1,3.1-3.1C302.3,732.2,303.7,733.7,303.7,735.2
					z"/>
				<path class="st2" d="M299.1,540.7c1.5,0,3.1,1.5,3.1,3.1s-1.6,3.1-3.1,3.1s-3.1-1.6-3.1-3.1C296,542.4,297.7,540.7,299.1,540.7z
					"/>
				<path class="st2" d="M349.6,620.8c1.6,0,3.1,1.5,3.1,3.1c0,1.5-1.5,3-3,3.1c-1.6,0-3.1-1.5-3.1-3.1
					C346.5,622.5,347.9,621,349.6,620.8z"/>
				<path class="st2" d="M360.7,677.3c0,1.6-1.5,3.1-3.1,3.1c-1.5,0-3-1.5-3.1-3c0-1.6,1.5-3.1,3.1-3.1
					C359.1,674.4,360.6,675.9,360.7,677.3z"/>
				<path class="st2" d="M318.6,559.9c1.5,0,3.1,1.6,3.1,3c0,1.5-1.6,3.1-3,3.1c-1.5,0-3.1-1.6-3.1-3
					C315.5,561.5,317.1,559.9,318.6,559.9z"/>
				<path class="st2" d="M133.5,514.6c0,1.5-1.5,3-3,2.8c-1.5,0-2.8-1.5-2.8-3s1.5-3,3-2.8C132.3,511.7,133.6,513.1,133.5,514.6z"/>
				<path class="st2" d="M360.3,639.2c0,1.5-1.5,3-3,3s-3-1.5-3-3s1.5-3,3-3C358.9,636.3,360.3,637.7,360.3,639.2z"/>
				<path class="st2" d="M364.3,665.9c0,1.5-1.3,3-2.8,3s-3-1.3-3-2.8s1.3-2.8,2.8-2.8C362.8,663.1,364.3,664.4,364.3,665.9z"/>
				<path class="st2" d="M310.7,544.7c1.5,0,3,1.3,3,2.8s-1.3,3-3,2.8c-1.5,0-2.8-1.3-2.8-2.8C307.9,546.2,309.2,544.9,310.7,544.7z
					"/>
				<path class="st2" d="M92.4,512c1.5,0,2.8,1.5,2.8,3s-1.6,2.8-3,2.8c-1.3-0.1-2.8-1.5-2.8-2.8C89.6,513.3,91,512,92.4,512z"/>
				<path class="st2" d="M345.6,594.3c1.3,0,2.8,1.5,2.8,3s-1.6,2.8-3,2.8c-1.3-0.1-2.8-1.5-2.8-2.8
					C342.8,595.8,344.2,594.3,345.6,594.3z"/>
				<path class="st2" d="M337.9,579.2c1.3,0,2.8,1.5,2.8,2.8s-1.5,2.8-3,2.8c-1.3,0-2.8-1.5-2.8-2.8
					C334.9,580.5,336.4,579.2,337.9,579.2z"/>
				<path class="st2" d="M364.6,704.2c0,1.3-1.5,2.8-2.8,2.8s-2.8-1.3-2.8-2.8c0-1.3,1.3-2.8,2.8-3
					C363.1,701.4,364.6,702.9,364.6,704.2z"/>
				<path class="st2" d="M294.4,528.7c0,1.3-1.5,2.8-3,2.8s-2.8-1.6-2.8-3c0.1-1.3,1.5-2.8,2.8-2.8
					C292.9,525.9,294.4,527.4,294.4,528.7z"/>
				<path class="st2" d="M81,546.7c1.6,0,2.8,1.2,2.8,2.7s-1.2,2.7-2.8,2.7c-1.5,0-2.7-1.2-2.7-2.7S79.5,546.7,81,546.7z"/>
				<path class="st2" d="M330,569.5c-1.5,0-2.7-1.3-2.7-2.7c0-1.5,1.3-2.8,2.8-2.7c1.5,0,2.7,1.3,2.7,2.8
					C332.7,568.2,331.3,569.5,330,569.5z"/>
				<path class="st2" d="M353.3,615c-1.5,0-2.7-1.3-2.7-2.8s1.3-2.7,2.8-2.7s2.7,1.3,2.7,2.8S354.8,615,353.3,615z"/>
				<path class="st2" d="M277.2,524.9c0-1.5,1.3-2.7,2.8-2.7s2.7,1.3,2.7,2.8s-1.3,2.7-2.8,2.7C278.4,527.5,277.2,526.2,277.2,524.9
					z"/>
				<path class="st2" d="M215.9,517.6c0-1.5,1.3-2.7,2.8-2.7s2.7,1.3,2.7,2.8s-1.3,2.7-2.8,2.7C217.1,520.3,215.9,518.9,215.9,517.6
					z"/>
				<path class="st2" d="M368.1,692.6c0,1.5-1.2,2.7-2.7,2.8c-1.5,0-2.8-1.3-2.8-2.7c0-1.5,1.3-2.7,2.7-2.7
					C366.8,690,368.1,691.1,368.1,692.6z"/>
				<path class="st2" d="M79.6,522.6c0,1.5-1.3,2.7-2.8,2.7s-2.7-1.3-2.7-2.8c0-1.3,1.3-2.7,2.7-2.7
					C78.4,519.8,79.6,521.2,79.6,522.6z"/>
				<path class="st2" d="M365.2,651.7c1.5,0,2.7,1.3,2.7,2.7c0,1.5-1.3,2.7-2.8,2.7c-1.3,0-2.7-1.3-2.7-2.7
					C362.5,653,363.8,651.7,365.2,651.7z"/>
				<path class="st2" d="M300.3,532.4c0-1.3,1.5-2.7,2.8-2.7c1.3,0.1,2.7,1.5,2.5,2.8c-0.1,1.3-1.5,2.5-2.7,2.5
					C301.7,535.1,300.2,533.6,300.3,532.4z"/>
				<path class="st2" d="M361.3,630.5c-1.3,0-2.7-1.3-2.7-2.7s1.3-2.7,2.7-2.7c1.2,0,2.7,1.3,2.7,2.7
					C364,629,362.5,630.5,361.3,630.5z"/>
				<path class="st2" d="M171.6,514.2c0,1.3-1.5,2.7-2.7,2.7c-1.3,0-2.7-1.3-2.7-2.7c0-1.3,1.3-2.7,2.7-2.7
					C170.1,511.5,171.6,513,171.6,514.2z"/>
				<path class="st2" d="M342.8,726.1c-1.3,0-2.7-1.5-2.7-2.7c0-1.3,1.3-2.7,2.7-2.7s2.7,1.3,2.7,2.7
					C345.4,724.8,343.9,726.1,342.8,726.1z"/>
				<path class="st2" d="M322.3,554.1c-1.3,0-2.7-1.2-2.7-2.5c-0.1-1.3,1.3-2.7,2.7-2.7c1.3,0,2.7,1.2,2.7,2.5
					C325,552.7,323.6,554.1,322.3,554.1z"/>
				<path class="st2" d="M369.3,678.7c1.3,0,2.5,1.2,2.5,2.5c0,1.5-1.2,2.5-2.7,2.5s-2.5-1.2-2.5-2.7
					C366.6,679.7,367.8,678.7,369.3,678.7z"/>
				<path class="st2" d="M268.4,518.8c1.2,0,2.5,1.3,2.5,2.7c0,1.2-1.3,2.5-2.5,2.4c-1.2,0-2.5-1.3-2.5-2.7
					C265.9,520,267.3,518.6,268.4,518.8z"/>
				<path class="st2" d="M360.6,715.8c0,1.2-1.3,2.5-2.5,2.5s-2.5-1.3-2.5-2.5s1.3-2.5,2.5-2.5C359.2,713.4,360.4,714.6,360.6,715.8
					z"/>
				<path class="st2" d="M352,585.7c0,1.2-1.2,2.5-2.5,2.5c-1.2,0-2.5-1.2-2.5-2.5c0-1.2,1.3-2.5,2.5-2.5
					C350.6,583.3,352,584.5,352,585.7z"/>
				<path class="st2" d="M126.5,652.3c0,1.2-1.2,2.5-2.5,2.5c-1.2,0-2.5-1.2-2.5-2.5c0-1.2,1.2-2.5,2.5-2.5
					C125.2,649.8,126.5,651.1,126.5,652.3z"/>
				<path class="st2" d="M368.9,640.6c1.2,0,2.5,1.3,2.5,2.5s-1.3,2.5-2.5,2.5s-2.5-1.3-2.5-2.5
					C366.3,641.7,367.5,640.4,368.9,640.6z"/>
				<path class="st2" d="M273.9,741.7c-1.2,0-2.5-1.2-2.5-2.5c0-1.2,1.2-2.5,2.5-2.5c1.2,0,2.4,1.2,2.5,2.4
					C276.5,740.4,275.1,741.7,273.9,741.7z"/>
				<path class="st2" d="M344.1,570.3c0,1.2-1.2,2.5-2.5,2.5c-1.2,0-2.5-1.3-2.5-2.5s1.2-2.4,2.5-2.4
					C342.8,567.9,344.1,569.1,344.1,570.3z"/>
				<path class="st2" d="M357,603.5c-1.2,0-2.5-1.2-2.5-2.5c0-1.2,1.2-2.5,2.5-2.5c1.2,0,2.4,1.2,2.5,2.4
					C359.5,602.1,358.3,603.3,357,603.5z"/>
				<path class="st2" d="M85.1,573.5c1.3,0,2.5,1.3,2.5,2.5s-1.2,2.4-2.5,2.4c-1.2,0-2.5-1.2-2.5-2.5
					C82.7,574.7,83.9,573.5,85.1,573.5z"/>
				<path class="st2" d="M327.3,733.7c-1,0-2.4-1.2-2.5-2.4c0-1,1.2-2.4,2.4-2.5c1.2-0.1,2.5,1.2,2.5,2.4
					C329.9,732.4,328.5,733.7,327.3,733.7z"/>
				<path class="st2" d="M317.1,536.1c0,1.2-1.3,2.4-2.4,2.5c-1,0-2.4-1.2-2.5-2.4c0-1.2,1.3-2.5,2.5-2.5
					C315.8,533.6,317.1,535,317.1,536.1z"/>
				<path class="st2" d="M375.4,669.6c0,1.2-1.3,2.4-2.5,2.5c-1.2,0-2.5-1.3-2.5-2.5s1.3-2.4,2.5-2.4
					C374.2,667.3,375.4,668.4,375.4,669.6z"/>
				<path class="st2" d="M181.8,711.8c-1.3,0-2.4-1-2.4-2.4c0-1.2,1-2.4,2.4-2.4c1.3,0,2.4,1,2.4,2.4S183,711.8,181.8,711.8z"/>
				<path class="st2" d="M364.9,618.5c-1.2,0-2.4-1-2.4-2.4c0-1.3,1-2.4,2.4-2.4s2.4,1,2.4,2.4C367.1,617.4,366,618.5,364.9,618.5z"
					/>
				<path class="st2" d="M336.1,555.1c0,1.2-1.2,2.4-2.4,2.4s-2.2-1.2-2.2-2.4s1.2-2.4,2.4-2.4S336.1,553.9,336.1,555.1z"/>
				<path class="st2" d="M121.3,510.8c0,1.2-1.2,2.4-2.4,2.4c-1.2,0-2.4-1.2-2.4-2.4c0-1.2,1.2-2.4,2.4-2.4
					C120.3,508.4,121.3,509.6,121.3,510.8z"/>
				<path class="st2" d="M379.2,696.5c0,1-1.3,2.2-2.4,2.2s-2.2-1.3-2.2-2.4s1.3-2.2,2.2-2.2C378.1,694.1,379.2,695.4,379.2,696.5z"
					/>
				<path class="st2" d="M376.6,656c1,0,2.2,1.2,2.2,2.2s-1.2,2.2-2.2,2.2s-2.2-1.2-2.4-2.2C374.4,657.2,375.5,656,376.6,656z"/>
				<path class="st2" d="M374.9,631.4c0,1-1.2,2.2-2.2,2.4c-1,0-2.2-1.2-2.2-2.2s1.2-2.4,2.2-2.4
					C373.6,629.1,374.8,630.3,374.9,631.4z"/>
				<path class="st2" d="M209.3,514c0,1.2-0.9,2.2-2.1,2.2c-1.3,0-2.2-0.9-2.2-2.2c0-1.2,0.9-2.1,2.1-2.1
					C208.4,511.8,209.3,512.7,209.3,514z"/>
				<path class="st2" d="M328.2,540c0,1.2-0.9,2.1-2.2,2.1c-1.2,0-2.2-1-2.1-2.2c0-1.2,1-2.1,2.2-2.1
					C327.3,537.8,328.2,538.7,328.2,540z"/>
				<path class="st2" d="M375.2,708c0,1-1.2,2.1-2.1,2.1c-1,0-2.1-1.2-2.1-2.2s1.2-2.1,2.1-2.1C374.2,706,375.2,707,375.2,708z"/>
				<path class="st2" d="M355.1,574.1c0,1-1,2.1-2.1,2.2c-1,0-2.1-1.2-2.1-2.1c0-1,1-2.1,2.1-2.1C353.9,572,355.1,573.1,355.1,574.1
					z"/>
				<path class="st2" d="M254.8,517.3c0-1,1.2-2.1,2.2-2.1c1,0.1,2.1,1.3,2.1,2.2c-0.1,1-1.2,2.1-2.2,1.9
					C255.8,519.5,254.8,518.3,254.8,517.3z"/>
				<path class="st2" d="M362.9,589.4c0,1-1.2,2.1-2.2,2.1s-2.1-1.2-2.1-2.2s1.2-2.1,2.1-2.1C361.9,587.3,362.9,588.3,362.9,589.4z"
					/>
				<path class="st2" d="M382.7,685.1c0,1-1,2.1-2.1,2.1c-1,0-2.2-1.2-2.1-2.1c0-1,1.2-2.1,2.1-2.1C381.6,683,382.7,684,382.7,685.1
					z"/>
				<path class="st2" d="M368.6,606.6c-1.2,0-1.9-0.7-1.9-2.1c0-1.2,0.7-1.9,1.9-1.9c1.2,0,1.9,0.7,1.9,2.1
					C370.5,605.9,369.8,606.6,368.6,606.6z"/>
				<path class="st2" d="M347.2,559c0,1.2-0.7,1.9-2.1,1.9c-1.2,0-1.9-0.7-1.9-1.9s0.7-1.9,2.1-1.9
					C346.5,556.9,347.2,557.8,347.2,559z"/>
				<path class="st2" d="M157.3,508.4c1,0,1.9,1,1.9,2.1c0,0.9-1,1.9-2.1,1.9s-1.9-1-1.9-2.1C155.3,509.3,156.3,508.4,157.3,508.4z"
					/>
				<path class="st2" d="M82.7,510.9c0,1-1,1.9-1.9,1.9s-1.9-1-1.9-1.9c0-1,1-1.9,1.9-1.9S82.7,510,82.7,510.9z"/>
				<path class="st2" d="M75.3,534.1c0,0.9-1,1.9-1.9,1.9c-1,0-2.1-1-1.9-2.1c0-0.9,1-1.9,1.9-1.9S75.3,533,75.3,534.1z"/>
				<path class="st2" d="M382.4,646.6c0,1-1,2.1-1.9,1.9c-0.9,0-1.9-1-1.9-1.9c0-1,1-2.1,1.9-1.9
					C381.3,644.7,382.4,645.6,382.4,646.6z"/>
				<path class="st2" d="M378.4,619.9c0,0.9-1,1.9-1.9,1.9s-1.9-1-1.9-1.9s1-1.9,1.9-1.9C377.3,618.2,378.4,619.1,378.4,619.9z"/>
				<path class="st2" d="M152.9,686.5c0,0.9-1,1.9-1.9,1.9s-1.9-1-1.9-1.9s1-1.9,1.9-1.9S152.9,685.7,152.9,686.5z"/>
				<path class="st2" d="M384.4,675.4c-0.9,0-1.9-1-1.9-1.9s1-1.9,1.9-1.9s1.9,1,1.9,1.9C386.4,674.4,385.3,675.3,384.4,675.4z"/>
				<path class="st2" d="M337.6,541.8c0.9,0,1.9,1,1.9,1.9s-1,1.9-1.9,1.9s-1.9-1-1.9-1.9C335.8,542.7,336.7,541.8,337.6,541.8z"/>
				<path class="st2" d="M318.1,526.5c-0.9,0-1.8-0.9-1.6-1.8c0-0.9,0.9-1.8,1.8-1.8s1.8,0.9,1.6,1.9
					C319.9,525.8,319,526.5,318.1,526.5z"/>
				<path class="st2" d="M306.7,519.1c0.9,0,1.8,0.7,1.8,1.8c0,0.9-0.7,1.8-1.8,1.8c-0.9,0-1.8-0.9-1.8-1.8
					C305.1,520,305.8,519.1,306.7,519.1z"/>
				<path class="st2" d="M389.9,662.1c0,0.7-1,1.8-1.8,1.8c-0.7,0-1.8-1-1.8-1.8s1-1.8,1.8-1.6C389,660.3,389.9,661.3,389.9,662.1z"
					/>
				<path class="st2" d="M384.1,636.9c-0.7,0-1.8-1-1.6-1.8c0-0.7,1-1.8,1.8-1.6c0.7,0,1.8,1,1.6,1.8
					C385.9,636,384.9,637,384.1,636.9z"/>
				<path class="st2" d="M366.3,578c0,0.7-0.9,1.8-1.8,1.8c-0.7,0-1.8-0.9-1.8-1.8c0-0.7,0.9-1.8,1.8-1.8
					C365.3,576.2,366.3,577.2,366.3,578z"/>
				<path class="st2" d="M329.9,526.6c0.7,0,1.6,1,1.6,1.8s-1,1.6-1.8,1.6s-1.6-1-1.6-1.8S329.1,526.5,329.9,526.6z"/>
				<path class="st2" d="M109.3,506.9c0,0.7-0.9,1.8-1.6,1.8s-1.6-0.9-1.8-1.6c0-0.7,0.9-1.8,1.6-1.8
					C108.3,505.3,109.3,506.2,109.3,506.9z"/>
				<path class="st2" d="M374.1,593.1c0,0.7-0.9,1.8-1.8,1.8c-0.7,0-1.8-1-1.6-1.8c0-0.7,0.9-1.6,1.6-1.6
					C373.2,591.5,374.1,592.4,374.1,593.1z"/>
				<path class="st2" d="M356.8,564.5c-0.7,0-1.8-0.9-1.6-1.8c0-0.7,1-1.8,1.8-1.6c0.7,0,1.6,0.9,1.6,1.6
					C358.5,563.4,357.6,564.5,356.8,564.5z"/>
				<path class="st2" d="M380,606.7c0.7,0,1.6,0.9,1.6,1.6s-0.9,1.5-1.5,1.5c-0.7,0-1.6-0.9-1.6-1.6
					C378.5,607.6,379.2,606.9,380,606.7z"/>
				<path class="st2" d="M246.9,513.6c0,0.7-0.9,1.6-1.6,1.6c-0.7,0-1.5-0.9-1.5-1.6s0.9-1.6,1.6-1.6
					C246,512.1,246.9,513,246.9,513.6z"/>
				<path class="st2" d="M350.6,547.4c0,0.7-0.9,1.5-1.5,1.5c-0.7,0-1.6-0.9-1.6-1.6s0.9-1.6,1.6-1.5
					C349.7,545.8,350.6,546.7,350.6,547.4z"/>
				<path class="st2" d="M313.7,739c0,0.7-0.9,1.6-1.6,1.6s-1.5-0.9-1.5-1.5c0-0.7,0.9-1.6,1.6-1.6
					C312.8,737.6,313.7,738.3,313.7,739z"/>
				<path class="st2" d="M392.1,690.1c-0.7,0-1.5-0.9-1.5-1.5c0-0.7,0.9-1.5,1.6-1.5s1.5,0.9,1.5,1.5
					C393.6,689.5,392.9,690.2,392.1,690.1z"/>
				<path class="st2" d="M389.9,700.3c0,0.7-0.7,1.5-1.5,1.5s-1.5-0.7-1.5-1.5s0.7-1.5,1.5-1.5C389.2,698.7,389.9,699.6,389.9,700.3
					z"/>
				<path class="st2" d="M295.1,515.5c0.7,0,1.5,0.7,1.5,1.5s-0.7,1.5-1.5,1.5s-1.5-0.7-1.5-1.5S294.4,515.5,295.1,515.5z"/>
				<path class="st2" d="M393.2,650.5c0,0.7-0.7,1.3-1.3,1.3c-0.7,0-1.3-0.6-1.3-1.3s0.7-1.5,1.5-1.5
					C392.6,649,393.2,649.8,393.2,650.5z"/>
				<path class="st2" d="M195.6,511.7c-0.7,0-1.3-0.7-1.3-1.5c0-0.6,0.7-1.3,1.3-1.3c0.7,0,1.5,0.7,1.3,1.3
					C197.1,510.9,196.4,511.7,195.6,511.7z"/>
				<path class="st2" d="M389.2,623.7c0,0.7-0.7,1.3-1.5,1.3c-0.6,0-1.3-0.7-1.3-1.3c0-0.7,0.7-1.5,1.3-1.5
					C388.4,622.2,389.2,622.9,389.2,623.7z"/>
				<path class="st2" d="M341.1,533.5c-0.6,0-1.3-0.9-1.3-1.3c0-0.6,0.9-1.3,1.5-1.2c0.7,0.1,1.2,0.6,1.2,1.3
					C342.6,532.7,341.7,533.5,341.1,533.5z"/>
				<path class="st2" d="M397.3,677.3c0,0.6-0.9,1.3-1.3,1.3c-0.6,0-1.3-0.9-1.2-1.5c0.1-0.7,0.6-1.2,1.3-1.2
					C396.6,675.9,397.3,676.8,397.3,677.3z"/>
				<path class="st2" d="M131.7,666.5c0.7,0,1.3,0.4,1.2,1.2c0,0.7-0.4,1.2-1.2,1.2c-0.7,0-1.2-0.4-1.2-1.2
					C130.5,667.1,131.1,666.5,131.7,666.5z"/>
				<path class="st2" d="M370.5,719.5c0,0.6-0.6,1.2-1.2,1.2c-0.7,0-1-0.4-1.2-1.2c0-0.6,0.6-1.2,1.2-1.2
					C370,718.3,370.6,718.9,370.5,719.5z"/>
				<path class="st2" d="M147,506.8c0,0.6-0.6,1.2-1.2,1.2c-0.7,0-1-0.4-1.2-1.2c0-0.6,0.6-1.2,1.2-1.2
					C146.5,505.6,147.1,506.2,147,506.8z"/>
				<path class="st2" d="M354.2,728.5c-0.6,0-1.2-0.6-1.2-1.2c0-0.6,0.6-1.2,1.2-1.2c0.7,0,1,0.4,1.2,1.2
					C355.4,727.9,354.8,728.5,354.2,728.5z"/>
				<path class="st2" d="M78.6,560.9c0,0.6-0.6,1.2-1.2,1.2c-0.7,0-1-0.4-1.2-1.2c0-0.6,0.6-1.2,1.2-1.2
					C78,559.6,78.6,560.2,78.6,560.9z"/>
				<path class="st2" d="M368.3,567.6c-0.6,0-1.2-0.6-1.2-1.2c0-0.7,0.4-1,1.2-1.2c0.6,0,1.2,0.6,1.2,1.2S368.9,567.6,368.3,567.6z"
					/>
				<path class="st2" d="M377.2,581.5c0,0.6-0.6,1.2-1.2,1.2s-1.2-0.6-1.2-1.2c0-0.7,0.4-1,1.2-1.2
					C376.6,580.3,377.2,580.9,377.2,581.5z"/>
				<path class="st2" d="M360.6,549.5c0.6,0.7,1.2,1.2,1.2,1.5c0,0.4-0.6,1-1,1.2c-0.3,0-1-0.6-1-1
					C359.5,550.8,360.1,550.2,360.6,549.5z"/>
				<path class="st2" d="M385.3,597c-0.7,0.4-1.2,1-1.6,1s-1-0.7-1-1c0.1-0.4,0.7-1,1.2-1C384.3,595.9,384.7,596.5,385.3,597z"/>
				<path class="st2" d="M395.6,640.6c-0.4-0.7-1-1.2-1-1.6c0-0.4,0.6-0.7,1-1.2c0.4,0.4,1,0.7,1,1.2
					C396.7,639.4,396.2,639.8,395.6,640.6z"/>
				<path class="st2" d="M286.7,743.3c-0.4,0.3-0.7,0.7-1.2,0.7c-0.6,0.1-1-0.3-1-1c0-0.6,0.4-1,1-1c0.4,0.1,0.7,0.4,1.2,0.7
					C286.7,743.1,286.7,743.2,286.7,743.3z"/>
				<path class="st2" d="M170.4,704.5c0.3,0.4,0.7,0.7,0.7,1.2c0.1,0.6-0.3,1-1,1c-0.6,0-1-0.4-1-1c0-0.4,0.4-0.7,0.7-1.2
					C170.1,704.5,170.3,704.5,170.4,704.5z"/>
				<path class="st2" d="M399.7,664.4c0.3,0.4,0.7,0.7,0.7,1.2c0.1,0.6-0.3,1-0.9,1s-1-0.3-1-0.9c0-0.4,0.4-0.7,0.7-1.2
					C399.6,664.4,399.6,664.4,399.7,664.4z"/>
				<path class="st2" d="M283.9,512.3c0.3,0.4,0.7,0.7,0.7,1.2c0.1,0.6-0.3,1-0.9,1s-1-0.3-1-0.9c0-0.4,0.4-0.7,0.7-1.2
					C283.7,512.3,283.9,512.3,283.9,512.3z"/>
				<path class="st2" d="M392.9,612.2c-0.6,0.4-0.9,0.9-1.3,0.9c-0.3,0-0.9-0.6-0.9-0.9c0-0.4,0.6-0.9,0.9-1
					C392,611.2,392.3,611.8,392.9,612.2z"/>
				<path class="st2" d="M352.7,534.5c0.4,0.6,0.9,0.9,1,1.3c0,0.3-0.6,0.9-0.9,0.9c-0.4,0-0.9-0.4-1-0.9
					C351.8,535.5,352.4,535.2,352.7,534.5z"/>
				<path class="st2" d="M384.9,712.8c-0.4-0.6-0.9-0.9-0.9-1.2s0.4-0.7,0.7-0.7c0.1,0,0.7,0.4,0.7,0.7
					C385.6,711.9,385.2,712.2,384.9,712.8z"/>
				<path class="st2" d="M97,503.4c-0.4,0.3-0.7,0.7-1,0.7s-0.4-0.4-0.7-0.7c0.3-0.3,0.6-0.7,0.9-0.7
					C96.4,502.6,96.7,503.1,97,503.4z"/>
				<path class="st2" d="M403.4,653.2c0.3,0.4,0.7,0.7,0.7,1s-0.4,0.7-0.7,0.7c-0.3,0-0.7-0.4-0.7-0.7S403.1,653.6,403.4,653.2z"/>
				<path class="st2" d="M334.5,516.9c-0.4,0.3-0.7,0.7-1,0.7s-0.4-0.4-0.7-0.7c0.3-0.3,0.6-0.7,0.9-0.7
					C333.7,516.1,334,516.6,334.5,516.9z"/>
				<path class="st2" d="M70.1,507.4c-0.4,0.3-0.7,0.7-1,0.6c-0.3,0-0.6-0.3-0.6-0.6c0-0.1,0.3-0.6,0.6-0.6
					C69.4,506.8,69.7,507.1,70.1,507.4z"/>
				<path class="st2" d="M404.6,692.5c-0.6,0.3-0.7,0.6-1,0.6s-0.4-0.4-0.6-0.6c0-0.1,0.4-0.4,0.6-0.4
					C403.9,691.9,404.2,692.2,404.6,692.5z"/>
				<path class="st2" d="M400.5,627.4c-0.6,0.3-0.7,0.6-1,0.6s-0.4-0.4-0.6-0.6c0-0.1,0.4-0.4,0.6-0.4
					C399.7,626.8,399.9,627.1,400.5,627.4z"/>
				<path class="st2" d="M379.8,571.1c-0.3-0.4-0.7-0.7-0.6-0.9c0-0.3,0.3-0.6,0.6-0.6c0.1,0,0.6,0.3,0.6,0.6
					C380.4,570.3,380.1,570.5,379.8,571.1z"/>
				<path class="st2" d="M66.6,518.8c-0.6,0.3-0.9,0.6-1,0.6c-0.3,0-0.4-0.4-0.6-0.7c0-0.1,0.4-0.4,0.6-0.4
					C65.8,518.2,66.1,518.5,66.6,518.8z"/>
			</g>
		</g>
	</g>
</g>
</svg>
