<?xml version="1.0" encoding="utf-8"?>
<!-- Generator: Adobe Illustrator 24.2.3, SVG Export Plug-In . SVG Version: 6.00 Build 0)  -->
<svg version="1.1" id="Triangulo" xmlns="http://www.w3.org/2000/svg" xmlns:xlink="http://www.w3.org/1999/xlink" x="0px" y="0px"
	 viewBox="0 0 1080 1080" style="enable-background:new 0 0 1080 1080;" xml:space="preserve">
<style type="text/css">
	.st0{fill:none;stroke:#231F20;stroke-width:2.5315;stroke-miterlimit:10;}
</style>
<path class="st0" d="M703.2,286.9c-108.3-1.3-216.6,1-325-0.4c-57.4-0.7-108.7,1.2-165.5,9c-42.6,5.9-47.2,16.6-29.4,56.7
	c20.6,46.1,38,94.2,53.5,142.1c24.5,75.4,65.1,144.6,92.3,219.7c13.5,37.2,32.2,72.4,51,107.1c8.6,16,25.4,34.9,23.7,54.1
	c94-125,163.9-271.3,268.3-389.1c48.2-54.4,101.8-104.7,144-164.2c17.7-24.8,26.8-42.6-10.4-44.3
	C771.4,276.1,737.5,287.4,703.2,286.9z"/>
</svg>
