<?xml version="1.0" encoding="utf-8"?>
<!-- Generator: Adobe Illustrator 24.2.3, SVG Export Plug-In . SVG Version: 6.00 Build 0)  -->
<svg version="1.1" id="Flor" xmlns="http://www.w3.org/2000/svg" xmlns:xlink="http://www.w3.org/1999/xlink" x="0px" y="0px"
	 viewBox="0 0 1080 1080" style="enable-background:new 0 0 1080 1080;" xml:space="preserve">
<style type="text/css">
	.st0{fill:#151515;}
	.st1{fill:#FF8500;}
</style>
<g>
	<path class="st0" d="M472.3,98.8c3.1,1.9,4.2,43.8,11.7,39.2c19.5-12,39.4-17.2,64.3-21c14-2.2-0.9,22-8.9,34.3
		c-12.5,19-32.5,2.3-43.5,10.5c-26.8,20-10.4,77-5.1,105.2c7.4-43.6,107.5-53.4,59.7-20.9c-16.6,11.2-49.7,25.5-53.8,48.3
		c-3.6,20.6,21.3,71,23.3,65.4c3.8-10.4,8-6.7,13.1-16.3c8.2-15.5,35.4,5,14.4,13.1c-7.1,2.8-7.1,11.1-12.5,15.6
		c-9.3,7.7,7,51.6,15.3,63.5c38.2,61,34.4,27.4,42.6,46.2c-27.4,18.8-32.1,4.1-40.8-14.9c-11.4-24.9-12.8-16.6-23.6-43.5
		c-0.3-9.6-3.6-20.6-7.9-30.1c-1.9-4.5-12-18.8-14.4-21.3c-5.3-5.3-28.6-7.9-37.1-10.4c-16.3-4.8,14.2-26.6,33-1.8
		c-4.2-16.2-11.4-51.6-21.7-64.9c-14.2-18.1-48.7-17.1-68.9-27c-30.2-14.9-23.9-39-3.8-44.8c21.2-6.1,63.9,23.6,73.4,42.7
		c-7.9-17.9-12.5-62.1-14.4-81.8c-2.8-27.1-22.9-29-46-41.9c-45.1-25.1-6.3-51.2,14.4-39.5c2.3,1.3,23,40.3,36.3,37.6
		C471.5,125.7,463.4,93.2,472.3,98.8z"/>
	<path class="st1" d="M471.1,103.4c-10.8,11.4-50.9-40.7-54-56c13-0.9,28.6-11.4,40.6-5.3c16.8,8.6,4.2,17.7,9.6,29.6
		c6-10.9,19.8-43.6,37.1-35.3c17.5,8.3,3.9,23.9-0.7,33c-3.8,7.3-19.8,45.4-33.1,30.5"/>
</g>
</svg>
