<?xml version="1.0" encoding="utf-8"?>
<!-- Generator: Adobe Illustrator 24.2.3, SVG Export Plug-In . SVG Version: 6.00 Build 0)  -->
<svg version="1.1" id="Maceta_x5F_1" xmlns="http://www.w3.org/2000/svg" xmlns:xlink="http://www.w3.org/1999/xlink" x="0px"
	 y="0px" viewBox="0 0 1080 1080" style="enable-background:new 0 0 1080 1080;" xml:space="preserve">
<style type="text/css">
	.st0{fill:#382716;}
	.st1{fill:none;stroke:#FFFFFF;stroke-width:3.2065;stroke-miterlimit:10;}
</style>
<path class="st0" d="M763.7,866.5c4.2-13.7,7.4-29,4.2-43.2c-1.2-5-4.2-15.3-9.3-17.7c-3.5-1.6-10.5-0.1-14.3,0
	c-4.4,0.1-8.8,0.3-13.1,0.1c-65.9-3.1-132-0.4-198,3.2c-65.6,3.6-131.3,8-197.1,8.2c-29,0.1-35,6.3-28,35.3
	c6,24.4,16.8,48.4,24.9,72.2c27.7,81.5,105.2,105.2,185.9,110c36.2,2.2,90.4-4.8,123.1-21.6c19.8-10.2,35.6-29.6,51.8-44.5
	C725.5,939.9,750.9,907.4,763.7,866.5z"/>
<path class="st1" d="M764.5,833.7c7.1-17.4,13.7-36.6,14.3-55.6c0.1-7.4,0.4-18.5-7.7-20.7c-6.1-1.6-19.1,0.4-26,0.6
	c-11.7,0.1-23.3,0.4-34.9,0.9c-22.9,0.7-45.8,1.8-68.7,2.6c-45.5,1.8-91.2,2.9-136.7,1.2c-36.3-1.5-72.6-2.5-109-4.7
	c-20.9-1.3-57.5-11.4-77.6-4.2c-9,3.2-17.7,4.4-25.5,9.6c13.3,49.9,28.9,103.3,62.4,145.3c22.3,28,64.2,58.1,99.8,66.8
	c72.2,17.9,121.2,7.6,182.8-26C688.3,921.7,741.6,889,764.5,833.7z"/>
</svg>
