<?xml version="1.0" encoding="utf-8"?>
<!-- Generator: Adobe Illustrator 24.2.3, SVG Export Plug-In . SVG Version: 6.00 Build 0)  -->
<svg version="1.1" id="Mano_x5F_1" xmlns="http://www.w3.org/2000/svg" xmlns:xlink="http://www.w3.org/1999/xlink" x="0px" y="0px"
	 viewBox="0 0 1080 1080" style="enable-background:new 0 0 1080 1080;" xml:space="preserve">
<style type="text/css">
	.st0{fill:#151515;}
	.st1{clip-path:url(#SVGID_3_);}
	.st2{fill-rule:evenodd;clip-rule:evenodd;fill:#E9EBE0;}
</style>
<g>
	<g>
		<path id="SVGID_1_" class="st0" d="M217,734.4c18.2,39.5,88.6,212.4,62.7,213.3c-26,0.9-109.4,110.4-130.1,72.2
			c-20.7-38.2-108.8-397.7-83.3-469.2s-12-67.7-8.6-122.2c3.4-54.6,21.7-303.6,40.4-287.4s-2.8,131.7,10.8,129.4
			s73.8-140.6,106.9-137.1c33.3,3.5,21.6,6.4,3.4,24.5s-64.5,87.8-62.1,101.2c2.3,13.6,111.6-95.1,144.3-89.7
			s-100.8,51.4-99.8,120.1c0,0,108.2-98.3,140.6-99.3s30.9,11.2,9.3,26.3c-21.6,15-124.6,74.3-131.1,110.7
			c-6.6,36.5-11.1,58.8,12.7,29.5c23.6-29.3,78.2-68.7,67.8-48.3c-10.4,20.4-62.1,101.2-82.7,163.5s-50.2,111.3-25.5,187
			C217,734.4,217,734.4,217,734.4z"/>
	</g>
	<g>
		<g>
			<defs>
				<path id="SVGID_2_" d="M217,734.4c18.2,39.5,88.6,212.4,62.7,213.3c-26,0.9-109.4,110.4-130.1,72.2
					c-20.7-38.2-108.8-397.7-83.3-469.2s-12-67.7-8.6-122.2c3.4-54.6,21.7-303.6,40.4-287.4s-2.8,131.7,10.8,129.4
					s73.8-140.6,106.9-137.1c33.3,3.5,21.6,6.4,3.4,24.5s-64.5,87.8-62.1,101.2c2.3,13.6,111.6-95.1,144.3-89.7
					s-100.8,51.4-99.8,120.1c0,0,108.2-98.3,140.6-99.3s30.9,11.2,9.3,26.3c-21.6,15-124.6,74.3-131.1,110.7
					c-6.6,36.5-11.1,58.8,12.7,29.5c23.6-29.3,78.2-68.7,67.8-48.3c-10.4,20.4-62.1,101.2-82.7,163.5s-50.2,111.3-25.5,187
					C217,734.4,217,734.4,217,734.4z"/>
			</defs>
			<clipPath id="SVGID_3_">
				<use xlink:href="#SVGID_2_"  style="overflow:visible;"/>
			</clipPath>
			<g class="st1">
				<path class="st2" d="M31.7,1021.6c-2.5,2.9-5.1,4.7-8.9,3.6c-3.6-1-5.4-3.6-5.8-7.6c-2.5,2.8-5.1,4.4-8.8,3.4
					c-3.5-0.9-5.4-3.4-6.3-7c-2.6,2.5-5.5,3.5-8.9,2.3c-3.2-1-5.1-3.5-5.8-7.1c-2.8,2.3-5.7,3.5-9,2.2c-3.4-1.3-5.1-3.8-5.7-7.4
					c-0.3,0.1-0.7,0.3-1,0.6c-3.2,2.9-7.1,2.5-9.6,0.4c-3.5-2.9-4.2-6.7-2-10.4c0.7-1,1.8-1.9,2.8-2.8c0.4-0.4,1.2-0.6,1.9-0.9
					c-0.7-1.2-1.6-2.3-2.3-3.5c-1.9,0.6-3.6,1.2-5.7,1.9c1.9,2.3,2.8,5.1,1,8c-1,1.6-2.3,2.9-4.4,3.4c-3.5,0.9-7.3-1.5-8.2-5
					c-0.9-3.8,1.5-7.3,5.5-8.3c-1.2-1.6-2.3-3.2-3.6-5.1c-0.1,0-0.6,0-0.9,0.3c-5.5,3.2-12.4-0.4-13.3-6.7c0-0.3-0.1-0.4-0.1-0.9
					c-2.6,2.2-5.4,3.1-8.5,1.5c-1.9-1-3.1-2.5-3.8-4.4c-1.2-3.1,0.6-8,5.8-9.2c-1.2-1.8-2.3-3.5-3.6-5.5c-2.9,2-6.4,2.5-9.8,0.3
					c-1.6-1.2-2.8-2.8-3.4-4.7c-1.2-3.9,0.9-8.8,6.6-10.4c-0.9-1.6-1.8-3.1-2.8-4.8c-2.9,2-6,2.9-9.5,1.2c-3.4-1.9-4.7-4.8-4.5-8.9
					c-3.4,3.9-7,5.1-10.9,1.9c-2.5-1.9-3.1-5.3-1.8-8c1.2-2.6,4.1-4.5,6.9-4.2c3.9,0.4,5.7,2.5,6.7,7.6c3.4-3.5,2.8-2.9,6.7-4.4
					c-1.6-1.6-2.6-3.5-2.6-6.1c-2.9,2.8-6,4.1-9.5,2.3c-3.5-1.6-5-4.5-4.7-8.6c-3.5,4.4-7.3,5.5-11.5,2c-2.2-1.9-2.9-4.8-1.8-7.7
					c1.3-3.2,4.2-4.8,7.7-4.4c1.9,0.3,3.5,1.2,4.5,2.8c0.9,1.5,1.3,3.2,2,4.8c1.6-2.2,3.8-3.9,7.4-3.8c-2.3-2.5-3.9-5-3.4-8.3
					c-3.4,4.2-7.3,6.1-12,2.3c-2.9-2.3-3.4-5.7-1.9-8.6c1.3-2.8,4.7-4.7,7.4-4.4c2.2,0.3,4.1,1.2,5.4,3.1c1.3,1.8,1.6,3.8,1.5,5.7
					c1.2-1,2.3-2.5,3.8-3.2s3.2-0.9,4.8-1.2c-3.1-1.9-4.8-4.8-3.6-8.5c1.3-4.2,4.5-6.1,9.2-5.5c-4.5-3.1-6.4-6.7-3.1-11.4
					c2.2-3.1,5.7-3.8,8.8-2.2c2.9,1.5,4.8,4.8,4.1,7.7c-0.9,3.9-3.5,5.8-8.8,6.1c2.9,1.8,4.5,4.2,4.5,7.9c2.3-2.6,5-4.2,8.6-3.6
					c-4.2-3.1-5.8-6.7-2.9-11.4c1.6-2.6,5.3-3.8,8-2.8c2.8,0.9,5.5,3.2,5.4,8.8c2.2-3.1,4.8-4.7,8.5-4.2c0.1-0.1,0.3-0.4,0.4-0.6
					c-0.4-0.1-0.7-0.1-1-0.4c-2.9-2.2-3.9-5.3-2.8-8.5c1.6-4.5,7.3-6.3,11.1-3.4c3.1,2.3,3.6,5.8,2.6,8.6c-1.2,3.1-4.2,5-7.7,4.7
					c-0.1,0-0.4,0-1,0c3.4,2,4.8,4.7,4.7,8.3c2-3.1,4.8-4.5,8.6-4.1c-2-1.2-3.5-2.6-4.1-4.8c-0.7-2.2-0.4-4.2,0.9-6.1
					c1.9-2.8,5.4-4.2,8.5-3.2c3.4,1.2,5.5,4.4,5,8c-0.1,1.2-0.7,2.6-1.6,3.5c-0.9,1-2,1.8-3.2,2.3c-1.2,0.4-2.5,0.4-4.1,0.7
					c3.1,1.8,4.8,4.2,4.8,8c2.3-2.8,5-4.1,8.3-3.8c-2-1.6-3.8-3.2-4.1-5.8c-0.3-1.6,0-3.2,0.7-4.7c1.5-2.8,4.8-4.5,7.9-3.8
					c1.2,0.3,2.5,0.9,3.5,1.8c1,0.9,1.8,2,2.2,3.4c0.4,1.2,0.3,2.5,0.4,3.9c2.9-4.1,6.4-5.8,11.1-3.1c2.8,1.8,3.8,4.5,3.1,7.7
					c-0.9,4.1-3.8,5.7-8,6c2.8,1.9,4.1,4.2,3.9,7.6c2.3-2.9,5.1-4.1,8.6-3.6c-2-1.2-3.6-2.8-4.2-5.1c-0.7-2.3,0-4.5,1.3-6.4
					c1.8-2.5,5.7-3.5,8.5-2.3c3.4,1.5,5.3,4.8,4.5,8.2c-0.7,3.8-3.6,5.8-8.9,6c1.2,1.3,2.6,2.3,3.4,3.8s0.9,3.2,1.3,4.8
					c2-2.9,4.8-4.8,8.8-3.6s5.5,4.1,5.5,8.5c3.4-4.2,7.1-5.7,11.5-2.2c2.3,1.9,3.2,4.5,2.3,7.4c-1.3,4.1-4.4,5.5-8.5,5.7
					c2.9,1.8,4.4,4.2,4.5,8c3.6-3.8,7.3-5.4,11.5-1.8c2.8,2.3,3.2,5.7,2,8.2c-1.2,2.8-3.8,5.1-8.8,4.7c3.5,2.2,5.3,5,4.7,9
					c3.2-4.2,7-6,11.7-2.6c2.8,2,3.5,5.1,2.5,8c-0.9,2.5-3.4,5.3-8.5,5.1c3.4,2.3,5.1,5.3,3.9,9c-1.2,3.9-4.1,5.5-8.3,5.5
					c2.9,1.9,4.4,4.4,4.2,7.9c3.4-3.9,7-5.3,11.2-2c2.9,2.2,3.5,5.5,2.2,8.8c-1,2.5-4.4,4.7-7,4.4c-4.5-0.4-6.1-2.2-7.4-8
					c-1.8,2.3-4.1,3.8-7.4,3.8c2.6,2,3.8,4.5,3.6,7.4c4.4-3.9,6.7-4.4,10.4-2.3c2.5,1.5,4.2,4.8,3.6,7.4c-0.7,3.9-3.2,6-8.5,6.6
					c0.3,0.3,0.4,0.4,0.6,0.6c2.3,1.9,3.8,4.2,3.4,7.4c-0.6,3.5-4.4,6.6-7.7,6.3c-3.9-0.3-6.9-3.2-7-7.1c0-0.3,0-0.6-0.1-1
					c-1.8,2.5-4.1,3.8-7.3,4.1c2.5,2,3.6,4.4,3.5,7.7c1.8-2.5,3.8-3.8,6.6-3.9c1.8,0,3.1,0.6,4.4,1.6c2.8,2.2,3.8,5.7,2.5,8.8
					c-1.5,3.2-4.5,5-7.4,4.7C35.2,1029.8,31.8,1026.9,31.7,1021.6z M-14.3,884c-2.9-2-3.9-4.8-3.6-8.3c-1.9,3.4-4.8,4.7-8.6,4.4
					c3.1,1.8,4.5,4.2,4.7,8C-19.8,885.4-17.5,884.2-14.3,884z M-74.9,880.5c3.1,1.8,4.5,4.2,4.7,7.7c1.9-2.5,4.4-3.6,7.7-3.6
					c-3.1-2-4.2-4.7-4.1-8C-68.5,879.5-71.3,880.8-74.9,880.5z M37.4,1004.2c1.9-2.8,4.4-3.9,7.7-3.9c-2.6-1.8-4.1-4.2-3.9-7.9
					c-2,2.9-4.4,4.1-7.7,4.1C36.2,998.6,37.2,1001,37.4,1004.2z M13.5,909.3c2.8,2,3.8,4.5,3.8,7.7c2-3.1,4.8-4.1,8.2-3.9
					c-3.1-1.8-4.4-4.4-4.5-7.7C19.1,908,16.8,909.3,13.5,909.3z M37.1,955.1c2-2.5,4.5-3.4,7.6-3.4c-3.1-2-4.1-4.8-3.9-8.3
					c-1.6,2.8-3.9,4.4-7.4,4.5C35.9,950,37.1,952.2,37.1,955.1z M27.3,935.5c2-2.5,4.8-3.4,7.9-3.2c-2.9-1.8-4.2-4.2-4.2-7.9
					c-1.8,2.8-4.1,3.9-7.1,4.2C26,930.6,27.2,932.8,27.3,935.5z M-89.4,897.3c1.6-2,3.9-3.2,6.9-3.2c-2.5-2-3.5-4.4-3.5-7.1
					c-2,2.6-4.5,3.8-7.3,3.5c0.7,0.9,1.8,1.9,2.3,2.9C-90.3,894.5-90,895.9-89.4,897.3z M39.7,966.3c-2.5-1.8-3.8-4.2-3.9-7.4
					c-1.8,2.5-4.1,3.6-6.9,3.8c3.1,3.5,2.6,3.2,3.5,7.1C34.3,967.5,36.8,966.3,39.7,966.3z M-59.3,885.6c2.3,1.6,3.5,3.8,3.9,6.4
					c1-0.7,2-1.6,3.1-2.2c1-0.6,2.3-0.7,3.6-1c-2.5-1.9-3.4-4.5-3.2-7.6C-53.6,884-56.1,885.4-59.3,885.6z M6.5,900.5
					c-1.6,2.5-3.8,3.8-6.7,4.1c0.9,1,1.8,2,2.2,3.1c0.6,1,0.7,2.3,1.2,3.6c1.8-2,4.1-3.1,7-3.1C7.5,906.1,6.3,903.6,6.5,900.5z
					 M16.1,920.4c-1.8,2.2-3.9,3.4-6.9,3.6c2.2,1.8,3.2,3.9,3.5,6.6c1.9-2.2,3.9-3.2,6.9-3.4C17.4,925.5,16.4,923.3,16.1,920.4z
					 M24.5,977.5c2.2,2.6,2.2,2.6,3.2,6.6c1.8-2.2,4.1-3.2,7-3.4c-2.5-1.9-3.5-4.1-3.6-6.9C27.8,977,28.5,976.5,24.5,977.5z
					 M-4.9,903.1c-2.3-1.9-3.4-4.1-3.5-6.9c-1.8,2.2-4.1,3.4-7.1,3.5c2.5,1.8,3.5,3.9,3.9,6.7C-9.9,904.5-7.8,903.4-4.9,903.1z
					 M-26.1,901.5c1.9-2,3.9-2.9,6.4-3.1c-0.9-1.2-1.8-2-2.3-3.2c-0.6-1.2-0.7-2.5-1.2-3.9c-1.5,2.3-3.6,3.5-6.6,3.8
					C-27.4,896.9-26.5,899.1-26.1,901.5z M-78.2,895.6c1.9,1.8,3.1,3.8,3.2,6.6c1.8-2.2,3.8-3.2,6.6-3.5c-2.2-1.9-3.1-4.2-3.1-7.1
					C-73.2,894.1-75.2,895.3-78.2,895.6z M-34.2,893.7c-2.2-1.9-3.2-4.1-3.2-7c-1.8,2.5-3.9,3.5-7,3.8c2.3,1.8,3.4,3.9,3.6,6.9
					C-39.1,895-37,894.1-34.2,893.7z M22.6,949.8c3.5-3.1,3.6-2.6,6.7-3.4c-2.2-1.6-3.2-3.8-3.4-6.7c-1.8,2.2-3.8,3.4-6.6,3.5
					C21.3,945.2,22.5,947.2,22.6,949.8z M-87.9,908.5c-0.7-1-1.6-2-2-3.1c-0.4-1-0.7-2.2-1.2-3.5c-1.6,2.2-3.8,3.1-6.7,3.2
					c2.3,1.8,3.4,3.8,3.6,6.6C-92.5,910-90.6,908.8-87.9,908.5z M15.1,1006.7c2,1.8,3.1,3.9,3.2,6.7c1.8-2.3,3.9-3.4,6.7-3.5
					c-2.3-1.8-3.2-3.8-3.6-6.4C19.7,1005.4,17.7,1006.4,15.1,1006.7z M23.1,998.3c1.2-0.7,2.2-1.6,3.2-2c1.2-0.4,2.3-0.6,3.6-1
					c-2.2-1.5-3.4-3.6-3.6-6.6c-1.6,2.2-3.6,3.2-6.1,3.6C21.9,994,22.9,995.9,23.1,998.3z M4.6,922.4c-1.9-1.6-2.9-3.6-3.2-6.4
					c-1.6,2-3.6,2.9-5.7,3.2c1,1.9,2,3.8,3.1,5.5c0.9-0.4,1.6-1.2,2.6-1.6C2.4,922.8,3.4,922.7,4.6,922.4z M-39.8,907.8
					c-1.5-1.5-2.3-3.5-2.6-6c-1.6,1.9-3.6,3.1-5.7,3.2c1,1.9,2,3.6,2.9,5.3C-43.6,909.6-41.7,908.7-39.8,907.8z M24.7,961.2
					c-2.2-1.8-3.2-3.8-3.5-5.8c-1.9,1-3.6,2.2-5.3,3.1c0.9,1.6,1.8,3.5,2.6,5.3C20,962.2,22.1,961.4,24.7,961.2z M-59.9,905.6
					c1.8-0.9,3.6-1.8,5.5-2.6c-1.6-1.5-2.3-3.4-2.8-5.8c-1.6,2-3.6,2.9-5.5,3.2C-61.7,902.3-60.7,904-59.9,905.6z M-76.4,906.8
					c-1.8,2-3.6,3.1-5.7,3.2c1,1.9,2,3.6,3.1,5.3c1.6-0.7,3.4-1.6,5.3-2.5C-75.4,911.5-76.3,909.6-76.4,906.8z M-13.2,911.3
					c-1.6,2-3.5,3.1-5.4,3.4c0.9,1.9,1.8,3.6,2.6,5.1c1.8-0.9,3.6-1.8,5.5-2.6C-11.9,915.8-12.9,913.9-13.2,911.3z M8.6,944
					c1.8-0.7,3.5-1.6,5.5-2.5c-1.5-1.5-2.6-3.2-2.8-5.4c-1.8,1-3.5,2-5.1,3.1C6.9,940.6,7.8,942.4,8.6,944z M13.6,978
					c1.8-0.7,3.5-1.6,5.1-2.2c-0.9-1.6-1.9-3.5-2.8-5.1c-1.6,0.9-3.2,1.8-4.8,2.5C12,974.6,12.9,976.4,13.6,978z M4.3,1007.2
					c1.8-0.7,3.5-1.6,5.1-2.3c-0.9-1.6-1.9-3.5-2.8-5.1c-1.6,0.9-3.2,1.8-4.7,2.5C2.7,1004,3.4,1005.7,4.3,1007.2z M-33.2,910.2
					c0.9,1.5,1.8,3.2,2.6,4.7c1.6-0.7,3.4-1.6,4.8-2.2c-0.7-1.6-1.6-3.5-2.3-5C-29.7,908.4-31.6,909.4-33.2,910.2z M13.7,990.1
					c-0.9-1.5-1.8-3.2-2.5-4.8c-1.5,0.7-3.1,1.6-4.4,2.3c0.7,1.6,1.5,3.2,2.2,4.8C10.5,991.8,12.1,991,13.7,990.1z M-60.2,917.4
					c-0.7-1.6-1.5-3.2-2-4.5c-1.6,0.7-3.4,1.6-4.8,2.3c0.9,1.5,1.8,3.1,2.6,4.5C-63.1,919.1-61.7,918.3-60.2,917.4z M6,951.4
					c-1.5,0.7-3.1,1.6-4.5,2.3c0.7,1.6,1.6,3.1,2.3,4.5c1.6-0.7,3.1-1.6,4.5-2.3C7.6,954.5,6.9,952.9,6,951.4z M-1.6,936.7
					c-0.7-1.6-1.6-3.2-2.3-4.7c-1.5,0.7-2.9,1.6-4.4,2.3c0.7,1.5,1.6,3.1,2.3,4.5C-4.5,938.2-2.9,937.4-1.6,936.7z M-81.7,923
					c-1.6,0.7-3.2,1.6-4.8,2.3c0.7,1.3,1.8,2.9,2.5,4.4c1.5-0.7,2.9-1.5,4.2-2.2C-80.3,925.8-80.9,924.3-81.7,923z M-2.7,968.7
					c0.6,1.3,1.3,2.8,1.9,4.1c1.6-0.7,3.2-1.5,4.7-2.2c-0.7-1.5-1.6-2.9-2.3-4.4C0,967-1.4,967.8-2.7,968.7z M-18.3,927.2
					c-1.5,0.9-2.9,1.6-4.4,2.5c0.7,1.3,1.5,2.8,2.3,4.1c1.5-0.7,2.9-1.3,4.2-2C-17,930.1-17.8,928.7-18.3,927.2z M-10.5,1002.3
					c1.5-0.9,3.1-1.6,4.5-2.5c-0.7-1.3-1.6-2.6-2.3-3.9c-1.5,0.7-2.8,1.5-4.2,2C-11.8,999.4-11.2,1000.9-10.5,1002.3z M-45.6,922.3
					c-0.7-1.5-1.3-3.1-2-4.5c-1.5,0.7-2.9,1.6-4.2,2.3c0.7,1.3,1.5,2.8,2.2,4.1C-48.4,923.6-46.9,922.8-45.6,922.3z M-35.1,929.1
					c1.5-0.7,2.9-1.5,4.2-2c-0.7-1.5-1.5-2.9-2.2-4.2c-1.5,0.7-2.8,1.5-4.2,2.2C-36.6,926.5-35.9,927.8-35.1,929.1z M-23,991.6
					c-1.5,0.7-2.9,1.3-4.4,2c0.6,1.5,1.3,2.9,1.8,4.1c1.5-0.9,3.1-1.8,4.5-2.6C-21.7,993.9-22.3,992.7-23,991.6z M-6.4,951.3
					c-0.7-1.5-1.5-2.9-2.2-4.4c-1.3,0.7-2.6,1.5-3.9,2.2c0.7,1.3,1.5,2.8,2,4.1C-9,952.5-7.7,951.9-6.4,951.3z M-71.3,930.1
					c0.7,1.3,1.3,2.6,2,3.9c1.3-0.7,2.8-1.5,4.1-2c-0.6-1.3-1.3-2.8-1.9-4.1C-68.5,928.7-69.8,929.4-71.3,930.1z M-65.2,968.9
					c1.3-0.9,2.8-1.9,4.2-2.9c-0.6-1-1-2-1.6-3.1c-1.6,0.6-3.2,1.2-4.8,1.8C-66.6,966-65.9,967.5-65.2,968.9z M-1.4,985.1
					c-0.7-1.3-1.5-2.8-2.2-4.1c-1.3,0.7-2.6,1.5-3.9,2.2c0.7,1.3,1.3,2.6,2,3.9C-4.2,986.4-2.7,985.7-1.4,985.1z M-70.4,946.3
					c-0.6-1.2-1-2.3-1.6-3.5c-1.5,0.7-2.9,1.3-4.2,2c0.7,1.2,1.3,2.3,2,3.5C-73.1,947.8-71.7,947.1-70.4,946.3z M-50.7,936.7
					c-0.6-1.3-1.3-2.6-1.9-3.8c-1.3,0.6-2.5,1.3-3.6,1.9c0.7,1.3,1.3,2.5,2,3.8C-53.2,938-52,937.4-50.7,936.7z M-26.8,944.4
					c0.6,1.2,1.3,2.5,1.9,3.6c1.3-0.6,2.5-1.2,3.6-1.8c-0.6-1.2-1.3-2.5-1.9-3.6C-24.5,943.1-25.6,943.9-26.8,944.4z M-36.3,941.4
					c-0.6-1.3-1.2-2.5-1.8-3.6c-1.2,0.6-2.3,1.3-3.6,1.9c0.6,1,1.3,2.2,1.9,3.4C-38.5,942.4-37.3,942-36.3,941.4z M-16.7,963.8
					c0.6,1.2,1.2,2.3,1.8,3.4c1.2-0.6,2.3-1.2,3.5-1.6c-0.6-1.2-1.2-2.3-1.9-3.6C-14.6,962.7-15.7,963.3-16.7,963.8z M-18.3,976.8
					c-1,0.6-2.2,1.2-3.2,1.8c0.6,1.2,1.2,2.3,1.8,3.5c1.2-0.6,2.3-1.2,3.4-1.8C-17,979.2-17.6,978-18.3,976.8z M-26.5,960.6
					c-0.6-1.2-1-2.2-1.6-3.2c-1.2,0.6-2.2,1.2-3.2,1.8c0.6,1,1,2,1.6,3.1C-28.6,961.6-27.5,961.1-26.5,960.6z M-60.7,949.7
					c0.4,0.9,1,1.9,1.5,2.9c1-0.6,2-1,3.1-1.6c-0.4-1-1-2-1.5-2.9C-58.6,948.5-59.6,949.1-60.7,949.7z M-45.6,954.5
					c0.4,0.9,0.9,1.8,1.3,2.6c1-0.4,1.9-0.9,2.8-1.3c-0.4-0.9-0.9-1.9-1.5-2.8C-43.7,953.5-44.6,954.1-45.6,954.5z M-32.9,972.6
					c-0.9,0.4-1.6,0.9-2.5,1.5c0.4,0.9,0.9,1.8,1.3,2.6c0.9-0.4,1.8-0.9,2.6-1.2C-31.9,974.3-32.4,973.5-32.9,972.6z M-50.7,969.5
					c0.4,0.9,0.9,1.6,1.3,2.3c1-0.6,1.9-1,2.8-1.6c-0.4-0.7-0.7-1.5-1.2-2.2C-48.8,968.5-49.9,968.9-50.7,969.5z"/>
				<path class="st2" d="M58.1,971.6c-4.1,0-7.3-3.4-7.3-7.4c0-3.9,3.5-7.3,7.6-7.3c3.9,0,7.1,3.5,7.1,7.4
					C65.5,968.4,62.2,971.6,58.1,971.6z"/>
				<path class="st2" d="M-99.9,878.3c0,4.1-3.4,7.4-7.3,7.4c-3.8,0-7.3-3.6-7.3-7.4s3.5-7.3,7.3-7.3S-99.9,874.6-99.9,878.3z"/>
				<path class="st2" d="M43.2,918.3c-3.8,0-7.1-3.5-7.1-7.3s3.5-7.3,7.3-7.1c3.9,0,7.3,3.5,7.3,7.4C50.5,915,47,918.3,43.2,918.3z"
					/>
				<path class="st2" d="M53.1,937.6c-3.8,0-7.3-3.5-7.3-7.3s3.5-7.3,7.3-7.3s7.3,3.5,7.3,7.3C60.4,934.2,57.1,937.6,53.1,937.6z"/>
				<path class="st2" d="M19,894.3c-3.8,0-7.3-3.5-7.3-7.3s3.5-7.4,7.3-7.3c3.8,0,7.3,3.5,7.3,7.3C26.3,890.7,22.8,894.3,19,894.3z"
					/>
				<path class="st2" d="M58.5,1005.6c3.8,0,7.1,3.4,7.1,7.3c0,3.8-3.5,7.3-7.3,7.3s-7.1-3.5-7.1-7.3
					C51.2,1008.9,54.7,1005.4,58.5,1005.6z"/>
				<path class="st2" d="M63.2,942.4c4.2,0.3,7.1,3.5,7.1,7.4s-3.5,7.3-7.3,7c-4.2-0.1-7.1-3.5-7.1-7.4
					C55.9,945.6,59.4,942.2,63.2,942.4z"/>
				<path class="st2" d="M-61.5,858.5c-0.3,4.1-3.1,7-7.1,7.1c-3.9,0.1-7.3-3.1-7.1-7.1c0-4.2,3.2-7.3,7.3-7.1
					C-64.3,851.5-61.8,854.6-61.5,858.5z"/>
				<path class="st2" d="M70.5,998.3c-0.4,4.4-3.5,7.1-7.3,7.1c-4.4-0.1-7.1-3.4-7-7.1c0.1-4.4,3.4-7.1,7.3-7.1
					C67.9,991.3,70.4,994.5,70.5,998.3z"/>
				<path class="st2" d="M54,1034.6c-4.1-0.3-7.1-2.9-7.1-7.1c0-4.1,2.8-7.1,7.1-7.1c4.1,0,7.1,2.8,7.1,7.1
					C61.2,1031.5,58.2,1034.3,54,1034.6z"/>
				<path class="st2" d="M40.7,891.8c-0.3,4.1-2.9,7.1-7.1,7.1c-4.1,0-7.1-2.9-7.1-7.1c0-4.1,2.9-7.1,7.1-7.1
					C37.5,884.6,40.3,887.5,40.7,891.8z"/>
				<path class="st2" d="M68,990.7c-3.5,0.1-7.1-3.4-7-7.3c0.1-3.4,3.5-7,7.3-6.9c3.4,0.1,7.1,3.5,7,7.4
					C75.2,987.2,71.8,991,68,990.7z"/>
				<path class="st2" d="M-5.5,855.7c3.9,0,7,3.2,7,7.1c0,3.8-3.2,7-7.1,7s-7-3.2-7-7.1C-12.7,858.8-9.4,855.7-5.5,855.7z"/>
				<path class="st2" d="M-20.1,865.1c-3.9,0-7-3.1-7-7.1c0-3.9,3.2-7,7.1-7s7,3.2,7,7.1S-16.2,865.1-20.1,865.1z"/>
				<path class="st2" d="M9.1,860.6c3.8,0,7.1,3.2,7.1,7.1c0,3.8-3.2,7-7.1,7c-3.8,0-7-3.2-7-7C2.1,863.9,5.3,860.6,9.1,860.6z"/>
				<path class="st2" d="M-102.4,870.6c-3.8,0-7.1-3.2-7.1-7s3.2-7,7.1-7c3.8,0,7,3.2,7,7C-95.4,867.4-98.6,870.6-102.4,870.6z"/>
				<path class="st2" d="M-34.8,846.4c3.8,0,7.1,3.2,7.1,7s-3.2,7.1-7,7.1s-7.1-3.2-7.1-7C-41.8,849.6-38.6,846.4-34.8,846.4z"/>
				<path class="st2" d="M64.8,915.8c0,3.8-3.4,7.1-7.1,7.1s-7-3.4-7-7c0-3.8,3.4-7.1,7.1-7.1C61.6,908.8,64.8,912,64.8,915.8z"/>
				<path class="st2" d="M72.7,976.2c-3.8,0-7-3.4-7-7.1c0-3.8,3.4-7,7.1-7s7,3.4,7,7.1C79.7,972.9,76.3,976.2,72.7,976.2z"/>
				<path class="st2" d="M67.7,942.2c-3.6,0-7-3.4-7-7c0-3.8,3.4-7.1,7.1-7.1c3.6,0,7,3.4,7,7.1C74.7,938.9,71.4,942.2,67.7,942.2z"
					/>
				<path class="st2" d="M-122.1,866.4c3.6,0,7,3.4,7.1,7c0,3.8-3.4,7.1-7.1,7.1c-3.6,0-7-3.4-7-7
					C-129.1,869.7-125.7,866.4-122.1,866.4z"/>
				<path class="st2" d="M-49.3,855.7c-3.8,0-7-3.4-7-7c0-3.8,3.4-7,7.1-7c3.6,0,7,3.4,7,7.1C-42.1,852.4-45.5,855.7-49.3,855.7z"/>
				<path class="st2" d="M-90.3,853.7c0-3.8,3.4-7,7-7c3.8,0,7.1,3.4,7,7.1c0,3.6-3.4,7-7.1,7C-86.9,860.7-90.3,857.3-90.3,853.7z"
					/>
				<path class="st2" d="M48.2,889.3c3.6,0,7,3.4,7,7.1c0,3.8-3.4,7-7.1,7s-7-3.4-6.9-7.1C41.2,892.5,44.5,889.3,48.2,889.3z"/>
				<path class="st2" d="M30.7,872.5c0,3.8-3.4,7-7,7c-3.8,0-7.1-3.4-7-7.1c0-3.6,3.4-7,7.1-7C27.3,865.5,30.7,868.7,30.7,872.5z"/>
				<path class="st2" d="M-126.4,895c-3.6,0-7-3.4-7-7s3.4-7,7-7c3.6,0,7,3.4,7,7C-119.6,891.5-122.8,894.8-126.4,895z"/>
				<path class="st2" d="M77.5,947.5c3.9,0.3,7,3.2,6.9,7c0,3.9-3.1,7-7,6.9c-3.9,0-7-3.1-6.9-7C70.6,950.6,73.7,947.6,77.5,947.5z"
					/>
				<path class="st2" d="M66.4,1017.5c0-3.8,3.1-6.7,6.9-6.9c3.4-0.1,7,3.5,7,7c0,3.2-3.5,6.9-7,6.9
					C69.9,1024.4,66,1021,66.4,1017.5z"/>
				<path class="st2" d="M45.1,877.2c0.3,3.2-3.4,6.9-6.9,6.9c-3.2,0-6.9-3.4-6.9-7c0-3.1,3.4-6.9,7-6.7
					C41.5,870.2,45.6,873.5,45.1,877.2z"/>
				<path class="st2" d="M-63.9,850.6c-3.5,0.4-6.9-3.5-7-6.7c0-3.5,3.5-7.1,7-7c3.8,0.1,6.9,3.1,6.9,6.9
					C-57,847.6-60.1,850.6-63.9,850.6z"/>
				<path class="st2" d="M77.9,1009.6c-3.8,0-6.9-3.1-6.9-6.9c0-3.8,3.1-6.9,7-6.9c3.8,0,6.7,3.1,6.7,6.9
					C84.8,1006.7,81.7,1009.6,77.9,1009.6z"/>
				<path class="st2" d="M68.3,1038.8c-3.6,0-6.7-3.2-6.7-6.9c0-3.6,3.2-6.7,6.9-6.7s6.7,3.2,6.7,6.9
					C75.2,1035.8,72.1,1038.8,68.3,1038.8z"/>
				<path class="st2" d="M-117.1,851.9c3.8,0,6.9,3.1,6.9,6.9c0,3.8-3.1,6.9-6.9,6.9s-6.9-3.1-6.9-6.9S-120.9,851.9-117.1,851.9z"/>
				<path class="st2" d="M-98,855.9c-3.6,0-6.9-3.2-6.7-7c0-3.6,3.2-6.7,6.9-6.7s6.9,3.2,6.7,7C-91.1,852.8-94.4,856-98,855.9z"/>
				<path class="st2" d="M72.4,927.2c-3.6,0-6.9-3.2-6.9-6.9c0-3.6,3.2-6.7,6.9-6.7s6.9,3.2,6.9,7C79.2,924.2,76,927.2,72.4,927.2z"
					/>
				<path class="st2" d="M89.5,988.5c0,3.6-3.2,6.7-7,6.7c-3.6,0-6.7-3.2-6.7-6.9c0-3.6,3.2-6.7,7-6.7
					C86.4,981.6,89.5,984.8,89.5,988.5z"/>
				<path class="st2" d="M62.6,894.4c3.6,0,6.9,3.2,6.7,7c0,3.6-3.2,6.7-6.9,6.7c-3.6,0-6.9-3.2-6.7-7
					C55.8,897.5,59,894.3,62.6,894.4z"/>
				<path class="st2" d="M-15.6,850.3c-3.6,0-6.9-3.2-6.7-7c0-3.6,3.2-6.7,6.9-6.7s6.9,3.2,6.7,7C-8.7,847.3-11.9,850.5-15.6,850.3z
					"/>
				<path class="st2" d="M-0.8,855.2c-3.6,0-6.9-3.2-6.7-7c0-3.6,3.2-6.7,6.9-6.7s6.9,3.2,6.7,7C6,852.1,2.8,855.3-0.8,855.2z"/>
				<path class="st2" d="M13.6,846.1c3.5,0,6.9,3.2,6.9,6.7s-3.2,6.9-6.9,6.9c-3.5,0-6.7-3.2-6.7-6.7
					C6.9,849.5,10.1,846.3,13.6,846.1z"/>
				<path class="st2" d="M82.3,946.5c-3.5,0-6.9-3.2-6.7-6.9c0-3.5,3.4-6.9,6.9-6.7c3.5,0,6.7,3.2,6.7,6.7
					C89.2,943.3,86,946.5,82.3,946.5z"/>
				<path class="st2" d="M-29.9,832c3.5,0,6.9,3.2,6.9,6.9c0,3.5-3.2,6.9-6.9,6.7c-3.5,0-6.7-3.2-6.7-6.7
					C-36.7,835.2-33.5,832-29.9,832z"/>
				<path class="st2" d="M87.4,980.5c-3.6,0-6.7-3.4-6.7-6.9s3.2-6.7,6.9-6.7s6.7,3.4,6.7,6.9C94.1,977.4,90.9,980.5,87.4,980.5z"/>
				<path class="st2" d="M-78.3,832.4c3.5,0,6.7,3.2,6.7,6.9s-3.2,6.9-6.9,6.7c-3.6,0-6.7-3.4-6.7-7
					C-85,835.5-81.8,832.4-78.3,832.4z"/>
				<path class="st2" d="M52.7,875.1c3.6,0,6.9,3.2,6.7,6.9c0,3.5-3.2,6.7-6.9,6.7s-6.9-3.2-6.7-6.9C46,878.2,49.2,875.1,52.7,875.1
					z"/>
				<path class="st2" d="M-37.9,834.1c0,3.5-3.4,6.7-6.7,6.7c-3.5,0-6.7-3.4-6.7-6.7c0-3.5,3.4-6.7,6.7-6.7
					C-41.1,827.4-37.9,830.8-37.9,834.1z"/>
				<path class="st2" d="M28.3,864.5c-3.5,0-6.7-3.2-6.7-6.7s3.2-6.7,6.7-6.7s6.7,3.2,6.7,6.7C35.2,861.3,31.8,864.5,28.3,864.5z"/>
				<path class="st2" d="M-112.3,850.9c-3.6,0-6.6-3.1-6.6-6.6s3.1-6.6,6.7-6.6c3.5,0,6.6,3.1,6.6,6.6
					C-105.7,847.9-108.8,850.9-112.3,850.9z"/>
				<path class="st2" d="M92.2,965.9c-3.5,0-6.6-3.1-6.6-6.7c0-3.5,3.1-6.6,6.7-6.6c3.5,0,6.4,3.1,6.4,6.6
					C98.8,962.8,95.7,965.9,92.2,965.9z"/>
				<path class="st2" d="M-59,835.9c-3.5,0-6.6-3.1-6.6-6.6c0-3.6,3.1-6.6,6.7-6.6c3.5,0,6.6,3.1,6.6,6.6
					C-52.5,833-55.5,835.9-59,835.9z"/>
				<path class="st2" d="M77.4,899.4c3.5,0,6.6,3.1,6.6,6.6c0,3.6-3.1,6.6-6.7,6.6c-3.5,0-6.6-3.1-6.6-6.6
					C70.8,902.4,73.7,899.4,77.4,899.4z"/>
				<path class="st2" d="M-131.6,860.7c-3.5,0-6.6-3.1-6.6-6.6c0-3.6,3.1-6.7,6.7-6.6c3.5,0,6.6,3.1,6.6,6.6
					C-125,857.8-128,860.7-131.6,860.7z"/>
				<path class="st2" d="M86.8,918.6c3.5,0,6.6,3.1,6.6,6.6s-3.1,6.7-6.6,6.7s-6.6-3.1-6.6-6.6C80.4,921.8,83.3,918.8,86.8,918.6z"
					/>
				<path class="st2" d="M49.5,862.6c0,3.5-3.1,6.6-6.6,6.6s-6.7-3.1-6.6-6.7c0-3.5,3.1-6.6,6.6-6.6C46.4,856,49.5,859.1,49.5,862.6
					z"/>
				<path class="st2" d="M-93,841c-3.5,0-6.6-3.1-6.6-6.6s3.1-6.6,6.6-6.6s6.6,3.1,6.6,6.6C-86.5,837.8-89.5,841-93,841z"/>
				<path class="st2" d="M94.3,1022c0,3.5-3.1,6.6-6.6,6.6s-6.6-3.1-6.6-6.6s3.1-6.6,6.6-6.6C91.1,1015.5,94.3,1018.7,94.3,1022z"/>
				<path class="st2" d="M74,886.7c0,3.5-3.1,6.6-6.6,6.6s-6.6-3.1-6.6-6.6s3.1-6.6,6.6-6.6C70.8,880.1,74,883.2,74,886.7z"/>
				<path class="st2" d="M99.1,1007.6c0,3.5-3.1,6.6-6.6,6.6s-6.6-3.1-6.6-6.6s3.1-6.4,6.6-6.4C96,1001,99.1,1004.1,99.1,1007.6z"/>
				<path class="st2" d="M-136.4,862.2c3.5,0,6.6,3.2,6.6,6.6c0,3.5-3.2,6.6-6.7,6.4c-3.5-0.1-6.4-3.1-6.4-6.6
					C-142.9,865.1-139.9,862-136.4,862.2z"/>
				<path class="st2" d="M103.8,992.9c0,3.4-3.1,6.4-6.4,6.6c-3.4,0-6.6-3.1-6.6-6.6c0-3.4,3.1-6.4,6.6-6.6
					C100.7,986.4,103.8,989.5,103.8,992.9z"/>
				<path class="st2" d="M-4.2,828.9c0,3.4-3.2,6.6-6.6,6.4c-3.4,0-6.6-3.2-6.4-6.6c0-3.4,3.2-6.6,6.6-6.4S-4,825.5-4.2,828.9z"/>
				<path class="st2" d="M10.5,833.7c0,3.4-3.1,6.6-6.6,6.6c-3.4,0-6.6-3.1-6.6-6.6c0-3.4,3.1-6.6,6.6-6.6
					C7.5,827.1,10.5,830.4,10.5,833.7z"/>
				<path class="st2" d="M103.3,944.4c0,3.4-3.1,6.6-6.4,6.6s-6.6-3.1-6.6-6.4c0-3.4,3.1-6.6,6.4-6.6
					C100.1,938,103.3,941.1,103.3,944.4z"/>
				<path class="st2" d="M-67.2,824.5c-0.3,3.8-2.9,6.4-6.6,6.4c-3.8,0-6.4-3.1-6.4-6.6c0.1-3.8,2.9-6.4,6.4-6.4
					C-70,818.1-67.5,820.9-67.2,824.5z"/>
				<path class="st2" d="M51.1,867.3c0.1-3.4,2.8-6.4,6.4-6.6c3.4-0.1,6.4,2.6,6.6,6.3c0.1,3.4-2.8,6.6-6.4,6.6
					C54.2,873.7,51.2,870.9,51.1,867.3z"/>
				<path class="st2" d="M25,838.5c-0.1,3.4-2.8,6.4-6.4,6.6c-3.4,0.1-6.4-2.6-6.6-6.3c-0.1-3.4,2.8-6.6,6.4-6.6
					C21.9,832.1,24.7,834.9,25,838.5z"/>
				<path class="st2" d="M-18.9,824.5c-0.3,3.8-3.4,6.4-6.6,6.3c-3.8-0.1-6.4-3.5-6.3-6.7c0.1-3.8,3.5-6.4,6.6-6.3
					C-21.4,818.1-18.9,821.3-18.9,824.5z"/>
				<path class="st2" d="M95.6,978.4c0-3.5,2.9-6.3,6.4-6.3s6.3,2.9,6.3,6.4c0,3.4-2.9,6.3-6.4,6.3S95.6,981.9,95.6,978.4z"/>
				<path class="st2" d="M-127,833.1c3.4,0,6.3,2.9,6.3,6.3c0,3.5-2.9,6.4-6.4,6.4c-3.4,0-6.3-2.9-6.3-6.4
					C-133.3,836-130.4,833.1-127,833.1z"/>
				<path class="st2" d="M-33.5,819.4c0,3.5-2.9,6.4-6.3,6.4c-3.5,0-6.4-2.9-6.4-6.4c0-3.4,2.9-6.3,6.3-6.3
					C-36.4,813.1-33.5,816.1-33.5,819.4z"/>
				<path class="st2" d="M-97,939.6c3.4,0,6.3,3.1,6.1,6.4c0,3.4-3.1,6.3-6.4,6.3c-3.5,0-6.3-3.1-6.3-6.6
					C-103.4,942.4-100.5,939.6-97,939.6z"/>
				<path class="st2" d="M81.9,897.6c-3.4,0-6.3-2.9-6.4-6.3c0-3.5,2.9-6.4,6.4-6.4c3.4,0,6.3,2.9,6.3,6.4
					C88.3,894.7,85.4,897.6,81.9,897.6z"/>
				<path class="st2" d="M-101.2,829.6c0,3.4-2.9,6.3-6.4,6.3s-6.4-2.9-6.3-6.4c0-3.4,3.1-6.3,6.4-6.3
					C-104.1,823.4-101.2,826.3-101.2,829.6z"/>
				<path class="st2" d="M91.8,904.2c3.4,0,6.3,2.9,6.3,6.3c0,3.5-2.9,6.4-6.4,6.4c-3.4,0-6.3-2.9-6.3-6.4
					C85.4,907.1,88.4,904.2,91.8,904.2z"/>
				<path class="st2" d="M39.6,843c0,3.4-2.9,6.3-6.3,6.4c-3.5,0-6.4-2.9-6.4-6.4c0-3.4,2.9-6.3,6.4-6.3
					C36.7,836.8,39.6,839.7,39.6,843z"/>
				<path class="st2" d="M112.9,963.8c0,3.4-3.1,6.4-6.4,6.3c-3.4,0-6.3-3.1-6.3-6.3c0-3.4,3.1-6.4,6.4-6.3
					C110,957.6,112.9,960.5,112.9,963.8z"/>
				<path class="st2" d="M108,930.1c0,3.4-3.1,6.3-6.3,6.3c-3.4,0-6.3-3.1-6.3-6.3c0-3.4,3.1-6.3,6.3-6.3
					C104.9,923.9,108,926.8,108,930.1z"/>
				<path class="st2" d="M83.2,1043c-3.4,0-6.3-2.9-6.4-6.1c0-3.4,2.9-6.3,6.1-6.4c3.4,0,6.3,2.9,6.4,6.1
					C89.5,1040,86.5,1043,83.2,1043z"/>
				<path class="st2" d="M-82,820c0,3.4-2.9,6.3-6.3,6.3s-6.3-3.1-6.3-6.3c0-3.4,3.1-6.3,6.3-6.3C-85,813.7-82,816.6-82,820z"/>
				<path class="st2" d="M-60.8,814.6c0.1-3.4,3.2-6.3,6.4-6.1c3.4,0.1,6.3,3.2,6.1,6.4s-3.2,6.1-6.4,6.1
					C-57.9,820.9-60.9,817.8-60.8,814.6z"/>
				<path class="st2" d="M47.6,854.1c-3.4,0-6.3-3.1-6.3-6.4c0.1-3.4,3.2-6.3,6.4-6.1c3.2,0.1,6.1,3.1,6.1,6.3
					C53.9,851.2,50.8,854.3,47.6,854.1z"/>
				<path class="st2" d="M72,865.7c3.2,0,6.3,3.1,6.3,6.3s-3.1,6.3-6.3,6.3c-3.2,0-6.1-2.9-6.3-6.3C65.7,868.9,68.7,865.8,72,865.7z
					"/>
				<path class="st2" d="M107.1,1006.4c3.5,0,6.1,2.6,6.1,6.1c0,3.4-2.8,6.1-6.1,6.1s-6.1-2.8-6.1-6.1
					C101.1,1009.1,103.8,1006.4,107.1,1006.4z"/>
				<path class="st2" d="M108.4,1026.9c0,3.5-2.6,6.1-6,6.1c-3.5,0-6.1-2.6-6.1-6.1s2.6-6.1,6.1-6.1
					C105.8,1020.9,108.4,1023.5,108.4,1026.9z"/>
				<path class="st2" d="M111.5,943.3c3.4,0,6.1,2.8,6.1,6.1s-2.8,6-6.1,6c-3.4,0-6.1-2.8-6.1-6.1S108.1,943.3,111.5,943.3z"/>
				<path class="st2" d="M117.9,997.7c0,3.2-2.8,6.1-6,6.1c-3.4,0-6.1-2.8-6.1-6.1c0-3.2,2.9-6.1,6.1-6.1
					C115,991.7,117.9,994.5,117.9,997.7z"/>
				<path class="st2" d="M-69,816.2c-3.2,0-6.1-2.8-6.1-6c0-3.4,2.8-6.1,6.1-6.1c3.2,0,6.1,2.9,6.1,6.1
					C-62.8,813.3-65.8,816.2-69,816.2z"/>
				<path class="st2" d="M62.5,846.7c3.2,0,6.1,3.1,6.1,6.3c0,3.1-3.1,6-6.1,6c-3.2,0-6.1-3.1-6.1-6.3S59.3,846.5,62.5,846.7z"/>
				<path class="st2" d="M-116.1,825.1c0,3.2-3.1,6.1-6.1,6.1c-3.1,0-6-3.1-6-6.1c0-3.2,3.1-6.1,6.1-6.1
					C-119,819-116.1,821.9-116.1,825.1z"/>
				<path class="st2" d="M14.8,819.3c0,3.1-3.1,6-6.1,6c-3.2,0-6.1-3.1-6.1-6.1c0-3.2,3.1-6.1,6.3-6
					C11.9,813.1,14.8,816.2,14.8,819.3z"/>
				<path class="st2" d="M-5.8,820.6c-3.1,0-6.1-2.9-6.1-6c0-3.2,2.9-6.1,6.1-6.1s6.1,2.9,6.1,6.1C0.2,817.7-2.7,820.6-5.8,820.6z"
					/>
				<path class="st2" d="M90.5,896c0-3.2,2.9-6,6.1-6s6.1,3.1,6,6.3s-3.1,6-6.1,6C93.3,902.1,90.5,899.2,90.5,896z"/>
				<path class="st2" d="M-135.3,834.9c0,3.2-2.9,6-6.1,6s-6.1-2.9-6.1-6.1s2.9-6,6.1-6C-138.3,828.9-135.3,831.8-135.3,834.9z"/>
				<path class="st2" d="M-103,809.1c3.2,0,6,2.9,6,6c0,3.2-2.9,6.1-6.1,6.1s-6-2.9-6-6.1C-108.9,812-106,809.1-103,809.1z"/>
				<path class="st2" d="M122.6,983.4c0,3.2-2.9,6-6,6.1c-3.2,0-6.1-2.9-6.1-6.1s2.9-6,6.1-6C119.8,977.3,122.6,980.2,122.6,983.4z"
					/>
				<path class="st2" d="M29.4,823.8c0,3.2-2.8,6.1-6,6.1s-6.1-2.9-6.1-6.1c0-3.2,2.9-6,6-6S29.4,820.6,29.4,823.8z"/>
				<path class="st2" d="M-20.5,803.5c3.2,0,6.1,2.8,6.1,6s-2.9,6.1-6.1,6.1s-6-2.9-6.1-6C-26.7,806.4-23.7,803.5-20.5,803.5z"/>
				<path class="st2" d="M112.5,915.4c0,3.2-2.9,6-6,6.1c-3.2,0-6.1-2.9-6.1-6.1s2.9-6,6.1-6C109.6,909.3,112.5,912.2,112.5,915.4z"
					/>
				<path class="st2" d="M86.7,882.9c-3.2,0-6-2.8-6.1-6c0-3.2,2.8-6,6-6.1c3.2,0,6,2.8,6.1,6C92.8,880,89.9,882.9,86.7,882.9z"/>
				<path class="st2" d="M43.8,828.6c0,3.1-3.1,6.1-6.1,6c-3.1,0-6-2.9-6-6s3.1-6.1,6.1-6C40.9,822.6,43.8,825.5,43.8,828.6z"/>
				<path class="st2" d="M-29,805.1c0,3.1-2.9,6-6,6s-6.1-3.1-6-6.1c0.1-3.5,2.8-6,6.1-6C-31.8,799-28.8,802.1-29,805.1z"/>
				<path class="st2" d="M110.2,934.7c0-3.4,2.5-5.8,6-5.8c3.4,0,5.7,2.6,5.8,6c0.1,2.9-2.9,6-6,5.8
					C112.8,940.3,110.2,937.9,110.2,934.7z"/>
				<path class="st2" d="M121.4,962.8c2.9-0.3,6,3.1,6,5.8c0,2.9-3.1,6-6,6c-2.8,0-5.8-3.1-5.8-6
					C115.4,965.7,118.5,962.5,121.4,962.8z"/>
				<path class="st2" d="M-77.9,805.3c0.3,2.8-3.1,5.8-5.8,5.8s-6-3.1-5.8-6.1c0-2.8,3.1-5.8,6-5.8
					C-80.8,799.4-77.4,802.3-77.9,805.3z"/>
				<path class="st2" d="M76.8,863.5c-3.1,0-5.8-2.8-5.7-6c0-3.2,2.8-5.8,6-5.8c3.1,0,5.7,2.8,5.7,6
					C82.6,860.8,79.8,863.5,76.8,863.5z"/>
				<path class="st2" d="M-146.3,855.2c-3.1,0-5.8-2.8-5.8-5.8s2.8-5.8,6-5.8c3.1,0,5.8,2.8,5.8,5.8
					C-140.4,852.4-143.2,855.2-146.3,855.2z"/>
				<path class="st2" d="M-43.9,800.2c0,3.1-2.8,6-5.8,6s-5.8-2.8-5.8-5.8c0-3.1,2.8-5.8,5.8-5.8C-46.6,794.3-43.9,797.1-43.9,800.2
					z"/>
				<path class="st2" d="M46.6,833.4c0-3.1,2.8-5.8,5.8-5.8c3.1,0,5.8,2.8,5.8,5.8c0,3.1-2.8,5.8-5.8,5.8
					C49.5,839.4,46.6,836.6,46.6,833.4z"/>
				<path class="st2" d="M116.9,901c0,3.1-2.9,5.8-5.8,5.8c-3.1,0-5.8-2.9-5.7-5.8c0-2.9,2.8-5.8,5.8-5.7
					C114.4,895.3,116.6,897.6,116.9,901z"/>
				<path class="st2" d="M116.9,1037.5c-2.9,0-5.8-2.8-5.8-5.8s2.8-5.8,5.8-5.8c2.9,0,5.7,2.8,5.8,5.7
					C122.7,1034.7,119.8,1037.5,116.9,1037.5z"/>
				<path class="st2" d="M-117.4,804.5c3.1,0,5.8,2.9,5.7,5.8c-0.1,3.4-2.6,5.7-5.8,5.7c-2.9,0-5.7-2.9-5.7-5.8
					C-123.2,807.3-120.3,804.5-117.4,804.5z"/>
				<path class="st2" d="M-136.9,826c-2.9,0-5.8-2.9-5.8-5.8c0-3.1,2.9-5.8,5.8-5.8c2.9,0,5.7,2.8,5.7,5.8
					C-131.1,823.2-133.9,826-136.9,826z"/>
				<path class="st2" d="M125.9,948.4c2.9-0.1,5.8,2.8,5.8,5.7c0,3.1-2.6,5.8-5.8,5.8c-2.9,0.1-5.7-2.8-5.8-5.7
					C120.1,951.3,123,948.5,125.9,948.4z"/>
				<path class="st2" d="M107,881.4c0,2.9-2.8,5.8-5.7,5.8c-3.1,0-5.8-2.6-5.8-5.8c0-2.9,2.8-5.7,5.7-5.8
					C104,875.6,106.8,878.3,107,881.4z"/>
				<path class="st2" d="M121.7,1011.2c2.9,0,5.8,2.9,5.7,5.8c-0.1,3.2-2.8,5.8-5.8,5.7c-3.2-0.1-5.7-2.9-5.7-5.8
					C115.9,1014,118.8,1011.2,121.7,1011.2z"/>
				<path class="st2" d="M-64.2,801.2c-2.9,0-5.8-2.9-5.8-5.8c0-2.9,2.9-5.8,5.8-5.8s5.8,2.9,5.8,5.8
					C-58.3,798.3-61.2,801.2-64.2,801.2z"/>
				<path class="st2" d="M120.8,925.8c-2.6,0.3-5.8-2.8-5.5-5.7c0.1-3.1,2.6-5.4,5.7-5.5c2.6-0.1,5.8,2.8,5.7,5.8
					C126.4,923.4,124,925.8,120.8,925.8z"/>
				<path class="st2" d="M132.1,1002.6c0,3.2-2.5,5.7-5.7,5.7c-3.1,0-5.5-2.5-5.5-5.5c0-3.2,2.5-5.7,5.7-5.7
					C129.6,997,132.1,999.4,132.1,1002.6z"/>
				<path class="st2" d="M72.5,838.1c0.3,2.6-2.8,5.8-5.7,5.5c-3.1-0.1-5.4-2.6-5.5-5.7c-0.1-2.6,2.8-5.8,5.8-5.5
					C70.2,832.5,72.5,834.9,72.5,838.1z"/>
				<path class="st2" d="M97.2,862.2c0,3.1-2.5,5.5-5.7,5.5s-5.7-2.5-5.7-5.7c0-3.1,2.5-5.5,5.7-5.5S97.2,859.1,97.2,862.2z"/>
				<path class="st2" d="M-92.5,800.4c0,3.1-2.5,5.7-5.5,5.7c-3.2,0-5.7-2.5-5.7-5.7c0-3.1,2.5-5.5,5.7-5.5
					C-94.9,794.8-92.5,797.2-92.5,800.4z"/>
				<path class="st2" d="M27.9,815c-3.1,0-5.7-2.6-5.7-5.7c0-3.1,2.6-5.7,5.7-5.7c2.9,0,5.5,2.6,5.5,5.5C33.6,812.3,31,815,27.9,815
					z"/>
				<path class="st2" d="M-15.7,800.7c-3.1,0-5.5-2.6-5.5-5.7c0-3.1,2.6-5.5,5.7-5.5c2.9,0,5.5,2.6,5.5,5.7
					C-10,798.1-12.7,800.7-15.7,800.7z"/>
				<path class="st2" d="M-1.3,805.4c-3.1,0-5.7-2.6-5.7-5.5c0-3.1,2.6-5.7,5.5-5.7c3.1,0,5.7,2.6,5.7,5.5
					C4.4,802.8,1.8,805.3-1.3,805.4z"/>
				<path class="st2" d="M19.1,804.5c0,3.1-2.6,5.7-5.5,5.7c-3.1,0-5.7-2.6-5.7-5.5c0-3.1,2.6-5.7,5.5-5.7
					C16.5,798.8,19,801.5,19.1,804.5z"/>
				<path class="st2" d="M136.7,988.1c0,3.1-2.6,5.5-5.7,5.5s-5.5-2.8-5.5-5.7s2.6-5.5,5.7-5.5C134.1,982.4,136.7,985,136.7,988.1z"
					/>
				<path class="st2" d="M-78.9,785c2.9,0,5.5,2.6,5.5,5.5s-2.6,5.5-5.5,5.5s-5.5-2.6-5.5-5.5C-84.4,787.8-81.8,785-78.9,785z"/>
				<path class="st2" d="M-24.8,790.4c0,2.9-2.8,5.5-5.7,5.5c-2.9-0.1-5.5-2.8-5.4-5.7c0-2.9,2.8-5.5,5.7-5.5
					C-27.4,784.8-24.8,787.6-24.8,790.4z"/>
				<path class="st2" d="M42.6,808.3c2.9,0,5.7,2.8,5.5,5.7c-0.1,2.9-2.8,5.5-5.7,5.4c-2.9,0-5.5-2.8-5.5-5.7
					C37.1,811,39.9,808.3,42.6,808.3z"/>
				<path class="st2" d="M81.6,848.4c-2.9,0-5.5-2.6-5.5-5.5s2.6-5.5,5.5-5.5s5.5,2.6,5.5,5.5C87.3,845.7,84.5,848.4,81.6,848.4z"/>
				<path class="st2" d="M136.4,939.5c0,2.9-2.6,5.7-5.5,5.5c-2.8,0-5.5-2.6-5.5-5.5s2.6-5.7,5.5-5.7
					C133.7,933.9,136.3,936.6,136.4,939.5z"/>
				<path class="st2" d="M135.9,979c-3.1-0.3-5.3-2.2-5.5-5.5c-0.1-2.8,2.8-5.7,5.5-5.5c2.8,0,5.5,2.8,5.5,5.5S138.8,979,135.9,979z
					"/>
				<path class="st2" d="M-132.1,811.1c-3.1-0.3-5.4-2.2-5.5-5.5c0-3.1,2.2-5.4,5.4-5.5c3.1,0,5.4,2.2,5.5,5.4
					C-126.6,808.6-128.8,810.7-132.1,811.1z"/>
				<path class="st2" d="M-146,815.3c0,2.9-2.3,5.4-5.3,5.4c-3.1,0-5.4-2.3-5.4-5.4c0-2.9,2.5-5.4,5.4-5.4
					C-148.3,809.9-146,812.4-146,815.3z"/>
				<path class="st2" d="M121.3,886.2c0,2.9-2.3,5.4-5.4,5.4s-5.4-2.3-5.4-5.4c0-2.9,2.5-5.4,5.4-5.4S121.3,883.3,121.3,886.2z"/>
				<path class="st2" d="M62.5,818.8c0,2.9-2.3,5.4-5.4,5.4c-3.1,0-5.4-2.5-5.4-5.4s2.5-5.3,5.4-5.3C60,813.4,62.5,815.8,62.5,818.8
					z"/>
				<path class="st2" d="M-44.9,780.2c2.9,0,5.4,2.3,5.4,5.4c0,3.1-2.5,5.4-5.4,5.4s-5.3-2.5-5.3-5.4
					C-50.3,782.5-47.8,780.2-44.9,780.2z"/>
				<path class="st2" d="M-112.7,790.5c2.9,0,5.3,2.5,5.3,5.4s-2.5,5.3-5.4,5.3s-5.3-2.5-5.3-5.4S-115.6,790.5-112.7,790.5z"/>
				<path class="st2" d="M125.6,910.9c-2.9,0-5.4-2.5-5.4-5.4s2.5-5.4,5.4-5.4s5.4,2.5,5.4,5.4C131.2,908.4,128.7,910.9,125.6,910.9
					z"/>
				<path class="st2" d="M111.3,867c0,2.9-2.5,5.4-5.4,5.4s-5.4-2.5-5.4-5.4s2.5-5.4,5.4-5.4C108.9,861.6,111.3,864.1,111.3,867z"/>
				<path class="st2" d="M140.7,964.1c-2.8,0-5.4-2.6-5.3-5.4c0-2.8,2.6-5.4,5.4-5.3c2.8,0,5.3,2.6,5.3,5.4
					C146.1,961.5,143.4,964.1,140.7,964.1z"/>
				<path class="st2" d="M135.7,930.3c-2.8,0-5.4-2.5-5.4-5.4c0-2.8,2.6-5.4,5.4-5.3c2.8,0,5.3,2.5,5.3,5.3
					C141,927.8,138.5,930.3,135.7,930.3z"/>
				<path class="st2" d="M-87.9,786c0,2.8-2.5,5.4-5.4,5.4c-2.8,0-5.4-2.6-5.3-5.4c0-2.8,2.5-5.3,5.3-5.3
					C-90.6,780.6-87.9,783.1-87.9,786z"/>
				<path class="st2" d="M141.7,1021.9c0,2.8-2.5,5.3-5.3,5.3s-5.4-2.6-5.4-5.4c0-2.8,2.6-5.4,5.4-5.3
					C139.2,1016.6,141.7,1019.1,141.7,1021.9z"/>
				<path class="st2" d="M101.4,847.6c0,2.8-2.5,5.4-5.4,5.4c-2.8,0-5.3-2.5-5.3-5.3s2.5-5.4,5.4-5.4
					C98.8,842.3,101.4,844.8,101.4,847.6z"/>
				<path class="st2" d="M-59.5,775.6c2.8,0,5.4,2.6,5.3,5.4s-2.6,5.3-5.4,5.3s-5.4-2.6-5.3-5.4C-64.7,778-62.3,775.5-59.5,775.6z"
					/>
				<path class="st2" d="M71.8,828.9c-2.8,0-5.3-2.5-5.3-5.3s2.5-5.4,5.4-5.4c2.8,0,5.4,2.6,5.3,5.4
					C77.1,826.4,74.4,828.9,71.8,828.9z"/>
				<path class="st2" d="M141,1012.6c-2.6,0-5.3-2.5-5.3-5.3c0-2.6,2.6-5.4,5.4-5.4c2.8,0,5.3,2.6,5.3,5.3
					C146.2,1009.9,143.6,1012.4,141,1012.6z"/>
				<path class="st2" d="M25.1,1032.5c0,2.9-2.3,5.1-5.1,5.1s-5.1-2.3-5.1-5.1c0-2.9,2.3-5.1,5.3-5.1
					C22.8,1027.3,25.1,1029.6,25.1,1032.5z"/>
				<path class="st2" d="M97.5,1046.8c-2.9,0-5.1-2.3-5.1-5.1c0-2.9,2.3-5.1,5.1-5.1c2.8,0,5.1,2.3,5.1,5.1
					C102.7,1044.5,100.4,1046.8,97.5,1046.8z"/>
				<path class="st2" d="M3.5,790.4c-2.9,0-5.1-2.3-5.1-5.1c0-2.9,2.3-5.1,5.1-5.1c2.9,0,5.1,2.3,5.1,5.1
					C8.6,788.2,6.5,790.4,3.5,790.4z"/>
				<path class="st2" d="M5.3,1032.8c-2.8,0-5.1-2.3-5.1-5.1c0-2.9,2.3-5.1,5.1-5.1c2.9,0,5.1,2.3,5.1,5.1S8.1,1032.8,5.3,1032.8z"
					/>
				<path class="st2" d="M18.3,785c2.9,0,5.1,2.3,5.1,5.1c0,2.9-2.3,5.1-5.1,5.1c-2.9,0-5.1-2.3-5.1-5.1
					C13.2,787.2,15.4,785,18.3,785z"/>
				<path class="st2" d="M150.9,992.7c0,2.8-2.3,5.1-5.3,5.1c-2.8,0-5.1-2.3-5.1-5.3c0-2.8,2.3-5.1,5.1-5.1
					C148.5,987.6,150.9,989.9,150.9,992.7z"/>
				<path class="st2" d="M-141.5,801c0,2.8-2.5,5.1-5.3,5.1s-5.1-2.5-5.1-5.3s2.5-5.1,5.3-5.1C-143.7,795.8-141.3,798.3-141.5,801z"
					/>
				<path class="st2" d="M150.4,944.3c0,2.8-2.5,5.1-5.3,5.1s-5.1-2.5-5-5.3c0-2.8,2.5-5.1,5.3-5.1
					C148.1,939.2,150.4,941.5,150.4,944.3z"/>
				<path class="st2" d="M37.8,794.6c0,2.8-2.3,5.3-5.1,5.3s-5.1-2.3-5.1-5.1s2.3-5.3,5.1-5.3S37.8,791.8,37.8,794.6z"/>
				<path class="st2" d="M-5.8,780.5c0,2.8-2.3,5.1-5.3,5.1c-2.8,0-5.1-2.3-5.1-5.1s2.3-5.1,5.3-5.1C-8.1,775.4-5.8,777.7-5.8,780.5
					z"/>
				<path class="st2" d="M-127.2,796.2c-2.6,0-5.1-2.5-5.1-5.1s2.5-5.3,5.1-5.3s5.1,2.5,5.1,5.1
					C-122.1,793.7-124.5,796.2-127.2,796.2z"/>
				<path class="st2" d="M130.5,896.1c-2.6,0-5.1-2.5-5.1-5.1c0-2.8,2.5-5.3,5.3-5.1c2.6,0,5.1,2.6,5.1,5.3
					C135.7,893.8,133.2,896.1,130.5,896.1z"/>
				<path class="st2" d="M86.3,833.3c-2.6,0-5.1-2.5-5.1-5.1s2.5-5.1,5.1-5.1s5.1,2.5,5.1,5.1S88.9,833.3,86.3,833.3z"/>
				<path class="st2" d="M47.4,794.3c2.6,0,5.1,2.5,5.1,5.1s-2.5,5.1-5.3,5.1c-2.6,0-5-2.5-5-5.1C42.3,796.8,44.8,794.3,47.4,794.3z
					"/>
				<path class="st2" d="M125.8,871.8c0,2.6-2.5,5.1-5.1,5.1s-5.1-2.5-5.1-5.3c0-2.6,2.5-5,5.1-5
					C123.3,866.7,125.8,869.2,125.8,871.8z"/>
				<path class="st2" d="M34.5,1032c2.6,0,5.1,2.6,5,5.3c-0.1,2.6-2.6,5.1-5.3,5c-2.6-0.1-5-2.6-5-5.1
					C29.4,1034.3,31.8,1032,34.5,1032z"/>
				<path class="st2" d="M-74.1,781.2c-2.6,0-5.1-2.6-5-5.1c0-2.6,2.6-5.1,5.1-5c2.6,0,5.1,2.6,5,5.1
					C-69,778.7-71.6,781.2-74.1,781.2z"/>
				<path class="st2" d="M-103,781.2c0,2.6-2.6,5.1-5.1,5c-2.6,0-5.1-2.6-5-5.1c0-2.6,2.6-5.1,5.1-5
					C-105.4,776.1-103,778.7-103,781.2z"/>
				<path class="st2" d="M145.3,910.3c0,2.6-2.5,5.1-5.1,5.1s-5.1-2.5-5.1-5.1s2.5-5.1,5.1-5.1C142.7,905.2,145.3,907.8,145.3,910.3
					z"/>
				<path class="st2" d="M150.6,973c2.5,0,5.1,2.5,5.1,5s-2.5,5.1-5,5.1c-2.6,0-5.1-2.5-5.1-5C145.5,975.5,148,973,150.6,973z"/>
				<path class="st2" d="M110.9,857.3c-2.5,0-5.1-2.5-5.1-5.1c0-2.5,2.5-5.1,5.1-5.1c2.5,0,5,2.5,5.1,5
					C116,854.6,113.4,857.2,110.9,857.3z"/>
				<path class="st2" d="M-4.2,1022.8c0,2.5-2.5,5.1-5.1,5.1c-2.5,0-5.1-2.6-5.1-5.1s2.5-5,5-5.1C-6.8,1017.7-4.2,1020.3-4.2,1022.8
					z"/>
				<path class="st2" d="M67,804.2c-0.3,2.6-1.9,5-5,5.1c-2.8,0.1-5-1.9-5.1-5c0-2.6,1.8-5,4.8-5.1C64.5,799.3,66.6,801.2,67,804.2z
					"/>
				<path class="st2" d="M105.8,833c0,2.5-2.3,5-4.8,5s-5-2.3-5-5c0-2.5,2.3-4.8,4.8-4.8C103.3,828,105.8,830.4,105.8,833z"/>
				<path class="st2" d="M155,929.6c0,2.5-2.5,5-5,4.8c-2.5,0-5-2.5-4.8-5c0-2.5,2.5-4.8,5-4.8C152.6,924.7,155,927.1,155,929.6z"/>
				<path class="st2" d="M160.1,963.5c0,2.5-2.5,5-5,4.8c-2.5,0-4.8-2.5-4.8-5s2.5-4.8,5-4.8C157.7,958.7,160.1,961.1,160.1,963.5z"
					/>
				<path class="st2" d="M81.4,808.9c0,2.5-2.3,4.8-4.8,4.8c-2.6,0-5-2.5-4.8-5c0.1-2.5,2.5-4.8,5-4.7
					C79.2,804.1,81.4,806.4,81.4,808.9z"/>
				<path class="st2" d="M-58.2,989.5c0,2.5-2.5,4.8-5,4.7c-2.6,0-4.8-2.5-4.8-5c0.1-2.5,2.5-4.8,5-4.7
					C-60.2,984.6-58,987-58.2,989.5z"/>
				<path class="st2" d="M-156.2,834.9c-2.5,0-4.8-2.5-4.8-4.8s2.5-4.7,4.8-4.8c2.3,0,4.8,2.5,4.8,4.8
					C-151.4,832.5-153.9,834.9-156.2,834.9z"/>
				<path class="st2" d="M139.9,876.3c0,2.3-2.5,4.8-4.8,4.8s-4.7-2.3-4.8-4.8c0-2.3,2.3-4.8,4.8-4.8
					C137.5,871.5,139.9,874,139.9,876.3z"/>
				<path class="st2" d="M-137.1,786.2c0,2.3-2.5,4.8-4.8,4.8s-4.8-2.5-4.8-4.8s2.3-4.7,4.8-4.8
					C-139.7,781.3-137.2,783.8-137.1,786.2z"/>
				<path class="st2" d="M-117.7,776.4c0,2.5-2.5,4.8-4.8,4.8c-2.5,0-4.7-2.5-4.7-4.8c0-2.5,2.5-4.8,4.8-4.8
					S-117.7,773.9-117.7,776.4z"/>
				<path class="st2" d="M149.9,895.6c0,2.3-2.3,4.7-4.7,4.8c-2.3,0.1-4.8-2.3-4.8-4.8s2.5-4.8,4.8-4.8
					C147.5,890.9,149.9,893.2,149.9,895.6z"/>
				<path class="st2" d="M155.5,1026.7c0,2.3-2.3,4.8-4.7,4.8c-2.6,0-4.7-1.9-4.8-4.7c-0.1-2.3,2.2-4.8,4.7-4.8
					C153.4,1022,155.3,1023.8,155.5,1026.7z"/>
				<path class="st2" d="M160.4,1012c0,2.5-2.5,4.8-4.8,4.8c-2.5,0-4.7-2.5-4.7-4.8c0-2.5,2.5-4.8,4.8-4.8
					C158.2,1007.3,160.4,1009.6,160.4,1012z"/>
				<path class="st2" d="M129.9,857.2c0,2.6-2,4.7-4.8,4.5c-2.5,0-4.5-2.2-4.5-4.7c0-2.6,2-4.7,4.8-4.7
					C128,852.4,129.9,854.6,129.9,857.2z"/>
				<path class="st2" d="M-82.7,965.3c0,2.6-2,4.7-4.7,4.7s-4.5-2-4.5-4.7s2-4.7,4.7-4.7S-82.7,962.7-82.7,965.3z"/>
				<path class="st2" d="M164.9,997.5c0,2.5-2.2,4.7-4.7,4.7s-4.7-2.2-4.7-4.7s2.2-4.7,4.7-4.7C162.7,992.9,164.9,995.1,164.9,997.5
					z"/>
				<path class="st2" d="M164.6,948.8c0,2.5-2.2,4.7-4.5,4.7c-2.5,0-4.7-2.2-4.7-4.7s2.2-4.7,4.7-4.7
					C162.4,944.1,164.6,946.3,164.6,948.8z"/>
				<path class="st2" d="M136.1,1036.3c0,2.5-2.2,4.7-4.7,4.7s-4.7-2.2-4.7-4.7s2.2-4.7,4.7-4.7
					C134,1031.7,136.1,1033.9,136.1,1036.3z"/>
				<path class="st2" d="M-21,775.9c0,2.5-2.2,4.7-4.7,4.7s-4.7-2.2-4.7-4.8c0-2.5,2.2-4.5,4.7-4.5C-23,771.3-21,773.5-21,775.9z"/>
				<path class="st2" d="M49.2,1046.6c-2.5,0-4.7-2.2-4.7-4.5c0-2.5,2.2-4.7,4.7-4.7s4.7,2.2,4.7,4.7
					C53.7,1044.4,51.7,1046.6,49.2,1046.6z"/>
				<path class="st2" d="M154.8,919.8c-2.5,0-4.7-2.2-4.7-4.7s2.3-4.7,4.7-4.7c2.3,0,4.5,2.2,4.5,4.7
					C159.5,917.6,157.3,919.8,154.8,919.8z"/>
				<path class="st2" d="M91.1,818.4c-2.5,0-4.7-2.2-4.7-4.7s2.3-4.7,4.7-4.7c2.3,0,4.5,2.2,4.5,4.7
					C95.7,816.1,93.4,818.4,91.1,818.4z"/>
				<path class="st2" d="M115.6,842.5c-2.3,0-4.5-2.2-4.5-4.5c0-2.5,2.2-4.7,4.7-4.7s4.7,2.3,4.5,4.7
					C120.1,840.3,117.9,842.5,115.6,842.5z"/>
				<path class="st2" d="M56.6,784.7c0,2.5-2.2,4.7-4.7,4.7c-2.3,0-4.5-2.2-4.7-4.5c0-2.5,2.2-4.7,4.7-4.7
					C54.4,780.2,56.6,782.4,56.6,784.7z"/>
				<path class="st2" d="M169.6,982.8c0,2.3-2.3,4.7-4.7,4.5c-2.2,0-4.5-2.3-4.5-4.5c0-2.3,2.3-4.7,4.7-4.7
					C167.4,978.3,169.6,980.6,169.6,982.8z"/>
				<path class="st2" d="M-131.4,907.2c-2.3,0-4.7-2.3-4.5-4.7c0-2.2,2.3-4.5,4.7-4.5c2.3,0,4.7,2.3,4.5,4.7
					C-126.9,904.9-129.1,907.2-131.4,907.2z"/>
				<path class="st2" d="M-156.6,796.1c0,2.3-2.3,4.5-4.5,4.5c-2.3,0-4.7-2.3-4.7-4.7c0-2.3,2.5-4.7,4.7-4.5
					C-158.8,791.7-156.6,793.9-156.6,796.1z"/>
				<path class="st2" d="M-141.2,887.8c-2.3,0-4.5-2.3-4.5-4.5c0-2.3,2.3-4.5,4.5-4.5c2.3,0,4.5,2.3,4.5,4.5
					C-136.7,885.6-139,887.8-141.2,887.8z"/>
				<path class="st2" d="M71.1,789.7c0,2.5-2,4.4-4.4,4.4c-2.5,0-4.4-2-4.4-4.5c0-2.3,2-4.4,4.5-4.4
					C69.2,785.1,71.1,787.2,71.1,789.7z"/>
				<path class="st2" d="M169.3,934.4c0,2.3-2,4.4-4.4,4.4s-4.4-2-4.4-4.4c0-2.3,2-4.4,4.4-4.4S169.3,932,169.3,934.4z"/>
				<path class="st2" d="M37.5,775.8c2.3,0,4.4,2,4.4,4.4c0,2.3-2,4.4-4.4,4.4s-4.4-2-4.4-4.4C33.2,777.8,35.2,775.8,37.5,775.8z"/>
				<path class="st2" d="M-156.5,786c-2.3,0-4.4-2.2-4.4-4.5s2-4.4,4.5-4.4c2.3,0,4.4,2.2,4.4,4.5C-152,784-154.2,786.2-156.5,786z"
					/>
				<path class="st2" d="M169.8,972.7c-2.3,0-4.4-2-4.5-4.4c0-2.3,2-4.4,4.4-4.5c2.3,0,4.4,2,4.5,4.4
					C174.2,970.7,172.2,972.7,169.8,972.7z"/>
				<path class="st2" d="M110.2,818.5c0,2.3-2,4.4-4.4,4.4c-2.3,0-4.4-2-4.4-4.4c0-2.3,2-4.4,4.4-4.4
					C108.1,814.2,110.2,816.2,110.2,818.5z"/>
				<path class="st2" d="M149.9,876.7c2.2,0,4.4,2.2,4.4,4.4s-2.2,4.5-4.4,4.4c-2.2,0-4.4-2.2-4.4-4.4S147.7,876.7,149.9,876.7z"/>
				<path class="st2" d="M144.3,861.9c0,2.2-2.2,4.4-4.4,4.4s-4.4-2.2-4.4-4.5c0-2.2,2.2-4.4,4.4-4.4
					C142.3,857.5,144.3,859.7,144.3,861.9z"/>
				<path class="st2" d="M-88.7,766.9c2.2,0,4.4,2.2,4.4,4.4s-2.2,4.5-4.4,4.4c-2.2,0-4.4-2.2-4.4-4.4S-91,766.9-88.7,766.9z"/>
				<path class="st2" d="M-132.9,771.7c0,2.2-2.2,4.4-4.4,4.4s-4.2-2.2-4.2-4.4s2.2-4.4,4.4-4.4
					C-134.9,767.5-132.9,769.5-132.9,771.7z"/>
				<path class="st2" d="M134.4,842.6c0,2.2-2.2,4.2-4.4,4.4c-2.2,0-4.4-2.2-4.4-4.4c0-2.3,2.2-4.4,4.4-4.4
					C132.5,838.4,134.4,840.4,134.4,842.6z"/>
				<path class="st2" d="M159.6,896.1c2.2,0,4.4,2,4.4,4.4c0,2.2-2,4.2-4.2,4.4c-2.2,0-4.4-2-4.4-4.4
					C155.4,898.2,157.4,896.1,159.6,896.1z"/>
				<path class="st2" d="M85.5,794.5c0,2.2-2.2,4.4-4.4,4.4s-4.2-2.2-4.2-4.4s2.2-4.4,4.4-4.4C83.5,790.1,85.5,792.3,85.5,794.5z"/>
				<path class="st2" d="M170,1021c-2.3,0-4.1-1.9-4.1-4.2s1.9-4.1,4.2-4.1s4.1,1.9,4.1,4.2C174.2,1019.3,172.3,1021,170,1021z"/>
				<path class="st2" d="M-19.7,1018.2c0,2.3-1.9,4.2-4.2,4.1c-2.3,0-4.1-1.9-4.1-4.2s1.9-4.2,4.2-4.1
					C-21.6,1014.2-19.7,1015.9-19.7,1018.2z"/>
				<path class="st2" d="M178.9,953.8c0,2.2-2,4.2-4.2,4.1c-2.2,0-4.2-2-4.1-4.2c0-2.2,2-4.1,4.2-4.1
					C176.8,949.5,178.9,951.4,178.9,953.8z"/>
				<path class="st2" d="M169.4,923.9c-2.2,0-4.2-2-4.2-4.2s2-4.2,4.2-4.2s4.1,1.9,4.1,4.1C173.5,922,171.6,923.9,169.4,923.9z"/>
				<path class="st2" d="M174.9,1006.3c-2.2,0-4.2-1.9-4.2-4.1s2-4.2,4.2-4.2s4.1,2,4.2,4.1C179,1004.2,177.1,1006.3,174.9,1006.3z"
					/>
				<path class="st2" d="M124.3,823.1c0,2.2-2,4.1-4.1,4.2c-2.2,0-4.2-2-4.2-4.2s2-4.1,4.2-4.1C122.3,819,124.3,821,124.3,823.1z"/>
				<path class="st2" d="M-117.4,922c0,2.2-2,4.1-4.1,4.1c-2.2,0-4.1-2-4.1-4.1c0-2.2,2-4.1,4.1-4.1
					C-119.3,917.7-117.4,919.8-117.4,922z"/>
				<path class="st2" d="M100,799c0,2.2-2,4.1-4.1,4.1c-2.2,0-4.1-2-4.1-4.1c0-2.2,2-4.1,4.1-4.1C98.1,794.9,100,796.8,100,799z"/>
				<path class="st2" d="M-40.4,766.9c2,0,4.2,2,4.1,4.1c0,2-1.9,4.1-4.1,4.1c-2,0-4.2-2-4.1-4.1C-44.3,768.9-42.4,767-40.4,766.9z"
					/>
				<path class="st2" d="M63.6,1050.8c-1.9,0-4.1-2-4.1-4.1c0-1.9,2-3.9,3.9-4.1c1.9-0.1,4.1,2,4.2,3.9
					C67.7,1048.6,65.7,1050.8,63.6,1050.8z"/>
				<path class="st2" d="M179.8,983.7c2.2,0,3.9,1.8,3.9,3.9c0,2.3-1.8,3.9-4.1,3.9c-2.2,0-3.8-1.8-3.8-4.1
					C175.8,985.4,177.6,983.7,179.8,983.7z"/>
				<path class="st2" d="M154.5,862.6c2.2,0,3.9,1.8,3.9,3.9c0,2.3-1.8,3.9-4.1,3.9c-2.2,0-3.8-1.8-3.8-3.9
					C150.4,864.2,152.2,862.4,154.5,862.6z"/>
				<path class="st2" d="M18.9,775.4c0-2.2,1.8-3.9,3.9-3.9s3.9,1.8,3.9,4.1c0,2.2-1.8,3.8-3.9,3.8
					C20.6,779.3,18.9,777.5,18.9,775.4z"/>
				<path class="st2" d="M-147.2,864.2c0,2.2-1.8,3.9-3.9,3.8c-2.2,0-3.9-1.8-3.9-3.9s1.8-3.9,3.9-3.8
					C-148.9,860.1-147.2,862-147.2,864.2z"/>
				<path class="st2" d="M164.3,882c2.2,0,3.9,1.8,3.9,3.9s-1.8,3.9-3.9,3.9c-2.2,0-3.9-1.8-3.9-3.9
					C160.4,883.7,162.1,882,164.3,882z"/>
				<path class="st2" d="M179.2,935.2c2.2,0,3.9,1.8,3.9,3.9s-1.8,3.9-3.9,3.9c-2.2,0-3.9-1.8-3.9-3.9
					C175.2,937.1,177,935.2,179.2,935.2z"/>
				<path class="st2" d="M148.7,847.1c0,2-1.9,3.9-3.9,3.9s-3.9-1.9-3.9-3.9s1.9-3.9,3.9-3.9C146.8,843.3,148.7,845.1,148.7,847.1z"
					/>
				<path class="st2" d="M116.2,1046.3c0,2-1.9,3.9-3.9,3.9s-3.9-1.9-3.9-3.9s1.9-3.9,3.9-3.9
					C114.3,1042.3,116.2,1044.2,116.2,1046.3z"/>
				<path class="st2" d="M110.3,799.9c1.9,0,3.9,1.9,3.9,3.9s-2,3.9-3.9,3.9c-2,0-3.9-2-3.8-3.9
					C106.4,801.8,108.3,799.9,110.3,799.9z"/>
				<path class="st2" d="M174.1,901.4c2,0,3.9,1.9,3.9,3.9c0,1.9-1.9,3.8-3.8,3.8c-2,0-3.9-1.9-3.9-3.9
					C170.3,903.3,172.2,901.4,174.1,901.4z"/>
				<path class="st2" d="M188.2,972.9c0,2-1.9,3.9-3.9,3.9c-1.9,0-3.8-1.9-3.9-3.8c0-2,1.9-3.9,3.9-3.9
					C186.2,969.1,188.1,971,188.2,972.9z"/>
				<path class="st2" d="M134.8,824.1c1.9,0,3.9,2,3.9,3.8c0,1.9-2,3.9-3.8,3.9c-1.9,0-3.9-2-3.9-3.8
					C131,826.1,133.1,824.1,134.8,824.1z"/>
				<path class="st2" d="M-99.5,766.7c0,1.9-1.9,3.6-3.8,3.6s-3.6-1.9-3.5-3.8c0-1.9,1.9-3.6,3.8-3.6
					C-101.2,763.1-99.5,764.9-99.5,766.7z"/>
				<path class="st2" d="M187.8,924.6c0,1.9-1.9,3.6-3.6,3.6c-1.9,0-3.6-1.9-3.6-3.6c0-1.9,1.9-3.6,3.6-3.6
					C185.9,920.8,187.8,922.7,187.8,924.6z"/>
				<path class="st2" d="M192.7,958.4c0,1.9-1.8,3.6-3.6,3.6s-3.6-1.8-3.6-3.6c0-1.9,1.8-3.6,3.5-3.6
					C190.8,954.8,192.7,956.5,192.7,958.4z"/>
				<path class="st2" d="M125.1,805c1.9,0,3.6,1.8,3.6,3.6c0,1.9-1.8,3.6-3.6,3.6s-3.6-1.8-3.6-3.6C121.3,806.9,123,805,125.1,805z"
					/>
				<path class="st2" d="M-151.5,763.4c1.8,0,3.6,1.9,3.5,3.6c-0.1,1.8-2,3.6-3.6,3.5c-1.8-0.1-3.5-1.9-3.5-3.6
					S-153.3,763.2-151.5,763.4z"/>
				<path class="st2" d="M169.1,867.7c1.8,0,3.6,1.9,3.5,3.6c-0.1,1.8-2,3.6-3.6,3.5c-1.8-0.1-3.5-1.9-3.5-3.6
					S167.4,867.7,169.1,867.7z"/>
				<path class="st2" d="M159.2,848.4c1.8,0,3.6,1.9,3.6,3.6s-1.9,3.6-3.6,3.5c-1.8,0-3.5-1.9-3.5-3.6
					C155.5,850.3,157.4,848.4,159.2,848.4z"/>
				<path class="st2" d="M193.2,1006.9c0,1.8-1.9,3.6-3.6,3.6s-3.5-1.8-3.6-3.5c0-1.8,1.8-3.6,3.5-3.6
					C191.3,1003.4,193.2,1005.1,193.2,1006.9z"/>
				<path class="st2" d="M104.3,784.5c0,1.8-1.9,3.6-3.6,3.5c-1.8-0.1-3.6-2-3.5-3.6c0.1-1.8,1.9-3.5,3.6-3.5
					C102.4,780.9,104.3,782.8,104.3,784.5z"/>
				<path class="st2" d="M-166.1,807.3c2,0,3.5,1.5,3.5,3.5c0,1.9-1.5,3.5-3.5,3.5c-1.9,0-3.4-1.5-3.4-3.4
					C-169.5,808.9-168,807.3-166.1,807.3z"/>
				<path class="st2" d="M149.3,836.2c-1.8,0-3.4-1.6-3.4-3.5s1.8-3.5,3.5-3.5s3.4,1.8,3.4,3.5C152.8,834.6,151.2,836.2,149.3,836.2
					z"/>
				<path class="st2" d="M178.9,894c-1.8,0-3.4-1.8-3.4-3.5c0-1.9,1.8-3.5,3.6-3.4c1.8,0,3.4,1.8,3.4,3.5
					C182.4,892.5,180.8,894.1,178.9,894z"/>
				<path class="st2" d="M82.5,779.6c0-1.8,1.6-3.4,3.5-3.4s3.5,1.8,3.4,3.6c0,1.8-1.8,3.4-3.5,3.4
					C84.1,783.1,82.5,781.5,82.5,779.6z"/>
				<path class="st2" d="M5,770.4c0-1.8,1.8-3.4,3.5-3.4c1.9,0,3.5,1.8,3.4,3.6s-1.8,3.4-3.6,3.4C6.5,773.9,4.8,772.3,5,770.4z"/>
				<path class="st2" d="M197.6,992.1c0,1.8-1.6,3.5-3.4,3.5c-1.9,0-3.5-1.6-3.5-3.5c0-1.8,1.6-3.4,3.5-3.5
					C196,988.8,197.6,990.4,197.6,992.1z"/>
				<path class="st2" d="M-167.7,776.8c0,1.8-1.8,3.5-3.5,3.4c-1.8,0-3.4-1.8-3.4-3.5s1.8-3.4,3.5-3.4
					C-169.3,773.5-167.7,775.1-167.7,776.8z"/>
				<path class="st2" d="M193.9,940.3c1.8,0,3.5,1.6,3.4,3.5c0,1.8-1.8,3.4-3.5,3.4s-3.4-1.6-3.4-3.4
					C190.6,942,192.2,940.3,193.9,940.3z"/>
				<path class="st2" d="M111.8,789.2c0.1-1.6,1.9-3.4,3.5-3.4c1.8,0.1,3.4,1.9,3.2,3.5c-0.1,1.6-1.9,3.4-3.5,3.2
					C113.4,792.7,111.6,790.8,111.8,789.2z"/>
				<path class="st2" d="M189,913.5c-1.6,0-3.4-1.8-3.5-3.4c0-1.6,1.8-3.4,3.4-3.4c1.6,0,3.4,1.8,3.4,3.4
					C192.3,911.6,190.6,913.4,189,913.5z"/>
				<path class="st2" d="M-51.3,766.3c0,1.6-1.9,3.4-3.5,3.4s-3.4-1.8-3.4-3.4s1.8-3.4,3.4-3.4C-53.1,762.8-51.3,764.6-51.3,766.3z"
					/>
				<path class="st2" d="M165.5,1034.7c-1.6,0-3.4-1.9-3.4-3.5s1.8-3.4,3.4-3.4c1.6,0,3.4,1.8,3.4,3.4
					C168.8,1033,167.1,1034.7,165.5,1034.7z"/>
				<path class="st2" d="M139.5,816.8c-1.6,0-3.4-1.6-3.4-3.2c-0.1-1.6,1.6-3.4,3.4-3.5c1.6,0,3.4,1.6,3.4,3.2
					C142.9,815,141.2,816.8,139.5,816.8z"/>
				<path class="st2" d="M199.2,974.6c1.8,0,3.1,1.5,3.1,3.2c0,1.8-1.5,3.2-3.4,3.2c-1.8,0-3.2-1.5-3.1-3.4
					C195.8,975.9,197.3,974.5,199.2,974.6z"/>
				<path class="st2" d="M71.4,772c1.6,0,3.2,1.8,3.2,3.4c-0.1,1.6-1.8,3.1-3.2,3.1c-1.6,0-3.2-1.8-3.2-3.4S69.8,771.9,71.4,772z"/>
				<path class="st2" d="M187.9,1021.6c0,1.6-1.6,3.2-3.2,3.2c-1.6,0-3.2-1.6-3.2-3.2c0-1.6,1.6-3.2,3.2-3.2
					C186.3,1018.4,187.9,1020,187.9,1021.6z"/>
				<path class="st2" d="M177.1,856.8c0,1.6-1.6,3.2-3.2,3.2c-1.6,0-3.2-1.6-3.2-3.2c0-1.6,1.6-3.2,3.2-3.2
					C175.5,853.7,177.1,855.3,177.1,856.8z"/>
				<path class="st2" d="M-108.5,941.1c0,1.6-1.6,3.2-3.1,3.2c-1.6,0-3.2-1.6-3.2-3.1c0-1.6,1.6-3.2,3.1-3.2
					C-110.1,938-108.5,939.5-108.5,941.1z"/>
				<path class="st2" d="M198.6,926.2c1.6,0,3.2,1.6,3.1,3.2c0,1.6-1.6,3.2-3.2,3.1c-1.6,0-3.2-1.6-3.1-3.2
					C195.4,927.8,197,926.2,198.6,926.2z"/>
				<path class="st2" d="M78.4,1054.4c-1.6,0-3.2-1.5-3.2-3.1s1.6-3.2,3.2-3.2s3.1,1.5,3.1,3.1C81.4,1052.8,80,1054.4,78.4,1054.4z"
					/>
				<path class="st2" d="M167.2,837.4c0,1.6-1.6,3.2-3.2,3.2c-1.6,0-3.2-1.6-3.1-3.2c0-1.6,1.6-3.1,3.1-3.1
					C165.6,834.1,167.2,835.8,167.2,837.4z"/>
				<path class="st2" d="M183.6,879.2c-1.6,0-3.2-1.5-3.2-3.1s1.6-3.2,3.2-3.2c1.6,0,3.1,1.5,3.2,3.1
					C186.8,877.6,185.2,879.2,183.6,879.2z"/>
				<path class="st2" d="M-160.7,841.4c1.6,0,3.2,1.6,3.1,3.2c0,1.6-1.6,3.1-3.1,3.1c-1.6,0-3.2-1.6-3.2-3.2
					C-163.9,842.9-162.3,841.4-160.7,841.4z"/>
				<path class="st2" d="M146.1,1044.2c-1.5,0-3.1-1.6-3.2-3.1c0-1.5,1.5-3.1,3.1-3.2c1.5-0.1,3.2,1.6,3.2,3.1
					C149.1,1042.6,147.5,1044.2,146.1,1044.2z"/>
				<path class="st2" d="M132.9,793.9c0,1.5-1.6,3.1-3.1,3.2c-1.5,0-3.1-1.6-3.2-3.1c0-1.5,1.6-3.2,3.1-3.2
					C131.3,790.8,132.9,792.4,132.9,793.9z"/>
				<path class="st2" d="M206.9,963.1c0,1.5-1.6,3.1-3.1,3.1s-3.2-1.8-3.1-3.2c0-1.5,1.8-3.1,3.2-3.1
					C205.3,960,206.9,961.6,206.9,963.1z"/>
				<path class="st2" d="M-38.3,1016.5c-1.6,0-2.9-1.5-2.9-2.9c0-1.6,1.3-2.9,2.9-2.9s2.9,1.5,2.9,2.9S-36.7,1016.5-38.3,1016.5z"/>
				<path class="st2" d="M193.5,898.3c-1.6,0-2.9-1.3-2.9-2.9s1.3-2.9,2.9-2.9s2.9,1.3,2.9,2.9S195.1,898.3,193.5,898.3z"/>
				<path class="st2" d="M157.2,818.1c0,1.5-1.6,3.1-3.1,2.9c-1.5,0-2.9-1.5-2.9-3.1c0-1.5,1.6-3.1,3.1-2.9
					C155.7,815.2,157.2,816.6,157.2,818.1z"/>
				<path class="st2" d="M-114.9,761.8c0,1.5-1.5,3.1-2.9,3.1c-1.5,0-2.9-1.5-2.9-2.9c0-1.5,1.5-3.1,3.1-3.1
					C-116.4,758.9-114.9,760.3-114.9,761.8z"/>
				<path class="st2" d="M211.7,997.1c0,1.3-1.6,2.9-2.9,2.9s-2.9-1.6-2.8-2.9c0-1.3,1.6-2.8,2.9-2.8
					C210.3,994.2,211.7,995.8,211.7,997.1z"/>
				<path class="st2" d="M208.4,945.7c1.3,0,2.9,1.6,2.9,2.9s-1.5,2.8-2.8,2.9c-1.3,0-2.9-1.5-2.9-2.8
					C205.4,947.4,207,945.7,208.4,945.7z"/>
				<path class="st2" d="M206.2,914.7c0,1.3-1.6,2.9-2.9,2.9s-2.8-1.5-2.9-2.8s1.5-2.9,2.8-2.9C204.6,911.8,206.2,913.2,206.2,914.7
					z"/>
				<path class="st2" d="M-3.6,765.9c0,1.6-1.2,2.8-2.6,2.8c-1.6,0-2.8-1.2-2.8-2.8s1.2-2.8,2.8-2.8C-4.8,763.2-3.6,764.4-3.6,765.9
					z"/>
				<path class="st2" d="M147.1,798.8c0,1.5-1.2,2.6-2.8,2.6s-2.8-1.2-2.8-2.9c0-1.5,1.3-2.6,2.8-2.6
					C145.9,796.1,147.1,797.2,147.1,798.8z"/>
				<path class="st2" d="M206.7,1011.7c0,1.3-1.5,2.8-2.8,2.8s-2.8-1.5-2.6-2.8c0-1.2,1.5-2.6,2.6-2.6
					C205.3,1009.1,206.7,1010.5,206.7,1011.7z"/>
				<path class="st2" d="M181.2,842c0,1.3-1.5,2.8-2.6,2.8c-1.3,0-2.8-1.5-2.8-2.8c0-1.2,1.3-2.6,2.6-2.6
					C179.8,839.4,181.2,840.9,181.2,842z"/>
				<path class="st2" d="M54.2,770.3c0-1.3,1.6-2.6,2.8-2.6c1.3,0.1,2.6,1.6,2.6,2.8c-0.1,1.3-1.6,2.6-2.8,2.5
					C55.5,773,54,771.4,54.2,770.3z"/>
				<path class="st2" d="M191.1,861.4c0,1.3-1.5,2.8-2.8,2.6c-1.3,0-2.6-1.6-2.6-2.8c0.1-1.3,1.5-2.6,2.8-2.6
					C189.7,858.8,191.1,860.3,191.1,861.4z"/>
				<path class="st2" d="M216.1,982.7c0,1.3-1.3,2.6-2.6,2.6s-2.8-1.5-2.6-2.8c0-1.3,1.5-2.6,2.6-2.6
					C214.8,980,216.1,981.3,216.1,982.7z"/>
				<path class="st2" d="M198.3,883.2c-1.6,0-2.5-1-2.5-2.5s1-2.5,2.5-2.5c1.6,0,2.5,1,2.5,2.6C200.8,882.3,199.7,883.2,198.3,883.2
					z"/>
				<path class="st2" d="M171.2,822.9c0,1.5-1,2.5-2.6,2.5c-1.5,0-2.3-1-2.3-2.5s1-2.5,2.6-2.5C170.1,820.4,171.2,821.5,171.2,822.9
					z"/>
				<path class="st2" d="M-69.4,758.9c1.3,0,2.5,1.3,2.5,2.6c0,1.2-1.3,2.3-2.5,2.3c-1.3,0-2.5-1.3-2.5-2.6
					C-71.9,760-70.6,758.9-69.4,758.9z"/>
				<path class="st2" d="M-163.8,762.1c0,1.3-1.3,2.5-2.5,2.5s-2.5-1.3-2.5-2.5c0-1.3,1.3-2.5,2.5-2.5S-163.8,760.9-163.8,762.1z"/>
				<path class="st2" d="M-173.3,791.3c0,1.2-1.3,2.5-2.5,2.5c-1.3,0-2.5-1.3-2.5-2.5s1.3-2.5,2.5-2.5
					C-174.4,788.8-173.3,790.1-173.3,791.3z"/>
				<path class="st2" d="M215.6,933.9c0,1.3-1.3,2.5-2.5,2.5s-2.5-1.3-2.5-2.5c0-1.3,1.3-2.5,2.5-2.5
					C214.5,931.5,215.6,932.8,215.6,933.9z"/>
				<path class="st2" d="M210.5,900.2c0,1.2-1.3,2.3-2.3,2.3c-1.2,0-2.5-1.3-2.5-2.5s1.3-2.5,2.5-2.3S210.5,899.1,210.5,900.2z"/>
				<path class="st2" d="M-74.9,984.6c0,1.2-1.3,2.5-2.5,2.5s-2.3-1.3-2.3-2.5s1.3-2.5,2.5-2.5C-76.1,982.2-74.9,983.4-74.9,984.6z"
					/>
				<path class="st2" d="M218.3,970.4c-1.2,0-2.5-1.3-2.5-2.5s1.2-2.3,2.3-2.5c1.2,0,2.5,1.3,2.5,2.5
					C220.8,969.1,219.4,970.3,218.3,970.4z"/>
				<path class="st2" d="M159,801.2c1.2,0,2.3,1.3,2.3,2.3c0,1.2-1.3,2.5-2.5,2.5s-2.5-1.3-2.3-2.5
					C156.6,802.3,157.9,801.2,159,801.2z"/>
				<path class="st2" d="M134.2,781.8c-1.2,0-2.2-1.2-2.2-2.3c0-1.2,1.2-2.2,2.3-2.2c1.2,0,2.2,1.2,2.2,2.5
					C136.6,780.8,135.4,781.8,134.2,781.8z"/>
				<path class="st2" d="M120,772.4c1.2,0,2.2,1,2.3,2.2c0,1.2-1,2.2-2.2,2.3c-1.2,0-2.3-1-2.3-2.2S118.8,772.4,120,772.4z"/>
				<path class="st2" d="M225.3,953.5c0,1-1.3,2.2-2.2,2.2c-1,0-2.2-1.3-2.2-2.2c0-1,1.3-2.2,2.2-2.2
					C224.1,951.3,225.3,952.5,225.3,953.5z"/>
				<path class="st2" d="M218,921.7c-1,0-2.2-1.3-2.2-2.2c0-1,1.3-2.2,2.2-2.2c1,0,2.2,1.3,2.2,2.2
					C220.2,920.5,218.9,921.7,218,921.7z"/>
				<path class="st2" d="M195.4,847c0,1-1.2,2.2-2.2,2.2S191,848,191,847s1.2-2.2,2.2-2.2S195.4,846,195.4,847z"/>
				<path class="st2" d="M149.1,781.9c1,0,2.2,1.3,2,2.2c0,1-1.3,2.2-2.2,2c-1,0-2-1.2-2-2.2C146.9,783.1,148.1,781.9,149.1,781.9z"
					/>
				<path class="st2" d="M-130.2,757c0,1-1.2,2.2-2.2,2.2c-0.9,0-2-1-2.2-2c0-1,1-2.2,2-2.2C-131.4,754.9-130.2,756-130.2,757z"/>
				<path class="st2" d="M205.3,866.2c0,1-1.2,2.2-2.2,2.2s-2.2-1.2-2.2-2.2s1.2-2,2-2C204,864.1,205.3,865.2,205.3,866.2z"/>
				<path class="st2" d="M183.3,829.8c-1,0-2.2-1.2-2.2-2.2s1.2-2.2,2.2-2.2s2,1.2,2,2.2C185.5,828.6,184.3,829.8,183.3,829.8z"/>
				<path class="st2" d="M212.7,883.5c0.9,0,2,1.2,2,2c0,0.9-1,1.9-1.9,1.9s-2-1.2-2-2C210.7,884.6,211.9,883.6,212.7,883.5z"/>
				<path class="st2" d="M44.1,765.4c0,0.9-1.2,2-2,2c-0.9,0-1.9-1.2-1.9-2c0-0.9,1.2-2,2-2C43.1,763.5,44.1,764.7,44.1,765.4z"/>
				<path class="st2" d="M175.4,808.2c0,0.9-1.2,1.9-2,1.9c-0.9,0-2-1.2-2-2c0-0.9,1.2-2,2-1.9C174.4,806.3,175.5,807.3,175.4,808.2
					z"/>
				<path class="st2" d="M128.7,1051.1c0,0.9-1.2,2-2,2s-1.9-1-1.9-1.9s1.2-2,2-2C127.5,1049,128.7,1050.2,128.7,1051.1z"/>
				<path class="st2" d="M228,989.1c-1,0-1.9-1-1.9-2s1-1.9,2-1.9s1.9,1,1.9,2S229.1,989.1,228,989.1z"/>
				<path class="st2" d="M225.3,1001.9c0,1-1,1.9-1.9,1.9c-1,0-1.9-1-1.9-1.9c0-1,1-1.9,1.9-1.9S225.3,1001,225.3,1001.9z"/>
				<path class="st2" d="M105.2,767.9c1,0,1.9,1,1.9,1.9c0,1-1,1.9-1.9,1.9c-1,0-1.9-1-1.9-1.9S104.3,767.9,105.2,767.9z"/>
				<path class="st2" d="M229.4,938.7c0,0.9-0.9,1.8-1.8,1.8c-0.9,0-1.8-0.9-1.8-1.8c0-1,0.9-1.9,1.9-1.8
					C228.6,937,229.5,937.9,229.4,938.7z"/>
				<path class="st2" d="M-20.8,763c-0.9,0-1.8-1-1.8-1.9s0.9-1.8,1.8-1.8s1.8,0.9,1.8,1.8C-19.1,762.1-20,763-20.8,763z"/>
				<path class="st2" d="M224.4,904.8c0,0.9-1,1.8-1.8,1.8c-0.9,0-1.8-0.9-1.8-1.8c0-0.9,0.9-1.8,1.8-1.8S224.4,904,224.4,904.8z"/>
				<path class="st2" d="M163.6,790.5c-0.7,0-1.8-1-1.6-1.8c0-0.7,1.2-1.8,1.8-1.6c0.9,0.1,1.5,0.7,1.6,1.8
					C165.3,789.7,164.3,790.5,163.6,790.5z"/>
				<path class="st2" d="M234.6,972.7c0,0.7-1,1.8-1.8,1.6c-0.7,0-1.8-1.2-1.6-1.8c0.1-0.9,0.7-1.5,1.8-1.6
					C233.7,971,234.8,972,234.6,972.7z"/>
				<path class="st2" d="M-101.8,959.2c0.9,0,1.6,0.6,1.6,1.6c0,0.9-0.6,1.5-1.5,1.5s-1.6-0.6-1.6-1.5
					C-103.2,959.8-102.7,959.2-101.8,959.2z"/>
				<path class="st2" d="M200.8,1026.3c0,0.9-0.7,1.6-1.6,1.5s-1.3-0.6-1.5-1.5c0-0.7,0.7-1.6,1.5-1.6
					C200,1024.7,200.8,1025.4,200.8,1026.3z"/>
				<path class="st2" d="M-82.4,756.8c0,0.7-0.7,1.6-1.6,1.5s-1.3-0.6-1.5-1.5c-0.1-0.7,0.7-1.6,1.5-1.6
					C-83.1,755.4-82.4,756.1-82.4,756.8z"/>
				<path class="st2" d="M179.9,1037.7c-0.7,0-1.5-0.7-1.5-1.6s0.7-1.6,1.6-1.5s1.3,0.6,1.5,1.5
					C181.5,1036.9,180.8,1037.7,179.9,1037.7z"/>
				<path class="st2" d="M-169.2,825.2c0,0.9-0.7,1.6-1.6,1.5s-1.3-0.6-1.5-1.5c0-0.7,0.7-1.6,1.5-1.6
					C-169.9,823.8-169,824.5-169.2,825.2z"/>
				<path class="st2" d="M197.7,833.7c-0.9,0-1.6-0.7-1.5-1.6c0.1-0.9,0.6-1.3,1.5-1.5c0.7,0,1.6,0.7,1.6,1.5
					C199.3,833,198.6,833.7,197.7,833.7z"/>
				<path class="st2" d="M209.2,851.5c0,0.7-0.7,1.6-1.5,1.6c-0.7,0-1.6-0.7-1.5-1.6c0-0.9,0.6-1.3,1.5-1.5
					C208.4,849.9,209.2,850.6,209.2,851.5z"/>
				<path class="st2" d="M188.1,811c0.7,0.9,1.5,1.5,1.5,1.9c0,0.6-0.7,1.3-1.3,1.5c-0.4,0.1-1.3-0.7-1.3-1.3
					C186.8,812.6,187.5,812,188.1,811z"/>
				<path class="st2" d="M219.4,871.1c-0.9,0.6-1.5,1.3-2,1.3c-0.4,0-1.3-0.9-1.3-1.3c0.1-0.6,0.9-1.3,1.5-1.3
					C218.1,869.6,218.7,870.5,219.4,871.1z"/>
				<path class="st2" d="M232.4,926.2c-0.6-0.9-1.3-1.5-1.3-2c0-0.4,0.9-1,1.3-1.5c0.4,0.4,1.3,0.9,1.5,1.5
					C233.9,924.7,233.2,925.3,232.4,926.2z"/>
				<path class="st2" d="M94.4,1056.3c-0.4,0.3-1,0.9-1.5,1c-0.7,0.1-1.3-0.4-1.3-1.2c0-0.7,0.4-1.3,1.3-1.2c0.6,0.1,1,0.6,1.5,1
					C94.4,1056,94.4,1056.2,94.4,1056.3z"/>
				<path class="st2" d="M-52.8,1007.2c0.3,0.4,0.9,0.9,1,1.5c0.1,0.7-0.4,1.3-1.2,1.3c-0.7,0-1.3-0.4-1.2-1.3c0.1-0.6,0.6-1,1-1.5
					C-53.2,1007.2-52.9,1007.2-52.8,1007.2z"/>
				<path class="st2" d="M237.8,956.5c0.3,0.4,0.9,0.9,1,1.5c0.1,0.7-0.4,1.3-1.2,1.3c-0.7,0-1.3-0.4-1.3-1.2c0-0.6,0.6-1,0.9-1.5
					C237.4,956.5,237.5,956.5,237.8,956.5z"/>
				<path class="st2" d="M91.1,763.8c0.3,0.4,0.9,0.9,1,1.5c0.1,0.7-0.4,1.3-1.2,1.3s-1.3-0.4-1.3-1.2c0.1-0.6,0.6-1,0.9-1.5
					C90.6,763.8,90.8,763.8,91.1,763.8z"/>
				<path class="st2" d="M229.1,890.3c-0.7,0.6-1.2,1.2-1.8,1.2c-0.4,0-1.2-0.7-1.2-1c0-0.4,0.7-1.2,1.2-1.2
					C227.8,889.1,228.3,889.7,229.1,890.3z"/>
				<path class="st2" d="M178.2,792c0.6,0.7,1.2,1.2,1.2,1.6s-0.7,1.2-1,1.2c-0.4,0-1.2-0.6-1.3-1C177,793.3,177.7,792.9,178.2,792z
					"/>
				<path class="st2" d="M218.9,1017.8c-0.6-0.7-1-1.2-1-1.5c0-0.4,0.6-0.9,1-1c0.3,0,0.9,0.6,1,0.9
					C219.7,1016.6,219.3,1017.1,218.9,1017.8z"/>
				<path class="st2" d="M-145.7,752.6c-0.6,0.4-1,0.9-1.3,0.9s-0.6-0.6-1-1c0.3-0.3,0.7-0.9,1-0.9
					C-146.6,751.6-146.3,752.2-145.7,752.6z"/>
				<path class="st2" d="M242.3,942.2c0.4,0.6,1,1,1,1.3s-0.6,1-0.9,1c-0.3,0-0.9-0.6-1-0.9C241.3,943.3,241.9,942.8,242.3,942.2z"
					/>
				<path class="st2" d="M155,769.7c-0.6,0.4-1,0.9-1.3,0.9s-0.6-0.6-1-1c0.3-0.3,0.7-0.9,1-0.9C154.1,768.6,154.5,769.2,155,769.7z
					"/>
				<path class="st2" d="M-179.7,757.4c-0.6,0.4-0.9,0.9-1.2,0.9s-0.7-0.4-0.7-0.7c0-0.1,0.4-0.7,0.7-0.7
					C-180.7,756.8-180.4,757.1-179.7,757.4z"/>
				<path class="st2" d="M243.8,992c-0.7,0.4-1,0.7-1.3,0.7s-0.6-0.4-0.7-0.9c0-0.1,0.4-0.6,0.7-0.6
					C242.9,991.3,243.2,991.6,243.8,992z"/>
				<path class="st2" d="M238.6,909.6c-0.7,0.4-1,0.7-1.3,0.7s-0.6-0.4-0.7-0.9c0-0.1,0.4-0.7,0.7-0.7
					C237.7,908.8,238,909.3,238.6,909.6z"/>
				<path class="st2" d="M212.6,838.4c-0.4-0.6-0.9-1-0.9-1.2c0-0.3,0.4-0.7,0.7-0.7c0.1,0,0.7,0.4,0.7,0.7
					C213.3,837.4,212.9,837.6,212.6,838.4z"/>
				<path class="st2" d="M-184.4,772.1c-0.7,0.4-1,0.7-1.3,0.7s-0.6-0.6-0.7-0.9c0-0.1,0.4-0.6,0.7-0.6
					C-185.2,771.3-184.9,771.7-184.4,772.1z"/>
			</g>
		</g>
	</g>
</g>
</svg>
