<?xml version="1.0" encoding="utf-8"?>
<!-- Generator: Adobe Illustrator 24.2.3, SVG Export Plug-In . SVG Version: 6.00 Build 0)  -->
<svg version="1.1" id="Mano_x5F_2" xmlns="http://www.w3.org/2000/svg" xmlns:xlink="http://www.w3.org/1999/xlink" x="0px" y="0px"
	 viewBox="0 0 1080 1080" style="enable-background:new 0 0 1080 1080;" xml:space="preserve">
<style type="text/css">
	.st0{fill:#FF8500;}
</style>
<path class="st0" d="M874.3,397.7c-18.2-39.5-52.1-189.5-62.7-213.3C749.9,45.7,921,74,941.7,112.2s106.8,271.5,94.5,358.6
	c-10.5,75.3-8.2,178.6-2.6,233c8.9,86.9-70.5,338.3-82.1,282.1c-5-24.2,44.5-126.5,30.9-124.1c-13.6,2.3-73.8,140.6-106.9,137.1
	c-33.3-3.5-21.6-6.4-3.4-24.5c18.2-18.1,64.5-87.8,62.1-101.2c-2.3-13.6-111.6,95.1-144.3,89.7c-32.7-5.4,100.8-51.4,99.8-120.1
	c0,0-83.7,78-116.1,79.1c-32.4,1-8.9-22.9,12.5-37.8c21.6-15,78.2-42.3,84.8-78.9c6.6-36.5,11.1-58.8-12.7-29.5
	c-23.6,29.3-64.3,70.9-67.8,48.3c-7.3-46.7,62.1-101.2,82.7-163.5c20.6-62.3,50.2-111.3,25.5-187S874.3,397.7,874.3,397.7z"/>
</svg>
