<svg width="26" height="25" viewBox="0 0 26 25" fill="none" xmlns="http://www.w3.org/2000/svg">
<path d="M12.2311 0C12.7382 0 13.2453 0 13.8031 0C13.8538 0 13.9045 0.0507099 14.0059 0.0507099C15.9329 0.20284 17.7585 0.760649 19.3812 1.77485C22.6266 3.75254 24.6043 6.59229 25.2635 10.2941C25.365 10.7505 25.4157 11.2069 25.4664 11.6633C25.4664 12.1704 25.4664 12.6775 25.4664 13.1846C25.4157 13.5903 25.365 14.0467 25.3143 14.4523C24.5029 18.7627 22.1195 21.856 18.1642 23.783C17.6571 24.0365 17.0992 24.1886 16.4907 24.4422C16.4907 21.3489 16.4907 18.3063 16.4907 15.213C17.4035 15.213 18.2656 15.213 19.1276 15.213C19.2798 14.1481 19.3812 13.1339 19.5333 12.1197C18.9755 12.1197 18.5191 12.1197 18.012 12.1197C17.5049 12.1197 16.9978 12.1197 16.4907 12.1197C16.4907 11.359 16.4907 10.5984 16.4907 9.88844C16.4907 9.12779 16.9471 8.6714 17.7078 8.6714C18.2656 8.62069 18.8234 8.6714 19.3812 8.6714C19.4826 8.6714 19.5333 8.6714 19.6347 8.6714C19.6347 7.70791 19.6347 6.79513 19.6347 5.88235C18.6205 5.78093 17.6571 5.67951 16.6936 5.83164C16.2372 5.88235 15.7301 6.03448 15.2737 6.23732C13.9552 6.84584 13.3974 8.01217 13.296 9.38134C13.2453 10.2434 13.2453 11.0548 13.2453 11.9168C13.2453 12.0183 13.2453 12.1197 13.2453 12.2211C12.3325 12.2211 11.4704 12.2211 10.6084 12.2211C10.6084 13.286 10.6084 14.3002 10.6084 15.3144C11.5211 15.3144 12.3832 15.3144 13.2453 15.3144C13.2453 18.5598 13.2453 21.7546 13.2453 25C12.2818 25 11.369 24.9493 10.4562 24.7465C7.41364 24.0872 4.97957 22.5152 3.1033 20.0811C1.12561 17.4949 0.364964 14.5538 0.669223 11.3083C0.922773 8.6714 1.93697 6.33874 3.71182 4.36105C5.6388 2.18053 8.02216 0.862069 10.9126 0.35497C11.369 0.10142 11.8254 0.0507099 12.2311 0Z" fill="white"/>
</svg>
