<svg width="25" height="25" viewBox="0 0 25 25" fill="none" xmlns="http://www.w3.org/2000/svg">
<path d="M0.572006 12.1704C0.572006 5.42596 6.04868 0 12.7424 0C19.4868 0 24.9128 5.47667 24.9128 12.1704C24.9128 18.9148 19.4361 24.3408 12.7424 24.3408C5.99797 24.3408 0.572006 18.8641 0.572006 12.1704ZM5.23732 12.1704C5.23732 13.0832 5.18661 13.9959 5.23732 14.9594C5.23732 15.3144 5.23732 15.6694 5.28803 16.0243C5.49087 17.4442 6.20081 18.6105 7.56998 19.2191C8.27992 19.5233 8.98986 19.6755 9.75051 19.6755C11.6268 19.6755 13.5538 19.6755 15.43 19.6755C15.8357 19.6755 16.2414 19.6247 16.6471 19.574C18.1684 19.3205 19.3347 18.5598 19.8925 17.0385C20.146 16.43 20.2475 15.7708 20.2475 15.1116C20.2475 13.2353 20.2475 11.359 20.2475 9.48276C20.2475 9.12779 20.2475 8.77282 20.1968 8.41785C19.9432 6.89655 19.1826 5.73022 17.712 5.1217C17.1034 4.86815 16.4442 4.76673 15.785 4.76673C13.7566 4.76673 11.7282 4.76673 9.75051 4.76673C8.93915 4.76673 8.12779 4.91886 7.36714 5.32454C5.99797 6.08519 5.38945 7.30223 5.28803 8.82353C5.18661 9.88844 5.23732 11.0548 5.23732 12.1704Z" fill="white"/>
<path d="M12.7424 6.13567C13.7566 6.13567 14.7201 6.13567 15.7343 6.13567C16.0385 6.13567 16.3935 6.18638 16.6978 6.23709C17.9148 6.49064 18.6755 7.40342 18.8276 8.62046C18.8783 8.87401 18.8783 9.17827 18.8783 9.43182C18.8783 11.2574 18.8783 13.1336 18.8783 14.9592C18.8783 15.4156 18.8276 15.872 18.6755 16.3284C18.3205 17.444 17.4584 18.0525 16.3428 18.1032C14.9229 18.2046 13.503 18.1539 12.0832 18.2046C11.1197 18.2046 10.2069 18.2046 9.24341 18.1539C7.82353 18.0525 6.86004 17.089 6.6572 15.6691C6.60649 15.4156 6.60649 15.162 6.60649 14.9085C6.60649 13.0322 6.60649 11.156 6.60649 9.27969C6.60649 8.8233 6.70791 8.36691 6.80933 7.96123C7.1643 6.84561 8.02637 6.2878 9.14199 6.18638C10.1055 6.13567 11.1197 6.13567 12.0832 6.08496C12.3367 6.08496 12.5396 6.13567 12.7424 6.13567ZM12.7424 8.21478C10.5112 8.21478 8.78702 9.98963 8.78702 12.2209C8.78702 14.4014 10.5619 16.1762 12.7931 16.1255C14.9736 16.1255 16.6978 14.3507 16.6978 12.1702C16.6978 9.98963 14.9229 8.21478 12.7424 8.21478ZM16.6978 9.02614C17.1542 9.02614 17.5091 8.67117 17.5091 8.26549C17.5091 7.8091 17.1542 7.45413 16.7485 7.45413C16.2921 7.45413 15.9371 7.8091 15.9371 8.26549C15.9371 8.67117 16.2921 9.02614 16.6978 9.02614Z" fill="white"/>
<path d="M10.2069 12.1702C10.2069 10.7503 11.3225 9.63469 12.7424 9.58398C14.1623 9.58398 15.2779 10.6996 15.3286 12.1195C15.3286 13.5394 14.213 14.655 12.7931 14.7057C11.3225 14.7564 10.2069 13.5901 10.2069 12.1702Z" fill="white"/>
</svg>
