<svg width="25" height="25" viewBox="0 0 25 25" fill="none" xmlns="http://www.w3.org/2000/svg">
<path d="M11.9493 0C12.4564 0 12.9635 0 13.4706 0C13.5213 0 13.572 0.05071 13.6734 0.05071C15.5497 0.20284 17.3245 0.760649 18.9473 1.72414C22.0913 3.65112 24.0183 6.44016 24.6775 10.0913C24.7789 10.5477 24.7789 11.0041 24.8803 11.4097C24.8803 11.9168 24.8803 12.4239 24.8803 12.931C24.8803 13.0832 24.8296 13.2353 24.8296 13.3874C24.5761 15.7708 23.714 17.9513 22.142 19.8276C20.215 22.1602 17.7809 23.5801 14.8398 24.1379C14.3834 24.2393 13.927 24.2394 13.4706 24.3408C12.9635 24.3408 12.4564 24.3408 11.9493 24.3408C11.645 24.2901 11.3408 24.2901 11.0365 24.2394C8.80527 23.9351 6.77687 23.073 5.00203 21.6024C2.72008 19.7262 1.24949 17.2414 0.742391 14.3002C0.640971 13.8438 0.590261 13.3874 0.539551 12.931C0.539551 12.4239 0.539551 11.9168 0.539551 11.4097C0.539551 11.2576 0.590261 11.1055 0.590261 10.9533C0.89452 8.36714 1.85801 6.08519 3.58215 4.15822C5.45842 2.0284 7.84178 0.709939 10.6308 0.20284C11.0872 0.10142 11.4929 0.0507099 11.9493 0ZM10.8337 18.4077C11.7972 18.4077 12.8114 18.4077 13.7748 18.4077C13.7748 18.3063 13.7748 18.2049 13.7748 18.1034C13.7748 16.9371 13.7748 15.7708 13.7748 14.6045C13.7748 14.0974 13.7748 13.641 13.7748 13.1339C13.7748 12.6268 14.0791 12.2211 14.4848 11.9168C15.3469 11.3083 16.4625 11.6633 16.7667 12.6775C16.8682 12.9817 16.9189 13.3874 16.9189 13.6917C16.9189 15.1623 16.9189 16.6329 16.9189 18.1542C16.9189 18.2556 16.9189 18.3063 16.9189 18.4077C17.9331 18.4077 18.8965 18.4077 19.86 18.4077C19.86 18.3063 19.86 18.2556 19.86 18.1542C19.86 16.5821 19.86 14.9594 19.86 13.3874C19.86 13.0325 19.86 12.6775 19.8093 12.3225C19.6065 10.5984 18.5416 9.48276 16.8682 9.27992C15.6511 9.12779 14.6369 9.48276 13.927 10.5477C13.8763 10.5984 13.8763 10.5984 13.7748 10.6998C13.7748 10.2434 13.7748 9.88844 13.7748 9.48276C12.7606 9.48276 11.7972 9.48276 10.8337 9.48276C10.8337 12.4746 10.8337 15.4158 10.8337 18.4077ZM6.21906 9.48276C6.21906 12.4746 6.21906 15.4158 6.21906 18.4077C7.23326 18.4077 8.19675 18.4077 9.16024 18.4077C9.16024 18.3063 9.16024 18.2049 9.16024 18.1034C9.16024 15.4665 9.16024 12.7789 9.16024 10.142C9.16024 9.98986 9.16024 9.88844 9.16024 9.73631C9.16024 9.53347 9.10953 9.53347 8.90669 9.53347C8.14604 9.53347 7.33468 9.53347 6.57403 9.53347C6.47261 9.48276 6.37119 9.48276 6.21906 9.48276ZM6.01622 6.74442C6.01622 7.6572 6.72616 8.26572 7.68965 8.26572C8.65314 8.26572 9.36308 7.60649 9.36308 6.74442C9.36308 5.83164 8.65314 5.17241 7.68965 5.22312C6.72616 5.17241 6.01622 5.83164 6.01622 6.74442Z" fill="white"/>
</svg>
