<svg width="185" height="64" viewBox="0 0 185 64" fill="none" xmlns="http://www.w3.org/2000/svg">
<path d="M69.08 9.24C68.88 9.08 68.68 9 68.44 9H66.04C65.68 9 65.44 9.16 65.32 9.28C65.16 9.44 65.08 9.68 65.08 9.92V26.32C65.08 26.92 65.44 27.28 66.04 27.28H68.44C69.04 27.28 69.44 26.92 69.44 26.32V9.92C69.4 9.64 69.28 9.4 69.08 9.24Z" fill="#686868"/>
<path d="M92.68 9H90.36C90.12 9 89.92 9.08 89.76 9.2C89.6 9.36 89.48 9.56 89.44 9.8V19.8C88.32 18.24 87.2 16.72 86.12 15.2C84.76 13.32 83.4 11.44 82.04 9.52C81.92 9.36 81.76 9.24 81.6 9.16C81.44 9.08 81.28 9.04 81.08 9.04H78.32C77.96 9.04 77.72 9.2 77.6 9.32C77.44 9.48 77.36 9.72 77.36 10V26.4C77.36 26.72 77.48 26.96 77.6 27.04C77.76 27.2 78 27.32 78.32 27.32H80.6401C80.96 27.32 81.2 27.24 81.36 27.08C81.52 26.92 81.6 26.68 81.6 26.4V15.96C82.76 17.6 83.88 19.24 85.04 20.84C86.44 22.84 87.84 24.84 89.28 26.84C89.56 27.24 89.88 27.32 90.12 27.32H92.76C93.48 27.32 93.76 26.84 93.76 26.4V9.96C93.76 9.68 93.64 9.44 93.44 9.24C93.2 9.08 92.96 9 92.68 9Z" fill="#686868"/>
<path d="M115 22.64L114.96 22.6C114.72 22.32 114.48 22.2 114.2 22.2H114.12C114.08 22.2 114 22.24 113.92 22.24C113.8 22.28 113.68 22.32 113.56 22.4C113.08 22.72 112.6 23 112.04 23.16C111.48 23.36 110.92 23.44 110.32 23.44C109.56 23.44 108.84 23.32 108.24 23.04C107.6 22.76 107.04 22.4 106.6 21.92C106.16 21.44 105.76 20.88 105.52 20.24C105.28 19.6 105.12 18.92 105.12 18.16C105.12 17.4 105.24 16.72 105.52 16.08C105.76 15.44 106.12 14.88 106.6 14.4C107.04 13.92 107.6 13.56 108.24 13.28C108.88 13 109.56 12.88 110.32 12.88C110.92 12.88 111.48 12.96 112.04 13.16C112.56 13.36 113.08 13.6 113.6 13.96C113.68 14 113.8 14.08 113.88 14.08C114 14.12 114.08 14.12 114.16 14.12C114.36 14.12 114.64 14.04 114.92 13.68L116.12 11.68C116.2 11.52 116.24 11.36 116.24 11.2C116.24 11 116.16 10.8 116.04 10.64C115.96 10.52 115.84 10.44 115.68 10.36C114.88 9.84001 114.04 9.44001 113.16 9.20001C111.48 8.68001 109.48 8.64001 107.72 9.12001C106.92 9.36001 106.12 9.68001 105.4 10.08C104.68 10.48 104.04 10.96 103.44 11.56C102.84 12.12 102.36 12.76 101.92 13.48C101.52 14.16 101.16 14.92 100.96 15.72C100.72 16.52 100.6 17.36 100.6 18.24C100.6 19.12 100.72 19.96 100.96 20.76C101.2 21.56 101.52 22.32 101.92 23C102.32 23.68 102.84 24.32 103.44 24.88C104.04 25.44 104.68 25.96 105.4 26.36C106.12 26.76 106.88 27.08 107.72 27.32C108.52 27.56 109.4 27.64 110.28 27.64C111.28 27.64 112.24 27.48 113.16 27.2C114.08 26.92 114.92 26.52 115.72 26C115.84 25.92 115.92 25.84 116 25.76C116.16 25.6 116.24 25.4 116.24 25.2C116.24 25.04 116.2 24.92 116.12 24.72L115 22.64Z" fill="#686868"/>
<path d="M138.2 9H135.88C135.6 9 135.36 9.08 135.2 9.28C135 9.48 134.92 9.68 134.92 9.96V19.8C134.92 20.36 134.84 20.92 134.68 21.4C134.52 21.88 134.28 22.28 134 22.6C133.72 22.92 133.32 23.16 132.88 23.36C132.44 23.56 131.92 23.64 131.36 23.64C130.84 23.64 130.32 23.56 129.88 23.4C129.44 23.24 129.08 23 128.76 22.68C128.44 22.36 128.2 21.96 128.04 21.48C127.88 21 127.76 20.44 127.76 19.84V10C127.76 9.8 127.68 9.52 127.4 9.32C127.2 9.16 127 9.08 126.76 9.08H124.28C124 9.08 123.76 9.2 123.6 9.4C123.44 9.6 123.36 9.8 123.36 10.04V20C123.36 21.24 123.56 22.32 124 23.28C124.44 24.24 125 25.04 125.72 25.68C126.44 26.32 127.28 26.84 128.24 27.16C129.2 27.48 130.2 27.64 131.28 27.64C132.32 27.64 133.36 27.48 134.28 27.16C135.24 26.84 136.08 26.36 136.8 25.72C137.52 25.08 138.12 24.28 138.52 23.32C138.96 22.36 139.16 21.24 139.16 19.96V10C139.16 9.72 139.04 9.48 138.84 9.32C138.68 9.08 138.44 9 138.2 9Z" fill="#686868"/>
<path d="M160.96 19.12C160.76 18.76 160.52 18.4 160.24 18.04C160.04 17.84 159.84 17.64 159.64 17.44C159.92 17.08 160.2 16.68 160.36 16.2C160.6 15.6 160.76 14.96 160.76 14.28C160.76 13.52 160.6 12.84 160.32 12.2C160.04 11.56 159.64 11 159.16 10.52C158.68 10.04 158.08 9.68 157.44 9.4C156.76 9.12 156.04 9 155.32 9H147.76C147.16 9 146.8 9.36 146.8 9.96V26.32C146.8 26.68 146.96 26.92 147.12 27.04C147.28 27.2 147.52 27.24 147.8 27.24H156.12C156.88 27.24 157.64 27.08 158.32 26.8C159 26.52 159.6 26.08 160.08 25.56C160.56 25.04 160.96 24.44 161.28 23.76C161.56 23.08 161.72 22.36 161.72 21.6C161.72 21.16 161.68 20.72 161.56 20.28C161.36 19.92 161.16 19.52 160.96 19.12ZM156.44 14.36C156.44 14.6 156.4 14.84 156.32 15.04C156.24 15.24 156.12 15.44 155.96 15.6C155.8 15.76 155.6 15.88 155.4 15.96C155.16 16.04 154.92 16.08 154.68 16.08H151.2V12.68H154.72C155 12.68 155.24 12.72 155.44 12.8C155.64 12.88 155.84 13 156 13.16C156.16 13.32 156.28 13.48 156.36 13.68C156.36 13.92 156.44 14.12 156.44 14.36ZM156.28 19.96C156.48 20.08 156.64 20.2 156.76 20.36C156.92 20.52 157 20.72 157.08 20.92C157.16 21.12 157.2 21.32 157.2 21.56C157.2 21.8 157.16 22.04 157.08 22.24C157 22.44 156.88 22.64 156.76 22.84C156.6 23 156.44 23.16 156.24 23.28C156.04 23.4 155.84 23.48 155.6 23.48C155.44 23.52 155.32 23.52 155.16 23.52C155 23.52 154.84 23.52 154.68 23.52H151.08V19.6H154.68C154.84 19.6 155 19.6 155.12 19.64C155.28 19.64 155.44 19.68 155.6 19.72C155.88 19.76 156.08 19.84 156.28 19.96Z" fill="#686868"/>
<path d="M184.68 26.28C184.68 26.24 184.68 26.24 184.68 26.28V26.16L178.28 10.56L177.88 9.64L177.84 9.6C177.8 9.52 177.72 9.4 177.6 9.28C177.44 9.08 177.2 9 176.88 9H174.92C174.56 9 174.32 9.16 174.2 9.28C174.04 9.44 173.96 9.56 173.88 9.72L167.36 25.48C167.32 25.6 167.28 25.72 167.24 25.84C167.2 26 167.12 26.16 167.08 26.32C167.08 26.4 167.04 26.44 167.04 26.56C167.04 26.8 167.16 27.04 167.4 27.16C167.56 27.24 167.76 27.32 168 27.32H170.4C170.88 27.32 171.24 27.08 171.44 26.6C171.56 26.24 171.76 25.84 171.92 25.36C172.08 24.96 172.24 24.52 172.44 24.08H179.32C179.44 24.36 179.56 24.68 179.68 24.96L180.36 26.64C180.44 26.84 180.6 27.04 180.76 27.16C180.92 27.28 181.16 27.36 181.44 27.36H183.8C184.52 27.36 184.76 26.96 184.76 26.6C184.72 26.44 184.72 26.36 184.68 26.28ZM177.84 20.16H173.96C174.32 19.28 174.68 18.36 175.04 17.4C175.32 16.6 175.64 15.84 175.92 15.08L177.84 20.16Z" fill="#686868"/>
<path d="M107.56 41.08C108.16 41.08 108.76 41.16 109.32 41.32C109.88 41.48 110.4 41.68 110.88 41.96C111.36 42.24 111.8 42.56 112.2 42.96C112.6 43.36 112.96 43.8 113.24 44.24C113.52 44.72 113.76 45.24 113.92 45.76C114.08 46.32 114.16 46.88 114.16 47.48C114.16 48.08 114.08 48.64 113.92 49.16C113.76 49.72 113.56 50.2 113.24 50.68C112.96 51.16 112.6 51.6 112.2 51.96C111.8 52.36 111.36 52.68 110.88 52.96C110.4 53.24 109.88 53.44 109.32 53.6C108.76 53.76 108.16 53.84 107.56 53.84C106.96 53.84 106.36 53.76 105.8 53.6C105.24 53.44 104.72 53.24 104.24 52.96C103.76 52.68 103.32 52.36 102.92 51.96C102.52 51.56 102.16 51.16 101.88 50.68C101.6 50.2 101.36 49.68 101.24 49.16C101.08 48.6 101 48.04 101 47.44C101 46.84 101.08 46.28 101.24 45.76C101.4 45.2 101.6 44.72 101.92 44.24C102.2 43.76 102.56 43.32 102.96 42.92C103.36 42.52 103.8 42.2 104.28 41.92C104.76 41.64 105.28 41.44 105.84 41.28C106.4 41.16 106.96 41.08 107.56 41.08ZM102.64 47.44C102.64 47.88 102.68 48.32 102.8 48.72C102.92 49.12 103.08 49.52 103.28 49.88C103.48 50.24 103.76 50.56 104.04 50.84C104.32 51.12 104.68 51.36 105.04 51.6C105.4 51.8 105.8 51.96 106.2 52.08C106.6 52.2 107.04 52.24 107.52 52.24C107.96 52.24 108.4 52.2 108.84 52.08C109.24 51.96 109.64 51.8 110 51.6C110.36 51.4 110.68 51.16 111 50.84C111.28 50.56 111.56 50.24 111.76 49.88C111.96 49.52 112.12 49.16 112.24 48.72C112.36 48.32 112.4 47.88 112.4 47.44C112.4 46.8 112.28 46.16 112 45.6C111.76 45.04 111.4 44.52 110.96 44.08C110.52 43.64 110 43.32 109.4 43.04C108.8 42.8 108.16 42.68 107.48 42.68C107.04 42.68 106.6 42.72 106.16 42.84C105.76 42.96 105.36 43.12 105 43.32C104.64 43.52 104.32 43.76 104 44.08C103.72 44.36 103.44 44.68 103.24 45.04C103.04 45.4 102.88 45.76 102.76 46.2C102.72 46.6 102.64 47 102.64 47.44Z" fill="#686868"/>
<path d="M129.52 53.68C129.4 53.68 129.28 53.6 129.2 53.48L121.68 43.68V53.32C121.68 53.56 121.56 53.68 121.28 53.68H120.4C120.16 53.68 120.04 53.56 120.04 53.32V41.64C120.04 41.52 120.08 41.44 120.16 41.36C120.24 41.28 120.32 41.24 120.44 41.24H121.6C121.76 41.24 121.88 41.32 121.96 41.44L129.28 50.92V41.56C129.32 41.36 129.44 41.24 129.64 41.24H130.52C130.64 41.24 130.72 41.28 130.8 41.36C130.88 41.44 130.92 41.52 130.92 41.64V53.36C130.92 53.6 130.76 53.72 130.48 53.72H129.52V53.68Z" fill="#686868"/>
<path d="M145.72 48.56C145.72 48.32 145.84 48.2 146.08 48.2H146.96C147.08 48.2 147.16 48.24 147.24 48.28C147.32 48.36 147.36 48.44 147.36 48.56V52.32C147.36 52.4 147.36 52.44 147.32 52.52C147.28 52.56 147.24 52.64 147.16 52.68L147.08 52.72C146.52 53.12 145.96 53.4 145.28 53.6C144.64 53.8 143.92 53.92 143.16 53.92C142.56 53.92 141.96 53.84 141.4 53.68C140.84 53.52 140.32 53.32 139.84 53.04C139.36 52.76 138.92 52.44 138.52 52.04C138.12 51.64 137.76 51.24 137.48 50.76C137.2 50.28 136.96 49.76 136.84 49.24C136.68 48.68 136.6 48.12 136.6 47.52C136.6 46.92 136.68 46.36 136.84 45.84C137 45.28 137.2 44.8 137.52 44.32C137.8 43.84 138.16 43.4 138.56 43C138.96 42.6 139.4 42.28 139.88 42C140.36 41.72 140.88 41.52 141.44 41.36C142 41.2 142.6 41.12 143.2 41.12C143.92 41.12 144.6 41.24 145.24 41.44C145.88 41.64 146.52 41.96 147.08 42.36C147.16 42.4 147.2 42.44 147.24 42.52C147.28 42.56 147.32 42.64 147.32 42.72C147.32 42.8 147.28 42.88 147.24 42.92L146.8 43.64C146.72 43.76 146.6 43.84 146.48 43.84C146.44 43.84 146.4 43.84 146.36 43.8C146.32 43.8 146.24 43.76 146.2 43.72C145.8 43.44 145.32 43.2 144.84 43.04C144.36 42.88 143.84 42.8 143.28 42.8C142.56 42.8 141.92 42.92 141.32 43.2C140.72 43.48 140.2 43.8 139.76 44.24C139.32 44.68 138.96 45.2 138.72 45.76C138.48 46.32 138.36 46.92 138.36 47.56C138.36 48.24 138.48 48.84 138.76 49.44C139 50 139.36 50.52 139.8 50.96C140.24 51.4 140.76 51.72 141.36 51.96C141.96 52.2 142.56 52.32 143.24 52.32C143.64 52.32 144.08 52.24 144.48 52.12C144.88 52 145.32 51.84 145.76 51.64V48.56H145.72Z" fill="#686868"/>
<path d="M93.76 45.68H65.12V47.08H93.76V45.68Z" fill="#686868"/>
<path d="M184.8 45.68H156.16V47.08H184.8V45.68Z" fill="#686868"/>
<path d="M42.2 11.64C37.76 4.12 31.56 0 24.72 0C18.16 0 12 4.28 7.36001 12.08C3.16001 19.12 0.76001 28.04 0.76001 36.56C0.76001 44.72 3.20001 51.56 7.84001 56.32C12.12 60.68 18.08 63.08 24.68 63.08C31.36 63.08 37.12 60.92 41.28 56.84C46.04 52.2 48.44 45.44 48.44 36.76C48.48 27.52 46.2 18.4 42.2 11.64ZM24.72 2.68C37.64 2.68 45.64 20.44 45.64 36.84C45.64 51.56 37.84 60.36 24.72 60.36C15 60.36 3.60001 54.16 3.60001 36.64C3.60001 28.64 5.92001 19.92 9.84001 13.36C14 6.48 19.28 2.68 24.72 2.68Z" fill="#FF8500"/>
<path d="M35.88 26.6C35.88 26.16 35.6 25.76 35.16 25.56L25.16 21.08C24.8 20.92 24.36 20.92 24 21.08L14.28 25.56C13.84 25.76 13.56 26.16 13.56 26.6V38.64C13.56 39.08 13.84 39.48 14.28 39.68L24.08 43.88C24.24 43.96 24.44 44 24.64 44C24.84 44 25 43.96 25.2 43.88L35.12 39.68C35.56 39.48 35.88 39.08 35.88 38.64C35.88 38.64 35.88 38.64 35.88 38.6V26.6ZM15.8 28.2L23.92 31.2C24.08 31.28 24.28 31.32 24.48 31.32C24.68 31.32 24.84 31.28 25.04 31.2L33.28 28.32V36.92L25.24 34C24.88 33.84 24.44 33.84 24.08 34L15.8 37.04V28.2ZM24.64 23.28L32 26.36L24.48 28.84L17.4 26.36L24.64 23.28ZM24.52 41.48L17.52 38.76L24.72 36.12L32.04 38.56L24.52 41.48Z" fill="#FF8500"/>
</svg>
