<svg width="25" height="25" viewBox="0 0 25 25" fill="none" xmlns="http://www.w3.org/2000/svg">
<path d="M11.75 0.25C12.25 0.25 12.75 0.25 13.3 0.25C13.35 0.25 13.4 0.3 13.5 0.3C15.6 0.45 17.55 1.1 19.3 2.3C22.2 4.25 24 6.95 24.65 10.4C24.75 10.85 24.8 11.3 24.85 11.75C24.85 12.25 24.85 12.75 24.85 13.3C24.85 13.35 24.8 13.4 24.8 13.5C24.7 14.05 24.65 14.6 24.55 15.2C23.55 20 19.55 23.8 14.7 24.65C14.25 24.75 13.8 24.8 13.35 24.85C12.85 24.85 12.35 24.85 11.8 24.85C11.75 24.85 11.7 24.8 11.65 24.8C9.3 24.6 7.2 23.85 5.35 22.45C2.75 20.5 1.1 17.9 0.549998 14.7C0.449998 14.25 0.399998 13.8 0.349998 13.35C0.349998 12.85 0.349998 12.35 0.349998 11.8C0.399998 11.5 0.399998 11.2 0.449998 10.9C0.849998 8.25 1.95 5.95 3.85 4C5.7 2.1 7.9 0.95 10.5 0.5C10.85 0.35 11.3 0.3 11.75 0.25ZM10.95 9C11.3 9 11.95 9.05 12.6 9.1C14.4 9.25 16.15 9.55 17.8 10.2C18.45 10.45 19.1 10.8 19.75 11.1C20.5 11.45 21.25 11.1 21.45 10.3C21.55 9.75 21.3 9.25 20.75 8.95C18.4 7.6 15.8 7 13.1 6.75C11.35 6.6 9.6 6.55 7.85 6.8C6.85 6.95 5.9 7.15 4.9 7.4C4.5 7.5 4.2 7.75 4.1 8.2C3.85 9.2 4.6 9.95 5.65 9.65C7.25 9.2 8.95 9.05 10.95 9ZM19.75 14.15C19.75 13.65 19.6 13.35 19.25 13.15C18.95 13 18.7 12.8 18.4 12.65C15.9 11.4 13.25 10.85 10.5 10.85C8.85 10.85 7.3 11.05 5.7 11.5C5.05 11.7 4.7 12.2 4.9 12.8C5.05 13.4 5.55 13.6 6.25 13.45C7.15 13.25 8.1 13.05 9 12.95C11.45 12.7 13.9 13 16.2 13.9C16.95 14.2 17.65 14.6 18.4 14.95C19.05 15.25 19.75 14.8 19.75 14.15ZM10.5 14.85C9.1 14.85 7.55 15.05 6.05 15.4C5.55 15.5 5.3 15.95 5.4 16.4C5.5 16.85 5.9 17.1 6.4 16.95C7.75 16.6 9.15 16.45 10.55 16.45C12.45 16.45 14.3 16.75 16.05 17.6C16.45 17.8 16.85 18 17.25 18.2C17.7 18.4 18.15 18.15 18.25 17.7C18.35 17.35 18.2 17 17.85 16.75C17.6 16.6 17.35 16.45 17.1 16.35C15.05 15.3 12.9 14.85 10.5 14.85Z" fill="white"/>
</svg>
