<svg width="25" height="25" viewBox="0 0 25 25" fill="none" xmlns="http://www.w3.org/2000/svg">
<path d="M11.714 0C12.2211 0 12.7282 0 13.286 0C13.7424 0.0507099 14.1988 0.10142 14.6552 0.20284C21.0953 1.31846 25.6085 7.35294 24.7972 13.8438C24.3915 17.4442 22.6673 20.3347 19.7262 22.4645C17.0892 24.3915 14.0974 25.1521 10.8012 24.7465C8.31643 24.4422 6.08519 23.428 4.20893 21.7546C2.0284 19.8276 0.709939 17.4442 0.20284 14.6045C0.10142 14.1481 0.0507099 13.6917 0 13.2353C0 12.7282 0 12.2211 0 11.6633C0.0507099 11.359 0.0507099 11.0548 0.10142 10.7505C0.507099 8.06288 1.62272 5.67951 3.5497 3.75254C5.42596 1.87627 7.6572 0.659229 10.2941 0.20284C10.8012 0.10142 11.2576 0.0507099 11.714 0ZM6.08519 10.8012C6.08519 11.4604 6.28803 12.0183 6.69371 12.5761C7.09939 13.0832 7.60649 13.3874 8.26572 13.5903V13.641C7.91075 13.641 7.50507 13.641 7.09939 13.641C7.30223 14.2495 7.60649 14.7059 8.11359 15.0609C8.56998 15.4158 9.12779 15.6187 9.78702 15.6694C8.51927 16.6329 7.1501 16.9878 5.6288 16.8357C5.73022 16.9371 5.83164 16.9371 5.88235 16.9878C6.84584 17.5456 7.86004 17.9006 8.97566 18.0527C10.9026 18.2556 12.6775 17.9513 14.3002 16.8864C16.8357 15.213 18.0527 12.8296 18.1034 9.83773C18.1034 9.6856 18.1542 9.58418 18.2556 9.48276C18.6105 9.12779 18.9655 8.77282 19.3205 8.36714C19.3712 8.31643 19.3712 8.26572 19.4219 8.21501C18.9148 8.36714 18.4584 8.46856 17.9513 8.62069V8.56998C18.5091 8.21501 18.8641 7.70791 19.0669 7.1501C18.5598 7.35294 18.002 7.50507 17.4949 7.70791C17.3428 7.75862 17.2414 7.70791 17.14 7.60649C16.2779 6.84584 15.2637 6.643 14.1988 7.04868C13.1339 7.45436 12.5254 8.26572 12.3732 9.38134C12.3225 9.6856 12.3732 10.0406 12.3732 10.3448C9.98986 10.1927 8.06288 9.1785 6.54158 7.35294C6.18661 8.01217 6.08519 8.6714 6.23732 9.43205C6.38945 10.142 6.79513 10.6998 7.35294 11.1562L7.30223 11.2069C6.84584 11.0041 6.49087 10.9026 6.08519 10.8012Z" fill="white"/>
</svg>
