<?xml version="1.0" encoding="utf-8"?>
<!-- Generator: Adobe Illustrator 24.2.3, SVG Export Plug-In . SVG Version: 6.00 Build 0)  -->
<svg version="1.1" id="Punto1" xmlns="http://www.w3.org/2000/svg" xmlns:xlink="http://www.w3.org/1999/xlink" x="0px" y="0px"
	 viewBox="0 0 1080 1080" style="enable-background:new 0 0 1080 1080;" xml:space="preserve">
<style type="text/css">
	.st0{fill:#FFFFFF;}
	.st1{fill:#FF8500;}
	.st2{fill:#382716;}
</style>
<g>
	<path d="M200.8,256.7h5.2c3.6,0,6.3,1,8.1,2.9s2.6,4.5,2.6,8.1c0,3.4-0.8,6.2-2.6,8.1s-4.4,2.9-8,2.9H201v-22.1h-0.2V256.7z
		 M206.5,277.4c2.8,0,5-0.8,6.6-2.3c1.5-1.5,2.3-4,2.3-7.3c0-1.7-0.1-3-0.6-4.3c-0.4-1.2-1-2.2-1.8-3s-1.8-1.4-2.9-1.8
		c-1.1-0.4-2.3-0.6-3.9-0.6h-4.1v19.3L206.5,277.4L206.5,277.4z"/>
	<path d="M221.4,257.4h1.5v1.8h-1.5V257.4z M221.4,263.2h1.5v15.6h-1.5V263.2z"/>
	<path d="M232.8,279.1c-1.4,0-2.6-0.3-3.6-0.8c-1-0.6-1.8-1.2-2.3-2.1l1.1-0.8c0.6,0.7,1.2,1.4,2.1,1.8c0.7,0.4,1.7,0.7,2.8,0.7
		c1.5,0,2.6-0.3,3.3-0.8s1.1-1.2,1.1-2.2c0-0.4-0.1-0.8-0.3-1.2c-0.1-0.4-0.4-0.7-0.8-1s-0.8-0.6-1.4-0.7c-0.6-0.3-1.4-0.4-2.2-0.7
		c-1-0.3-1.8-0.6-2.5-0.7c-0.7-0.3-1.2-0.6-1.7-1c-0.4-0.4-0.7-0.7-0.8-1.2c-0.1-0.4-0.3-1-0.3-1.5s0.1-1,0.3-1.4
		c0.3-0.4,0.6-0.8,1-1.2s1-0.7,1.7-0.8c0.7-0.3,1.4-0.3,2.2-0.3c1.2,0,2.3,0.3,3.2,0.7c0.8,0.4,1.7,1,2.3,1.7l-1,1
		c-0.6-0.7-1.2-1.1-1.9-1.5s-1.5-0.6-2.6-0.6c-1.2,0-2.2,0.3-2.8,0.8c-0.6,0.6-0.8,1.1-0.8,1.8c0,0.4,0,0.8,0.1,1.1s0.3,0.6,0.7,0.8
		c0.3,0.3,0.7,0.4,1.2,0.7c0.6,0.1,1.1,0.4,1.9,0.6c1.1,0.3,2.1,0.6,2.8,0.8c0.7,0.3,1.4,0.6,1.8,1c0.4,0.4,0.8,0.8,1,1.2
		c0.1,0.6,0.3,1.1,0.3,1.8s-0.1,1.2-0.4,1.8c-0.3,0.6-0.7,1-1.2,1.4c-0.6,0.4-1.1,0.7-1.9,0.8C234.5,278.9,233.7,279.1,232.8,279.1z
		"/>
	<path d="M248.3,279.1c-0.8,0-1.7-0.1-2.5-0.6c-0.8-0.4-1.5-0.8-2.1-1.7c-0.6-0.7-1.1-1.5-1.4-2.6c-0.4-1-0.6-2.2-0.6-3.4
		c0-1.4,0.1-2.5,0.6-3.6c0.4-1,0.8-1.9,1.5-2.5c0.7-0.7,1.4-1.2,2.1-1.5c0.8-0.3,1.7-0.6,2.5-0.6c1,0,1.8,0.1,2.5,0.6
		c0.8,0.4,1.4,1,1.9,1.7s1,1.5,1.2,2.5c0.3,1,0.4,2.1,0.4,3.3v0.3h-11.3c0,1.1,0.1,2.1,0.4,2.9c0.3,0.8,0.7,1.5,1.1,2.2
		c0.4,0.6,1,1,1.7,1.4c0.7,0.3,1.2,0.4,2.1,0.4c1.2,0,2.2-0.3,3-0.8c0.8-0.6,1.4-1.4,2.1-2.3l1.1,0.7c-0.7,1.2-1.4,2.1-2.3,2.8
		C251,278.8,249.8,279.1,248.3,279.1z M253.1,269.8c0-0.8-0.1-1.5-0.4-2.2c-0.3-0.7-0.6-1.4-1-1.8c-0.4-0.6-0.8-1-1.4-1.2
		c-0.6-0.3-1.2-0.4-1.9-0.4c-0.6,0-1.2,0.1-1.8,0.4s-1.1,0.6-1.5,1.1c-0.4,0.4-0.8,1.1-1.2,1.8c-0.4,0.7-0.6,1.5-0.7,2.5h9.9
		L253.1,269.8L253.1,269.8z"/>
	<path d="M258.6,263.2h1.5v2.6c0.8-0.8,1.8-1.5,2.8-2.1s2.1-0.8,3.2-0.8c1.7,0,2.8,0.4,3.6,1.2c0.8,0.8,1.1,1.9,1.1,3.3v11.3h-1.5
		v-11.2c0-1.2-0.3-2.1-0.8-2.6c-0.6-0.6-1.4-0.8-2.6-0.8c-1.1,0-2.1,0.3-3,0.8s-1.9,1.2-2.9,2.2v11.7h-1.5v-15.7h0.1V263.2z
		 M267,261.6c-0.4,0-0.8-0.1-1.2-0.3c-0.4-0.1-0.8-0.4-1.1-0.6s-0.7-0.4-1.1-0.6c-0.4-0.1-0.7-0.3-1-0.3c-0.4,0-0.8,0.1-1,0.4
		c-0.1,0.3-0.3,0.7-0.3,1.2h-1c0-1.9,0.8-2.9,2.3-2.9c0.4,0,0.8,0.1,1.1,0.3c0.4,0.1,0.8,0.4,1.2,0.6c0.4,0.3,0.7,0.4,1.1,0.6
		c0.4,0.1,0.7,0.3,1,0.3c0.4,0,0.8-0.1,1-0.4c0.1-0.3,0.3-0.7,0.3-1.2h1C269.4,260.6,268.5,261.6,267,261.6z"/>
	<path d="M279,279.1c-1.4,0-2.5-0.4-3.3-1.1c-0.7-0.7-1.1-1.7-1.1-2.8c0-0.7,0.1-1.4,0.6-2.1s1-1.2,1.8-1.8c0.8-0.6,1.9-1.1,3.3-1.5
		s3-0.8,5.1-1.2v-1c0-1.2-0.3-2.1-0.8-2.6c-0.6-0.6-1.4-0.8-2.5-0.8c-1.2,0-2.3,0.3-3.3,0.7c-1,0.4-1.8,1.1-2.8,1.9l-0.8-0.8
		c1-0.8,1.9-1.7,3-2.2c1.1-0.6,2.3-0.8,3.9-0.8c1.7,0,2.8,0.4,3.6,1.2c0.8,0.8,1.1,2.1,1.1,3.4v7.3c0,1,0,1.8,0.1,2.3
		c0.1,0.6,0.1,1.1,0.3,1.5h-1.5c-0.1-0.3-0.1-0.7-0.3-1.1c-0.1-0.4-0.1-0.8-0.1-1.2c-1,0.8-1.9,1.5-3,1.9
		C281.4,278.8,280.3,279.1,279,279.1z M279.3,277.8c1.1,0,2.2-0.3,3.3-0.7c1.1-0.4,1.9-1.1,2.9-2.1v-5.4c-1.9,0.3-3.4,0.7-4.7,1.1
		c-1.2,0.4-2.2,0.8-2.8,1.2c-0.7,0.4-1.1,1-1.4,1.4s-0.4,1.1-0.4,1.7c0,0.8,0.3,1.5,0.8,2.1C277.5,277.6,278.3,277.8,279.3,277.8z"
		/>
	<path d="M291.7,263.2h1.5v2.6c0.8-0.8,1.8-1.5,2.8-2.1s1.9-0.8,3.2-0.8c1.4,0,2.3,0.3,3,0.8c0.7,0.6,1.1,1.2,1.4,2.1
		c0.8-0.8,1.8-1.5,2.9-2.1s2.1-0.8,3.2-0.8c1.7,0,2.8,0.4,3.4,1.2c0.7,0.8,1.1,1.9,1.1,3.3v11.3h-1.5v-11.2c0-1.2-0.3-2.1-0.7-2.6
		c-0.6-0.6-1.4-0.8-2.5-0.8c-1,0-1.9,0.3-2.9,0.8c-1,0.6-1.8,1.2-2.8,2.2v11.7h-1.5v-11.2c0-1.2-0.3-2.1-0.7-2.6
		c-0.4-0.6-1.4-0.8-2.5-0.8c-1,0-1.9,0.3-2.9,0.8s-1.8,1.2-2.8,2.2v11.7H292V263h-0.3V263.2z"/>
	<path d="M324.6,279.1c-1,0-1.8-0.1-2.6-0.6c-0.8-0.4-1.5-1-2.2-1.7c-0.6-0.7-1.1-1.5-1.5-2.6c-0.4-1-0.6-2.1-0.6-3.3
		c0-1.2,0.1-2.3,0.6-3.4c0.4-1,0.8-1.9,1.5-2.6c0.6-0.7,1.4-1.2,2.2-1.7c0.8-0.4,1.8-0.6,2.8-0.6s1.8,0.1,2.6,0.6
		c0.8,0.4,1.5,1,2.2,1.7c0.6,0.7,1.1,1.5,1.5,2.6c0.4,1,0.6,2.2,0.6,3.4c0,1.2-0.1,2.3-0.6,3.3c-0.4,1-0.8,1.8-1.5,2.6
		c-0.6,0.7-1.4,1.2-2.2,1.7C326.6,278.9,325.6,279.1,324.6,279.1z M324.6,277.8c0.8,0,1.5-0.1,2.2-0.6s1.2-0.8,1.7-1.4
		c0.4-0.6,0.8-1.4,1.1-2.2c0.3-0.8,0.4-1.8,0.4-2.8s-0.1-1.8-0.4-2.6c-0.3-0.8-0.6-1.5-1.1-2.2c-0.6-0.7-1-1.1-1.7-1.5
		s-1.4-0.6-2.3-0.6c-0.8,0-1.5,0.1-2.2,0.6c-0.7,0.4-1.2,0.8-1.7,1.4c-0.4,0.6-0.8,1.4-1.1,2.2s-0.4,1.8-0.4,2.8s0.1,1.8,0.3,2.6
		c0.3,0.8,0.6,1.5,1,2.2s1,1.1,1.7,1.5C322.7,277.7,323.7,277.8,324.6,277.8z"/>
	<path d="M340.1,279.1c-1.4,0-2.6-0.3-3.6-0.8c-1-0.6-1.8-1.2-2.3-2.1l1.1-0.8c0.6,0.7,1.2,1.4,2.1,1.8c0.7,0.4,1.7,0.7,2.8,0.7
		c1.5,0,2.6-0.3,3.3-0.8s1.1-1.2,1.1-2.2c0-0.4-0.1-0.8-0.3-1.2c-0.1-0.4-0.4-0.7-0.8-1s-0.8-0.6-1.4-0.7c-0.6-0.3-1.4-0.4-2.2-0.7
		c-1-0.3-1.8-0.6-2.5-0.7c-0.7-0.3-1.2-0.6-1.7-1c-0.4-0.4-0.7-0.7-0.8-1.2c-0.1-0.4-0.3-1-0.3-1.5s0.1-1,0.3-1.4
		c0.3-0.4,0.6-0.8,1-1.2c0.4-0.4,1-0.7,1.7-0.8c0.7-0.3,1.4-0.3,2.2-0.3c1.2,0,2.3,0.3,3.2,0.7c0.8,0.4,1.7,1,2.3,1.7l-1,1
		c-0.6-0.7-1.2-1.1-1.9-1.5c-0.7-0.4-1.5-0.6-2.6-0.6c-1.2,0-2.2,0.3-2.8,0.8c-0.6,0.6-0.8,1.1-0.8,1.8c0,0.4,0,0.8,0.1,1.1
		c0.1,0.3,0.3,0.6,0.7,0.8c0.3,0.3,0.7,0.4,1.2,0.7c0.6,0.1,1.1,0.4,1.9,0.6c1.1,0.3,2.1,0.6,2.8,0.8c0.7,0.3,1.4,0.6,1.8,1
		s0.8,0.8,1,1.2c0.1,0.6,0.3,1.1,0.3,1.8s-0.1,1.2-0.4,1.8c-0.3,0.6-0.7,1-1.2,1.4c-0.6,0.4-1.1,0.7-1.9,0.8
		C341.7,278.9,340.9,279.1,340.1,279.1z"/>
	<path d="M207,314.8c-0.8,0-1.7-0.1-2.5-0.6c-0.8-0.4-1.5-0.8-2.1-1.7c-0.6-0.7-1.1-1.5-1.4-2.6c-0.4-1-0.6-2.2-0.6-3.4
		c0-1.4,0.1-2.5,0.6-3.6c0.4-1,0.8-1.9,1.5-2.5c0.7-0.7,1.4-1.2,2.1-1.5c0.8-0.3,1.7-0.6,2.5-0.6c1,0,1.8,0.1,2.5,0.6
		c0.8,0.4,1.4,1,1.9,1.7s1,1.5,1.2,2.5c0.3,1,0.4,2.1,0.4,3.3v0.3h-11.3c0,1.1,0.1,2.1,0.4,2.9c0.3,0.8,0.7,1.5,1.1,2.2
		c0.4,0.6,1,1,1.7,1.4c0.7,0.3,1.2,0.4,2.1,0.4c1.2,0,2.2-0.3,3-0.8s1.4-1.4,2.1-2.3l1.1,0.7c-0.7,1.2-1.4,2.1-2.3,2.8
		C209.8,314.4,208.6,314.8,207,314.8z M211.7,305.5c0-0.8-0.1-1.5-0.4-2.2c-0.3-0.7-0.6-1.4-1-1.8c-0.4-0.6-0.8-1-1.4-1.2
		s-1.2-0.4-1.9-0.4c-0.6,0-1.2,0.1-1.8,0.4s-1.1,0.6-1.5,1.1c-0.4,0.4-0.8,1.1-1.2,1.8c-0.4,0.7-0.6,1.5-0.7,2.5h9.9L211.7,305.5
		L211.7,305.5z"/>
	<path d="M221.8,314.6c-1.4,0-2.6-0.3-3.6-0.8c-1-0.6-1.8-1.2-2.3-2.1l1.1-0.8c0.6,0.7,1.2,1.4,2.1,1.8c0.7,0.4,1.7,0.7,2.8,0.7
		c1.5,0,2.6-0.3,3.3-0.8c0.7-0.6,1.1-1.2,1.1-2.2c0-0.4-0.1-0.8-0.3-1.2c-0.1-0.4-0.4-0.7-0.8-1s-0.8-0.6-1.4-0.7
		c-0.6-0.3-1.4-0.4-2.2-0.7c-1-0.3-1.8-0.6-2.5-0.7c-0.7-0.3-1.2-0.6-1.7-1c-0.4-0.4-0.7-0.7-0.8-1.2c-0.1-0.4-0.3-1-0.3-1.5
		s0.1-1,0.3-1.4c0.3-0.4,0.6-0.8,1-1.2s1-0.7,1.7-0.8c0.7-0.3,1.4-0.3,2.2-0.3c1.2,0,2.3,0.3,3.2,0.7c0.8,0.4,1.7,1,2.3,1.7l-1,1
		c-0.6-0.7-1.2-1.1-1.9-1.5s-1.5-0.6-2.6-0.6c-1.2,0-2.2,0.3-2.8,0.8c-0.6,0.6-0.8,1.1-0.8,1.8c0,0.4,0,0.8,0.1,1.1
		c0.1,0.3,0.3,0.6,0.7,0.8c0.3,0.3,0.7,0.4,1.2,0.7c0.6,0.1,1.1,0.4,1.9,0.6c1.1,0.3,2.1,0.6,2.8,0.8c0.7,0.3,1.4,0.6,1.8,1
		c0.4,0.4,0.8,0.8,1,1.2c0.1,0.6,0.3,1.1,0.3,1.8s-0.1,1.2-0.4,1.8c-0.3,0.6-0.7,1-1.2,1.4c-0.6,0.4-1.1,0.7-1.9,0.8
		C223.5,314.5,222.6,314.6,221.8,314.6z"/>
	<path d="M236.4,314.6c-1.2,0-2.2-0.3-2.9-0.8c-0.7-0.6-1-1.5-1-2.9v-10.8h-2.8v-1.2h2.8v-5.7h1.5v5.7h4v1.2h-4v10.6
		c0,0.8,0.1,1.5,0.6,1.9c0.3,0.4,1,0.7,1.9,0.7c0.3,0,0.6,0,0.8,0c0.3,0,0.6-0.1,0.7-0.1v1.4C237.7,314.5,237.1,314.6,236.4,314.6z"
		/>
	<path d="M242.1,298.8h1.5v3.3l0,0c0.7-1,1.5-1.9,2.5-2.6s2.3-1,3.9-1h0.4l-0.3,1.2h-0.6c-1.4,0-2.5,0.4-3.6,1.1s-1.9,1.8-2.6,3.2
		v10.3h-1.5v-15.6h0.3V298.8z"/>
	<path d="M256.4,314.6c-1.4,0-2.5-0.4-3.3-1.1c-0.7-0.7-1.1-1.7-1.1-2.8c0-0.7,0.1-1.4,0.6-2.1c0.4-0.7,1-1.2,1.8-1.8
		c0.8-0.6,1.9-1.1,3.3-1.5s3-0.8,5.1-1.2v-1c0-1.2-0.3-2.1-0.8-2.6c-0.6-0.6-1.4-0.8-2.5-0.8c-1.2,0-2.3,0.3-3.3,0.7
		c-1,0.4-1.8,1.1-2.8,1.9l-0.8-0.8c1-0.8,1.9-1.7,3-2.2c1.1-0.6,2.3-0.8,3.9-0.8c1.7,0,2.8,0.4,3.6,1.2c0.8,0.8,1.1,2.1,1.1,3.4v7.3
		c0,1,0,1.8,0.1,2.3c0.1,0.6,0.1,1.1,0.3,1.5H263c-0.1-0.3-0.1-0.7-0.3-1.1c-0.1-0.4-0.1-0.8-0.1-1.2c-1,0.8-1.9,1.5-3,1.9
		C258.7,314.5,257.6,314.6,256.4,314.6z M256.5,313.4c1.1,0,2.2-0.3,3.3-0.7c1.1-0.4,1.9-1.1,2.9-2.1v-5.4c-1.9,0.3-3.4,0.7-4.7,1.1
		c-1.2,0.4-2.2,0.8-2.8,1.2c-0.7,0.4-1.1,1-1.4,1.4c-0.3,0.4-0.4,1.1-0.4,1.7c0,0.8,0.3,1.5,0.8,2.1
		C254.9,313.1,255.6,313.4,256.5,313.4z"/>
	<path d="M273.8,314.6c-1.2,0-2.2-0.3-2.9-0.8c-0.7-0.6-1-1.5-1-2.9v-10.8h-2.8v-1.2h2.8v-5.7h1.5v5.7h4v1.2h-4v10.6
		c0,0.8,0.1,1.5,0.6,1.9c0.3,0.4,1,0.7,1.9,0.7c0.3,0,0.6,0,0.8,0s0.6-0.1,0.7-0.1v1.4C275,314.5,274.5,314.6,273.8,314.6z"/>
	<path d="M284.8,314.8c-0.8,0-1.7-0.1-2.5-0.6c-0.8-0.4-1.5-0.8-2.1-1.7c-0.6-0.7-1.1-1.5-1.4-2.6c-0.4-1-0.6-2.2-0.6-3.4
		c0-1.4,0.1-2.5,0.6-3.6c0.4-1,0.8-1.9,1.5-2.5c0.7-0.7,1.4-1.2,2.1-1.5c0.8-0.3,1.7-0.6,2.5-0.6c1,0,1.8,0.1,2.5,0.6
		c0.8,0.4,1.4,1,1.9,1.7c0.6,0.7,1,1.5,1.2,2.5c0.3,1,0.4,2.1,0.4,3.3v0.3h-11.3c0,1.1,0.1,2.1,0.4,2.9s0.7,1.5,1.1,2.2
		c0.4,0.6,1,1,1.7,1.4c0.7,0.3,1.2,0.4,2.1,0.4c1.2,0,2.2-0.3,3-0.8c0.8-0.6,1.4-1.4,2.1-2.3l1.1,0.7c-0.7,1.2-1.4,2.1-2.3,2.8
		C287.6,314.4,286.3,314.8,284.8,314.8z M289.6,305.5c0-0.8-0.1-1.5-0.4-2.2s-0.6-1.4-1-1.8c-0.4-0.6-0.8-1-1.4-1.2
		c-0.6-0.3-1.2-0.4-1.9-0.4c-0.6,0-1.2,0.1-1.8,0.4s-1.1,0.6-1.5,1.1c-0.4,0.4-0.8,1.1-1.2,1.8c-0.4,0.7-0.6,1.5-0.7,2.5h9.9V305.5z
		"/>
	<path d="M300.8,320.3c-2.5,0-4.3-0.4-5.5-1.1s-1.8-1.7-1.8-2.9c0-0.8,0.3-1.5,0.8-2.2c0.6-0.6,1.2-1.1,2.2-1.5
		c-1-0.4-1.5-1.1-1.5-2.1c0-0.4,0.1-0.8,0.6-1.2c0.3-0.4,0.8-0.7,1.4-1c-0.7-0.4-1.2-1.1-1.7-1.8c-0.4-0.8-0.7-1.7-0.7-2.6
		c0-0.8,0.1-1.7,0.4-2.3c0.3-0.7,0.7-1.2,1.2-1.8c0.6-0.6,1.1-0.8,1.9-1.1c0.7-0.3,1.5-0.4,2.3-0.4c1.8,0,3.2,0.6,4.3,1.7
		c0.4-0.3,1-0.6,1.7-0.8s1.2-0.4,1.9-0.6v1.5c-0.6,0-1,0-1.5,0.1c-0.6,0.1-1,0.3-1.4,0.4c0.7,1,1.1,2.1,1.1,3.3
		c0,0.8-0.1,1.7-0.4,2.3c-0.3,0.7-0.7,1.2-1.2,1.8c-0.6,0.4-1.2,0.8-1.9,1.1c-0.7,0.3-1.5,0.4-2.2,0.4c-1,0-1.8-0.1-2.6-0.6
		c-0.4,0.1-0.7,0.4-1,0.6c-0.3,0.3-0.4,0.6-0.4,0.8s0.1,0.6,0.6,0.8c0.4,0.3,1,0.4,1.9,0.4l3.6,0.3c1.7,0.1,2.9,0.6,3.9,1.2
		c1,0.7,1.4,1.5,1.4,2.6c0,0.7-0.1,1.2-0.6,1.8c-0.4,0.6-0.8,1-1.4,1.4s-1.4,0.7-2.2,0.8C302.7,320.3,301.8,320.3,300.8,320.3z
		 M300.8,319.2c1.7,0,3-0.3,4-0.8s1.4-1.2,1.4-2.1s-0.4-1.5-1.1-1.9s-1.8-0.7-3.3-0.8l-3.2-0.3c-0.1,0-0.3,0-0.4,0s-0.3,0-0.4,0
		c-1,0.3-1.8,0.7-2.3,1.4c-0.6,0.6-0.8,1.2-0.8,1.9c0,0.8,0.4,1.5,1.4,2.1C297.2,318.9,298.7,319.2,300.8,319.2z M300.4,308.4
		c1.4,0,2.5-0.4,3.3-1.2c0.8-0.8,1.2-1.8,1.2-3.2c0-1.4-0.4-2.5-1.2-3.2c-0.8-0.7-1.9-1.2-3.4-1.2c-0.7,0-1.4,0.1-1.9,0.3
		c-0.6,0.3-1.1,0.6-1.4,1c-0.4,0.4-0.7,0.8-1,1.4s-0.3,1.1-0.3,1.8c0,1.2,0.4,2.3,1.2,3.2C297.9,308,299,308.4,300.4,308.4z"/>
	<path d="M311.7,293h1.5v1.8h-1.5V293z M311.8,298.8h1.5v15.6h-1.5V298.8z"/>
	<path d="M321.9,314.6c-1.4,0-2.5-0.4-3.3-1.1c-0.7-0.7-1.1-1.7-1.1-2.8c0-0.7,0.1-1.4,0.6-2.1s1-1.2,1.8-1.8
		c0.8-0.6,1.9-1.1,3.3-1.5s3-0.8,5.1-1.2v-1c0-1.2-0.3-2.1-0.8-2.6c-0.6-0.6-1.4-0.8-2.5-0.8c-1.2,0-2.3,0.3-3.3,0.7
		s-1.8,1.1-2.8,1.9l-0.8-0.8c1-0.8,1.9-1.7,3-2.2c1.1-0.6,2.3-0.8,3.9-0.8c1.7,0,2.8,0.4,3.6,1.2c0.8,0.8,1.1,2.1,1.1,3.4v7.3
		c0,1,0,1.8,0.1,2.3c0.1,0.6,0.1,1.1,0.3,1.5h-1.5c-0.1-0.3-0.1-0.7-0.3-1.1c-0.1-0.4-0.1-0.8-0.1-1.2c-1,0.8-1.9,1.5-3,1.9
		C324.1,314.5,323,314.6,321.9,314.6z M322,313.4c1.1,0,2.2-0.3,3.3-0.7c1.1-0.4,1.9-1.1,2.9-2.1v-5.4c-1.9,0.3-3.4,0.7-4.7,1.1
		c-1.2,0.4-2.2,0.8-2.8,1.2c-0.7,0.4-1.1,1-1.4,1.4s-0.4,1.1-0.4,1.7c0,0.8,0.3,1.5,0.8,2.1C320.2,313.1,321.1,313.4,322,313.4z"/>
	<path d="M339.1,314.6c-1.4,0-2.6-0.3-3.6-0.8c-1-0.6-1.8-1.2-2.3-2.1l1.1-0.8c0.6,0.7,1.2,1.4,2.1,1.8c0.7,0.4,1.7,0.7,2.8,0.7
		c1.5,0,2.6-0.3,3.3-0.8s1.1-1.2,1.1-2.2c0-0.4-0.1-0.8-0.3-1.2c-0.1-0.4-0.4-0.7-0.8-1s-0.8-0.6-1.4-0.7c-0.6-0.3-1.4-0.4-2.2-0.7
		c-1-0.3-1.8-0.6-2.5-0.7c-0.7-0.3-1.2-0.6-1.7-1c-0.4-0.4-0.7-0.7-0.8-1.2c-0.1-0.4-0.3-1-0.3-1.5s0.1-1,0.3-1.4
		c0.3-0.4,0.6-0.8,1-1.2c0.4-0.4,1-0.7,1.7-0.8c0.7-0.3,1.4-0.3,2.2-0.3c1.2,0,2.3,0.3,3.2,0.7c0.8,0.4,1.7,1,2.3,1.7l-1,1
		c-0.6-0.7-1.2-1.1-1.9-1.5c-0.7-0.4-1.5-0.6-2.6-0.6c-1.2,0-2.2,0.3-2.8,0.8c-0.6,0.6-0.8,1.1-0.8,1.8c0,0.4,0,0.8,0.1,1.1
		s0.3,0.6,0.7,0.8c0.3,0.3,0.7,0.4,1.2,0.7c0.6,0.1,1.1,0.4,1.9,0.6c1.1,0.3,2.1,0.6,2.8,0.8c0.7,0.3,1.4,0.6,1.8,1s0.8,0.8,1,1.2
		c0.1,0.6,0.3,1.1,0.3,1.8s-0.1,1.2-0.4,1.8c-0.3,0.6-0.7,1-1.2,1.4c-0.6,0.4-1.1,0.7-1.9,0.8C340.8,314.5,340.1,314.6,339.1,314.6z
		"/>
	<g>
		<path class="st0" d="M414.3,144.2c-5.5-16.7-4.4-20.7-17.1-32.4c-6.6-6.1-13.1-14.1-21.1-18.2c-13.4-6.9-35.6-9.7-50.3-8.8
			c-33.1,1.9-63.4,10.3-74.7,43.7c-3.3,9.8-7.7,19.6-10.2,29.5c-0.4,1.8-1.9,10.3-0.6,15.6c2.5,9.9,6.9,19.9,10.2,29.5
			c11.3,33.4,41.6,41.8,74.7,43.7c14.8,0.8,36.9-1.9,50.3-8.8c8.1-4.1,14.5-12.1,21.1-18.2C409.3,208.2,420,161.5,414.3,144.2"/>
		<path class="st1" d="M276.3,171.4c0,0,25.8-23.2,28.7-23.3c24.8-1.1,91.3,2.1,91.3,2.1L381,184.9c0,0-81.5-9.4-82.6-10.2
			l-15.2,10.1c0,0-4.8,0.6-1.2-3.3c1.2-1.4,3.6-2.8,6.1-5.7c4-4.7,5.9-0.4-6.5,1.5c-2.3,0.4-5.9,0.3-5.8-2.2
			C275.7,173.2,276.3,171.4,276.3,171.4"/>
		<path class="st2" d="M290.5,106.3l-3.4,0.3l-1.9,62.2l0,0l0.1,9.9c1.2-0.8,2.8-2.6,2.8-2.6l0.8-8.4l0,0L290.5,106.3z"/>
	</g>
	<path class="st2" d="M285.2,189.2c0.7,13.1,1.8,6.8,1.8,6.8l0.8-14.3c-1.9,1.2-1.7,1.1-2.6,1.7L285.2,189.2L285.2,189.2z"/>
</g>
</svg>
