<?xml version="1.0" encoding="utf-8"?>
<!-- Generator: Adobe Illustrator 24.2.3, SVG Export Plug-In . SVG Version: 6.00 Build 0)  -->
<svg version="1.1" id="Centro" xmlns="http://www.w3.org/2000/svg" xmlns:xlink="http://www.w3.org/1999/xlink" x="0px" y="0px"
	 viewBox="0 0 1080 1080" style="enable-background:new 0 0 1080 1080;" xml:space="preserve">
<style type="text/css">
	.st0{fill:#FF8500;}
	.st1{fill:none;stroke:#151515;stroke-width:3.9588;stroke-linecap:round;stroke-linejoin:round;stroke-miterlimit:10;}
	.st2{fill:#FFFFFF;}
</style>
<path class="st0" d="M740.7,425.9c-11.6-35-9.2-43.6-36.1-68.2c-13.9-12.8-27.6-29.5-44.7-38.3c-28.1-14.5-75-20.5-106.2-18.6
	c-69.6,4.1-133.6,21.8-157.6,92.1c-7,20.5-16.4,41.2-21.5,62.3c-1,3.9-4,21.9-1.2,32.9c5.1,21.1,14.5,41.8,21.5,62.3
	c24,70.3,88,88,157.6,92.1c31.2,1.8,78-4.3,106.2-18.6c17.1-8.8,30.6-25.5,44.7-38.3C730.4,560.9,752.8,462.4,740.7,425.9"/>
<path class="st1" d="M707.6,349.9l14.3-2.5c-15.6-14.2-30.6-32.8-49.5-42.6c-31.3-16-83.3-22.7-117.9-20.7"/>
<line class="st1" x1="723.9" y1="333.1" x2="723.1" y2="348"/>
<path class="st1" d="M345.6,504.6l8.8-17c5.7,23.3,16.1,46.3,23.8,69.2c26.6,78,97.6,97.6,174.8,102.3"/>
<line class="st1" x1="369" y1="499.2" x2="354.3" y2="486.3"/>
<g>
	<path class="st2" d="M409.4,438h4.8v21.9h-4.8V438z"/>
	<path class="st2" d="M424.5,438h6.8c1.7,0,3.3,0.1,4.7,0.6c1.4,0.4,2.6,1,3.7,1.8s1.9,1.9,2.5,3.3s0.8,3,0.8,5.1s-0.3,3.9-1,5.2
		c-0.6,1.4-1.4,2.6-2.5,3.4s-2.3,1.5-3.7,1.9c-1.4,0.4-3,0.6-4.7,0.6h-6.8V438H424.5z M431.5,456.1c1.2,0,2.2-0.1,3-0.4
		s1.5-0.7,2.1-1.2c0.6-0.6,1-1.4,1.1-2.2c0.1-0.8,0.4-1.9,0.4-3.2c0-2.3-0.6-4.1-1.5-5.2s-2.8-1.7-5.1-1.7h-2.2v14.1h2.2V456.1z"/>
	<path class="st2" d="M451.8,438h15v4h-10.2v4.7h7.3v3.9h-7.3v5.5h10.6v3.9h-15.4V438z"/>
	<path class="st2" d="M475.9,438h4.8l9.2,14.1l0,0V438h4.4v21.9h-4.4l-9.7-14.2l0,0v14.2h-4.4V438H475.9z"/>
	<path class="st2" d="M509.2,442.2h-6.5v-4h17.9v4H514v17.9h-4.8L509.2,442.2L509.2,442.2z"/>
	<path class="st2" d="M529.1,438h4.8v21.9h-4.8V438z"/>
	<path class="st2" d="M544.1,438h14.5v4h-9.7v5.4h6.9v3.9h-6.9v8.8h-4.8V438z"/>
	<path class="st2" d="M567,438h4.8v21.9H567V438z"/>
	<path class="st2" d="M590.9,460.5c-1.4,0-2.8-0.3-4-0.7c-1.2-0.4-2.2-1.1-3.2-2.1c-0.8-1-1.7-2.1-2.1-3.6c-0.6-1.4-0.7-3.2-0.7-5.1
		s0.3-3.6,0.8-5c0.6-1.4,1.2-2.6,2.1-3.6c1-1,1.9-1.7,3.2-2.1c1.2-0.4,2.5-0.7,3.9-0.7s2.6,0.1,3.6,0.6s1.9,0.8,2.6,1.5
		c0.7,0.7,1.2,1.4,1.7,2.2c0.4,0.8,0.8,1.8,1,2.8l-4.5,1.4c-0.1-0.7-0.4-1.2-0.7-1.8c-0.3-0.6-0.6-1-0.8-1.4
		c-0.3-0.4-0.7-0.7-1.2-0.8s-1-0.3-1.7-0.3c-1.7,0-2.9,0.7-3.9,1.9c-0.8,1.4-1.2,3.2-1.2,5.4c0,2.3,0.4,4.1,1.4,5.5
		c0.8,1.4,2.2,2.1,3.9,2.1c1.2,0,2.3-0.4,3-1.2c0.7-0.8,1.2-1.9,1.7-3.4l4.5,1c-0.3,1.1-0.7,2.1-1.1,3c-0.4,1-1.1,1.7-1.8,2.3
		c-0.7,0.7-1.7,1.2-2.6,1.5C593.5,460.2,592.2,460.5,590.9,460.5z"/>
	<path class="st2" d="M614,438h4.5l7.7,22.1h-5l-1.7-5h-7.3l-1.7,5h-4.4L614,438z M618.7,451.7l-2.5-7.4l0,0l-2.6,7.4H618.7z"/>
	<path class="st2" d="M634.6,438h6.3l5,16.1l0,0l4.5-16.1h6.5v21.9h-4.5v-15l0,0c-0.1,1-0.3,1.8-0.6,2.6c-0.3,0.7-0.4,1.5-0.7,2.3
		l-3.3,10.1h-4.3l-3.3-10.1c-0.1-0.4-0.3-0.8-0.3-1.1c-0.1-0.4-0.3-0.7-0.3-1.1c-0.1-0.4-0.1-0.8-0.3-1.2s-0.3-1-0.3-1.7l0,0v15.2
		h-4.3V438H634.6z"/>
	<path class="st2" d="M676.2,460.5c-1.4,0-2.6-0.3-3.9-0.7c-1.2-0.4-2.3-1.1-3.3-2.1s-1.8-2.1-2.3-3.6c-0.6-1.4-0.8-3.2-0.8-5.1
		s0.3-3.6,0.8-5.1c0.6-1.4,1.4-2.6,2.3-3.6c1-1,2.1-1.7,3.3-2.1s2.5-0.7,3.9-0.7s2.6,0.3,3.9,0.7c1.2,0.4,2.3,1.1,3.3,2.1
		s1.8,2.1,2.3,3.6c0.6,1.4,0.8,3.2,0.8,5.1s-0.3,3.6-0.8,5.1c-0.6,1.4-1.4,2.6-2.3,3.6c-1,1-2.1,1.7-3.3,2.1
		C678.8,460.2,677.4,460.5,676.2,460.5z M676.2,456.5c0.8,0,1.7-0.1,2.3-0.6c0.7-0.4,1.2-0.8,1.8-1.5c0.4-0.7,0.8-1.4,1.1-2.3
		c0.3-1,0.4-1.9,0.4-3.2c0-2.3-0.6-4.1-1.5-5.4c-1-1.2-2.3-1.9-4-1.9c-1.8,0-3,0.7-4,1.9c-1,1.2-1.5,3.2-1.5,5.4
		c0,1.1,0.1,2.2,0.4,3.2c0.3,1,0.7,1.7,1.1,2.3c0.4,0.7,1.1,1.1,1.8,1.5C674.5,456.4,675.4,456.5,676.2,456.5z"/>
	<path class="st2" d="M703.2,460.5c-1.2,0-2.2-0.1-3.2-0.4s-1.8-0.7-2.6-1.1s-1.4-1.1-2.1-1.7c-0.6-0.7-1.1-1.4-1.5-2.2l3.6-2.2
		c0.6,1.2,1.4,2.1,2.5,2.8c1.1,0.7,2.2,1,3.4,1c1.1,0,2.1-0.3,2.8-0.7s1.1-1.1,1.1-1.9s-0.4-1.5-1.1-1.9c-0.8-0.4-1.9-0.8-3.3-1.2
		c-1-0.3-1.9-0.6-2.9-0.8c-1-0.3-1.8-0.7-2.6-1.2c-0.8-0.6-1.4-1.1-1.8-1.8s-0.7-1.7-0.7-2.9c0-1,0.1-1.9,0.6-2.8
		c0.4-0.8,1-1.5,1.7-2.1s1.5-1,2.5-1.2c1-0.3,2.1-0.4,3.2-0.4c1.1,0,2.2,0.1,3,0.4c1,0.3,1.7,0.6,2.5,1s1.4,0.8,1.9,1.4
		c0.6,0.6,1,1.1,1.4,1.7l-3.3,2.6c-0.6-1-1.4-1.7-2.3-2.2c-1-0.6-2.1-0.8-3-0.8c-1,0-1.8,0.1-2.3,0.6c-0.6,0.4-0.8,1-0.8,1.7
		c0,0.8,0.4,1.5,1.2,1.9s1.9,0.8,3.3,1.2c1,0.3,1.9,0.6,2.9,0.8c1,0.3,1.8,0.7,2.6,1.2c0.8,0.6,1.4,1.1,1.8,1.9
		c0.4,0.7,0.7,1.7,0.7,2.8c0,0.8-0.1,1.8-0.6,2.5c-0.4,0.8-0.8,1.5-1.7,2.1c-0.7,0.6-1.7,1.1-2.8,1.5
		C706.1,460.2,704.7,460.5,703.2,460.5z"/>
</g>
<g>
	<path class="st2" d="M418.1,496.1c-1.4,0-2.8-0.3-4-0.7c-1.2-0.4-2.2-1.1-3.2-2.1c-0.8-1-1.7-2.1-2.1-3.6s-0.7-3.2-0.7-5.1
		s0.3-3.6,0.8-5c0.6-1.4,1.2-2.6,2.1-3.6c1-1,1.9-1.7,3.2-2.1c1.2-0.4,2.5-0.7,3.9-0.7s2.6,0.1,3.6,0.6c1,0.4,1.9,0.8,2.6,1.5
		s1.2,1.4,1.7,2.2c0.4,0.8,0.8,1.8,1,2.8l-4.5,1.4c-0.1-0.7-0.4-1.2-0.7-1.8c-0.3-0.6-0.6-1-0.8-1.4c-0.3-0.4-0.7-0.7-1.2-0.8
		c-0.6-0.1-1-0.3-1.7-0.3c-1.7,0-2.9,0.7-3.9,1.9c-0.8,1.4-1.2,3.2-1.2,5.4c0,2.3,0.4,4.1,1.4,5.5c0.8,1.4,2.2,2.1,3.9,2.1
		c1.2,0,2.3-0.4,3-1.2c0.7-0.8,1.2-1.9,1.7-3.4l4.5,1c-0.3,1.1-0.7,2.1-1.1,3c-0.4,1-1.1,1.7-1.8,2.3c-0.7,0.7-1.7,1.2-2.6,1.5
		C420.9,495.8,419.5,496.1,418.1,496.1z"/>
	<path class="st2" d="M452.6,496.1c-1.4,0-2.6-0.3-3.9-0.7c-1.2-0.4-2.3-1.1-3.3-2.1s-1.8-2.1-2.3-3.6c-0.6-1.4-0.8-3.2-0.8-5.1
		s0.3-3.6,0.8-5.1c0.6-1.4,1.4-2.6,2.3-3.6c1-1,2.1-1.7,3.3-2.1c1.2-0.4,2.5-0.7,3.9-0.7s2.6,0.3,3.9,0.7s2.3,1.1,3.3,2.1
		s1.8,2.1,2.3,3.6c0.6,1.4,0.8,3.2,0.8,5.1s-0.3,3.6-0.8,5.1c-0.6,1.4-1.4,2.6-2.3,3.6c-1,1-2.1,1.7-3.3,2.1
		S453.8,496.1,452.6,496.1z M452.6,492.2c0.8,0,1.7-0.1,2.3-0.6s1.2-0.8,1.8-1.5c0.4-0.7,0.8-1.4,1.1-2.3c0.3-1,0.4-1.9,0.4-3.2
		c0-2.3-0.6-4.1-1.5-5.4c-1-1.2-2.3-1.9-4-1.9c-1.8,0-3,0.7-4,1.9c-1,1.2-1.5,3.2-1.5,5.4c0,1.1,0.1,2.2,0.4,3.2s0.7,1.7,1.1,2.3
		s1.1,1.1,1.8,1.5C450.9,491.9,451.8,492.2,452.6,492.2z"/>
	<path class="st2" d="M479,473.7h4.8v18.1h9.7v3.9H479V473.7z"/>
	<path class="st2" d="M509,473.7h15v4h-10.1v4.7h7.3v3.9h-7.3v5.5h10.6v3.9H509V473.7z"/>
	<path class="st2" d="M548.7,496.1c-1.4,0-2.8-0.3-4-0.7c-1.2-0.4-2.2-1.1-3.2-2.1c-0.8-1-1.7-2.1-2.1-3.6s-0.7-3.2-0.7-5.1
		s0.3-3.6,0.8-5c0.6-1.4,1.2-2.6,2.1-3.6c1-1,1.9-1.7,3.2-2.1c1.2-0.4,2.5-0.7,3.9-0.7s2.6,0.1,3.6,0.6s1.9,0.8,2.6,1.5
		c0.7,0.7,1.2,1.4,1.7,2.2c0.4,0.8,0.8,1.8,1,2.8l-4.5,1.4c-0.1-0.7-0.4-1.2-0.7-1.8c-0.3-0.6-0.6-1-0.8-1.4
		c-0.3-0.4-0.7-0.7-1.2-0.8c-0.4-0.3-1-0.3-1.7-0.3c-1.7,0-2.9,0.7-3.9,1.9c-0.8,1.4-1.2,3.2-1.2,5.4c0,2.3,0.4,4.1,1.4,5.5
		c0.8,1.4,2.2,2.1,3.9,2.1c1.2,0,2.3-0.4,3-1.2c0.7-0.8,1.2-1.9,1.7-3.4l4.5,1c-0.3,1.1-0.7,2.1-1.1,3c-0.4,1-1.1,1.7-1.8,2.3
		c-0.7,0.7-1.7,1.2-2.6,1.5C551.4,495.8,550,496.1,548.7,496.1z"/>
	<path class="st2" d="M578,477.7h-6.5v-4h17.9v4h-6.6v17.9H578V477.7z"/>
	<path class="st2" d="M605.2,473.7h4.8v21.9h-4.8V473.7z"/>
	<path class="st2" d="M625.6,473.7h5l5,15.7l0,0l5.2-15.7h4.5l-7.6,22.1h-4.5L625.6,473.7z"/>
	<path class="st2" d="M668.9,496.1c-1.4,0-2.6-0.3-3.9-0.7s-2.3-1.1-3.3-2.1s-1.8-2.1-2.3-3.6c-0.6-1.4-0.8-3.2-0.8-5.1
		s0.3-3.6,0.8-5.1c0.6-1.4,1.4-2.6,2.3-3.6c1-1,2.1-1.7,3.3-2.1s2.5-0.7,3.9-0.7s2.6,0.3,3.9,0.7c1.2,0.4,2.3,1.1,3.3,2.1
		s1.8,2.1,2.3,3.6c0.6,1.4,0.8,3.2,0.8,5.1s-0.3,3.6-0.8,5.1c-0.6,1.4-1.4,2.6-2.3,3.6c-1,1-2.1,1.7-3.3,2.1
		C671.5,495.8,670.3,496.1,668.9,496.1z M668.9,492.2c0.8,0,1.7-0.1,2.3-0.6c0.7-0.4,1.2-0.8,1.8-1.5c0.4-0.7,0.8-1.4,1.1-2.3
		c0.3-1,0.4-1.9,0.4-3.2c0-2.3-0.6-4.1-1.5-5.4c-1-1.2-2.3-1.9-4-1.9c-1.8,0-3,0.7-4,1.9c-1,1.2-1.5,3.2-1.5,5.4
		c0,1.1,0.1,2.2,0.4,3.2c0.3,1,0.7,1.7,1.1,2.3s1.1,1.1,1.8,1.5C667.4,491.9,668.1,492.2,668.9,492.2z"/>
	<path class="st2" d="M703.2,496.1c-1.2,0-2.2-0.1-3.2-0.4s-1.8-0.7-2.6-1.1s-1.4-1.1-2.1-1.7c-0.6-0.7-1.1-1.4-1.5-2.2l3.6-2.2
		c0.6,1.2,1.4,2.1,2.5,2.8c1.1,0.7,2.2,1,3.4,1c1.1,0,2.1-0.3,2.8-0.7s1.1-1.1,1.1-1.9s-0.4-1.5-1.1-1.9c-0.8-0.4-1.9-0.8-3.3-1.2
		c-1-0.3-1.9-0.6-2.9-0.8c-1-0.3-1.8-0.7-2.6-1.2c-0.8-0.6-1.4-1.1-1.8-1.8s-0.7-1.7-0.7-2.9c0-1,0.1-1.9,0.6-2.8
		c0.4-0.8,1-1.5,1.7-2.1s1.5-1,2.5-1.2c1-0.3,2.1-0.4,3.2-0.4c1.1,0,2.2,0.1,3,0.4c1,0.3,1.7,0.6,2.5,1s1.4,0.8,1.9,1.4
		c0.6,0.6,1,1.1,1.4,1.7l-3.3,2.6c-0.6-1-1.4-1.7-2.3-2.2c-1-0.6-2.1-0.8-3-0.8c-1,0-1.8,0.1-2.3,0.6c-0.6,0.4-0.8,1-0.8,1.7
		c0,0.8,0.4,1.5,1.2,1.9s1.9,0.8,3.3,1.2c1,0.3,1.9,0.6,2.9,0.8c1,0.3,1.8,0.7,2.6,1.2c0.8,0.6,1.4,1.1,1.8,1.9
		c0.4,0.7,0.7,1.7,0.7,2.8c0,0.8-0.1,1.8-0.6,2.5c-0.4,0.8-0.8,1.5-1.7,2.1c-0.7,0.6-1.7,1.1-2.8,1.5
		C706.1,495.9,704.7,496.1,703.2,496.1z"/>
</g>
</svg>
