<?xml version="1.0" encoding="utf-8"?>
<!-- Generator: Adobe Illustrator 24.2.3, SVG Export Plug-In . SVG Version: 6.00 Build 0)  -->
<svg version="1.1" id="Punto5" xmlns="http://www.w3.org/2000/svg" xmlns:xlink="http://www.w3.org/1999/xlink" x="0px" y="0px"
	 viewBox="0 0 1080 1080" style="enable-background:new 0 0 1080 1080;" xml:space="preserve">
<style type="text/css">
	.st0{fill:#FFFFFF;}
	.st1{fill:#FF8500;}
	.st2{fill:#BCA6F4;}
	.st3{fill:#E9EBE0;}
	.st4{fill:#151515;}
</style>
<path d="M264.8,708c-0.8,0-1.8-0.1-2.5-0.6c-0.8-0.4-1.5-1-2.1-1.7s-1.1-1.5-1.4-2.6c-0.4-1-0.6-2.1-0.6-3.3c0-1.4,0.1-2.6,0.6-3.6
	c0.4-1,0.8-1.9,1.5-2.5s1.4-1.2,2.2-1.5c0.8-0.3,1.7-0.6,2.5-0.6s1.5,0.1,2.1,0.3c0.6,0.3,1.1,0.6,1.7,1c0.4,0.4,0.8,0.8,1.2,1.4
	c0.4,0.6,0.7,1.1,0.8,1.7l-1.2,0.7c-0.4-1.1-1.1-2.1-1.8-2.6c-0.7-0.6-1.7-1-2.9-1c-0.6,0-1.2,0.1-1.8,0.4c-0.7,0.3-1.2,0.7-1.7,1.2
	c-0.6,0.6-1,1.2-1.2,2.1c-0.3,0.8-0.6,1.9-0.6,3.2c0,1.1,0.1,2.1,0.4,2.9s0.7,1.5,1.1,2.2c0.4,0.6,1,1.1,1.7,1.4s1.2,0.4,2.1,0.4
	c1.2,0,2.2-0.3,2.9-1c0.7-0.6,1.4-1.5,1.9-2.6l1.1,0.6c-0.7,1.4-1.5,2.5-2.3,3.2C267.6,707.7,266.3,708,264.8,708z"/>
<path d="M279.7,708c-1.2,0-2.2-0.3-2.9-0.8c-0.7-0.6-1-1.5-1-2.9v-10.8H273v-1.2h2.8v-5.7h1.5v5.7h4v1.2h-4v10.6
	c0,0.8,0.1,1.5,0.6,1.9c0.3,0.4,1,0.7,1.9,0.7c0.3,0,0.6,0,0.8,0s0.6-0.1,0.7-0.1v1.4C280.8,707.8,280.3,708,279.7,708z"/>
<path d="M289.8,708c-1.7,0-2.8-0.4-3.6-1.2c-0.8-0.8-1.1-1.9-1.1-3.3v-11.3h1.5v11.2c0,1.2,0.3,2.1,0.8,2.6c0.6,0.6,1.4,0.8,2.6,0.8
	c1.1,0,2.1-0.3,3-0.8c1-0.6,1.9-1.2,2.9-2.2V692h1.5v15.7H296v-2.6c-0.8,0.8-1.8,1.5-2.8,2.1C292,707.7,290.9,708,289.8,708z"/>
<path d="M302.2,692.1h1.5v3.3l0,0c0.7-1,1.5-1.9,2.5-2.6s2.3-1,3.9-1h0.4l-0.3,1.2h-0.6c-1.4,0-2.5,0.4-3.6,1.1
	c-1.1,0.7-1.9,1.8-2.6,3.2v10.3h-1.2L302.2,692.1L302.2,692.1z"/>
<path d="M316.6,708c-1.4,0-2.5-0.4-3.3-1.1c-0.7-0.7-1.1-1.7-1.1-2.8c0-0.7,0.1-1.4,0.6-2.1c0.4-0.7,1-1.2,1.8-1.8s1.9-1.1,3.3-1.5
	s3-0.8,5.1-1.2v-1c0-1.2-0.3-2.1-0.8-2.6c-0.6-0.6-1.4-0.8-2.5-0.8c-1.2,0-2.3,0.3-3.3,0.7s-1.8,1.1-2.8,1.9l-0.8-0.8
	c1-0.8,1.9-1.7,3-2.2c1.1-0.6,2.3-0.8,3.9-0.8c1.7,0,2.8,0.4,3.6,1.2s1.1,2.1,1.1,3.4v7.3c0,1,0,1.8,0.1,2.3
	c0.1,0.6,0.1,1.1,0.3,1.5h-1.5c-0.1-0.3-0.1-0.7-0.3-1.1c-0.1-0.4-0.1-0.8-0.1-1.2c-1,0.8-1.9,1.5-3,1.9
	C318.7,707.7,317.8,708,316.6,708z M316.8,706.7c1.1,0,2.2-0.3,3.3-0.7s1.9-1.1,2.9-2.1v-5.4c-1.9,0.3-3.4,0.7-4.7,1.1
	c-1.2,0.4-2.2,0.8-2.8,1.2c-0.6,0.4-1.1,1-1.4,1.4c-0.3,0.6-0.4,1.1-0.4,1.7c0,0.8,0.3,1.5,0.8,2.1
	C315,706.4,315.8,706.7,316.8,706.7z"/>
<g>
	<path d="M36.7,685.8H44c1.2,0,2.5,0.1,3.3,0.4c1,0.3,1.7,0.7,2.3,1.1c0.6,0.6,1,1.1,1.2,1.8s0.4,1.4,0.4,2.2c0,0.7-0.1,1.4-0.3,1.9
		c-0.3,0.6-0.6,1.1-1,1.5s-0.8,0.8-1.4,1.1c-0.6,0.3-1.1,0.4-1.7,0.6l0,0c0.7,0.1,1.4,0.3,1.9,0.6c0.6,0.3,1.1,0.7,1.7,1.1
		c0.6,0.4,0.8,1,1.1,1.5c0.3,0.6,0.4,1.2,0.4,2.1c0,0.8-0.1,1.5-0.4,2.3c-0.3,0.8-0.7,1.4-1.2,1.9c-0.6,0.6-1.4,1-2.3,1.2
		c-1,0.3-2.1,0.4-3.4,0.4h-8v-21.7H36.7z M43.8,695.7c1.9,0,3.3-0.4,4.4-1.1c1.1-0.7,1.7-1.8,1.7-3.3s-0.4-2.6-1.4-3.3s-2.5-1-4.5-1
		h-6v8.7L43.8,695.7L43.8,695.7z M44.8,706.3c2.1,0,3.6-0.4,4.4-1.2c1-0.8,1.4-1.9,1.4-3.3c0-0.8-0.1-1.5-0.4-2.1
		c-0.3-0.6-0.7-1.1-1.4-1.5c-0.6-0.4-1.2-0.7-2.1-0.8c-0.8-0.1-1.7-0.3-2.8-0.3H38v9.2L44.8,706.3L44.8,706.3z"/>
	<path d="M56.4,692.1h1.5v3.3l0,0c0.7-1,1.5-1.9,2.5-2.6s2.3-1,3.9-1h0.4l-0.3,1.2h-0.6c-1.4,0-2.5,0.4-3.6,1.1
		c-1.1,0.7-1.9,1.8-2.6,3.2v10.3h-1.5V692L56.4,692.1L56.4,692.1z"/>
	<path d="M67.9,686.3h1.5v1.8h-1.5V686.3z M68.1,692.1h1.5v15.6h-1.5V692.1z"/>
	<path d="M74.7,692.1h1.4v2.6c0.8-0.8,1.8-1.5,2.8-2.1s2.1-0.8,3.2-0.8c1.7,0,2.8,0.4,3.6,1.2c0.8,0.8,1.1,1.9,1.1,3.3v11.3h-1.5
		v-11.2c0-1.2-0.3-2.1-0.8-2.6c-0.6-0.6-1.4-0.8-2.6-0.8c-1.1,0-2.1,0.3-3,0.8c-1,0.6-1.9,1.2-2.9,2.2v11.7h-1.1v-15.6H74.7z"/>
	<path d="M97.3,708c-0.8,0-1.8-0.1-2.5-0.6c-0.8-0.3-1.5-0.8-2.1-1.5s-1.1-1.5-1.4-2.5c-0.4-1-0.6-2.2-0.6-3.6s0.1-2.6,0.6-3.6
		c0.3-1,0.8-1.9,1.4-2.5s1.2-1.2,2.1-1.5c0.8-0.3,1.7-0.6,2.6-0.6c1.1,0,2.1,0.3,2.9,0.8c1,0.6,1.7,1.1,2.3,1.8v-8.7h1.5v18.1
		c0,1,0,1.8,0.1,2.3c0.1,0.6,0.1,1.1,0.4,1.5h-1.5c-0.1-0.3-0.1-0.7-0.3-1.1c-0.1-0.4-0.1-0.8-0.1-1.2c-0.7,0.7-1.4,1.2-2.2,1.8
		C99.5,707.7,98.6,708,97.3,708z M97.3,706.7c1.1,0,1.9-0.3,2.8-0.7c0.8-0.4,1.7-1.2,2.5-2.1v-8.1c-0.8-0.8-1.8-1.5-2.6-2.1
		s-1.8-0.7-2.8-0.7c-0.7,0-1.4,0.1-1.9,0.4c-0.6,0.3-1.1,0.7-1.7,1.2c-0.4,0.6-0.8,1.2-1.1,2.2c-0.3,0.8-0.4,1.9-0.4,3
		s0.1,2.2,0.4,3s0.7,1.5,1.1,2.1s1,1,1.7,1.2C96.1,706.6,96.6,706.7,97.3,706.7z"/>
	<path d="M112.5,708c-1.4,0-2.5-0.4-3.3-1.1c-0.7-0.7-1.1-1.7-1.1-2.8c0-0.7,0.1-1.4,0.6-2.1c0.4-0.7,1-1.2,1.8-1.8s1.9-1.1,3.3-1.5
		s3-0.8,5.1-1.2v-1c0-1.2-0.3-2.1-0.8-2.6c-0.6-0.6-1.4-0.8-2.5-0.8c-1.2,0-2.3,0.3-3.3,0.7s-1.8,1.1-2.8,1.9l-0.8-0.8
		c1-0.8,1.9-1.7,3-2.2s2.3-0.8,3.9-0.8c1.7,0,2.8,0.4,3.6,1.2c0.8,0.8,1.1,2.1,1.1,3.4v7.3c0,1,0,1.8,0.1,2.3
		c0.1,0.6,0.1,1.1,0.3,1.5h-1.5c-0.1-0.3-0.1-0.7-0.3-1.1c-0.1-0.4-0.1-0.8-0.1-1.2c-1,0.8-1.9,1.5-3,1.9
		C114.5,707.7,113.7,708,112.5,708z M112.6,706.7c1.1,0,2.2-0.3,3.3-0.7c1.1-0.4,1.9-1.1,2.9-2.1v-5.4c-1.9,0.3-3.4,0.7-4.7,1.1
		s-2.2,0.8-2.8,1.2s-1.1,1-1.4,1.4c-0.3,0.6-0.4,1.1-0.4,1.7c0,0.8,0.3,1.5,0.8,2.1C111,706.4,111.6,706.7,112.6,706.7z"/>
	<path d="M125.2,692.1h1.5v2.6c0.8-0.8,1.8-1.5,2.8-2.1s1.9-0.8,3.2-0.8c1.4,0,2.3,0.3,3,0.8c0.7,0.6,1.1,1.2,1.4,2.1
		c0.8-0.8,1.8-1.5,2.9-2.1c1.1-0.6,2.1-0.8,3.2-0.8c1.7,0,2.8,0.4,3.4,1.2c0.7,0.8,1.1,1.9,1.1,3.3v11.3h-1.5v-11.2
		c0-1.2-0.3-2.1-0.7-2.6c-0.6-0.6-1.4-0.8-2.5-0.8c-1,0-1.9,0.3-2.9,0.8c-1,0.6-1.8,1.2-2.8,2.2v11.7h-1.5v-11.2
		c0-1.2-0.3-2.1-0.7-2.6s-1.4-0.8-2.5-0.8c-1,0-1.9,0.3-2.9,0.8s-1.8,1.2-2.8,2.2V708h-1.5v-15.9H125.2z"/>
	<path d="M158.1,708c-1,0-1.8-0.1-2.6-0.6c-0.8-0.4-1.5-1-2.2-1.7c-0.6-0.7-1.1-1.5-1.5-2.6c-0.4-1-0.6-2.1-0.6-3.3s0.1-2.3,0.6-3.4
		c0.4-1,0.8-1.9,1.5-2.6c0.6-0.7,1.4-1.2,2.2-1.7s1.8-0.6,2.8-0.6s1.8,0.1,2.6,0.6s1.5,1,2.2,1.7c0.6,0.7,1.1,1.5,1.5,2.6
		c0.4,1,0.6,2.2,0.6,3.4s-0.1,2.3-0.6,3.3c-0.4,1-0.8,1.8-1.5,2.6c-0.6,0.7-1.4,1.2-2.2,1.7C159.9,707.8,159.1,708,158.1,708z
		 M158.1,706.7c0.8,0,1.5-0.1,2.2-0.6c0.7-0.4,1.2-0.8,1.7-1.4c0.4-0.6,0.8-1.4,1.1-2.2s0.4-1.8,0.4-2.8s-0.1-1.8-0.4-2.6
		c-0.3-0.8-0.6-1.5-1.1-2.2c-0.4-0.7-1-1.1-1.7-1.5s-1.4-0.6-2.3-0.6c-0.8,0-1.5,0.1-2.2,0.6c-0.7,0.4-1.2,0.8-1.7,1.4
		c-0.4,0.6-0.8,1.4-1.1,2.2s-0.4,1.8-0.4,2.8s0.1,1.8,0.3,2.6c0.3,0.8,0.6,1.5,1,2.2s1,1.1,1.7,1.5
		C156.5,706.6,157.1,706.7,158.1,706.7z"/>
	<path d="M173.4,708c-1.4,0-2.6-0.3-3.6-0.8c-1-0.6-1.8-1.2-2.3-2.1l1.1-0.8c0.6,0.7,1.2,1.4,2.1,1.8c0.7,0.4,1.7,0.7,2.8,0.7
		c1.5,0,2.6-0.3,3.3-0.8c0.7-0.6,1.1-1.2,1.1-2.2c0-0.4-0.1-0.8-0.3-1.2c-0.1-0.4-0.4-0.7-0.8-1c-0.4-0.3-0.8-0.6-1.4-0.7
		c-0.6-0.3-1.4-0.4-2.2-0.7c-1-0.3-1.8-0.6-2.5-0.7c-0.7-0.3-1.2-0.6-1.7-1c-0.4-0.4-0.7-0.7-0.8-1.2c-0.1-0.6-0.3-1-0.3-1.5
		c0-0.6,0.1-1,0.3-1.4c0.3-0.4,0.6-0.8,1-1.2s1-0.7,1.7-0.8c0.7-0.3,1.4-0.3,2.2-0.3c1.2,0,2.3,0.3,3.2,0.7s1.7,1,2.3,1.7l-1,1
		c-0.6-0.7-1.2-1.1-1.9-1.5s-1.5-0.6-2.6-0.6c-1.2,0-2.2,0.3-2.8,0.8s-0.8,1.1-0.8,1.8c0,0.4,0,0.8,0.1,1.1s0.3,0.6,0.7,0.8
		c0.3,0.3,0.7,0.4,1.2,0.7c0.6,0.3,1.1,0.4,1.9,0.6c1.1,0.3,2.1,0.6,2.8,0.8c0.8,0.3,1.4,0.6,1.8,1s0.8,0.8,1,1.2
		c0.1,0.6,0.3,1.1,0.3,1.8s-0.1,1.2-0.4,1.8c-0.3,0.6-0.7,1-1.2,1.4s-1.1,0.7-1.9,0.8C175.2,707.8,174.4,708,173.4,708z"/>
	<path d="M195.6,708c-0.8,0-1.7-0.1-2.5-0.6c-0.8-0.4-1.5-0.8-2.1-1.7s-1.1-1.5-1.4-2.6c-0.4-1-0.6-2.2-0.6-3.4
		c0-1.4,0.1-2.5,0.6-3.6c0.4-1,0.8-1.9,1.5-2.5s1.4-1.2,2.1-1.5c0.8-0.3,1.7-0.6,2.5-0.6c1,0,1.8,0.1,2.5,0.6c0.8,0.4,1.4,1,1.9,1.7
		c0.6,0.7,1,1.5,1.2,2.5c0.3,1,0.4,2.1,0.4,3.3v0.3h-11.3c0,1.1,0.1,2.1,0.4,2.9c0.3,0.8,0.7,1.5,1.1,2.2c0.4,0.6,1,1,1.7,1.4
		c0.7,0.3,1.2,0.4,2.1,0.4c1.2,0,2.2-0.3,3-0.8c0.8-0.6,1.4-1.4,2.1-2.3l1.1,0.7c-0.7,1.2-1.4,2.1-2.3,2.8
		C198.4,707.7,197.1,708,195.6,708z M200.4,698.7c0-0.8-0.1-1.5-0.4-2.2c-0.3-0.7-0.6-1.4-1-1.8c-0.4-0.6-0.8-1-1.4-1.2
		c-0.6-0.3-1.2-0.4-1.9-0.4c-0.6,0-1.2,0.1-1.8,0.4c-0.6,0.3-1.1,0.6-1.5,1.1c-0.4,0.4-0.8,1.1-1.2,1.8c-0.3,0.7-0.6,1.5-0.7,2.5
		h9.9L200.4,698.7L200.4,698.7z"/>
	<path d="M210.5,708c-1.4,0-2.6-0.3-3.6-0.8c-1-0.6-1.8-1.2-2.3-2.1l1.1-0.8c0.6,0.7,1.2,1.4,2.1,1.8c0.7,0.4,1.7,0.7,2.8,0.7
		c1.5,0,2.6-0.3,3.3-0.8c0.7-0.6,1.1-1.2,1.1-2.2c0-0.4-0.1-0.8-0.3-1.2c-0.1-0.4-0.4-0.7-0.8-1c-0.4-0.3-0.8-0.6-1.4-0.7
		c-0.6-0.3-1.4-0.4-2.2-0.7c-1-0.3-1.8-0.6-2.5-0.7c-0.7-0.3-1.2-0.6-1.7-1c-0.4-0.4-0.7-0.7-0.8-1.2c-0.1-0.6-0.3-1-0.3-1.5
		c0-0.6,0.1-1,0.3-1.4c0.3-0.4,0.6-0.8,1-1.2s1-0.7,1.7-0.8c0.7-0.3,1.4-0.3,2.2-0.3c1.2,0,2.3,0.3,3.2,0.7c0.8,0.4,1.7,1,2.3,1.7
		l-1,1c-0.6-0.7-1.2-1.1-1.9-1.5s-1.5-0.6-2.6-0.6c-1.2,0-2.2,0.3-2.8,0.8s-0.8,1.1-0.8,1.8c0,0.4,0,0.8,0.1,1.1s0.3,0.6,0.7,0.8
		c0.3,0.3,0.7,0.4,1.2,0.7c0.6,0.3,1.1,0.4,1.9,0.6c1.1,0.3,2.1,0.6,2.8,0.8c0.8,0.3,1.4,0.6,1.8,1s0.8,0.8,1,1.2
		c0.1,0.6,0.3,1.1,0.3,1.8s-0.1,1.2-0.4,1.8c-0.3,0.6-0.7,1-1.2,1.4s-1.1,0.7-1.9,0.8C212.1,707.8,211.3,708,210.5,708z"/>
	<path d="M225.1,708c-1.2,0-2.2-0.3-2.9-0.8c-0.7-0.6-1-1.5-1-2.9v-10.8h-2.8v-1.2h2.8v-5.7h1.5v5.7h4v1.2h-4v10.6
		c0,0.8,0.1,1.5,0.6,1.9c0.3,0.4,1,0.7,1.9,0.7c0.3,0,0.6,0,0.8,0s0.6-0.1,0.7-0.1v1.4C226.3,707.8,225.7,708,225.1,708z"/>
	<path d="M230.6,692.1h1.5v3.3l0,0c0.7-1,1.5-1.9,2.5-2.6s2.3-1,3.9-1h0.4l-0.3,1.2H238c-1.4,0-2.5,0.4-3.6,1.1
		c-1.1,0.7-1.9,1.8-2.6,3.2v10.3h-1.5V692L230.6,692.1L230.6,692.1z"/>
	<path d="M246.8,708c-1.7,0-2.8-0.4-3.6-1.2s-1.1-1.9-1.1-3.3v-11.3h1.5v11.2c0,1.2,0.3,2.1,0.8,2.6c0.6,0.6,1.4,0.8,2.6,0.8
		c1.1,0,2.1-0.3,3-0.8c1-0.6,1.9-1.2,2.9-2.2V692h1.5v15.7H253v-2.6c-0.8,0.8-1.8,1.5-2.8,2.1C249,707.7,247.9,708,246.8,708z"/>
	<path d="M37.3,729.1h-2.8v-1.2h2.8v-2.6c0-1.4,0.4-2.3,1.1-2.9c0.7-0.6,1.8-0.8,3.2-0.8h0.8v1.4c-0.1,0-0.3,0-0.4,0
		c-0.1,0-0.3,0-0.6,0c-0.8,0-1.4,0.1-1.9,0.6c-0.6,0.4-0.7,1-0.7,1.8v2.8h3.4v1.2h-3.4v14.3h-1.5C37.3,743.5,37.3,729.1,37.3,729.1z
		 M45.8,721.9h1.5v1.8h-1.5V721.9z M45.8,727.7h1.5v15.6h-1.5V727.7z"/>
	<path d="M52.6,727.7h1.5v2.6c0.8-0.8,1.8-1.5,2.8-2.1s2.1-0.8,3.2-0.8c1.7,0,2.8,0.4,3.6,1.2c0.8,0.8,1.1,1.9,1.1,3.3v11.3h-1.5
		V732c0-1.2-0.3-2.1-0.8-2.6c-0.6-0.6-1.4-0.8-2.6-0.8c-1.1,0-2.1,0.3-3,0.8c-1,0.6-1.9,1.2-2.9,2.2v11.7h-1.2v-15.6H52.6z"/>
	<path d="M73.2,743.5c-1.4,0-2.5-0.4-3.3-1.1c-0.7-0.7-1.1-1.7-1.1-2.8c0-0.7,0.1-1.4,0.6-2.1c0.4-0.7,1-1.2,1.8-1.8
		s1.9-1.1,3.3-1.5s3-0.8,5.1-1.2v-1c0-1.2-0.3-2.1-0.8-2.6c-0.6-0.6-1.4-0.8-2.5-0.8c-1.2,0-2.3,0.3-3.3,0.7s-1.8,1.1-2.8,1.9
		l-0.8-0.8c1-0.8,1.9-1.7,3-2.2c1.1-0.6,2.3-0.8,3.9-0.8c1.7,0,2.8,0.4,3.6,1.2s1.1,2.1,1.1,3.4v7.3c0,1,0,1.8,0.1,2.3
		c0.1,0.6,0.1,1.1,0.3,1.5h-1.5c-0.1-0.3-0.1-0.7-0.3-1.1c-0.1-0.4-0.1-0.8-0.1-1.2c-1,0.8-1.9,1.5-3,1.9
		C75.3,743.3,74.3,743.5,73.2,743.5z M73.3,742.3c1.1,0,2.2-0.3,3.3-0.7c1.1-0.4,1.9-1.1,2.9-2.1v-5.4c-1.9,0.3-3.4,0.7-4.7,1.1
		s-2.2,0.8-2.8,1.2c-0.6,0.4-1.1,1-1.4,1.4c-0.3,0.6-0.4,1.1-0.4,1.7c0,0.8,0.3,1.5,0.8,2.1C71.5,742.1,72.4,742.3,73.3,742.3z"/>
	<path d="M85.7,727.7h1.4v2.6c0.8-0.8,1.8-1.5,2.8-2.1s2.1-0.8,3.2-0.8c1.7,0,2.8,0.4,3.6,1.2c0.8,0.8,1.1,1.9,1.1,3.3v11.3h-1.5
		V732c0-1.2-0.3-2.1-0.8-2.6c-0.6-0.6-1.4-0.8-2.6-0.8c-1.1,0-2.1,0.3-3,0.8c-1,0.6-1.9,1.2-2.9,2.2v11.7h-1.1v-15.6H85.7z"/>
	<path d="M108.3,743.7c-0.8,0-1.8-0.1-2.5-0.6c-0.8-0.4-1.5-1-2.1-1.7s-1.1-1.5-1.4-2.6c-0.4-1-0.6-2.1-0.6-3.3
		c0-1.4,0.1-2.6,0.6-3.6c0.4-1,0.8-1.9,1.5-2.5s1.4-1.2,2.2-1.5c0.8-0.3,1.7-0.6,2.5-0.6s1.5,0.1,2.1,0.3c0.6,0.3,1.1,0.6,1.7,1
		c0.4,0.4,0.8,0.8,1.2,1.4c0.4,0.6,0.7,1.1,0.8,1.7l-1.2,0.7c-0.4-1.1-1.1-2.1-1.8-2.6c-0.7-0.6-1.7-1-2.9-1c-0.6,0-1.2,0.1-1.8,0.4
		c-0.7,0.3-1.2,0.7-1.7,1.2c-0.6,0.6-1,1.2-1.2,2.1c-0.3,0.8-0.6,1.9-0.6,3.2c0,1.1,0.1,2.1,0.4,2.9c0.3,0.8,0.7,1.5,1.1,2.2
		c0.4,0.6,1,1.1,1.7,1.4c0.7,0.3,1.2,0.4,2.1,0.4c1.2,0,2.2-0.3,2.9-1c0.7-0.6,1.4-1.5,1.9-2.6l1.1,0.6c-0.7,1.4-1.5,2.5-2.3,3.2
		C111.1,743.3,109.9,743.7,108.3,743.7z"/>
	<path d="M118.4,721.9h1.5v1.8h-1.5V721.9z M118.5,727.7h1.5v15.6h-1.5V727.7z"/>
	<path d="M130.8,743.7c-0.8,0-1.7-0.1-2.5-0.6c-0.8-0.4-1.5-0.8-2.1-1.7s-1.1-1.5-1.4-2.6c-0.4-1-0.6-2.2-0.6-3.4
		c0-1.4,0.1-2.5,0.6-3.6c0.4-1,0.8-1.9,1.5-2.5s1.4-1.2,2.1-1.5c0.8-0.3,1.7-0.6,2.5-0.6c1,0,1.8,0.1,2.5,0.6c0.8,0.4,1.4,1,1.9,1.7
		c0.6,0.7,1,1.5,1.2,2.5c0.3,1,0.4,2.1,0.4,3.3v0.3h-11.3c0,1.1,0.1,2.1,0.4,2.9c0.3,0.8,0.7,1.5,1.1,2.2c0.4,0.6,1,1,1.7,1.4
		c0.7,0.3,1.2,0.4,2.1,0.4c1.2,0,2.2-0.3,3-0.8s1.4-1.4,2.1-2.3l1.1,0.7c-0.7,1.2-1.4,2.1-2.3,2.8
		C133.6,743.3,132.3,743.7,130.8,743.7z M135.5,734.4c0-0.8-0.1-1.5-0.4-2.2c-0.3-0.7-0.6-1.4-1-1.8c-0.4-0.6-0.8-1-1.4-1.2
		c-0.6-0.3-1.2-0.4-1.9-0.4c-0.6,0-1.2,0.1-1.8,0.4c-0.6,0.3-1.1,0.6-1.5,1.1c-0.4,0.4-0.8,1.1-1.2,1.8c-0.3,0.7-0.6,1.5-0.7,2.5
		h9.9L135.5,734.4L135.5,734.4z"/>
	<path d="M141.2,727.7h1.5v3.3l0,0c0.7-1,1.5-1.9,2.5-2.6c1-0.7,2.3-1,3.9-1h0.4l-0.3,1.2h-0.6c-1.4,0-2.5,0.4-3.6,1.1
		c-1.1,0.7-1.9,1.8-2.6,3.2v10.3h-1.5v-15.6L141.2,727.7L141.2,727.7z"/>
	<path d="M155.5,743.5c-1.4,0-2.5-0.4-3.3-1.1c-0.7-0.7-1.1-1.7-1.1-2.8c0-0.7,0.1-1.4,0.6-2.1c0.4-0.7,1-1.2,1.8-1.8
		s1.9-1.1,3.3-1.5s3-0.8,5.1-1.2v-1c0-1.2-0.3-2.1-0.8-2.6c-0.6-0.6-1.4-0.8-2.5-0.8c-1.2,0-2.3,0.3-3.3,0.7s-1.8,1.1-2.8,1.9
		l-0.8-0.8c1-0.8,1.9-1.7,3-2.2c1.1-0.6,2.3-0.8,3.9-0.8c1.7,0,2.8,0.4,3.6,1.2s1.1,2.1,1.1,3.4v7.3c0,1,0,1.8,0.1,2.3
		c0.1,0.6,0.1,1.1,0.3,1.5h-1.5c-0.1-0.3-0.1-0.7-0.3-1.1s-0.1-0.8-0.1-1.2c-1,0.8-1.9,1.5-3,1.9
		C157.6,743.3,156.7,743.5,155.5,743.5z M155.6,742.3c1.1,0,2.2-0.3,3.3-0.7s1.9-1.1,2.9-2.1v-5.4c-1.9,0.3-3.4,0.7-4.7,1.1
		s-2.2,0.8-2.8,1.2s-1.1,1-1.4,1.4c-0.3,0.6-0.4,1.1-0.4,1.7c0,0.8,0.3,1.5,0.8,2.1C154,742.1,154.7,742.3,155.6,742.3z"/>
	<path d="M174.7,749.3c-0.4,0-0.8,0-1.2,0c-0.3,0-0.7-0.1-1-0.3l0.4-1.2c0.3,0,0.6,0.1,0.8,0.1c0.3,0,0.7,0,1.1,0
		c1,0,1.7-0.3,2.2-0.7c0.6-0.4,1-1.1,1.2-2.1l0.7-1.9l-6.1-15.7h1.5l5.1,13.9l0,0l5.1-13.9h1.5l-6.8,17.4c-0.3,0.7-0.6,1.2-0.8,1.8
		c-0.3,0.6-0.7,1-1,1.2c-0.4,0.3-0.8,0.6-1.4,0.7C175.6,748.8,175.3,749.3,174.7,749.3z"/>
	<path d="M196.6,721.3h1.5v21.9h-1.5V721.3z"/>
	<path d="M208.7,743.7c-0.8,0-1.7-0.1-2.5-0.6c-0.8-0.4-1.5-0.8-2.1-1.7s-1.1-1.5-1.4-2.6c-0.4-1-0.6-2.2-0.6-3.4
		c0-1.4,0.1-2.5,0.6-3.6c0.4-1,0.8-1.9,1.5-2.5s1.4-1.2,2.1-1.5c0.8-0.3,1.7-0.6,2.5-0.6c1,0,1.8,0.1,2.5,0.6c0.8,0.4,1.4,1,1.9,1.7
		c0.6,0.7,1,1.5,1.2,2.5c0.3,1,0.4,2.1,0.4,3.3v0.3h-11.3c0,1.1,0.1,2.1,0.4,2.9c0.3,0.8,0.7,1.5,1.1,2.2c0.4,0.6,1,1,1.7,1.4
		c0.7,0.3,1.2,0.4,2.1,0.4c1.2,0,2.2-0.3,3-0.8c0.8-0.6,1.4-1.4,2.1-2.3l1.1,0.7c-0.7,1.2-1.4,2.1-2.3,2.8
		C211.6,743.3,210.4,743.7,208.7,743.7z M213.5,734.4c0-0.8-0.1-1.5-0.4-2.2c-0.3-0.7-0.6-1.4-1-1.8c-0.4-0.6-0.8-1-1.4-1.2
		c-0.6-0.3-1.2-0.4-1.9-0.4c-0.6,0-1.2,0.1-1.8,0.4c-0.6,0.3-1.1,0.6-1.5,1.1c-0.4,0.4-0.8,1.1-1.2,1.8c-0.3,0.7-0.6,1.5-0.7,2.5
		h9.9L213.5,734.4L213.5,734.4z"/>
	<path d="M224.7,749.3c-2.5,0-4.3-0.4-5.5-1.1c-1.2-0.7-1.8-1.7-1.8-2.9c0-0.8,0.3-1.5,0.8-2.2c0.6-0.6,1.2-1.1,2.2-1.5
		c-1-0.4-1.5-1.1-1.5-2.1c0-0.4,0.1-0.8,0.6-1.2c0.3-0.4,0.8-0.7,1.4-1c-0.7-0.4-1.2-1.1-1.7-1.8c-0.4-0.8-0.7-1.7-0.7-2.6
		c0-0.8,0.1-1.7,0.4-2.3c0.3-0.7,0.7-1.2,1.2-1.8c0.6-0.6,1.1-0.8,1.9-1.1c0.7-0.3,1.5-0.4,2.3-0.4c1.8,0,3.2,0.6,4.3,1.7
		c0.4-0.3,1-0.6,1.7-0.8c0.7-0.3,1.2-0.4,1.9-0.6v1.5c-0.6,0-1,0-1.5,0.1c-0.6,0.1-1,0.3-1.4,0.4c0.7,1,1.1,2.1,1.1,3.3
		c0,0.8-0.1,1.7-0.4,2.3c-0.3,0.7-0.7,1.2-1.2,1.8c-0.6,0.6-1.2,0.8-1.9,1.1s-1.5,0.4-2.2,0.4c-1,0-1.8-0.1-2.6-0.6
		c-0.4,0.1-0.7,0.4-1,0.6c-0.3,0.3-0.4,0.6-0.4,0.8c0,0.3,0.1,0.6,0.6,0.8s1,0.4,1.9,0.4l3.6,0.3c1.7,0.1,2.9,0.6,3.9,1.2
		c1,0.7,1.4,1.5,1.4,2.6c0,0.7-0.1,1.2-0.6,1.8c-0.4,0.6-0.8,1-1.4,1.4c-0.6,0.4-1.4,0.7-2.2,0.8C227,748.9,225.7,749.3,224.7,749.3
		z M224.8,748.1c1.7,0,3-0.3,4-0.8c1-0.6,1.4-1.2,1.4-2.1s-0.4-1.5-1.1-1.9c-0.7-0.4-1.8-0.7-3.3-0.8l-3.2-0.3c-0.1,0-0.3,0-0.4,0
		c-0.1,0-0.3,0-0.4,0c-1,0.3-1.8,0.7-2.3,1.4c-0.6,0.6-0.8,1.2-0.8,1.9c0,0.8,0.4,1.5,1.4,2.1C221.1,747.8,222.6,748.1,224.8,748.1z
		 M224.4,737.3c1.4,0,2.5-0.4,3.3-1.2s1.2-1.8,1.2-3.2s-0.4-2.5-1.2-3.2c-0.8-0.8-1.9-1.2-3.4-1.2c-0.7,0-1.4,0.1-1.9,0.3
		c-0.6,0.1-1.1,0.6-1.4,1c-0.4,0.4-0.7,0.8-1,1.4c-0.3,0.6-0.3,1.1-0.3,1.8c0,1.2,0.4,2.3,1.2,3.2C221.9,737,223,737.3,224.4,737.3z
		"/>
	<path d="M238.2,743.5c-1.4,0-2.5-0.4-3.3-1.1c-0.7-0.7-1.1-1.7-1.1-2.8c0-0.7,0.1-1.4,0.6-2.1c0.4-0.7,1-1.2,1.8-1.8
		s1.9-1.1,3.3-1.5s3-0.8,5.1-1.2v-1c0-1.2-0.3-2.1-0.8-2.6c-0.6-0.6-1.4-0.8-2.5-0.8c-1.2,0-2.3,0.3-3.3,0.7s-1.8,1.1-2.8,1.9
		l-0.8-0.8c1-0.8,1.9-1.7,3-2.2c1.1-0.6,2.3-0.8,3.9-0.8c1.7,0,2.8,0.4,3.6,1.2s1.1,2.1,1.1,3.4v7.3c0,1,0,1.8,0.1,2.3
		c0.1,0.6,0.1,1.1,0.3,1.5h-1.5c-0.1-0.3-0.1-0.7-0.3-1.1c-0.1-0.4-0.1-0.8-0.1-1.2c-1,0.8-1.9,1.5-3,1.9
		C240.3,743.3,239.3,743.5,238.2,743.5z M238.3,742.3c1.1,0,2.2-0.3,3.3-0.7s1.9-1.1,2.9-2.1v-5.4c-1.9,0.3-3.4,0.7-4.7,1.1
		c-1.2,0.4-2.2,0.8-2.8,1.2s-1.1,1-1.4,1.4c-0.3,0.6-0.4,1.1-0.4,1.7c0,0.8,0.3,1.5,0.8,2.1C236.6,742.1,237.4,742.3,238.3,742.3z"
		/>
	<path d="M250.9,721.3h1.5v21.9h-1.5V721.3z"/>
	<g>
		<path class="st0" d="M265.5,569.7c-5.5-16.7-4.4-20.7-17.1-32.4c-6.6-6.1-13.1-14.1-21.2-18.2c-13.4-6.9-35.6-9.7-50.3-8.8
			c-33.1,1.9-63.4,10.3-74.7,43.7c-3.3,9.8-7.7,19.6-10.2,29.5c-0.4,1.8-1.9,10.3-0.6,15.6c2.5,9.9,6.9,19.9,10.2,29.5
			c11.3,33.4,41.6,41.8,74.7,43.7c14.8,0.8,36.9-1.9,50.3-8.8c8.1-4.1,14.5-12.1,21.1-18.2C260.5,633.7,271.2,586.9,265.5,569.7"/>
		<polygon class="st1" points="137.3,541 188.7,543.1 187.9,559.1 162.5,561.1 148.9,615.7 141,616.1 		"/>
		<polygon class="st2" points="141,619.2 154.8,618.5 169.4,562.5 177.3,561.8 177.7,629.7 141.4,630.6 		"/>
		<polygon class="st3" points="182.8,562.5 183.2,629 218.1,628.6 208,617.9 198.9,617.8 193.4,571.2 		"/>
		<polygon class="st4" points="190.4,555.1 195.6,565 203.9,561.3 201.3,543.4 		"/>
		<polygon class="st1" points="205,562.8 230.2,627.3 225.2,628.1 205,612.6 197.9,570.4 		"/>
	</g>
</g>
</svg>
