<?xml version="1.0" encoding="utf-8"?>
<!-- Generator: Adobe Illustrator 24.2.3, SVG Export Plug-In . SVG Version: 6.00 Build 0)  -->
<svg version="1.1" id="Punto2" xmlns="http://www.w3.org/2000/svg" xmlns:xlink="http://www.w3.org/1999/xlink" x="0px" y="0px"
	 viewBox="0 0 1080 1080" style="enable-background:new 0 0 1080 1080;" xml:space="preserve">
<style type="text/css">
	.st0{fill:#FFFFFF;}
	.st1{fill:#BCA6F4;}
	.st2{fill:#FF8500;}
</style>
<g>
	<path d="M831.4,261.8h12.7v1.4h-11.2v8.3h8.4v1.4h-8.4v9.7h11.9v1.4h-13.4V261.8z"/>
	<path d="M845.9,268.2h1.5l5,13.8l0,0l5-13.8h1.5l-5.8,15.7h-1.4L845.9,268.2z"/>
	<path d="M865.3,284c-1.4,0-2.5-0.4-3.3-1.1c-0.7-0.7-1.1-1.7-1.1-2.8c0-0.7,0.1-1.4,0.6-2.1c0.3-0.7,1-1.2,1.8-1.8s1.9-1.1,3.3-1.5
		c1.4-0.4,3-0.8,5.1-1.2v-1c0-1.2-0.3-2.1-0.8-2.6c-0.6-0.6-1.4-0.8-2.5-0.8c-1.2,0-2.3,0.3-3.3,0.7c-1,0.4-1.8,1.1-2.8,1.9
		l-0.8-0.8c1-0.8,1.9-1.7,3-2.2c1.1-0.6,2.3-0.8,3.9-0.8c1.7,0,2.8,0.4,3.6,1.2s1.1,2.1,1.1,3.4v7.3c0,1,0,1.8,0.1,2.3
		c0,0.6,0.1,1.1,0.3,1.5H872c-0.1-0.3-0.1-0.7-0.3-1.1c-0.1-0.4-0.1-0.8-0.1-1.2c-1,0.8-1.9,1.5-3,1.9
		C867.5,283.9,866.4,284,865.3,284z M865.5,282.8c1.1,0,2.2-0.3,3.3-0.7c1.1-0.4,1.9-1.1,2.9-2.1v-5.4c-1.9,0.3-3.4,0.7-4.7,1.1
		c-1.2,0.4-2.2,0.8-2.8,1.2c-0.7,0.4-1.1,1-1.4,1.4c-0.3,0.4-0.4,1.1-0.4,1.7c0,0.8,0.3,1.5,0.8,2.1
		C863.7,282.5,864.5,282.8,865.5,282.8z"/>
	<path d="M878,261.8h1.5v21.9H878V261.8z"/>
	<path d="M889.2,284.2c-1.7,0-2.8-0.4-3.6-1.2c-0.8-0.8-1.1-1.9-1.1-3.3v-11.3h1.5v11.2c0,1.2,0.3,2.1,0.8,2.6
		c0.6,0.6,1.4,0.8,2.6,0.8c1.1,0,2.1-0.3,3-0.8c1-0.6,1.9-1.2,2.9-2.2v-11.7h1.5v15.6h-1.5v-2.6c-0.8,0.8-1.8,1.5-2.8,2.1
		C891.4,283.9,890.3,284.2,889.2,284.2z"/>
	<path d="M905.2,284c-1.4,0-2.5-0.4-3.3-1.1c-0.7-0.7-1.1-1.7-1.1-2.8c0-0.7,0.1-1.4,0.6-2.1c0.3-0.7,1-1.2,1.8-1.8s1.9-1.1,3.3-1.5
		c1.4-0.4,3-0.8,5.1-1.2v-1c0-1.2-0.3-2.1-0.8-2.6c-0.6-0.6-1.4-0.8-2.5-0.8c-1.2,0-2.3,0.3-3.3,0.7c-1,0.4-1.8,1.1-2.8,1.9
		l-0.8-0.8c1-0.8,1.9-1.7,3-2.2c1.1-0.6,2.3-0.8,3.9-0.8c1.7,0,2.8,0.4,3.6,1.2c0.8,0.8,1.1,2.1,1.1,3.4v7.3c0,1,0,1.8,0.1,2.3
		c0,0.6,0.1,1.1,0.3,1.5h-1.5c-0.1-0.3-0.1-0.7-0.3-1.1c-0.1-0.4-0.1-0.8-0.1-1.2c-1,0.8-1.9,1.5-3,1.9
		C907.4,283.9,906.3,284,905.2,284z M905.3,282.8c1.1,0,2.2-0.3,3.3-0.7c1.1-0.4,1.9-1.1,2.9-2.1v-5.4c-1.9,0.3-3.4,0.7-4.7,1.1
		c-1.2,0.4-2.2,0.8-2.8,1.2c-0.7,0.4-1.1,1-1.4,1.4c-0.3,0.4-0.4,1.1-0.4,1.7c0,0.8,0.3,1.5,0.8,2.1
		C903.5,282.5,904.4,282.8,905.3,282.8z"/>
	<path d="M917.7,268.2h1.5v2.6c0.8-0.8,1.8-1.5,2.8-2.1s1.9-0.8,3.2-0.8c1.4,0,2.3,0.3,3,0.8c0.7,0.6,1.1,1.2,1.4,2.1
		c0.8-0.8,1.8-1.5,2.9-2.1c1-0.6,2.1-0.8,3.2-0.8c1.7,0,2.8,0.4,3.4,1.2c0.7,0.8,1.1,1.9,1.1,3.3v11.3h-1.5v-11.2
		c0-1.2-0.3-2.1-0.7-2.6c-0.6-0.6-1.4-0.8-2.5-0.8c-1,0-1.9,0.3-2.9,0.8c-1,0.6-1.8,1.2-2.8,2.2v11.7H928v-11.2
		c0-1.2-0.3-2.1-0.7-2.6c-0.4-0.6-1.4-0.8-2.5-0.8c-1,0-1.9,0.3-2.9,0.8s-1.8,1.2-2.8,2.2V284h-1.5L917.7,268.2L917.7,268.2z"/>
	<path d="M950.7,284.2c-1,0-1.8-0.1-2.6-0.6c-0.8-0.4-1.5-1-2.2-1.7c-0.6-0.7-1.1-1.5-1.5-2.6c-0.4-1-0.6-2.1-0.6-3.3
		c0-1.2,0.1-2.3,0.6-3.4c0.4-1,0.8-1.9,1.5-2.6c0.6-0.7,1.4-1.2,2.2-1.7c0.8-0.4,1.8-0.6,2.8-0.6s1.8,0.1,2.6,0.6s1.5,1,2.2,1.7
		c0.6,0.7,1.1,1.5,1.5,2.6c0.4,1,0.6,2.2,0.6,3.4c0,1.2-0.1,2.3-0.6,3.3c-0.4,1-0.8,1.8-1.5,2.6c-0.6,0.7-1.4,1.2-2.2,1.7
		C952.6,284,951.6,284.2,950.7,284.2z M950.7,282.9c0.8,0,1.5-0.1,2.2-0.6c0.7-0.4,1.2-0.8,1.7-1.4c0.4-0.6,0.8-1.4,1.1-2.2
		s0.4-1.8,0.4-2.8s-0.1-1.8-0.4-2.6c-0.3-0.8-0.6-1.5-1.1-2.2c-0.6-0.7-1-1.1-1.7-1.5s-1.4-0.6-2.3-0.6c-0.8,0-1.5,0.1-2.2,0.6
		c-0.7,0.4-1.2,0.8-1.7,1.4c-0.4,0.6-0.8,1.4-1.1,2.2s-0.4,1.8-0.4,2.8s0.1,1.8,0.3,2.6c0.1,0.8,0.6,1.5,1,2.2s1,1.1,1.7,1.5
		C949,282.7,949.7,282.9,950.7,282.9z"/>
	<path d="M966.1,284c-1.4,0-2.6-0.3-3.6-0.8c-1-0.6-1.8-1.2-2.3-2.1l1.1-0.8c0.6,0.7,1.2,1.4,2.1,1.8c0.7,0.4,1.7,0.7,2.8,0.7
		c1.5,0,2.6-0.3,3.3-0.8c0.7-0.6,1.1-1.2,1.1-2.2c0-0.4-0.1-0.8-0.3-1.2s-0.4-0.7-0.8-1c-0.4-0.3-0.8-0.6-1.4-0.7
		c-0.6-0.3-1.4-0.4-2.2-0.7c-1-0.3-1.8-0.6-2.5-0.7s-1.2-0.6-1.7-1c-0.4-0.4-0.7-0.7-0.8-1.2c-0.1-0.4-0.3-1-0.3-1.5
		c0-0.6,0.1-1,0.3-1.4c0.3-0.4,0.6-0.8,1-1.2s1-0.7,1.7-0.8c0.7-0.3,1.4-0.3,2.2-0.3c1.2,0,2.3,0.3,3.2,0.7c0.8,0.4,1.7,1,2.3,1.7
		l-1,1c-0.6-0.7-1.2-1.1-1.9-1.5s-1.5-0.6-2.6-0.6c-1.2,0-2.2,0.3-2.8,0.8c-0.6,0.6-0.8,1.1-0.8,1.8c0,0.4,0,0.8,0.1,1.1
		c0.1,0.3,0.3,0.6,0.7,0.8c0.4,0.3,0.7,0.4,1.2,0.7c0.6,0.1,1.1,0.4,1.9,0.6c1.1,0.3,2.1,0.6,2.8,0.8c0.7,0.3,1.4,0.6,1.8,1
		c0.4,0.4,0.8,0.8,1,1.2c0.1,0.4,0.3,1.1,0.3,1.8s-0.1,1.2-0.4,1.8s-0.7,1-1.2,1.4c-0.6,0.4-1.1,0.7-1.9,0.8
		C967.8,283.9,966.9,284,966.1,284z"/>
	<path d="M831,298.1h1.5v1.8H831V298.1z M831.1,303.9h1.5v15.6h-1.5V303.9z"/>
	<path d="M837.8,303.9h1.5v2.6c0.8-0.8,1.8-1.5,2.8-2.1s2.1-0.8,3.2-0.8c1.7,0,2.8,0.4,3.6,1.2c0.8,0.8,1.1,1.9,1.1,3.3v11.3h-1.5
		v-11.2c0-1.2-0.3-2.1-0.8-2.6c-0.6-0.6-1.4-0.8-2.6-0.8c-1.1,0-2.1,0.3-3,0.8s-1.9,1.2-2.9,2.2v11.7h-1.5v-15.7h0.1V303.9z"/>
	<path d="M854.9,298.1h1.5v1.8h-1.5V298.1z M854.9,303.9h1.5v15.6h-1.5V303.9z"/>
	<path d="M867.1,319.7c-0.8,0-1.8-0.1-2.5-0.6c-0.7-0.4-1.5-1-2.1-1.7s-1.1-1.5-1.4-2.6c-0.4-1-0.6-2.1-0.6-3.3
		c0-1.4,0.1-2.6,0.6-3.6c0.4-1,0.8-1.9,1.5-2.5c0.7-0.7,1.4-1.2,2.2-1.5s1.7-0.6,2.5-0.6s1.5,0.1,2.1,0.3c0.6,0.3,1.1,0.6,1.7,1
		c0.4,0.4,0.8,0.8,1.2,1.4s0.7,1.1,0.8,1.7l-1.2,0.7c-0.4-1.1-1.1-2.1-1.8-2.6c-0.7-0.7-1.7-1-2.9-1c-0.6,0-1.2,0.1-1.8,0.4
		s-1.2,0.7-1.7,1.2c-0.4,0.6-1,1.2-1.2,2.1s-0.6,1.9-0.6,3.2c0,1.1,0.1,2.1,0.4,2.9c0.3,0.8,0.7,1.5,1.1,2.2c0.4,0.6,1,1.1,1.7,1.4
		s1.2,0.4,2.1,0.4c1.2,0,2.2-0.3,2.9-1c0.7-0.6,1.4-1.5,1.9-2.6l1.1,0.6c-0.7,1.4-1.5,2.5-2.3,3.2
		C870,319.5,868.6,319.7,867.1,319.7z"/>
	<path d="M877.2,298.1h1.5v1.8h-1.5V298.1z M877.3,303.9h1.5v15.6h-1.5V303.9z"/>
	<path d="M887.4,319.7c-1.4,0-2.5-0.4-3.3-1.1c-0.7-0.7-1.1-1.7-1.1-2.8c0-0.7,0.1-1.4,0.6-2.1c0.3-0.7,1-1.2,1.8-1.8
		c0.8-0.6,1.9-1.1,3.3-1.5c1.4-0.4,3-0.8,5.1-1.2v-1c0-1.2-0.3-2.1-0.8-2.6c-0.6-0.6-1.4-0.8-2.5-0.8c-1.2,0-2.3,0.3-3.3,0.7
		c-1,0.4-1.8,1.1-2.8,1.9l-0.8-0.8c1-0.8,1.9-1.7,3-2.2c1.1-0.6,2.3-0.8,3.9-0.8c1.7,0,2.8,0.4,3.6,1.2c0.8,0.8,1.1,2.1,1.1,3.4v7.3
		c0,1,0,1.8,0.1,2.3c0,0.6,0.1,1.1,0.3,1.5H894c-0.1-0.3-0.1-0.7-0.3-1.1c-0.1-0.4-0.1-0.8-0.1-1.2c-1,0.8-1.9,1.5-3,1.9
		C889.6,319.5,888.5,319.7,887.4,319.7z M887.5,318.5c1.1,0,2.2-0.3,3.3-0.7c1.1-0.4,1.9-1.1,2.9-2.1v-5.4c-1.9,0.3-3.4,0.7-4.7,1.1
		c-1.2,0.4-2.2,0.8-2.8,1.2c-0.7,0.4-1.1,1-1.4,1.4c-0.3,0.4-0.4,1.1-0.4,1.7c0,0.8,0.3,1.5,0.8,2.1
		C885.7,318.2,886.6,318.5,887.5,318.5z"/>
	<path d="M904.8,319.6c-1.2,0-2.2-0.3-2.9-0.8c-0.7-0.6-1-1.5-1-2.9v-10.8h-2.8v-1.2h2.8v-5.7h1.5v5.7h4v1.2h-4v10.6
		c0,0.8,0.1,1.5,0.6,1.9c0.3,0.4,1,0.7,1.9,0.7c0.3,0,0.6,0,0.8,0s0.6-0.1,0.7-0.1v1.4C906,319.6,905.3,319.6,904.8,319.6z"/>
	<path d="M910.4,298.1h1.5v1.8h-1.5V298.1z M910.4,303.9h1.5v15.6h-1.5V303.9z"/>
	<path d="M915.5,303.9h1.5l5,13.8l0,0l5-13.8h1.5l-5.8,15.7h-1.4L915.5,303.9z"/>
	<path d="M934.8,319.7c-1.4,0-2.5-0.4-3.3-1.1c-0.7-0.7-1.1-1.7-1.1-2.8c0-0.7,0.1-1.4,0.6-2.1c0.3-0.7,1-1.2,1.8-1.8
		c0.8-0.6,1.9-1.1,3.3-1.5s3-0.8,5.1-1.2v-1c0-1.2-0.3-2.1-0.8-2.6c-0.6-0.6-1.4-0.8-2.5-0.8c-1.2,0-2.3,0.3-3.3,0.7
		c-1,0.4-1.8,1.1-2.8,1.9l-0.8-0.8c1-0.8,1.9-1.7,3-2.2c1.1-0.6,2.3-0.8,3.9-0.8c1.7,0,2.8,0.4,3.6,1.2c0.8,0.8,1.1,2.1,1.1,3.4v7.3
		c0,1,0,1.8,0.1,2.3c0,0.6,0.1,1.1,0.3,1.5h-1.5c-0.1-0.3-0.1-0.7-0.3-1.1c-0.1-0.4-0.1-0.8-0.1-1.2c-1,0.8-1.9,1.5-3,1.9
		C937.2,319.5,936.1,319.7,934.8,319.7z M935,318.5c1.1,0,2.2-0.3,3.3-0.7c1.1-0.4,1.9-1.1,2.9-2.1v-5.4c-1.9,0.3-3.4,0.7-4.7,1.1
		c-1.2,0.4-2.2,0.8-2.8,1.2c-0.7,0.4-1.1,1-1.4,1.4c-0.3,0.4-0.4,1.1-0.4,1.7c0,0.8,0.3,1.5,0.8,2.1
		C933.3,318.2,934,318.5,935,318.5z"/>
	<path d="M952.2,319.7c-1.4,0-2.6-0.3-3.6-0.8c-1-0.6-1.8-1.2-2.3-2.1l1.1-0.8c0.6,0.7,1.2,1.4,2.1,1.8c0.7,0.4,1.7,0.7,2.8,0.7
		c1.5,0,2.6-0.3,3.3-0.8c0.7-0.6,1.1-1.2,1.1-2.2c0-0.4-0.1-0.8-0.3-1.2c-0.1-0.4-0.4-0.7-0.8-1s-0.8-0.6-1.4-0.7
		c-0.6-0.3-1.4-0.4-2.2-0.7c-1-0.3-1.8-0.6-2.5-0.7s-1.2-0.6-1.7-1c-0.4-0.4-0.7-0.7-0.8-1.2c-0.1-0.4-0.3-1-0.3-1.5s0.1-1,0.3-1.4
		c0.3-0.4,0.6-0.8,1-1.2c0.4-0.4,1-0.7,1.7-0.8c0.7-0.3,1.4-0.3,2.2-0.3c1.2,0,2.3,0.3,3.2,0.7c0.8,0.4,1.7,1,2.3,1.7l-1,1
		c-0.6-0.7-1.2-1.1-1.9-1.5s-1.5-0.6-2.6-0.6c-1.2,0-2.2,0.3-2.8,0.8c-0.6,0.6-0.8,1.1-0.8,1.8c0,0.4,0,0.8,0.1,1.1s0.3,0.6,0.7,0.8
		c0.4,0.3,0.7,0.4,1.2,0.7c0.6,0.1,1.1,0.4,1.9,0.6c1.1,0.3,2.1,0.6,2.8,0.8c0.7,0.3,1.4,0.6,1.8,1c0.4,0.4,0.8,0.8,1,1.2
		c0.1,0.4,0.3,1.1,0.3,1.8s-0.1,1.2-0.4,1.8c-0.3,0.6-0.7,1-1.2,1.4c-0.6,0.4-1.1,0.7-1.9,0.8C953.8,319.6,953,319.7,952.2,319.7z"
		/>
	<path d="M974.4,319.7c-0.8,0-1.8-0.1-2.5-0.6c-0.8-0.3-1.5-0.8-2.1-1.5s-1.1-1.5-1.4-2.5c-0.4-1-0.6-2.2-0.6-3.6s0.1-2.6,0.6-3.6
		c0.3-1,0.8-1.9,1.4-2.5c0.6-0.7,1.2-1.2,2.1-1.5c0.8-0.3,1.7-0.6,2.6-0.6c1.1,0,2.1,0.3,2.9,0.8c1,0.6,1.7,1.1,2.3,1.8v-8.7h1.5
		v18.1c0,1,0,1.8,0.1,2.3c0,0.6,0.1,1.1,0.4,1.5h-1.5c-0.1-0.3-0.1-0.7-0.3-1.1c-0.1-0.4-0.1-0.8-0.1-1.2c-0.7,0.7-1.4,1.2-2.2,1.8
		S975.5,319.7,974.4,319.7z M974.4,318.5c1.1,0,1.9-0.3,2.8-0.7c0.8-0.6,1.7-1.2,2.5-2.1v-8.1c-0.8-0.8-1.8-1.5-2.6-2.1
		s-1.8-0.7-2.8-0.7c-0.7,0-1.4,0.1-1.9,0.4s-1.1,0.7-1.7,1.2c-0.4,0.6-0.8,1.2-1.1,2.2c-0.3,0.8-0.4,1.9-0.4,3s0.1,2.2,0.4,3
		c0.3,0.8,0.7,1.5,1.1,2.1c0.4,0.6,1,1,1.7,1.2C973,318.4,973.7,318.5,974.4,318.5z"/>
	<path d="M991.8,319.7c-0.8,0-1.7-0.1-2.5-0.6c-0.8-0.4-1.5-0.8-2.1-1.7c-0.6-0.7-1.1-1.5-1.4-2.6c-0.4-1-0.6-2.2-0.6-3.4
		c0-1.4,0.1-2.5,0.6-3.6c0.4-1,0.8-1.9,1.5-2.5c0.7-0.7,1.4-1.2,2.1-1.5c0.8-0.3,1.7-0.6,2.5-0.6c1,0,1.8,0.1,2.5,0.6
		c0.7,0.4,1.4,1,1.9,1.7s1,1.5,1.2,2.5s0.4,2.1,0.4,3.3v0.3h-11.3c0,1.1,0.1,2.1,0.4,2.9c0.3,0.8,0.7,1.5,1.1,2.2
		c0.4,0.6,1,1,1.7,1.4c0.7,0.3,1.2,0.4,2.1,0.4c1.2,0,2.2-0.3,3-0.8c0.8-0.6,1.4-1.4,2.1-2.3l1.1,0.7c-0.7,1.2-1.4,2.1-2.3,2.8
		C994.5,319.5,993.3,319.7,991.8,319.7z M996.6,310.5c0-0.8-0.1-1.5-0.4-2.2c-0.3-0.7-0.6-1.4-1-1.8c-0.4-0.6-0.8-1-1.4-1.2
		c-0.6-0.3-1.2-0.4-1.9-0.4c-0.6,0-1.2,0.1-1.8,0.4s-1.1,0.6-1.5,1.1c-0.4,0.4-0.8,1.1-1.2,1.8c-0.3,0.7-0.6,1.5-0.7,2.5h9.9
		L996.6,310.5L996.6,310.5z"/>
	<path d="M834.5,355.3c-1.4,0-2.5-0.4-3.3-1.1c-0.7-0.7-1.1-1.7-1.1-2.8c0-0.7,0.1-1.4,0.6-2.1c0.3-0.7,1-1.2,1.8-1.8
		c0.8-0.6,1.9-1.1,3.3-1.5c1.4-0.4,3-0.8,5.1-1.2v-1c0-1.2-0.3-2.1-0.8-2.6c-0.6-0.6-1.4-0.8-2.5-0.8c-1.2,0-2.3,0.3-3.3,0.7
		c-1,0.4-1.8,1.1-2.8,1.9l-0.8-0.8c1-0.8,1.9-1.7,3-2.2c1.1-0.6,2.3-0.8,3.9-0.8c1.7,0,2.8,0.4,3.6,1.2c0.8,0.8,1.1,2.1,1.1,3.4v7.3
		c0,1,0,1.8,0.1,2.3c0,0.6,0.1,1.1,0.3,1.5h-1.5c-0.1-0.3-0.1-0.7-0.3-1.1c-0.1-0.4-0.1-0.8-0.1-1.2c-1,0.8-1.9,1.5-3,1.9
		C836.7,355,835.6,355.3,834.5,355.3z M834.6,354.1c1.1,0,2.2-0.3,3.3-0.7c1.1-0.4,1.9-1.1,2.9-2.1v-5.4c-1.9,0.3-3.4,0.7-4.7,1.1
		c-1.2,0.4-2.2,0.8-2.8,1.2c-0.7,0.4-1.1,1-1.4,1.4c-0.3,0.4-0.4,1.1-0.4,1.7c0,0.8,0.3,1.5,0.8,2.1
		C832.8,353.8,833.6,354.1,834.6,354.1z"/>
	<path d="M847.1,333.1h1.5V355h-1.5V333.1z"/>
	<path d="M858.6,355.3c-1.2,0-2.2-0.3-2.9-0.8c-0.7-0.6-1-1.5-1-2.9v-10.8H852v-1.2h2.8v-5.7h1.5v5.7h4v1.2h-4v10.6
		c0,0.8,0.1,1.5,0.6,1.9c0.3,0.4,1,0.7,1.9,0.7c0.3,0,0.6,0,0.8,0c0.3,0,0.6-0.1,0.7-0.1v1.4C859.8,355.2,859.1,355.3,858.6,355.3z"
		/>
	<path d="M869.7,355.3c-1,0-1.8-0.1-2.6-0.6c-0.8-0.4-1.5-1-2.2-1.7c-0.6-0.7-1.1-1.5-1.5-2.6c-0.4-1-0.6-2.1-0.6-3.3
		c0-1.2,0.1-2.3,0.6-3.4c0.4-1,0.8-1.9,1.5-2.6c0.6-0.7,1.4-1.2,2.2-1.7c0.8-0.4,1.8-0.6,2.8-0.6s1.8,0.1,2.6,0.6
		c0.8,0.4,1.5,1,2.2,1.7c0.6,0.7,1.1,1.5,1.5,2.6c0.4,1,0.6,2.2,0.6,3.4c0,1.2-0.1,2.3-0.6,3.3c-0.4,1-0.8,1.8-1.5,2.6
		c-0.6,0.7-1.4,1.2-2.2,1.7C871.7,355.2,870.7,355.3,869.7,355.3z M869.7,354.1c0.8,0,1.5-0.1,2.2-0.6c0.7-0.4,1.2-0.8,1.7-1.4
		c0.4-0.6,0.8-1.4,1.1-2.2s0.4-1.8,0.4-2.8s-0.1-1.8-0.4-2.6c-0.3-0.8-0.6-1.5-1.1-2.2s-1-1.1-1.7-1.5s-1.4-0.6-2.3-0.6
		c-0.8,0-1.5,0.1-2.2,0.6c-0.7,0.4-1.2,0.8-1.7,1.4c-0.4,0.6-0.8,1.4-1.1,2.2s-0.4,1.8-0.4,2.8s0.1,1.8,0.3,2.6
		c0.1,0.8,0.6,1.5,1,2.2s1,1.1,1.7,1.5C868.1,353.9,868.9,354.1,869.7,354.1z"/>
	<path d="M887.3,333.7h1.5v1.8h-1.5V333.7z M887.4,339.5h1.5V355h-1.5V339.5z"/>
	<path d="M893.9,339.5h1.5v2.6c0.8-0.8,1.8-1.5,2.8-2.1s1.9-0.8,3.2-0.8c1.4,0,2.3,0.3,3,0.8c0.7,0.6,1.1,1.2,1.4,2.1
		c0.8-0.8,1.8-1.5,2.9-2.1c1-0.6,2.1-0.8,3.2-0.8c1.7,0,2.8,0.4,3.4,1.2c0.7,0.8,1.1,1.9,1.1,3.3V355h-1.5v-11.2
		c0-1.2-0.3-2.1-0.7-2.6c-0.6-0.6-1.4-0.8-2.5-0.8c-1,0-1.9,0.3-2.9,0.8c-1,0.6-1.8,1.2-2.8,2.2v11.7h-1.5V344
		c0-1.2-0.3-2.1-0.7-2.6c-0.4-0.6-1.4-0.8-2.5-0.8c-1,0-1.9,0.3-2.9,0.8c-1,0.6-1.8,1.2-2.8,2.2v11.7h-1.5v-15.9L893.9,339.5
		L893.9,339.5z"/>
	<path d="M920.9,339.5h1.5v2.3c0.7-0.7,1.4-1.2,2.2-1.8c0.8-0.6,1.8-0.8,3-0.8c0.8,0,1.8,0.1,2.5,0.6c0.8,0.3,1.5,0.8,2.1,1.5
		s1.1,1.5,1.4,2.5c0.3,1,0.6,2.2,0.6,3.6s-0.1,2.6-0.6,3.6c-0.4,1-0.8,1.8-1.4,2.5c-0.6,0.7-1.2,1.2-2.1,1.5
		c-0.8,0.3-1.7,0.6-2.6,0.6c-1.1,0-2.1-0.3-2.9-0.7c-0.8-0.6-1.7-1.1-2.3-1.8v8.3h-1.5v-21.8h0.1V339.5z M927.6,354.1
		c0.7,0,1.4-0.1,1.9-0.4c0.7-0.3,1.1-0.7,1.7-1.2c0.4-0.6,0.8-1.2,1.1-2.1c0.3-0.8,0.4-1.9,0.4-3s-0.1-2.2-0.4-3
		c-0.3-0.8-0.7-1.5-1.1-2.2c-0.4-0.6-1-1-1.7-1.2c-0.7-0.3-1.2-0.4-1.9-0.4c-1.1,0-1.9,0.3-2.8,0.7c-0.8,0.4-1.7,1.2-2.5,2.1v8.1
		c0.8,0.8,1.8,1.5,2.6,2.1C925.7,353.8,926.7,354.1,927.6,354.1z"/>
	<path d="M941.6,355.3c-1.4,0-2.5-0.4-3.3-1.1c-0.7-0.7-1.1-1.7-1.1-2.8c0-0.7,0.1-1.4,0.6-2.1c0.3-0.7,1-1.2,1.8-1.8
		c0.8-0.6,1.9-1.1,3.3-1.5c1.4-0.4,3-0.8,5.1-1.2v-1c0-1.2-0.3-2.1-0.8-2.6c-0.6-0.6-1.4-0.8-2.5-0.8c-1.2,0-2.3,0.3-3.3,0.7
		c-1,0.4-1.8,1.1-2.8,1.9l-0.8-0.8c1-0.8,1.9-1.7,3-2.2c1.1-0.6,2.3-0.8,3.9-0.8c1.7,0,2.8,0.4,3.6,1.2c0.8,0.8,1.1,2.1,1.1,3.4v7.3
		c0,1,0,1.8,0.1,2.3c0,0.6,0.1,1.1,0.3,1.5h-1.5c-0.1-0.3-0.1-0.7-0.3-1.1c-0.1-0.4-0.1-0.8-0.1-1.2c-1,0.8-1.9,1.5-3,1.9
		C943.8,355,942.7,355.3,941.6,355.3z M941.7,354.1c1.1,0,2.2-0.3,3.3-0.7s1.9-1.1,2.9-2.1v-5.4c-1.9,0.3-3.4,0.7-4.7,1.1
		c-1.2,0.4-2.2,0.8-2.8,1.2c-0.7,0.4-1.1,1-1.4,1.4s-0.4,1.1-0.4,1.7c0,0.8,0.3,1.5,0.8,2.1C939.9,353.8,940.7,354.1,941.7,354.1z"
		/>
	<path d="M959.8,355.3c-0.8,0-1.8-0.1-2.5-0.6c-0.7-0.4-1.5-1-2.1-1.7s-1.1-1.5-1.4-2.6c-0.4-1-0.6-2.1-0.6-3.3
		c0-1.4,0.1-2.6,0.6-3.6c0.4-1,0.8-1.9,1.5-2.5c0.7-0.7,1.4-1.2,2.2-1.5s1.7-0.6,2.5-0.6s1.5,0.1,2.1,0.3c0.6,0.3,1.1,0.6,1.7,1
		c0.4,0.4,0.8,0.8,1.2,1.4s0.7,1.1,0.8,1.7l-1.2,0.7c-0.4-1.1-1.1-2.1-1.8-2.6c-0.7-0.7-1.7-1-2.9-1c-0.6,0-1.2,0.1-1.8,0.4
		s-1.2,0.7-1.7,1.2c-0.4,0.6-1,1.2-1.2,2.1s-0.6,1.9-0.6,3.2c0,1.1,0.1,2.1,0.4,2.9c0.3,0.8,0.7,1.5,1.1,2.2c0.4,0.6,1,1.1,1.7,1.4
		s1.2,0.4,2.1,0.4c1.2,0,2.2-0.3,2.9-1c0.7-0.6,1.4-1.5,1.9-2.6l1.1,0.6c-0.7,1.4-1.5,2.5-2.3,3.2
		C962.7,355,961.3,355.3,959.8,355.3z"/>
	<path d="M974.5,355.3c-1.2,0-2.2-0.3-2.9-0.8c-0.7-0.6-1-1.5-1-2.9v-10.8h-2.8v-1.2h2.8v-5.7h1.5v5.7h4v1.2h-4v10.6
		c0,0.8,0.1,1.5,0.6,1.9c0.3,0.4,1,0.7,1.9,0.7c0.3,0,0.6,0,0.8,0c0.3,0,0.6-0.1,0.7-0.1v1.4C975.8,355.2,975.2,355.3,974.5,355.3z"
		/>
	<path d="M985.8,355.3c-1,0-1.8-0.1-2.6-0.6c-0.8-0.4-1.5-1-2.2-1.7c-0.6-0.7-1.1-1.5-1.5-2.6c-0.4-1-0.6-2.1-0.6-3.3
		c0-1.2,0.1-2.3,0.6-3.4c0.4-1,0.8-1.9,1.5-2.6c0.6-0.7,1.4-1.2,2.2-1.7c0.8-0.4,1.8-0.6,2.8-0.6s1.8,0.1,2.6,0.6
		c0.8,0.4,1.5,1,2.2,1.7c0.6,0.7,1.1,1.5,1.5,2.6c0.4,1,0.6,2.2,0.6,3.4c0,1.2-0.1,2.3-0.6,3.3c-0.4,1-0.8,1.8-1.5,2.6
		c-0.6,0.7-1.4,1.2-2.2,1.7C987.8,355.2,986.8,355.3,985.8,355.3z M985.8,354.1c0.8,0,1.5-0.1,2.2-0.6c0.7-0.4,1.2-0.8,1.7-1.4
		c0.4-0.6,0.8-1.4,1.1-2.2c0.3-0.8,0.4-1.8,0.4-2.8s-0.1-1.8-0.4-2.6c-0.3-0.8-0.6-1.5-1.1-2.2s-1-1.1-1.7-1.5s-1.4-0.6-2.3-0.6
		c-0.8,0-1.5,0.1-2.2,0.6c-0.7,0.4-1.2,0.8-1.7,1.4c-0.4,0.6-0.8,1.4-1.1,2.2s-0.4,1.8-0.4,2.8s0.1,1.8,0.3,2.6
		c0.1,0.8,0.6,1.5,1,2.2s1,1.1,1.7,1.5C984.2,353.9,984.9,354.1,985.8,354.1z"/>
	<g>
		<path class="st0" d="M939.2,139.7c-5.5-16.7-4.4-20.7-17.1-32.4c-6.6-6.1-13.1-14.1-21.2-18.2c-13.4-6.9-35.6-9.7-50.3-8.8
			c-33.1,1.9-63.4,10.3-74.7,43.7c-3.3,9.8-7.7,19.6-10.2,29.5c-0.4,1.8-1.9,10.3-0.6,15.6c2.5,9.9,6.9,19.9,10.2,29.5
			c11.3,33.4,41.6,41.8,74.7,43.7c14.8,0.8,36.9-1.9,50.3-8.8c8.1-4.1,14.5-12.1,21.2-18.2C934.3,203.7,944.9,157.1,939.2,139.7"/>
		<polygon class="st1" points="796.5,221.9 797.2,206.4 814.2,203.7 816.1,182.6 840.9,178 841.5,161.8 858.3,161.2 859.8,140.8 
			875.7,139.8 873.1,217.3 		"/>
		<path class="st2" d="M895.5,152.2c14.1-4.5,16-21.8,8.8-33.4c-5.7-9.2-15.3-10.6-24.4-6.1c-8,4-15,12.1-13.9,21.6
			C868,148.9,882.2,156.5,895.5,152.2"/>
	</g>
</g>
</svg>
