<?xml version="1.0" encoding="utf-8"?>
<!-- Generator: Adobe Illustrator 24.2.3, SVG Export Plug-In . SVG Version: 6.00 Build 0)  -->
<svg version="1.1" id="Punto3" xmlns="http://www.w3.org/2000/svg" xmlns:xlink="http://www.w3.org/1999/xlink" x="0px" y="0px"
	 viewBox="0 0 1080 1080" style="enable-background:new 0 0 1080 1080;" xml:space="preserve">
<style type="text/css">
	.st0{fill:#FFFFFF;}
	.st1{fill:#151515;}
	.st2{fill:#382716;}
	.st3{fill:#FF8500;}
	.st4{fill:#BCA6F4;}
</style>
<g>
	<path d="M859.1,668.7h7.2c2.3,0,4.3,0.6,5.5,1.5c1.2,1,1.9,2.3,1.9,4.3c0,1-0.1,1.9-0.6,2.6c-0.4,0.7-0.8,1.4-1.5,1.9
		c-0.7,0.6-1.5,0.8-2.3,1.1c-1,0.3-2.1,0.4-3.2,0.4h-5.5v10.3h-1.5L859.1,668.7L859.1,668.7z M866.2,679c1.9,0,3.4-0.3,4.4-1
		c1.1-0.7,1.7-1.8,1.7-3.6c0-1.7-0.6-2.8-1.5-3.4c-1.1-0.7-2.6-1-4.5-1h-5.5v9H866.2L866.2,679z"/>
	<path d="M877.1,675h1.5v3.3l0,0c0.7-1,1.5-1.9,2.5-2.6c1-0.7,2.3-1,3.9-1h0.4L885,676h-0.6c-1.4,0-2.5,0.4-3.6,1.1
		c-1.1,0.7-1.9,1.8-2.6,3.2v10.3H877L877.1,675L877.1,675z"/>
	<path d="M893.6,691c-1,0-1.8-0.1-2.6-0.6c-0.8-0.4-1.5-1-2.2-1.7c-0.6-0.7-1.1-1.5-1.5-2.6c-0.4-1-0.6-2.1-0.6-3.3s0.1-2.3,0.6-3.4
		c0.4-1.1,0.8-1.9,1.5-2.6c0.6-0.7,1.4-1.2,2.2-1.7c0.8-0.4,1.8-0.6,2.8-0.6s1.8,0.1,2.6,0.6c0.8,0.4,1.5,1,2.2,1.7
		c0.6,0.7,1.1,1.5,1.5,2.6c0.4,1,0.6,2.2,0.6,3.4s-0.1,2.3-0.6,3.3c-0.4,1-0.8,1.8-1.5,2.6s-1.4,1.2-2.2,1.7
		C895.5,690.7,894.6,691,893.6,691z M893.6,689.8c0.8,0,1.5-0.1,2.2-0.6c0.7-0.4,1.2-0.8,1.7-1.4c0.4-0.6,0.8-1.4,1.1-2.2
		s0.4-1.8,0.4-2.8s-0.1-1.8-0.4-2.6c-0.3-0.8-0.6-1.5-1.1-2.2c-0.4-0.7-1-1.1-1.7-1.5s-1.4-0.6-2.3-0.6c-0.8,0-1.5,0.1-2.2,0.6
		c-0.7,0.4-1.2,0.8-1.7,1.4c-0.4,0.6-0.8,1.4-1.1,2.2s-0.4,1.8-0.4,2.8s0.1,1.8,0.3,2.6c0.3,0.8,0.6,1.5,1,2.2s1,1.1,1.7,1.5
		C891.9,689.5,892.8,689.8,893.6,689.8z"/>
	<path d="M910.3,691c-0.8,0-1.8-0.1-2.5-0.6c-0.8-0.4-1.5-1-2.1-1.7s-1.1-1.5-1.4-2.6c-0.4-1-0.6-2.1-0.6-3.3c0-1.4,0.1-2.6,0.6-3.6
		c0.4-1,0.8-1.9,1.5-2.5c0.7-0.7,1.4-1.2,2.2-1.5s1.7-0.6,2.5-0.6s1.5,0.1,2.1,0.3c0.6,0.3,1.1,0.6,1.7,1c0.4,0.4,0.8,0.8,1.2,1.4
		c0.4,0.6,0.7,1.1,0.8,1.7l-1.2,0.7c-0.4-1.1-1.1-2.1-1.8-2.6c-0.7-0.6-1.7-1-2.9-1c-0.6,0-1.2,0.1-1.8,0.4
		c-0.7,0.3-1.2,0.7-1.7,1.2c-0.6,0.6-1,1.2-1.2,2.1c-0.3,0.8-0.6,1.9-0.6,3.2c0,1.1,0.1,2.1,0.4,2.9c0.3,0.8,0.7,1.5,1.1,2.2
		c0.4,0.6,1,1.1,1.7,1.4c0.7,0.3,1.2,0.4,2.1,0.4c1.2,0,2.2-0.3,2.9-1c0.7-0.6,1.4-1.5,1.9-2.6l1.1,0.6c-0.7,1.4-1.5,2.5-2.3,3.2
		C913,690.6,911.8,691,910.3,691z"/>
	<path d="M924.8,691c-1.7,0-2.8-0.4-3.6-1.2s-1.1-1.9-1.1-3.3v-11.3h1.5v11.2c0,1.2,0.3,2.1,0.8,2.6c0.6,0.6,1.4,0.8,2.6,0.8
		c1.1,0,2.1-0.3,3-0.8c1-0.6,1.9-1.2,2.9-2.2V675h1.5v15.6h-1.7V688c-0.8,0.8-1.8,1.5-2.8,2.1C927,690.7,926,691,924.8,691z"/>
	<path d="M937.3,675h1.5v3.3l0,0c0.7-1,1.5-1.9,2.5-2.6c1-0.7,2.3-1,3.9-1h0.4l-0.3,1.2h-0.6c-1.4,0-2.5,0.4-3.6,1.1
		c-1.1,0.7-1.9,1.8-2.6,3.2v10.3H937V675H937.3z"/>
	<path d="M951.6,690.9c-1.4,0-2.5-0.4-3.3-1.1c-0.7-0.7-1.1-1.7-1.1-2.8c0-0.7,0.1-1.4,0.6-2.1c0.3-0.7,1-1.2,1.8-1.8
		s1.9-1.1,3.3-1.5s3-0.8,5.1-1.2v-1c0-1.2-0.3-2.1-0.8-2.6c-0.6-0.6-1.4-0.8-2.5-0.8c-1.2,0-2.3,0.3-3.3,0.7s-1.8,1.1-2.8,1.9
		l-0.8-0.8c1-0.8,1.9-1.7,3-2.2c1.1-0.6,2.3-0.8,3.9-0.8c1.7,0,2.8,0.4,3.6,1.2s1.1,2.1,1.1,3.4v7.3c0,1,0,1.8,0.1,2.3
		c0,0.6,0.1,1.1,0.3,1.5h-1.4c-0.1-0.3-0.1-0.7-0.3-1.1c-0.1-0.4-0.1-0.8-0.1-1.2c-1,0.8-1.9,1.5-3,1.9
		C953.8,690.6,952.9,690.9,951.6,690.9z M951.8,689.6c1.1,0,2.2-0.3,3.3-0.7s1.9-1.1,2.9-2.1v-5.4c-1.9,0.3-3.4,0.7-4.7,1.1
		c-1.2,0.4-2.2,0.8-2.8,1.2s-1.1,1-1.4,1.4c-0.3,0.6-0.4,1.1-0.4,1.7c0,0.8,0.3,1.5,0.8,2.1C950.1,689.5,950.8,689.6,951.8,689.6z"
		/>
	<path d="M964.2,675h1.5v2.6c0.8-0.8,1.8-1.5,2.8-2.1s1.9-0.8,3.2-0.8c1.4,0,2.3,0.3,3,0.8c0.7,0.6,1.1,1.2,1.4,2.1
		c0.8-0.8,1.8-1.5,2.9-2.1c1-0.6,2.1-0.8,3.2-0.8c1.7,0,2.8,0.4,3.4,1.2c0.7,0.8,1.1,1.9,1.1,3.3v11.3h-1.5v-11.2
		c0-1.2-0.3-2.1-0.7-2.6c-0.6-0.6-1.4-0.8-2.5-0.8c-1,0-1.9,0.3-2.9,0.8c-1,0.6-1.8,1.2-2.8,2.2v11.7h-1.5v-11.2
		c0-1.2-0.3-2.1-0.7-2.6s-1.4-0.8-2.5-0.8c-1,0-1.9,0.3-2.9,0.8c-1,0.6-1.8,1.2-2.8,2.2v11.7h-1.5V675H964.2z"/>
	<path d="M997.1,691c-1,0-1.8-0.1-2.6-0.6c-0.8-0.4-1.5-1-2.2-1.7c-0.6-0.7-1.1-1.5-1.5-2.6c-0.4-1-0.6-2.1-0.6-3.3s0.1-2.3,0.6-3.4
		c0.4-1.1,0.8-1.9,1.5-2.6c0.6-0.7,1.4-1.2,2.2-1.7c0.8-0.4,1.8-0.6,2.8-0.6s1.8,0.1,2.6,0.6c0.8,0.4,1.5,1,2.2,1.7
		c0.6,0.7,1.1,1.5,1.5,2.6c0.4,1,0.6,2.2,0.6,3.4s-0.1,2.3-0.6,3.3c-0.4,1-0.8,1.8-1.5,2.6s-1.4,1.2-2.2,1.7
		C999.1,690.7,998.1,691,997.1,691z M997.1,689.8c0.8,0,1.5-0.1,2.2-0.6c0.7-0.4,1.2-0.8,1.7-1.4c0.4-0.6,0.8-1.4,1.1-2.2
		s0.4-1.8,0.4-2.8s-0.1-1.8-0.4-2.6c-0.3-0.8-0.6-1.5-1.1-2.2c-0.4-0.7-1-1.1-1.7-1.5s-1.4-0.6-2.3-0.6c-0.8,0-1.5,0.1-2.2,0.6
		c-0.7,0.4-1.2,0.8-1.7,1.4c-0.4,0.6-0.8,1.4-1.1,2.2s-0.4,1.8-0.4,2.8s0.1,1.8,0.3,2.6c0.3,0.8,0.6,1.5,1,2.2s1,1.1,1.7,1.5
		C995.5,689.5,996.3,689.8,997.1,689.8z"/>
	<path d="M1012.6,690.9c-1.4,0-2.6-0.3-3.6-0.8c-1-0.6-1.8-1.2-2.3-2.1l1.1-0.8c0.6,0.7,1.2,1.4,2.1,1.8c0.7,0.4,1.7,0.7,2.8,0.7
		c1.5,0,2.6-0.3,3.3-0.8c0.7-0.6,1.1-1.2,1.1-2.2c0-0.4-0.1-0.8-0.3-1.2c-0.1-0.4-0.4-0.7-0.8-1s-0.8-0.6-1.4-0.7
		c-0.6-0.3-1.4-0.4-2.2-0.7c-1-0.3-1.8-0.6-2.5-0.7c-0.7-0.3-1.2-0.6-1.7-1c-0.4-0.4-0.7-0.7-0.8-1.2c-0.1-0.6-0.3-1-0.3-1.5
		c0-0.6,0.1-1,0.3-1.4c0.3-0.4,0.6-0.8,1-1.2s1-0.7,1.7-0.8s1.4-0.3,2.2-0.3c1.2,0,2.3,0.3,3.2,0.7c0.8,0.4,1.7,1,2.3,1.7l-1,1
		c-0.6-0.7-1.2-1.1-1.9-1.5s-1.5-0.6-2.6-0.6c-1.2,0-2.2,0.3-2.8,0.8c-0.6,0.6-0.8,1.1-0.8,1.8c0,0.4,0,0.8,0.1,1.1s0.3,0.6,0.7,0.8
		c0.3,0.3,0.7,0.4,1.2,0.7c0.6,0.3,1.1,0.4,1.9,0.6c1.1,0.3,2.1,0.6,2.8,0.8c0.8,0.3,1.4,0.6,1.8,1s0.8,0.8,1,1.2
		c0.3,0.6,0.3,1.1,0.3,1.8s-0.1,1.2-0.4,1.8c-0.3,0.6-0.7,1-1.2,1.4c-0.6,0.4-1.1,0.7-1.9,0.8
		C1014.4,690.9,1013.5,690.9,1012.6,690.9z"/>
	<path d="M859.8,712H857v-1.2h2.8v-2.6c0-1.4,0.4-2.3,1.1-2.9c0.8-0.6,1.8-0.8,3.2-0.8h0.8v1.4c-0.1,0-0.3,0-0.4,0
		c-0.1,0-0.3,0-0.6,0c-0.8,0-1.4,0.1-1.9,0.6c-0.6,0.4-0.7,1-0.7,1.8v2.8h3.4v1.2h-3.4v14.3h-1.5L859.8,712L859.8,712z"/>
	<path d="M873.5,726.6c-1,0-1.8-0.1-2.6-0.6c-0.8-0.4-1.5-1-2.2-1.7c-0.6-0.7-1.1-1.5-1.5-2.6c-0.4-1-0.6-2.1-0.6-3.3
		s0.1-2.3,0.6-3.4s0.8-1.9,1.5-2.6c0.6-0.7,1.4-1.2,2.2-1.7c0.8-0.4,1.8-0.6,2.8-0.6s1.8,0.1,2.6,0.6c0.8,0.4,1.5,1,2.2,1.7
		c0.6,0.7,1.1,1.5,1.5,2.6c0.4,1,0.6,2.2,0.6,3.4s-0.1,2.3-0.6,3.3c-0.4,1-0.8,1.8-1.5,2.6s-1.4,1.2-2.2,1.7
		C875.3,726.4,874.4,726.6,873.5,726.6z M873.5,725.3c0.8,0,1.5-0.1,2.2-0.6c0.7-0.4,1.2-0.8,1.7-1.4c0.4-0.6,0.8-1.4,1.1-2.2
		s0.4-1.8,0.4-2.8s-0.1-1.8-0.4-2.6c-0.3-0.8-0.6-1.5-1.1-2.2c-0.4-0.7-1-1.1-1.7-1.5s-1.4-0.6-2.3-0.6c-0.8,0-1.5,0.1-2.2,0.6
		c-0.7,0.4-1.2,0.8-1.7,1.4s-0.8,1.4-1.1,2.2s-0.4,1.8-0.4,2.8s0.1,1.8,0.3,2.6c0.3,0.8,0.6,1.5,1,2.2s1,1.1,1.7,1.5
		C871.8,725.2,872.5,725.3,873.5,725.3z"/>
	<path d="M884.4,710.7h1.5v2.6c0.8-0.8,1.8-1.5,2.8-2.1s2.1-0.8,3.2-0.8c1.7,0,2.8,0.4,3.6,1.2s1.1,1.9,1.1,3.3v11.3H895V715
		c0-1.2-0.3-2.1-0.8-2.6c-0.6-0.6-1.4-0.8-2.6-0.8c-1.1,0-2.1,0.3-3,0.8c-1,0.6-1.9,1.2-2.9,2.2v11.7h-1.5v-15.7L884.4,710.7
		L884.4,710.7z"/>
	<path d="M907.1,726.6c-0.8,0-1.8-0.1-2.5-0.6c-0.8-0.3-1.5-0.8-2.1-1.5s-1.1-1.5-1.4-2.5c-0.4-1-0.6-2.2-0.6-3.6s0.1-2.6,0.6-3.6
		c0.3-1,0.8-1.9,1.4-2.5c0.6-0.6,1.2-1.2,2.1-1.5c0.8-0.3,1.7-0.6,2.6-0.6c1.1,0,2.1,0.3,2.9,0.8c1,0.6,1.7,1.1,2.3,1.8v-8.7h1.5
		v18.1c0,1,0,1.8,0.1,2.3c0,0.6,0.1,1.1,0.4,1.5H913c-0.1-0.3-0.1-0.7-0.3-1.1c-0.1-0.4-0.1-0.8-0.1-1.2c-0.7,0.7-1.4,1.2-2.2,1.8
		C909.6,726.2,908.2,726.6,907.1,726.6z M907.1,725.3c1.1,0,1.9-0.3,2.8-0.7c0.8-0.4,1.7-1.2,2.5-2.1v-8.1c-0.8-0.8-1.8-1.5-2.6-2.1
		s-1.8-0.7-2.8-0.7c-0.7,0-1.4,0.1-1.9,0.4c-0.6,0.3-1.1,0.7-1.7,1.2c-0.4,0.6-0.8,1.2-1.1,2.2c-0.3,0.8-0.4,1.9-0.4,3
		s0.1,2.2,0.4,3c0.3,0.8,0.7,1.5,1.1,2.1c0.4,0.6,1,1,1.7,1.2C905.7,725.2,906.4,725.3,907.1,725.3z"/>
	<path d="M924.8,726.6c-1,0-1.8-0.1-2.6-0.6c-0.8-0.4-1.5-1-2.2-1.7c-0.6-0.7-1.1-1.5-1.5-2.6c-0.4-1-0.6-2.1-0.6-3.3
		s0.1-2.3,0.6-3.4s0.8-1.9,1.5-2.6c0.6-0.7,1.4-1.2,2.2-1.7c0.8-0.4,1.8-0.6,2.8-0.6s1.8,0.1,2.6,0.6c0.8,0.4,1.5,1,2.2,1.7
		c0.6,0.7,1.1,1.5,1.5,2.6c0.4,1,0.6,2.2,0.6,3.4s-0.1,2.3-0.6,3.3c-0.4,1-0.8,1.8-1.5,2.6s-1.4,1.2-2.2,1.7
		S925.7,726.6,924.8,726.6z M924.8,725.3c0.8,0,1.5-0.1,2.2-0.6c0.7-0.4,1.2-0.8,1.7-1.4c0.4-0.6,0.8-1.4,1.1-2.2s0.4-1.8,0.4-2.8
		s-0.1-1.8-0.4-2.6c-0.3-0.8-0.6-1.5-1.1-2.2c-0.4-0.7-1-1.1-1.7-1.5s-1.4-0.6-2.3-0.6c-0.8,0-1.5,0.1-2.2,0.6
		c-0.7,0.4-1.2,0.8-1.7,1.4s-0.8,1.4-1.1,2.2s-0.4,1.8-0.4,2.8s0.1,1.8,0.3,2.6c0.3,0.8,0.6,1.5,1,2.2s1,1.1,1.7,1.5
		C923.1,725.2,923.9,725.3,924.8,725.3z"/>
	<path d="M940.2,726.6c-1.4,0-2.6-0.3-3.6-0.8c-1-0.6-1.8-1.2-2.3-2.1l1.1-0.8c0.6,0.7,1.2,1.4,2.1,1.8c0.7,0.4,1.7,0.7,2.8,0.7
		c1.5,0,2.6-0.3,3.3-0.8c0.7-0.6,1.1-1.2,1.1-2.2c0-0.4-0.1-0.8-0.3-1.2c-0.1-0.4-0.4-0.7-0.8-1c-0.4-0.3-0.8-0.6-1.4-0.7
		c-0.6-0.3-1.4-0.4-2.2-0.7c-1-0.3-1.8-0.6-2.5-0.7c-0.7-0.3-1.2-0.6-1.7-1c-0.4-0.4-0.7-0.7-0.8-1.2c-0.1-0.6-0.3-1-0.3-1.5
		c0-0.6,0.1-1,0.3-1.4c0.3-0.4,0.6-0.8,1-1.2s1-0.7,1.7-0.8s1.4-0.3,2.2-0.3c1.2,0,2.3,0.3,3.2,0.7s1.7,1,2.3,1.7l-1,1
		c-0.6-0.7-1.2-1.1-1.9-1.5s-1.5-0.6-2.6-0.6c-1.2,0-2.2,0.3-2.8,0.8c-0.6,0.6-0.8,1.1-0.8,1.8c0,0.4,0,0.8,0.1,1.1s0.3,0.6,0.7,0.8
		c0.3,0.3,0.7,0.4,1.2,0.7c0.6,0.3,1.1,0.4,1.9,0.6c1.1,0.3,2.1,0.6,2.8,0.8c0.8,0.3,1.4,0.6,1.8,1s0.8,0.8,1,1.2
		c0.3,0.6,0.3,1.1,0.3,1.8s-0.1,1.2-0.4,1.8c-0.3,0.6-0.7,1-1.2,1.4c-0.6,0.4-1.1,0.7-1.9,0.8C941.8,726.4,941.2,726.6,940.2,726.6z
		"/>
	<g>
		<path class="st0" d="M1033,544c-5.5-16.7-4.4-20.7-17.1-32.4c-6.6-6.1-13.1-14.1-21.2-18.2c-13.4-6.9-35.6-9.7-50.3-8.8
			c-33.1,1.9-63.4,10.3-74.7,43.7c-3.3,9.8-7.7,19.6-10.2,29.5c-0.4,1.8-1.9,10.3-0.6,15.6c2.5,9.9,6.9,19.9,10.2,29.5
			c11.3,33.4,41.6,41.8,74.7,43.7c14.8,0.8,36.9-1.9,50.3-8.8c8.1-4.1,14.5-12.1,21.2-18.2C1028,608.1,1038.8,561.4,1033,544"/>
		<path class="st1" d="M952.7,632.4c-2.1-10.9-3.7-21.8-5-32.7c-1.2-10.9-2.2-21.9-2.6-32.9c-0.1-5.5-0.4-11-0.1-16.7
			c0-2.8,0.3-5.5,0.4-8.4c0.1-2.8,0.6-5.4,0.7-8.1c0.4-5.4,0.7-10.8,0.3-16.3c-0.1-1.4-0.1-2.9,0-4.3c0.1-1.5,0.7-2.9,1.2-4.1
			c1.1-2.6,2.5-5,4-7.3c-1,2.6-1.9,5.2-2.6,7.7c-0.7,2.6-0.6,5.1,0,7.7c1,5.4,1.5,11.2,1.4,16.7c0,2.8-0.1,5.7-0.3,8.3
			c-0.1,2.8-0.3,5.4-0.3,8.1c0,5.4,0.1,10.9,0.3,16.3c0.6,10.9,1.2,21.8,2.2,32.7l2.8,32.8L952.7,632.4z"/>
		<path class="st2" d="M950.9,602.5c0,0,3.2-7.6,9.8-5.9c6.6,1.5,17-5,18.6-0.7c2.9,7.3-29.6,18.6-29,12.5L950.9,602.5z"/>
		<path class="st3" d="M948.2,594.2c0,0-20.8,0-21.8-7.6s8.1-9.5,11.7-6.9c3.4,2.5,11,9.8,11,9.8L948.2,594.2z"/>
		<path class="st3" d="M947.5,565.5c0,0,11.7-15.2,17.9-16.1c8.1-1.2,10.3,16.1,0.7,19.2c-9.8,3.2-18.2,0.7-18.2,0.7L947.5,565.5z"
			/>
		<path class="st4" d="M947.4,544.5c0,0-3.2-7.6-9.8-5.9c-6.6,1.5-17-5-18.6-0.7c-2.9,7.3,29.6,18.6,29,12.5L947.4,544.5z"/>
		<path class="st4" d="M931.9,519.6c0,0-15.3-1.2-14.6-7.9c0.8-6.6,7.2-2.8,10.9-1.9c3.7,1,4,3.7,5,5
			C934.3,516.3,931.9,519.6,931.9,519.6"/>
		<path class="st2" d="M965.6,536.6c0,0,15.3-1.2,14.6-7.9c-0.8-6.6-7.2-2.8-10.9-1.9c-3.7,1-4,3.7-5,5
			C963.2,533.3,965.6,536.6,965.6,536.6"/>
	</g>
</g>
</svg>
