<?xml version="1.0" encoding="utf-8"?>
<!-- Generator: Adobe Illustrator 24.2.3, SVG Export Plug-In . SVG Version: 6.00 Build 0)  -->
<svg version="1.1" id="Punto4" xmlns="http://www.w3.org/2000/svg" xmlns:xlink="http://www.w3.org/1999/xlink" x="0px" y="0px"
	 viewBox="0 0 1080 1080" style="enable-background:new 0 0 1080 1080;" xml:space="preserve">
<style type="text/css">
	.st0{fill:#FFFFFF;}
	.st1{fill:none;stroke:#151515;stroke-width:1.9794;stroke-miterlimit:10;}
	.st2{fill:#FF8500;}
	.st3{fill:#BCA6F4;}
</style>
<path d="M730.8,989.3c-1.2,0-2.2-0.3-2.9-0.8c-0.7-0.6-1-1.5-1-2.9v-10.8h-2.8v-1.2h2.8V968h1.5v5.7h4v1.2h-4v10.6
	c0,0.8,0.1,1.5,0.6,1.9c0.3,0.4,1,0.7,1.9,0.7c0.3,0,0.6,0,0.8,0c0.3,0,0.6-0.1,0.7-0.1v1.4C732,989.2,731.5,989.3,730.8,989.3z"/>
<path d="M742.1,989.5c-1,0-1.8-0.1-2.6-0.6c-0.8-0.4-1.5-1-2.2-1.7c-0.6-0.7-1.1-1.5-1.5-2.6c-0.4-1-0.6-2.1-0.6-3.3
	s0.1-2.3,0.6-3.4c0.4-1.1,0.8-1.9,1.5-2.6c0.6-0.7,1.4-1.2,2.2-1.7c0.8-0.4,1.8-0.6,2.8-0.6s1.8,0.1,2.6,0.6c0.8,0.4,1.5,1,2.2,1.7
	c0.6,0.7,1.1,1.5,1.5,2.6c0.4,1,0.6,2.2,0.6,3.4s-0.1,2.3-0.6,3.3c-0.4,1-0.8,1.8-1.5,2.6s-1.4,1.2-2.2,1.7
	C743.9,989.2,743.1,989.5,742.1,989.5z M742.1,988.1c0.8,0,1.5-0.1,2.2-0.6c0.7-0.4,1.2-0.8,1.7-1.4c0.4-0.6,0.8-1.4,1.1-2.2
	s0.4-1.8,0.4-2.8s-0.1-1.8-0.4-2.6c-0.3-0.8-0.6-1.5-1.1-2.2c-0.4-0.7-1-1.1-1.7-1.5s-1.4-0.6-2.3-0.6c-0.8,0-1.5,0.1-2.2,0.6
	c-0.7,0.4-1.2,0.8-1.7,1.4c-0.4,0.6-0.8,1.4-1.1,2.2s-0.4,1.8-0.4,2.8s0.1,1.8,0.3,2.6c0.3,0.8,0.6,1.5,1,2.2s1,1.1,1.7,1.5
	C740.4,988,741.1,988.1,742.1,988.1z"/>
<g>
	<path d="M416.6,967.1h5.2c3.6,0,6.3,1,8.1,2.9c1.8,1.9,2.6,4.5,2.6,8.1c0,3.4-0.8,6.2-2.6,8.1c-1.8,1.9-4.4,2.9-8,2.9h-5.4
		L416.6,967.1L416.6,967.1z M422.2,987.7c2.8,0,5-0.8,6.6-2.3c1.5-1.5,2.3-4,2.3-7.3c0-1.7-0.1-3-0.6-4.3c-0.4-1.2-1-2.2-1.8-3
		s-1.8-1.4-2.9-1.8c-1.1-0.4-2.3-0.6-3.9-0.6H418v19.3L422.2,987.7L422.2,987.7z"/>
	<path d="M440.2,989.3c-1.4,0-2.5-0.4-3.3-1.1c-0.7-0.7-1.1-1.7-1.1-2.8c0-0.7,0.1-1.4,0.6-2.1c0.4-0.7,1-1.2,1.8-1.8
		s1.9-1.1,3.3-1.5s3-0.8,5.1-1.2v-1c0-1.2-0.3-2.1-0.8-2.6c-0.6-0.6-1.4-0.8-2.5-0.8c-1.2,0-2.3,0.3-3.3,0.7s-1.8,1.1-2.8,1.9
		l-0.8-0.8c1-0.8,1.9-1.7,3-2.2c1.1-0.6,2.3-0.8,3.9-0.8c1.7,0,2.8,0.4,3.6,1.2s1.1,2.1,1.1,3.4v7.3c0,1,0,1.8,0.1,2.3
		c0.1,0.6,0.1,1.1,0.3,1.5H447c-0.1-0.3-0.1-0.7-0.3-1.1c-0.1-0.4-0.1-0.8-0.1-1.2c-1,0.8-1.9,1.5-3,1.9
		C442.4,989.1,441.4,989.3,440.2,989.3z M440.4,988.1c1.1,0,2.2-0.3,3.3-0.7c1.1-0.4,1.9-1.1,2.9-2.1V980c-1.9,0.3-3.4,0.7-4.7,1.1
		s-2.2,0.8-2.8,1.2c-0.6,0.4-1.1,1-1.4,1.4c-0.3,0.6-0.4,1.1-0.4,1.7c0,0.8,0.3,1.5,0.8,2.1C438.7,987.8,439.5,988.1,440.4,988.1z"
		/>
	<path d="M452.9,973.5h1.5v2.6c0.8-0.8,1.8-1.5,2.8-2.1s1.9-0.8,3.2-0.8c1.4,0,2.3,0.3,3,0.8s1.1,1.2,1.4,2.1
		c0.8-0.8,1.8-1.5,2.9-2.1s2.1-0.8,3.2-0.8c1.7,0,2.8,0.4,3.4,1.2c0.7,0.8,1.1,1.9,1.1,3.3V989h-1.5v-11.2c0-1.2-0.3-2.1-0.7-2.6
		c-0.6-0.6-1.4-0.8-2.5-0.8c-1,0-1.9,0.3-2.9,0.8c-1,0.6-1.8,1.2-2.8,2.2v11.7h-1.5v-11.3c0-1.2-0.3-2.1-0.7-2.6
		c-0.4-0.6-1.4-0.8-2.5-0.8c-1,0-1.9,0.3-2.9,0.8c-1,0.6-1.8,1.2-2.8,2.2v11.7h-1.5v-15.7L452.9,973.5L452.9,973.5z"/>
	<path d="M485.8,989.5c-1,0-1.8-0.1-2.6-0.6c-0.8-0.4-1.5-1-2.2-1.7c-0.6-0.7-1.1-1.5-1.5-2.6c-0.4-1-0.6-2.1-0.6-3.3
		s0.1-2.3,0.6-3.4c0.4-1,0.8-1.9,1.5-2.6c0.6-0.7,1.4-1.2,2.2-1.7s1.8-0.6,2.8-0.6s1.8,0.1,2.6,0.6c0.8,0.4,1.5,1,2.2,1.7
		c0.6,0.7,1.1,1.5,1.5,2.6c0.4,1,0.6,2.2,0.6,3.4s-0.1,2.3-0.6,3.3s-0.8,1.8-1.5,2.6c-0.6,0.7-1.4,1.2-2.2,1.7
		C487.6,989.2,486.8,989.5,485.8,989.5z M485.8,988.1c0.8,0,1.5-0.1,2.2-0.6c0.7-0.4,1.2-0.8,1.7-1.4c0.4-0.6,0.8-1.4,1.1-2.2
		c0.3-0.8,0.4-1.8,0.4-2.8s-0.1-1.8-0.4-2.6s-0.6-1.5-1.1-2.2c-0.4-0.7-1-1.1-1.7-1.5s-1.4-0.6-2.3-0.6c-0.8,0-1.5,0.1-2.2,0.6
		c-0.7,0.4-1.2,0.8-1.7,1.4c-0.4,0.6-0.8,1.4-1.1,2.2s-0.4,1.8-0.4,2.8s0.1,1.8,0.3,2.6c0.3,0.8,0.6,1.5,1,2.2s1,1.1,1.7,1.5
		C484.1,988,484.8,988.1,485.8,988.1z"/>
	<path d="M501.2,989.3c-1.4,0-2.6-0.3-3.6-0.8c-1-0.6-1.8-1.2-2.3-2.1l1.1-0.8c0.6,0.7,1.2,1.4,2.1,1.8c0.7,0.4,1.7,0.7,2.8,0.7
		c1.5,0,2.6-0.3,3.3-0.8c0.7-0.6,1.1-1.2,1.1-2.2c0-0.4-0.1-0.8-0.3-1.2c-0.1-0.4-0.4-0.7-0.8-1s-0.8-0.6-1.4-0.7
		c-0.6-0.3-1.4-0.4-2.2-0.7c-1-0.3-1.8-0.6-2.5-0.7c-0.7-0.3-1.2-0.6-1.7-1c-0.4-0.4-0.7-0.7-0.8-1.2c-0.1-0.6-0.3-1-0.3-1.5
		c0-0.6,0.1-1,0.3-1.4c0.3-0.4,0.6-0.8,1-1.2s1-0.7,1.7-0.8c0.7-0.3,1.4-0.3,2.2-0.3c1.2,0,2.3,0.3,3.2,0.7c0.8,0.4,1.7,1,2.3,1.7
		l-1,1c-0.6-0.7-1.2-1.1-1.9-1.5c-0.7-0.4-1.5-0.6-2.6-0.6c-1.2,0-2.2,0.3-2.8,0.8c-0.6,0.6-0.8,1.1-0.8,1.8c0,0.4,0,0.8,0.1,1.1
		s0.3,0.6,0.7,0.8c0.3,0.3,0.7,0.4,1.2,0.7c0.6,0.3,1.1,0.4,1.9,0.6c1.1,0.3,2.1,0.6,2.8,0.8c0.8,0.3,1.4,0.6,1.8,1s0.8,0.8,1,1.2
		c0.1,0.6,0.3,1.1,0.3,1.8s-0.1,1.2-0.4,1.8s-0.7,1-1.2,1.4c-0.6,0.4-1.1,0.7-1.9,0.8C502.9,989.2,502.1,989.3,501.2,989.3z"/>
	<path d="M521.2,989.3c-1.4,0-2.5-0.4-3.3-1.1c-0.7-0.7-1.1-1.7-1.1-2.8c0-0.7,0.1-1.4,0.6-2.1c0.4-0.7,1-1.2,1.8-1.8
		s1.9-1.1,3.3-1.5s3-0.8,5.1-1.2v-1c0-1.2-0.3-2.1-0.8-2.6c-0.6-0.6-1.4-0.8-2.5-0.8c-1.2,0-2.3,0.3-3.3,0.7s-1.8,1.1-2.8,1.9
		l-0.8-0.8c1-0.8,1.9-1.7,3-2.2s2.3-0.8,3.9-0.8c1.7,0,2.8,0.4,3.6,1.2s1.1,2.1,1.1,3.4v7.3c0,1,0,1.8,0.1,2.3
		c0.1,0.6,0.1,1.1,0.3,1.5h-1.5c-0.1-0.3-0.1-0.7-0.3-1.1s-0.1-0.8-0.1-1.2c-1,0.8-1.9,1.5-3,1.9S522.3,989.3,521.2,989.3z
		 M521.4,988.1c1.1,0,2.2-0.3,3.3-0.7s1.9-1.1,2.9-2.1V980c-1.9,0.3-3.4,0.7-4.7,1.1c-1.2,0.4-2.2,0.8-2.8,1.2s-1.1,1-1.4,1.4
		c-0.3,0.6-0.4,1.1-0.4,1.7c0,0.8,0.3,1.5,0.8,2.1C519.6,987.8,520.4,988.1,521.4,988.1z"/>
	<path d="M539.4,989.5c-0.8,0-1.8-0.1-2.5-0.6c-0.8-0.4-1.5-1-2.1-1.7s-1.1-1.5-1.4-2.6c-0.4-1-0.6-2.1-0.6-3.3
		c0-1.4,0.1-2.6,0.6-3.6c0.4-1,0.8-1.9,1.5-2.5s1.4-1.2,2.2-1.5s1.7-0.6,2.5-0.6s1.5,0.1,2.1,0.3c0.6,0.3,1.1,0.6,1.7,1
		c0.4,0.4,0.8,0.8,1.2,1.4c0.4,0.6,0.7,1.1,0.8,1.7l-1.2,0.7c-0.4-1.1-1.1-2.1-1.8-2.6c-0.7-0.6-1.7-1-2.9-1c-0.6,0-1.2,0.1-1.8,0.4
		c-0.7,0.3-1.2,0.7-1.7,1.2c-0.6,0.6-1,1.2-1.2,2.1c-0.3,0.8-0.6,1.9-0.6,3.2c0,1.1,0.1,2.1,0.4,2.9c0.3,0.8,0.7,1.5,1.1,2.2
		c0.4,0.6,1,1.1,1.7,1.4c0.7,0.3,1.2,0.4,2.1,0.4c1.2,0,2.2-0.3,2.9-1c0.7-0.6,1.4-1.5,1.9-2.6l1.1,0.6c-0.7,1.4-1.5,2.5-2.3,3.2
		C542.1,989.1,540.9,989.5,539.4,989.5z"/>
	<path d="M555,989.5c-1,0-1.8-0.1-2.6-0.6c-0.8-0.4-1.5-1-2.2-1.7c-0.6-0.7-1.1-1.5-1.5-2.6c-0.4-1-0.6-2.1-0.6-3.3s0.1-2.3,0.6-3.4
		c0.4-1.1,0.8-1.9,1.5-2.6c0.6-0.7,1.4-1.2,2.2-1.7s1.8-0.6,2.8-0.6s1.8,0.1,2.6,0.6c0.8,0.4,1.5,1,2.2,1.7c0.6,0.7,1.1,1.5,1.5,2.6
		c0.4,1,0.6,2.2,0.6,3.4s-0.1,2.3-0.6,3.3c-0.4,1-0.8,1.8-1.5,2.6s-1.4,1.2-2.2,1.7C556.9,989.2,556,989.5,555,989.5z M555,988.1
		c0.8,0,1.5-0.1,2.2-0.6c0.7-0.4,1.2-0.8,1.7-1.4c0.4-0.6,0.8-1.4,1.1-2.2s0.4-1.8,0.4-2.8s-0.1-1.8-0.4-2.6
		c-0.3-0.8-0.6-1.5-1.1-2.2c-0.4-0.7-1-1.1-1.7-1.5s-1.4-0.6-2.3-0.6c-0.8,0-1.5,0.1-2.2,0.6c-0.7,0.4-1.2,0.8-1.7,1.4
		c-0.4,0.6-0.8,1.4-1.1,2.2s-0.4,1.8-0.4,2.8s0.1,1.8,0.3,2.6c0.3,0.8,0.6,1.5,1,2.2s1,1.1,1.7,1.5C553.4,988,554.2,988.1,555,988.1
		z"/>
	<path d="M566,973.5h1.5v2.6c0.8-0.8,1.8-1.5,2.8-2.1s1.9-0.8,3.2-0.8c1.4,0,2.3,0.3,3,0.8c0.7,0.6,1.1,1.2,1.4,2.1
		c0.8-0.8,1.8-1.5,2.9-2.1c1-0.6,2.1-0.8,3.2-0.8c1.7,0,2.8,0.4,3.4,1.2c0.7,0.8,1.1,1.9,1.1,3.3V989H587v-11.2
		c0-1.2-0.3-2.1-0.7-2.6c-0.6-0.6-1.4-0.8-2.5-0.8c-1,0-1.9,0.3-2.9,0.8c-1,0.6-1.8,1.2-2.8,2.2v11.7h-1.5v-11.3
		c0-1.2-0.3-2.1-0.7-2.6c-0.4-0.6-1.4-0.8-2.5-0.8c-1,0-1.9,0.3-2.9,0.8c-1,0.6-1.8,1.2-2.8,2.2v11.7h-1.5v-15.7L566,973.5
		L566,973.5z"/>
	<path d="M592.9,973.5h1.5v2.3c0.7-0.7,1.4-1.2,2.2-1.8s1.8-0.8,3-0.8c0.8,0,1.8,0.1,2.5,0.6c0.8,0.3,1.5,0.8,2.1,1.5
		s1.1,1.5,1.4,2.5c0.3,1,0.6,2.2,0.6,3.6c0,1.4-0.1,2.6-0.6,3.6c-0.4,1-0.8,1.8-1.4,2.5c-0.6,0.7-1.2,1.2-2.1,1.5
		c-0.8,0.3-1.7,0.6-2.6,0.6c-1.1,0-2.1-0.3-2.9-0.7c-0.8-0.4-1.7-1.1-2.3-1.8v8.3h-1.5L592.9,973.5L592.9,973.5L592.9,973.5z
		 M599.8,988.1c0.7,0,1.4-0.1,1.9-0.4c0.7-0.3,1.1-0.7,1.7-1.2c0.4-0.6,0.8-1.2,1.1-2.1c0.3-0.8,0.4-1.9,0.4-3s-0.1-2.2-0.4-3
		c-0.3-0.8-0.7-1.5-1.1-2.1c-0.4-0.6-1-1-1.7-1.2c-0.7-0.3-1.2-0.4-1.9-0.4c-1.1,0-1.9,0.3-2.8,0.7c-0.8,0.4-1.7,1.2-2.5,2.1v8.1
		c0.8,0.8,1.8,1.5,2.6,2.1C598,988.1,598.7,988.1,599.8,988.1z"/>
	<path d="M613.6,989.3c-1.4,0-2.5-0.4-3.3-1.1c-0.7-0.7-1.1-1.7-1.1-2.8c0-0.7,0.1-1.4,0.6-2.1c0.3-0.7,1-1.2,1.8-1.8
		s1.9-1.1,3.3-1.5s3-0.8,5.1-1.2v-1c0-1.2-0.3-2.1-0.8-2.6c-0.6-0.6-1.4-0.8-2.5-0.8c-1.2,0-2.3,0.3-3.3,0.7s-1.8,1.1-2.8,1.9
		l-0.8-0.8c1-0.8,1.9-1.7,3-2.2c1.1-0.6,2.3-0.8,3.9-0.8c1.7,0,2.8,0.4,3.6,1.2s1.1,2.1,1.1,3.4v7.3c0,1,0,1.8,0.1,2.3
		c0,0.6,0.1,1.1,0.3,1.5h-1.5c-0.1-0.3-0.1-0.7-0.3-1.1s-0.1-0.8-0.1-1.2c-1,0.8-1.9,1.5-3,1.9S614.7,989.3,613.6,989.3z
		 M613.7,988.1c1.1,0,2.2-0.3,3.3-0.7s1.9-1.1,2.9-2.1V980c-1.9,0.3-3.4,0.7-4.7,1.1c-1.2,0.4-2.2,0.8-2.8,1.2s-1.1,1-1.4,1.4
		c-0.3,0.6-0.4,1.1-0.4,1.7c0,0.8,0.3,1.5,0.8,2.1C612.1,988,612.8,988.1,613.7,988.1z"/>
	<path d="M626.1,973.5h1.5v2.6c0.8-0.8,1.8-1.5,2.8-2.1s2.1-0.8,3.2-0.8c1.7,0,2.8,0.4,3.6,1.2s1.1,1.9,1.1,3.3V989h-1.5v-11.2
		c0-1.2-0.3-2.1-0.8-2.6c-0.6-0.6-1.4-0.8-2.6-0.8c-1.1,0-2.1,0.3-3,0.8c-1,0.6-1.9,1.2-2.9,2.2v11.7h-1.2v-15.6H626.1z
		 M634.6,971.8c-0.4,0-0.8-0.1-1.2-0.3s-0.8-0.4-1.1-0.6c-0.4-0.3-0.7-0.4-1.1-0.6c-0.4-0.1-0.7-0.3-1-0.3c-0.4,0-0.8,0.1-1,0.4
		c-0.1,0.3-0.3,0.7-0.3,1.2h-1c0-1.9,0.8-2.9,2.3-2.9c0.4,0,0.8,0.1,1.1,0.3c0.3,0.1,0.8,0.4,1.2,0.6c0.4,0.1,0.7,0.4,1.1,0.6
		c0.4,0.1,0.7,0.3,1,0.3c0.4,0,0.8-0.1,1-0.4c0.1-0.3,0.3-0.7,0.3-1.2h1C636.9,970.9,636.1,971.8,634.6,971.8z"/>
	<path d="M646.5,989.3c-1.4,0-2.5-0.4-3.3-1.1c-0.7-0.7-1.1-1.7-1.1-2.8c0-0.7,0.1-1.4,0.6-2.1c0.3-0.7,1-1.2,1.8-1.8
		s1.9-1.1,3.3-1.5c1.4-0.4,3-0.8,5.1-1.2v-1c0-1.2-0.3-2.1-0.8-2.6c-0.6-0.6-1.4-0.8-2.5-0.8c-1.2,0-2.3,0.3-3.3,0.7
		s-1.8,1.1-2.8,1.9l-0.8-0.8c1-0.8,1.9-1.7,3-2.2c1.1-0.6,2.3-0.8,3.9-0.8c1.7,0,2.8,0.4,3.6,1.2s1.1,2.1,1.1,3.4v7.3
		c0,1,0,1.8,0.1,2.3c0,0.6,0.1,1.1,0.3,1.5h-1.5c-0.1-0.3-0.1-0.7-0.3-1.1c-0.1-0.4-0.1-0.8-0.1-1.2c-1,0.8-1.9,1.5-3,1.9
		C648.6,989.1,647.8,989.3,646.5,989.3z M646.8,988.1c1.1,0,2.2-0.3,3.3-0.7s1.9-1.1,2.9-2.1V980c-1.9,0.3-3.4,0.7-4.7,1.1
		s-2.2,0.8-2.8,1.2s-1.1,1-1.4,1.4c-0.3,0.6-0.4,1.1-0.4,1.7c0,0.8,0.3,1.5,0.8,2.1C645.2,988,645.9,988.1,646.8,988.1z"/>
	<path d="M659.2,973.5h1.5v2.6c0.8-0.8,1.8-1.5,2.8-2.1s1.9-0.8,3.2-0.8c1.4,0,2.3,0.3,3,0.8c0.7,0.6,1.1,1.2,1.4,2.1
		c0.8-0.8,1.8-1.5,2.9-2.1c1-0.6,2.1-0.8,3.2-0.8c1.7,0,2.8,0.4,3.4,1.2c0.7,0.8,1.1,1.9,1.1,3.3V989h-1.8v-11.2
		c0-1.2-0.3-2.1-0.7-2.6c-0.6-0.6-1.4-0.8-2.5-0.8c-1,0-1.9,0.3-2.9,0.8c-1,0.6-1.8,1.2-2.8,2.2v11.7h-1.5v-11.3
		c0-1.2-0.3-2.1-0.7-2.6c-0.4-0.6-1.4-0.8-2.5-0.8c-1,0-1.9,0.3-2.9,0.8c-1,0.6-1.8,1.2-2.8,2.2v11.7h-1.5L659.2,973.5L659.2,973.5z
		"/>
	<path d="M686.3,967.7h1.5v1.8h-1.5V967.7z M686.4,973.5h1.5v15.6h-1.5V973.5z"/>
	<path d="M698.7,989.5c-0.8,0-1.7-0.1-2.5-0.6c-0.8-0.4-1.5-0.8-2.1-1.7c-0.6-0.7-1.1-1.5-1.4-2.6s-0.6-2.2-0.6-3.4
		c0-1.4,0.1-2.5,0.6-3.6c0.4-1,0.8-1.9,1.5-2.5c0.7-0.7,1.4-1.2,2.1-1.5c0.7-0.3,1.7-0.6,2.5-0.6c1,0,1.8,0.1,2.5,0.6
		c0.8,0.4,1.4,1,1.9,1.7c0.6,0.7,1,1.5,1.2,2.5c0.3,1,0.4,2.1,0.4,3.3v0.3h-11.3c0,1.1,0.1,2.1,0.4,2.9c0.3,0.8,0.7,1.5,1.1,2.2
		c0.4,0.6,1,1,1.7,1.4c0.7,0.3,1.2,0.4,2.1,0.4c1.2,0,2.2-0.3,3-0.8c0.8-0.6,1.4-1.4,2.1-2.3l1.1,0.7c-0.7,1.2-1.4,2.1-2.3,2.8
		C701.4,989.1,700.2,989.5,698.7,989.5z M703.3,980.2c0-0.8-0.1-1.5-0.4-2.2c-0.3-0.7-0.6-1.4-1-1.8c-0.4-0.6-0.8-1-1.4-1.2
		c-0.6-0.3-1.2-0.4-1.9-0.4c-0.6,0-1.2,0.1-1.8,0.4c-0.6,0.3-1.1,0.6-1.5,1.1c-0.4,0.4-0.8,1.1-1.2,1.8c-0.3,0.7-0.6,1.5-0.7,2.5
		h9.9L703.3,980.2L703.3,980.2z"/>
	<path d="M709,973.5h1.5v2.6c0.8-0.8,1.8-1.5,2.8-2.1s2.1-0.8,3.2-0.8c1.7,0,2.8,0.4,3.6,1.2s1.1,1.9,1.1,3.3V989h-1.5v-11.2
		c0-1.2-0.3-2.1-0.8-2.6c-0.6-0.6-1.4-0.8-2.6-0.8c-1.1,0-2.1,0.3-3,0.8c-1,0.6-1.9,1.2-2.9,2.2v11.7h-1.5v-15.7L709,973.5
		L709,973.5z"/>
	<g>
		<path class="st0" d="M657.7,844.2c-5.5-16.7-4.4-20.7-17.1-32.4c-6.6-6.1-13.1-14.1-21.2-18.2c-13.4-6.9-35.6-9.7-50.3-8.8
			c-33.1,1.9-63.4,10.3-74.7,43.7c-3.3,9.8-7.7,19.6-10.2,29.5c-0.4,1.8-1.9,10.3-0.6,15.6c2.5,9.9,6.9,19.9,10.2,29.5
			c11.3,33.4,41.6,41.8,74.7,43.7c14.8,0.8,36.9-1.9,50.3-8.8c8.1-4.1,14.5-12.1,21.1-18.2C652.8,908.1,663.4,861.5,657.7,844.2"/>
		<path class="st1" d="M519.6,907.3c0,0,10.2-79.1,16.5-46.6c5,25.1,1.1,54,15.3,43.7s5.8-78.3,24-73.2c18.2,5.2,18.7,71.8,34.3,68
			s11.7-51.8,16.8-56.9"/>
		<path class="st2" d="M637.2,843.6c0,6.1-4.7,11-10.5,11s-10.5-5-10.5-11s4.7-11,10.5-11C632.3,832.4,637.2,837.4,637.2,843.6"/>
		<path class="st3" d="M617,818c0,3.4-2.6,6.1-5.8,6.1s-5.8-2.8-5.8-6.1c0-3.4,2.6-6.1,5.8-6.1C614.4,811.8,617,814.5,617,818"/>
		<path class="st2" d="M567.1,868.8c3.4,3.3,3.7,8.8,0.6,12.1c-3.2,3.3-8.5,3.3-12.1,0c-3.4-3.3-3.7-8.8-0.6-12.1
			C558.2,865.5,563.7,865.5,567.1,868.8"/>
		<path class="st3" d="M556.9,853.1c1.7,1.7,1.8,4.3,0.3,5.8c-1.5,1.7-4.1,1.5-5.8,0c-1.7-1.7-1.8-4.3-0.3-5.8
			C552.7,851.5,555.1,851.5,556.9,853.1"/>
		<path class="st2" d="M523,904c2.6,2.5,2.8,6.5,0.4,9c-2.3,2.5-6.3,2.5-9,0c-2.6-2.5-2.8-6.5-0.4-9
			C516.3,901.5,520.4,901.5,523,904"/>
	</g>
</g>
</svg>
