<svg width="40" height="40" viewBox="0 0 40 40" fill="none" xmlns="http://www.w3.org/2000/svg">
<path d="M18.4799 0.320068C19.2799 0.320068 20.0799 0.320068 20.9599 0.320068C21.0399 0.320068 21.1199 0.400068 21.2799 0.400068C24.3199 0.640068 27.1999 1.52007 29.7599 3.12007C34.8799 6.24007 37.9999 10.7201 39.0399 16.5601C39.1999 17.2801 39.2799 18.0001 39.3599 18.7201C39.3599 19.5201 39.3599 20.3201 39.3599 21.1201C39.2799 21.7601 39.1999 22.4801 39.1199 23.1201C37.8399 29.9201 34.0799 34.8001 27.8399 37.8401C27.0399 38.2401 26.1599 38.4801 25.1999 38.8801C25.1999 34.0001 25.1999 29.2001 25.1999 24.3201C26.6399 24.3201 27.9999 24.3201 29.3599 24.3201C29.5999 22.6401 29.7599 21.0401 29.9999 19.4401C29.1199 19.4401 28.3999 19.4401 27.5999 19.4401C26.7999 19.4401 25.9999 19.4401 25.1999 19.4401C25.1999 18.2401 25.1999 17.0401 25.1999 15.9201C25.1999 14.7201 25.9199 14.0001 27.1199 14.0001C27.9999 13.9201 28.8799 14.0001 29.7599 14.0001C29.9199 14.0001 29.9999 14.0001 30.1599 14.0001C30.1599 12.4801 30.1599 11.0401 30.1599 9.60007C28.5599 9.44007 27.0399 9.28007 25.5199 9.52007C24.7999 9.60007 23.9999 9.84007 23.2799 10.1601C21.1999 11.1201 20.3199 12.9601 20.1599 15.1201C20.0799 16.4801 20.0799 17.7601 20.0799 19.1201C20.0799 19.2801 20.0799 19.4401 20.0799 19.6001C18.6399 19.6001 17.2799 19.6001 15.9199 19.6001C15.9199 21.2801 15.9199 22.8801 15.9199 24.4801C17.3599 24.4801 18.7199 24.4801 20.0799 24.4801C20.0799 29.6001 20.0799 34.6401 20.0799 39.7601C18.5599 39.7601 17.1199 39.6801 15.6799 39.3601C10.8799 38.3201 7.03986 35.8401 4.07986 32.0001C0.959863 27.9201 -0.240137 23.2801 0.239863 18.1601C0.639863 14.0001 2.23986 10.3201 5.03986 7.20007C8.07986 3.76007 11.8399 1.68007 16.3999 0.880068C17.1199 0.480068 17.8399 0.400068 18.4799 0.320068Z" fill="#686868"/>
<path d="M18.4799 0.320068C19.2799 0.320068 20.0799 0.320068 20.9599 0.320068C21.0399 0.320068 21.1199 0.400068 21.2799 0.400068C24.3199 0.640068 27.1999 1.52007 29.7599 3.12007C34.8799 6.24007 37.9999 10.7201 39.0399 16.5601C39.1999 17.2801 39.2799 18.0001 39.3599 18.7201C39.3599 19.5201 39.3599 20.3201 39.3599 21.1201C39.2799 21.7601 39.1999 22.4801 39.1199 23.1201C37.8399 29.9201 34.0799 34.8001 27.8399 37.8401C27.0399 38.2401 26.1599 38.4801 25.1999 38.8801C25.1999 34.0001 25.1999 29.2001 25.1999 24.3201C26.6399 24.3201 27.9999 24.3201 29.3599 24.3201C29.5999 22.6401 29.7599 21.0401 29.9999 19.4401C29.1199 19.4401 28.3999 19.4401 27.5999 19.4401C26.7999 19.4401 25.9999 19.4401 25.1999 19.4401C25.1999 18.2401 25.1999 17.0401 25.1999 15.9201C25.1999 14.7201 25.9199 14.0001 27.1199 14.0001C27.9999 13.9201 28.8799 14.0001 29.7599 14.0001C29.9199 14.0001 29.9999 14.0001 30.1599 14.0001C30.1599 12.4801 30.1599 11.0401 30.1599 9.60007C28.5599 9.44007 27.0399 9.28007 25.5199 9.52007C24.7999 9.60007 23.9999 9.84007 23.2799 10.1601C21.1999 11.1201 20.3199 12.9601 20.1599 15.1201C20.0799 16.4801 20.0799 17.7601 20.0799 19.1201C20.0799 19.2801 20.0799 19.4401 20.0799 19.6001C18.6399 19.6001 17.2799 19.6001 15.9199 19.6001C15.9199 21.2801 15.9199 22.8801 15.9199 24.4801C17.3599 24.4801 18.7199 24.4801 20.0799 24.4801C20.0799 29.6001 20.0799 34.6401 20.0799 39.7601C18.5599 39.7601 17.1199 39.6801 15.6799 39.3601C10.8799 38.3201 7.03986 35.8401 4.07986 32.0001C0.959863 27.9201 -0.240137 23.2801 0.239863 18.1601C0.639863 14.0001 2.23986 10.3201 5.03986 7.20007C8.07986 3.76007 11.8399 1.68007 16.3999 0.880068C17.1199 0.480068 17.8399 0.400068 18.4799 0.320068Z" fill="#686868"/>
<path d="M18.4799 0.320068C19.2799 0.320068 20.0799 0.320068 20.9599 0.320068C21.0399 0.320068 21.1199 0.400068 21.2799 0.400068C24.3199 0.640068 27.1999 1.52007 29.7599 3.12007C34.8799 6.24007 37.9999 10.7201 39.0399 16.5601C39.1999 17.2801 39.2799 18.0001 39.3599 18.7201C39.3599 19.5201 39.3599 20.3201 39.3599 21.1201C39.2799 21.7601 39.1999 22.4801 39.1199 23.1201C37.8399 29.9201 34.0799 34.8001 27.8399 37.8401C27.0399 38.2401 26.1599 38.4801 25.1999 38.8801C25.1999 34.0001 25.1999 29.2001 25.1999 24.3201C26.6399 24.3201 27.9999 24.3201 29.3599 24.3201C29.5999 22.6401 29.7599 21.0401 29.9999 19.4401C29.1199 19.4401 28.3999 19.4401 27.5999 19.4401C26.7999 19.4401 25.9999 19.4401 25.1999 19.4401C25.1999 18.2401 25.1999 17.0401 25.1999 15.9201C25.1999 14.7201 25.9199 14.0001 27.1199 14.0001C27.9999 13.9201 28.8799 14.0001 29.7599 14.0001C29.9199 14.0001 29.9999 14.0001 30.1599 14.0001C30.1599 12.4801 30.1599 11.0401 30.1599 9.60007C28.5599 9.44007 27.0399 9.28007 25.5199 9.52007C24.7999 9.60007 23.9999 9.84007 23.2799 10.1601C21.1999 11.1201 20.3199 12.9601 20.1599 15.1201C20.0799 16.4801 20.0799 17.7601 20.0799 19.1201C20.0799 19.2801 20.0799 19.4401 20.0799 19.6001C18.6399 19.6001 17.2799 19.6001 15.9199 19.6001C15.9199 21.2801 15.9199 22.8801 15.9199 24.4801C17.3599 24.4801 18.7199 24.4801 20.0799 24.4801C20.0799 29.6001 20.0799 34.6401 20.0799 39.7601C18.5599 39.7601 17.1199 39.6801 15.6799 39.3601C10.8799 38.3201 7.03986 35.8401 4.07986 32.0001C0.959863 27.9201 -0.240137 23.2801 0.239863 18.1601C0.639863 14.0001 2.23986 10.3201 5.03986 7.20007C8.07986 3.76007 11.8399 1.68007 16.3999 0.880068C17.1199 0.480068 17.8399 0.400068 18.4799 0.320068Z" fill="#686868"/>
<path d="M18.4799 0.320068C19.2799 0.320068 20.0799 0.320068 20.9599 0.320068C21.0399 0.320068 21.1199 0.400068 21.2799 0.400068C24.3199 0.640068 27.1999 1.52007 29.7599 3.12007C34.8799 6.24007 37.9999 10.7201 39.0399 16.5601C39.1999 17.2801 39.2799 18.0001 39.3599 18.7201C39.3599 19.5201 39.3599 20.3201 39.3599 21.1201C39.2799 21.7601 39.1999 22.4801 39.1199 23.1201C37.8399 29.9201 34.0799 34.8001 27.8399 37.8401C27.0399 38.2401 26.1599 38.4801 25.1999 38.8801C25.1999 34.0001 25.1999 29.2001 25.1999 24.3201C26.6399 24.3201 27.9999 24.3201 29.3599 24.3201C29.5999 22.6401 29.7599 21.0401 29.9999 19.4401C29.1199 19.4401 28.3999 19.4401 27.5999 19.4401C26.7999 19.4401 25.9999 19.4401 25.1999 19.4401C25.1999 18.2401 25.1999 17.0401 25.1999 15.9201C25.1999 14.7201 25.9199 14.0001 27.1199 14.0001C27.9999 13.9201 28.8799 14.0001 29.7599 14.0001C29.9199 14.0001 29.9999 14.0001 30.1599 14.0001C30.1599 12.4801 30.1599 11.0401 30.1599 9.60007C28.5599 9.44007 27.0399 9.28007 25.5199 9.52007C24.7999 9.60007 23.9999 9.84007 23.2799 10.1601C21.1999 11.1201 20.3199 12.9601 20.1599 15.1201C20.0799 16.4801 20.0799 17.7601 20.0799 19.1201C20.0799 19.2801 20.0799 19.4401 20.0799 19.6001C18.6399 19.6001 17.2799 19.6001 15.9199 19.6001C15.9199 21.2801 15.9199 22.8801 15.9199 24.4801C17.3599 24.4801 18.7199 24.4801 20.0799 24.4801C20.0799 29.6001 20.0799 34.6401 20.0799 39.7601C18.5599 39.7601 17.1199 39.6801 15.6799 39.3601C10.8799 38.3201 7.03986 35.8401 4.07986 32.0001C0.959863 27.9201 -0.240137 23.2801 0.239863 18.1601C0.639863 14.0001 2.23986 10.3201 5.03986 7.20007C8.07986 3.76007 11.8399 1.68007 16.3999 0.880068C17.1199 0.480068 17.8399 0.400068 18.4799 0.320068Z" fill="#686868"/>
</svg>
