<svg width="40" height="40" viewBox="0 0 40 40" fill="none" xmlns="http://www.w3.org/2000/svg">
<path d="M18.7998 0.800049C19.5998 0.800049 20.3998 0.800049 21.1998 0.800049C21.2798 0.800049 21.3598 0.880049 21.5198 0.880049C24.4798 1.12005 27.2798 2.00005 29.8398 3.52005C34.7998 6.56005 37.8398 10.96 38.8798 16.72C39.0398 17.44 39.0398 18.16 39.1998 18.8C39.1998 19.6 39.1998 20.4 39.1998 21.2C39.1998 21.44 39.1198 21.68 39.1198 21.92C38.7198 25.68 37.3598 29.12 34.8798 32.08C31.8398 35.76 27.9998 38 23.3598 38.88C22.6398 39.04 21.9198 39.0401 21.1998 39.2001C20.3998 39.2001 19.5998 39.2001 18.7998 39.2001C18.3198 39.12 17.8398 39.12 17.3598 39.0401C13.8398 38.56 10.6398 37.2 7.83981 34.88C4.2398 31.92 1.9198 28 1.1198 23.3601C0.959805 22.64 0.879805 21.92 0.799805 21.2C0.799805 20.4 0.799805 19.6 0.799805 18.8C0.799805 18.56 0.879805 18.32 0.879805 18.08C1.3598 14 2.8798 10.4 5.5998 7.36005C8.5598 4.00005 12.3198 1.92005 16.7198 1.12005C17.4398 0.960049 18.0798 0.880049 18.7998 0.800049ZM17.0398 29.84C18.5598 29.84 20.1598 29.84 21.6798 29.84C21.6798 29.68 21.6798 29.5201 21.6798 29.3601C21.6798 27.5201 21.6798 25.68 21.6798 23.84C21.6798 23.04 21.6798 22.32 21.6798 21.52C21.6798 20.72 22.1598 20.08 22.7998 19.6C24.1598 18.64 25.9198 19.2 26.3998 20.8C26.5598 21.28 26.6398 21.92 26.6398 22.4C26.6398 24.72 26.6398 27.04 26.6398 29.44C26.6398 29.6 26.6398 29.68 26.6398 29.84C28.2398 29.84 29.7598 29.84 31.2798 29.84C31.2798 29.68 31.2798 29.6 31.2798 29.44C31.2798 26.96 31.2798 24.4 31.2798 21.92C31.2798 21.36 31.2798 20.8 31.1998 20.24C30.8798 17.52 29.1998 15.76 26.5598 15.44C24.6398 15.2 23.0398 15.76 21.9198 17.44C21.8398 17.52 21.8398 17.5201 21.6798 17.68C21.6798 16.96 21.6798 16.4 21.6798 15.76C20.0798 15.76 18.5598 15.76 17.0398 15.76C17.0398 20.48 17.0398 25.12 17.0398 29.84ZM9.7598 15.76C9.7598 20.48 9.7598 25.12 9.7598 29.84C11.3598 29.84 12.8798 29.84 14.3998 29.84C14.3998 29.68 14.3998 29.5201 14.3998 29.3601C14.3998 25.2001 14.3998 20.96 14.3998 16.8C14.3998 16.56 14.3998 16.4 14.3998 16.16C14.3998 15.84 14.3198 15.84 13.9998 15.84C12.7998 15.84 11.5198 15.84 10.3198 15.84C10.1598 15.76 9.9998 15.76 9.7598 15.76ZM9.43981 11.44C9.43981 12.88 10.5598 13.84 12.0798 13.84C13.5998 13.84 14.7198 12.8 14.7198 11.44C14.7198 10 13.5998 8.96005 12.0798 9.04005C10.5598 8.96005 9.43981 10 9.43981 11.44Z" fill="#686868"/>
</svg>
