<svg width="40" height="40" viewBox="0 0 40 40" fill="none" xmlns="http://www.w3.org/2000/svg">
<path d="M18.8003 0.399902C19.6003 0.399902 20.4003 0.399902 21.2803 0.399902C22.0003 0.479902 22.7203 0.559902 23.4403 0.719902C33.6003 2.4799 40.7203 11.9999 39.4403 22.2399C38.8003 27.9199 36.0803 32.4799 31.4403 35.8399C27.2803 38.8799 22.5603 40.0799 17.3603 39.4399C13.4403 38.9599 9.92031 37.3599 6.96031 34.7199C3.52031 31.6799 1.44031 27.9199 0.640312 23.4399C0.480312 22.7199 0.400312 21.9999 0.320312 21.2799C0.320312 20.4799 0.320312 19.6799 0.320312 18.7999C0.400312 18.3199 0.400313 17.8399 0.480313 17.3599C1.12031 13.1199 2.88031 9.3599 5.92031 6.3199C8.88031 3.3599 12.4003 1.4399 16.5603 0.719902C17.3603 0.559902 18.0803 0.479902 18.8003 0.399902ZM9.92031 17.4399C9.92031 18.4799 10.2403 19.3599 10.8803 20.2399C11.5203 21.0399 12.3203 21.5199 13.3603 21.8399V21.9199C12.8003 21.9199 12.1603 21.9199 11.5203 21.9199C11.8403 22.8799 12.3203 23.5999 13.1203 24.1599C13.8403 24.7199 14.7203 25.0399 15.7603 25.1199C13.7603 26.6399 11.6003 27.1999 9.20031 26.9599C9.36031 27.1199 9.52031 27.1199 9.60031 27.1999C11.1203 28.0799 12.7203 28.6399 14.4803 28.8799C17.5203 29.1999 20.3203 28.7199 22.8803 27.0399C26.8803 24.3999 28.8003 20.6399 28.8803 15.9199C28.8803 15.6799 28.9603 15.5199 29.1203 15.3599C29.6803 14.7999 30.2403 14.2399 30.8003 13.5999C30.8803 13.5199 30.8803 13.4399 30.9603 13.3599C30.1603 13.5999 29.4403 13.7599 28.6403 13.9999V13.9199C29.5203 13.3599 30.0803 12.5599 30.4003 11.6799C29.6003 11.9999 28.7203 12.2399 27.9203 12.5599C27.6803 12.6399 27.5203 12.5599 27.3603 12.3999C26.0003 11.1999 24.4003 10.8799 22.7203 11.5199C21.0403 12.1599 20.0803 13.4399 19.8403 15.1999C19.7603 15.6799 19.8403 16.2399 19.8403 16.7199C16.0803 16.4799 13.0403 14.8799 10.6403 11.9999C10.0803 13.0399 9.92031 14.0799 10.1603 15.2799C10.4003 16.3999 11.0403 17.2799 11.9203 17.9999L11.8403 18.0799C11.1203 17.7599 10.5603 17.5999 9.92031 17.4399Z" fill="#686868"/>
</svg>
