<?xml version="1.0" encoding="utf-8"?>
<!-- Generator: Adobe Illustrator 24.2.3, SVG Export Plug-In . SVG Version: 6.00 Build 0)  -->
<svg version="1.1" id="Nube" xmlns="http://www.w3.org/2000/svg" xmlns:xlink="http://www.w3.org/1999/xlink" x="0px" y="0px"
	 viewBox="0 0 1080 1080" style="enable-background:new 0 0 1080 1080;" xml:space="preserve">
<style type="text/css">
	.st0{fill:#FFFFFF;}
</style>
<path class="st0" d="M438.3,406.1c-3,9.5-5.3,20.2-3,30.1c0.8,3.4,3,10.6,6.5,12.3c2.5,1.1,7.3,0.2,10,0c3.1-0.2,6.1-0.3,9.2-0.2
	c45.9,2.2,92,0.3,138-2.2c45.8-2.5,91.6-5.6,137.3-5.8c20.2,0,24.4-4.4,19.5-24.6c-4.2-17-11.7-33.8-17.4-50.5
	c-19.3-56.8-73.3-73.3-129.6-76.8c-25.2-1.6-63.1,3.4-85.8,15.1c-13.9,7.2-24.8,20.6-36.1,31C464.9,354.8,447.2,377.6,438.3,406.1z"
	/>
</svg>
