<?xml version="1.0" encoding="utf-8"?>
<!-- Generator: Adobe Illustrator 24.2.3, SVG Export Plug-In . SVG Version: 6.00 Build 0)  -->
<svg version="1.1" id="Puerta_marco" xmlns="http://www.w3.org/2000/svg" xmlns:xlink="http://www.w3.org/1999/xlink" x="0px"
	 y="0px" viewBox="0 0 1080 1080" style="enable-background:new 0 0 1080 1080;" xml:space="preserve">
<style type="text/css">
	.st0{fill:#382716;}
	.st1{fill:none;stroke:#FFFFFF;stroke-width:2.875;stroke-miterlimit:10;}
</style>
<g>
	<path class="st0" d="M186,1025.4c0,0,12.3-209.1,6.1-421.7c-6.4-212.6-28.5-453.8,12.6-441.3s422.5,27.4,419.3,64.9
		c-3.1,37.5-12.6,101.2-3.1,298.2s12.6,368.9,3.1,378.4c-9.5,9.3-22.1,3.1-22.1,3.1s0-272-9.5-400.2s22.1-276.2,12.6-279.4
		c-9.5-3.1-384.6-55.4-391-39.9s23,672.1,9.5,819.5C221.8,1027.1,186,1025.4,186,1025.4z"/>
	<path class="st1" d="M630.9,223c-27.6,0.5-62-10.4-89.1-14.3c-72.3-10.7-141.5-17.4-214.1-25.8c-39.9-4.7-81-7.3-120.7-10.4
		c-5.6,42.8-3,89.8-4.5,133.9c-2.6,71.6-3.6,143.4-3.7,215.2c-0.2,99.5,14.9,203.5,11.5,303.3c-1.6,45.5-0.9,91.1-0.9,137
		c0,18.5-2,42.2-7.6,60.4"/>
</g>
</svg>
