<?xml version="1.0" encoding="utf-8"?>
<!-- Generator: Adobe Illustrator 24.2.3, SVG Export Plug-In . SVG Version: 6.00 Build 0)  -->
<svg version="1.1" id="Flor" xmlns="http://www.w3.org/2000/svg" xmlns:xlink="http://www.w3.org/1999/xlink" x="0px" y="0px"
	 viewBox="0 0 1080 1080" style="enable-background:new 0 0 1080 1080;" xml:space="preserve">
<style type="text/css">
	.st0{fill:#151515;}
	.st1{fill:#FF8500;}
</style>
<g>
	<path class="st0" d="M298.1,896.3c-21.5-22.1-33.5-128.9-2.3-144.5c3-1.6,10.7,24,11.4,26.5c2,10,2.5,20.2,3.3,30.2
		c0.6,10.1,1.6,20.2,4.2,30.1c1.2,4.7,4.2,9,5.3,13.5c1.2,5.3-2.5,8.6-4.5,13.5c-2,5.1-5.3,9.7-8.4,14.2
		C306.1,881,298.5,896.7,298.1,896.3z"/>
	<path class="st0" d="M325.2,851.1c2.3-1.2,4.5-7.9,6.1-10.6c1.7-3.1,2.2-7,3.1-10.4c3.9-13.1,14.8-22.3,23-32.7
		c21.5-27.1,49.4-70.4,89.8-63.4c37.1,24.3-67.7,138-121.3,117.3"/>
	<path class="st0" d="M428.5,573.6c-20.4,34.3-25.8,90.3-37.8,130.3c-14.2,47.5-36.7,92.5-56.7,137.8c-21.8,49.2-46.1,96.5-64,147.5
		c-5.6,15.9-6.2,32.4-8.3,48c-27.3,1.4,11.1-87.2,15.1-96.9c15.4-37.4,32.4-74.6,51.7-110.1c22.7-41.9,37.1-88.1,50.3-133.6
		c4-14.2,30.2-137,49.8-124.1"/>
	<path class="st1" d="M402.3,616.6c-23.2,13.7-64.3-91.3-61.8-117.9c21.8,4.8,52.5-5.1,69,10.6c23.4,22.1-1.6,31.1,1.6,53.3
		c15.1-15.1,53.3-62.1,77.9-40.3c24.8,22.1-4.8,41.1-17,53.9c-9.8,10.3-54.3,64.9-68.8,34.1"/>
</g>
</svg>
