<?xml version="1.0" encoding="utf-8"?>
<!-- Generator: Adobe Illustrator 24.2.3, SVG Export Plug-In . SVG Version: 6.00 Build 0)  -->
<svg version="1.1" id="Puerta" xmlns="http://www.w3.org/2000/svg" xmlns:xlink="http://www.w3.org/1999/xlink" x="0px" y="0px"
	 viewBox="0 0 1080 1080" style="enable-background:new 0 0 1080 1080;" xml:space="preserve">
<style type="text/css">
	.st0{fill:#382716;}
	.st1{clip-path:url(#SVGID_2_);}
	.st2{fill-rule:evenodd;clip-rule:evenodd;fill:#E9EBE0;}
	.st3{fill:#FFFFFF;}
</style>
<g>
	<path class="st0" d="M624.1,223.1c0,0,349.6-76.9,349.6-54.8c0,9.8-9.7,145.9-6.7,327.5c1.6,99.7-0.6,211.5-0.9,296.6
		c-0.3,107.4-12,184.8-19,184.8c-22.3,0-343.2-70.7-343.2-70.7l8.4-555.9L624.1,223.1z"/>
	<g>
		<g>
			<g>
				<defs>
					<path id="SVGID_1_" d="M696.5,220.9c0,0,271.7-76.9,271.7-54.8c0,9.8-5.5,142.6-2.5,324.2c1.6,99.7,0.5,217.1,0.2,302.2
						c-0.3,107.4-12,184.8-19,184.8c-22.3,0-252.7-51.4-252.7-51.4l-9.8-577.7L696.5,220.9z"/>
				</defs>
				<clipPath id="SVGID_2_">
					<use xlink:href="#SVGID_1_"  style="overflow:visible;"/>
				</clipPath>
				<g class="st1">
					<path class="st2" d="M890.8,1009c-2.8,0.3-5.6-1.4-6.9-4.4c-1.2-2.8-0.3-6.1,2.3-8.1c1.2-0.9,2.5-1.6,4-1.4
						c2.6,0,4.5,1.2,6.2,3.6c-0.2-3.1,0.9-5.3,3.3-7.2c-3-0.2-5.1-1.4-6.9-3.7c-0.2,0.3-0.2,0.6-0.2,0.9c-0.2,3.6-3,6.4-6.5,6.7
						c-3.3,0.3-6.7-2.5-7.3-5.8c-0.5-3,0.9-5.1,3.1-6.9c0.2-0.2,0.3-0.3,0.5-0.6c-5-0.6-7.2-2.5-7.9-6.1c-0.5-2.5,1.1-5.5,3.4-6.9
						c3.4-1.9,5.6-1.4,9.7,2.2c-0.2-2.8,0.9-5,3.4-6.9c-3.1,0-5.3-1.4-6.9-3.6c-1.2,5.5-2.6,7-6.9,7.5c-2.3,0.3-5.6-1.7-6.5-4
						c-1.2-3-0.6-6.1,2-8.1c3.9-3,7.5-1.7,10.6,1.9c-0.2-3.3,1.2-5.6,3.9-7.3c-4,0-6.9-1.6-7.8-5.1c-1.1-3.6,0.6-6.2,3.7-8.4
						c-4.8,0.2-7.2-2.3-7.9-4.7c-0.9-2.8-0.3-5.6,2.3-7.5c4.4-3.1,7.9-1.4,10.9,2.5c-0.6-3.7,1.1-6.2,4.4-8.3
						c-4.5,0.3-7-1.9-8.1-4.4c-1.1-2.3-0.6-5.5,1.9-7.6c4-3.3,7.5-1.9,10.7,1.6c0.2-3.4,1.6-5.8,4.2-7.3c-3.9,0-6.7-1.4-7.9-5.3
						c-0.8-2.8,0-5.1,2.2-6.9c4-3.3,7.6-1.9,10.7,2c0-4,1.6-6.7,5.1-7.8c3.7-1.1,6.4,0.6,8.3,3.4c0.5-1.6,0.5-3.1,1.2-4.5
						c0.8-1.2,2-2.3,3.1-3.4c-4.8-0.2-7.6-1.9-8.3-5.5c-0.6-3.1,1.1-6.2,4.2-7.6c2.6-1.1,6.2-0.2,7.9,2.2c1.2,1.9,1.9,3.7,1.2,5.9
						c-0.6,2.2-2,3.6-4,4.7c3.3-0.5,5.9,0.6,8.1,3.3c0-3.1,1.2-5.3,3.7-7c-4-0.3-6.7-1.9-7.5-5.5c-0.6-3,0.3-5.5,3-7.2
						c4.2-2.6,7.6-1.1,10.3,2.8c0.2-1.4,0-2.6,0.5-3.7c0.5-1.1,1.2-2.2,2-3.1c0.9-0.8,2-1.4,3.3-1.6c2.8-0.6,5.9,0.9,7.3,3.4
						c0.8,1.2,0.9,2.8,0.8,4.2c-0.3,2.3-1.9,3.9-3.9,5.3c3.1-0.3,5.6,0.9,7.8,3.4c0.2-3.4,1.6-5.8,4.5-7.5c-1.6-0.2-2.8-0.2-3.9-0.6
						c-1.1-0.5-2.2-1.2-3-2.2c-0.8-0.9-1.2-2.2-1.4-3.3c-0.5-3.4,1.6-6.4,4.7-7.5c2.8-0.9,6.2,0.3,7.9,3c1.1,1.7,1.4,3.6,0.8,5.6
						c-0.6,2-2,3.4-3.9,4.4c3.4-0.3,6.1,0.9,7.9,3.7c-0.2-3.4,1.2-5.9,4.4-7.6c-0.6,0-0.8,0-0.9,0c-3.1,0.2-6.1-1.6-7.2-4.4
						c-0.9-2.5-0.5-5.8,2.5-7.9c3.6-2.6,8.9-0.9,10.3,3.1c1.1,3.1,0.2,5.9-2.6,7.9c-0.3,0.2-0.6,0.3-0.9,0.3
						c0.2,0.2,0.3,0.3,0.5,0.5c3.4-0.5,5.9,1.1,7.8,3.9c-0.2-5.1,2.5-7.2,5-8.1c2.6-0.9,5.9,0.2,7.5,2.6c2.8,4.2,1.2,7.6-2.6,10.6
						c3.4-0.6,5.9,0.9,7.9,3.3c0-3.3,1.6-5.6,4.2-7.3c-4.8-0.3-7.3-2.2-8.1-5.8c-0.6-2.8,1.1-5.8,3.9-7.2c2.8-1.4,6.1-0.8,8.1,2
						c3.1,4.4,1.2,7.6-3,10.6c4.4-0.5,7.5,1.2,8.6,5.1c1.1,3.4-0.6,6.1-3.4,7.9c1.4,0.3,3.1,0.5,4.5,1.1s2.3,2,3.6,3
						c-0.2-1.7,0.2-3.6,1.2-5.3c1.2-1.7,3-2.5,5-2.8c2.5-0.3,5.6,1.4,6.9,4c1.4,2.8,0.9,5.8-1.9,7.9c-4.4,3.4-7.9,1.7-11.1-2.2
						c0.6,3.1-0.8,5.5-3.1,7.8c3.4-0.2,5.5,1.6,7,3.6c0.6-1.6,1.1-3.1,1.9-4.5c0.9-1.6,2.5-2.3,4.2-2.6c3.3-0.5,5.9,1.1,7.2,4
						c1.1,2.6,0.5,5.5-1.6,7.2c-3.9,3.3-7.5,2.2-10.7-1.9c0.3,3.9-1.1,6.5-4.4,7.9c-3.3,1.6-6.2,0.5-8.9-2.2
						c-0.2,2.3-1.1,4.2-2.5,5.6c3.7,1.2,3.1,0.8,6.2,4c0.9-4.8,2.6-6.7,6.2-7c2.6-0.3,5.3,1.4,6.4,3.9c1.1,2.6,0.6,5.6-1.7,7.5
						c-3.7,3-7.2,1.9-10.3-1.7c0.2,3.7-1.1,6.5-4.2,8.3c-3.3,1.7-6.1,0.8-8.9-0.9c-0.9,1.6-1.7,3-2.6,4.5c5.1,1.4,7.2,5.9,6.1,9.5
						c-0.5,1.9-1.6,3.3-3.1,4.4c-3.1,2-6.2,1.7-9-0.3c-1.2,1.9-2.3,3.4-3.4,5.1c4.8,1.1,6.4,5.6,5.5,8.6c-0.6,1.9-1.7,3.3-3.4,4
						c-3,1.6-5.5,0.6-7.9-1.4c0,0.5-0.2,0.6-0.2,0.8c-0.9,5.8-7.3,9.2-12.5,6.2c-0.3-0.2-0.8-0.2-0.8-0.3c-1.2,1.7-2.3,3.1-3.4,4.7
						c3.9,0.9,6.1,4.2,5.1,7.6c-0.8,3.3-4.2,5.3-7.6,4.5c-1.9-0.5-3.1-1.6-4-3.1c-1.6-2.6-0.8-5.1,0.9-7.3c-1.9-0.6-3.6-1.2-5.3-1.7
						c-0.6,1.1-1.4,2.2-2.2,3.3c0.6,0.3,1.2,0.5,1.7,0.8c0.9,0.8,2,1.6,2.6,2.5c2.2,3.3,1.4,6.9-1.9,9.5c-2.3,1.9-6.1,2.3-9-0.5
						c-0.3-0.2-0.6-0.3-0.9-0.5c-0.5,3.4-2.2,5.8-5.3,6.9c-3.3,1.2-5.9,0.2-8.4-2c-0.6,3.3-2.3,5.6-5.5,6.5c-3.1,1.1-5.8,0-8.3-2.2
						c-0.8,3.4-2.5,5.8-5.9,6.5c-3.3,0.8-5.9-0.6-8.1-3.1c-0.5,3.6-2,6.1-5.5,7s-5.9-0.6-8.3-3.3
						C897.2,1006.1,894.1,1008.7,890.8,1009z M947.3,877.9c0.2-3.4,1.4-5.9,4.4-7.5c-3.4,0.3-6.2-0.9-7.9-4c0.3,3.1-0.6,5.8-3.3,7.6
						C943.1,874.2,945.5,875.3,947.3,877.9z M989.1,867.2c0.2,3.1-0.9,5.5-3.9,7.3c3.1,0,5.5,1.1,7.2,3.4c0.2-3.1,1.6-5.6,4.4-7.2
						C993.4,871,990.9,870,989.1,867.2z M895.9,978c-3.1,0-5.5-1.1-7.3-3.7c0.2,3.3-1.2,5.6-3.7,7.3c3.1,0,5.5,1.1,7.2,3.6
						C892.2,982.2,893.1,979.7,895.9,978z M907.3,893.8c-0.2,3.1-1.4,5.6-4.2,7.2c3.1-0.2,5.6,0.8,7.6,3.7c0-3.1,1.1-5.3,3.6-7.2
						C911.2,897.4,909,896.1,907.3,893.8z M895.6,933.2c-3.1-0.3-5.5-1.6-6.9-4.2c0.2,3.3-0.8,5.8-3.6,7.6c2.8,0,5.3,0.8,7.2,3.1
						C892.4,937.1,893.5,934.9,895.6,933.2z M904.8,915.3c-3-0.2-5.1-1.4-6.7-3.9c0,3.4-1.2,5.8-4,7.3c3-0.2,5.5,0.6,7.3,3
						C901.6,919,902.6,917.1,904.8,915.3z M1011.8,882.7c0.6-1.1,1.6-1.9,2.2-2.8c-2.6,0.2-5-0.8-6.9-3.3c0,2.6-0.9,4.8-3.3,6.7
						c2.8,0.2,4.8,1.1,6.4,3C1010.9,885.1,1011.2,883.7,1011.8,882.7z M896.6,953.3c0.8-3.7,0.5-3.4,3.3-6.7
						c-2.6-0.2-4.7-1.2-6.4-3.4c-0.2,3-1.2,5.1-3.6,6.9C892.7,950,894.9,951.1,896.6,953.3z M975.4,871.5c0.2,2.8-0.6,5.1-3,7
						c1.2,0.3,2.3,0.5,3.4,0.9c1.1,0.5,1.9,1.2,3,2c0.3-2.5,1.4-4.5,3.6-5.9C979.3,875.3,977.1,874,975.4,871.5z M917.4,896.3
						c2.6,0,4.8,0.9,6.5,2.8c0.3-1.2,0.6-2.3,1.1-3.3c0.5-0.9,1.4-1.9,2-2.8c-2.6-0.3-4.8-1.6-6.2-3.7
						C921,892.1,919.9,894.4,917.4,896.3z M908.6,914c2.6,0.2,4.7,0.9,6.4,3.1c0.3-2.5,1.2-4.5,3.3-6.1c-2.8-0.3-4.8-1.4-6.4-3.4
						C911.7,910.3,910.7,912.3,908.6,914z M897.8,957c-0.2,2.5-1.1,4.7-3.4,6.4c2.8,0,5,0.9,6.5,3.1c0.9-3.6,0.9-3.6,3-6.1
						C900.3,959.5,900.9,959.8,897.8,957z M937.8,894.9c0.3-2.5,1.4-4.5,3.6-6.2c-3-0.2-5-1.1-6.7-3.3c-0.2,2.5-1.1,4.7-3.3,6.4
						C934.3,891.9,936.1,892.8,937.8,894.9z M954.7,884.4c-2.8-0.3-4.8-1.4-6.2-3.6c-0.3,1.2-0.5,2.5-1.1,3.6c-0.5,1.1-1.4,2-2.2,3
						c2.3,0.2,4.4,0.9,6.1,2.8C951.7,887.9,952.5,886,954.7,884.4z M993.6,880.9c0,2.8-0.8,4.8-2.8,6.7c2.6,0.3,4.5,1.2,6.2,3.1
						c0.2-2.6,1.2-4.5,3-6.1C997.2,884.4,995.1,883.4,993.6,880.9z M965.1,886.2c0.3-2.6,1.2-4.7,3.4-6.2c-2.8-0.2-4.8-1.2-6.5-3.4
						c0,2.8-0.9,4.8-3,6.5C961.5,883.4,963.4,884.1,965.1,886.2z M908.9,928.8c-2.6-0.2-4.5-1.2-6.2-3.3c-0.2,2.8-1.1,4.7-3.1,6.2
						c2.8,0.6,3,0.3,6.2,3.1C905.9,932.4,907,930.5,908.9,928.8z M1014.9,899.9c0.3-2.5,1.2-4.5,3.4-6.1c-2.6-0.2-4.7-1.1-6.2-3
						c-0.3,1.1-0.6,2.2-1.1,3.3c-0.5,0.9-1.2,1.9-1.9,2.8C1011.3,896.9,1013.2,898,1014.9,899.9z M907,984.4
						c-0.3,2.5-1.2,4.4-3.4,5.9c2.6,0.3,4.7,1.1,6.2,3.3c0.2-2.6,1.1-4.5,3.1-6.2C910.4,987.2,908.6,986.3,907,984.4z M908.1,974
						c-2.3-0.5-4.2-1.4-5.6-3.4c-0.3,2.6-1.4,4.7-3.4,6.1c1.2,0.3,2.3,0.5,3.4,0.9c1.1,0.5,1.9,1.2,3,1.9
						C905.6,977.4,906.4,975.7,908.1,974z M925.7,910.3c0.9,0.3,1.7,0.9,2.5,1.4c0.9-1.7,1.9-3.4,2.8-5.1c-1.9-0.3-3.7-1.2-5.3-3
						c-0.2,2.5-1.2,4.4-3,5.9C923.8,909.8,924.8,910,925.7,910.3z M969.1,898.5c0.8-1.6,1.7-3.1,2.8-5c-2-0.2-3.7-1.2-5.3-3
						c-0.2,2.3-1.1,4.2-2.5,5.5C965.9,896.9,967.6,897.7,969.1,898.5z M909.6,947.7c0.8-1.7,1.7-3.3,2.5-4.8
						c-1.6-0.9-3.1-1.9-4.8-2.8c-0.3,1.9-1.2,3.9-3.3,5.5C906.4,945.5,908.2,946.3,909.6,947.7z M985.5,889.1
						c-1.9-0.3-3.7-1.1-5.3-3c-0.3,2.3-1.1,4-2.5,5.5c1.9,0.8,3.6,1.7,5.1,2.3C983.6,892.5,984.5,890.8,985.5,889.1z M995.9,900.6
						c1.7,0.8,3.4,1.6,4.8,2.3c0.9-1.6,1.9-3.1,2.8-4.8c-1.9-0.3-3.7-1.2-5.3-3C998.1,897.5,997.2,899.4,995.9,900.6z M936.7,904.7
						c1.9,0.8,3.6,1.7,5.1,2.5c0.8-1.4,1.6-3,2.3-4.7c-1.9-0.3-3.6-1.2-5.1-3.1C938.9,901.7,938.1,903.4,936.7,904.7z M921.2,924.9
						c-1.6-0.9-3.1-1.9-4.8-2.8c-0.2,2-1.2,3.7-2.6,5c1.9,0.8,3.6,1.6,5.1,2.2C919.6,927.9,920.4,926.3,921.2,924.9z M916.5,956.2
						c-1.4-0.8-3-1.6-4.5-2.3c-0.8,1.6-1.7,3.3-2.6,4.7c1.6,0.6,3.3,1.4,4.8,2C914.9,959.3,915.7,957.8,916.5,956.2z M925.2,983.3
						c-1.4-0.8-3-1.6-4.4-2.3c-0.8,1.6-1.7,3.1-2.6,4.7c1.4,0.6,3.1,1.4,4.8,2.2C923.7,986.4,924.4,984.9,925.2,983.3z M953.1,895.8
						c-0.6,1.4-1.4,3.1-2.2,4.7c1.4,0.6,3,1.4,4.5,2c0.8-1.4,1.7-3,2.5-4.2C956.4,897.4,954.7,896.6,953.1,895.8z M918.7,974.3
						c0.6-1.4,1.4-3,2-4.4c-1.4-0.8-2.8-1.6-4.2-2.2c-0.8,1.4-1.6,3-2.3,4.4C915.6,972.9,917.1,973.7,918.7,974.3z M987.2,907.2
						c0.8-1.4,1.7-2.8,2.3-4.2c-1.4-0.8-3-1.4-4.5-2.2c-0.6,1.2-1.2,2.8-2,4.2C984.4,905.6,985.8,906.4,987.2,907.2z M919,940.5
						c1.4,0.6,2.8,1.4,4.2,2.2c0.6-1.2,1.4-2.8,2.2-4.2c-1.4-0.8-2.8-1.6-4.2-2.2C920.5,937.7,919.8,939.1,919,940.5z M932.5,924.8
						c0.6-1.4,1.4-2.8,2.2-4.2c-1.4-0.8-2.8-1.6-4-2.2c-0.6,1.4-1.4,3-2.2,4.4C929.6,923.4,931.1,924,932.5,924.8z M1001.2,914
						c1.2,0.6,2.6,1.4,4,2c0.8-1.4,1.6-2.8,2.3-4c-1.4-0.6-3-1.4-4.5-2.2C1002.5,911.2,1001.8,912.6,1001.2,914z M925.5,950
						c-0.8,1.2-1.4,2.6-2.2,4c1.4,0.6,2.8,1.2,4.4,2c0.6-1.2,1.2-2.5,1.9-3.9C928.2,951.4,926.9,950.8,925.5,950z M942.2,918.1
						c1.2,0.6,2.6,1.2,3.9,1.9c0.8-1.2,1.4-2.5,2.2-3.7c-1.4-0.8-2.6-1.6-4-2.3C943.4,915.3,942.8,916.7,942.2,918.1z M938.5,979.3
						c-1.2-0.6-2.6-1.2-3.9-1.9c-0.6,1.2-1.4,2.5-2.2,3.6c1.4,0.8,2.8,1.6,4.2,2.2C937.4,982.1,938,980.7,938.5,979.3z M973.3,911.2
						c0.8-1.2,1.4-2.5,2-3.7c-1.2-0.8-2.6-1.4-4-2.2c-0.6,1.4-1.2,2.8-1.9,4.2C970.7,910,972.1,910.6,973.3,911.2z M961.7,911.8
						c-1.2-0.6-2.6-1.4-3.9-2c-0.6,1.2-1.4,2.6-2,3.9c1.2,0.6,2.6,1.2,3.9,1.9C960.3,914.5,961,913.2,961.7,911.8z M946.6,976.6
						c1.4,0.8,2.8,1.6,4.2,2.5c0.5-1.2,1.1-2.5,1.7-3.9c-1.2-0.6-2.6-1.2-4-1.9C947.8,974.4,947.2,975.5,946.6,976.6z M936.7,937.9
						c0.6-1.2,1.2-2.5,2-3.7c-1.2-0.6-2.5-1.4-3.7-2c-0.6,1.2-1.4,2.6-2,4C934.1,936.6,935.3,937.2,936.7,937.9z M989.5,914.5
						c-0.6,1.2-1.2,2.5-1.9,3.7c1.2,0.6,2.5,1.2,3.9,1.9c0.6-1.2,1.2-2.5,1.9-3.6C992.2,915.9,990.8,915.3,989.5,914.5z
						 M989.7,948.6c-1.4-0.5-3-1.1-4.5-1.6c-0.5,0.9-0.9,1.9-1.4,2.8c1.4,0.9,2.8,1.9,3.9,2.6C988.4,951.2,989.1,949.8,989.7,948.6z
						 M932.1,969.2c0.6-1.1,1.2-2.3,1.9-3.6c-1.2-0.6-2.5-1.4-3.7-2c-0.6,1.2-1.4,2.6-2,3.9C929.4,968.1,930.8,968.7,932.1,969.2z
						 M996.2,933.6c0.6-1.1,1.2-2.2,1.9-3.3c-1.2-0.6-2.6-1.2-3.9-1.9c-0.5,0.9-0.9,2-1.6,3.3C993.9,932.2,995.1,932.9,996.2,933.6z
						 M977.7,924.5c0.6-1.1,1.2-2.3,1.9-3.4c-1.1-0.6-2.3-1.1-3.4-1.7c-0.6,1.1-1.1,2.3-1.7,3.6
						C975.4,923.4,976.6,923.8,977.7,924.5z M948.7,928.2c-0.6,1.1-1.2,2.3-1.9,3.4c1.1,0.5,2.2,1.1,3.4,1.6
						c0.6-1.1,1.1-2.2,1.7-3.3C950.9,929.3,949.8,928.7,948.7,928.2z M964,928.5c0.6-1.1,1.2-2,1.7-3.1c-1.1-0.6-2.2-1.2-3.3-1.7
						c-0.5,1.1-1.1,2.2-1.6,3.4C961.8,927.6,962.9,928,964,928.5z M939.4,946.1c-0.6,1.1-1.1,2.2-1.7,3.3c1.1,0.5,2.2,1.1,3.3,1.6
						c0.5-1.1,1.1-2,1.6-3.1C941.6,947.2,940.5,946.7,939.4,946.1z M942.2,963.1c1.1,0.5,2,1.1,3.3,1.6c0.5-1.1,1.1-2,1.6-3.3
						c-0.9-0.5-2-1.1-3-1.6C943.4,960.9,942.8,962,942.2,963.1z M954.7,946.3c0.5-0.9,0.9-1.9,1.4-2.8c-0.9-0.5-1.9-1.1-3-1.6
						c-0.5,0.9-0.9,1.9-1.4,3C952.6,945.3,953.6,945.8,954.7,946.3z M980.5,933.2c-0.5,0.9-0.8,1.7-1.2,2.8c0.9,0.5,1.9,0.9,3,1.6
						c0.5-0.9,0.9-1.7,1.4-2.6C982.5,934.1,981.6,933.6,980.5,933.2z M967,937.9c-0.5,0.9-0.9,1.7-1.2,2.5c0.9,0.5,1.7,0.8,2.6,1.2
						c0.5-0.8,0.8-1.6,1.2-2.3C968.5,938.6,967.7,938.2,967,937.9z M956.2,958.4c0.8,0.3,1.7,0.8,2.5,1.1c0.5-0.8,0.8-1.6,1.2-2.3
						c-0.8-0.5-1.6-0.8-2.3-1.2C957.1,956.7,956.7,957.5,956.2,958.4z M971.6,951.7c-0.3,0.6-0.6,1.2-1.1,2c0.8,0.5,1.7,0.9,2.5,1.4
						c0.5-0.8,0.8-1.4,1.2-2.2C973.3,952.5,972.6,952.2,971.6,951.7z"/>
					<path class="st2" d="M872.7,955c3.7,0,6.9-3.1,6.7-6.9c0-3.6-3.3-6.7-7-6.7s-6.7,3.1-6.7,6.9C865.7,952,868.9,955,872.7,955z"
						/>
					<path class="st2" d="M1020.2,868.7c0,3.7,3.1,6.9,6.9,6.9c3.4,0,6.9-3.4,6.9-6.9c0-3.6-3.3-6.7-6.9-6.7
						S1020.2,865.3,1020.2,868.7z"/>
					<path class="st2" d="M886.6,905.8c3.6,0,6.7-3.3,6.7-6.9c0-3.6-3.3-6.7-6.9-6.7c-3.6,0-6.9,3.3-6.7,6.9
						C879.8,902.7,883,905.8,886.6,905.8z"/>
					<path class="st2" d="M877.3,923.5c3.6,0,6.9-3.1,6.9-6.7c0-3.6-3.3-6.7-6.9-6.7c-3.6,0-6.9,3.1-6.9,6.7
						C870.6,920.4,873.7,923.5,877.3,923.5z"/>
					<path class="st2" d="M909.2,883.5c3.6,0,6.9-3.3,6.9-6.7c0-3.6-3.3-6.9-6.9-6.9c-3.6,0-6.7,3.3-6.7,6.7
						C902.3,880.2,905.6,883.5,909.2,883.5z"/>
					<path class="st2" d="M872.3,986.3c-3.6,0-6.7,3.1-6.7,6.7c0,3.6,3.3,6.7,6.9,6.7c3.6,0,6.7-3.1,6.7-6.7
						C879.1,989.4,875.9,986.3,872.3,986.3z"/>
					<path class="st2" d="M867.9,927.9c-3.9,0.2-6.7,3.3-6.7,6.9c0,3.6,3.3,6.7,6.9,6.5c3.9-0.2,6.7-3.3,6.7-6.9
						C874.8,930.8,871.5,927.9,867.9,927.9z"/>
					<path class="st2" d="M984.2,850.5c0.3,3.7,3,6.5,6.7,6.5s6.7-2.8,6.7-6.7c0-4-3.1-6.7-6.7-6.5C987,844,984.5,846.8,984.2,850.5
						z"/>
					<path class="st2" d="M861.1,979.6c0.3,4,3.3,6.7,6.9,6.5c4-0.2,6.7-3.1,6.5-6.7c0-4-3.1-6.7-6.9-6.5
						C863.7,973,861.4,976,861.1,979.6z"/>
					<path class="st2" d="M876.6,1013.2c3.7-0.3,6.7-2.6,6.7-6.7c0-3.7-2.6-6.5-6.7-6.7c-3.7,0-6.7,2.6-6.7,6.5
						C869.9,1010.3,872.6,1012.9,876.6,1013.2z"/>
					<path class="st2" d="M888.9,881.2c0.3,3.7,2.8,6.5,6.7,6.7c3.9,0,6.7-2.6,6.7-6.5c0-3.7-2.6-6.5-6.7-6.7
						C891.9,874.5,889.4,877.3,888.9,881.2z"/>
					<path class="st2" d="M863.6,972.6c3.3,0.2,6.5-3.1,6.5-6.7c-0.2-3.1-3.3-6.4-6.9-6.4c-3.3,0-6.5,3.1-6.5,6.9
						C856.9,969.3,860,972.9,863.6,972.6z"/>
					<path class="st2" d="M932.1,847.8c-3.7,0-6.5,3-6.5,6.7c0,3.6,3,6.4,6.7,6.4s6.5-3,6.5-6.7
						C938.8,850.8,935.8,847.8,932.1,847.8z"/>
					<path class="st2" d="M945.6,856.6c3.7,0,6.5-3,6.5-6.5s-3-6.5-6.5-6.5c-3.7,0-6.5,3-6.5,6.5S942,856.6,945.6,856.6z"/>
					<path class="st2" d="M918.4,852.4c-3.6,0-6.5,3-6.5,6.5s3.1,6.5,6.7,6.5s6.5-3,6.5-6.5S922,852.4,918.4,852.4z"/>
					<path class="st2" d="M1022.5,861.7c3.6,0,6.7-3,6.7-6.5s-3.1-6.5-6.7-6.5c-3.6,0-6.5,3-6.5,6.5
						C1015.8,858.6,1019,861.7,1022.5,861.7z"/>
					<path class="st2" d="M959.3,839.3c-3.6,0-6.7,3-6.7,6.5s3,6.5,6.5,6.5s6.7-3,6.7-6.5C966,842.2,962.9,839.3,959.3,839.3z"/>
					<path class="st2" d="M866.4,903.4c0,3.4,3.1,6.5,6.7,6.5c3.4,0,6.5-3.1,6.5-6.5s-3.1-6.5-6.7-6.5
						C869.5,896.9,866.4,900,866.4,903.4z"/>
					<path class="st2" d="M859,959.2c3.6,0,6.5-3.1,6.5-6.7c0-3.4-3.1-6.4-6.7-6.4s-6.5,3.1-6.5,6.7
						C852.5,956.2,855.6,959.2,859,959.2z"/>
					<path class="st2" d="M863.9,927.7c3.4,0,6.5-3.1,6.5-6.5s-3.1-6.5-6.7-6.5c-3.4,0-6.5,3.1-6.5,6.5
						C857.2,924.8,860.3,927.7,863.9,927.7z"/>
					<path class="st2" d="M1040.8,857.7c-3.4,0-6.5,3-6.7,6.5c0,3.4,3.1,6.5,6.5,6.5s6.5-3.1,6.5-6.5
						C1047.3,860.8,1044.2,857.8,1040.8,857.7z"/>
					<path class="st2" d="M972.9,847.8c3.4,0,6.5-3.1,6.5-6.5s-3.1-6.5-6.7-6.5c-3.4,0-6.5,3.1-6.5,6.5
						C966.3,844.7,969.4,847.8,972.9,847.8z"/>
					<path class="st2" d="M1011.2,846c0-3.4-3.1-6.5-6.5-6.5c-3.6,0-6.5,3.1-6.5,6.5s3.1,6.4,6.5,6.4
						C1008.1,852.5,1011.2,849.4,1011.2,846z"/>
					<path class="st2" d="M881.9,878.8c-3.4,0-6.5,3.1-6.5,6.5s3.1,6.5,6.7,6.4c3.4,0,6.5-3.1,6.4-6.5
						C888.5,881.8,885.4,878.8,881.9,878.8z"/>
					<path class="st2" d="M898.4,863.4c0,3.4,3.1,6.5,6.5,6.5c3.6,0,6.5-3.1,6.5-6.5s-3.1-6.4-6.5-6.4
						C901.4,856.9,898.4,860,898.4,863.4z"/>
					<path class="st2" d="M1045,884.1c3.4,0,6.5-3.1,6.5-6.5c0-3.3-3.1-6.4-6.5-6.4s-6.5,3.1-6.5,6.5
						C1038.4,881,1041.5,884,1045,884.1z"/>
					<path class="st2" d="M854.5,932.6c-3.6,0.3-6.5,3-6.4,6.5c0,3.6,3,6.4,6.5,6.4c3.6,0,6.5-2.8,6.4-6.4
						C861.1,935.5,858.1,932.9,854.5,932.6z"/>
					<path class="st2" d="M865,997.3c0-3.6-2.8-6.2-6.4-6.4c-3.1-0.2-6.5,3.1-6.5,6.4c0,3,3.3,6.4,6.5,6.4
						C861.7,1003.7,865.3,1000.6,865,997.3z"/>
					<path class="st2" d="M884.9,867.6c-0.3,3,3.1,6.4,6.4,6.2c3,0,6.5-3.1,6.4-6.5c0-2.8-3.1-6.2-6.5-6.2
						C888.2,861.2,884.4,864.4,884.9,867.6z"/>
					<path class="st2" d="M986.6,843.2c3.3,0.3,6.4-3.3,6.5-6.2c0-3.3-3.3-6.5-6.5-6.4c-3.6,0.2-6.4,2.8-6.4,6.4
						C980.2,840.4,983,843.2,986.6,843.2z"/>
					<path class="st2" d="M854.2,990.2c3.6,0,6.4-2.8,6.4-6.4c0-3.6-2.8-6.4-6.5-6.2c-3.4,0-6.2,2.8-6.2,6.4
						C847.8,987.4,850.6,990.2,854.2,990.2z"/>
					<path class="st2" d="M863.2,1017.1c3.4,0,6.2-3,6.2-6.4s-3-6.2-6.4-6.2s-6.2,3-6.2,6.4C856.7,1014.3,859.7,1017.1,863.2,1017.1
						z"/>
					<path class="st2" d="M1036.2,844.4c-3.4,0-6.4,2.8-6.4,6.2s2.8,6.4,6.4,6.4c3.4,0,6.4-2.8,6.4-6.2
						C1042.6,847.2,1039.7,844.4,1036.2,844.4z"/>
					<path class="st2" d="M1018.3,848c3.4,0,6.4-3,6.2-6.4c0-3.3-3-6.2-6.4-6.2s-6.4,3-6.2,6.4C1012,845.2,1014.9,848.2,1018.3,848z
						"/>
					<path class="st2" d="M859.4,914c3.4,0,6.4-3,6.4-6.4s-3-6.2-6.4-6.2s-6.4,3-6.4,6.4C853,911.1,855.9,914,859.4,914z"/>
					<path class="st2" d="M843.5,970.6c0,3.4,3,6.2,6.5,6.2c3.4,0,6.2-3,6.2-6.4s-3-6.2-6.5-6.2
						C846.3,964.2,843.5,967.1,843.5,970.6z"/>
					<path class="st2" d="M868.4,883.5c-3.4,0-6.4,3-6.4,6.4c0,3.3,3,6.2,6.4,6.2s6.4-3,6.4-6.4
						C874.8,886.5,871.8,883.5,868.4,883.5z"/>
					<path class="st2" d="M941.4,843c3.4,0,6.4-3,6.4-6.4c0-3.3-3.1-6.2-6.4-6.2c-3.4,0-6.4,3-6.4,6.4C935,840.1,938,843,941.4,843z
						"/>
					<path class="st2" d="M927.7,847.4c3.4,0,6.4-3,6.4-6.4c0-3.3-3.1-6.2-6.4-6.2c-3.4,0-6.4,3-6.4,6.4S924.3,847.4,927.7,847.4z"
						/>
					<path class="st2" d="M914.2,839c-3.3,0-6.4,3-6.4,6.2s3,6.2,6.4,6.2c3.3,0,6.2-3,6.4-6.2C920.5,842.1,917.6,839.1,914.2,839z"
						/>
					<path class="st2" d="M850,931.8c3.3,0,6.4-3,6.4-6.4c0-3.3-3.1-6.2-6.4-6.2s-6.2,3-6.2,6.2C843.8,928.8,846.7,931.8,850,931.8z
						"/>
					<path class="st2" d="M954.8,825.9c-3.3,0-6.4,3-6.4,6.2s3.1,6.2,6.4,6.2s6.2-3,6.2-6.2C961.2,829,958.2,825.9,954.8,825.9z"/>
					<path class="st2" d="M845.3,963.1c3.4,0,6.4-3,6.2-6.4c0-3.3-3.1-6.2-6.4-6.1c-3.4,0-6.4,3.1-6.2,6.4
						C839.1,960.3,842.1,963.2,845.3,963.1z"/>
					<path class="st2" d="M1000,826.4c-3.3,0-6.2,3-6.2,6.2s3.1,6.2,6.4,6.2c3.4,0,6.2-3.1,6.2-6.4
						C1006.2,829.2,1003.2,826.4,1000,826.4z"/>
					<path class="st2" d="M877.7,865.8c-3.4,0-6.4,3-6.2,6.4c0,3.3,3,6.2,6.4,6.2s6.4-3,6.2-6.4C884,868.7,881,865.8,877.7,865.8z"
						/>
					<path class="st2" d="M962.3,827.9c0,3.3,3.1,6.2,6.4,6.2s6.2-3.1,6.2-6.2c0-3.3-3.1-6.2-6.4-6.2
						C965.2,821.7,962.3,824.8,962.3,827.9z"/>
					<path class="st2" d="M900.5,855.9c3.3,0,6.2-3,6.4-6.2c0-3.3-3.1-6.2-6.2-6.2c-3.3,0-6.2,3-6.4,6.2
						C894.1,853,897.2,855.9,900.5,855.9z"/>
					<path class="st2" d="M1031.7,843.3c3.4,0,6.2-2.8,6.2-6.1s-2.8-6.1-6.2-6.1c-3.3,0-6.1,2.8-6.1,6.1
						C1025.7,840.7,1028.5,843.3,1031.7,843.3z"/>
					<path class="st2" d="M840.8,949.7c3.3,0,6.1-2.8,6.1-6.2c0-3.3-2.8-6.1-6.2-6.1c-3.3,0-6.1,2.8-6.1,6.1
						C834.7,946.9,837.6,949.7,840.8,949.7z"/>
					<path class="st2" d="M982.1,829.6c3.3,0,6.1-2.8,6.1-6.1s-2.8-6.1-6.2-6.1c-3.3,0-6.1,2.8-6.1,6.1
						C976,826.8,978.8,829.6,982.1,829.6z"/>
					<path class="st2" d="M854.8,888.2c-3.3,0-6.1,2.8-6.1,6.1s2.8,6.1,6.2,6.1c3.3,0,6.1-2.8,6.1-6.1
						C860.9,891,858.1,888.2,854.8,888.2z"/>
					<path class="st2" d="M1049.8,852.5c3.3,0,6.1-2.8,6.1-6.1s-2.8-6.1-6.2-6.1c-3.3,0-6.1,2.8-6.1,6.1S1046.4,852.5,1049.8,852.5z
						"/>
					<path class="st2" d="M845.8,906.1c-3.3,0-6.2,2.8-6.2,6.1s2.8,6.2,6.2,6.2c3.3,0,6.1-2.8,6.1-6.1
						C851.9,908.9,849.1,906.1,845.8,906.1z"/>
					<path class="st2" d="M880.8,854.2c0,3.3,2.8,6.1,6.1,6.1s6.2-2.8,6.2-6.1s-3-6.1-6.2-6.1C883.6,848.2,880.8,851,880.8,854.2z"
						/>
					<path class="st2" d="M1013.7,834.3c3.3,0,6.2-2.8,6.2-6.1s-2.8-6.1-6.1-6.1s-6.2,2.8-6.2,6.1
						C1007.6,831.3,1010.6,834.3,1013.7,834.3z"/>
					<path class="st2" d="M839,1001.7c0,3.3,3,6.1,6.1,6.1c3.3,0,6.1-2.8,6.2-6.1c0-3.3-3-6.1-6.1-6.1
						C841.9,995.6,839,998.4,839,1001.7z"/>
					<path class="st2" d="M858,876.5c0,3.3,2.8,6.1,6.1,6.1s6.2-2.8,6.2-6.1c0-3.1-2.8-6.1-6.1-6.1C860.8,870.4,858,873.2,858,876.5
						z"/>
					<path class="st2" d="M834.6,988.3c0,3.3,2.8,6.1,6.1,6.1s6.1-2.8,6.1-6.1s-2.8-5.9-6.1-5.9C837.4,982.2,834.6,985,834.6,988.3z
						"/>
					<path class="st2" d="M1054.2,853.8c-3.3,0-6.1,3-6.1,6.1c0,3.3,3,6.1,6.2,5.9c3.3,0,6.1-2.8,6.1-6.1
						C1060.4,856.6,1057.4,853.8,1054.2,853.8z"/>
					<path class="st2" d="M830.1,974.6c0,3.1,2.8,6.1,6.1,6.1c3.1,0,6.2-3,6.1-6.1c0-3.1-3-6.1-6.1-6.1
						C833,968.7,830.1,971.5,830.1,974.6z"/>
					<path class="st2" d="M930.8,823.1c0,3.1,3,6.1,6.1,5.9c3.1,0,6.1-3,6.1-6.1s-3-6.1-6.1-5.9C933.6,817,930.7,820,930.8,823.1z"
						/>
					<path class="st2" d="M917.1,827.4c0,3.1,3,6.1,6.1,6.1s6.1-3,6.1-6.1s-3-6.1-6.1-6.1C920.1,821.5,917.1,824.3,917.1,827.4z"/>
					<path class="st2" d="M830.5,929.9c0,3.1,2.8,6.1,6.1,6.1c3.1,0,6.1-2.8,6.1-5.9c0-3.1-2.8-6.1-6.1-6.1
						C833.5,923.8,830.5,926.8,830.5,929.9z"/>
					<path class="st2" d="M989.7,819c0.3,3.4,2.8,5.9,6.1,5.9c3.6,0,6.1-2.8,5.9-6.1c0-3.4-2.6-5.9-6.1-5.9
						C992.3,813.1,989.8,815.6,989.7,819z"/>
					<path class="st2" d="M879.3,858.4c-0.2-3.1-2.5-5.9-5.9-6.1c-3.1,0-5.9,2.5-6.1,5.9c-0.2,3.1,2.5,6.1,5.9,6.1
						C876.5,864.5,879,861.9,879.3,858.4z"/>
					<path class="st2" d="M903.6,832c0.2,3.1,2.6,5.9,5.9,6.1c3.1,0,5.9-2.5,6.1-5.9c0.2-3.1-2.6-6.1-6.1-6.1
						C906.5,826,903.9,828.5,903.6,832z"/>
					<path class="st2" d="M944.5,819c0.3,3.4,3.1,5.9,6.2,5.8c3.6-0.2,6.1-3.3,5.9-6.2c-0.2-3.4-3.3-5.9-6.2-5.8
						C946.9,813.1,944.5,816.1,944.5,819z"/>
					<path class="st2" d="M837.7,961.2c0-3.3-2.6-5.8-6.1-5.8c-3.3,0-5.9,2.6-5.9,5.9c0,3.1,2.6,5.8,5.9,5.8
						C835.2,967.1,837.9,964.5,837.7,961.2z"/>
					<path class="st2" d="M1045.4,827c-3.3,0-5.9,2.6-5.9,5.9s2.8,5.9,5.9,5.9s5.9-2.8,5.9-5.9C1051.4,829.6,1048.7,827,1045.4,827z
						"/>
					<path class="st2" d="M958.1,814.4c0,3.1,2.6,5.9,5.9,5.9s5.9-2.6,5.9-5.9c0-3.1-2.6-5.8-5.9-5.9
						C960.9,808.5,958.2,811.3,958.1,814.4z"/>
					<path class="st2" d="M1017.4,925.4c-3.1,0-5.8,2.8-5.8,5.9s2.8,5.8,6.1,5.8s5.9-2.8,5.8-6.1
						C1023.5,928,1020.7,925.4,1017.4,925.4z"/>
					<path class="st2" d="M850.5,886.6c3.1,0,5.9-2.6,5.9-5.8s-2.8-5.9-5.9-5.9s-5.9,2.8-5.9,5.9
						C844.6,883.8,847.4,886.6,850.5,886.6z"/>
					<path class="st2" d="M1021.3,823.7c0,3.1,2.8,5.8,5.9,5.8c3.3,0,5.9-2.8,5.9-5.9c0-3.1-2.8-5.8-5.9-5.8
						C1024.1,817.9,1021.3,820.6,1021.3,823.7z"/>
					<path class="st2" d="M841.3,892.7c-3.1,0-5.9,2.6-5.9,5.9c0,3.1,2.8,5.9,5.9,5.9c3.1,0,5.9-2.8,5.9-5.9
						C847.2,895.3,844.4,892.7,841.3,892.7z"/>
					<path class="st2" d="M890,836.2c0,3.1,2.6,5.9,5.9,5.9s5.9-2.6,5.9-5.9c0-3.1-2.8-5.8-5.9-5.8S890,833.1,890,836.2z"/>
					<path class="st2" d="M821.5,947.7c0,3.1,2.8,5.9,5.9,5.9c3.1,0,5.8-2.8,5.8-5.8c0-3.1-2.8-5.9-5.9-5.8
						C824.2,941.9,821.5,944.7,821.5,947.7z"/>
					<path class="st2" d="M826.2,916.7c0,3,2.8,5.8,5.9,5.8c3.1,0,5.9-2.8,5.8-5.9c0-3.1-2.8-5.8-5.9-5.8
						C829,910.8,826.2,913.6,826.2,916.7z"/>
					<path class="st2" d="M849.2,1021c3.1,0,5.9-2.6,5.9-5.8c0-3.1-2.6-5.9-5.8-5.9c-3.1,0-5.9,2.6-5.9,5.8
						C843.5,1018.2,846.3,1021,849.2,1021z"/>
					<path class="st2" d="M1003.4,814.8c0,3.1,2.8,5.8,5.9,5.8c3.1,0,5.9-2.8,5.9-5.8c0-3.1-2.8-5.8-5.9-5.8
						C1006.2,809.1,1003.4,811.7,1003.4,814.8z"/>
					<path class="st2" d="M983.6,809.9c-0.2-3.1-3-5.8-5.9-5.8c-3.1,0.2-5.9,3-5.8,5.9c0.2,3,3,5.8,5.9,5.6
						C981,815.6,983.8,812.8,983.6,809.9z"/>
					<path class="st2" d="M882.6,846.4c3.1,0,5.9-3,5.8-5.9c0-3.1-3-5.8-5.9-5.8c-3.1,0.2-5.8,2.8-5.8,5.8
						C876.6,843.6,879.4,846.4,882.6,846.4z"/>
					<path class="st2" d="M859.8,857c-3.1,0-5.9,2.8-5.9,5.8s2.8,5.8,5.9,5.8c3,0,5.8-2.8,5.8-5.8C865.6,860,862.8,857.2,859.8,857z
						"/>
					<path class="st2" d="M827,987.1c-3.3,0-5.8,2.5-5.8,5.6s2.5,5.6,5.8,5.6c3.1,0,5.6-2.5,5.6-5.6
						C832.6,989.5,830.1,987.1,827,987.1z"/>
					<path class="st2" d="M825.7,1006.1c0,3.3,2.5,5.8,5.6,5.8c3.3,0,5.8-2.5,5.8-5.6s-2.5-5.6-5.8-5.6
						C828.2,1000.4,825.7,1002.9,825.7,1006.1z"/>
					<path class="st2" d="M822.9,928.8c-3.1,0-5.8,2.5-5.8,5.8c0,3.1,2.5,5.6,5.8,5.6c3.1,0,5.8-2.5,5.8-5.8
						C828.5,931.3,826,928.8,822.9,928.8z"/>
					<path class="st2" d="M817,979.1c0,3,2.6,5.6,5.6,5.6c3.1,0,5.8-2.6,5.8-5.6s-2.6-5.6-5.8-5.6C819.6,973.5,817,976.2,817,979.1z
						"/>
					<path class="st2" d="M991.2,811.3c3,0,5.8-2.6,5.8-5.6c0-3.1-2.6-5.8-5.8-5.8c-3,0-5.6,2.6-5.6,5.6
						C985.6,808.8,988.3,811.3,991.2,811.3z"/>
					<path class="st2" d="M868.7,839.4c-3,0-5.8,2.8-5.6,5.8c0,3,2.8,5.6,5.8,5.6s5.8-2.8,5.6-5.8
						C874.5,842.1,871.7,839.4,868.7,839.4z"/>
					<path class="st2" d="M1035.3,819.5c0,3,2.8,5.6,5.8,5.6s5.6-2.8,5.6-5.6c0-3-2.8-5.6-5.8-5.6S1035.3,816.5,1035.3,819.5z"/>
					<path class="st2" d="M913.2,814.2c0,3,2.8,5.6,5.8,5.6s5.8-2.8,5.6-5.8c0-3-2.8-5.6-5.8-5.6
						C915.9,808.6,913.1,811.3,913.2,814.2z"/>
					<path class="st2" d="M932.4,815.3c3,0,5.6-2.6,5.8-5.6c0-3-2.6-5.8-5.8-5.8c-3,0-5.8,2.8-5.8,5.6
						C926.6,812.7,929.4,815.3,932.4,815.3z"/>
					<path class="st2" d="M842.5,885.1c0-3-2.8-5.6-5.8-5.6s-5.8,2.8-5.6,5.8c0,3,2.8,5.6,5.8,5.5S842.5,888,842.5,885.1z"/>
					<path class="st2" d="M1053.2,828.7c0,3,2.6,5.6,5.6,5.6s5.8-2.6,5.6-5.8c0-3-2.8-5.6-5.8-5.6
						C1055.9,823.1,1053.2,825.7,1053.2,828.7z"/>
					<path class="st2" d="M1023,804.7c-3,0-5.6,2.6-5.6,5.6s2.8,5.6,5.8,5.6c3,0,5.6-2.6,5.6-5.6
						C1028.6,807.4,1026,804.7,1023,804.7z"/>
					<path class="st2" d="M812.5,965.7c0,3,2.6,5.6,5.6,5.6s5.8-2.6,5.8-5.6s-2.6-5.6-5.6-5.6C815.1,960.3,812.5,962.9,812.5,965.7z
						"/>
					<path class="st2" d="M899.5,818.4c0,3,2.6,5.6,5.6,5.6s5.8-2.6,5.8-5.6s-2.6-5.6-5.6-5.6C902.2,812.8,899.5,815.5,899.5,818.4z
						"/>
					<path class="st2" d="M946.1,799.6c-3,0-5.6,2.6-5.8,5.5c0,3,2.6,5.6,5.6,5.6s5.6-2.6,5.6-5.6
						C951.7,802.4,949,799.7,946.1,799.6z"/>
					<path class="st2" d="M822,903c0,3,2.6,5.6,5.6,5.6s5.8-2.6,5.8-5.6s-2.6-5.6-5.6-5.6C824.6,897.4,822,900,822,903z"/>
					<path class="st2" d="M846,872.9c3,0,5.6-2.6,5.6-5.6s-2.6-5.6-5.6-5.6s-5.6,2.6-5.6,5.6S843,872.9,846,872.9z"/>
					<path class="st2" d="M886,822.8c0,2.8,2.8,5.6,5.6,5.6s5.6-2.8,5.6-5.6s-2.8-5.6-5.6-5.6C888.8,817.3,886,820,886,822.8z"/>
					<path class="st2" d="M953.9,801c0,2.8,2.8,5.5,5.6,5.5s5.8-2.8,5.6-5.6c-0.2-3.3-2.6-5.5-5.8-5.5
						C956.5,795.5,953.9,798.3,953.9,801z"/>
					<path class="st2" d="M824,920.7c0-3.1-2.3-5.5-5.5-5.5c-3.1,0-5.3,2.3-5.5,5.5c-0.2,2.6,2.6,5.5,5.6,5.5
						C821.7,926.2,824,923.8,824,920.7z"/>
					<path class="st2" d="M813.7,946.7c-2.6-0.3-5.6,2.8-5.6,5.3c0,2.6,2.8,5.6,5.6,5.6c2.6,0,5.5-2.8,5.5-5.5
						S816.4,946.6,813.7,946.7z"/>
					<path class="st2" d="M999.5,801.3c-0.3,2.6,2.8,5.5,5.5,5.5c2.6,0,5.6-2.8,5.5-5.6c0-2.5-2.8-5.5-5.6-5.5
						C1002.3,795.8,999.2,798.6,999.5,801.3z"/>
					<path class="st2" d="M855.3,855c3,0,5.5-2.5,5.5-5.5s-2.6-5.5-5.6-5.3c-3,0-5.3,2.6-5.3,5.6C849.9,852.5,852.3,855,855.3,855z"
						/>
					<path class="st2" d="M1063.5,847.4c3,0,5.5-2.5,5.5-5.5c0-2.8-2.6-5.5-5.5-5.5s-5.5,2.5-5.5,5.5
						C1057.9,844.9,1060.5,847.4,1063.5,847.4z"/>
					<path class="st2" d="M967.9,796.5c0,3,2.5,5.5,5.5,5.5s5.5-2.5,5.5-5.5c0-2.8-2.5-5.5-5.5-5.5
						C970.4,791.2,967.9,793.7,967.9,796.5z"/>
					<path class="st2" d="M883.5,827.3c0-2.8-2.6-5.5-5.5-5.5c-3,0-5.5,2.6-5.5,5.5c0,2.8,2.5,5.3,5.5,5.5
						C880.8,832.7,883.5,830.3,883.5,827.3z"/>
					<path class="st2" d="M817.9,889.6c0,2.8,2.6,5.5,5.5,5.3c2.8,0,5.5-2.6,5.3-5.5c0-2.8-2.6-5.3-5.5-5.3
						C820.3,884.4,818.1,886.6,817.9,889.6z"/>
					<path class="st2" d="M817.9,1015.9c2.8,0,5.5-2.6,5.5-5.3c0-2.8-2.6-5.5-5.5-5.3c-2.8,0-5.3,2.5-5.5,5.3
						C812.5,1013.2,815.1,1015.9,817.9,1015.9z"/>
					<path class="st2" d="M1036.4,800.5c-2.8,0-5.5,2.6-5.3,5.5c0.2,3.1,2.5,5.3,5.5,5.3c2.8,0,5.3-2.6,5.3-5.3
						C1041.9,803.2,1039.2,800.5,1036.4,800.5z"/>
					<path class="st2" d="M1054.6,820.4c2.8,0,5.5-2.6,5.5-5.5s-2.6-5.5-5.5-5.3c-2.8,0-5.3,2.6-5.3,5.3
						C1049.2,817.8,1051.8,820.4,1054.6,820.4z"/>
					<path class="st2" d="M809.4,933.5c-2.6,0-5.5,2.5-5.5,5.3s2.3,5.3,5.5,5.5c2.8,0,5.3-2.6,5.5-5.3
						C814.8,936.1,812.2,933.5,809.4,933.5z"/>
					<path class="st2" d="M827.1,871.5c0,2.6,2.5,5.3,5.3,5.5c2.8,0,5.5-2.3,5.5-5.3c0-2.6-2.6-5.3-5.3-5.3
						C829.9,866.2,827.3,868.9,827.1,871.5z"/>
					<path class="st2" d="M813.4,991.6c-2.8,0-5.5,2.6-5.3,5.3c0.2,3,2.6,5.5,5.5,5.3c3-0.2,5.3-2.6,5.3-5.5
						C818.9,994.1,816.1,991.6,813.4,991.6z"/>
					<path class="st2" d="M986.7,797.4c2.6,0,5.5-2.6,5.5-5.3c0-2.6-2.6-5.3-5.5-5.3c-2.6,0-5.5,2.6-5.5,5.3
						C981.4,794.7,984.1,797.4,986.7,797.4z"/>
					<path class="st2" d="M814.2,912.6c2.5,0.3,5.5-2.5,5.3-5.3s-2.3-5-5.3-5.1c-2.5-0.2-5.5,2.5-5.3,5.3
						C809.1,910.4,811.2,912.6,814.2,912.6z"/>
					<path class="st2" d="M803.6,983.6c0,3,2.3,5.3,5.3,5.3s5.3-2.3,5.3-5.1c0-3-2.3-5.3-5.3-5.3
						C805.9,978.3,803.8,980.7,803.6,983.6z"/>
					<path class="st2" d="M859.2,831.7c-0.3,2.3,2.5,5.3,5.3,5.1s5-2.3,5.1-5.3c0.2-2.5-2.6-5.3-5.5-5.1
						C861.5,826.5,859.2,828.7,859.2,831.7z"/>
					<path class="st2" d="M836.3,853.8c0,2.8,2.3,5.1,5.3,5.1s5.3-2.3,5.3-5.3c0-2.8-2.3-5.1-5.3-5.1
						C838.6,848.6,836.3,851,836.3,853.8z"/>
					<path class="st2" d="M1013.2,796.8c0,3,2.3,5.1,5.1,5.3c3,0,5.3-2.3,5.3-5.3c0-2.8-2.3-5.1-5.3-5.1
						C1015.5,791.6,1013.2,793.8,1013.2,796.8z"/>
					<path class="st2" d="M900.9,810.2c2.8,0,5.3-2.3,5.3-5.1s-2.5-5.1-5.3-5.1s-5.1,2.3-5.3,5.1C895.6,807.8,898,810.2,900.9,810.2
						z"/>
					<path class="st2" d="M941.6,797.1c2.8,0,5.3-2.5,5.1-5.3c0-2.8-2.5-5.1-5.3-5.1s-5.1,2.5-5.1,5.1
						C936.3,794.7,938.8,797.1,941.6,797.1z"/>
					<path class="st2" d="M928,801.3c2.8,0,5.3-2.3,5.3-5.1s-2.3-5.3-5.1-5.3s-5.3,2.3-5.3,5.1C922.9,799,925.2,801.3,928,801.3z"/>
					<path class="st2" d="M909.2,800.5c0,2.8,2.3,5.1,5.3,5.3c2.8,0,5.3-2.3,5.3-5.1s-2.3-5.1-5.1-5.3
						C911.5,795.4,909.2,797.7,909.2,800.5z"/>
					<path class="st2" d="M799.4,970.1c0,2.8,2.5,5.1,5.3,5.1s5.1-2.5,5.1-5.3s-2.5-5.1-5.3-5.1S799.4,967.3,799.4,970.1z"/>
					<path class="st2" d="M1000.6,782.4c-2.6,0-5.3,2.5-5.3,5.1s2.5,5.1,5.1,5.1s5.3-2.5,5.3-5.1S1003.2,782.6,1000.6,782.4z"/>
					<path class="st2" d="M950.1,787.4c0,2.6,2.6,5.1,5.3,5.1c2.6-0.2,5.1-2.6,5.1-5.1c0-2.6-2.6-5.1-5.3-5.1
						C952.5,782.4,950.1,784.9,950.1,787.4z"/>
					<path class="st2" d="M887.1,804.1c-2.6,0-5.3,2.6-5.1,5.3c0.2,2.6,2.6,5.1,5.3,5c2.6,0,5.3-2.6,5.1-5.3
						S889.7,804.1,887.1,804.1z"/>
					<path class="st2" d="M850.8,841.2c2.6,0,5.1-2.5,5.1-5.1s-2.5-5.1-5.1-5.1s-5.1,2.5-5.1,5.1
						C845.5,838.7,848.1,841.2,850.8,841.2z"/>
					<path class="st2" d="M799.7,925.2c0,2.6,2.5,5.1,5.1,5.1s5.1-2.5,5.1-5.1s-2.5-5.1-5.1-5.1
						C802.2,920.1,799.7,922.6,799.7,925.2z"/>
					<path class="st2" d="M800.2,961.8c2.8-0.2,5-2,5.1-5.1c0.2-2.6-2.5-5.1-5.1-5.1s-5.1,2.5-5.1,5.1
						C795,959.2,797.5,961.7,800.2,961.8z"/>
					<path class="st2" d="M1050.1,806.6c3-0.3,5.1-2,5.1-5.1c0-2.8-2-5-5.1-5.1c-3,0-5.1,2-5.1,5
						C1045.1,804.2,1047.1,806.3,1050.1,806.6z"/>
					<path class="st2" d="M1063.2,810.6c0,2.8,2.2,5,5,5s5.1-2.2,5.1-5s-2.2-5-5-5C1065.4,805.6,1063.2,807.8,1063.2,810.6z"/>
					<path class="st2" d="M813.7,876c0,2.8,2.2,5,5,5s5.1-2.2,5.1-5s-2.3-5-5-5S813.7,873.2,813.7,876z"/>
					<path class="st2" d="M868.7,813.7c0,2.8,2.2,5,5,5s5-2.2,5-5c0-2.6-2.3-4.8-5.1-4.8C870.9,808.8,868.7,810.9,868.7,813.7z"/>
					<path class="st2" d="M968.8,777.9c-2.8,0-5,2.2-5,5s2.2,5,5.1,5c2.8,0,5-2.2,5-5C973.8,780.3,971.6,777.9,968.8,777.9z"/>
					<path class="st2" d="M1032,787.6c-2.6,0-5,2.3-5,5s2.3,5,5.1,4.8c2.6,0,5-2.3,5-5C1037.2,789.8,1034.8,787.6,1032,787.6z"/>
					<path class="st2" d="M809.7,898.8c2.6,0,5-2.3,5-5c0-2.6-2.3-5-5-5s-5,2.3-5,5C804.5,896.6,806.9,898.9,809.7,898.8z"/>
					<path class="st2" d="M823.1,858.3c0,2.6,2.3,5,5,5c2.8,0,5-2.3,5-5s-2.3-5-5-5C825.3,853.3,823.1,855.5,823.1,858.3z"/>
					<path class="st2" d="M795.7,948c2.6,0,5-2.5,5-5c0-2.6-2.5-5-5.1-4.8c-2.5,0-4.8,2.5-4.8,5C790.7,945.6,793.2,948,795.7,948z"
						/>
					<path class="st2" d="M800.3,916.8c2.6,0,5-2.3,5-5c0-2.6-2.3-5-5-5s-4.8,2.3-5,4.8C795.4,914.5,797.7,916.8,800.3,916.8z"/>
					<path class="st2" d="M1009,783.4c0,2.6,2.3,5,5,5s5-2.3,5-5c0-2.5-2.3-4.8-5-4.8C1011.5,778.4,1009,780.7,1009,783.4z"/>
					<path class="st2" d="M794.7,1001.4c0,2.5,2.3,4.8,5,4.8c2.6,0,5-2.3,5-5s-2.5-5-5-4.8C797.1,996.6,794.7,998.9,794.7,1001.4z"
						/>
					<path class="st2" d="M832.3,840.4c0,2.6,2.3,5,5,5c2.5,0,5-2.3,5-4.8c0-2.6-2.3-5-5-5C834.7,835.5,832.3,837.9,832.3,840.4z"/>
					<path class="st2" d="M982.4,773.9c-2.6,0-5,2.5-4.8,5s2.5,4.8,5,4.8c2.6,0,5-2.5,5-5C987.4,776.1,985,773.7,982.4,773.9z"/>
					<path class="st2" d="M860,823.1c2.5,0,5-2.3,5-4.8c0-2.6-2.3-5-5-5c-2.6,0-5,2.5-5,5S857.5,823.1,860,823.1z"/>
					<path class="st2" d="M795.4,992.7c2.5,0,5-2.3,5-4.8s-2.5-5-5-5s-5,2.5-5,5C790.5,990.3,792.9,992.7,795.4,992.7z"/>
					<path class="st2" d="M903.6,1011.2c0,2.6,2.2,4.7,4.8,4.7s4.8-2.2,4.8-4.8s-2.2-4.7-4.8-4.7
						C905.6,1006.5,903.6,1008.5,903.6,1011.2z"/>
					<path class="st2" d="M836,1024.4c2.6,0,4.8-2.2,4.8-4.8s-2.2-4.7-4.8-4.7s-4.8,2.2-4.8,4.8
						C831.2,1022.4,833.2,1024.4,836,1024.4z"/>
					<path class="st2" d="M923.7,787.4c2.6,0,4.8-2.2,4.8-4.8s-2.2-4.7-4.8-4.7s-4.8,2.2-4.8,4.8
						C918.8,785.4,920.9,787.4,923.7,787.4z"/>
					<path class="st2" d="M922.1,1011.5c2.6,0,4.8-2.2,4.8-4.8s-2.2-4.7-4.8-4.7s-4.8,2.2-4.8,4.8
						C917.3,1009.5,919.3,1011.5,922.1,1011.5z"/>
					<path class="st2" d="M910,782.4c-2.6,0-4.8,2-4.8,4.7c0,2.6,2.2,4.8,4.8,4.8s4.8-2,4.8-4.7C914.6,784.6,912.6,782.4,910,782.4z
						"/>
					<path class="st2" d="M786.2,974.4c0,2.6,2.2,4.7,4.8,4.7s4.8-2.2,4.7-4.8c0-2.5-2.2-4.7-4.8-4.7
						C788.3,969.8,786.2,971.8,786.2,974.4z"/>
					<path class="st2" d="M1058.8,797.2c0,2.6,2.2,4.7,4.8,4.7c2.5,0,4.7-2.2,4.7-4.8s-2.2-4.7-4.8-4.7
						C1061,792.6,1058.8,794.7,1058.8,797.2z"/>
					<path class="st2" d="M786.6,929.8c0,2.6,2.3,4.7,4.8,4.7s4.7-2.2,4.7-4.8s-2.3-4.7-5-4.7C788.7,924.9,786.6,927.3,786.6,929.8z
						"/>
					<path class="st2" d="M891.6,791.3c0,2.6,2.2,4.8,4.8,4.8s4.8-2.2,4.8-4.7c0-2.6-2.2-4.8-4.8-4.8S891.6,788.8,891.6,791.3z"/>
					<path class="st2" d="M932.2,778.2c0,2.6,2.2,4.8,4.8,4.7c2.5,0,4.7-2.2,4.7-4.8s-2.2-4.8-4.8-4.7
						C934.4,773.6,932.2,775.7,932.2,778.2z"/>
					<path class="st2" d="M1045.6,792.9c2.5,0,4.8-2.2,4.8-4.7s-2.3-4.8-4.8-4.8s-4.8,2.3-4.8,4.7
						C1040.9,790.5,1043.1,792.9,1045.6,792.9z"/>
					<path class="st2" d="M805.2,885.2c2.5,0,4.8-2.3,4.8-4.8s-2.3-4.8-4.8-4.7c-2.5,0-4.7,2.3-4.7,4.8
						C800.3,883,802.7,885.2,805.2,885.2z"/>
					<path class="st2" d="M846.4,827.1c2.5,0,4.8-2.3,4.8-4.7c0-2.5-2.3-4.7-4.8-4.7s-4.7,2.2-4.7,4.7
						C841.8,824.8,843.9,827.1,846.4,827.1z"/>
					<path class="st2" d="M882.7,791.2c-2.5,0-4.8,2.3-4.7,4.8c0,2.5,2.3,4.7,4.8,4.7s4.7-2.3,4.7-4.7
						C887.4,793.3,885.2,791.2,882.7,791.2z"/>
					<path class="st2" d="M809.5,862.6c0,2.5,2.3,4.7,4.8,4.7s4.8-2.3,4.7-4.8c0-2.5-2.3-4.7-4.8-4.7
						C811.9,858,809.5,860.3,809.5,862.6z"/>
					<path class="st2" d="M894.7,1010.7c-2.5,0-4.7,2.3-4.7,4.8s2.5,4.7,5,4.5s4.7-2.3,4.7-4.8
						C899.5,1012.9,897.2,1010.7,894.7,1010.7z"/>
					<path class="st2" d="M996.1,779c2.3,0,4.7-2.3,4.7-4.7s-2.3-4.7-4.8-4.7c-2.3,0-4.7,2.3-4.7,4.7
						C991.2,776.7,993.7,779,996.1,779z"/>
					<path class="st2" d="M1023,779c0,2.3,2.3,4.7,4.8,4.7c2.3,0,4.7-2.3,4.7-4.7s-2.3-4.7-4.8-4.7S1022.9,776.7,1023,779z"/>
					<path class="st2" d="M791.3,898.3c0,2.3,2.3,4.7,4.8,4.7c2.3,0,4.7-2.3,4.7-4.7s-2.3-4.7-4.7-4.7
						C793.6,893.6,791.3,896,791.3,898.3z"/>
					<path class="st2" d="M786.5,956.2c-2.3,0-4.7,2.3-4.8,4.7c0,2.3,2.3,4.7,4.7,4.7s4.7-2.3,4.8-4.7
						C791.1,958.6,788.8,956.2,786.5,956.2z"/>
					<path class="st2" d="M823.5,849.4c2.3,0,4.8-2.3,4.8-4.7s-2.3-4.7-4.7-4.7s-4.7,2.3-4.7,4.7C818.7,846.9,821,849.2,823.5,849.4
						z"/>
					<path class="st2" d="M930.8,1002.3c0,2.3,2.3,4.7,4.7,4.7s4.8-2.3,4.7-4.7c0-2.3-2.3-4.5-4.7-4.7
						C933.3,997.5,930.8,1000,930.8,1002.3z"/>
					<path class="st2" d="M864.5,800.4c0.2,2.5,1.7,4.5,4.7,4.7c2.5,0.2,4.7-1.7,4.8-4.5c0-2.5-1.7-4.5-4.5-4.7
						C866.8,795.7,864.8,797.4,864.5,800.4z"/>
					<path class="st2" d="M828.2,826.8c0,2.3,2.2,4.5,4.5,4.5s4.5-2.2,4.5-4.5s-2.2-4.5-4.5-4.5S828.2,824.5,828.2,826.8z"/>
					<path class="st2" d="M782.3,916.2c0,2.3,2.3,4.5,4.7,4.5s4.5-2.3,4.5-4.7s-2.3-4.5-4.5-4.5
						C784.6,911.5,782.3,913.9,782.3,916.2z"/>
					<path class="st2" d="M777.6,947.5c0,2.3,2.3,4.5,4.7,4.5s4.5-2.3,4.5-4.7s-2.3-4.5-4.5-4.4C779.8,943,777.6,945.2,777.6,947.5z
						"/>
					<path class="st2" d="M850.9,804.6c0,2.3,2.2,4.5,4.5,4.4c2.3,0,4.5-2.2,4.5-4.5s-2.2-4.4-4.5-4.4
						C853,800.2,850.9,802.4,850.9,804.6z"/>
					<path class="st2" d="M981.1,971.5c0,2.3,2.2,4.4,4.5,4.4s4.5-2.3,4.5-4.7c-0.2-2.3-2.3-4.4-4.7-4.4
						C983.1,967,981.1,969.2,981.1,971.5z"/>
					<path class="st2" d="M1072.7,828.7c2.2,0,4.5-2.3,4.5-4.5s-2.3-4.4-4.5-4.4s-4.5,2.2-4.5,4.5
						C1068.2,826.4,1070.5,828.7,1072.7,828.7z"/>
					<path class="st2" d="M796.3,867c0,2.2,2.3,4.5,4.5,4.5s4.4-2.2,4.5-4.4c0-2.2-2.2-4.5-4.5-4.5
						C798.6,862.5,796.3,864.7,796.3,867z"/>
					<path class="st2" d="M1054.9,783.7c0,2.2,2.3,4.5,4.5,4.5s4.5-2.3,4.5-4.5s-2.2-4.4-4.5-4.4
						C1057.3,779.2,1054.9,781.4,1054.9,783.7z"/>
					<path class="st2" d="M1036.7,774.5c0,2.2,2.3,4.5,4.5,4.5s4.4-2.2,4.4-4.5c0-2.2-2.3-4.5-4.5-4.4
						C1038.9,770.1,1036.7,772.3,1036.7,774.5z"/>
					<path class="st2" d="M787.1,884.8c0,2.2,2.2,4.4,4.4,4.5c2.2,0,4.5-2.2,4.5-4.4s-2.3-4.5-4.5-4.5
						C789.3,880.4,787.1,882.6,787.1,884.8z"/>
					<path class="st2" d="M781.8,1005.9c0,2.2,2.2,4.5,4.4,4.5c2.5,0,4.4-1.7,4.5-4.4c0.2-2.2-2-4.5-4.4-4.5
						C783.8,1001.5,782,1003.1,781.8,1005.9z"/>
					<path class="st2" d="M777.3,992.4c0,2.2,2.3,4.5,4.5,4.4c2.2,0,4.4-2.2,4.4-4.4s-2.3-4.5-4.5-4.5
						C779.5,987.8,777.3,990,777.3,992.4z"/>
					<path class="st2" d="M805.6,849.1c0,2.5,2,4.2,4.5,4.2c2.3,0,4.2-2,4.2-4.4c0-2.5-2-4.2-4.5-4.2
						C807.5,844.9,805.6,846.8,805.6,849.1z"/>
					<path class="st2" d="M1004,949.1c0,2.5,1.9,4.4,4.4,4.4c2.3,0,4.2-1.9,4.2-4.4s-1.9-4.4-4.4-4.4
						C1005.9,944.9,1004,946.7,1004,949.1z"/>
					<path class="st2" d="M773.1,979c0,2.3,2,4.4,4.4,4.4s4.4-2,4.4-4.4s-2-4.2-4.4-4.2C775.1,974.6,773.1,976.6,773.1,979z"/>
					<path class="st2" d="M773.4,934c0,2.3,2,4.4,4.2,4.4c2.3,0,4.4-2,4.4-4.4s-2-4.4-4.4-4.4C775.4,929.6,773.4,931.6,773.4,934z"
						/>
					<path class="st2" d="M799.9,1014.8c0,2.3,2,4.4,4.4,4.4s4.4-2,4.4-4.4s-2-4.2-4.4-4.2C801.9,1010.4,799.9,1012.4,799.9,1014.8z
						"/>
					<path class="st2" d="M946.4,774c0,2.3,2,4.2,4.4,4.2s4.4-2,4.4-4.4s-2-4.2-4.4-4.2C948.4,769.8,946.4,771.9,946.4,774z"/>
					<path class="st2" d="M881,1024.3c2.3,0,4.4-2,4.4-4.2c0-2.3-2-4.4-4.4-4.4s-4.4,2-4.4,4.4
						C876.8,1022.1,878.8,1024.1,881,1024.3z"/>
					<path class="st2" d="M782.4,907c2.3,0,4.4-2,4.4-4.4s-2.2-4.4-4.4-4.2c-2.2,0-4.2,2-4.2,4.2C778.1,905,780.1,907,782.4,907z"/>
					<path class="st2" d="M842.1,813.3c2.3,0,4.4-2,4.4-4.4s-2.2-4.4-4.4-4.2c-2.2,0-4.2,2-4.2,4.4
						C837.7,811.3,839.7,813.3,842.1,813.3z"/>
					<path class="st2" d="M819,835.5c2.2,0,4.2-2,4.4-4.2c0-2.2-2-4.4-4.4-4.4s-4.4,2.2-4.2,4.4C814.8,833.7,816.8,835.5,819,835.5z
						"/>
					<path class="st2" d="M874.1,782.3c0,2.2,2,4.4,4.4,4.4c2.2,0,4.2-2,4.4-4.2c0-2.2-2-4.4-4.4-4.4
						C876.2,778.1,874.1,780,874.1,782.3z"/>
					<path class="st2" d="M768.7,965.4c0,2.2,2.2,4.2,4.4,4.2s4.2-2.2,4.2-4.2c0-2.2-2.2-4.4-4.4-4.2
						C770.7,961.2,768.7,963.2,768.7,965.4z"/>
					<path class="st2" d="M1049.5,895.5c2.2,0,4.4-2.2,4.2-4.4c0-2-2.2-4.2-4.4-4.2c-2.2,0-4.4,2.2-4.2,4.4
						C1045.3,893.3,1047.5,895.5,1049.5,895.5z"/>
					<path class="st2" d="M1073.2,792.9c0,2.2,2.2,4.2,4.2,4.2c2.2,0,4.4-2.2,4.4-4.2c0-2.2-2.3-4.4-4.4-4.2
						C1075.2,788.7,1073,790.7,1073.2,792.9z"/>
					<path class="st2" d="M1058.7,877.6c2.2,0,4.2-2,4.2-4.2c0-2-2.2-4.2-4.2-4.2c-2.2,0-4.2,2-4.2,4.2
						C1054.5,875.4,1056.6,877.6,1058.7,877.6z"/>
					<path class="st2" d="M860.6,786.8c0,2.2,1.9,4,4.2,4s4.2-1.9,4-4.2c0-2.2-1.9-4-4.2-4C862.3,782.8,860.6,784.5,860.6,786.8z"/>
					<path class="st2" d="M769,920.6c0,2.2,1.9,4,4.2,4c2.2,0,4-1.9,4-4c0-2.2-1.9-4-4.2-4C770.9,916.5,769,918.4,769,920.6z"/>
					<path class="st2" d="M891.9,774c-2.2,0-4.2,1.9-4.2,4c0,2.2,1.9,4,4,4c2.2,0,4.2-1.9,4.2-4S894.1,774,891.9,774z"/>
					<path class="st2" d="M1073,783.5c2.2,0,4-2,4-4c0-2.2-2-4-4.2-4s-4,2-4,4C1068.8,781.7,1070.8,783.5,1073,783.5z"/>
					<path class="st2" d="M768.4,956.1c2.2,0,4.2-1.9,4.2-4c0-2.2-1.9-4-4-4c-2.2,0-4.2,1.9-4.2,4
						C764.4,954,766.2,956.1,768.4,956.1z"/>
					<path class="st2" d="M824.2,813.4c0,2.2,2,4,4.2,4s4-1.9,4-4c0-2.2-2-4-4.2-4S824.2,811.3,824.2,813.4z"/>
					<path class="st2" d="M787.1,867.3c-2,0-4,2-4,4s2,4,4.2,4c2,0,4-2,4-4C791.1,869.3,789.1,867.3,787.1,867.3z"/>
					<path class="st2" d="M792.2,853.6c0,2,2,4,4,4c2.2,0,4.2-2,4-4.2c0-2-2-4-4.2-4C794.3,849.6,792.2,851.6,792.2,853.6z"/>
					<path class="st2" d="M1009.8,765.8c-2,0-4,2-4,4s2,4.2,4.2,4c2,0,4-2,4-4C1013.8,767.8,1011.8,765.8,1009.8,765.8z"/>
					<path class="st2" d="M1050.9,770.3c0,2,2,4,4,4s4-2,4-4s-2-4-4-4C1052.8,766.3,1050.9,768.3,1050.9,770.3z"/>
					<path class="st2" d="M801.4,835.9c0,2,2,3.9,4,4c2,0,4-2,4-4c0-2.2-2.2-4-4.2-4C803.3,831.8,801.4,833.8,801.4,835.9z"/>
					<path class="st2" d="M777.9,885.2c-2,0-4,2-4,4s1.9,3.9,4,4c2,0,4-2,4-4C782,887.1,780.1,885.2,777.9,885.2z"/>
					<path class="st2" d="M847.2,791.2c0,2,2,4,4,4s4-2,4-4s-2-4-4-4C849.1,787.3,847.2,789.1,847.2,791.2z"/>
					<path class="st2" d="M768.3,1000.6c2.2,0,3.9-1.7,3.9-3.9c0-2-1.7-3.7-3.9-3.7s-3.9,1.7-3.9,3.9
						C764.4,998.9,766.1,1000.6,768.3,1000.6z"/>
					<path class="st2" d="M945.3,998.1c0,2.2,1.7,3.9,4,3.9c2.2,0,3.9-1.7,3.7-3.9c0-2.2-1.7-3.9-4-3.9
						C947,994.2,945.3,995.9,945.3,998.1z"/>
					<path class="st2" d="M760,938.5c0,2,1.9,3.9,3.9,3.9s3.9-1.9,3.9-3.9s-1.9-3.7-3.9-3.7C761.9,934.6,760,936.3,760,938.5z"/>
					<path class="st2" d="M768.9,910.9c2,0,3.9-1.9,3.9-3.9s-1.9-3.9-3.9-3.9S765,905,765,907S766.9,910.9,768.9,910.9z"/>
					<path class="st2" d="M763.7,987.1c2,0,3.9-1.9,3.9-3.7c0-2-1.9-3.9-3.9-3.9s-3.9,1.9-3.9,3.9
						C759.8,985,761.7,986.9,763.7,987.1z"/>
					<path class="st2" d="M810.9,817.6c0,2,1.9,3.9,3.9,3.9s3.9-1.9,3.9-3.9s-1.9-3.7-3.9-3.7C812.8,813.9,810.9,815.8,810.9,817.6z
						"/>
					<path class="st2" d="M1036.4,909c0,2,1.9,3.7,3.9,3.7s3.9-1.9,3.9-3.9s-1.9-3.7-3.9-3.7C1038.3,905.2,1036.4,907,1036.4,909z"
						/>
					<path class="st2" d="M833.7,795.5c0,2,1.9,3.7,3.9,3.7s3.9-1.9,3.9-3.9s-1.9-3.7-3.9-3.7S833.7,793.5,833.7,795.5z"/>
					<path class="st2" d="M964.6,765.8c-2,0-3.9,1.9-3.9,3.9s1.9,3.7,3.7,3.7c2,0,3.9-1.9,3.9-3.7
						C968.4,767.7,966.5,765.8,964.6,765.8z"/>
					<path class="st2" d="M867.6,1028.2c1.9,0,3.9-1.9,3.9-3.7c0-1.7-1.9-3.7-3.7-3.7c-1.7-0.2-3.9,1.9-3.9,3.7
						C863.7,1026,865.7,1028,867.6,1028.2z"/>
					<path class="st2" d="M759.2,966.2c-2,0-3.6,1.6-3.6,3.6s1.6,3.6,3.7,3.6c2,0,3.6-1.7,3.6-3.7
						C763,967.7,761.3,966.2,759.2,966.2z"/>
					<path class="st2" d="M782.7,854.1c-2,0-3.6,1.6-3.6,3.6s1.6,3.6,3.7,3.6c2,0,3.6-1.6,3.6-3.7
						C786.5,855.6,784.9,854.1,782.7,854.1z"/>
					<path class="st2" d="M909.3,773.6c0-2-1.6-3.6-3.7-3.6s-3.7,1.6-3.6,3.7c0,2,1.7,3.6,3.7,3.6
						C907.8,777.3,909.3,775.6,909.3,773.6z"/>
					<path class="st2" d="M1064.3,855.6c0,2,1.7,3.6,3.7,3.6s3.6-1.7,3.6-3.7s-1.7-3.6-3.7-3.6
						C1065.8,851.9,1064.3,853.6,1064.3,855.6z"/>
					<path class="st2" d="M773.6,872.1c-2,0-3.6,1.7-3.6,3.7s1.7,3.6,3.7,3.6s3.6-1.7,3.6-3.7C777.3,873.7,775.6,872.1,773.6,872.1z
						"/>
					<path class="st2" d="M759.7,921.3c-2,0-3.7,1.6-3.7,3.6s1.6,3.6,3.6,3.7c2,0,3.7-1.6,3.7-3.6
						C763.4,923.1,761.7,921.3,759.7,921.3z"/>
					<path class="st2" d="M788.2,839.9c0,1.9,1.7,3.7,3.7,3.7c1.9,0,3.6-1.7,3.6-3.6c0-1.9-1.7-3.7-3.7-3.7
						C789.9,836.3,788.2,838,788.2,839.9z"/>
					<path class="st2" d="M818.6,1024c0,1.9,1.9,3.7,3.7,3.6c1.9,0,3.6-1.7,3.6-3.6s-1.9-3.7-3.7-3.6
						C820.3,1020.2,818.6,1022.1,818.6,1024z"/>
					<path class="st2" d="M824,796.3c-1.9,0-3.6,1.7-3.6,3.6c0,1.9,1.9,3.7,3.7,3.6c1.9,0,3.6-1.9,3.6-3.6
						C827.6,798,825.9,796.3,824,796.3z"/>
					<path class="st2" d="M764.5,890c-1.9,0-3.7,1.7-3.7,3.6c0,1.9,1.7,3.6,3.6,3.6c1.9,0,3.7-1.7,3.7-3.6
						C767.9,891.8,766.2,890,764.5,890z"/>
					<path class="st2" d="M751.3,956.2c0,1.9,1.7,3.6,3.6,3.6c1.9,0,3.6-1.7,3.6-3.6c0-1.9-1.7-3.6-3.6-3.6
						C753.2,952.6,751.4,954.4,751.3,956.2z"/>
					<path class="st2" d="M801.1,818.6c-1.7,0-3.6,1.9-3.6,3.6s1.9,3.6,3.6,3.6c1.7,0,3.6-1.9,3.6-3.6
						C804.7,820.4,802.8,818.6,801.1,818.6z"/>
					<path class="st2" d="M1019.7,765.6c0,1.7,1.7,3.4,3.6,3.3c1.7,0,3.3-1.7,3.3-3.4s-1.7-3.4-3.6-3.3
						C1021.3,762.2,1019.7,763.9,1019.7,765.6z"/>
					<path class="st2" d="M751.8,911.5c0,1.7,1.7,3.4,3.4,3.4s3.4-1.7,3.4-3.4s-1.7-3.4-3.4-3.4S751.8,909.7,751.8,911.5z"/>
					<path class="st2" d="M747.1,942.8c0,1.7,1.6,3.4,3.4,3.4c1.7,0,3.4-1.6,3.4-3.4c0-1.7-1.6-3.3-3.3-3.4
						C748.8,939.4,747.1,941,747.1,942.8z"/>
					<path class="st2" d="M810.3,801c-1.7,0-3.4,1.6-3.4,3.4c0,1.7,1.7,3.4,3.4,3.4s3.3-1.6,3.4-3.3C813.7,802.7,812,801,810.3,801z
						"/>
					<path class="st2" d="M1068.3,762.5c-1.7,0-3.4,1.9-3.3,3.4c0,1.7,1.9,3.3,3.4,3.3c1.7-0.2,3.3-1.7,3.3-3.4
						C1071.8,764.2,1070,762.5,1068.3,762.5z"/>
					<path class="st2" d="M769,858.9c-1.7,0-3.4,1.9-3.3,3.4c0,1.7,1.9,3.3,3.4,3.3c1.7-0.2,3.3-1.7,3.3-3.3
						C772.5,860.6,770.7,858.9,769,858.9z"/>
					<path class="st2" d="M778.4,841.2c-1.7,0-3.4,1.7-3.4,3.4s1.9,3.4,3.4,3.3c1.6,0,3.3-1.7,3.3-3.3
						C781.8,842.9,779.9,841.2,778.4,841.2z"/>
					<path class="st2" d="M746.6,987.5c0,1.6,1.7,3.4,3.4,3.3c1.6,0,3.3-1.7,3.3-3.3s-1.7-3.4-3.3-3.4
						C748.5,984.3,746.6,986,746.6,987.5z"/>
					<path class="st2" d="M829.6,782.1c0,1.7,1.9,3.3,3.4,3.3c1.7,0,3.4-1.9,3.3-3.4c-0.2-1.7-1.7-3.3-3.4-3.3
						C831.3,778.7,829.6,780.6,829.6,782.1z"/>
					<path class="st2" d="M1081.9,803.2c-1.9,0-3.3,1.4-3.3,3.3c0,1.9,1.4,3.3,3.3,3.1c1.7,0,3.1-1.4,3.1-3.1
						C1085.1,804.6,1083.7,803.2,1081.9,803.2z"/>
					<path class="st2" d="M787.6,829.8c1.7,0,3.1-1.6,3.1-3.3s-1.6-3.3-3.3-3.1c-1.7,0-3.1,1.6-3.1,3.3S785.9,829.8,787.6,829.8z"/>
					<path class="st2" d="M760,883.2c1.7,0,3.1-1.6,3.1-3.3s-1.6-3.3-3.4-3.1c-1.7,0-3.1,1.6-3.1,3.3
						C756.7,881.8,758.3,883.4,760,883.2z"/>
					<path class="st2" d="M849.9,777.6c0-1.7-1.6-3.1-3.3-3.1s-3.3,1.6-3.1,3.3c0,1.7,1.6,3.1,3.3,3.1
						C848.5,780.7,850,779.3,849.9,777.6z"/>
					<path class="st2" d="M922.3,769.1c0-1.7-1.6-3.1-3.3-3.1s-3.3,1.6-3.1,3.3c0,1.7,1.7,3.1,3.3,3.1
						C920.9,772.3,922.4,770.8,922.3,769.1z"/>
					<path class="st2" d="M742.6,974c0,1.7,1.4,3.3,3.1,3.3s3.3-1.6,3.3-3.3s-1.6-3.1-3.3-3.1C744.1,970.9,742.6,972.3,742.6,974z"
						/>
					<path class="st2" d="M1083.4,775c0,1.7,1.6,3.1,3.3,3.1s3.1-1.6,3.1-3.3c0-1.6-1.6-3.1-3.3-3.1
						C1085,771.9,1083.4,773.3,1083.4,775z"/>
					<path class="st2" d="M746,926.2c-1.7,0-3.3,1.6-3.1,3.3c0,1.7,1.6,3.1,3.3,3.1s3.1-1.6,3.1-3.1
						C749.1,927.6,747.5,926,746,926.2z"/>
					<path class="st2" d="M822.6,786.5c0-1.6-1.9-3.1-3.3-3.1c-1.6,0.2-3.1,1.9-3.1,3.3c0.2,1.6,1.7,3.1,3.3,3
						C821,789.6,822.8,787.9,822.6,786.5z"/>
					<path class="st2" d="M750.7,901.3c1.6,0,3.3-1.6,3.3-3.1c0-1.6-1.7-3.1-3.1-3.1c-1.6,0-3.1,1.6-3.1,3.1
						C747.5,899.5,749.1,901.3,750.7,901.3z"/>
					<path class="st2" d="M974.9,765.2c0,1.6,1.7,3.1,3.3,3.1s3.1-1.6,3.1-3.1s-1.7-3.1-3.1-3.1C976.5,762,974.9,763.8,974.9,765.2z
						"/>
					<path class="st2" d="M772.5,1013.2c1.6,0,3.1-1.7,3.1-3.1c0-1.6-1.7-3.1-3.1-3.1c-1.6,0-3.1,1.6-3.1,3.1
						C769.3,1011.7,771.1,1013.2,772.5,1013.2z"/>
					<path class="st2" d="M796.8,811.9c1.6,0,3.1-1.4,3.1-3c0.2-1.6-1.6-3.1-3.1-3.3c-1.6,0-3.1,1.4-3.1,3
						C793.6,810.2,795.2,811.9,796.8,811.9z"/>
					<path class="st2" d="M741.2,957.6c-1.6,0-3,1.4-3,3c0,1.7,1.4,3,3.1,3s3-1.4,3-3.1C744.1,958.9,742.9,957.6,741.2,957.6z"/>
					<path class="st2" d="M860.3,770.5c-1.6,0-3,1.6-3,3.1c0,1.4,1.6,3,3.1,2.8c1.6,0,3-1.6,3-3.1
						C863.4,771.9,861.8,770.5,860.3,770.5z"/>
					<path class="st2" d="M751.6,1001.1c0,1.4,1.6,3,3,3s3-1.6,3-3s-1.6-3-3-3C753.2,998.3,751.6,999.7,751.6,1001.1z"/>
					<path class="st2" d="M761.7,848.9c0,1.4,1.6,3,3,3s3-1.4,3-3c0-1.4-1.6-3-3-3C763.1,846,761.7,847.4,761.7,848.9z"/>
					<path class="st2" d="M1028.1,926.8c0,1.4,1.4,3,3,3c1.4,0,3-1.4,3-3c0-1.4-1.4-3-3-3C1029.7,923.8,1028.1,925.4,1028.1,926.8z"
						/>
					<path class="st2" d="M741.6,912.9c-1.4,0-3,1.6-3,3s1.6,3,3,3s3-1.6,3-3C744.6,914.3,743.2,912.9,741.6,912.9z"/>
					<path class="st2" d="M853.9,1031.4c1.4,0,3-1.4,3-3c0-1.4-1.4-3-3-3c-1.4,0-2.8,1.4-3,2.8
						C850.9,1030,852.3,1031.4,853.9,1031.4z"/>
					<path class="st2" d="M770.9,830.9c0,1.4,1.4,3,3,3s3-1.6,3-3s-1.4-2.8-3-2.8C772.5,827.9,770.9,829.3,770.9,830.9z"/>
					<path class="st2" d="M755.6,869.6c1.4,0,3-1.4,3-3c0-1.4-1.4-3-3-3c-1.4,0-2.8,1.4-3,2.8C752.7,868.1,754.1,869.5,755.6,869.6z
						"/>
					<path class="st2" d="M1076.9,834.6c-1.6,0-3,1.6-3,3s1.4,2.8,3,2.8c1.4,0,3-1.4,3-3C1079.8,836,1078.4,834.6,1076.9,834.6z"/>
					<path class="st2" d="M790.7,1022.1c1.2,0,3-1.4,3-2.8c0-1.2-1.4-2.8-2.8-3c-1.4-0.2-3,1.4-3,2.8
						C787.7,1020.5,789.3,1022.1,790.7,1022.1z"/>
					<path class="st2" d="M802.8,790.7c0,1.2,1.6,2.8,2.8,3c1.2,0,3-1.4,3-2.8c0-1.4-1.6-3-3-3C804.4,787.9,802.8,789.5,802.8,790.7
						z"/>
					<path class="st2" d="M733.8,947c0,1.4,1.6,2.8,3,2.8s3-1.6,3-3s-1.7-2.8-3-2.8C735.4,944.2,733.8,945.8,733.8,947z"/>
					<path class="st2" d="M962.7,996.4c1.6,0,2.8-1.2,2.8-2.8c0-1.4-1.2-2.8-2.8-2.8s-2.8,1.2-2.8,2.8S961.2,996.4,962.7,996.4z"/>
					<path class="st2" d="M746.5,887.2c1.6,0,2.8-1.2,2.8-2.8c0-1.4-1.2-2.8-2.8-2.8s-2.8,1.2-2.8,2.8S744.9,887.2,746.5,887.2z"/>
					<path class="st2" d="M780.2,813.1c0,1.4,1.4,2.8,2.8,2.8c1.4,0,2.6-1.4,2.6-2.8c0-1.4-1.4-2.8-2.8-2.6
						C781.6,810.3,780.2,811.7,780.2,813.1z"/>
					<path class="st2" d="M1034.1,761.1c0,1.4,1.4,2.8,2.8,2.8s2.8-1.4,2.8-2.6c0-1.4-1.4-2.8-2.8-2.8S1034.2,759.7,1034.1,761.1z"
						/>
					<path class="st2" d="M729.3,978.5c0,1.2,1.6,2.6,2.8,2.6s2.6-1.6,2.6-2.8s-1.6-2.6-2.6-2.6
						C730.9,975.8,729.3,977.2,729.3,978.5z"/>
					<path class="st2" d="M732.4,931c-1.2,0-2.6,1.4-2.6,2.6s1.4,2.6,2.6,2.6c1.2,0,2.6-1.4,2.8-2.6
						C735.2,932.6,733.7,931.2,732.4,931z"/>
					<path class="st2" d="M734.5,902.3c0,1.2,1.4,2.6,2.6,2.6s2.6-1.4,2.6-2.5c0.2-1.2-1.4-2.6-2.6-2.8
						C736,899.5,734.6,901.1,734.5,902.3z"/>
					<path class="st2" d="M930.2,764.8c0,1.4,1.1,2.5,2.5,2.5c1.6,0,2.6-1.1,2.6-2.5s-1.1-2.5-2.5-2.5
						C931.4,762.4,930.2,763.4,930.2,764.8z"/>
					<path class="st2" d="M789.7,795.2c0,1.4,1.1,2.5,2.6,2.5c1.6,0,2.5-1.1,2.5-2.6c0-1.4-1.2-2.5-2.6-2.3
						C790.8,792.7,789.7,793.8,789.7,795.2z"/>
					<path class="st2" d="M734,992c0,1.2,1.2,2.5,2.5,2.5c1.2,0,2.5-1.4,2.5-2.5s-1.2-2.5-2.5-2.5C735.4,989.5,734,990.8,734,992z"
						/>
					<path class="st2" d="M757.8,835.2c0,1.2,1.2,2.5,2.5,2.5c1.2,0,2.5-1.2,2.5-2.5c0-1.1-1.2-2.5-2.5-2.5
						C759.2,832.7,757.8,834.1,757.8,835.2z"/>
					<path class="st2" d="M876.5,768.9c0-1.2-1.4-2.5-2.6-2.3c-1.2,0.2-2.5,1.6-2.3,2.6c0.2,1.2,1.4,2.3,2.5,2.3
						C875.2,771.4,876.5,770,876.5,768.9z"/>
					<path class="st2" d="M748.6,853.1c0,1.2,1.4,2.5,2.6,2.5c1.2,0,2.5-1.4,2.5-2.6s-1.4-2.3-2.5-2.3
						C749.9,850.6,748.6,852.1,748.6,853.1z"/>
					<path class="st2" d="M725.3,965.1c0,1.1,1.2,2.5,2.5,2.5c1.2,0,2.5-1.2,2.5-2.5s-1.4-2.5-2.5-2.3
						C726.5,962.6,725.3,964,725.3,965.1z"/>
					<path class="st2" d="M741.9,873.2c1.4,0,2.3-0.9,2.3-2.3s-0.9-2.2-2.3-2.2s-2.3,0.9-2.3,2.3
						C739.6,872.3,740.5,873.2,741.9,873.2z"/>
					<path class="st2" d="M767.3,817.5c0,1.4,0.9,2.3,2.5,2.3c1.4,0,2.2-0.9,2.2-2.3s-0.9-2.3-2.5-2.3
						C768.1,815.1,767.3,816.1,767.3,817.5z"/>
					<path class="st2" d="M991.7,758.5c-1.1,0-2.3,1.2-2.3,2.3s1.2,2.2,2.3,2.2s2.3-1.2,2.3-2.3S992.8,758.3,991.7,758.5z"/>
					<path class="st2" d="M1079.8,761.4c0,1.1,1.2,2.3,2.3,2.3s2.3-1.2,2.3-2.3s-1.2-2.3-2.3-2.3
						C1080.9,759.1,1079.8,760.2,1079.8,761.4z"/>
					<path class="st2" d="M1088.6,788.4c0,1.1,1.1,2.3,2.3,2.3c1.1,0,2.3-1.2,2.3-2.3s-1.2-2.2-2.3-2.2
						C1089.7,786,1088.6,787.3,1088.6,788.4z"/>
					<path class="st2" d="M725.6,920.1c0,1.1,1.2,2.3,2.3,2.3s2.3-1.1,2.3-2.3c0-1.1-1.2-2.3-2.3-2.3
						C726.8,917.9,725.7,919,725.6,920.1z"/>
					<path class="st2" d="M730.4,889c0,1.1,1.2,2.2,2.2,2.2c1.1,0,2.3-1.2,2.3-2.3s-1.2-2.3-2.3-2.2
						C731.5,886.8,730.4,888,730.4,889z"/>
					<path class="st2" d="M996.9,967c0,1.1,1.2,2.3,2.3,2.2c1.1,0,2.2-1.2,2.2-2.2c0-1.1-1.2-2.3-2.3-2.2
						C997.9,964.6,996.9,965.9,996.9,967z"/>
					<path class="st2" d="M723.3,953.7c1.1,0,2.3-1.2,2.3-2.3s-1.1-2.2-2.2-2.2s-2.3,1.1-2.3,2.2
						C721.1,952.6,722.2,953.7,723.3,953.7z"/>
					<path class="st2" d="M778.5,797.4c-1.1,0-2.2,1.1-2.2,2.2c0,1.1,1.2,2.3,2.3,2.3s2.3-1.2,2.2-2.3
						C780.7,798.5,779.6,797.4,778.5,797.4z"/>
					<path class="st2" d="M801.6,779.5c1.1,0,2-1.1,2-2.2c0-1.1-1.1-2-2.2-2s-2,1.1-2,2.2C799.6,778.6,800.5,779.5,801.6,779.5z"/>
					<path class="st2" d="M815,770.9c-1.1,0-2,0.9-2.2,2c0,1.1,0.9,2,2,2.2c1.1,0,2.2-0.9,2.2-2C817.2,771.9,816.1,770.9,815,770.9z
						"/>
					<path class="st2" d="M716.7,938.2c0,0.9,1.1,2,2,2s2-1.1,2-2s-1.1-2-2-2S716.7,937.4,716.7,938.2z"/>
					<path class="st2" d="M723.6,908.7c0.9,0,2-1.2,2-2c0-0.9-1.2-2-2-2c-0.9,0-2,1.2-2,2C721.5,907.8,722.6,908.9,723.6,908.7z"/>
					<path class="st2" d="M744.6,839.7c0,0.9,1.1,2,2,2s2-1.1,2-2s-1.1-2-2-2C745.7,837.7,744.6,838.8,744.6,839.7z"/>
					<path class="st2" d="M787.7,779.6c-0.9,0-2,1.1-2,2s1.2,2,2.2,1.9c0.9,0,1.9-1.1,1.9-2C789.7,780.7,788.7,779.6,787.7,779.6z"
						/>
					<path class="st2" d="M1048.4,756.6c0,0.9,1.1,2,2,2s2-0.9,2-1.9c0-0.9-0.9-2-1.9-2C1049.6,754.7,1048.4,755.7,1048.4,756.6z"/>
					<path class="st2" d="M735.4,857.5c0,0.9,1.1,2,2,2s2-1.1,2-2s-1.1-1.9-2-1.9S735.4,856.6,735.4,857.5z"/>
					<path class="st2" d="M755.8,823.9c0.9,0,2-1.1,2-2s-1.1-2-2-2s-1.9,1.1-1.9,2C753.8,822.8,755,823.9,755.8,823.9z"/>
					<path class="st2" d="M728.6,873.5c-0.8,0-1.9,1.1-1.9,1.9c0,0.8,1.1,1.9,1.9,1.9c0.8,0,1.9-1.1,1.9-1.9
						C730.3,874.6,729.3,873.5,728.6,873.5z"/>
					<path class="st2" d="M885.8,764.5c0,0.8,1.1,1.9,1.9,1.9c0.8,0,1.9-1.1,1.9-1.9s-1.1-1.9-1.9-1.9
						C886.8,762.7,885.8,763.8,885.8,764.5z"/>
					<path class="st2" d="M763.3,803.9c0,0.8,1.1,1.7,1.9,1.9c0.8,0,1.9-1.1,1.9-1.9c0-0.8-1.1-1.9-2-1.9
						C764.2,802.1,763.3,803.2,763.3,803.9z"/>
					<path class="st2" d="M806.9,1028.3c0,0.8,1.1,1.9,1.9,1.9s1.9-0.9,1.9-1.9c0-0.8-1.1-1.9-1.9-1.9
						C807.8,1026.6,806.9,1027.5,806.9,1028.3z"/>
					<path class="st2" d="M714.1,971.2c0.9,0,1.7-0.9,1.7-1.9c0-0.9-0.9-1.7-1.9-1.7c-0.9,0-1.7,0.9-1.7,1.9
						C712.4,970.2,713.3,971.2,714.1,971.2z"/>
					<path class="st2" d="M716.7,983c0,0.9,0.9,1.7,1.9,1.7c0.9,0,1.7-0.9,1.7-1.9c0-0.9-0.9-1.7-1.9-1.7
						C717.7,981.1,716.7,982.1,716.7,983z"/>
					<path class="st2" d="M828.7,766.7c-0.9,0-1.7,0.9-1.7,1.7c0,0.9,0.9,1.7,1.9,1.7c0.9,0,1.9-0.9,1.7-1.7
						C830.5,767.7,829.6,766.7,828.7,766.7z"/>
					<path class="st2" d="M712.8,924.6c0,0.8,0.8,1.6,1.7,1.6c0.8,0,1.6-0.8,1.7-1.6c0-0.9-0.8-1.7-1.7-1.7
						C713.6,923.1,712.8,923.8,712.8,924.6z"/>
					<path class="st2" d="M946.4,762c0.8,0,1.7-0.9,1.6-1.7c0-0.8-0.9-1.6-1.6-1.6c-0.8,0-1.7,0.8-1.7,1.6
						C944.7,761.3,945.6,762.2,946.4,762z"/>
					<path class="st2" d="M717.7,893.2c0,0.8,0.9,1.6,1.7,1.6s1.6-0.8,1.6-1.6s-0.8-1.7-1.7-1.7
						C718.4,891.6,717.5,892.4,717.7,893.2z"/>
					<path class="st2" d="M774.3,787.6c0.6,0,1.6-0.9,1.6-1.7s-1.1-1.6-1.7-1.4c-0.8,0.2-1.4,0.8-1.4,1.6
						C772.6,786.8,773.7,787.7,774.3,787.6z"/>
					<path class="st2" d="M708,956.1c0,0.6,0.9,1.6,1.7,1.6s1.6-0.9,1.4-1.7c-0.2-0.8-0.8-1.4-1.6-1.4
						C708.8,954.4,708,955.4,708,956.1z"/>
					<path class="st2" d="M1021.9,943.5c-0.9,0-1.6,0.6-1.4,1.4c0,0.9,0.5,1.4,1.4,1.4s1.4-0.6,1.4-1.4
						C1023.3,944.1,1022.7,943.5,1021.9,943.5z"/>
					<path class="st2" d="M739.6,1005.4c0,0.8,0.8,1.4,1.4,1.4c0.8-0.2,1.2-0.6,1.4-1.4c0-0.8-0.6-1.4-1.4-1.4
						C740.2,1004,739.6,1004.7,739.6,1005.4z"/>
					<path class="st2" d="M1003.9,756.4c0,0.8,0.8,1.4,1.4,1.4c0.8,0,1.2-0.6,1.4-1.4c0-0.8-0.6-1.4-1.4-1.4
						S1003.9,755.8,1003.9,756.4z"/>
					<path class="st2" d="M759.1,1016c0.8,0,1.4-0.6,1.4-1.4s-0.8-1.4-1.4-1.4c-0.8,0.2-1.2,0.6-1.4,1.4
						C757.5,1015.2,758.3,1016,759.1,1016z"/>
					<path class="st2" d="M1084.7,819.8c0,0.8,0.8,1.4,1.4,1.4c0.8-0.2,1.2-0.6,1.4-1.4c0-0.8-0.6-1.4-1.4-1.4
						C1085.5,818.3,1084.7,819,1084.7,819.8z"/>
					<path class="st2" d="M742.4,827.6c0.8,0,1.4-0.8,1.4-1.4c-0.2-0.8-0.6-1.2-1.4-1.4c-0.8,0-1.4,0.6-1.4,1.4
						C741,826.8,741.6,827.6,742.4,827.6z"/>
					<path class="st2" d="M731.8,844c0,0.8,0.6,1.4,1.4,1.4c0.8,0,1.4-0.8,1.4-1.4c0-0.8-0.6-1.2-1.4-1.4
						C732.4,842.6,731.8,843.2,731.8,844z"/>
					<path class="st2" d="M751.4,806.6c-0.6,0.8-1.4,1.2-1.4,1.7s0.8,1.2,1.2,1.4c0.3,0,1.2-0.8,1.2-1.1
						C752.7,808,752.1,807.4,751.4,806.6z"/>
					<path class="st2" d="M722.2,862c0.8,0.6,1.4,1.2,1.9,1.2s1.2-0.9,1.2-1.2c-0.2-0.5-0.8-1.2-1.4-1.2
						C723.4,860.8,722.9,861.4,722.2,862z"/>
					<path class="st2" d="M710,913.1c0.6-0.8,1.2-1.4,1.2-1.9s-0.8-0.9-1.2-1.2c-0.5,0.5-1.2,0.8-1.2,1.4
						C708.6,911.7,709.4,912.2,710,913.1z"/>
					<path class="st2" d="M838.8,1033.3c0.5,0.3,0.9,0.8,1.4,0.9c0.8,0.2,1.1-0.5,1.1-1.1c0-0.8-0.5-1.2-1.2-1.1
						c-0.5,0.2-0.9,0.6-1.4,0.9C838.8,1033,838.8,1033.2,838.8,1033.3z"/>
					<path class="st2" d="M976.1,987.8c-0.3,0.5-0.8,0.9-0.9,1.4c-0.2,0.8,0.5,1.1,1.1,1.2c0.8,0,1.2-0.5,1.1-1.1
						c-0.2-0.5-0.6-0.9-0.9-1.4C976.5,987.8,976.3,987.8,976.1,987.8z"/>
					<path class="st2" d="M705,941c-0.3,0.5-0.8,0.8-0.9,1.4c-0.2,0.6,0.3,1.2,1.1,1.2s1.2-0.5,1.2-1.1c0-0.5-0.5-0.9-0.8-1.4
						C705.3,941.1,705.2,941.1,705,941z"/>
					<path class="st2" d="M841.9,763c-0.3,0.5-0.8,0.8-0.9,1.4c-0.2,0.6,0.3,1.2,1.1,1.2s1.2-0.5,1.2-1.1c0-0.5-0.6-0.9-0.8-1.4
						C842.4,763,842.2,763,841.9,763z"/>
					<path class="st2" d="M713.1,879.8c0.8,0.5,1.1,1.1,1.6,1.1c0.3,0,1.1-0.6,1.1-0.9c0-0.5-0.6-1.1-1.1-1.1
						C714.4,878.7,713.9,879.3,713.1,879.8z"/>
					<path class="st2" d="M760.6,789c-0.6,0.6-1.1,1.1-1.1,1.6c0,0.3,0.6,1.1,0.9,1.1c0.5,0,1.1-0.6,1.2-0.9
						C761.7,790.2,761.1,789.8,760.6,789z"/>
					<path class="st2" d="M722.8,997.6c0.5-0.6,0.9-1.1,0.9-1.4s-0.5-0.8-0.9-0.9c-0.3,0-0.9,0.5-0.9,0.8
						C721.9,996.6,722.3,997,722.8,997.6z"/>
					<path class="st2" d="M1062.9,752.5c0.6,0.3,0.9,0.9,1.2,0.8c0.3,0,0.6-0.6,0.9-0.9c-0.3-0.3-0.6-0.8-0.9-0.8
						C1063.8,751.6,1063.3,752.1,1062.9,752.5z"/>
					<path class="st2" d="M700.8,927.9c-0.5,0.5-0.9,0.9-0.9,1.2s0.5,0.9,0.8,0.9s0.8-0.5,0.9-0.8
						C701.8,928.8,701.1,928.4,700.8,927.9z"/>
					<path class="st2" d="M782.3,768.3c0.6,0.3,0.9,0.8,1.2,0.8s0.6-0.6,0.9-0.9c-0.3-0.3-0.6-0.8-0.9-0.8
						C783.2,767.3,782.7,768,782.3,768.3z"/>
					<path class="st2" d="M1094.6,757.1c0.6,0.5,0.9,0.8,1.1,0.8c0.3,0,0.6-0.5,0.8-0.8c0-0.2-0.3-0.6-0.6-0.6
						C1095.6,756.4,1095.3,756.8,1094.6,757.1z"/>
					<path class="st2" d="M699.4,973.8c0.6,0.3,0.9,0.8,1.2,0.6c0.3,0,0.6-0.5,0.6-0.8c0-0.2-0.5-0.6-0.6-0.6
						C700.2,973,700.1,973.5,699.4,973.8z"/>
					<path class="st2" d="M704.3,897.7c0.6,0.3,0.9,0.8,1.2,0.6c0.3,0,0.6-0.5,0.6-0.8c0-0.2-0.5-0.6-0.6-0.6
						C705.2,896.9,704.9,897.4,704.3,897.7z"/>
					<path class="st2" d="M728.6,831.8c0.5-0.6,0.8-0.9,0.8-1.1c0-0.3-0.5-0.6-0.8-0.8c-0.2,0-0.6,0.3-0.6,0.6
						C727.9,830.9,728.2,831.2,728.6,831.8z"/>
					<path class="st2" d="M1098.8,770.6c0.6,0.3,0.9,0.6,1.2,0.6c0.3,0,0.6-0.5,0.6-0.8c0-0.2-0.5-0.6-0.8-0.6
						C1099.8,769.8,1099.5,770.1,1098.8,770.6z"/>
				</g>
			</g>
		</g>
	</g>
	<path class="st3" d="M925.5,544.5c-17-4.4-33.2,7.5-30.7,25.4c1.9,13.2,13.4,22.6,26.8,20.9c2.2-0.3,4.5-0.8,6.5-1.6
		c2-0.9,4.4-2.8,6.2-4c1.7-1.2,3.1-3.1,4-4.8c0.8-1.4,1.4-2.8,1.6-4.4C940.5,564,939.4,548.1,925.5,544.5z"/>
</g>
</svg>
